<svg width="547" height="355" viewBox="0 0 547 355" fill="none" xmlns="http://www.w3.org/2000/svg">
<path d="M268.225 0.541009L268.225 331.656C137.188 361.362 57.307 308.668 42.331 263.503C6.98699 156.933 126.777 170.743 176.833 57.3542C206.376 -9.54203 268.225 0.541009 268.225 0.541009Z" fill="#F7EBF2"/>
<path opacity="0.21" d="M268.225 0.573761L268.225 331.706C268.225 331.706 394.819 383.448 440.271 329.5C500.773 257.677 367.155 201.337 388.047 155.749C419.712 86.6457 430.619 59.0114 385.212 23.5747C347.634 -5.74777 268.225 0.573761 268.225 0.573761Z" fill="#ED3B63"/>
<path d="M295.869 184.71C288.178 182.171 289.355 170.008 289.367 169.886L289.956 169.949C289.943 170.067 288.817 181.754 296.052 184.146L295.869 184.71Z" fill="#ED3B63"/>
<path d="M305.777 181.733C298.086 177.152 300.148 164.416 300.173 164.286L300.757 164.387C300.736 164.509 298.745 176.845 306.082 181.219L305.777 181.733Z" fill="#ED3B63"/>
<path d="M313.95 178.183C310.213 170.925 309.858 163.957 312.928 158.029C312.999 157.894 313.045 157.806 313.062 157.759L313.271 157.835L313.642 157.789C313.654 157.911 313.613 157.995 313.45 158.307C310.476 164.054 310.826 170.832 314.472 177.909L313.95 178.183Z" fill="#ED3B63"/>
<path d="M329.867 177.683C322.232 168.087 326.204 154.631 326.245 154.497L326.813 154.673C326.771 154.804 322.891 167.961 330.33 177.312L329.867 177.683Z" fill="#ED3B63"/>
<path d="M366.578 194.237L365.998 194.115C366.828 190.064 366.269 186.688 364.329 184.082C360.957 179.547 354.422 178.764 353.7 178.688C349.848 180.166 345.291 179.412 345.099 179.379L344.995 179.362L344.924 179.286C335.743 168.92 339.345 152.804 339.382 152.644L339.958 152.778C339.921 152.938 336.411 168.672 345.296 178.81C345.992 178.911 350.145 179.442 353.55 178.111L353.612 178.086L353.679 178.09C353.98 178.116 361.078 178.726 364.796 183.724C366.849 186.469 367.45 190.01 366.578 194.237Z" fill="#ED3B63"/>
<path d="M359.326 174.121C350.512 161.6 353.738 148.409 353.772 148.278L354.343 148.426C354.31 148.556 351.159 161.486 359.81 173.776L359.326 174.121Z" fill="#ED3B63"/>
<path d="M371.018 164.117C367.584 157.342 366.766 151.242 366.687 147.314C366.599 143.049 367.317 140.426 367.35 140.316L367.918 140.476C367.889 140.582 365.081 151.09 371.543 163.843L371.018 164.117Z" fill="#ED3B63"/>
<path d="M383.582 151.692C379.373 141.899 382.556 131.955 382.589 131.858L383.152 132.047C383.119 132.144 380.007 141.878 384.128 151.457L383.582 151.692Z" fill="#ED3B63"/>
<path d="M346.905 206.107L346.546 205.631C349.254 203.551 349.53 201.425 349.284 200.006C348.904 197.834 346.988 195.796 344.627 195.051C340.483 193.745 337.395 192.154 337.361 192.141L337.633 191.611C337.662 191.628 340.712 193.194 344.802 194.482C347.368 195.291 349.451 197.522 349.868 199.905C350.139 201.484 349.851 203.846 346.905 206.107Z" fill="#ED3B63"/>
<path d="M357.34 202.114L356.943 201.668C356.956 201.655 358.141 200.573 358.901 198.91C359.902 196.717 359.731 194.599 358.387 192.608C355.091 187.724 345.914 185.21 345.822 185.185L345.977 184.608C346.361 184.714 355.458 187.202 358.88 192.271C362.385 197.466 357.394 202.068 357.34 202.114Z" fill="#ED3B63"/>
<path d="M375.19 192.292L374.66 192.027C377.251 186.789 377.614 182.545 375.732 179.421C370.979 171.527 362.278 172.462 362.195 172.474L362.124 171.88C362.216 171.872 371.284 170.878 376.237 179.11C378.232 182.423 377.881 186.861 375.19 192.292Z" fill="#ED3B63"/>
<path d="M352.803 241.687L352.332 241.329C352.357 241.295 354.739 238.015 354.513 232.205C354.288 226.327 352.173 221.073 352.152 221.023L352.119 220.947L352.131 220.863C352.932 215.848 351.906 212.505 351.898 212.472L351.864 212.375L351.902 212.278C353.525 207.912 353.412 204.367 353.412 204.333L354.004 204.312C354.009 204.459 354.125 207.958 352.49 212.396C352.661 213.002 353.462 216.189 352.728 220.879C352.995 221.566 354.885 226.601 355.102 232.188C355.335 238.217 352.907 241.548 352.803 241.687Z" fill="#ED3B63"/>
<path d="M350.491 205.652L350.479 205.054C358.174 204.881 360.782 202.591 360.807 202.57L361.208 203.012C361.095 203.109 358.449 205.471 350.491 205.652Z" fill="#ED3B63"/>
<path d="M353.654 212.758C352.87 212.758 352.315 212.695 352.169 212.674C346.506 213.179 342.754 210.46 342.596 210.342L342.946 209.862C342.984 209.891 346.698 212.581 352.148 212.076L352.181 212.072L352.215 212.076C352.248 212.08 355.503 212.523 358.349 211.243L358.591 211.786C356.813 212.594 354.927 212.758 353.654 212.758Z" fill="#ED3B63"/>
<path d="M348.542 218.607C344.766 218.607 342.229 217.513 342.091 217.45L342.329 216.902C342.375 216.923 346.819 218.831 352.607 217.572L352.669 217.559L352.732 217.572C352.761 217.576 355.436 218.106 358.808 216.641L359.042 217.188C355.736 218.624 353.12 218.245 352.674 218.165C351.184 218.485 349.794 218.607 348.542 218.607Z" fill="#ED3B63"/>
<path d="M343.702 225.491L343.268 225.082C343.405 224.935 346.669 221.47 352.352 220.611C352.619 220.527 354.38 220.076 357.894 221.537L357.669 222.089C354.172 220.632 352.536 221.175 352.523 221.183L352.465 221.196C346.977 222.017 343.735 225.457 343.702 225.491Z" fill="#ED3B63"/>
<path d="M345.859 234.593L345.32 234.344C345.345 234.294 345.909 233.069 347.357 231.865C348.684 230.761 351.037 229.465 354.731 229.57C354.797 229.566 357.042 229.465 358.954 232.197L358.47 232.542C356.746 230.075 354.76 230.168 354.739 230.168C348.041 229.987 345.942 234.403 345.859 234.593Z" fill="#ED3B63"/>
<path d="M388.587 145.158L388.128 144.779C390.694 141.613 411.601 132.62 427.204 127.29C435.016 124.621 440.02 123.219 444.857 121.863C450.152 120.377 455.631 118.844 464.787 115.636C482.101 109.569 497.333 107.851 497.483 107.834L497.529 107.83L497.541 107.834C497.65 107.822 498.013 107.733 498.397 107.645C500.805 107.081 507.198 105.578 513.553 106.003L513.608 106.011L539.272 112.84L539.122 113.417L513.487 106.597C507.227 106.184 500.913 107.666 498.53 108.226C497.833 108.39 497.642 108.424 497.521 108.432C496.799 108.516 481.892 110.276 464.979 116.2C455.807 119.413 450.319 120.954 445.015 122.44C440.183 123.795 435.188 125.193 427.392 127.858C410.091 133.77 390.87 142.342 388.587 145.158Z" fill="#ED3B63"/>
<path d="M377.227 193.408L377.005 192.856C377.03 192.844 379.718 191.736 382.422 189.665C384.892 187.77 387.893 184.663 388.147 180.592C388.644 172.643 382.777 166.032 378.52 164.976C374.251 163.915 370.888 164.677 370.854 164.685L370.721 164.104C370.863 164.07 374.247 163.304 378.662 164.399C383.115 165.506 389.253 172.377 388.74 180.629C388.527 184.031 386.462 187.32 382.768 190.149C380.002 192.267 377.339 193.361 377.227 193.408Z" fill="#ED3B63"/>
<path d="M385.616 198.053L385.562 197.459C391.612 196.908 397.108 192.247 399.896 185.287C401.056 182.395 401.957 176.997 401.352 171.457C400.701 165.486 398.465 161.285 395.051 159.621C387.231 155.811 378.826 157.432 378.743 157.449L378.626 156.864C378.714 156.847 387.306 155.188 395.306 159.083C403.343 162.998 403.197 178.635 400.443 185.51C397.576 192.676 391.892 197.48 385.616 198.053Z" fill="#ED3B63"/>
<path d="M406.092 199.736L405.678 199.306C405.791 199.197 416.887 188.12 417.062 172.718C417.167 163.713 413.991 156.096 408.358 151.819C402.757 147.57 394.945 146.8 385.769 149.591C385.685 149.621 375.879 153.183 362.525 161.317C351.178 168.226 341.33 169.072 333.414 169.75C331.874 169.881 330.422 170.007 329.07 170.171C327.263 170.39 325.339 170.525 323.298 170.672C316.288 171.173 307.562 171.792 297.935 176.369C288.679 180.769 285.649 181.998 281.969 182.263L281.927 181.67C285.507 181.413 288.503 180.196 297.68 175.83C307.407 171.203 316.196 170.58 323.252 170.079C325.285 169.935 327.2 169.797 328.995 169.582C330.355 169.418 331.816 169.291 333.36 169.161C341.213 168.487 350.986 167.649 362.216 160.812C375.628 152.648 385.485 149.065 385.581 149.031C394.958 146.177 402.949 146.981 408.708 151.351C414.496 155.743 417.755 163.536 417.651 172.735C417.476 188.385 406.204 199.626 406.092 199.736Z" fill="#ED3B63"/>
<path d="M395.481 140.434C394.053 132.658 395.355 127.024 395.372 126.97L395.948 127.109C395.936 127.163 394.662 132.687 396.065 140.329L395.481 140.434Z" fill="#ED3B63"/>
<path d="M335.339 203.066C335.022 195.117 343.74 189.497 350.108 185.392L350.926 184.861C356.881 181.005 363.629 176.639 381.727 161.334C400.105 145.79 412.074 141.268 429.016 137.959C442.307 135.361 454.484 132.153 468.585 128.439C472.791 127.332 477.14 126.187 481.709 125.004C501.273 119.956 514.443 118.339 514.572 118.322L514.605 118.318L540.249 121.459L540.178 122.052L514.605 118.92C513.842 119.017 500.88 120.671 481.851 125.585C477.282 126.764 472.933 127.909 468.731 129.016C454.622 132.734 442.432 135.946 429.125 138.548C412.278 141.841 400.381 146.337 382.103 161.797C363.975 177.127 357.21 181.506 351.243 185.371L350.425 185.901C344.178 189.926 335.627 195.442 335.932 203.05L335.339 203.066Z" fill="#ED3B63"/>
<path d="M340.31 205.803C340.168 200.646 345.063 195.993 355.266 191.585C362.11 188.63 369.363 183.636 373.87 179.948C374.738 179.236 375.464 178.626 376.165 178.032C378.882 175.742 381.231 173.767 390.161 167.376C402.03 158.88 413.718 154.981 418.296 154.518L418.768 154.472C423.467 154 426.058 153.739 430.615 151.975C435.952 149.912 450.975 146.851 455.453 145.963C462.873 144.489 487.314 138.75 496.587 135.572C505.697 132.448 515.804 131.883 515.904 131.879L542.807 128.25L542.887 128.844L515.958 132.473C515.833 132.481 505.809 133.041 496.775 136.136C487.481 139.323 462.994 145.074 455.566 146.548C451.1 147.436 436.119 150.489 430.828 152.535C426.192 154.328 423.575 154.589 418.826 155.069L418.355 155.116C413.835 155.57 402.276 159.435 390.504 167.864C381.59 174.243 379.253 176.213 376.545 178.495C375.839 179.089 375.113 179.7 374.241 180.415C369.705 184.129 362.398 189.16 355.5 192.141C345.543 196.444 340.769 200.907 340.903 205.795L340.31 205.803Z" fill="#ED3B63"/>
<path d="M372.283 192.331L371.962 191.83C372.108 191.733 386.764 182.239 404.729 180.268C416.622 178.963 426.796 172.664 434.975 167.604C439.361 164.888 443.15 162.543 446.618 161.229C456.007 157.667 494.992 147.921 517.677 148.931L546.458 138.267L546.663 138.827L517.773 149.533L517.714 149.529C495.13 148.506 456.199 158.236 446.831 161.785C443.413 163.082 439.649 165.41 435.288 168.109C427.059 173.199 416.822 179.54 404.796 180.858C386.964 182.82 372.429 192.238 372.283 192.331Z" fill="#ED3B63"/>
<path d="M390.261 195.062C383.163 195.062 378.234 193.892 378.151 193.871L378.289 193.29C378.426 193.324 392.252 196.603 407.016 192.052C421.764 187.509 429.63 183.686 435.072 178.419L435.48 178.849C429.964 184.183 422.031 188.044 407.187 192.621C401.099 194.507 395.16 195.062 390.261 195.062Z" fill="#ED3B63"/>
<path d="M425.275 188.321L424.808 187.959C424.875 187.871 431.572 178.911 431.239 167.657C431.034 160.811 429.724 158.121 427.913 154.399C426.719 151.949 425.234 148.896 423.719 143.878C419.963 131.411 424.758 118.241 424.804 118.106L425.359 118.317C425.309 118.447 420.585 131.436 424.282 143.705C425.78 148.677 427.195 151.578 428.439 154.138C430.283 157.931 431.618 160.668 431.827 167.645C432.165 179.113 425.342 188.233 425.275 188.321Z" fill="#ED3B63"/>
<path d="M447.11 167.784C441.89 162.926 441.168 148.872 440.592 137.58C440.371 133.256 440.162 129.172 439.72 126.347C438.155 116.326 439.557 112.672 439.615 112.524L440.162 112.748L439.887 112.634L440.162 112.743C440.149 112.777 438.768 116.436 440.3 126.25C440.746 129.104 440.947 133.016 441.18 137.542C441.752 148.724 442.465 162.643 447.511 167.338L447.11 167.784Z" fill="#ED3B63"/>
<path d="M462.266 164.542C455.923 159.047 455.214 147.919 454.313 133.836C454.192 131.971 454.071 130.06 453.933 128.11C452.773 111.876 456.491 105.569 456.65 105.308L457.154 105.619C457.117 105.682 453.382 112.057 454.525 128.068C454.663 130.018 454.788 131.929 454.905 133.798C455.798 147.743 456.499 158.757 462.655 164.087L462.266 164.542Z" fill="#ED3B63"/>
<path d="M409.298 144.123L408.734 143.937C409.548 141.398 409.531 137.887 408.68 132.548C407.696 126.389 409.902 123.227 409.994 123.096L410.474 123.446C410.453 123.475 408.321 126.557 409.26 132.452C410.136 137.891 410.144 141.491 409.298 144.123Z" fill="#ED3B63"/>
<path d="M360.519 238.917L360.06 238.542C364.262 233.317 363.248 222.143 363.235 222.029L363.227 221.958L363.256 221.89C366.156 214.737 366.403 209.537 366.403 209.487L366.407 209.415L366.44 209.352C371.511 200.321 373.33 192.023 373.347 191.938L373.923 192.065C373.906 192.149 372.078 200.498 366.987 209.588C366.945 210.253 366.557 215.293 363.828 222.054C363.87 222.526 364.07 225.195 363.824 228.378C363.469 233.085 362.355 236.635 360.519 238.917Z" fill="#ED3B63"/>
<path d="M371.261 202.292C365.382 202.292 360.925 199.846 360.862 199.808L361.15 199.286C361.242 199.336 370.539 204.434 379.887 199.648L380.154 200.178C377.083 201.753 374.016 202.292 371.261 202.292Z" fill="#ED3B63"/>
<path d="M369.868 210.161C364.025 210.161 360.099 207.635 360.053 207.606L360.374 207.104C360.428 207.142 365.97 210.692 373.653 209.197L373.765 209.782C372.392 210.052 371.086 210.161 369.868 210.161Z" fill="#ED3B63"/>
<path d="M371.911 216.523C364.737 213.651 358.945 214.809 358.887 214.818L358.766 214.232C358.824 214.22 364.779 213.028 372.124 215.967L371.911 216.523Z" fill="#ED3B63"/>
<path d="M369.033 224.763C366.75 222.379 363.558 222.299 363.529 222.299H363.433L363.357 222.24C361.922 221.141 357.991 221.285 357.953 221.289L357.928 220.691C358.095 220.682 361.98 220.539 363.637 221.706C364.221 221.735 367.209 221.996 369.463 224.346L369.033 224.763Z" fill="#ED3B63"/>
<path d="M368.368 232.311C366.532 229.478 363.44 229.377 363.406 229.377H363.348L363.294 229.356C361.537 228.598 358.958 229.452 358.933 229.461L358.745 228.897C358.858 228.859 361.52 227.979 363.477 228.787C363.953 228.812 366.974 229.073 368.861 231.991L368.368 232.311Z" fill="#ED3B63"/>
<path d="M281.309 178.049L281.046 177.514C281.843 177.118 282.769 176.68 283.938 176.129C286.554 174.9 290.139 173.211 295.355 170.504C308.78 163.528 312.189 163.153 318.382 162.462C320.306 162.248 322.484 162.008 325.326 161.528C337.148 159.528 343.946 157.499 355.639 153.41C367.299 149.335 384.621 140.018 390.167 135.963C396.193 131.555 401.025 129.378 406.621 126.856C412.393 124.259 415.16 121.711 415.189 121.686L415.589 122.124C415.477 122.229 412.735 124.755 406.864 127.399C401.297 129.909 396.489 132.073 390.513 136.443C384.809 140.615 367.733 149.815 355.835 153.975C344.109 158.071 337.29 160.109 325.426 162.117C322.572 162.601 320.381 162.841 318.453 163.056C312.331 163.734 308.959 164.109 295.631 171.035C290.402 173.75 286.813 175.438 284.192 176.672C283.024 177.219 282.102 177.653 281.309 178.049Z" fill="#ED3B63"/>
<path d="M337.221 176.74L337.046 176.167C337.179 176.125 340.389 175.144 342.755 175.451C345.208 175.771 354.043 175.468 360.019 173.435L360.206 173.999C354.147 176.062 345.175 176.365 342.68 176.041C340.443 175.755 337.255 176.731 337.221 176.74Z" fill="#ED3B63"/>
<path d="M347.548 183.421C345.929 183.421 344.745 182.444 344.69 182.394L345.07 181.935C345.083 181.948 346.48 183.084 348.178 182.764L348.287 183.349C348.032 183.4 347.786 183.421 347.548 183.421Z" fill="#ED3B63"/>
<path d="M290.053 186.225C287.365 186.225 284.924 185.61 283.142 184.398C281.319 183.156 280.3 181.383 280.192 179.27C279.891 173.401 286.94 170.171 293.158 167.321C293.629 167.106 294.101 166.887 294.564 166.673C296.659 165.7 298.841 164.433 301.153 163.09C305.956 160.302 311.398 157.141 317.95 155.553C322.849 154.366 326.246 153.89 330.177 153.343C333.874 152.825 338.064 152.244 344.357 150.914C351.973 149.305 358.336 145.339 365.702 140.75C370.522 137.748 375.984 134.342 382.507 131.189C391.199 126.987 399.988 124.882 407.745 123.021C414.61 121.374 420.54 119.951 424.65 117.484C432.888 112.537 438.584 111.884 439.673 111.8C457.096 103.371 473.834 98.5927 474.001 98.5421C474.143 98.5042 474.289 98.5 474.431 98.5379C477.298 99.2747 479.902 101.624 480.866 102.571C483.737 101.574 490.952 99.2831 492.972 100.635C494.274 101.506 495.889 103.839 496.99 105.603C498.543 95.1697 502.374 90.3911 502.545 90.1763C502.595 90.1132 502.657 90.0584 502.724 90.0121C504.773 88.6396 508.854 87.6544 509.025 87.6123C509.213 87.566 509.413 87.5912 509.589 87.6754L534.669 100.167C534.894 100.281 535.057 100.487 535.115 100.736L546.328 150.893C546.403 151.221 546.274 151.562 546.003 151.76L528.768 164.403L527.787 163.039L544.58 150.724L533.575 101.502L509.126 89.3259C508.203 89.5658 505.303 90.3658 503.759 91.3468C503.196 92.1004 499.461 97.4727 498.342 108.217C498.305 108.584 498.038 108.878 497.679 108.954C497.32 109.03 496.961 108.861 496.782 108.542C495.964 107.068 493.522 103.03 492.045 102.045C491.044 101.376 485.489 102.714 480.916 104.344C480.603 104.453 480.252 104.369 480.027 104.125C479.998 104.095 477.214 101.11 474.226 100.239C472.198 100.833 456.503 105.519 440.245 113.4C440.141 113.451 440.028 113.48 439.915 113.484C439.861 113.489 434.09 113.787 425.502 118.941C421.17 121.539 415.128 122.991 408.129 124.667C400.455 126.507 391.758 128.591 383.229 132.713C376.786 135.828 371.361 139.205 366.578 142.186C359.079 146.859 352.599 150.897 344.699 152.564C338.348 153.907 334.129 154.492 330.406 155.014C326.521 155.558 323.162 156.025 318.342 157.195C312.024 158.728 306.691 161.822 301.988 164.555C299.642 165.915 297.427 167.203 295.261 168.205C294.793 168.42 294.322 168.639 293.85 168.854C287.837 171.607 281.619 174.457 281.861 179.181C281.94 180.773 282.687 182.057 284.081 183.004C286.835 184.878 291.538 185.071 296.062 183.493C298.653 182.587 301.003 181.897 303.277 181.228C307.271 180.049 310.722 179.034 313.818 177.316C313.96 177.24 314.119 177.202 314.277 177.215C314.386 177.224 325.102 177.922 336.987 175.636C337.204 175.594 337.425 175.64 337.605 175.763C337.634 175.784 340.818 177.876 345.229 178.259C345.659 178.297 345.988 178.655 345.993 179.089C345.993 179.219 346.018 182.335 345.5 185.96L343.848 185.72C344.198 183.248 344.29 180.979 344.315 179.851C340.605 179.371 337.859 177.88 336.979 177.35C326.008 179.417 316.084 179 314.411 178.908C311.21 180.642 307.747 181.665 303.745 182.844C301.491 183.509 299.163 184.196 296.609 185.088C294.405 185.846 292.156 186.225 290.053 186.225Z" fill="#36015B"/>
<path d="M353.204 242.344C350.25 242.344 346.548 240.373 345.159 235.94C343.852 231.776 342.826 226.315 342.68 225.528C340.601 220.438 341.424 214.905 342.083 210.459C342.321 208.851 342.546 207.331 342.58 206.114L344.249 206.161C344.211 207.478 343.982 209.045 343.731 210.708C343.097 214.977 342.308 220.286 344.253 224.964C344.278 225.018 344.295 225.077 344.303 225.136C344.316 225.195 345.401 231.132 346.748 235.435C348.092 239.717 351.677 240.727 353.388 240.66C353.951 240.639 354.911 240.095 355.779 238.938C359.351 234.184 357.795 225.519 356.964 222.016C356.918 221.823 356.943 221.616 357.031 221.44C357.048 221.406 358.813 217.747 357.649 211.689C357.607 211.474 357.653 211.247 357.774 211.061C357.795 211.028 360.073 207.386 360.315 198.637L361.984 198.683C361.767 206.632 359.94 210.594 359.347 211.68C360.34 217.234 359.088 220.871 358.654 221.907C361.121 232.534 358.754 237.771 357.11 239.957C356.021 241.405 354.652 242.297 353.45 242.344C353.375 242.344 353.292 242.344 353.204 242.344Z" fill="#36015B"/>
<path d="M362.083 239.918C359.629 239.918 357.772 238.23 356.987 237.047L358.373 236.108L357.68 236.575L358.373 236.103C358.465 236.238 360.664 239.421 364.031 237.733C367.691 235.897 368.664 228.702 368.413 224.597C368.405 224.487 368.422 224.378 368.455 224.277L371.172 216.143C371.084 215.221 370.855 211.81 372.186 209.941C372.415 209.617 372.778 209.166 373.237 208.589C375.42 205.861 379.96 200.186 380.453 195.39L382.114 195.563C381.567 200.855 376.818 206.792 374.535 209.646C374.093 210.198 373.746 210.636 373.542 210.918C372.624 212.21 372.732 215.124 372.853 216.134C372.87 216.256 372.853 216.383 372.816 216.505L370.095 224.66C370.233 227.249 369.924 230.209 369.265 232.613C368.359 235.931 366.807 238.225 364.778 239.24C363.819 239.724 362.917 239.918 362.083 239.918Z" fill="#36015B"/>
<path d="M485.019 152.291C483.672 149.141 482.487 141.735 481.498 130.279C480.73 121.391 482.616 110.815 482.633 110.71L483.213 110.815C483.192 110.92 481.323 121.417 482.082 130.225C483.05 141.458 484.252 149.002 485.557 152.051L485.019 152.291Z" fill="#ED3B63"/>
<path d="M506.4 164.56C506.053 163.966 505.715 163.393 505.386 162.829C500.97 155.301 497.778 149.866 496.393 135.879C494.924 121.05 497.202 108.205 497.223 108.079L497.803 108.184C497.778 108.31 495.516 121.076 496.977 135.82C498.35 149.672 501.513 155.065 505.89 162.526C506.22 163.09 506.558 163.667 506.905 164.261L506.4 164.56Z" fill="#ED3B63"/>
<path d="M469.739 155.258C464.295 132.316 466.948 114.915 466.973 114.743L467.557 114.835C467.528 115.008 464.895 132.299 470.311 155.119L469.739 155.258Z" fill="#ED3B63"/>
<path d="M344.595 207.002C343.226 207.002 341.882 206.859 340.597 206.56C337.25 205.786 334.738 204.017 333.524 201.588C330.427 195.391 337.709 189.963 343.56 185.606C344.19 185.134 344.808 184.675 345.4 184.225C347.746 182.436 349.657 180.764 351.505 179.147C354.251 176.743 356.843 174.478 360.206 172.478C363.474 170.537 365.89 168.129 369.241 164.794C371.398 162.647 373.844 160.209 377.115 157.296C385.261 150.033 387.978 143.869 388.003 143.806C388.187 143.381 388.679 143.183 389.1 143.368C389.522 143.554 389.718 144.046 389.535 144.476C389.422 144.741 386.668 151.023 378.217 158.559C374.979 161.443 372.55 163.864 370.409 165.994C366.975 169.413 364.496 171.885 361.049 173.931C357.819 175.851 355.399 177.968 352.595 180.423C350.725 182.057 348.793 183.749 346.402 185.572C345.809 186.027 345.183 186.49 344.549 186.962C338.924 191.151 332.551 195.904 335.014 200.83C335.998 202.805 338.114 204.257 340.969 204.918C346.043 206.093 352.194 204.645 356.634 201.222C358.241 199.984 359.701 198.7 361.116 197.454C366.57 192.658 371.277 188.515 378.639 192.856C401.236 206.19 413.692 196.115 421.133 190.094C431.403 181.787 435.951 176.853 438.96 173.59C441.99 170.301 443.659 168.491 448.003 166.479C455.273 163.11 468.643 162.786 473 162.774L471.898 160.622C471.777 160.386 471.773 160.108 471.886 159.873C471.998 159.633 472.215 159.464 472.474 159.41C472.812 159.342 480.795 157.734 488.553 158.462C488.832 158.487 489.079 158.656 489.212 158.904C489.229 158.934 490.652 161.603 492.367 163.308C493.928 163.418 501.31 163.906 506.367 163.582C506.998 163.186 508.796 162.31 511.517 163.14C511.959 163.275 512.21 163.746 512.072 164.188C511.938 164.634 511.471 164.883 511.033 164.748C508.567 163.999 507.227 165.018 507.169 165.06C507.039 165.161 506.872 165.232 506.705 165.241C500.934 165.645 492.304 164.988 491.941 164.963C491.753 164.95 491.574 164.87 491.436 164.74C489.834 163.237 488.478 161.005 487.96 160.096C482.222 159.628 476.288 160.458 473.897 160.858L475.115 163.232C475.249 163.498 475.236 163.813 475.082 164.062C474.928 164.314 474.644 164.453 474.356 164.462C474.181 164.462 456.933 164.188 448.696 168.007C444.652 169.88 443.158 171.501 440.179 174.735C437.137 178.036 432.538 183.025 422.172 191.408C401.382 208.228 386.613 199.512 377.792 194.308C371.465 190.574 367.584 193.993 362.209 198.721C360.774 199.984 359.292 201.285 357.644 202.556C353.947 205.415 349.139 207.002 344.595 207.002Z" fill="#36015B"/>
<path d="M526.586 157.924C526.837 157.924 527.091 157.924 527.346 157.928C525.981 163.603 529.382 172.984 529.382 172.984C526.782 173.455 523.974 173.594 521.558 173.594C518.069 173.594 515.411 173.304 515.411 173.304C511.835 168.353 510.967 159.966 510.967 159.966C510.967 159.966 517.189 157.924 526.586 157.924ZM526.586 156.24C517.034 156.24 510.716 158.278 510.454 158.362C509.707 158.606 509.227 159.347 509.31 160.138C509.348 160.501 510.266 169.039 514.063 174.298C514.339 174.681 514.764 174.929 515.232 174.98C515.344 174.992 518.019 175.283 521.558 175.283C524.612 175.283 527.346 175.068 529.674 174.643C530.158 174.554 530.58 174.255 530.826 173.822C531.072 173.392 531.114 172.87 530.947 172.403C530.914 172.314 527.738 163.431 528.965 158.324C529.086 157.827 528.973 157.297 528.66 156.892C528.347 156.488 527.871 156.248 527.362 156.24C527.104 156.244 526.845 156.24 526.586 156.24Z" fill="#36015B"/>
<path d="M489.317 79.0279C489.513 79.0279 489.618 79.0321 489.618 79.0321C483.571 82.2866 482.828 93.2038 482.828 93.2038C471.857 93.5532 467.68 96.4541 467.68 96.4541C470.05 86.8968 474.741 81.8571 474.741 81.8571C481.272 79.1836 487.857 79.0279 489.317 79.0279ZM489.317 77.3438C487.444 77.3438 480.808 77.5585 474.107 80.2993C473.881 80.392 473.681 80.5309 473.518 80.7077C473.314 80.9267 468.506 86.1769 466.057 96.0457C465.89 96.7235 466.153 97.4393 466.725 97.8393C467.012 98.0413 467.342 98.1382 467.676 98.1382C468.006 98.1382 468.34 98.0371 468.623 97.8393C468.623 97.8393 469.625 97.1825 471.862 96.492C473.94 95.852 477.541 95.0521 482.878 94.8837C483.734 94.8584 484.431 94.1805 484.489 93.3174C484.489 93.2922 484.681 90.686 485.57 87.7641C486.338 85.2296 487.798 81.9161 490.402 80.5141C491.07 80.1562 491.412 79.3857 491.241 78.6447C491.066 77.8995 490.419 77.369 489.664 77.348C489.664 77.348 489.543 77.3438 489.317 77.3438Z" fill="#36015B"/>
<path d="M510.051 88.3052L508.404 88.5768L519.538 157.23L521.185 156.959L510.051 88.3052Z" fill="#36015B"/>
<path d="M156.513 173.408L168.661 186.966L176.796 199.175L177.674 206.476C177.674 206.476 180.797 213.882 184.541 215.197C188.285 216.511 189.904 215.812 190.808 213.524C191.712 211.237 189.793 197.78 189.793 197.78L189.673 184.552C189.673 184.552 186.644 177.267 179.041 167.603C171.437 157.942 156.513 173.408 156.513 173.408Z" fill="#5B3324"/>
<path d="M142.391 168.036C142.391 168.036 157.272 176.896 165.981 177.57C174.69 178.244 184.842 187.234 188.347 187.673C188.347 187.673 189.807 192.593 193.616 195.538C197.424 198.487 202.886 200.838 203.819 204.959C204.749 209.079 210.476 220.711 216.855 219.965C223.233 219.215 221.014 209.93 221.014 209.93L192.36 163.865L177.376 153.046L150.752 155.173L142.391 168.036Z" fill="#754832"/>
<path d="M168.902 158.987C168.902 158.987 172.316 165.799 184.26 168.217C184.26 168.217 195.941 179.15 199.081 187.268C202.221 195.387 207.632 197.295 207.632 197.295C207.632 197.295 214.443 214.315 224.732 217.349C235.022 220.382 233.955 211.598 233.955 211.598C233.955 211.598 227.834 203.829 225.392 194.359C222.95 184.888 210.797 162.976 210.797 162.976L192.634 151.955L172.389 152.208L168.902 158.987Z" fill="#8C593C"/>
<path d="M24.4631 209.454L0.0371094 178.8L0.958115 147.295C0.958115 147.295 15.6685 129.87 33.399 123.121C51.1294 116.372 87.9139 113.752 121.289 122.14C121.289 122.14 139.752 117.851 152.44 119.334C165.133 120.813 179.719 134.378 184.5 134.665C189.28 134.951 210.511 139.249 210.511 139.249L240.561 163.726L256.265 180.338C256.265 180.338 256.685 185.592 246.614 186.139C236.543 186.687 228.657 176.791 228.657 176.791L215.034 171.175L204.749 162.837L186.462 159.682L174.42 156.429C174.42 156.429 161.997 164.253 154.441 165.989C146.884 167.724 141.165 173.909 141.165 173.909C141.165 173.909 154.548 184.644 162.336 188.397C170.123 192.151 179.021 197.894 179.021 197.894C179.021 197.894 184.307 202.364 184.17 208.321C184.028 214.278 175.521 215.276 175.521 215.276C175.521 215.276 169.434 211.325 162.695 209.142C155.961 206.964 142.506 199.208 142.506 199.208C142.506 199.208 127.757 194.999 111.32 198.201C94.8836 201.403 75.8338 197.274 62.4042 175.514L24.4631 209.454Z" fill="#9C6948"/>
<path d="M169.75 211.214C169.681 211.214 169.613 211.198 169.544 211.164C168.482 210.599 167.921 209.555 167.959 208.223C168.024 205.881 169.844 203.29 172.187 202.203C175.966 200.451 180.155 205.763 180.331 205.99C180.476 206.176 180.438 206.441 180.249 206.58C180.061 206.719 179.791 206.686 179.65 206.5C179.611 206.45 175.704 201.495 172.552 202.961C170.277 204.019 168.863 206.479 168.816 208.244C168.795 208.948 168.979 209.9 169.956 210.418C170.166 210.528 170.243 210.785 170.127 210.991C170.05 211.134 169.904 211.214 169.75 211.214Z" fill="#593B26"/>
<path d="M61.9767 173.412C61.8568 173.412 61.7411 173.366 61.6555 173.269C61.4755 173.067 57.1446 168.356 50.0635 170.8C49.8408 170.88 49.5966 170.762 49.5195 170.543C49.4424 170.324 49.558 170.084 49.7808 170.008C57.4188 167.37 62.2509 172.662 62.298 172.717C62.4522 172.894 62.4351 173.155 62.2595 173.311C62.1781 173.378 62.0753 173.412 61.9767 173.412Z" fill="#593B26"/>
<path d="M48.8932 176.037C48.739 176.037 48.5891 175.952 48.512 175.809C48.4049 175.603 48.4863 175.35 48.6962 175.24C55.3702 171.87 59.8767 173.854 60.0652 173.943C60.2794 174.039 60.3736 174.292 60.2708 174.503C60.1723 174.714 59.9152 174.806 59.701 174.709C59.6582 174.688 55.3616 172.822 49.0817 175.99C49.026 176.024 48.9617 176.037 48.8932 176.037Z" fill="#593B26"/>
<path d="M227.312 175.039C227.218 175.039 227.128 175.009 227.047 174.95C226.965 174.887 225.038 173.362 223.23 169.28C223.136 169.065 223.234 168.82 223.453 168.724C223.671 168.631 223.924 168.728 224.018 168.943C225.727 172.81 227.561 174.272 227.578 174.289C227.762 174.432 227.792 174.697 227.646 174.878C227.565 174.984 227.441 175.039 227.312 175.039Z" fill="#593B26"/>
<path d="M102.015 195.669C98.5369 195.669 94.7801 195.366 90.6591 194.447C76.8955 191.389 68.1481 177.498 68.0624 177.359C67.9382 177.161 68.0024 176.9 68.2038 176.782C68.4051 176.66 68.6707 176.723 68.7906 176.921C68.8763 177.06 77.4438 190.647 90.8476 193.626C99.158 195.471 106.008 194.784 112.052 194.182C115.959 193.79 119.643 193.419 123.241 193.777C123.477 193.803 123.648 194.009 123.622 194.241C123.597 194.472 123.391 194.641 123.151 194.616C119.643 194.266 115.997 194.633 112.138 195.02C109.011 195.332 105.669 195.669 102.015 195.669Z" fill="#593B26"/>
<path d="M140.823 175.856C140.746 175.856 140.669 175.835 140.6 175.793C130.392 169.701 130.915 162.791 130.94 162.501C130.962 162.269 131.167 162.1 131.407 162.121C131.643 162.142 131.814 162.349 131.793 162.581C131.784 162.673 131.343 169.284 141.042 175.077C141.243 175.199 141.307 175.456 141.187 175.654C141.11 175.784 140.969 175.856 140.823 175.856Z" fill="#593B26"/>
<path d="M139.444 172.625C139.397 172.625 139.354 172.616 139.307 172.603C139.084 172.528 138.964 172.292 139.037 172.068C139.071 171.976 142.37 162.585 151.13 156.459C151.322 156.324 151.592 156.371 151.725 156.56C151.862 156.75 151.815 157.011 151.622 157.146C143.094 163.112 139.876 172.25 139.842 172.338C139.791 172.511 139.624 172.625 139.444 172.625Z" fill="#593B26"/>
<path d="M133.955 127.393C133.848 127.393 133.745 127.355 133.664 127.279C130.892 124.73 123.233 124.044 123.16 124.035C122.925 124.014 122.749 123.812 122.77 123.58C122.792 123.348 122.997 123.171 123.233 123.197C123.559 123.226 131.261 123.917 134.251 126.664C134.422 126.824 134.431 127.09 134.272 127.258C134.182 127.347 134.071 127.393 133.955 127.393Z" fill="#593B26"/>
<path d="M218.671 171.672C218.62 171.672 218.568 171.663 218.517 171.642C214.61 170.138 208.472 165.049 206.351 161.548C204.351 158.245 200.371 158.472 200.333 158.477C200.097 158.494 199.891 158.317 199.874 158.085C199.857 157.853 200.037 157.651 200.273 157.634C200.457 157.621 204.822 157.373 207.088 161.118C209.093 164.43 215.129 169.435 218.83 170.859C219.048 170.943 219.16 171.187 219.074 171.406C219.005 171.571 218.843 171.672 218.671 171.672Z" fill="#593B26"/>
<path d="M209.28 197.098C209.065 197.098 208.881 196.942 208.855 196.727C208.825 196.495 208.997 196.284 209.228 196.259C209.28 196.255 214.249 195.631 217.997 192.337C218.173 192.181 218.443 192.198 218.601 192.37C218.76 192.543 218.742 192.808 218.567 192.964C214.613 196.44 209.545 197.072 209.331 197.098C209.314 197.098 209.297 197.098 209.28 197.098Z" fill="#593B26"/>
<path d="M197.384 177.28C197.157 177.28 196.969 177.103 196.956 176.88C196.943 176.648 197.127 176.45 197.363 176.437C197.423 176.433 203.231 176.075 207.862 169.823C208.004 169.633 208.269 169.595 208.462 169.73C208.655 169.869 208.693 170.13 208.556 170.32C203.673 176.913 197.658 177.267 197.406 177.28C197.397 177.28 197.393 177.28 197.384 177.28Z" fill="#593B26"/>
<path d="M186.157 167.812C185.93 167.812 185.742 167.635 185.729 167.412C185.716 167.18 185.896 166.982 186.131 166.969C186.178 166.965 188.556 166.729 191.336 162.445C191.465 162.247 191.73 162.192 191.927 162.318C192.129 162.445 192.184 162.706 192.056 162.9C188.989 167.622 186.29 167.808 186.178 167.812C186.17 167.812 186.161 167.812 186.157 167.812Z" fill="#593B26"/>
<path d="M254.05 182.082C253.977 182.082 253.9 182.065 253.831 182.023C253.772 181.989 247.753 178.463 244.973 176.689C242.017 174.802 241.751 170.121 241.738 169.923C241.726 169.691 241.91 169.493 242.145 169.481C242.381 169.472 242.582 169.649 242.595 169.881C242.599 169.927 242.852 174.33 245.44 175.982C248.207 177.747 254.208 181.265 254.268 181.298C254.47 181.416 254.538 181.678 254.418 181.876C254.341 182.01 254.2 182.082 254.05 182.082Z" fill="#593B26"/>
<path d="M152.481 187.639C152.442 187.639 152.404 187.634 152.365 187.622C139.428 184.053 133.834 176.799 133.603 176.491C133.461 176.306 133.5 176.04 133.692 175.901C133.881 175.762 134.151 175.8 134.292 175.99C134.348 176.061 139.964 183.325 152.597 186.813C152.824 186.876 152.957 187.108 152.892 187.331C152.841 187.517 152.67 187.639 152.481 187.639Z" fill="#593B26"/>
<path d="M7.0397 177.552C6.91547 177.552 6.79552 177.502 6.70985 177.401C6.55992 177.224 6.58133 176.958 6.76125 176.807C7.00114 176.609 31.2342 156.93 56.8724 159.411C57.108 159.432 57.2794 159.639 57.258 159.87C57.2365 160.102 57.0266 160.275 56.791 160.25C31.517 157.806 7.55374 177.257 7.31385 177.451C7.23246 177.523 7.13822 177.552 7.0397 177.552Z" fill="#593B26"/>
<path d="M181.83 137.946C181.805 137.946 181.783 137.946 181.758 137.942C178.288 137.348 175.216 135.225 170.963 132.284C169.652 131.378 168.294 130.443 166.764 129.432C160.429 125.261 149.822 123.959 149.107 123.968C148.88 123.976 148.674 123.803 148.657 123.576C148.64 123.352 148.794 123.154 149.025 123.129C149.471 123.083 160.596 124.355 167.244 128.732C168.786 129.748 170.204 130.729 171.459 131.593C175.623 134.471 178.63 136.548 181.907 137.108C182.139 137.15 182.297 137.365 182.254 137.597C182.212 137.803 182.032 137.946 181.83 137.946Z" fill="#593B26"/>
<path d="M167.155 177.006C167.035 177.006 166.919 176.96 166.834 176.863C166.675 176.69 166.692 176.424 166.868 176.269C166.915 176.226 171.76 171.891 170.834 164.27C170.804 164.038 170.976 163.827 171.207 163.802C171.443 163.773 171.657 163.941 171.683 164.173C172.663 172.249 167.647 176.715 167.433 176.901C167.356 176.972 167.253 177.006 167.155 177.006Z" fill="#593B26"/>
<path d="M189.365 186.852C189.224 186.852 189.082 186.78 189.001 186.654C188.877 186.456 188.937 186.199 189.138 186.072C189.172 186.051 192.698 183.848 193.109 180.646C193.139 180.414 193.353 180.254 193.589 180.279C193.825 180.308 193.992 180.519 193.962 180.751C193.495 184.353 189.751 186.687 189.592 186.784C189.524 186.835 189.442 186.852 189.365 186.852Z" fill="#593B26"/>
<path d="M66.4229 146.824C66.2515 146.824 66.0887 146.723 66.0245 146.554C65.9388 146.335 66.0502 146.095 66.273 146.011C66.5043 145.922 89.5937 137.42 112.537 145.278C112.76 145.353 112.88 145.594 112.803 145.813C112.726 146.032 112.482 146.15 112.259 146.074C89.6194 138.318 66.8084 146.71 66.5814 146.798C66.5257 146.815 66.4743 146.824 66.4229 146.824Z" fill="#593B26"/>
<path d="M130.532 156.783C130.335 156.783 130.155 156.648 130.112 156.45C129.015 151.445 124.398 149.844 124.351 149.828C124.128 149.752 124.008 149.512 124.085 149.293C124.162 149.073 124.402 148.955 124.629 149.031C124.839 149.103 129.756 150.809 130.952 156.273C131.003 156.501 130.853 156.724 130.622 156.775C130.592 156.779 130.562 156.783 130.532 156.783Z" fill="#593B26"/>
<path d="M186.589 143.925C186.448 143.925 186.311 143.858 186.229 143.736C186.101 143.542 186.157 143.281 186.354 143.154C195.761 137.096 204.324 139.527 204.684 139.632C204.911 139.699 205.039 139.935 204.971 140.154C204.902 140.378 204.662 140.504 204.44 140.437C204.354 140.411 195.881 138.023 186.825 143.858C186.752 143.9 186.671 143.925 186.589 143.925Z" fill="#593B26"/>
</svg>
