<svg width="361" height="723" viewBox="0 0 361 723" fill="none" xmlns="http://www.w3.org/2000/svg">
<g clip-path="url(#clip0_467_5848)">
<path d="M360.185 175.21C357.443 75.7011 274.61 -2.63305 175.212 2.77465e-05C75.703 2.85253 -2.6311 85.6849 0.00198086 185.084C1.75737 247.51 31.7087 303.792 78.4458 336.266C78.6653 337.144 78.8847 338.022 79.2138 338.899C79.6527 340.435 80.0915 341.971 80.5304 343.507C82.0663 349.322 83.1634 355.137 82.176 361.171C81.5178 365.559 79.7624 369.619 78.007 373.678C77.4584 374.885 77.0196 376.092 76.471 377.299C74.3865 382.565 72.6311 388.489 73.8379 393.755C74.9351 399.131 79.6527 402.971 85.1382 402.093C86.7839 401.874 88.8684 400.557 90.953 399.241C95.89 396.169 100.937 392.878 101.595 403.191C102.144 412.406 97.6454 425.462 94.2443 434.349C90.4044 444.332 92.5986 449.928 98.3036 456.73C103.35 462.764 111.579 466.933 116.735 464.848C125.841 461.118 124.964 449.708 124.086 437.969C123.647 431.386 123.098 424.694 124.415 419.208C124.964 417.124 125.402 414.93 125.841 412.845C130.339 393.646 134.509 375.653 140.981 362.597C146.686 363.694 152.501 364.462 158.316 364.901C158.316 365.121 158.206 365.121 158.206 365.121C158.206 365.121 146.906 397.047 143.505 403.3C139.555 410.761 138.239 419.867 144.163 426.011C145.589 427.437 147.345 428.534 149.21 429.192C151.075 429.85 153.159 429.96 155.134 429.631C162.046 428.534 165.008 422.939 167.861 417.563C169.397 414.71 170.933 411.858 173.017 409.773C174.444 408.237 176.309 407.25 178.393 406.811C180.039 406.482 181.794 406.592 183.44 407.25C185.086 407.798 186.512 408.786 187.609 410.102C190.352 413.174 191.12 416.904 191.449 420.854C191.449 422.28 191.559 423.707 191.668 425.133C191.888 434.129 189.584 448.94 187.28 463.861C184.976 478.782 182.672 493.703 182.891 502.699C183.111 508.953 183.33 515.974 186.512 522.008C189.803 528.042 196.934 532.541 204.285 531.005C210.758 529.578 215.585 523.983 217.56 518.168C219.535 512.354 219.096 506.21 218.657 500.176C217.56 486.571 221.51 461.447 224.801 441.041C226.118 432.484 227.325 424.804 227.983 419.099C229.848 403.3 250.583 362.707 265.395 339.119C322.225 305.328 361.831 242.902 359.966 175.21H360.185Z" fill="url(#paint0_linear_467_5848)"/>
<path d="M164.568 446.087C162.922 454.864 149.537 489.423 143.942 500.943C141.857 505.112 143.613 512.353 149.428 515.206C151.073 515.974 152.938 516.303 154.803 516.193C156.669 516.083 158.424 515.425 160.07 514.438C168.956 507.965 169.724 482.95 168.408 472.199C167.969 469.017 173.125 457.936 174.003 449.817C174.661 443.893 165.775 439.614 164.568 445.978V446.087Z" fill="url(#paint1_linear_467_5848)"/>
<path d="M116.076 495.129C113.772 493.922 111.139 496.884 109.932 499.408C105.982 507.526 85.0274 554.483 96.3277 557.774C107.847 561.175 115.088 508.404 117.063 500.285C117.502 498.311 117.831 496.007 116.076 495.019V495.129Z" fill="url(#paint2_linear_467_5848)"/>
<path d="M122.879 144.82C129.462 139.773 135.935 139.554 142.188 144.82" stroke="#41265B" stroke-width="5.04674" stroke-miterlimit="10" stroke-linecap="round"/>
<path d="M61.4336 144.82C68.0163 139.773 74.4893 139.554 80.7429 144.82" stroke="#41265B" stroke-width="5.04674" stroke-miterlimit="10" stroke-linecap="round"/>
<path d="M167.418 722.999C224.436 722.999 270.657 715.533 270.657 706.323C270.657 697.113 224.436 689.647 167.418 689.647C110.401 689.647 64.1797 697.113 64.1797 706.323C64.1797 715.533 110.401 722.999 167.418 722.999Z" fill="black" fill-opacity="0.1"/>
</g>
<defs>
<linearGradient id="paint0_linear_467_5848" x1="335.281" y1="387.173" x2="18.4335" y2="70.3252" gradientUnits="userSpaceOnUse">
<stop offset="0.22" stop-color="#127E8F"/>
<stop offset="1" stop-color="#4FC2D0"/>
</linearGradient>
<linearGradient id="paint1_linear_467_5848" x1="177.514" y1="497.213" x2="144.929" y2="464.519" gradientUnits="userSpaceOnUse">
<stop offset="1" stop-color="#4FC2D0"/>
</linearGradient>
<linearGradient id="paint2_linear_467_5848" x1="118.38" y1="538.794" x2="94.0238" y2="514.438" gradientUnits="userSpaceOnUse">
<stop offset="1" stop-color="#4FC2D0"/>
</linearGradient>
<clipPath id="clip0_467_5848">
<rect width="360.293" height="723" fill="white"/>
</clipPath>
</defs>
</svg>
