<svg width="448" height="413" viewBox="0 0 448 413" fill="none" xmlns="http://www.w3.org/2000/svg">
<g clip-path="url(#clip0_467_5907)">
<path d="M190.461 413C287.462 413 366.098 400.318 366.098 384.675C366.098 369.031 287.462 356.35 190.461 356.35C93.4594 356.35 14.8242 369.031 14.8242 384.675C14.8242 400.318 93.4594 413 190.461 413Z" fill="black" fill-opacity="0.1"/>
<path d="M190.764 381.528C296.12 381.528 381.528 296.12 381.528 190.764C381.528 85.4079 296.12 0 190.764 0C85.4079 0 0 85.4079 0 190.764C0 296.12 85.4079 381.528 190.764 381.528Z" fill="url(#paint0_linear_467_5907)"/>
<path d="M250.355 152.286C243.35 146.906 236.447 146.703 229.746 152.286" stroke="#41265B" stroke-width="5.38078" stroke-miterlimit="10" stroke-linecap="round"/>
<path d="M315.844 152.286C308.839 146.906 301.935 146.703 295.234 152.286" stroke="#41265B" stroke-width="5.38078" stroke-miterlimit="10" stroke-linecap="round"/>
<path d="M231.072 150.255C231.072 150.255 224.98 151.473 224.066 144.468" stroke="#41265B" stroke-width="3.3503" stroke-miterlimit="10" stroke-linecap="round"/>
<path d="M236.451 148.631C236.451 148.631 230.968 149.748 230.156 143.454" stroke="#41265B" stroke-width="3.3503" stroke-miterlimit="10" stroke-linecap="round"/>
<path d="M241.732 147.616C241.732 147.616 237.062 148.631 236.352 143.149" stroke="#41265B" stroke-width="3.3503" stroke-miterlimit="10" stroke-linecap="round"/>
<path d="M313.504 150.255C313.504 150.255 319.595 151.473 320.509 144.468" stroke="#41265B" stroke-width="3.3503" stroke-miterlimit="10" stroke-linecap="round"/>
<path d="M308.23 148.631C308.23 148.631 313.713 149.748 314.525 143.454" stroke="#41265B" stroke-width="3.3503" stroke-miterlimit="10" stroke-linecap="round"/>
<path d="M302.945 147.616C302.945 147.616 307.615 148.631 308.326 143.149" stroke="#41265B" stroke-width="3.3503" stroke-miterlimit="10" stroke-linecap="round"/>
<path fill-rule="evenodd" clip-rule="evenodd" d="M411.476 165.789C402.745 166.094 395.232 168.429 389.953 174.013C384.775 179.596 383.253 187.008 383.253 194.419C383.253 203.962 388.024 210.866 394.928 214.216C401.324 217.363 409.04 217.262 415.233 214.521C418.684 212.998 422.847 209.647 424.776 204.673C425.791 202.033 426.197 198.886 425.385 195.434C424.573 192.084 422.745 189.14 420.106 186.5C417.06 183.454 412.187 183.454 409.141 186.5C406.095 189.546 406.095 194.419 409.141 197.465C409.649 197.972 409.953 198.378 410.055 198.581C410.055 198.784 410.156 198.886 410.258 198.886C410.258 198.987 410.055 199.292 409.75 199.597C409.446 199.901 409.141 200.104 409.141 200.104C406.806 201.119 403.862 201.018 401.73 200.104C400.816 199.597 400.106 198.987 399.699 198.277C399.293 197.566 398.786 196.348 398.786 194.317C398.786 188.632 400.004 185.789 401.425 184.266C402.745 182.845 405.486 181.221 411.984 181.018C418.888 180.815 423.659 181.931 426.603 184.266C429.141 186.297 431.883 190.459 431.781 200.206C431.781 208.835 428.228 213.505 424.37 216.247C420.106 219.292 414.827 220.308 411.375 220.308L325.587 219.597C321.323 219.597 317.77 223.049 317.77 227.313C317.77 231.577 321.221 235.13 325.485 235.13L411.273 235.841C417.162 235.841 425.893 234.216 433.405 228.937C441.324 223.353 447.213 214.115 447.314 200.307C447.314 187.617 443.862 178.074 436.248 172.084C429.04 166.398 419.801 165.18 411.476 165.485V165.789Z" fill="url(#paint1_linear_467_5907)"/>
<path fill-rule="evenodd" clip-rule="evenodd" d="M330.563 236.754C333.71 236.754 336.35 234.216 336.35 231.069V223.556C336.35 220.409 333.913 217.769 330.664 217.769L284.369 217.059C284.369 217.059 286.603 218.48 286.501 218.581C282.745 222.439 283.557 224.673 280.207 226.805C280.004 226.906 280.004 227.313 280.207 227.414C288.227 229.749 283.151 230.967 285.588 235.942L330.461 236.957L330.563 236.754Z" fill="url(#paint2_linear_467_5907)"/>
<path d="M324.164 234.216C324.164 237.363 326.702 240.003 329.849 240.003H334.52C337.667 240.003 340.306 237.465 340.306 234.317V219.495C340.408 216.348 337.87 213.708 334.723 213.708H330.052C326.905 213.708 324.266 216.246 324.266 219.393V234.216H324.164Z" fill="url(#paint3_linear_467_5907)"/>
<path d="M280.922 212.084C287.724 217.059 287.927 221.628 280.312 225.689" stroke="#41265B" stroke-width="3.3503" stroke-miterlimit="10" stroke-linecap="round"/>
<path d="M280.207 225.79C287.009 230.765 287.212 235.333 279.598 239.394" stroke="#41265B" stroke-width="3.3503" stroke-miterlimit="10" stroke-linecap="round"/>
</g>
<defs>
<linearGradient id="paint0_linear_467_5907" x1="16.0408" y1="16.0408" x2="325.486" y2="325.486" gradientUnits="userSpaceOnUse">
<stop stop-color="#F496B0"/>
<stop offset="0.47" stop-color="#DF5F82"/>
<stop offset="0.74" stop-color="#D23D65"/>
</linearGradient>
<linearGradient id="paint1_linear_467_5907" x1="364.075" y1="176.343" x2="405.696" y2="239.74" gradientUnits="userSpaceOnUse">
<stop stop-color="#00B7C5"/>
<stop offset="1" stop-color="#127E8F"/>
</linearGradient>
<linearGradient id="paint2_linear_467_5907" x1="321.842" y1="236.088" x2="290.635" y2="203.24" gradientUnits="userSpaceOnUse">
<stop stop-color="#F79636"/>
<stop offset="1" stop-color="#F6B97B"/>
</linearGradient>
<linearGradient id="paint3_linear_467_5907" x1="324.34" y1="203.492" x2="338.264" y2="235.872" gradientUnits="userSpaceOnUse">
<stop stop-color="#F6B97B"/>
<stop offset="1" stop-color="#F79636"/>
</linearGradient>
<clipPath id="clip0_467_5907">
<rect width="447.214" height="413" fill="white"/>
</clipPath>
</defs>
</svg>
