<svg width="433" height="401" viewBox="0 0 433 401" fill="none" xmlns="http://www.w3.org/2000/svg">
<g clip-path="url(#clip0_467_5873)">
<path d="M248.377 400.194C342.512 400.194 418.824 387.916 418.824 372.769C418.824 357.623 342.512 345.345 248.377 345.345C154.241 345.345 77.9297 357.623 77.9297 372.769C77.9297 387.916 154.241 400.194 248.377 400.194Z" fill="black" fill-opacity="0.1"/>
<path d="M248.375 369.25C350.341 369.25 433 286.591 433 184.625C433 82.6595 350.341 0 248.375 0C146.41 0 63.75 82.6595 63.75 184.625C63.75 286.591 146.41 369.25 248.375 369.25Z" fill="url(#paint0_linear_467_5873)"/>
<path d="M190.727 147.473C197.557 142.299 204.18 142.092 210.7 147.473" stroke="#41265B" stroke-width="5.17447" stroke-miterlimit="10" stroke-linecap="round"/>
<path d="M127.289 147.473C134.119 142.299 140.743 142.092 147.263 147.473" stroke="#41265B" stroke-width="5.17447" stroke-miterlimit="10" stroke-linecap="round"/>
<path fill-rule="evenodd" clip-rule="evenodd" d="M11.0734 157.614C3.51864 163.616 0 173.138 0 185.763C0.103489 199.424 6.00239 208.738 13.8676 214.223C21.3188 219.501 30.0119 221.157 35.9108 221.053L121.29 220.432C125.533 220.432 128.948 216.914 128.948 212.67C128.948 208.427 125.429 205.012 121.186 205.012L35.8074 205.633C32.3922 205.633 27.1142 204.598 22.8712 201.597C19.0421 198.906 15.5234 194.249 15.5234 185.556C15.5234 175.828 18.1107 171.689 20.6979 169.619C23.5956 167.342 28.3561 166.1 35.1864 166.411C41.6028 166.618 44.397 168.274 45.7423 169.619C47.0877 171.171 48.3296 173.965 48.4331 179.657C48.4331 181.624 48.0191 182.866 47.5017 183.59C47.0877 184.314 46.3633 184.935 45.4319 185.453C43.3621 186.488 40.4644 186.488 38.0841 185.453C38.0841 185.453 37.7737 185.246 37.4632 184.935C37.1527 184.625 36.9457 184.314 36.9457 184.211C36.9457 184.211 36.9457 184.004 37.1527 183.9C37.2562 183.693 37.5667 183.279 38.0841 182.762C41.0853 179.761 41.0853 174.897 38.0841 171.792C35.0829 168.791 30.2189 168.791 27.1142 171.792C24.527 174.379 22.6642 177.381 21.8363 180.692C21.0084 184.004 21.4223 187.212 22.4572 189.799C24.4235 194.767 28.5631 198.182 31.9782 199.631C38.1876 202.322 45.8458 202.425 52.2622 199.32C59.196 195.905 63.9565 189.075 63.9565 179.554C63.9565 172.206 62.4042 164.755 57.2297 159.166C52.0552 153.475 44.5005 151.198 35.8074 150.887C27.6317 150.577 18.4211 151.819 11.1769 157.511L11.0734 157.614Z" fill="url(#paint1_linear_467_5873)"/>
<path fill-rule="evenodd" clip-rule="evenodd" d="M160.925 220.743C163.408 215.879 158.337 214.637 166.306 212.257C166.617 212.257 166.617 211.843 166.306 211.636C162.995 209.566 163.822 207.29 160.097 203.461C160.097 203.461 162.374 202.012 162.27 202.012L116.114 202.736C112.906 202.736 110.422 205.323 110.422 208.532V215.983C110.422 219.191 113.113 221.675 116.321 221.675L161.028 220.64L160.925 220.743Z" fill="url(#paint2_linear_467_5873)"/>
<path d="M122.535 204.392C122.535 201.183 119.948 198.7 116.74 198.7H112.083C108.874 198.7 106.391 201.39 106.391 204.495V219.294C106.494 222.502 109.081 224.986 112.29 224.986H116.947C120.155 224.986 122.638 222.295 122.638 219.191V204.392H122.535Z" fill="url(#paint3_linear_467_5873)"/>
<path d="M165.687 197.147C158.857 202.115 158.753 206.669 166.308 210.705" stroke="#41265B" stroke-width="3.41515" stroke-miterlimit="10" stroke-linecap="round"/>
<path d="M166.304 210.808C159.474 215.775 159.371 220.329 166.925 224.365" stroke="#41265B" stroke-width="3.41515" stroke-miterlimit="10" stroke-linecap="round"/>
</g>
<defs>
<linearGradient id="paint0_linear_467_5873" x1="391.294" y1="327.544" x2="98.6259" y2="34.9794" gradientUnits="userSpaceOnUse">
<stop stop-color="#1B093C"/>
<stop offset="0.09" stop-color="#301C50"/>
<stop offset="0.26" stop-color="#563E75"/>
<stop offset="0.44" stop-color="#735992"/>
<stop offset="0.61" stop-color="#896CA7"/>
<stop offset="0.77" stop-color="#9578B3"/>
<stop offset="0.93" stop-color="#9A7CB8"/>
</linearGradient>
<linearGradient id="paint1_linear_467_5873" x1="82.8691" y1="163.208" x2="41.35" y2="226.301" gradientUnits="userSpaceOnUse">
<stop stop-color="#00B7C5"/>
<stop offset="1" stop-color="#127E8F"/>
</linearGradient>
<linearGradient id="paint2_linear_467_5873" x1="124.962" y1="222.635" x2="156.019" y2="190.047" gradientUnits="userSpaceOnUse">
<stop stop-color="#F79636"/>
<stop offset="1" stop-color="#F6B97B"/>
</linearGradient>
<linearGradient id="paint3_linear_467_5873" x1="122.489" y1="190.233" x2="108.645" y2="222.482" gradientUnits="userSpaceOnUse">
<stop stop-color="#F6B97B"/>
<stop offset="1" stop-color="#F79636"/>
</linearGradient>
<clipPath id="clip0_467_5873">
<rect width="433" height="400.194" fill="white"/>
</clipPath>
</defs>
</svg>
