<svg width="272" height="298" viewBox="0 0 272 298" fill="none" xmlns="http://www.w3.org/2000/svg">
<g clip-path="url(#clip0)">
<path d="M25.755 196.752C19.013 158.385 50.359 -7.68402 115.432 0.276976C195.371 10.057 108.583 106.477 231.862 164.027C342.637 215.74 195.262 316.367 115.325 293.798C51.9 275.891 31.927 231.878 25.755 196.752Z" fill="#F8E8F0"/>
<path d="M184.627 211.172C182.445 209.732 180.089 208.576 177.615 207.731C173.908 206.265 170.076 204.749 170.076 202.538C170.057 202.374 170.072 202.208 170.12 202.05C170.169 201.892 170.25 201.746 170.359 201.622C170.786 201.254 171.847 201.412 172.782 201.553C173.943 201.727 175.041 201.89 175.741 201.294C175.924 201.126 176.067 200.919 176.16 200.689C176.254 200.458 176.294 200.21 176.28 199.962C176.28 199.814 176.225 199.671 176.124 199.562C164.531 187.055 149.41 180.545 137.612 182.974C127.738 185.006 123.3 189.988 120.059 193.625C119.636 194.1 119.236 194.547 118.845 194.968C117.93 193.874 117.084 192.723 116.313 191.523C114.913 188.359 113.535 185.298 112.179 182.339C112.041 181.349 112.165 180.62 112.64 180.307C123.561 180.867 134.477 179.097 144.662 175.116C166.738 166.629 163.562 134.187 158.903 144.158C154.244 154.129 133.158 151.747 136.816 150.42C140.474 149.093 152.474 140.92 154.994 121.535C157.514 102.15 114.9 60.616 102.427 52.565C89.954 44.514 103.527 88.943 91.983 83.897C80.816 79.015 95.393 53.915 80.783 43.95C80.2768 43.6058 79.7528 43.2887 79.213 43C73.055 39.7 61.445 38.46 49.06 38.46C26.871 38.46 2.18801 42.447 1.87801 45.745C1.64201 48.248 8.90001 73.34 9.66601 94.61C10.217 109.817 8.92501 129.081 13.006 150.465C13.5691 149.172 14.3095 147.964 15.206 146.875C15.6967 146.256 16.244 145.626 16.848 144.985C17.452 144.344 18.1057 143.691 18.809 143.026C18.105 143.693 17.4513 144.346 16.848 144.985C16.2447 145.624 15.6973 146.254 15.206 146.875C14.3095 147.964 13.5691 149.172 13.006 150.465C13.721 154.212 14.597 158.024 15.681 161.891C17.386 167.973 44.22 163.318 43.333 169.212C42.446 175.106 26.288 170.063 22.641 173.612C18.994 177.161 27.251 188.324 34.557 193.728C44.374 200.989 66.123 198.673 66.274 202.599C66.425 206.525 52.384 211.309 52.468 215.887C52.544 220.023 58.13 223.687 71.99 220.107C73.822 219.634 75.529 219.107 77.14 218.533C75.3951 222.194 74.9872 226.351 75.987 230.282C78.099 238.574 86.158 246.35 98.095 251.619C98.1887 251.66 98.2916 251.676 98.3934 251.665C98.4952 251.654 98.5923 251.616 98.675 251.556C99.675 250.827 100.126 249.271 100.602 247.624C101.117 245.845 101.648 244.007 102.796 243.584C103.543 243.306 104.607 243.625 105.966 244.521C108.549 246.101 110.457 248.58 111.322 251.482C112.035 253.382 112.71 255.169 114.986 256.582C115.051 256.623 115.123 256.65 115.199 256.662C123.328 258.033 131.631 258.003 139.75 256.573C150.509 254.609 159.045 256.229 165.123 261.388C175.293 270.022 175.135 285.835 175.132 285.988C175.13 286.113 175.167 286.235 175.239 286.337C175.311 286.439 175.414 286.515 175.532 286.554C175.59 286.574 175.651 286.584 175.713 286.584C175.807 286.584 175.899 286.561 175.982 286.518C176.066 286.475 176.137 286.412 176.191 286.335C176.627 285.716 177.082 285.08 177.554 284.421C183.831 275.655 192.428 263.649 192.577 240.355C192.572 230.164 189.881 220.154 184.777 211.334C184.737 211.271 184.687 211.216 184.627 211.172ZM83.192 64.927C83.0753 66.559 82.8873 68.163 82.628 69.739C82.8853 68.163 83.0733 66.559 83.192 64.927ZM83.321 59.946C83.337 60.79 83.3343 61.6273 83.313 62.458C83.3343 61.628 83.337 60.7906 83.321 59.946ZM103.793 184.728C106.408 182.928 111.576 193.471 113.745 198.251C112.933 198.347 112.11 198.305 111.311 198.128C107.767 197.853 104.202 198.244 100.802 199.282C99.951 199.522 99.033 199.824 98.074 200.182C100.441 195.213 102.355 190.041 103.793 184.728ZM14.724 142.985C12.878 130.022 12.824 117.96 12.771 107.128C12.75 102.675 12.73 98.469 12.587 94.504C12.045 79.562 8.42101 63.039 6.25601 53.166C5.71501 50.703 5.15601 48.176 4.92001 46.789C9.16201 44.697 28.151 41.379 49.06 41.379C62.56 41.379 72.783 42.869 77.833 45.573C77.983 45.653 78.1317 45.736 78.279 45.822C89.132 85.418 56.141 110.384 32 128.66C24.889 134.039 18.775 138.667 14.724 142.985ZM19.902 142.019C20.6527 141.341 21.4473 140.651 22.286 139.949C21.4493 140.65 20.654 141.34 19.9 142.019H19.902Z" fill="#E3DEE6" stroke="#E3DEE6" stroke-width="3.745" stroke-miterlimit="10"/>
<path d="M268.408 155.98C260.374 132.649 237.876 120.848 219.5 117.585C219.442 117.576 219.384 117.576 219.326 117.585C212.616 118.418 210.903 121.747 209.246 124.966C207.505 128.35 205.86 131.546 198.525 132.466C196.16 132.766 194.652 132.546 194.161 131.84C193.409 130.759 194.736 128.207 195.907 125.956C197.293 123.29 198.602 120.772 197.572 119.213C196.958 118.282 195.643 117.913 193.452 118.083C190.733 118.737 188.077 119.632 185.516 120.758C170.128 127.58 169.594 138.58 169.076 149.217C168.691 157.141 168.292 165.334 161.901 172.148C160.905 173.365 160.23 174.813 159.937 176.358C159.644 177.903 159.743 179.498 160.224 180.995C162.492 187.426 172.142 192.229 188.906 195.272C191.796 195.794 194.727 196.054 197.664 196.05C207.888 196.05 218.806 193.002 230.236 186.943C230.33 186.894 230.408 186.82 230.462 186.729C231.649 184.773 229.785 183.188 227.626 181.352C226.971 180.795 226.293 180.219 225.598 179.564C225.005 179.006 224.356 178.219 224.635 177.641C225.375 176.1 231.661 175.297 240.895 176.626C242.761 176.902 244.662 176.837 246.505 176.435C246.586 176.417 246.663 176.383 246.73 176.335C254.534 170.443 261.757 163.818 268.3 156.552C268.366 156.474 268.411 156.381 268.43 156.28C268.449 156.18 268.441 156.076 268.408 155.98Z" fill="#E3DEE6" stroke="#E3DEE6" stroke-width="3.745" stroke-miterlimit="10"/>
<path d="M8.53699 75.88C20.53 71.5 30.942 65.141 38.1 39.863" stroke="#E83C65" stroke-width="1.169" stroke-miterlimit="10"/>
<path d="M22.478 41.224C20.321 49.641 13.533 56.664 5.67798 59.782" stroke="#E83C65" stroke-width="1.169" stroke-miterlimit="10"/>
<path d="M81.836 72.722C59.991 54.346 22.1 54.766 3.48602 45.327" stroke="#E83C65" stroke-width="1.169" stroke-miterlimit="10"/>
<path d="M71.333 98.5179C54.026 78.2299 24.278 63.2749 3.50702 45.3359" stroke="#E83C65" stroke-width="1.169" stroke-miterlimit="10"/>
<path d="M65.3 111.6C48.13 84.9 11.8 57.768 3.12903 45.824" stroke="#E83C65" stroke-width="1.169" stroke-miterlimit="10"/>
<path d="M57.82 118.651C42.575 95.377 12.856 61.245 3.30902 46.183" stroke="#E83C65" stroke-width="1.169" stroke-miterlimit="10"/>
<path d="M36.657 138.108C17.55 109.1 26.539 86.372 2.98499 45.661" stroke="#E83C65" stroke-width="1.169" stroke-miterlimit="10"/>
<path d="M10.768 121.388C16.956 115.34 36.984 107.302 54.974 89.788C70.624 74.555 68.253 47.107 66.474 39.627" stroke="#E83C65" stroke-width="1.169" stroke-miterlimit="10"/>
<path d="M10.716 94.3599C21.628 90.0999 47.232 82.8999 51.912 39.6279" stroke="#E83C65" stroke-width="1.169" stroke-miterlimit="10"/>
<path d="M49.06 41.3789C62.56 41.3789 72.783 42.8689 77.833 45.5729C77.983 45.6529 78.1316 45.7359 78.279 45.8219C89.132 85.4169 56.141 110.384 32 128.66C24.893 134.039 18.779 138.667 14.728 142.985C12.882 130.022 12.828 117.96 12.775 107.129C12.754 102.675 12.734 98.4689 12.591 94.5039C12.049 79.5619 8.42498 63.0389 6.25998 53.1659C5.71898 50.7039 5.15998 48.1769 4.92398 46.7889C9.16598 44.6969 28.155 41.3789 49.064 41.3789H49.06ZM49.064 38.4559C26.875 38.4559 2.19198 42.4429 1.88198 45.7409C1.64198 48.2479 8.89998 73.3399 9.66598 94.6099C10.217 109.818 8.92498 129.081 13.006 150.465C20.59 131.957 98.227 103.715 80.786 43.9499C80.2788 43.6056 79.7538 43.2885 79.213 42.9999C73.055 39.6999 61.445 38.4599 49.06 38.4599L49.064 38.4559Z" fill="#270041"/>
<path d="M113.5 180.145C109.513 179.707 114.98 191.026 119.766 195.988C118.597 197.978 116.842 199.558 114.741 200.512C114.741 200.512 106.394 180.588 103.332 185.2L102.583 176.226L109.657 175.652L113.5 180.145Z" fill="#270041"/>
<path d="M158.9 144.157C154.239 154.127 133.155 151.746 136.813 150.419C140.471 149.092 152.471 140.919 154.991 121.534C157.511 102.149 114.9 60.6159 102.427 52.5649C89.954 44.5139 103.527 88.943 91.983 83.897C80.816 79.015 95.393 53.915 80.783 43.95C98.224 103.715 20.583 131.957 13.003 150.465C13.718 154.213 14.594 158.024 15.678 161.891C17.383 167.973 44.217 163.318 43.33 169.212C42.443 175.106 26.285 170.063 22.638 173.612C18.991 177.161 27.248 188.324 34.554 193.728C44.371 200.989 66.12 198.673 66.271 202.599C66.422 206.525 52.381 211.309 52.465 215.887C52.541 220.023 58.127 223.687 71.987 220.107C93.819 214.47 99.248 201.778 105.287 179.368C105.287 179.368 122.587 183.6 144.659 175.112C166.731 166.624 163.565 134.186 158.9 144.157Z" fill="#270041"/>
<path d="M117.3 199.625C98.746 156.615 84.785 132.369 60.654 104.969" stroke="#5B3D6F" stroke-width="4.676" stroke-miterlimit="10"/>
<path d="M127.1 91.626C130.223 104.75 116.746 133.195 100.234 140.726C100.234 140.726 113.376 123.742 117.56 116.219C122.808 106.792 127.1 91.626 127.1 91.626Z" fill="#5B3D6F" stroke="#5B3D6F" stroke-width="1.169" stroke-linejoin="round"/>
<path d="M76.945 145.994C69.496 147.906 37.599 150.226 30.481 148.869C30.481 148.869 46.381 154.514 54.047 154.078C61.713 153.642 76.945 145.994 76.945 145.994Z" fill="#5B3D6F" stroke="#5B3D6F" stroke-width="1.169" stroke-linejoin="round"/>
<path d="M192 240.365C192.006 230.275 189.341 220.363 184.276 211.637C179.745 208.176 169.495 206.782 169.495 202.537C169.495 198.632 175.684 203.021 175.695 199.958C164.448 187.824 149.472 181.126 137.729 183.544C119.689 187.258 120.491 200.622 111.234 198.706C111.234 198.706 94.156 196.472 80.271 214.506C69.632 228.324 80.193 243.081 98.33 251.085C100.843 249.254 99.66 239.66 106.286 244.033C113.224 248.612 110.636 253.19 115.294 256.091C123.356 257.459 131.592 257.43 139.644 256.004C176.386 249.295 175.715 286.01 175.715 286.01C181.781 277.393 191.836 265.263 192 240.365Z" fill="#434D6F" stroke="#434D6F" stroke-width="1.169" stroke-linejoin="round"/>
<path d="M119.216 198.707C140.922 207.326 172.205 222.968 178.589 266.38C178.589 266.38 171.247 240.205 151.137 221.371C131.027 202.537 119.216 198.707 119.216 198.707Z" fill="#19254F" stroke="#19254F" stroke-width="1.169" stroke-linejoin="round"/>
<path d="M115.491 205.092C106.553 208.392 99.531 224.351 99.424 234.14C99.424 234.14 103.884 221.386 106.766 216.796C109.639 212.221 115.491 205.092 115.491 205.092Z" fill="#19254F" stroke="#19254F" stroke-width="1.169" stroke-linejoin="round"/>
<path d="M128.579 213.072C126.77 219.882 125.174 242.439 129.005 250.526C129.005 250.526 128.366 237.226 128.685 230.309C129.004 223.392 128.579 213.072 128.579 213.072Z" fill="#19254F" stroke="#19254F" stroke-width="1.169" stroke-linejoin="round"/>
<path d="M134.325 197.218C138.77 193.773 149.825 190.236 158.691 193.387C154.564 193.437 150.443 193.721 146.348 194.239C142.271 194.928 138.252 195.924 134.325 197.218Z" fill="#19254F" stroke="#19254F" stroke-width="1.169" stroke-linejoin="round"/>
<path d="M219.4 118.16C206.205 119.798 213.447 131.178 198.6 133.041C184.157 134.854 205.46 117.741 193.593 118.647C190.907 119.292 188.284 120.176 185.755 121.288C159.422 132.964 177.579 156.288 162.345 172.528C162.345 172.528 149.389 187.501 189.013 194.693C203.326 197.293 217.586 192.984 229.964 186.423C231.174 184.423 228.235 182.845 225.2 179.986C220.6 175.65 229.759 174.431 240.98 176.043C242.776 176.313 244.606 176.251 246.38 175.86C254.157 170.003 261.349 163.409 267.858 156.17C260.5 134.8 240.074 121.833 219.4 118.16Z" fill="#404A6D" stroke="#404A6D" stroke-width="1.169" stroke-linejoin="round"/>
<path d="M171.094 157.806C199.074 149.624 224.017 144.625 258.514 153.212C240.995 149.929 223.08 149.325 205.38 151.42C194.149 152.846 171.094 157.806 171.094 157.806Z" fill="#19254F" stroke="#19254F" stroke-width="1.169" stroke-linejoin="round"/>
<path d="M185.014 163.09C185.56 169.552 186.077 181.203 198.039 187.677C198.039 187.677 191.261 181.477 188.92 175.11C186.855 169.494 185.014 163.09 185.014 163.09Z" fill="#19254F" stroke="#19254F" stroke-width="1.169" stroke-linejoin="round"/>
<path d="M219.012 142.9C220.483 139.527 226.576 129.2 230.559 126.886C230.559 126.886 225.737 133.162 224.386 135.397C222.936 137.8 219.012 142.9 219.012 142.9Z" fill="#19254F" stroke="#19254F" stroke-width="1.169" stroke-linejoin="round"/>
</g>
<defs>
<clipPath id="clip0">
<rect width="271.646" height="297.046" fill="white"/>
</clipPath>
</defs>
</svg>
