<svg width="400" height="298" viewBox="0 0 400 298" fill="none" xmlns="http://www.w3.org/2000/svg">
<path d="M53.7143 145.552C52.9114 217.011 150.359 277.363 216.692 266.201C307.095 250.992 374.531 109.68 310.045 75.8929C242.313 40.4014 207.946 127.687 166.511 94.3619C125.075 61.0368 54.7419 53.7366 53.7143 145.552Z" fill="#FADEEC"/>
<path d="M327.19 236.767C326.519 235.965 325.395 235.331 315.134 229.945C303.083 223.626 282.913 213.049 271.889 205.341C253.265 192.32 239.669 177.504 231.48 161.304C226.797 152.041 223.657 141.843 220.656 131.928C222.473 130.246 224.15 128.418 225.67 126.463C226.207 125.772 226.725 125.064 227.244 124.358C230.322 127.974 233.453 131.542 236.637 135.065L239.067 133.595L240.552 135.67C240.581 135.71 240.612 135.751 240.645 135.791C240.229 135.966 239.773 136.15 239.252 136.346C240.37 138.816 241.613 141.227 242.978 143.57L243.282 144.078L261.517 133.145L261.365 132.89C261.365 132.89 260.487 128.343 256.257 129.756C252.97 130.759 249.618 131.53 246.224 132.065C246.045 132.217 245.877 132.361 245.714 132.496L245.702 132.475C245.266 131.771 244.79 131.092 244.297 130.427L248.934 127.622C246.151 123.573 243.179 119.639 240.074 115.799C246.399 113.424 252.502 110.459 258.579 107.491C258.939 107.351 259.258 107.122 259.506 106.827C259.622 106.634 259.697 106.421 259.729 106.199C259.76 105.977 259.746 105.751 259.687 105.534C260.652 105.248 261.583 104.859 262.465 104.375C262.638 104.949 262.812 105.596 262.998 106.364C265.788 105.493 268.533 104.479 271.22 103.328V103.332L271.507 103.205H271.515L271.807 103.075L262.51 82.1209L262.218 82.2508C262.218 82.2508 257.236 82.5905 258.192 87.3034C258.831 90.953 259.215 94.6427 259.34 98.3457C259.743 98.9568 260.09 99.4825 260.397 99.9636C259.636 100.156 258.89 100.401 258.163 100.697L256.296 94.9383C248.038 95.823 240.785 100.793 232.704 102.715C231.702 102.91 230.716 103.181 229.755 103.525C229.678 103.556 229.606 103.601 229.53 103.635C228.846 102.896 228.165 102.155 227.472 101.424C226.668 100.496 225.744 99.6809 224.724 98.9992C222.401 97.5881 219.401 97.652 216.856 98.6071C214.458 99.6198 212.275 101.081 210.425 102.912C207.064 95.5483 203.079 88.4852 198.514 81.7999L199.15 77.9042C199.519 76.2547 199.595 74.5533 199.375 72.8774C199.108 71.7279 198.693 70.6176 198.142 69.5742C196.336 65.7807 194.324 62.0889 192.114 58.5153L192.451 58.282L191.175 55.9991C190.671 56.032 190.177 56.1612 189.721 56.3797C189.663 56.0911 189.633 55.7974 189.633 55.5029C189.633 55.072 189.713 54.6412 189.758 54.2103C189.995 51.9002 189.311 49.6065 188.635 47.3883C188.538 47.0695 188.395 46.704 188.075 46.6113C187.935 46.5849 187.79 46.6026 187.66 46.662C187.53 46.7214 187.422 46.8196 187.35 46.9431C187.211 47.1932 187.127 47.4697 187.104 47.7546C186.557 47.2446 186.187 46.5738 186.047 45.8394C186.03 45.6295 185.965 45.4263 185.858 45.2455C185.757 45.1284 185.63 45.0374 185.487 44.9805C183.942 44.2753 182.09 45.206 181.013 46.5187C180.449 47.1175 180.138 47.9103 180.143 48.7326C180.211 49.2051 180.363 49.6619 180.59 50.0819C181.071 51.1141 181.553 52.1455 182.035 53.1762C182.179 53.4886 182.308 53.9087 182.05 54.1371C181.968 54.1952 181.874 54.2343 181.774 54.2515C181.675 54.2688 181.573 54.2638 181.476 54.2369C180.645 54.0846 180.014 53.434 179.305 52.9744C178.596 52.5149 177.559 52.2793 176.977 52.8912C177.902 54.562 179.169 56.0193 180.694 57.1682C181.911 58.0823 183.356 58.8859 184.268 60.0406C183.343 60.8025 182.718 61.3691 182.718 61.3691L183.554 63.3195C174.588 53.8945 164.329 45.7918 153.083 39.2544V20.9111C153.081 18.9906 152.524 17.1115 151.477 15.5012C150.431 13.8908 148.94 12.6182 147.186 11.8371L138.02 7.76835C136.508 7.09648 134.852 6.81298 133.203 6.9436C131.553 7.07423 129.963 7.61484 128.576 8.51633C127.188 9.41782 126.048 10.6516 125.259 12.1057C124.47 13.5597 124.056 15.1879 124.056 16.8423V41.8453C114.175 46.2257 106.526 49.3531 96.7682 53.6868V47.5111C96.7672 45.5905 96.2096 43.7114 95.1631 42.101C94.1165 40.4907 92.6257 39.2181 90.8711 38.4372L81.7203 34.3677C80.2081 33.6955 78.5519 33.4119 76.9023 33.5426C75.2526 33.6733 73.6617 34.2142 72.2743 35.1162C70.8868 36.0181 69.7468 37.2524 68.9577 38.707C68.1686 40.1616 67.7555 41.7904 67.756 43.4452V70.1156C67.7621 71.9819 68.2913 73.8091 69.2836 75.3898C70.2758 76.9706 71.6913 78.2414 73.3695 79.0582L81.6865 83.0731V202.781H87.2497V183.518L137.339 162.284V178.416H142.903V119.877C152.564 134.173 158.277 148.996 163.795 163.346C169.853 179.096 176.115 195.382 187.578 211.1C209.486 241.132 224.202 249.927 260.199 262.74C260.75 262.938 261.35 262.956 261.912 262.792C262.474 262.628 262.97 262.29 263.329 261.827C263.687 261.364 263.89 260.8 263.908 260.214C263.927 259.629 263.759 259.053 263.43 258.568C291.279 249.556 297.971 247.759 320.89 239.296C322.023 239.913 322.84 240.373 323.172 240.605C323.692 241.083 324.375 241.345 325.081 241.338C325.787 241.332 326.465 241.057 326.975 240.569C327.486 240.081 327.793 239.417 327.832 238.712C327.871 238.007 327.641 237.313 327.188 236.771L327.19 236.767ZM137.34 134.559L87.2497 155.792V140.154L137.34 118.918V134.559ZM137.34 112.877L87.2497 134.109V118.471L122.876 103.369C122.93 103.449 122.994 103.521 123.067 103.584C123.363 103.761 123.701 103.855 124.046 103.858L129.791 104.403C130.15 104.437 130.509 104.466 130.873 104.488C133.111 106.982 135.265 109.557 137.336 112.213L137.34 112.877ZM87.2497 75.1064L91.037 73.5015C96.3069 76.2256 101.391 79.2945 106.257 82.6882L87.2497 90.7453V75.1064ZM87.2497 96.7889L111.487 86.5149C115.735 89.7785 119.796 93.2788 123.65 96.9993L87.2497 112.428V96.7889ZM184.647 63.6843C184.97 64.2745 185.277 64.873 185.567 65.4795C185.112 64.9833 184.659 64.4835 184.197 63.9938L184.647 63.6843ZM128.286 16.8423C128.286 15.8923 128.524 14.9574 128.977 14.1225C129.43 13.2877 130.085 12.5793 130.882 12.0618C131.679 11.5443 132.592 11.234 133.539 11.1592C134.486 11.0843 135.437 11.2473 136.305 11.6332L145.46 15.702C146.468 16.1505 147.324 16.8814 147.925 17.8062C148.526 18.7311 148.846 19.8103 148.847 20.9132V36.927C146.171 35.5173 143.456 34.1982 140.702 33.0004C140.241 32.7991 139.735 32.7264 139.236 32.79C138.738 32.8537 138.266 33.0513 137.871 33.3619C137.476 33.6724 137.173 34.0843 136.993 34.5537C136.813 35.023 136.764 35.5322 136.851 36.0272C133.772 37.4634 130.938 38.7596 128.286 39.9552V16.8423ZM75.2071 75.2515C74.2435 74.7822 73.4307 74.0523 72.8609 73.1445C72.2911 72.2367 71.9872 71.1874 71.9835 70.1156V43.4452C71.9834 42.495 72.2208 41.5598 72.674 40.7247C73.1272 39.8896 73.7819 39.1809 74.5787 38.6631C75.3754 38.1454 76.2889 37.8349 77.2361 37.7599C78.1834 37.685 79.1343 37.8479 80.0026 38.2339L89.1577 42.2962C90.1654 42.7448 91.0215 43.4757 91.6225 44.4005C92.2235 45.3254 92.5437 46.4045 92.5443 47.5075V55.5812C88.4382 57.4382 83.9134 59.5343 78.6964 62.0233C78.0081 61.8667 77.2859 61.9782 76.677 62.3352C76.068 62.6922 75.6179 63.2678 75.4184 63.945C75.2188 64.6221 75.2848 65.3498 75.6028 65.98C75.9208 66.6102 76.467 67.0955 77.1302 67.3373C78.6583 67.907 80.1771 68.5082 81.6865 69.1411V78.3803L75.2071 75.2515ZM87.2497 177.474V161.836L137.339 140.602V156.241L87.2497 177.474Z" fill="#E3DEE6" stroke="#E3DEE6" stroke-width="1.32115" stroke-miterlimit="10"/>
<path d="M150.96 41.5373V20.9112C150.96 19.3993 150.521 17.9199 149.698 16.6522C148.874 15.3845 147.7 14.3829 146.318 13.769L137.164 9.70017C135.974 9.17073 134.67 8.94711 133.372 9.04965C132.073 9.15218 130.821 9.57761 129.729 10.2873C128.636 10.9969 127.739 11.9683 127.117 13.1131C126.496 14.258 126.171 15.5399 126.171 16.8424V43.5171C126.171 44.9869 126.586 46.4268 127.368 47.6716C128.149 48.9164 129.266 49.9156 130.59 50.5546L139.483 54.8481" stroke="#4E5777" stroke-width="2.07645" stroke-miterlimit="10"/>
<path d="M84.9834 181.458L140.578 157.89" stroke="#6C738E" stroke-width="2.73367" stroke-miterlimit="10"/>
<path d="M84.9834 159.775L140.578 136.208" stroke="#6C738E" stroke-width="2.73367" stroke-miterlimit="10"/>
<path d="M84.9834 138.093L140.578 114.526" stroke="#6C738E" stroke-width="2.73367" stroke-miterlimit="10"/>
<path d="M84.9834 116.411L140.578 92.8438" stroke="#6C738E" stroke-width="2.73367" stroke-miterlimit="10"/>
<path d="M84.9834 94.7286L140.578 71.1611" stroke="#6C738E" stroke-width="2.73367" stroke-miterlimit="10"/>
<path d="M84.9834 73.0462L140.578 49.4795" stroke="#6C738E" stroke-width="2.73367" stroke-miterlimit="10"/>
<path d="M84.4685 61.6814V202.782" stroke="#4E5777" stroke-width="2.73367" stroke-miterlimit="10"/>
<path d="M140.122 37.3157V178.416" stroke="#4E5777" stroke-width="2.73367" stroke-miterlimit="10"/>
<path d="M270.294 206.819C253.425 195.025 238.284 180.127 228.997 161.757C220.783 145.51 217.459 127.268 210.864 110.298C197.847 76.805 171.56 48.6804 139.591 34.7463C113.82 46.8701 105.092 49.4215 78.4609 62.1363C78.2526 62.5528 78.0436 62.9693 77.5015 64.3071C104.483 74.4308 127.761 92.4951 144.267 116.118C165.586 146.777 167.821 178.481 189.828 208.649C211.694 238.624 226.7 247.052 261.136 259.308C292.638 249.091 297.998 247.827 325.061 237.747C323.912 236.379 287.163 218.613 270.294 206.819Z" fill="#636B87"/>
<path d="M78.1011 64.7297C104.907 74.7186 127.938 93.4374 144.266 116.924C165.584 147.584 167.82 179.287 189.827 209.456C211.693 239.431 226.698 247.859 261.134 260.115" stroke="#4E5777" stroke-width="2.73367" stroke-miterlimit="10" stroke-linecap="round"/>
<path d="M325.057 238.554C323.908 237.185 287.164 219.42 270.295 207.625C253.426 195.831 238.284 180.933 228.997 162.564C220.783 146.316 217.459 128.074 210.864 111.104C197.847 77.6111 171.56 49.4866 139.591 35.5525" stroke="#4E5777" stroke-width="2.73367" stroke-miterlimit="10" stroke-linecap="round"/>
<path d="M94.6577 71.1757V47.5106C94.6577 45.9986 94.2193 44.519 93.3954 43.2512C92.5715 41.9833 91.3976 40.9817 90.0159 40.3676L80.8586 36.2988C79.6685 35.7707 78.3652 35.5482 77.0672 35.6517C75.7692 35.7551 74.5177 36.1812 73.4262 36.8911C72.3347 37.6011 71.4378 38.5725 70.8171 39.7171C70.1963 40.8617 69.8713 42.1433 69.8716 43.4454V70.1158C69.872 71.5855 70.2867 73.0253 71.0681 74.27C71.8495 75.5148 72.966 76.5141 74.2894 77.1532L83.1831 81.4467" stroke="#4E5777" stroke-width="2.07645" stroke-miterlimit="10"/>
<path d="M168.061 116.218C169.873 132.844 189.03 168.712 201.906 168.127C214.782 167.542 214.32 143.416 204.227 131.575C194.134 119.735 174.199 105.006 171.158 108.407C169.3 110.603 168.213 113.346 168.061 116.218Z" fill="#4C5576"/>
<path d="M141.617 95.7721C140.539 95.8171 139.459 95.7357 138.399 95.5294C138.03 95.4706 137.672 95.3602 137.335 95.2012C136.691 94.7517 136.095 94.238 135.555 93.6681C133.886 92.3259 131.489 92.5823 129.294 92.9859C129.82 93.9598 130.691 94.7024 131.736 95.0684C130.696 96.2252 128.853 95.854 127.304 95.9854C126.502 96.0507 125.724 96.286 125.02 96.6757C124.317 97.0654 123.704 97.6004 123.223 98.2453C122.753 98.898 122.447 99.6549 122.333 100.451C122.218 101.248 122.298 102.06 122.565 102.819C122.656 103.115 122.831 103.38 123.068 103.579C123.364 103.756 123.702 103.851 124.048 103.853L129.792 104.398C130.974 104.58 132.179 104.552 133.351 104.315C134.174 104.1 134.928 103.676 135.731 103.397C137.678 102.72 139.806 102.904 141.858 103.095C142.232 101.782 142.441 100.427 142.48 99.0625C142.51 97.9061 142.211 96.7649 141.617 95.7721Z" fill="#EED2AA"/>
<path d="M184.969 61.3461C184.343 59.4129 182.312 58.3903 180.686 57.1689C179.16 56.0199 177.894 54.5626 176.968 52.8918C177.55 52.28 178.588 52.5155 179.296 52.9751C180.004 53.4347 180.636 54.0853 181.467 54.2376C181.564 54.2645 181.666 54.2695 181.766 54.2522C181.865 54.2349 181.959 54.1958 182.042 54.1377C182.299 53.9094 182.172 53.4914 182.027 53.1769L180.581 50.0826C180.354 49.6626 180.202 49.2059 180.134 48.7333C180.129 47.9111 180.44 47.1185 181.003 46.5194C182.08 45.2067 183.934 44.276 185.479 44.9812C185.622 45.0381 185.749 45.129 185.849 45.2462C185.957 45.427 186.022 45.6302 186.039 45.84C186.178 46.5744 186.548 47.2453 187.095 47.7552C187.119 47.4704 187.203 47.1938 187.341 46.9438C187.413 46.8203 187.521 46.7221 187.651 46.6626C187.781 46.6032 187.926 46.5855 188.067 46.612C188.387 46.7046 188.529 47.0702 188.626 47.389C189.302 49.6101 189.99 51.9037 189.749 54.211C189.705 54.6418 189.628 55.0727 189.625 55.5036C189.695 56.5873 189.992 57.6441 190.498 58.6051L185.778 61.262C185.598 61.3931 185.376 61.4548 185.154 61.4358C184.94 61.3906 184.784 61.0926 184.969 61.3461Z" fill="#EED2AA"/>
<path d="M208.734 111.355C207.337 108.131 205.598 105.067 203.547 102.214C201.809 99.7139 199.89 97.2587 197.35 95.5791C194.809 93.8994 191.533 93.0916 188.66 94.1156C184.306 95.671 182.332 100.64 178.899 103.738C177.936 104.606 176.847 105.333 175.939 106.259C174.972 107.143 174.379 108.364 174.283 109.671C174.288 110.542 174.499 111.399 174.897 112.173C175.295 112.948 175.869 113.618 176.573 114.13C179.954 116.5 182.598 117.96 184.487 120.93C186.761 124.506 187.277 130.182 191.057 132.099C191.898 132.567 192.846 132.808 193.808 132.798C194.771 132.7 195.697 132.374 196.51 131.848C202.044 128.625 205.012 122.416 207.481 116.507C208.312 114.523 209.098 112.23 208.734 111.355Z" fill="#7EC5D2"/>
<path d="M191.045 56.8516C188.109 57.7005 185.474 59.3628 183.444 61.6463C185.922 65.4566 187.44 69.7961 188.936 74.0882C189.249 74.8458 189.43 75.6514 189.471 76.4702C189.393 77.3387 189.211 78.1948 188.929 79.0202C188.181 81.9788 188.761 85.1499 188.02 88.1106C187.508 90.1558 186.391 91.9956 185.698 93.9862C185.326 94.8873 185.207 95.8733 185.356 96.837C185.539 97.4986 185.883 98.1049 186.356 98.6026C186.829 99.1002 187.417 99.4739 188.069 99.6908C189.377 100.111 190.763 100.232 192.125 100.043C194.073 99.8619 195.991 99.4365 197.833 98.7774C198.404 98.5727 199.075 98.1756 198.998 97.5745C198.942 97.1257 198.49 96.8564 198.141 96.5692C196.529 95.2414 196.719 92.7632 197.056 90.7001L199.144 77.9057C199.513 76.2562 199.589 74.5549 199.37 72.8789C199.102 71.7293 198.687 70.6191 198.135 69.5757C196.053 65.1833 193.685 60.9327 191.045 56.8516Z" fill="#7EC5D2"/>
<path d="M181.465 116.598C180.048 113.646 179.091 115.271 176.127 113.879C173.164 112.486 165.517 108.218 162.292 107.653C155.022 106.381 147.68 105.575 140.308 105.239C139.858 101.524 139.464 97.8018 139.124 94.0739C150.78 93.1971 162.219 96.914 173.731 98.9427C174.593 99.0949 175.614 99.1904 176.221 98.5585C176.392 98.3234 176.583 98.1034 176.792 97.9007C177.429 97.4303 178.288 97.9531 179.026 98.2403C180.717 98.8981 182.707 98.157 183.97 96.8544C185.159 95.4738 185.996 93.8252 186.407 92.0503C188.337 92.0244 189.56 94.1658 189.847 96.0717C190.155 97.9202 189.896 99.8187 189.103 101.517C188.702 102.359 188.133 103.11 187.43 103.723C186.728 104.336 185.907 104.799 185.019 105.083C184.43 105.205 183.853 105.379 183.295 105.604C181.5 106.5 181.255 108.907 181.19 110.91C181.125 112.913 183.374 115.131 181.465 116.598Z" fill="#7EC5D2"/>
<path d="M238.506 132.814L240.552 135.674C240.686 135.86 240.859 136.068 241.089 136.056C241.195 136.042 241.295 136.003 241.382 135.941C242.539 135.241 243.5 134.132 244.822 133.852C245.248 133.762 245.789 133.689 245.915 133.273C245.936 133.134 245.927 132.991 245.89 132.855C245.853 132.719 245.788 132.593 245.699 132.483C245.058 131.443 244.351 130.445 243.583 129.495C243.555 129.449 243.518 129.409 243.473 129.378C243.429 129.348 243.379 129.327 243.325 129.318C243.276 129.321 243.227 129.333 243.182 129.355C241.737 129.942 240.346 130.655 239.025 131.485C238.758 131.62 238.538 131.832 238.392 132.094C238.359 132.16 238.341 132.231 238.337 132.305C238.333 132.378 238.344 132.451 238.369 132.52C238.395 132.589 238.434 132.652 238.484 132.705C238.535 132.759 238.596 132.801 238.663 132.83C238.572 132.77 238.444 132.727 238.506 132.814Z" fill="#E4BFA2"/>
<path d="M258.21 105.908C259.719 105.63 261.172 105.107 262.512 104.359C262.099 102.913 261.553 101.509 260.879 100.164C260.868 100.118 260.847 100.076 260.817 100.039C260.787 100.003 260.749 99.9734 260.706 99.9535C260.663 99.9336 260.617 99.9237 260.569 99.9243C260.522 99.925 260.476 99.9363 260.434 99.9574C258.908 100.339 257.443 100.931 256.08 101.715C256.406 103.385 257.046 104.978 257.966 106.41C258.152 106.393 258.332 106.31 258.21 105.908Z" fill="#E4BFA2"/>
<path d="M207.993 137.939C211.031 138.755 214.157 137.087 216.69 135.222C220.072 132.73 223.094 129.784 225.671 126.467C227.376 124.27 228.89 121.908 230.858 119.943C231.392 119.386 231.995 118.9 232.654 118.497C233.463 118.074 234.316 117.741 235.198 117.503C243.292 114.959 250.951 111.222 258.575 107.5C258.935 107.36 259.253 107.131 259.501 106.835C259.652 106.518 259.729 106.17 259.727 105.819C259.724 105.467 259.642 105.121 259.486 104.805L256.291 94.9442C248.033 95.8289 240.78 100.799 232.699 102.721C231.697 102.916 230.712 103.187 229.751 103.531C228.329 104.193 227.015 105.066 225.855 106.122L223.021 108.452C220.969 110.141 218.913 111.832 217.035 113.711C212.333 118.537 208.703 124.301 206.383 130.627C205.763 131.964 205.498 133.439 205.613 134.908C205.718 135.575 205.991 136.203 206.408 136.734C206.825 137.264 207.37 137.679 207.993 137.939Z" fill="#F49727"/>
<path d="M248.931 127.631L236.637 135.068C231.265 129.141 226.051 123.077 220.994 116.876C218.793 121.4 217.016 126.118 215.686 130.97C215.026 133.376 214.409 135.938 212.665 137.72C211.029 139.255 208.876 140.118 206.633 140.139C204.41 140.148 202.197 139.83 200.066 139.195C197.688 138.583 195.246 137.841 193.408 136.212C192.381 135.262 191.539 134.13 190.926 132.872C189.762 130.604 189.174 127.702 190.617 125.603C191.559 124.231 193.159 123.498 194.481 122.486C196.814 120.699 198.271 118.034 199.844 115.553C202.732 110.997 206.196 106.833 210.15 103.164C212.069 101.227 214.345 99.6814 216.853 98.6122C219.398 97.6571 222.398 97.5932 224.721 99.0043C225.742 99.6861 226.666 100.501 227.47 101.429C235.286 109.598 242.461 118.358 248.931 127.631Z" fill="#F6AE57"/>
<path d="M176.023 95.9099C174.228 95.5731 175.18 96.1756 173.414 95.7189C169.099 94.6022 165.201 92.1757 164.366 87.931C163.671 84.3865 165.315 79.1895 168.316 77.102C169.382 76.3964 170.578 75.9102 171.834 75.6716C173.09 75.433 174.381 75.4469 175.632 75.7125C176.341 75.8561 177.035 76.0715 177.751 76.1713C179.722 76.4464 181.69 75.8331 183.675 75.7455C183.907 75.7132 184.142 75.7557 184.347 75.8669C185.089 76.3695 183.96 77.7878 184.701 78.2933C184.858 78.3824 185.033 78.4334 185.212 78.442L187.096 78.6826C187.602 78.7122 188.097 78.8462 188.548 79.0761C189.524 79.6642 189.688 80.9633 189.617 82.0663C189.48 84.153 188.882 86.1834 187.867 88.0114L185.996 89.6401L187.608 90.244C187.608 90.244 188.613 95.884 184.116 98.0326C179.619 100.181 176.788 97.9005 176.788 97.9005L176.023 95.9099Z" fill="#EED2AA"/>
<path d="M184.522 77.9066C184.522 77.9066 189.241 76.2183 192.185 78.1852C196.428 81.0195 189.86 89.5212 186.542 89.7603C184.241 89.9563 181.926 89.9349 179.628 89.6964C179.269 89.5736 180.669 87.3863 178.69 86.9001C176.711 86.4139 175.315 85.438 174.538 86.6531C174.386 86.9801 174.122 87.2414 173.793 87.3892C173.464 87.5369 173.093 87.5611 172.748 87.4574L169.411 84.9397C169.411 84.9397 174.007 83.7189 177.271 84.6115C180.891 85.6039 184.522 77.9066 184.522 77.9066Z" fill="#270041"/>
<path d="M182.229 89.7831C181.139 90.066 180.037 92.5557 179.735 92.8523L178.873 90.6693C179.234 90.143 179.509 89.5637 179.691 88.9523L182.229 89.7831Z" fill="#270041"/>
<path d="M182.762 83.4524C183.969 82.6481 185.291 81.8209 185.914 80.0924L186.24 80.8507C186.34 81.083 186.386 81.3349 186.375 81.5875C186.364 81.8401 186.296 82.087 186.176 82.3098C186.057 82.5326 185.888 82.7255 185.684 82.8743C185.479 83.023 185.244 83.1236 184.995 83.1688L182.808 83.5652C182.794 83.5674 182.78 83.5649 182.767 83.558C182.755 83.551 182.745 83.5401 182.74 83.5271C182.735 83.514 182.734 83.4995 182.738 83.4859C182.742 83.4724 182.75 83.4605 182.762 83.4524Z" fill="#EED2AA"/>
<path d="M172.815 83.4137C173.509 82.902 174.029 82.1913 174.308 81.3762C174.587 80.5611 174.61 79.6804 174.376 78.8515C174.143 78.0839 173.681 77.2933 173.939 76.5335C174.168 75.8642 174.876 75.4915 175.275 74.907C176.115 73.6762 175.347 71.9865 174.372 70.859C172.966 69.2304 170.862 67.9249 168.752 68.3521C169.468 68.9687 169.925 69.8319 170.033 70.77C169.156 70.5342 168.232 70.5333 167.355 70.7672C166.478 71.0012 165.677 71.4618 165.034 72.1028C165.372 72.1479 165.684 72.3083 165.918 72.5569C166.151 72.8054 166.292 73.127 166.316 73.4672C166.345 74.1507 166.177 74.8281 165.833 75.419C164.905 77.2908 163.558 78.9234 161.897 80.1901C161.569 80.4393 161.189 80.8364 161.39 81.1954C161.591 81.5545 162.147 81.4281 162.526 81.2471C162.129 83.155 162.192 85.1302 162.71 87.0088C163.229 88.8875 164.188 90.6154 165.508 92.0492C166.828 93.483 168.471 94.5814 170.3 95.2533C172.129 95.9251 174.093 96.151 176.027 95.9123C175.206 95.2537 174.595 94.3711 174.266 93.3716C174.115 92.6822 174.237 91.9555 174.099 91.2625C173.735 89.435 171.633 88.0821 171.909 86.2394C172.111 84.87 173.623 83.7964 172.815 83.4137Z" fill="#270041"/>
<path d="M170.138 94.7108C170.512 95.0792 170.952 95.3741 171.435 95.5804C171.675 95.6864 171.883 95.8534 172.039 96.0648C172.194 96.2762 172.292 96.5246 172.321 96.7854C172.306 97.3872 171.715 97.7908 171.192 98.0838C172.608 98.2929 174.051 97.978 175.251 97.1983C175.409 97.1161 175.548 97.0029 175.661 96.8656C175.774 96.7283 175.858 96.5696 175.908 96.3991C176.024 95.7391 175.28 95.2939 174.899 94.7417" fill="#270041"/>
<path d="M171.891 84.5612C173.333 85.7304 174.313 87.3743 174.655 89.1994C175.067 90.5457 175.292 91.9424 175.323 93.35C175.301 94.2785 174.977 95.3607 174.094 95.653C173.788 95.7309 173.467 95.7267 173.163 95.6408C172.86 95.5549 172.584 95.3905 172.364 95.164C171.928 94.7061 171.587 94.1674 171.358 93.5784C170.413 91.4866 169.647 89.2051 169.953 86.9295C169.999 86.3832 170.189 85.8588 170.502 85.4092C170.663 85.1867 170.883 85.0137 171.136 84.9097C171.39 84.8058 171.668 84.7751 171.939 84.8211C171.852 84.7306 171.765 84.6401 171.891 84.5612Z" fill="#270041"/>
<path d="M179.735 92.8509C178.697 94.1873 177.478 95.8669 176.023 95.9086C174.568 95.9502 173.41 92.8279 173.41 92.8279L173.763 90.1084L180.762 89.3027L179.735 92.8509Z" fill="#270041"/>
<path d="M175.052 86.4462C174.793 86.5877 174.581 86.8011 174.441 87.0607C174.301 87.3203 174.239 87.6149 174.262 87.9089C174.257 88.3033 174.33 88.6948 174.476 89.0608C174.623 89.4269 174.841 89.7603 175.117 90.0417C175.403 90.3255 175.751 90.5398 176.133 90.6679C176.515 90.796 176.921 90.8346 177.321 90.7806C177.94 90.774 178.536 90.5466 179.002 90.1394C179.406 89.5902 179.65 88.9397 179.707 88.2601" fill="#EED2AA"/>
<path d="M175.052 86.4462C174.793 86.5877 174.581 86.8011 174.441 87.0607C174.301 87.3203 174.239 87.6149 174.262 87.9089C174.257 88.3033 174.33 88.6948 174.476 89.0608C174.623 89.4269 174.841 89.7603 175.117 90.0417C175.403 90.3255 175.751 90.5398 176.133 90.6679C176.515 90.796 176.921 90.8346 177.321 90.7806C177.94 90.774 178.536 90.5466 179.002 90.1394C179.406 89.5902 179.65 88.9397 179.707 88.2601" stroke="#D1AD83" stroke-width="0.304447" stroke-miterlimit="10" stroke-linecap="round"/>
<path d="M178.032 87.5491C177.946 87.6364 177.84 87.7021 177.723 87.7408C177.607 87.7795 177.483 87.7901 177.361 87.7717C177.237 87.7524 177.12 87.7054 177.017 87.6341C176.914 87.5629 176.829 87.4692 176.768 87.3602C176.514 87.3954 176.278 87.5095 176.093 87.6862C176.003 87.7736 175.933 87.879 175.887 87.9955C175.841 88.112 175.82 88.2369 175.826 88.362C175.853 88.5754 175.954 88.7727 176.111 88.9188C176.269 89.065 176.473 89.1506 176.688 89.1605" fill="#EED2AA"/>
<path d="M178.032 87.5491C177.946 87.6364 177.84 87.7021 177.723 87.7408C177.607 87.7795 177.483 87.7901 177.361 87.7717C177.237 87.7524 177.12 87.7054 177.017 87.6341C176.914 87.5629 176.829 87.4692 176.768 87.3602C176.514 87.3954 176.278 87.5095 176.093 87.6862C176.003 87.7736 175.933 87.879 175.887 87.9955C175.841 88.112 175.82 88.2369 175.826 88.362C175.853 88.5754 175.954 88.7727 176.111 88.9188C176.269 89.065 176.473 89.1506 176.688 89.1605" stroke="#D1AD83" stroke-width="0.152047" stroke-miterlimit="10" stroke-linecap="round"/>
<path d="M177.691 77.8735C176.985 78.0746 176.784 79.1324 176.985 79.8375" stroke="#D1AD83" stroke-width="0.304447" stroke-miterlimit="10" stroke-linecap="round"/>
<path d="M214.535 134.827C212.521 139.93 207.552 143.018 199.227 141.003C190.901 138.987 186.432 131.15 190.614 125.602C194.795 120.054 205.407 125.961 205.407 125.961L214.535 134.827Z" fill="#F6AE57"/>
<path d="M246.221 132.071C243.567 134.331 242.808 135.004 239.255 136.349C240.414 138.91 241.709 141.407 243.133 143.83L261.368 132.897C261.368 132.897 260.491 128.349 256.26 129.762C252.971 130.765 249.617 131.536 246.221 132.071Z" fill="#715782"/>
<path d="M247.149 141.317C246.542 140.365 245.594 139.681 244.499 139.407C243.403 139.133 242.245 139.289 241.261 139.843" stroke="#19254F" stroke-width="0.145697" stroke-miterlimit="10" stroke-linecap="round"/>
<path d="M255.466 130.569C254.56 132.597 256.304 135.434 256.304 135.434" stroke="#19254F" stroke-width="0.145697" stroke-miterlimit="10" stroke-linecap="round"/>
<path d="M261.362 132.897L243.127 143.83" stroke="#19254F" stroke-width="0.291042" stroke-miterlimit="10"/>
<path d="M259.336 98.3505C261.403 101.487 262.024 102.389 262.998 106.372C265.89 105.47 268.733 104.415 271.513 103.212L262.217 82.2578C262.217 82.2578 257.235 82.5975 258.19 87.3111C258.828 90.9598 259.211 94.6486 259.336 98.3505Z" fill="#715782"/>
<path d="M269.351 98.5764C268.252 99.1003 267.395 100.026 266.957 101.162C266.52 102.299 266.534 103.559 266.998 104.685" stroke="#19254F" stroke-width="0.156986" stroke-miterlimit="10" stroke-linecap="round"/>
<path d="M258.948 88.2602C260.999 89.496 264.262 88.0045 264.262 88.0045" stroke="#19254F" stroke-width="0.156986" stroke-miterlimit="10" stroke-linecap="round"/>
<path d="M262.214 82.2567L271.51 103.211" stroke="#19254F" stroke-width="0.313972" stroke-miterlimit="10"/>
<path d="M238.37 126.569L218.832 106.426L198.689 133.82" stroke="#F49727" stroke-width="0.607483" stroke-linecap="round" stroke-linejoin="round"/>
<path d="M143.296 105.956L139.47 105.755L138.328 93.0642H141.819L143.296 105.956Z" fill="#4BAFC1"/>
<path d="M182.709 61.3729C182.709 61.3729 188.618 56.0015 191.169 56.0015L192.445 58.2843L183.918 64.1929L182.709 61.3729Z" fill="#4BAFC1"/>
<path d="M176.791 97.9006C179.252 98.8722 180.509 99.5034 185.356 96.837C188.377 95.1754 187.611 90.2441 187.611 90.2441L187.662 89.4047C187.662 89.4047 192.949 93.1819 187.611 97.6629C182.272 102.144 175.877 98.7199 175.877 98.7199L176.791 97.9006Z" fill="#4BAFC1"/>
</svg>
