<svg width="427" height="351" viewBox="0 0 427 351" fill="none" xmlns="http://www.w3.org/2000/svg">
<g clip-path="url(#clip0)">
<path d="M325.408 149.229C389.233 151.68 399.308 107.829 387.546 61.3651C378.581 25.9611 344.054 -5.7279 287.4 5.7101C230.746 17.1481 194.548 163.338 154.029 126.791C108.482 85.7091 40.523 90.2741 17.041 130.983C8.17401 146.354 3.85401 150.122 3.89601 151.21C3.93801 152.298 325.408 149.229 325.408 149.229Z" fill="#FADEEC"/>
<path d="M18.687 191.608C12.787 200.842 4.68701 208.921 1.48701 219.454C-1.93199 230.717 1.01301 243.386 7.68001 253.012C14.347 262.638 24.38 269.44 35.097 273.812C63.044 285.197 94.497 280.821 124.136 275.528C153.775 270.235 172.478 261.693 201.383 270.228C217.593 275 218.367 294 245.573 315.761C290.664 351.834 476.888 290.961 344.292 148.926C305.564 148.926 21.866 151.372 3.89201 151.18C4.48401 160.907 14.697 161.48 20.602 165.995C28.989 172.408 23.454 184.144 18.687 191.608Z" fill="#C0E3E9"/>
<path d="M352.636 52.6181C352.73 51.4931 352.794 50.3671 352.865 49.2421C352.893 48.8961 352.916 48.5511 352.935 48.2051C353.247 42.7671 353.335 37.3221 353.375 31.8801L348.226 31.9211L348.067 38.7571C325.273 61.7041 284.401 84.4201 243.667 99.8571L239.608 87.6941C240.438 87.1373 241.219 86.5121 241.945 85.8251C243.469 84.0621 244.419 80.8251 244.745 78.2251L244.918 78.2171L245.375 76.4371C247.042 72.2901 251.341 60.6091 254.604 51.2531C256.87 46.6261 258.957 41.9061 259.056 40.3531C259.154 39.4551 259.015 38.5471 258.652 37.72C258.288 36.8929 257.714 36.1757 256.987 35.6401C255.229 33.8841 252.541 32.0231 251.063 30.7901L251.122 30.7481L250.422 30.0341C250.422 30.0341 250.246 30.1131 249.941 30.2341C249.903 30.1951 249.875 30.1601 249.841 30.1221C249.583 27.9156 249.792 25.6794 250.455 23.5591C250.5 23.5731 250.546 23.5901 250.591 23.6031C252.858 24.2781 260.879 15.2701 256.833 8.94111C251.415 0.467111 244.87 1.76511 241.311 2.95611C239.89 3.30734 238.393 3.17757 237.054 2.58711C237.036 3.14187 237.238 3.68116 237.617 4.08711C236.608 4.27479 235.57 4.23688 234.577 3.97611C234.478 4.57953 234.577 5.19869 234.859 5.7413C235.141 6.28391 235.591 6.72089 236.141 6.98711C236.027 7.43145 235.976 7.88961 235.99 8.34811C235.129 9.68479 234.677 11.244 234.69 12.8341C234.904 14.3751 232.313 15.4791 231.853 17.8171C231.653 18.8271 232.77 19.0831 233.405 19.3171C234.534 19.7301 233.191 21.8381 234.505 23.8801C235.405 25.2801 236.557 24.8951 240.248 25.0121L240.279 25.8591C240.084 26.1533 239.83 26.4033 239.532 26.5928C239.234 26.7823 238.9 26.9071 238.551 26.9591L237.527 26.6841L236.145 26.7841L236.165 26.8601C234.301 26.8282 232.463 27.2983 230.844 28.2211C228.731 29.7361 226.802 36.2771 225.87 42.4211L221.987 43.9481L222.34 44.3081C220.295 44.8359 218.213 45.2097 216.112 45.4261C212.94 45.8031 212.898 46.8941 211.54 49.7611C210.312 52.3541 212.291 53.5091 214.685 54.0711C214.814 54.3381 214.949 54.6001 215.092 54.8561C206.366 62.7271 195.558 72.8491 183.264 84.3641C168.047 98.6171 150.8 114.771 131.329 132.479C103.775 157.536 75.981 180.321 57.589 195.399C54.452 197.971 51.623 200.291 49.129 202.348C48.9594 202.333 48.7889 202.365 48.637 202.442C48.4851 202.519 48.3579 202.637 48.27 202.783C48.2038 202.897 48.1629 203.024 48.15 203.155C43.894 206.673 40.734 209.337 38.932 211.001C23.5748 225.218 14.4839 244.946 13.6538 265.858C12.8237 286.769 20.3221 307.155 34.504 322.545C41.8653 330.496 50.7437 336.893 60.616 341.358C60.6607 341.384 60.7075 341.407 60.756 341.425C70.8964 346.014 81.8756 348.458 93.005 348.603C93.313 348.603 93.618 348.603 93.925 348.603C108.248 348.704 122.281 344.573 134.265 336.729C134.326 336.729 134.391 336.729 134.451 336.729C134.627 336.717 134.796 336.651 134.933 336.54C135.071 336.429 135.171 336.278 135.22 336.108C139.14 333.426 142.779 330.354 146.082 326.94C149.355 323.497 152.223 319.691 154.631 315.596C154.753 315.577 154.868 315.53 154.97 315.461C155.071 315.391 155.156 315.299 155.218 315.193C155.28 315.086 155.317 314.967 155.327 314.845C155.338 314.722 155.32 314.598 155.277 314.483C163.093 300.948 168.107 283.146 171.603 263.628C171.801 263.515 171.949 263.333 172.018 263.116C172.088 262.899 172.073 262.665 171.978 262.458C171.94 262.378 171.897 262.297 171.859 262.217C175.512 241.301 177.48 218.517 179.338 196.985C179.367 196.661 179.394 196.338 179.422 196.014C179.429 196.014 179.437 196.008 179.443 196.003C179.632 195.85 179.752 195.628 179.777 195.386C179.803 195.144 179.732 194.902 179.579 194.713C179.567 194.698 179.551 194.682 179.539 194.667C180.792 180.167 182.039 166.079 183.739 153.256C189.752 157.165 198.713 161.063 210.973 164.356C217.45 166.198 224.044 167.603 230.709 168.562C235.022 169.28 239.593 169.931 244.451 170.497C254.493 171.562 264.645 170.853 274.442 168.405C275.293 168.265 276.115 168.122 276.897 167.974C277.067 167.942 277.252 167.896 277.427 167.861C278.021 167.679 278.617 167.487 279.216 167.289C278.616 167.489 278.021 167.679 277.427 167.861C284.782 166.373 294.934 162.227 305.322 156.185C309.137 154.108 312.818 151.795 316.344 149.259L316.011 149.31C330.611 138.959 343.921 125.264 348.522 110.351C354.009 92.5671 353.696 68.8361 352.61 52.9801C352.618 52.8491 352.63 52.7341 352.636 52.6181ZM169.217 185.451C167.317 184.031 165.259 182.577 163.076 181.106C164.343 177.711 165.6 174.33 166.848 170.963C168.095 167.606 169.337 164.266 170.575 160.941L174.422 164.756C173.008 170.314 171.543 176.165 170.022 182.256C169.754 183.31 169.485 184.38 169.217 185.451ZM162.961 292.2C157.554 286.396 152.083 280.796 146.55 275.4C148.566 268.863 150.631 261.8 152.859 254.179C153.822 250.886 154.767 247.593 155.693 244.3C161.884 250.3 167.025 256.525 170.02 262.622C168.331 272.628 165.973 282.51 162.961 292.2ZM153.644 313.838C148.218 313.538 141.506 311.72 134.03 308.731C134.18 308.431 134.33 308.131 134.477 307.825C135.06 308.269 135.664 308.768 136.294 309.335L138.364 307.735L135.979 304.647C136.495 303.514 137.004 302.352 137.505 301.162L153.223 289.017L157.63 294.717L160.286 292.664L157.573 289.153C159.157 290.814 160.737 292.491 162.312 294.186C160.092 301.012 157.188 307.596 153.644 313.838ZM70.871 343.364C68.6957 342.697 66.5527 341.939 64.442 341.09C69.4754 340.223 74.2903 338.379 78.615 335.662C79.0349 336.598 79.5369 337.495 80.115 338.343C80.979 339.621 82.0769 340.724 83.351 341.594C79.71 342.116 75.819 342.515 71.651 342.794C71.4806 342.806 71.317 342.866 71.179 342.967C71.0411 343.068 70.9343 343.205 70.871 343.364ZM49.754 333.291C50.965 330.591 52.471 327.454 54.242 323.936L70.183 334L71.947 331.2C71.967 330.066 72.1067 328.938 72.364 327.833C72.6845 326.488 73.1116 325.17 73.641 323.892L71.288 322.408L68.04 327.557L56.2 320.088C57.554 317.466 59.0263 314.674 60.617 311.712L62.036 311.755L62.042 311.585C63.142 312.31 64.259 313.03 65.394 313.74C68.869 315.914 72.409 317.94 75.971 319.855C75.957 320.871 75.964 321.913 76.015 323.012C76.1082 326.772 76.7652 330.497 77.964 334.062C72.9325 337.298 67.1786 339.24 61.215 339.713C57.2248 337.891 53.3915 335.743 49.754 333.291ZM16.787 254.711C16.766 254.641 16.7358 254.573 16.697 254.511C18.9138 242.79 23.8289 231.746 31.053 222.254C33.305 229.794 38.78 238.354 46.322 247.161L42.643 247.095L42.579 250.663L49.257 250.782C47.6757 253.325 46.1677 255.925 44.733 258.582C44.2022 257.064 43.47 255.624 42.556 254.301C41.5264 252.707 40.0884 251.418 38.3917 250.568C36.6949 249.718 34.8013 249.338 32.908 249.468C31.0013 249.507 29.14 250.057 27.5176 251.059C25.8952 252.062 24.5711 253.48 23.683 255.168C22.065 257.958 21.167 261.68 20.989 266.334C19.17 262.624 17.7594 258.726 16.782 254.711H16.787ZM86.314 173.894C93.3857 175.469 100.315 177.626 107.032 180.342C101.197 187.036 95.841 193.187 91.258 198.453C82.523 193.877 74.858 190.253 69.391 187.941C74.622 183.634 80.309 178.924 86.314 173.894ZM106.959 156.35C106.98 156.35 106.996 156.364 107.017 156.366C110.742 156.644 116.617 158.583 123.453 161.511C118.216 167.511 113.113 173.366 108.305 178.882C101.741 176.205 94.9785 174.042 88.079 172.414C94.119 167.343 100.454 161.967 106.959 156.35ZM127.808 137.988L138.893 143.819C134.159 149.242 129.403 154.692 124.736 160.04C118.408 157.317 112.812 155.389 108.811 154.74C115.054 149.34 121.417 143.737 127.808 137.988ZM152.508 115.398L161.247 118.227L160.663 118.896L158.672 119.317C158.672 119.317 158.785 119.831 159.052 120.74L156.984 123.107L149.996 131.107L139.62 127.255C144.035 123.212 148.33 119.26 152.503 115.4L152.508 115.398ZM164.527 104.245L171.414 106.593L162.314 117.006L153.764 114.238C157.444 110.829 161.02 107.506 164.522 104.245H164.527ZM175.929 93.6001C175.982 93.6478 176.041 93.6875 176.105 93.7181L180.929 95.7091C178.189 98.8424 175.37 102.067 172.471 105.384L165.761 103.096C169.245 99.8468 172.634 96.6814 175.929 93.6001ZM193.567 77.0891L196.432 77.9891C194.329 80.3891 192.12 82.9128 189.804 85.5601L186.44 83.7601C188.879 81.4721 191.254 79.2468 193.567 77.0841V77.0891ZM200.222 70.8801C200.325 70.9756 200.454 71.0388 200.593 71.0621L202.293 71.3051L199.537 74.4511L197.51 76.7651L194.823 75.9201C196.666 74.1908 198.466 72.5091 200.222 70.8751V70.8801ZM169.814 158.017L156.473 151C159.147 146.748 161.793 142.555 164.412 138.42L169.631 140.357C171.135 142.208 172.749 143.968 174.463 145.627C172.919 149.711 171.369 153.841 169.814 158.017ZM138.282 248.608C139.159 250.176 139.795 251.867 140.171 253.624C140.72 256.086 141.052 258.592 141.164 261.112C141.339 263.639 141.295 266.176 141.031 268.695C140.979 269.131 140.915 269.541 140.847 269.945C137.608 266.898 134.327 263.902 131.003 260.956C133.078 256.423 135.128 251.796 137.155 247.075C137.58 247.548 137.958 248.061 138.282 248.608ZM96.644 322.06C96.7345 323.868 96.7275 325.678 96.623 327.485C94.863 326.81 93.094 326.096 91.316 325.345C93.056 323.579 94.7787 321.689 96.484 319.674C96.554 320.438 96.605 321.227 96.644 322.06ZM81.031 322.78C81.026 322.671 81.026 322.572 81.022 322.463C83.4667 323.678 85.9107 324.824 88.354 325.903C86.3894 327.794 84.3148 329.568 82.141 331.214C81.4914 328.447 81.1196 325.621 81.031 322.78ZM90.031 326.63C92.189 327.554 94.337 328.43 96.47 329.238C96.454 329.369 96.445 329.513 96.429 329.638C96.2323 331.454 95.7746 333.231 95.07 334.916C94.5733 336.133 93.7803 337.207 92.763 338.039C91.864 338.727 90.7732 339.118 89.642 339.157C87.3 339.265 85.347 338.025 83.783 335.437C83.3209 334.647 82.9416 333.811 82.651 332.943C85.2516 331.009 87.7173 328.9 90.031 326.63ZM89.661 324.63C86.7677 323.363 83.8707 322 80.97 320.539C80.9394 318.765 81.0323 316.992 81.248 315.231C81.4412 313.445 81.9006 311.697 82.611 310.047C83.1183 308.853 83.9249 307.809 84.953 307.017C85.8736 306.35 86.9717 305.971 88.108 305.929C89.2336 305.864 90.3527 306.141 91.318 306.723C92.3988 307.426 93.286 308.389 93.898 309.523C94.7572 311.101 95.3754 312.798 95.732 314.559C95.932 315.419 96.088 316.371 96.226 317.378C94.064 319.999 91.8757 322.416 89.661 324.629V324.63ZM97.561 306.623C96.4935 305.059 95.0437 303.794 93.3495 302.949C91.6553 302.104 89.7729 301.706 87.8815 301.793C85.9901 301.88 84.1524 302.45 82.5432 303.448C80.9341 304.446 79.6069 305.839 78.688 307.494C77.0012 310.726 76.0901 314.306 76.027 317.951C71.298 315.379 66.627 312.567 62.099 309.545L62.118 308.923C65.165 303.299 68.58 297.152 72.295 290.586L76.795 296.386L70.745 301.086L72.934 303.904L87.851 292.312L85.661 289.494L80.192 293.745L74.592 286.536C76.1827 283.742 77.8214 280.883 79.508 277.958C89.0961 285.376 99.1427 292.181 109.588 298.333C106.509 303.361 103.376 308.038 100.188 312.309C99.6296 310.283 98.7436 308.362 97.565 306.622L97.561 306.623ZM89.133 262.248C89.2172 264.072 89.0373 265.899 88.599 267.671C88.2952 268.95 87.6764 270.132 86.799 271.11C86.0159 271.927 84.9978 272.481 83.886 272.693C83.4309 272.784 82.9664 272.817 82.503 272.793C84.6404 269.111 86.838 265.347 89.096 261.5C89.11 261.744 89.131 262.006 89.137 262.247L89.133 262.248ZM80.623 272.366C79.4107 271.805 78.3484 270.965 77.523 269.914C75.581 267.597 74.0283 263.567 72.865 257.825C72.3331 255.357 72.0179 252.848 71.923 250.325C71.843 248.532 72.0314 246.737 72.482 245C72.8012 243.742 73.4387 242.588 74.333 241.647C75.1403 240.846 76.1676 240.304 77.284 240.089C78.3861 239.852 79.5341 239.954 80.577 240.382C81.7536 240.911 82.7781 241.728 83.556 242.757C84.6472 244.186 85.5182 245.77 86.14 247.457C87.0341 249.816 87.7198 252.249 88.189 254.727C88.449 256.012 88.648 257.213 88.802 258.352C85.9913 263.134 83.2663 267.805 80.627 272.365L80.623 272.366ZM80.717 276.866C82.043 277.065 83.3939 277.025 84.706 276.749C86.5857 276.405 88.3368 275.557 89.773 274.296C91.2092 273.036 92.2768 271.409 92.862 269.59C94.306 265.765 94.4317 260.72 93.239 254.455C96.1023 249.611 99.0357 244.678 102.039 239.655C108.488 244.522 114.721 249.477 120.739 254.522C120.444 257.1 120.38 259.698 120.548 262.287C120.676 266.298 121.47 270.26 122.898 274.01C118.838 282.199 114.686 289.898 110.433 296.949C100.116 290.888 90.1924 284.181 80.721 276.869L80.717 276.866ZM125.561 262C125.491 260.773 125.466 259.634 125.471 258.55C126.604 259.531 127.735 260.517 128.862 261.508C127.953 263.481 127.04 265.433 126.122 267.363C125.844 265.586 125.657 263.796 125.561 262ZM130.204 262.7C133.648 265.76 137.045 268.873 140.395 272.038C140.22 272.704 139.998 273.356 139.73 273.99C139.246 275.212 138.466 276.294 137.458 277.137C136.566 277.834 135.48 278.237 134.349 278.289C132.008 278.422 130.042 277.204 128.449 274.633C127.64 273.234 127.046 271.721 126.687 270.145C127.865 267.698 129.037 265.216 130.204 262.7ZM129.659 259.768C128.294 258.568 126.921 257.376 125.539 256.191C125.577 255.585 125.628 255.003 125.695 254.452C125.869 252.663 126.309 250.91 127.002 249.252C127.497 248.052 128.292 247 129.311 246.197C130.224 245.519 131.317 245.129 132.453 245.075C133.578 244.997 134.7 245.262 135.671 245.834C135.709 245.856 135.743 245.887 135.78 245.909C133.763 250.618 131.721 255.237 129.654 259.766L129.659 259.768ZM132.217 240.94C130.311 241 128.456 241.57 126.844 242.59C125.233 243.61 123.925 245.043 123.055 246.74C122.098 248.514 121.429 250.428 121.073 252.412C115.232 247.536 109.204 242.756 102.989 238.071C107.489 230.558 112.111 222.89 116.813 215.15C118.741 216.35 120.656 217.565 122.559 218.794C128.57 222.694 135.159 227.229 141.525 232.155C140.192 235.427 138.847 238.669 137.491 241.881C135.84 241.13 134.026 240.806 132.217 240.938V240.94ZM117.769 213.58C122.13 206.407 126.553 199.18 130.993 191.961C138.267 196.132 145.239 200.811 151.856 205.961C148.706 214.182 145.506 222.361 142.249 230.382C134.578 224.476 126.175 218.8 117.769 213.578V213.58ZM131.948 190.411C135.846 184.082 139.746 177.782 143.648 171.511C149.678 174.841 155.626 178.419 160.924 181.924C158.167 189.324 155.374 196.765 152.54 204.182C145.998 199.127 139.118 194.525 131.948 190.409V190.411ZM130.322 189.478C123.753 185.774 116.967 182.468 110.002 179.578C114.77 174.109 119.85 168.284 125.124 162.239C130.424 164.581 136.224 167.469 142.004 170.612C138.117 176.855 134.223 183.143 130.322 189.476V189.478ZM144.645 169.9C148.287 164.049 151.903 158.267 155.494 152.552L169.169 159.746C167.858 163.263 166.543 166.8 165.222 170.357C164.022 173.594 162.813 176.846 161.594 180.115C156.369 176.663 150.548 173.163 144.645 169.9ZM223.436 77.4741L222.936 79.2211H222.985C218.253 85.6002 213.878 92.2367 209.88 99.1001C207.857 102.765 207.403 102.714 208.78 107.866L208.88 108.327C204.438 109.323 199.583 110.408 194.315 111.582C198.615 104.265 203.935 92.5621 208.589 81.6191C208.69 81.579 208.78 81.5171 208.854 81.4379C208.928 81.3588 208.983 81.2642 209.016 81.1611C209.064 81.0007 209.055 80.8286 208.99 80.6741C212.863 71.5301 216.233 63.0321 218.114 58.2131C219.641 58.4661 221.641 56.6781 222.514 56.8981C223.081 57.1102 223.628 57.373 224.148 57.6831C222.754 65.1611 220.838 74.1211 223.436 77.4761V77.4741ZM198.028 100.586C199.102 97.9431 200.092 95.5401 201.05 93.2731L201.378 93.4491C200.254 95.9171 199.13 98.3171 198.028 100.588V100.586ZM201.995 92.0861L201.635 91.8931C203.213 88.1991 204.74 84.7931 206.47 81.1411L206.749 81.2281C205.212 84.8391 203.607 88.5201 201.995 92.0891V92.0861ZM207.334 79.8501L207.118 79.7821C207.69 78.5871 208.289 77.3581 208.918 76.0821C208.402 77.3221 207.874 78.5791 207.334 79.8531V79.8501ZM211.134 67.8191C210.601 68.8598 210.09 69.8654 209.601 70.8361L209.301 70.7941C209.91 69.7741 210.521 68.7881 211.131 67.8221L211.134 67.8191ZM208.893 72.2421C207.629 74.7621 206.499 77.0611 205.449 79.2561L204.695 79.0191C205.962 76.6271 207.228 74.3488 208.495 72.1841L208.893 72.2421ZM204.802 80.6151C203.127 84.1591 201.637 87.4821 200.102 91.0711L198.989 90.4711C200.66 86.9311 202.327 83.5598 203.989 80.3571L204.802 80.6151ZM199.516 92.4491C198.48 94.9011 197.407 97.5051 196.232 100.403L194.741 99.7871C195.947 97.0538 197.151 94.4001 198.354 91.8261L199.516 92.4491ZM195.673 101.786C194.461 104.786 193.132 108.11 191.619 111.902L189.819 111.289C191.264 107.814 192.705 104.435 194.142 101.154L195.673 101.786ZM189.312 112.7L189.23 112.718L189.247 112.678L189.312 112.7ZM206.585 70.4121L205.515 70.2591C207.546 67.9411 209.382 65.8471 211.024 63.9771C209.626 65.9791 208.146 68.1228 206.585 70.4081V70.4121ZM205.649 71.7851C204.3 73.7638 202.899 75.8354 201.444 78.0001L199.316 77.3301L204.341 71.5941L205.649 71.7851ZM197.46 89.6631L196.26 89.0221C198.305 85.9228 200.271 82.9608 202.16 80.1361C200.597 83.1588 199.03 86.3331 197.46 89.6591V89.6631ZM196.823 91.0141C195.596 93.6401 194.367 96.3468 193.137 99.1341L190.375 97.9941C192.108 95.3421 193.796 92.7681 195.439 90.2721L196.823 91.0141ZM192.539 100.5C191.087 103.815 189.632 107.227 188.174 110.736L183.2 109.036C185.367 105.682 187.482 102.424 189.545 99.2611L192.539 100.5ZM187.604 112.117C187.458 112.469 187.313 112.817 187.168 113.173C184.679 113.721 182.104 114.285 179.443 114.866C180.427 113.337 181.401 111.826 182.366 110.332L187.604 112.117ZM176.91 115.417C173.175 116.228 169.256 117.071 165.181 117.94L164.107 117.592L173.188 107.203L180.588 109.724C179.374 111.595 178.148 113.491 176.91 115.413V115.417ZM167.528 137.622L165.415 136.837L166.167 135.652C166.599 136.3 167.054 136.955 167.528 137.618V137.622ZM225.077 52.1001C224.835 51.9411 224.612 51.7801 224.41 51.6171C224.826 51.0595 225.119 50.4201 225.27 49.7411C225.254 50.4481 225.183 51.2391 225.077 52.1001ZM203.461 69.9611L201.504 69.6811C205.63 65.8451 209.476 62.3001 213.041 59.0461C210.587 61.8361 207.334 65.5421 203.461 69.9611ZM198.244 78.5551L200.578 79.2901C198.686 82.1121 196.717 85.0704 194.67 88.1651L191.377 86.4001C193.778 83.6561 196.067 81.0411 198.244 78.5551ZM193.844 89.4141C192.165 91.9581 190.44 94.5821 188.67 97.2861L183.661 95.2191L190.368 87.5521L193.844 89.4141ZM187.844 98.5571C185.758 101.749 183.618 105.04 181.423 108.429L174.253 105.985C177.12 102.708 179.912 99.5148 182.63 96.4041L187.844 98.5571ZM159.672 122.669C160.799 125.878 162.211 128.98 163.89 131.937C164.258 132.588 164.653 133.255 165.07 133.932L163.646 136.175L151.736 131.754L159.672 122.669ZM162.641 137.758C160.066 141.82 157.461 145.944 154.826 150.129L141.715 143.229L150.446 133.229L162.641 137.758ZM153.847 151.685C150.266 157.377 146.653 163.15 143.007 169.003C137.343 165.925 131.66 163.095 126.407 160.767C130.993 155.51 135.707 150.107 140.473 144.65L153.847 151.685ZM108.747 181.023C115.822 183.929 122.711 187.269 129.374 191.023C124.945 198.223 120.533 205.431 116.183 212.589C108.147 207.653 100.156 203.149 92.843 199.278C97.438 193.992 102.826 187.807 108.739 181.023H108.747ZM115.227 214.168C110.559 221.855 105.966 229.474 101.499 236.944C93.351 230.852 84.82 224.874 75.799 218.922C76.787 217.777 77.7627 216.649 78.726 215.54L80.645 213.325C83.23 210.337 86.985 206.012 91.599 200.708C99.097 204.674 107.213 209.252 115.219 214.168H115.227ZM100.554 238.526C97.878 243.005 95.2533 247.422 92.68 251.777C91.3354 246.177 89.3567 242.026 86.744 239.325C85.4496 237.943 83.8232 236.915 82.0195 236.339C80.2158 235.763 78.2947 235.658 76.4389 236.034C74.5832 236.41 72.8544 237.254 71.4171 238.487C69.9797 239.72 68.8815 241.299 68.227 243.076C66.709 246.969 66.619 252.218 67.957 258.821C68.6316 262.572 69.8771 266.198 71.65 269.571C64.6452 263.741 58.0084 257.483 51.778 250.832L61.471 251.005L61.534 247.437L54.609 247.313L54.636 245.739C60.8105 236.901 67.4746 228.416 74.597 220.322C83.704 226.334 92.321 232.372 100.546 238.526H100.554ZM26.025 270.466C25.8767 267.948 25.9494 265.422 26.242 262.916C26.4353 261.13 26.8947 259.382 27.605 257.732C28.1126 256.538 28.9192 255.494 29.947 254.702C30.8677 254.035 31.9658 253.656 33.102 253.614C34.2276 253.549 35.3465 253.826 36.312 254.408C37.3928 255.111 38.28 256.074 38.892 257.208C39.7512 258.786 40.3694 260.483 40.726 262.244C40.951 263.232 41.135 264.323 41.284 265.505C38.2507 272.022 35.928 278.846 34.356 285.86C31.5352 282.706 28.9227 279.372 26.535 275.878C26.2692 274.084 26.0963 272.278 26.017 270.466H26.025ZM41.638 269.746C41.7857 272.275 41.7134 274.812 41.422 277.328C41.2228 279.144 40.762 280.921 40.054 282.605C39.5573 283.822 38.7643 284.896 37.747 285.728C37.2171 286.128 36.6177 286.427 35.979 286.609C37.2901 280.619 39.1686 274.767 41.589 269.133C41.603 269.34 41.62 269.534 41.63 269.746H41.638ZM32.673 286.577C30.995 285.942 29.6077 284.714 28.773 283.126C28.2433 282.211 27.8199 281.238 27.511 280.226C29.0997 282.358 30.8177 284.475 32.665 286.577H32.673ZM35.173 290.949C35.6337 290.917 36.0921 290.859 36.546 290.774C39.346 293.664 42.3723 296.503 45.625 299.29L34.254 298.949C34.428 296.239 34.7303 293.572 35.161 290.949H35.173ZM38.449 290.219C40.833 289.236 42.794 287.444 43.987 285.158C46.0783 281.459 46.9687 276.245 46.658 269.514C46.5561 266.628 46.1577 263.76 45.469 260.955C47.069 257.876 48.792 254.874 50.602 251.947C59.0962 260.935 68.2744 269.251 78.054 276.82C76.454 279.596 74.8987 282.315 73.388 284.978L61.847 270.123L59.237 272.152C58.8323 273.211 58.3164 274.225 57.698 275.175C56.9392 276.331 56.0895 277.425 55.157 278.446L56.863 280.646L61.67 276.911L71.093 289.037C67.915 294.664 64.952 299.996 62.241 304.972L62.605 292.872L59.038 292.764L58.83 299.688L48.439 299.375C44.91 296.444 41.554 293.385 38.437 290.219H38.449ZM58.712 303.989L58.617 307.143C57.091 306.069 55.5857 304.971 54.101 303.85L58.712 303.989ZM99.001 337.472C100.099 335.434 100.843 333.224 101.201 330.936C104.068 331.915 106.883 332.778 109.647 333.523C106.1 335.477 102.363 337.064 98.494 338.261C98.654 338 98.831 337.752 98.989 337.472H99.001ZM101.45 329.236C101.728 326.777 101.802 324.299 101.672 321.828C101.574 319.326 101.263 316.837 100.744 314.388C104.433 309.495 107.874 304.419 111.054 299.181L111.108 299.211L111.182 300.951L113.974 300.833C115.107 301.463 116.232 302.077 117.348 302.675L118.308 325.335L110.653 325.66L110.804 329.225L116.396 328.988C114.897 330.19 113.327 331.301 111.696 332.316C108.354 331.469 104.928 330.437 101.438 329.236H101.45ZM117.107 300.7L117.266 300.693V300.793L117.107 300.7ZM122.524 323.14L121.753 304.959C125.148 306.667 128.461 308.209 131.653 309.549C129.174 314.434 126.109 318.998 122.524 323.14ZM121.674 303.091L121.343 295.268L118.043 295.408C117.099 296.037 116.091 296.564 115.036 296.98C114.082 297.356 113.106 297.67 112.112 297.92C112.04 297.878 111.968 297.838 111.896 297.797C115.967 291.056 119.942 283.737 123.829 275.973C124.128 276.525 124.457 277.059 124.817 277.573C125.878 279.159 127.334 280.441 129.042 281.292C130.751 282.143 132.651 282.533 134.556 282.424C136.461 282.315 138.305 281.711 139.905 280.672C141.505 279.632 142.807 278.193 143.68 276.496C143.838 276.209 143.98 275.896 144.119 275.591C144.238 275.706 144.356 275.823 144.474 275.937C142.199 283.289 139.995 289.924 137.703 295.896L128.485 303.018L130.385 305.479C131.306 305.838 132.19 306.286 133.024 306.818C132.824 307.238 132.619 307.654 132.41 308.067C128.962 306.634 125.367 304.963 121.674 303.091ZM150.748 285.815L140.407 293.805C142.277 288.758 144.092 283.285 145.939 277.371C146.685 278.104 147.43 278.838 148.173 279.571L146.764 280.66L150.748 285.815ZM151.099 253.671C148.967 260.965 146.991 267.717 145.076 273.971L144.86 273.764C146.12 269.575 146.568 265.183 146.178 260.826C145.794 254.1 144.374 249.046 141.918 245.665C141.114 244.538 140.127 243.553 138.996 242.754C140.321 239.621 141.636 236.457 142.941 233.263C146.861 236.346 150.671 239.57 154.191 242.873C153.18 246.469 152.15 250.068 151.099 253.671ZM143.668 231.481C146.929 223.462 150.132 215.294 153.283 207.081C156.253 209.459 159.105 211.929 161.839 214.491C159.593 223.14 157.239 231.978 154.753 240.87C151.338 237.7 147.607 234.564 143.668 231.481ZM153.968 205.294C156.82 197.835 159.631 190.347 162.405 182.907C164.669 184.435 166.788 185.94 168.729 187.4C166.709 195.457 164.592 203.858 162.364 212.47C159.682 209.994 156.872 207.6 153.968 205.294ZM171.278 159.056C172.802 154.968 174.32 150.919 175.831 146.91C176.673 147.676 177.555 148.433 178.477 149.18C177.336 153.429 176.162 157.948 174.948 162.695L171.278 159.056ZM232.031 103.269C228.604 103.969 224.672 104.82 220.205 105.806C219.972 105.22 219.856 104.594 219.865 103.963C219.874 103.332 220.008 102.709 220.258 102.13C220.82 100.94 224.703 98.0541 229.041 95.0171L232.031 103.269ZM184.454 85.6191L185.302 84.8191C185.317 84.8281 185.326 84.8431 185.341 84.8511L188.8 86.7051C186.6 89.2191 184.323 91.8218 181.97 94.5131L177.097 92.5021L184.454 85.6191ZM132.5 133.751C134.392 132.03 136.245 130.337 138.095 128.646L148.705 132.585C145.879 135.821 143.023 139.093 140.136 142.4L129.254 136.678C130.337 135.7 131.416 134.732 132.496 133.751H132.5ZM58.688 196.73C61.505 194.42 64.566 191.91 67.788 189.258C73.47 191.615 81.277 195.306 90.016 199.878C85.516 205.054 81.84 209.285 79.327 212.19L77.412 214.4C76.4007 215.565 75.375 216.751 74.335 217.956C66.8457 213.043 58.9973 208.128 50.79 203.211C53.142 201.277 55.785 199.11 58.688 196.73ZM40.109 212.263C41.889 210.619 45.04 207.963 49.29 204.452C57.626 209.442 65.55 214.394 73.127 219.361C67.045 226.438 60.606 234.176 54.685 242.597L55.133 217.407L51.827 217.348C50.846 217.92 49.8068 218.385 48.727 218.736C47.4108 219.16 46.0629 219.479 44.696 219.688L44.646 222.469L50.733 222.577L50.293 247.237L48.506 247.205C40.358 237.84 34.513 228.726 32.429 220.821C32.4042 220.743 32.3678 220.669 32.321 220.602C34.7085 217.635 37.3115 214.848 40.109 212.263ZM16.033 258.525C17.2959 262.542 18.9551 266.424 20.986 270.113C20.993 270.313 20.991 270.497 21.001 270.698C21.311 277.431 22.6777 282.542 25.101 286.029C25.993 287.448 27.2085 288.636 28.6479 289.494C30.0873 290.353 31.7096 290.858 33.382 290.969C32.9707 293.569 32.679 296.211 32.507 298.896L28.931 298.788L28.831 302.093C29.39 303.08 29.8426 304.123 30.181 305.205C30.5877 306.527 30.8887 307.879 31.081 309.248L32.502 309.291C32.7081 312.535 33.0987 315.764 33.672 318.963C26.6447 310.697 21.4412 301.042 18.4016 290.627C15.3621 280.212 14.5549 269.273 16.033 258.525ZM35.939 321.525C34.6501 315.52 34.0303 309.391 34.091 303.25L51.08 303.762C53.468 305.621 55.9557 307.444 58.543 309.23L58.47 311.649H58.637C57.237 314.276 55.9277 316.776 54.709 319.149L47.18 314.399L51.268 307.919L48.251 306.019L38.171 321.997L41.189 323.897L44.889 318.039L52.754 323C51.016 326.463 49.521 329.578 48.294 332.3C43.8132 329.146 39.6726 325.534 35.939 321.523V321.525ZM93.024 346.857C86.8074 346.775 80.6227 345.954 74.6 344.411C78.814 344.058 82.741 343.573 86.408 342.948C87.5257 343.236 88.6803 343.354 89.833 343.298C92.2584 343.24 94.5856 342.329 96.405 340.724C101.869 339.24 107.107 337.022 111.975 334.13C118.163 335.751 124.518 336.647 130.913 336.802C119.466 343.616 106.344 347.098 93.024 346.857ZM144.835 325.721C141.467 329.203 137.74 332.318 133.716 335.014C127.062 335.2 120.414 334.477 113.956 332.865C115.774 331.648 117.511 330.314 119.156 328.871L129.682 328.425L129.531 324.86L122.993 325.137C127.065 320.64 130.521 315.621 133.268 310.212C140.593 313.175 147.217 315.05 152.653 315.512C150.421 319.186 147.8 322.609 144.835 325.721ZM156.26 242.285C158.746 233.405 161.109 224.573 163.36 215.927C167.441 219.846 171.219 224.068 174.66 228.559C173.543 239.107 172.222 249.586 170.532 259.659C167.291 253.934 162.324 248.077 156.26 242.285ZM174.931 225.939C171.535 221.675 167.844 217.656 163.885 213.909C166.136 205.225 168.274 196.749 170.314 188.618C172.994 190.632 175.479 192.894 177.734 195.375C177.692 195.858 177.651 196.34 177.609 196.824C176.784 206.373 175.936 216.171 174.931 225.939ZM170.806 186.656C171.139 185.327 171.47 184.007 171.797 182.698C173.227 176.991 174.603 171.498 175.934 166.254L180.028 170.314C179.285 177.632 178.616 185.2 177.949 192.89C175.718 190.646 173.331 188.563 170.806 186.656ZM180.27 167.971L176.458 164.192C177.682 159.392 178.867 154.817 180.014 150.518C180.667 151.062 181.371 151.609 182.138 152.156C181.454 157.246 180.837 162.534 180.27 167.971ZM281.67 166.422C281.878 166.347 282.087 166.267 282.295 166.19L282.383 166.161C282.142 166.25 281.905 166.336 281.667 166.422H281.67ZM279.777 167.085C280.201 166.942 280.626 166.795 281.053 166.644C280.624 166.795 280.198 166.942 279.774 167.085H279.777Z" fill="#E3DEE6" stroke="#E3DEE6" stroke-width="3.745" stroke-miterlimit="10"/>
<path d="M288.689 216.984C289.755 217.007 290.816 217.143 291.854 217.391C293.118 217.698 294.355 218.105 295.554 218.609L296.961 216.403L292.132 213.325L304.602 193.759L310.68 197.633L312.485 194.802L297.498 185.25L295.698 188.081L301.198 191.581L286.074 215.31L288.689 216.984Z" fill="#E3DEE6" stroke="#E3DEE6" stroke-width="3.745" stroke-miterlimit="10"/>
<path d="M98.954 254.989L105.417 255.817L101.843 283.728L104.928 284.123C105.903 283.69 106.921 283.362 107.965 283.143C109.24 282.883 110.533 282.724 111.833 282.668L112.165 280.068L106.485 279.34L109.432 256.326L116.582 257.242L117.008 253.912L99.379 251.66L98.954 254.989Z" fill="#E3DEE6" stroke="#E3DEE6" stroke-width="3.745" stroke-miterlimit="10"/>
<path d="M308.436 269.177C306.827 268.382 305.035 268.032 303.246 268.164C301.456 268.296 299.734 268.905 298.26 269.928C294.94 272.034 291.948 275.962 289.283 281.713C286.618 287.464 285.538 292.322 286.043 296.287C286.22 298.074 286.859 299.783 287.899 301.246C288.938 302.71 290.342 303.877 291.971 304.632C293.599 305.387 295.397 305.703 297.185 305.551C298.974 305.398 300.692 304.781 302.169 303.761C305.521 301.583 308.53 297.619 311.195 291.869C313.86 286.119 314.924 281.297 314.386 277.402C314.219 275.625 313.579 273.924 312.533 272.478C311.487 271.031 310.072 269.892 308.436 269.177ZM309.407 283.23C308.769 285.516 307.933 287.742 306.907 289.882C305.931 292.056 304.769 294.142 303.433 296.115C302.481 297.545 301.326 298.829 300.006 299.928C299.063 300.726 297.935 301.276 296.725 301.528C295.676 301.711 294.595 301.563 293.634 301.105C291.634 300.177 290.544 298.294 290.363 295.455C290.182 292.616 291.249 288.697 293.563 283.697C294.534 281.532 295.693 279.455 297.025 277.491C297.962 276.084 299.105 274.826 300.415 273.758C301.358 272.982 302.484 272.462 303.686 272.247C304.744 272.091 305.825 272.252 306.791 272.71C307.758 273.145 308.572 273.862 309.124 274.768C309.721 275.824 310.042 277.014 310.058 278.227C310.092 279.918 309.873 281.604 309.407 283.23Z" fill="#E3DEE6" stroke="#E3DEE6" stroke-width="3.745" stroke-miterlimit="10"/>
<path d="M43.236 193.833C44.8528 194.619 46.6525 194.952 48.4435 194.797C50.2345 194.641 51.9499 194.003 53.407 192.95C56.759 190.774 59.7677 186.81 62.433 181.058C65.0983 175.307 66.162 170.485 65.624 166.592C65.4132 164.823 64.7533 163.138 63.7071 161.696C62.6609 160.254 61.2632 159.104 59.6469 158.355C58.0306 157.606 56.2495 157.283 54.4731 157.416C52.6967 157.55 50.984 158.136 49.498 159.118C46.1787 161.224 43.1863 165.153 40.521 170.903C37.8557 176.654 36.7757 181.512 37.281 185.476C37.4251 187.277 38.055 189.006 39.1036 190.478C40.1523 191.949 41.5804 193.109 43.236 193.833ZM44.808 172.889C45.7784 170.724 46.9365 168.648 48.269 166.684C49.206 165.277 50.3487 164.019 51.659 162.951C52.6015 162.175 53.728 161.655 54.93 161.44C55.988 161.284 57.0687 161.445 58.035 161.903C59.0025 162.338 59.8157 163.056 60.368 163.961C60.9649 165.018 61.2864 166.207 61.303 167.42C61.3338 169.11 61.112 170.796 60.645 172.42C60.0073 174.706 59.1707 176.932 58.145 179.072C57.1694 181.246 56.007 183.331 54.671 185.304C53.7186 186.734 52.5643 188.019 51.244 189.118C50.3008 189.917 49.1729 190.467 47.963 190.718C46.914 190.902 45.8339 190.753 44.873 190.294C42.873 189.367 41.7823 187.484 41.601 184.645C41.4197 181.807 42.4887 177.888 44.808 172.889Z" fill="#E3DEE6" stroke="#E3DEE6" stroke-width="3.745" stroke-miterlimit="10"/>
<path d="M237.526 26.6799L238.732 27.0039L237.517 27.1179L237.526 26.6799Z" fill="#009BA6"/>
<path d="M225.763 43.21C222.654 44.3562 219.41 45.0956 216.111 45.41C212.94 45.787 212.897 46.878 211.539 49.745C209.263 54.55 217.998 54.422 219.99 54.719C221.914 55.006 225.031 51.524 225.275 49.712C225.402 48.772 230.23 47.273 230.23 47.273L225.763 43.21Z" fill="#984E2F"/>
<path d="M239.378 38.3831C235.435 40.1891 224.197 42.9761 222.878 43.7201C221.559 44.4641 227.96 49.5141 229.427 49.9921C230.894 50.4701 247.919 46.6681 249.473 45.3331L239.378 38.3831Z" fill="#00818E"/>
<path d="M226.181 42.2871L221.986 43.9371L229.9 52.0071L234.232 49.6571L226.181 42.2871Z" fill="#00818E"/>
<path d="M244.706 29.684L243.74 29.425L244.228 30.0611L244.706 29.684Z" fill="#008EA4"/>
<path d="M245.568 23.027C244.362 23.673 243.674 23.954 243.674 23.954L244.101 22.406L245.568 23.027Z" fill="#38251F"/>
<path d="M237.037 5.17212C236.629 5.68219 236.329 6.27006 236.156 6.89984C235.983 7.52962 235.939 8.1881 236.029 8.83512L237.871 6.83512L237.037 5.17212Z" fill="#38251F"/>
<path d="M240.247 25.0059C236.556 24.8889 235.404 25.2729 234.504 23.8739C233.19 21.8319 234.532 19.7239 233.404 19.3109C232.769 19.0789 231.653 18.8229 231.852 17.8109C232.312 15.4729 234.903 14.3689 234.689 12.8279C234.412 10.8359 236.481 5.70594 240.367 4.56094C245.757 2.97294 252.006 4.53194 253.859 7.76094C254.929 9.83252 255.335 12.1833 255.023 14.4938C254.711 16.8044 253.695 18.9629 252.113 20.6759C249.196 24.0229 249.724 28.8289 249.922 30.9369C248.723 32.1104 247.177 32.8637 245.514 33.0839C243.81 33.2605 242.088 32.9982 240.514 32.3219L240.247 25.0059Z" fill="#AB5A34"/>
<path d="M236.735 7.18604C237.935 8.67404 242.422 10.4 244.256 10.375C246.09 10.35 244.344 13.43 245.156 13.983C248.256 16.112 245.505 18.822 245.505 18.822C245.63 21.122 248.335 22.922 250.605 23.595C252.875 24.268 260.893 15.262 256.847 8.93304C250.647 -0.76696 242.973 2.33304 239.985 3.42704C235.297 5.13704 236.735 7.18604 236.735 7.18604Z" fill="#38251F"/>
<path d="M236.968 13.3451L236.668 13.0691C236.535 13.1173 236.415 13.1945 236.316 13.295C236.217 13.3955 236.142 13.5168 236.096 13.6501C236.051 13.7859 236.042 13.9312 236.07 14.0715C236.098 14.2119 236.163 14.3424 236.257 14.4501C236.353 14.5527 236.478 14.6231 236.615 14.6514C236.753 14.6798 236.896 14.6646 237.024 14.6081C237.162 14.5359 237.276 14.426 237.354 14.2911C237.448 14.1481 237.5 13.982 237.505 13.811C237.51 13.6401 237.467 13.4712 237.382 13.3231C237.336 13.2536 237.276 13.1946 237.206 13.1497C237.136 13.1049 237.058 13.0752 236.976 13.0627C236.893 13.0502 236.809 13.055 236.729 13.077C236.649 13.0989 236.574 13.1374 236.51 13.1901C236.48 13.1551 236.454 13.1241 236.968 13.3451Z" fill="#813F24"/>
<path d="M238.271 14.348C237.872 14.1745 237.455 14.0471 237.028 13.968" stroke="#813F24" stroke-width="0.663" stroke-miterlimit="10" stroke-linecap="round"/>
<path d="M236.201 11.12C237.401 10.8872 238.644 11.0344 239.757 11.541" stroke="#813F24" stroke-width="0.663" stroke-miterlimit="10" stroke-linecap="round"/>
<path d="M233.437 18.7C233.788 18.555 234.125 19.161 234.737 19.082" stroke="#813F24" stroke-width="0.363" stroke-miterlimit="10" stroke-linecap="round"/>
<path d="M241.392 2.97095C237.257 4.27095 237.043 4.43395 234.575 3.97095C234.449 4.68203 234.604 5.41415 235.007 6.01348C235.41 6.61282 236.029 7.03271 236.735 7.18495L241.054 5.24995L241.392 2.97095Z" fill="#38251F"/>
<path d="M242.522 2.66816C239.329 3.53716 238.242 3.01116 237.052 2.58716C237.033 3.03322 237.161 3.47318 237.418 3.83853C237.675 4.20389 238.045 4.47412 238.471 4.60716L242.531 3.97916L242.522 2.66816Z" fill="#38251F"/>
<path d="M243.48 10.3141C244.38 10.5071 243.558 13.8971 242.28 14.5141C242.871 14.6738 243.491 14.6862 244.088 14.5502C244.684 14.4142 245.238 14.134 245.701 13.7341L246.437 11.6221L245.537 9.13208L243.48 10.3141Z" fill="#38251F"/>
<path d="M244.747 14.531C244.915 14.2992 245.148 14.1224 245.417 14.0229C245.685 13.9234 245.977 13.9057 246.256 13.972C246.536 14.0459 246.797 14.1783 247.023 14.3605C247.248 14.5427 247.432 14.7705 247.563 15.029C247.791 15.4675 247.887 15.9629 247.838 16.4548C247.79 16.9468 247.6 17.4141 247.291 17.8C246.968 18.1682 246.544 18.434 246.071 18.5647C245.599 18.6955 245.099 18.6855 244.632 18.536" fill="#AB5A34"/>
<path d="M244.747 14.531C244.915 14.2992 245.148 14.1224 245.417 14.0229C245.685 13.9234 245.977 13.9057 246.256 13.972C246.536 14.0459 246.797 14.1783 247.023 14.3605C247.248 14.5427 247.432 14.7705 247.563 15.029C247.791 15.4675 247.887 15.9629 247.838 16.4548C247.79 16.9468 247.6 17.4141 247.291 17.8C246.968 18.1682 246.544 18.434 246.071 18.5647C245.599 18.6955 245.099 18.6855 244.632 18.536" stroke="#813F24" stroke-width="0.363" stroke-miterlimit="10" stroke-linecap="round"/>
<path d="M244.593 17.0579C244.716 17.0106 244.825 16.9345 244.912 16.836C244.999 16.7375 245.061 16.6195 245.093 16.4919C245.123 16.3622 245.123 16.2272 245.092 16.0976C245.062 15.968 245.001 15.8473 244.916 15.7449C245.057 15.5095 245.269 15.3247 245.521 15.2169C245.647 15.1648 245.783 15.1391 245.92 15.1415C246.057 15.1439 246.191 15.1744 246.316 15.2309C246.52 15.3383 246.679 15.5153 246.763 15.7299C246.848 15.9444 246.853 16.1822 246.777 16.3999" stroke="#813F24" stroke-width="0.363" stroke-miterlimit="10" stroke-linecap="round"/>
<path d="M249.161 27.854C248.992 28.613 248.861 29.354 250.547 30.789L246.547 32.23L244.234 29.488L249.161 27.854Z" fill="#AB5A34"/>
<path d="M240.402 25.561C239.849 27.361 236.619 27.107 236.619 27.107L237.683 30.573L241.268 31.968L243.668 29.85L240.402 25.561Z" fill="#AB5A34"/>
<path d="M158.667 119.317C210.418 108.409 236.141 101.557 246.552 100.944L179.796 126.054L158.667 119.317Z" fill="#007880"/>
<path d="M238.919 85.6211L249.675 117.857L238.694 121.655L228.113 92.4591L238.919 85.6211Z" fill="#E67A11"/>
<path d="M208.781 107.87C207.403 102.718 207.857 102.77 209.881 99.104C215.429 89.05 224.402 77.544 224.195 77.429C224.195 77.429 223.301 75.881 223.835 75.401C224.369 74.921 228.107 73.85 231.506 74.411C234.905 74.972 243.565 73.272 244.517 74.466C245.469 75.66 244.517 82.846 241.947 85.821C240.247 87.789 221.547 99.405 220.259 102.13C218.971 104.855 221.23 107.768 221.23 107.768L209.5 111.083L208.782 107.87" fill="#FF8B07"/>
<path d="M245.377 76.432C248.197 69.418 258.549 40.84 258.677 38.432C258.805 36.024 252.167 31.951 250.418 30.208C250.418 30.208 245.655 32.217 242.631 31.308C241.517 30.9628 240.486 30.3893 239.606 29.624C238.725 28.8587 238.014 27.9184 237.517 26.863C237.517 26.863 233.133 26.575 230.844 28.215C227.875 30.343 225.266 42.402 225.28 49.323C225.294 56.244 219.703 72.655 223.437 77.478C223.706 77.825 245.377 76.432 245.377 76.432Z" fill="#008EA4"/>
<path d="M255.27 34.7691C256.461 35.0981 257.495 35.8403 258.189 36.8628C258.882 37.8852 259.189 39.1211 259.054 40.3491C258.854 43.5311 250.294 60.0331 248.965 61.7341C248.162 62.6258 247.185 63.3433 246.094 63.8421C245.003 64.341 243.821 64.6105 242.621 64.6341C241.582 64.6921 232.166 64.5651 228.721 60.6651C227.49 59.2731 225.892 59.5741 225.931 59.3081C226.373 56.3081 226.386 52.2591 226.774 52.4081C232.3 54.5261 236.263 53.9771 238.502 54.1581C240.741 54.3391 240.644 54.5911 241.378 54.0451C241.963 53.6101 240.978 53.2301 242.363 52.8271C243.788 52.4131 242.363 52.0161 242.863 51.2671C243.363 50.5181 249.248 35.8091 251.318 34.8911C252.57 34.3429 253.986 34.2992 255.27 34.7691Z" fill="#00A6B9"/>
<path d="M276.897 167.958C277.069 167.926 277.254 167.88 277.428 167.845C298.263 161.456 322.256 145.545 336.978 112.896C303.994 139.849 265.994 159.717 208.664 163.665C237.33 172.328 262.846 170.609 276.897 167.958Z" fill="#007880"/>
<path d="M350.118 57.5241C350.639 50.7091 350.882 43.5241 350.801 35.9241C312.389 77.3671 212.562 119.013 158.667 119.324C159.823 123.749 161.579 127.995 163.886 131.944C241.527 132.2 311.64 91.5331 350.118 57.5241Z" fill="#00A9BC"/>
<path d="M350.118 57.5242C311.64 91.5332 241.527 132.2 163.886 131.937C167.947 139.132 173.442 145.416 180.031 150.4C251.473 148.7 308.472 115.773 346.095 85.1092C348.098 76.0229 349.442 66.804 350.118 57.5242Z" fill="#008EA4"/>
<path d="M180.031 150.4C184.206 153.552 188.756 156.175 193.576 158.209C198.503 160.3 203.54 162.122 208.664 163.667C265.994 159.719 303.994 139.851 336.978 112.898C340.952 103.968 344.007 94.6574 346.095 85.1091C308.472 115.771 251.473 148.7 180.031 150.4Z" fill="#007880"/>
<path d="M350.894 35.822L350.801 35.922C351.738 123.422 310.583 157.678 277.428 167.845C297.792 163.724 339.583 139.313 348.523 110.335C357.54 81.109 350.894 35.822 350.894 35.822Z" fill="#007880"/>
<path d="M353.375 31.8801C353.323 38.7941 353.212 45.7141 352.636 52.6181C352.436 56.0741 352 59.5181 351.652 62.9621L350.943 68.1131C350.724 69.8331 350.431 71.5421 350.12 73.2501C349.569 76.6751 348.813 80.0661 348.083 83.4601C347.242 86.8321 346.422 90.2081 345.383 93.5311C343.395 100.209 340.917 106.731 337.968 113.044C332.098 125.783 323.811 137.262 313.568 146.844C310.981 149.204 308.269 151.423 305.442 153.49C302.629 155.576 299.681 157.472 296.617 159.166C293.558 160.858 290.389 162.343 287.131 163.61C285.513 164.261 283.861 164.825 282.183 165.298C280.449 165.758 278.647 165.902 276.862 165.722C279.926 164.044 283.062 162.771 286.119 161.289C289.151 159.782 292.102 158.117 294.96 156.301C300.648 152.697 305.964 148.538 310.83 143.885C320.546 134.553 328.372 123.436 333.88 111.142C336.664 105.005 338.99 98.671 340.84 92.1911C341.81 88.9611 342.569 85.6691 343.352 82.3911C344.024 79.0801 344.724 75.7771 345.223 72.4311C347.326 59.0356 348.33 45.4904 348.223 31.9311L353.375 31.8801Z" fill="#009EB1"/>
<path d="M179.406 150L209.525 150.082C216.451 150.026 223.372 150.503 230.225 151.508L246.865 153.948C261.105 156.037 275.588 155.837 289.765 153.355L316.345 149.24C316.345 149.24 282.286 174.886 244.452 170.478C209.076 166.36 188.345 157.862 179.406 150Z" fill="#008EA4"/>
<path d="M226.549 52.209L229.285 53.059L228.674 60.785L225.592 59.615L226.549 52.209Z" fill="#00BDC8"/>
<path d="M237.526 26.6799C238.585 28.3419 239.387 30.0799 242.136 30.9179C245.929 32.0709 250.427 30.0299 250.427 30.0299L251.127 30.7439C249.848 31.5822 248.414 32.1562 246.909 32.4322C245.405 32.7082 243.861 32.6806 242.367 32.3509C240.917 32.0847 239.57 31.4232 238.472 30.4394C237.375 29.4557 236.571 28.1879 236.148 26.7759L237.526 26.6799Z" fill="#00A6B9"/>
<path d="M234.542 77.823L213.546 102.868L215.115 108.997" stroke="#E67A11" stroke-width="0.363" stroke-miterlimit="10"/>
<path d="M234.384 91.438L238.015 102.029" stroke="#CF6C13" stroke-width="0.363" stroke-miterlimit="10"/>
<path d="M223.436 77.4761L222.94 79.2231L244.92 78.2121L245.377 76.4321L223.436 77.4761Z" fill="#00818E"/>
<path d="M240.587 25.033L246.385 24.624L240.598 27.587L240.587 25.033Z" fill="#984E2F"/>
<path d="M245.568 23.027C244.362 23.673 243.674 23.954 243.674 23.954L244.101 22.406L245.568 23.027Z" fill="#38251F"/>
<path d="M237.037 5.17212C236.629 5.68219 236.329 6.27006 236.156 6.89984C235.983 7.52962 235.939 8.1881 236.029 8.83512L237.871 6.83512L237.037 5.17212Z" fill="#38251F"/>
<path d="M240.247 25.0059C236.556 24.8889 235.404 25.2729 234.504 23.8739C233.19 21.8319 234.532 19.7239 233.404 19.3109C232.769 19.0789 231.653 18.8229 231.852 17.8109C232.312 15.4729 234.903 14.3689 234.689 12.8279C234.412 10.8359 236.481 5.70594 240.367 4.56094C245.757 2.97294 252.006 4.53194 253.859 7.76094C254.929 9.83252 255.335 12.1833 255.023 14.4938C254.711 16.8044 253.695 18.9629 252.113 20.6759C249.196 24.0229 249.724 28.8289 249.922 30.9369C248.723 32.1104 247.177 32.8637 245.514 33.0839C243.81 33.2605 242.088 32.9982 240.514 32.3219L240.247 25.0059Z" fill="#AB5A34"/>
<path d="M236.735 7.18604C237.935 8.67404 242.422 10.4 244.256 10.375C246.09 10.35 244.344 13.43 245.156 13.983C248.256 16.112 245.505 18.822 245.505 18.822C245.63 21.122 248.335 22.922 250.605 23.595C252.875 24.268 260.893 15.262 256.847 8.93304C250.647 -0.76696 242.973 2.33304 239.985 3.42704C235.297 5.13704 236.735 7.18604 236.735 7.18604Z" fill="#38251F"/>
<path d="M236.968 13.3451L236.668 13.0691C236.535 13.1173 236.415 13.1945 236.316 13.295C236.217 13.3955 236.142 13.5168 236.096 13.6501C236.051 13.7859 236.042 13.9312 236.07 14.0715C236.098 14.2119 236.163 14.3424 236.257 14.4501C236.353 14.5527 236.478 14.6231 236.615 14.6514C236.753 14.6798 236.896 14.6646 237.024 14.6081C237.162 14.5359 237.276 14.426 237.354 14.2911C237.448 14.1481 237.5 13.982 237.505 13.811C237.51 13.6401 237.467 13.4712 237.382 13.3231C237.336 13.2536 237.276 13.1946 237.206 13.1497C237.136 13.1049 237.058 13.0752 236.976 13.0627C236.893 13.0502 236.809 13.055 236.729 13.077C236.649 13.0989 236.574 13.1374 236.51 13.1901C236.48 13.1551 236.454 13.1241 236.968 13.3451Z" fill="#813F24"/>
<path d="M238.334 14.6741C238.267 14.6871 238.197 14.6791 238.134 14.6511C237.758 14.4886 237.365 14.3688 236.963 14.2941C236.876 14.278 236.8 14.2282 236.75 14.1556C236.7 14.0831 236.681 13.9937 236.697 13.9071C236.713 13.8205 236.763 13.7438 236.835 13.6939C236.908 13.644 236.997 13.625 237.084 13.6411C237.537 13.7238 237.978 13.858 238.4 14.0411C238.464 14.0697 238.518 14.1181 238.553 14.1792C238.588 14.2404 238.603 14.3111 238.595 14.3812C238.587 14.4512 238.557 14.517 238.51 14.5689C238.462 14.6209 238.399 14.6563 238.33 14.6701L238.334 14.6741Z" fill="#813F24"/>
<path d="M239.821 11.866C239.743 11.881 239.662 11.8679 239.593 11.829C238.562 11.3757 237.42 11.2366 236.31 11.429C236.269 11.444 236.226 11.4507 236.183 11.4488C236.139 11.4468 236.097 11.4362 236.057 11.4176C236.018 11.3989 235.983 11.3726 235.954 11.3403C235.925 11.3079 235.903 11.2701 235.889 11.229C235.86 11.1465 235.864 11.0558 235.902 10.9767C235.939 10.8976 236.007 10.8366 236.089 10.807C237.38 10.5376 238.724 10.6941 239.919 11.253C239.978 11.2863 240.025 11.3369 240.054 11.398C240.084 11.459 240.094 11.5275 240.083 11.5944C240.072 11.6612 240.041 11.723 239.994 11.7716C239.946 11.8202 239.885 11.8531 239.819 11.866H239.821Z" fill="#813F24"/>
<path d="M234.77 19.265H234.759C234.437 19.2884 234.118 19.195 233.859 19.002C233.69 18.902 233.585 18.841 233.505 18.869C233.483 18.879 233.459 18.8843 233.435 18.8846C233.411 18.8849 233.387 18.8803 233.365 18.8709C233.343 18.8615 233.323 18.8475 233.306 18.83C233.29 18.8125 233.277 18.7917 233.269 18.769C233.26 18.747 233.255 18.7233 233.255 18.6994C233.255 18.6756 233.26 18.6519 233.269 18.6299C233.279 18.6079 233.292 18.588 233.309 18.5714C233.326 18.5547 233.347 18.5417 233.369 18.533C233.487 18.5007 233.61 18.4983 233.729 18.5259C233.848 18.5534 233.958 18.6102 234.049 18.691C234.239 18.8374 234.474 18.9121 234.713 18.902C234.76 18.8966 234.806 18.9093 234.844 18.9376C234.881 18.9658 234.906 19.0074 234.914 19.0537C234.921 19.1 234.911 19.1474 234.884 19.1861C234.857 19.2247 234.817 19.2515 234.771 19.261L234.77 19.265Z" fill="#813F24"/>
<path d="M241.392 2.97095C237.257 4.27095 237.043 4.43395 234.575 3.97095C234.449 4.68203 234.604 5.41415 235.007 6.01348C235.41 6.61282 236.029 7.03271 236.735 7.18495L241.054 5.24995L241.392 2.97095Z" fill="#38251F"/>
<path d="M242.522 2.66816C239.329 3.53716 238.242 3.01116 237.052 2.58716C237.033 3.03322 237.161 3.47318 237.418 3.83853C237.675 4.20389 238.045 4.47412 238.471 4.60716L242.531 3.97916L242.522 2.66816Z" fill="#38251F"/>
<path d="M243.48 10.3141C244.38 10.5071 243.558 13.8971 242.28 14.5141C242.871 14.6738 243.491 14.6862 244.088 14.5502C244.684 14.4142 245.238 14.134 245.701 13.7341L246.437 11.6221L245.537 9.13208L243.48 10.3141Z" fill="#38251F"/>
<path d="M244.747 14.531C244.915 14.2992 245.148 14.1224 245.417 14.0229C245.685 13.9234 245.977 13.9057 246.256 13.972C246.536 14.0459 246.797 14.1783 247.023 14.3605C247.248 14.5427 247.432 14.7705 247.563 15.029C247.791 15.4675 247.887 15.9629 247.838 16.4548C247.79 16.9468 247.6 17.4141 247.291 17.8C246.968 18.1682 246.544 18.434 246.071 18.5647C245.599 18.6955 245.099 18.6855 244.632 18.536" fill="#AB5A34"/>
<path d="M245.918 18.787C245.471 18.8762 245.009 18.8494 244.575 18.709C244.552 18.7015 244.531 18.6896 244.513 18.674C244.495 18.6584 244.48 18.6394 244.469 18.618C244.459 18.5966 244.452 18.5734 244.45 18.5495C244.449 18.5257 244.452 18.5017 244.459 18.479C244.466 18.4563 244.478 18.4352 244.494 18.4171C244.51 18.399 244.529 18.3841 244.55 18.3733C244.571 18.3626 244.595 18.3561 244.618 18.3543C244.642 18.3525 244.666 18.3555 244.689 18.363C245.121 18.5027 245.584 18.5128 246.022 18.3922C246.459 18.2715 246.852 18.0253 247.151 17.684C247.435 17.3249 247.61 16.8917 247.655 16.4361C247.7 15.9805 247.613 15.5216 247.404 15.114C247.285 14.8787 247.118 14.6711 246.913 14.5048C246.709 14.3386 246.472 14.2173 246.217 14.149C245.974 14.0903 245.719 14.1048 245.484 14.1908C245.25 14.2767 245.046 14.4302 244.898 14.632C244.886 14.654 244.87 14.6734 244.85 14.6887C244.83 14.7041 244.807 14.7151 244.782 14.7211C244.758 14.7272 244.733 14.728 244.708 14.7237C244.683 14.7194 244.66 14.71 244.639 14.696C244.618 14.6821 244.6 14.6639 244.586 14.6427C244.573 14.6216 244.564 14.5978 244.56 14.5729C244.556 14.5481 244.558 14.5227 244.564 14.4985C244.571 14.4742 244.582 14.4516 244.598 14.432C244.786 14.1689 245.048 13.968 245.351 13.8549C245.654 13.7417 245.984 13.7216 246.298 13.797C246.603 13.8763 246.888 14.0194 247.134 14.217C247.38 14.4145 247.582 14.662 247.725 14.943C247.971 15.4136 248.075 15.9458 248.022 16.4744C247.97 17.0029 247.765 17.5047 247.431 17.918C247.041 18.3717 246.507 18.6783 245.918 18.787Z" fill="#813F24"/>
<path d="M244.629 17.237C244.585 17.2449 244.539 17.2361 244.501 17.2123C244.463 17.1885 244.434 17.1514 244.422 17.1081C244.41 17.0648 244.414 17.0184 244.433 16.9779C244.453 16.9375 244.487 16.9058 244.529 16.889C244.624 16.8515 244.708 16.792 244.775 16.7155C244.842 16.639 244.89 16.5476 244.915 16.449C244.939 16.3469 244.938 16.2407 244.914 16.1387C244.89 16.0367 244.843 15.9417 244.776 15.861L244.691 15.761L244.76 15.65C244.922 15.3821 245.164 15.1721 245.452 15.05C245.602 14.9888 245.762 14.9589 245.924 14.9622C246.086 14.9654 246.245 15.0018 246.392 15.069C246.639 15.1951 246.831 15.4069 246.932 15.6647C247.034 15.9224 247.038 16.2084 246.944 16.469C246.935 16.4911 246.922 16.5113 246.905 16.5284C246.889 16.5454 246.869 16.559 246.847 16.5683C246.825 16.5776 246.801 16.5825 246.778 16.5826C246.754 16.5827 246.73 16.5781 246.708 16.569C246.664 16.5503 246.629 16.5153 246.61 16.4712C246.592 16.4272 246.591 16.3776 246.608 16.333C246.667 16.1582 246.662 15.9683 246.594 15.7968C246.527 15.6253 246.401 15.483 246.239 15.395C246.137 15.3482 246.027 15.3232 245.915 15.3217C245.804 15.3201 245.693 15.342 245.59 15.386C245.41 15.4614 245.255 15.5841 245.139 15.741C245.285 15.9781 245.332 16.2635 245.269 16.535C245.23 16.6911 245.155 16.8356 245.048 16.9563C244.942 17.0769 244.808 17.1701 244.658 17.228L244.629 17.237Z" fill="#813F24"/>
<path d="M249.161 27.854C248.992 28.613 248.861 29.354 250.547 30.789L246.547 32.23L244.234 29.488L249.161 27.854Z" fill="#AB5A34"/>
<path d="M158.667 119.317C210.418 108.409 236.141 101.557 246.552 100.944L179.796 126.054L158.667 119.317Z" fill="#007880"/>
<path d="M238.919 85.6211L249.675 117.857L238.694 121.655L228.113 92.4591L238.919 85.6211Z" fill="#E67A11"/>
<path d="M208.781 107.87C207.403 102.718 207.857 102.77 209.881 99.104C215.429 89.05 224.402 77.544 224.195 77.429C224.195 77.429 223.301 75.881 223.835 75.401C224.369 74.921 228.107 73.85 231.506 74.411C234.905 74.972 243.565 73.272 244.517 74.466C245.469 75.66 244.517 82.846 241.947 85.821C240.247 87.789 221.547 99.405 220.259 102.13C218.971 104.855 221.23 107.768 221.23 107.768L209.5 111.083L208.782 107.87" fill="#FF8B07"/>
<path d="M245.377 76.432C248.197 69.418 258.549 40.84 258.677 38.432C258.805 36.024 252.167 31.951 250.418 30.208C250.418 30.208 245.655 32.217 242.631 31.308C241.517 30.9628 240.486 30.3893 239.606 29.624C238.725 28.8587 238.014 27.9184 237.517 26.863C237.517 26.863 233.133 26.575 230.844 28.215C227.875 30.343 225.266 42.402 225.28 49.323C225.294 56.244 219.703 72.655 223.437 77.478C223.706 77.825 245.377 76.432 245.377 76.432Z" fill="#008EA4"/>
<path d="M255.27 34.7691C256.461 35.0981 257.495 35.8403 258.189 36.8628C258.882 37.8852 259.189 39.1211 259.054 40.3491C258.854 43.5311 250.294 60.0331 248.965 61.7341C248.162 62.6258 247.185 63.3433 246.094 63.8421C245.003 64.341 243.821 64.6105 242.621 64.6341C241.582 64.6921 232.166 64.5651 228.721 60.6651C227.49 59.2731 225.892 59.5741 225.931 59.3081C226.373 56.3081 226.386 52.2591 226.774 52.4081C232.3 54.5261 236.263 53.9771 238.502 54.1581C240.741 54.3391 240.644 54.5911 241.378 54.0451C241.963 53.6101 240.978 53.2301 242.363 52.8271C243.788 52.4131 242.363 52.0161 242.863 51.2671C243.363 50.5181 249.248 35.8091 251.318 34.8911C252.57 34.3429 253.986 34.2992 255.27 34.7691Z" fill="#00A6B9"/>
<path d="M276.897 167.958C277.069 167.926 277.254 167.88 277.428 167.845C298.263 161.456 322.256 145.545 336.978 112.896C303.994 139.849 265.994 159.717 208.664 163.665C237.33 172.328 262.846 170.609 276.897 167.958Z" fill="#007880"/>
<path d="M350.118 57.5241C350.639 50.7091 350.882 43.5241 350.801 35.9241C312.389 77.3671 212.562 119.013 158.667 119.324C159.823 123.749 161.579 127.995 163.886 131.944C241.527 132.2 311.64 91.5331 350.118 57.5241Z" fill="#00A9BC"/>
<path d="M350.118 57.5242C311.64 91.5332 241.527 132.2 163.886 131.937C167.947 139.132 173.442 145.416 180.031 150.4C251.473 148.7 308.472 115.773 346.095 85.1092C348.098 76.0229 349.442 66.804 350.118 57.5242Z" fill="#008EA4"/>
<path d="M180.031 150.4C184.206 153.552 188.756 156.175 193.576 158.209C198.503 160.3 203.54 162.122 208.664 163.667C265.994 159.719 303.994 139.851 336.978 112.898C340.952 103.968 344.007 94.6574 346.095 85.1091C308.472 115.771 251.473 148.7 180.031 150.4Z" fill="#007880"/>
<path d="M350.894 35.822L350.801 35.922C351.738 123.422 310.583 157.678 277.428 167.845C297.792 163.724 339.583 139.313 348.523 110.335C357.54 81.109 350.894 35.822 350.894 35.822Z" fill="#007880"/>
<path d="M353.375 31.8801L353.11 42.2521L352.976 47.4371C352.921 49.1641 352.698 50.8871 352.567 52.6131L351.647 62.9591C351.154 66.3901 350.581 69.8121 350.047 73.2381C347.619 86.8791 343.882 100.39 337.947 113.03C332.09 125.769 323.788 137.235 313.514 146.776C312.203 147.935 310.967 149.181 309.593 150.264L305.418 153.449C304.718 153.966 304.046 154.537 303.31 155.01L301.095 156.42C299.614 157.352 298.14 158.296 296.618 159.154C293.551 160.83 290.374 162.297 287.11 163.546C285.511 164.242 283.863 164.818 282.178 165.268C280.441 165.69 278.65 165.842 276.867 165.718C279.889 163.918 283.087 162.829 286.098 161.226C289.136 159.736 292.095 158.088 294.961 156.289C300.524 152.477 306.091 148.656 310.778 143.817C320.525 134.523 328.367 123.418 333.864 111.123C339.455 98.8681 342.94 85.7231 345.164 72.4061L346.615 62.3701L347.488 52.2481C347.612 50.5591 347.828 48.8771 347.877 47.1831L347.994 42.0961L348.23 31.9211L353.375 31.8801Z" fill="#009EB1"/>
<path d="M179.406 150L209.525 150.082C216.451 150.026 223.372 150.503 230.225 151.508L246.865 153.948C261.105 156.037 275.588 155.837 289.765 153.355L316.345 149.24C316.345 149.24 282.286 174.886 244.452 170.478C209.076 166.36 188.345 157.862 179.406 150Z" fill="#008EA4"/>
<path d="M237.526 26.6799C238.585 28.3419 239.387 30.0799 242.136 30.9179C245.929 32.0709 250.427 30.0299 250.427 30.0299L251.127 30.7439C249.848 31.5822 248.414 32.1562 246.909 32.4322C245.405 32.7082 243.861 32.6806 242.367 32.3509C240.917 32.0847 239.57 31.4232 238.472 30.4394C237.375 29.4557 236.571 28.1879 236.148 26.7759L237.526 26.6799Z" fill="#00A6B9"/>
<path d="M214.787 108.524L213.347 102.823L213.407 102.751L234.404 77.7061L234.681 77.9391L213.745 102.913L215.138 108.435L214.787 108.524Z" fill="#E67A11"/>
<path d="M234.557 91.3783L234.213 91.4963L237.843 102.087L238.188 101.969L234.557 91.3783Z" fill="#CF6C13"/>
<path d="M223.436 77.4761L222.94 79.2231L244.92 78.2121L245.377 76.4321L223.436 77.4761Z" fill="#00818E"/>
<path d="M240.587 25.033L246.385 24.624L240.598 27.587L240.587 25.033Z" fill="#984E2F"/>
<path d="M62.036 311.755L58.47 311.647L58.7 303.989L34.048 303.247L33.864 309.332L31.084 309.248C30.892 307.879 30.5911 306.527 30.184 305.205C29.8456 304.123 29.393 303.08 28.834 302.093L28.934 298.793L58.834 299.693L59.043 292.769L62.61 292.877L62.036 311.755Z" fill="#270041"/>
<path d="M48.254 306.013L51.272 307.913L47.184 314.393L68.044 327.553L71.292 322.404L73.645 323.888C73.1156 325.166 72.6885 326.484 72.368 327.829C72.1107 328.933 71.971 330.062 71.951 331.196L70.183 334L44.883 318.041L41.183 323.899L38.165 321.999L48.254 306.013Z" fill="#270041"/>
<path d="M72.943 303.9L70.754 301.083L76.804 296.383L61.67 276.907L56.863 280.642L55.157 278.442C56.0895 277.421 56.9392 276.327 57.698 275.171C58.3166 274.221 58.8325 273.207 59.237 272.148L61.847 270.119L80.201 293.738L85.671 289.487L87.86 292.305L72.943 303.9Z" fill="#270041"/>
<path d="M42.574 250.668L42.638 247.1L50.298 247.237L50.738 222.577L44.651 222.469L44.701 219.688C46.0679 219.479 47.4158 219.16 48.732 218.736C49.8116 218.385 50.8508 217.919 51.832 217.348L55.137 217.407L54.605 247.313L61.53 247.437L61.467 251.005L42.574 250.668Z" fill="#270041"/>
<path d="M312.486 194.8L310.681 197.631L304.603 193.757L292.133 213.323L296.962 216.401L295.555 218.607C294.356 218.103 293.119 217.696 291.855 217.389C290.817 217.141 289.756 217.005 288.69 216.982L286.067 215.31L301.191 191.581L295.691 188.081L297.491 185.25L312.486 194.8Z" fill="#270041"/>
<path d="M160.286 292.669L157.63 294.722L153.223 289.022L134.863 303.2L138.363 307.732L136.293 309.332C135.335 308.451 134.308 307.649 133.222 306.932C132.329 306.348 131.377 305.86 130.382 305.476L128.482 303.015L150.748 285.815L146.764 280.659L149.42 278.606L160.286 292.669Z" fill="#270041"/>
<path d="M117.007 253.917L116.581 257.247L109.431 256.331L106.484 279.345L112.164 280.073L111.832 282.673C110.532 282.729 109.239 282.887 107.964 283.148C106.92 283.366 105.902 283.695 104.927 284.128L101.842 283.733L105.416 255.822L98.953 254.994L99.379 251.665L117.007 253.917Z" fill="#270041"/>
<path d="M110.806 329.225L110.655 325.66L118.31 325.335L117.266 300.693L111.184 300.951L111.066 298.172C112.418 297.881 113.745 297.482 115.034 296.98C116.089 296.564 117.096 296.037 118.04 295.408L121.34 295.268L122.606 325.153L129.527 324.86L129.678 328.425L110.806 329.225Z" fill="#270041"/>
<path d="M134.585 282.423C132.67 282.574 130.75 282.202 129.03 281.349C127.309 280.495 125.852 279.19 124.814 277.574C122.353 274.107 120.93 269.012 120.547 262.288C120.164 255.564 120.999 250.382 123.054 246.742C123.955 245.076 125.267 243.669 126.865 242.653C128.463 241.638 130.295 241.048 132.185 240.94C134.075 240.832 135.962 241.21 137.666 242.037C139.369 242.864 140.833 244.113 141.917 245.665C144.372 249.046 145.791 254.099 146.176 260.826C146.561 267.553 145.727 272.776 143.676 276.497C142.838 278.214 141.55 279.672 139.949 280.716C138.348 281.759 136.494 282.349 134.585 282.423ZM134.349 278.287C135.48 278.235 136.566 277.832 137.458 277.135C138.466 276.291 139.246 275.21 139.73 273.988C140.416 272.296 140.854 270.513 141.03 268.695C141.294 266.176 141.338 263.639 141.163 261.112C141.051 258.592 140.719 256.086 140.17 253.624C139.794 251.867 139.157 250.176 138.281 248.608C137.657 247.479 136.76 246.525 135.671 245.833C134.699 245.261 133.577 244.996 132.452 245.074C131.316 245.128 130.223 245.518 129.31 246.196C128.291 246.999 127.496 248.051 127.001 249.251C126.308 250.909 125.868 252.662 125.694 254.451C125.429 256.96 125.385 259.487 125.56 262.003C125.893 267.853 126.856 272.063 128.449 274.632C130.042 277.201 132.008 278.42 134.349 278.287Z" fill="#270041"/>
<path d="M89.833 343.3C87.9167 343.43 86.0009 343.038 84.2898 342.165C82.5787 341.293 81.1362 339.972 80.116 338.345C77.692 334.854 76.3253 329.743 76.016 323.014C75.7067 316.285 76.599 311.112 78.693 307.495C79.6119 305.84 80.9391 304.447 82.5482 303.449C84.1574 302.451 85.995 301.881 87.8865 301.794C89.7779 301.706 91.6603 302.104 93.3545 302.95C95.0487 303.795 96.4985 305.06 97.566 306.624C99.9853 310.032 101.35 315.101 101.661 321.83C101.972 328.559 101.081 333.774 98.99 337.474C98.1331 339.182 96.8289 340.626 95.2165 341.652C93.604 342.678 91.7435 343.248 89.833 343.3ZM89.642 339.162C90.7732 339.122 91.864 338.732 92.763 338.044C93.7803 337.212 94.5733 336.138 95.07 334.921C95.7747 333.236 96.2321 331.459 96.428 329.643C96.7194 327.127 96.7917 324.591 96.644 322.062C96.5596 319.54 96.2545 317.031 95.732 314.562C95.3754 312.801 94.7572 311.104 93.898 309.526C93.286 308.391 92.3988 307.429 91.318 306.726C90.3527 306.144 89.2336 305.867 88.108 305.932C86.9717 305.974 85.8735 306.353 84.953 307.02C83.9249 307.812 83.1183 308.856 82.611 310.05C81.9006 311.7 81.4412 313.448 81.248 315.234C80.9559 317.74 80.8832 320.266 81.031 322.784C81.3017 328.637 82.219 332.857 83.783 335.444C85.347 338.031 87.3 339.27 89.642 339.16V339.162Z" fill="#270041"/>
<path d="M34.818 290.984C32.9017 291.114 30.9859 290.722 29.2748 289.849C27.5637 288.977 26.1212 287.656 25.101 286.029C22.6777 282.539 21.311 277.429 21.001 270.698C20.691 263.967 21.5837 258.795 23.679 255.18C24.5671 253.492 25.8912 252.073 27.5136 251.071C29.136 250.069 30.9973 249.519 32.904 249.48C34.7973 249.35 36.6909 249.73 38.3877 250.58C40.0844 251.43 41.5224 252.719 42.552 254.313C44.9707 257.72 46.3357 262.789 46.647 269.518C46.9583 276.247 46.068 281.462 43.976 285.162C43.1184 286.87 41.8138 288.313 40.2012 289.338C38.5886 290.363 36.7282 290.932 34.818 290.984ZM34.627 286.846C35.7585 286.806 36.8495 286.416 37.749 285.728C38.7656 284.895 39.5579 283.822 40.054 282.605C40.7586 280.921 41.216 279.143 41.412 277.328C41.7034 274.812 41.7757 272.275 41.628 269.746C41.5436 267.224 41.2385 264.715 40.716 262.246C40.3594 260.485 39.7412 258.788 38.882 257.21C38.27 256.075 37.3828 255.113 36.302 254.41C35.3365 253.828 34.2176 253.551 33.092 253.616C31.9558 253.658 30.8577 254.037 29.937 254.704C28.9092 255.496 28.1026 256.54 27.595 257.734C26.8847 259.384 26.4253 261.132 26.232 262.918C25.9394 265.424 25.8667 267.95 26.015 270.468C26.285 276.321 27.2023 280.541 28.767 283.128C30.3317 285.715 32.285 286.955 34.627 286.846Z" fill="#270041"/>
<path d="M84.71 276.752C82.8369 277.173 80.8847 277.078 79.0612 276.478C77.2376 275.878 75.6109 274.794 74.354 273.343C71.4247 270.265 69.2914 265.425 67.954 258.821C66.6167 252.218 66.7067 246.969 68.224 243.076C68.8786 241.299 69.9767 239.72 71.4141 238.487C72.8514 237.255 74.5802 236.41 76.4359 236.034C78.2917 235.658 80.2128 235.763 82.0165 236.339C83.8202 236.915 85.4466 237.943 86.741 239.325C89.653 242.325 91.778 247.125 93.116 253.725C94.454 260.325 94.3724 265.614 92.871 269.593C92.2854 271.413 91.2171 273.04 89.7799 274.301C88.3428 275.561 86.5906 276.409 84.71 276.752ZM83.888 272.692C85 272.48 86.0182 271.927 86.801 271.109C87.6784 270.131 88.2972 268.949 88.601 267.67C89.0393 265.898 89.2192 264.071 89.135 262.247C89.0378 259.716 88.7206 257.198 88.187 254.721C87.7178 252.243 87.0321 249.81 86.138 247.451C85.5162 245.764 84.6452 244.18 83.554 242.751C82.7759 241.723 81.7519 240.906 80.576 240.376C79.5327 239.948 78.3844 239.846 77.282 240.083C76.1656 240.298 75.1383 240.841 74.331 241.641C73.4365 242.583 72.7997 243.74 72.482 245C72.0328 246.74 71.8464 248.537 71.929 250.331C72.0239 252.854 72.3391 255.363 72.871 257.831C74.0344 263.573 75.587 267.603 77.529 269.92C79.471 272.238 81.5907 273.161 83.888 272.692Z" fill="#270041"/>
<path d="M291.998 304.644C290.342 303.92 288.914 302.76 287.866 301.288C286.817 299.817 286.187 298.088 286.043 296.287C285.538 292.321 286.618 287.463 289.283 281.713C291.948 275.963 294.94 272.035 298.26 269.928C299.746 268.946 301.459 268.36 303.235 268.226C305.012 268.092 306.793 268.415 308.409 269.165C310.025 269.914 311.423 271.064 312.469 272.506C313.515 273.948 314.175 275.633 314.386 277.402C314.924 281.296 313.86 286.118 311.195 291.869C308.53 297.62 305.521 301.584 302.169 303.761C300.712 304.814 298.996 305.452 297.205 305.607C295.414 305.763 293.615 305.43 291.998 304.644ZM293.636 301.108C294.598 301.566 295.678 301.714 296.727 301.531C297.937 301.28 299.065 300.73 300.008 299.931C301.328 298.832 302.483 297.548 303.435 296.118C304.771 294.145 305.933 292.059 306.909 289.885C307.935 287.745 308.771 285.519 309.409 283.233C309.876 281.608 310.098 279.923 310.067 278.233C310.05 277.02 309.729 275.83 309.132 274.774C308.58 273.868 307.766 273.151 306.799 272.716C305.833 272.258 304.752 272.096 303.694 272.253C302.492 272.467 301.365 272.988 300.423 273.764C299.113 274.832 297.97 276.09 297.033 277.497C295.7 279.461 294.542 281.537 293.572 283.703C291.254 288.703 290.185 292.622 290.366 295.461C290.547 298.3 291.637 300.182 293.636 301.108Z" fill="#19254F"/>
<path d="M43.236 193.833C41.5804 193.109 40.1523 191.949 39.1036 190.477C38.055 189.006 37.4251 187.277 37.281 185.476C36.7764 181.511 37.8563 176.654 40.521 170.903C43.1857 165.152 46.178 161.224 49.498 159.118C50.984 158.135 52.6967 157.55 54.4731 157.416C56.2495 157.282 58.0306 157.605 59.6469 158.354C61.2632 159.104 62.6609 160.254 63.7071 161.696C64.7533 163.137 65.4132 164.823 65.624 166.592C66.162 170.486 65.0984 175.308 62.433 181.058C59.7677 186.808 56.759 190.772 53.407 192.95C51.9499 194.003 50.2346 194.641 48.4435 194.797C46.6525 194.952 44.8528 194.619 43.236 193.833ZM44.874 190.3C45.8353 190.759 46.9157 190.907 47.965 190.724C49.175 190.473 50.3029 189.923 51.246 189.124C52.5663 188.025 53.7206 186.74 54.673 185.31C56.009 183.337 57.1714 181.252 58.147 179.078C59.1727 176.938 60.0093 174.712 60.647 172.426C61.114 170.801 61.3358 169.116 61.305 167.426C61.2884 166.213 60.9669 165.023 60.37 163.967C59.8177 163.061 59.0045 162.344 58.037 161.909C57.0707 161.451 55.99 161.289 54.932 161.446C53.7301 161.661 52.6036 162.181 51.661 162.957C50.3507 164.025 49.208 165.283 48.271 166.69C46.9385 168.653 45.7804 170.73 44.81 172.895C42.492 177.895 41.4253 181.815 41.61 184.654C41.7947 187.493 42.8827 189.375 44.874 190.3Z" fill="#270041"/>
<path d="M218.413 55.6469C203.941 83.3389 202.34 87.374 191.687 114.067C172.094 163.167 185.08 285.373 145.457 326.325C115.477 357.311 64.394 353.618 35.14 321.945C28.184 314.414 22.7795 305.586 19.2351 295.966C15.6906 286.347 14.0757 276.123 14.4824 265.879C14.8891 255.635 17.3095 245.571 21.6055 236.263C25.9015 226.954 31.9888 218.583 39.52 211.627C48.35 203.471 90.62 170.66 131.911 133.109C169.646 98.7939 199.911 69.4849 218.983 52.5229" stroke="#5F4272" stroke-width="1.735" stroke-miterlimit="10" stroke-linecap="round"/>
<path d="M35.14 321.945C24.93 274.615 57.553 238.689 79.985 212.758C102.2 187.077 220.238 51.9301 218.828 53.8411" stroke="#5F4272" stroke-width="1.735" stroke-miterlimit="10" stroke-linecap="round"/>
<path d="M61.028 340.6C130.128 336.8 173.264 108.362 218.207 56.635" stroke="#5F4272" stroke-width="1.735" stroke-miterlimit="10" stroke-linecap="round"/>
<path d="M48.754 333.4C71.654 281.783 196.854 82.1552 221.699 50.8162" stroke="#5F4272" stroke-width="1.735" stroke-miterlimit="10" stroke-linecap="round"/>
<path d="M134.394 335.852C98.984 338.124 26.515 299.636 15.938 254.91" stroke="#5F4272" stroke-width="1.735" stroke-miterlimit="10" stroke-linecap="round"/>
<path d="M154.461 314.75C122.103 313.874 40.776 255.866 31.596 221.042" stroke="#5F4272" stroke-width="1.735" stroke-miterlimit="10" stroke-linecap="round"/>
<path d="M163.254 293.855C127.981 255.789 92.19 229 49.054 203.242" stroke="#5F4272" stroke-width="1.833" stroke-miterlimit="10" stroke-linecap="round"/>
<path d="M71.709 343.713C126.533 339.989 133.773 316.198 151.979 253.927C170.185 191.656 182.067 128.341 191.687 114.067C201.307 99.7931 218.828 53.8411 218.828 53.8411" stroke="#5F4272" stroke-width="1.833" stroke-miterlimit="10" stroke-linecap="round"/>
<path d="M229.128 54.3729C225.997 52.6639 224.308 51.9149 223.358 50.5159C222.486 49.2846 221.225 48.3835 219.777 47.9584C218.33 47.5334 216.781 47.6093 215.382 48.1739C211.134 49.6599 216.251 57.5339 217.804 58.1329C219.357 58.7319 221.584 56.6659 222.52 56.9019C224.484 57.8511 226.391 58.9136 228.231 60.0839L229.128 54.3729Z" fill="#AB5A34"/>
<path d="M226.549 52.209L229.285 53.059L228.674 60.785L225.592 59.615L226.549 52.209Z" fill="#00BDC8"/>
<path d="M171.147 262.835C157.183 233.044 91.259 197.966 67.986 188.346" stroke="#5F4272" stroke-width="1.833" stroke-miterlimit="10" stroke-linecap="round"/>
<path d="M175.421 228.047C154.94 201.047 114.999 179.037 86.45 172.985" stroke="#5F4272" stroke-width="1.833" stroke-miterlimit="10" stroke-linecap="round"/>
<path d="M178.864 195.278C168.314 182.244 121.671 156.538 107.086 155.452" stroke="#5F4272" stroke-width="1.833" stroke-miterlimit="10" stroke-linecap="round"/>
<path d="M180.883 169.869L170.149 159.228L127.877 136.988" stroke="#5F4272" stroke-width="1.833" stroke-miterlimit="10" stroke-linecap="round"/>
<path d="M200.699 70.3191L210.776 71.7611" stroke="#5F4272" stroke-width="1.491" stroke-miterlimit="10" stroke-linecap="round"/>
<path d="M208.309 80.941L193.495 76.28" stroke="#5F4272" stroke-width="1.491" stroke-miterlimit="10" stroke-linecap="round"/>
<path d="M185.69 84.198L202.438 93.172" stroke="#5F4272" stroke-width="1.491" stroke-miterlimit="10" stroke-linecap="round"/>
<path d="M197.742 101.837L176.39 93.0239" stroke="#5F4272" stroke-width="1.491" stroke-miterlimit="10" stroke-linecap="round"/>
<path d="M164.682 103.511L192.162 112.879" stroke="#5F4272" stroke-width="1.491" stroke-miterlimit="10" stroke-linecap="round"/>
<path d="M152.259 114.535L186.788 125.714" stroke="#5F4272" stroke-width="1.491" stroke-miterlimit="10" stroke-linecap="round"/>
<path d="M183.97 144.699L138.118 127.679" stroke="#5F4272" stroke-width="1.833" stroke-miterlimit="10" stroke-linecap="round"/>
<path opacity="0.52" d="M49.585 174.037C69.922 160.292 96.585 159.284 120.578 164.456C144.571 169.628 166.954 180.323 190.065 188.6C213.176 196.877 238.115 202.805 262.176 197.945C275.635 195.226 288.182 189.254 300.576 183.335C267.437 206.549 230.14 230.329 189.898 226.117C155.298 222.494 125.633 198.559 91.243 193.301C69.585 189.99 47.343 194.37 26.823 202.049C33.454 186.515 48.039 175.082 49.585 174.037Z" fill="#92CED9" stroke="#92CED9" stroke-width="0.714" stroke-miterlimit="10"/>
<path opacity="0.52" d="M244.691 274.655C260.308 283.202 279.627 282.123 296.604 276.762C313.581 271.401 329.018 262.162 345.143 254.619C361.268 247.076 378.877 241.105 396.58 242.984C406.48 244.035 415.948 247.498 425.296 250.932C399.796 236.415 371.25 221.771 342.477 227.54C317.738 232.5 297.94 251.794 273.464 257.921C258.049 261.779 241.691 260.121 226.354 255.97C232.201 266.738 243.504 274.005 244.691 274.655Z" fill="#D9EEF2" stroke="#D9EEF2" stroke-width="2.856" stroke-linejoin="round"/>
</g>
<defs>
<clipPath id="clip0">
<rect width="426.67" height="350.469" fill="white" transform="translate(0.0540161)"/>
</clipPath>
</defs>
</svg>
