<svg width="314" height="331" viewBox="0 0 314 331" fill="none" xmlns="http://www.w3.org/2000/svg">
<g clip-path="url(#clip0)">
<path d="M107.836 15.2669C153.268 43.3669 217.83 -33.7521 285.978 21.8419C354.126 77.4359 276.413 134.825 268.044 211.342C259.675 287.859 216.036 342.258 115.01 328.509C28.725 316.766 58.436 216.709 33.11 161.127C8.59999 107.327 -21.89 66.6769 22.947 17.0599C56.664 -20.2501 107.836 15.2669 107.836 15.2669Z" fill="#D5ECF0"/>
<path d="M137.648 108.492L159.692 98.838C159.692 98.838 179.403 93.952 190.592 100.098C207.421 109.339 204.428 136.124 204.973 146.404C205.951 164.811 205.13 192.066 196.726 207.93C187.381 225.571 169.284 244.089 160.244 242.475L145.72 156.6L137.648 108.492Z" fill="#45ACBE"/>
<path d="M158.333 290.653C138.397 295.083 97.369 291.759 84.805 253.928C84.5496 253.162 84.307 252.382 84.077 251.588C84.077 251.588 93.117 268.376 116.362 278.062C129.854 283.77 143.927 287.992 158.333 290.653Z" fill="#71BFCE"/>
<path d="M240.731 186.8C249.763 168.391 260.002 126.392 255.568 104.5C255.568 104.5 264.896 129.018 260.396 149.776C255.896 170.534 240.731 186.8 240.731 186.8Z" fill="#71BFCE"/>
<path d="M99.231 290.824L99.67 288.573L104.503 289.515L107.536 273.957L103.696 273.208L104.038 271.454C104.927 271.474 105.815 271.423 106.696 271.302C107.417 271.2 108.126 271.021 108.81 270.769L110.896 271.176L107.217 290.044L111.586 290.896L111.148 293.147L99.231 290.824Z" fill="#19254F"/>
<path d="M259.569 46.2369L260.008 43.9859L264.841 44.9289L267.874 29.3709L264.034 28.6219L264.377 26.8679C265.265 26.8877 266.154 26.8369 267.034 26.7159C267.755 26.6132 268.464 26.4345 269.148 26.1829L271.234 26.5899L267.555 45.4579L271.925 46.3099L271.486 48.5609L259.569 46.2369Z" fill="#19254F"/>
<path d="M78.112 177.73L79.786 176.163L83.151 179.758L94.724 168.928L92.051 166.071L93.351 164.85C94.0598 165.386 94.8098 165.866 95.594 166.284C96.2389 166.624 96.918 166.894 97.62 167.091L99.071 168.642L85.04 181.777L88.082 185.028L86.408 186.6L78.112 177.73Z" fill="#19254F"/>
<path d="M160.439 72.642L162.113 71.075L165.478 74.675L177.051 63.84L174.378 60.983L175.683 59.762C176.391 60.2991 177.141 60.7786 177.926 61.196C178.571 61.5357 179.249 61.8063 179.951 62.003L181.403 63.555L167.367 76.69L170.409 79.94L168.735 81.507L160.439 72.642Z" fill="#19254F"/>
<path d="M40.4 45.6859L40.789 43.4259L45.642 44.2589L48.325 28.6369L44.469 27.9749L44.769 26.2129C45.6592 26.2127 46.548 26.1415 47.427 25.9999C48.1455 25.8814 48.8494 25.687 49.527 25.4199L51.621 25.7799L48.368 44.7269L52.756 45.4809L52.367 47.7409L40.4 45.6859Z" fill="#19254F"/>
<path d="M45.292 37.4278L43.809 39.1778L40.052 35.9948L29.807 48.0888L32.792 50.6178L31.636 51.9818C30.8705 51.5303 30.0703 51.1404 29.243 50.8158C28.565 50.5531 27.8611 50.363 27.143 50.2488L25.522 48.8748L37.942 34.2068L34.542 31.3298L36.024 29.5798L45.292 37.4278Z" fill="#19254F"/>
<path d="M44.421 53.3309L46.411 52.1909L48.86 56.4629L62.611 48.5789L60.665 45.1849L62.216 44.2959C62.7819 44.9808 63.4015 45.6195 64.069 46.2059C64.6185 46.6847 65.2172 47.104 65.855 47.4569L66.912 49.2999L50.235 58.8609L52.449 62.7229L50.46 63.8639L44.421 53.3309Z" fill="#19254F"/>
<path d="M81.022 38.78L83.286 39.141L82.512 44L98.166 46.5L98.781 42.636L100.546 42.917C100.557 43.8057 100.639 44.6922 100.79 45.568C100.918 46.2856 101.121 46.9878 101.396 47.663L101.062 49.763L82.078 46.734L81.378 51.134L79.113 50.773L81.022 38.78Z" fill="#19254F"/>
<path d="M24.909 75.155L27.191 75.379L26.711 80.279L42.486 81.824L42.868 77.931L44.647 78.105C44.7104 78.9916 44.8441 79.8717 45.047 80.737C45.2172 81.4455 45.4619 82.134 45.777 82.791L45.57 84.905L26.442 83.032L26.007 87.462L23.725 87.238L24.909 75.155Z" fill="#19254F"/>
<path d="M52.56 94.486C52.635 93.2533 53.0431 92.0641 53.7409 91.0451C54.4386 90.0262 55.3998 89.2157 56.522 88.7C58.9473 87.444 62.3176 86.9957 66.633 87.355C70.9483 87.7143 74.1706 88.7123 76.3 90.349C77.2794 91.0714 78.0576 92.0324 78.5607 93.1406C79.0637 94.2488 79.2748 95.4673 79.1739 96.6801C79.0729 97.8929 78.6633 99.0597 77.984 100.069C77.3047 101.079 76.3783 101.898 75.293 102.449C72.9223 103.709 69.579 104.159 65.263 103.8C60.947 103.441 57.6973 102.441 55.514 100.8C54.4972 100.113 53.6856 99.1625 53.1655 98.0507C52.6453 96.939 52.4361 95.7071 52.56 94.486ZM55.213 94.706C55.1451 95.4303 55.3037 96.1578 55.667 96.788C56.1132 97.5055 56.7321 98.0999 57.467 98.517C58.4824 99.1046 59.5773 99.5425 60.718 99.817C62.2976 100.21 63.9082 100.466 65.532 100.581C67.1457 100.736 68.7699 100.749 70.386 100.621C71.5379 100.539 72.671 100.286 73.748 99.869C74.5227 99.5735 75.2106 99.0875 75.748 98.456C76.1991 97.889 76.4682 97.1988 76.52 96.476C76.5868 95.7486 76.4361 95.0177 76.087 94.376C75.6675 93.655 75.0692 93.0544 74.35 92.632C73.3572 92.0416 72.2816 91.6034 71.159 91.332C69.5863 90.938 67.9822 90.6827 66.365 90.569C62.6123 90.2563 59.8456 90.4897 58.065 91.269C56.2843 92.0483 55.3336 93.194 55.213 94.706Z" fill="#19254F"/>
<path d="M17.834 60.5459C17.9232 59.3146 18.3447 58.1306 19.0534 57.1198C19.7622 56.109 20.7318 55.3094 21.859 54.8059C24.2977 53.5772 27.6727 53.1659 31.984 53.5719C36.2953 53.9779 39.507 55.0096 41.619 56.6669C42.5904 57.4 43.3581 58.3695 43.849 59.4831C44.34 60.5967 44.5378 61.8174 44.4238 63.029C44.3097 64.2407 43.8875 65.403 43.1974 66.4054C42.5073 67.4078 41.5722 68.217 40.481 68.7559C38.0937 69.9899 34.7457 70.4046 30.437 69.9999C26.1283 69.5952 22.8897 68.5619 20.721 66.8999C19.71 66.201 18.9075 65.241 18.3991 64.122C17.8907 63.0031 17.6954 61.7671 17.834 60.5459ZM20.485 60.7949C20.4088 61.5184 20.5594 62.2478 20.916 62.8819C21.3559 63.604 21.9691 64.2048 22.7 64.6299C23.7089 65.2295 24.7992 65.6802 25.937 65.9679C27.512 66.3789 29.1197 66.6523 30.742 66.7849C32.3542 66.9578 33.9784 66.9889 35.596 66.8779C36.7484 66.8085 37.884 66.5672 38.965 66.1619C39.7427 65.875 40.4356 65.397 40.98 64.7719C41.4375 64.2097 41.7142 63.5223 41.774 62.7999C41.8484 62.0748 41.7057 61.3438 41.364 60.6999C40.9524 59.9746 40.3607 59.3677 39.646 58.9379C38.6593 58.3352 37.5877 57.8841 36.467 57.5999C34.8984 57.1895 33.297 56.9168 31.681 56.7849C27.9317 56.4322 25.165 56.6376 23.381 57.4009C21.597 58.1642 20.6317 59.2972 20.485 60.7999V60.7949Z" fill="#19254F"/>
<path d="M56.061 30.2278C56.1501 28.9967 56.5715 27.8127 57.2803 26.802C57.9891 25.7914 58.9588 24.992 60.086 24.4888C62.5253 23.2602 65.9 22.8485 70.21 23.2538C74.52 23.6592 77.732 24.6925 79.846 26.3538C80.8404 27.0704 81.6245 28.0404 82.117 29.1627C82.6094 30.2851 82.7921 31.5189 82.646 32.7358C82.5587 33.9524 82.1471 35.1234 81.4541 36.127C80.761 37.1306 79.8118 37.9303 78.705 38.4429C76.3217 39.6742 72.9743 40.0868 68.663 39.6808C64.3517 39.2748 61.113 38.2415 58.947 36.5809C57.9364 35.8819 57.1343 34.9219 56.6261 33.8032C56.1179 32.6844 55.9226 31.4488 56.061 30.2278ZM58.711 30.4778C58.6351 31.2012 58.7861 31.9302 59.143 32.5638C59.5808 33.2862 60.1928 33.8872 60.923 34.3118C61.9318 34.9117 63.0221 35.3624 64.16 35.6499C65.7353 36.0613 67.3433 36.335 68.966 36.4678C70.5779 36.6399 72.2018 36.6707 73.819 36.5599C74.9717 36.4907 76.1076 36.2497 77.189 35.8449C77.9651 35.5567 78.6566 35.0784 79.2 34.4538C79.6591 33.8924 79.938 33.2054 80 32.4829C80.0749 31.7557 79.9322 31.0228 79.59 30.3769C79.1782 29.6517 78.5865 29.0449 77.872 28.6148C76.8854 28.0149 75.8145 27.566 74.695 27.2829C73.1268 26.872 71.5257 26.599 69.91 26.4668C66.1613 26.1142 63.3947 26.3195 61.61 27.0828C59.8253 27.8462 58.859 28.9778 58.711 30.4778Z" fill="#19254F"/>
<path d="M60.642 63.2548C60.542 62.0244 60.7775 60.7899 61.3234 59.6826C61.8693 58.5754 62.7051 57.6368 63.742 56.9668C65.964 55.3788 69.236 54.4555 73.558 54.1968C77.88 53.9382 81.2133 54.4662 83.558 55.7808C84.6303 56.3565 85.5374 57.1969 86.1931 58.2221C86.8488 59.2474 87.2312 60.4234 87.3039 61.6382C87.3767 62.853 87.1374 64.0663 86.6088 65.1625C86.0802 66.2587 85.2799 67.2014 84.284 67.9008C82.116 69.4862 78.8707 70.4078 74.548 70.6658C70.2253 70.9238 66.865 70.3978 64.467 69.0878C63.3621 68.5516 62.4231 67.7262 61.7496 66.6992C61.0762 65.6721 60.6934 64.4819 60.642 63.2548ZM63.3 63.0998C63.3343 63.8279 63.5951 64.5271 64.046 65.0998C64.5899 65.7462 65.2867 66.2463 66.073 66.5548C67.1607 66.9923 68.3058 67.2705 69.473 67.3808C71.0925 67.5464 72.7233 67.5705 74.347 67.4529C75.9663 67.3765 77.5758 67.1584 79.157 66.8009C80.2854 66.5564 81.3708 66.1442 82.377 65.5779C83.1017 65.1753 83.7135 64.5969 84.156 63.8958C84.5213 63.2701 84.6893 62.5486 84.638 61.8258C84.6012 61.096 84.3481 60.3935 83.911 59.8078C83.3928 59.1544 82.715 58.6453 81.943 58.3298C80.8765 57.8874 79.7496 57.6076 78.6 57.4998C76.9873 57.3333 75.363 57.3088 73.746 57.4268C69.9873 57.6522 67.2837 58.2785 65.635 59.3058C63.9863 60.3332 63.208 61.5978 63.3 63.0998Z" fill="#19254F"/>
<path d="M185.844 256.762C185.595 255.553 185.679 254.299 186.087 253.134C186.495 251.969 187.211 250.936 188.159 250.146C190.172 248.301 193.308 246.988 197.568 246.208C201.828 245.428 205.199 245.549 207.682 246.57C208.816 247.012 209.818 247.737 210.592 248.675C211.367 249.614 211.889 250.735 212.108 251.932C212.327 253.129 212.236 254.362 211.845 255.514C211.453 256.666 210.773 257.699 209.869 258.514C207.908 260.349 204.798 261.656 200.54 262.437C196.282 263.218 192.884 263.102 190.347 262.09C189.185 261.692 188.152 260.986 187.359 260.048C186.566 259.11 186.043 257.974 185.844 256.762ZM188.463 256.283C188.586 257 188.929 257.661 189.445 258.174C190.063 258.75 190.815 259.163 191.633 259.374C192.767 259.677 193.939 259.815 195.112 259.782C198.362 259.679 201.579 259.09 204.655 258.035C205.745 257.657 206.772 257.117 207.703 256.435C208.374 255.948 208.911 255.299 209.265 254.549C209.553 253.884 209.632 253.147 209.493 252.436C209.368 251.716 209.032 251.049 208.527 250.521C207.934 249.935 207.199 249.512 206.395 249.292C205.283 248.982 204.13 248.841 202.976 248.873C201.355 248.903 199.74 249.076 198.149 249.388C194.445 250.066 191.837 251.015 190.325 252.235C188.813 253.455 188.192 254.804 188.463 256.283Z" fill="#19254F"/>
<path d="M231.808 134.318C233.022 134.542 234.152 135.091 235.079 135.906C236.006 136.722 236.694 137.773 237.071 138.949C238.025 141.508 238.064 144.908 237.187 149.149C236.31 153.389 234.932 156.468 233.053 158.386C232.218 159.271 231.17 159.928 230.009 160.294C228.848 160.66 227.613 160.723 226.421 160.476C225.229 160.23 224.12 159.683 223.2 158.886C222.279 158.09 221.578 157.072 221.162 155.928C220.198 153.422 220.154 150.049 221.03 145.809C221.906 141.569 223.289 138.463 225.18 136.492C225.985 135.564 227.027 134.872 228.194 134.489C229.361 134.106 230.61 134.047 231.808 134.318ZM231.269 136.926C230.558 136.77 229.816 136.84 229.147 137.126C228.382 137.482 227.717 138.024 227.215 138.703C226.509 139.64 225.941 140.674 225.53 141.774C224.948 143.294 224.5 144.863 224.19 146.461C223.842 148.044 223.633 149.655 223.566 151.275C223.508 152.428 223.623 153.584 223.907 154.703C224.108 155.507 224.507 156.248 225.068 156.858C225.577 157.372 226.23 157.721 226.941 157.858C227.655 158.013 228.399 157.951 229.078 157.682C229.844 157.352 230.512 156.831 231.018 156.168C231.723 155.253 232.287 154.238 232.691 153.156C233.272 151.642 233.719 150.081 234.027 148.489C234.789 144.801 234.889 142.028 234.327 140.168C233.765 138.308 232.746 137.227 231.269 136.926Z" fill="#19254F"/>
<path d="M190.111 160.881C190.111 141.737 185.253 124.032 179.385 109.622H159.764V239.7C164.2 234.92 190.111 205.106 190.111 160.881Z" fill="#3B4669"/>
<path d="M128.124 160.881C128.124 209.24 159.118 240.381 159.118 240.381C159.118 240.381 159.349 240.148 159.764 239.701V109.622H138.851C132.982 124.032 128.124 141.737 128.124 160.881Z" fill="#636B87"/>
<path d="M185.01 127.692H132.861" stroke="#F7B25F" stroke-width="10.405" stroke-miterlimit="10"/>
<path d="M187.852 169.143H128.77" stroke="#F7B25F" stroke-width="10.405" stroke-miterlimit="10"/>
<path d="M179.135 213.037H139.263L136.357 202.631H181.395L179.135 213.037Z" fill="#F7B25F"/>
<path d="M128.124 160.881C128.124 209.24 159.118 240.381 159.118 240.381C159.118 240.381 190.111 209.245 190.111 160.886C190.111 141.742 185.253 124.037 179.385 109.627H138.851C132.982 124.032 128.124 141.737 128.124 160.881Z" stroke="#FAD3A3" stroke-width="3.716" stroke-miterlimit="10"/>
<path d="M143.986 167.337L139.305 149.419" stroke="#2E395F" stroke-width="8.176" stroke-miterlimit="10" stroke-linecap="round"/>
<path d="M156.416 166.853L158.353 149.58" stroke="#2E395F" stroke-width="8.176" stroke-miterlimit="10" stroke-linecap="round"/>
<path d="M160.774 172.7H139.789C138.744 172.7 137.727 172.358 136.894 171.727C136.061 171.096 135.457 170.21 135.174 169.204C134.891 168.198 134.945 167.127 135.326 166.154C135.708 165.181 136.397 164.359 137.289 163.814L139.789 162.295C141.416 161.344 143.188 160.669 145.035 160.295C148.494 159.564 152.068 159.564 155.528 160.295C157.375 160.669 159.147 161.345 160.774 162.295L163.265 163.81C164.159 164.354 164.85 165.174 165.234 166.147C165.617 167.121 165.672 168.192 165.39 169.2C165.108 170.207 164.504 171.094 163.671 171.726C162.837 172.358 161.82 172.7 160.774 172.7Z" fill="#5F4272"/>
<path d="M150.491 170.77C153.978 169.219 155.337 164.66 153.526 160.587C151.714 156.514 147.419 154.47 143.931 156.021C140.444 157.572 139.085 162.131 140.897 166.204C142.708 170.277 147.004 172.321 150.491 170.77Z" fill="#F49727"/>
<path d="M212.912 199.611C212.374 200.068 211.747 200.409 211.07 200.611C210.394 200.814 209.683 200.874 208.982 200.788C208.281 200.702 207.606 200.471 206.998 200.111C206.391 199.75 205.865 199.268 205.454 198.694L196.333 185.96C195.776 185.184 195.531 184.227 195.647 183.279C195.764 182.331 196.233 181.462 196.962 180.844C197.688 180.224 198.622 179.9 199.576 179.937C200.53 179.974 201.436 180.37 202.112 181.044L213.212 192.1C213.713 192.598 214.104 193.196 214.362 193.853C214.621 194.511 214.739 195.215 214.711 195.921C214.683 196.627 214.508 197.32 214.199 197.955C213.889 198.59 213.451 199.154 212.912 199.611Z" fill="#F7B05B"/>
<path d="M147.1 122.173L204.578 189.805" stroke="#F49727" stroke-width="3.405" stroke-miterlimit="10" stroke-linecap="round"/>
<path d="M229.556 169.817C229.167 170.406 228.66 170.908 228.067 171.292C227.473 171.675 226.807 171.931 226.11 172.044C225.413 172.157 224.7 172.124 224.016 171.947C223.333 171.77 222.693 171.454 222.138 171.017L209.829 161.328C209.079 160.737 208.578 159.887 208.426 158.944C208.274 158.002 208.482 157.037 209.008 156.24C209.534 155.443 210.34 154.874 211.266 154.644C212.192 154.414 213.171 154.542 214.008 155.001L227.746 162.527C228.365 162.866 228.907 163.33 229.338 163.889C229.769 164.448 230.079 165.09 230.249 165.775C230.419 166.46 230.446 167.173 230.326 167.869C230.207 168.564 229.945 169.228 229.556 169.817Z" fill="#F7B05B"/>
<path d="M144.774 113.783L218.819 162.721" stroke="#F49727" stroke-width="3.405" stroke-miterlimit="10" stroke-linecap="round"/>
<path opacity="0.6" d="M166.543 274.63C204.136 265.061 223.273 233.621 231.475 218.584C231.475 218.584 221.223 251.391 208.92 261.644C196.617 271.897 166.543 274.63 166.543 274.63Z" fill="#68BBCA"/>
<path opacity="0.59" d="M202.219 98.892C201.435 84.385 185.045 68.297 157.247 65.435C157.247 65.435 182.288 62.141 193.854 69.761C205.42 77.381 202.219 98.892 202.219 98.892Z" fill="#68BBCA"/>
<path d="M135.827 155.159C74.038 124.265 40.178 120.805 23.646 97.4669C7.62899 74.8559 13.549 43.4309 36.329 27.6549C47.2686 20.0795 60.7694 17.16 73.8616 19.5385C86.9538 21.917 98.565 29.3987 106.141 40.3379C118.311 57.9119 113.83 72.61 141.017 154.171" stroke="#5F4272" stroke-width="1.115" stroke-miterlimit="10" stroke-linecap="round"/>
<path d="M36.329 27.6551C67.365 25.4001 92.081 47.4001 100.731 67.6671C109.381 87.9341 138.546 154.167 138.546 154.167" stroke="#5F4272" stroke-width="1.115" stroke-miterlimit="10" stroke-linecap="round"/>
<path d="M22.136 42.457C19.417 84.473 109.876 140.083 133.85 151.7" stroke="#5F4272" stroke-width="1.115" stroke-miterlimit="10" stroke-linecap="round"/>
<path d="M27.82 35.29C61.186 50.86 129.4 143.3 140.523 158.62" stroke="#5F4272" stroke-width="1.115" stroke-miterlimit="10" stroke-linecap="round"/>
<path d="M18.429 88.181C20.159 65.442 51.3 24.168 80.711 21.449" stroke="#5F4272" stroke-width="1.115" stroke-miterlimit="10" stroke-linecap="round"/>
<path d="M32.269 107.211C35.729 86.7 81.7 41.468 104.685 38.75" stroke="#5F4272" stroke-width="1.115" stroke-miterlimit="10" stroke-linecap="round"/>
<path d="M52.289 119.322C75.768 102.268 100.731 80.0218 115.56 63.4648" stroke="#5F4272" stroke-width="1.115" stroke-miterlimit="10" stroke-linecap="round"/>
<path d="M77 129.455C94.054 122.782 117.781 100.044 122.724 92.6289" stroke="#5F4272" stroke-width="1.115" stroke-miterlimit="10" stroke-linecap="round"/>
<path d="M93.316 136.128C102.708 132.668 121.492 115.368 127.176 109.928" stroke="#5F4272" stroke-width="1.115" stroke-miterlimit="10" stroke-linecap="round"/>
<path d="M104.933 141.319C112.347 138.353 125.693 129.208 131.378 123.771" stroke="#5F4272" stroke-width="1.115" stroke-miterlimit="10" stroke-linecap="round"/>
<path d="M115.313 145.767C123.469 142.802 130.884 135.634 133.85 133.657" stroke="#5F4272" stroke-width="1.115" stroke-miterlimit="10" stroke-linecap="round"/>
<path opacity="0.52" d="M96.751 227.406C104.877 224.706 113.926 226.88 121.498 230.878C129.07 234.876 135.579 240.578 142.56 245.536C149.541 250.494 157.36 254.836 165.899 255.47C170.675 255.825 175.452 255.001 180.171 254.181C166.854 258.855 152.086 263.327 138.971 258.12C127.692 253.643 119.984 242.808 108.93 237.802C101.968 234.649 94.084 234.024 86.469 234.669C89.276 231.471 92.7991 228.983 96.751 227.406Z" fill="#5AB5C6"/>
<path opacity="0.52" d="M37.68 44.785C47.632 35.542 62.124 32.726 75.68 33.516C89.236 34.306 102.386 38.2521 115.724 40.8161C129.062 43.3801 143.2 44.5 155.947 39.8C163.075 37.17 169.428 32.839 175.699 28.55C159.552 44.058 141.179 60.228 118.819 61.342C99.593 62.301 81.341 51.733 62.091 51.78C49.969 51.809 38.179 56.0931 27.612 62.034C29.922 52.9761 36.924 45.487 37.68 44.785Z" fill="#5AB5C6"/>
<path opacity="0.55" d="M89.53 73.7528C73.065 64.5528 27.543 87.3118 48.367 140.098C69.191 192.884 70.159 213.708 68.222 224.846C68.222 224.846 81.782 203.054 72.096 158.501C62.41 113.948 63.978 98.9328 70.396 89.0068C77.06 78.7158 89.53 73.7528 89.53 73.7528Z" fill="#71BFCE"/>
<path opacity="0.59" d="M238.711 25.2069C264 24.8269 287.399 45.1619 287.481 68.8139C287.481 68.8139 274.644 48.9219 266.312 44.0139C257.98 39.1059 238.711 25.2069 238.711 25.2069Z" fill="#71BFCE"/>
<path opacity="0.82" d="M83.377 202.11C97.307 174.352 77.789 130.9 94.04 98.521C94.04 98.521 103.94 132.757 100.517 161.093C97.094 189.429 83.377 202.11 83.377 202.11Z" fill="#68BBCA"/>
</g>
<defs>
<clipPath id="clip0">
<rect width="313.739" height="330.639" fill="white"/>
</clipPath>
</defs>
</svg>
