<?xml version="1.0" encoding="UTF-8"?><svg xmlns="http://www.w3.org/2000/svg" viewBox="0 0 820.13 728.58"><defs><style>.e,.f,.g,.h,.i{stroke-miterlimit:10;}.e,.j,.g,.h{stroke-linecap:round;}.e,.k,.i{fill:#e1c4a1;}.e,.g{stroke:#c19a74;stroke-width:2.21px;}.f{stroke:#7c658c;stroke-width:3px;}.f,.g,.h{fill:none;}.j{fill:#e3dee6;stroke:#e3dee6;stroke-linejoin:round;stroke-width:5px;}.l{fill:#f7ebf2;}.m{fill:#f49727;}.n{fill:#fff;}.o{fill:#fde9d2;}.p{fill:#a999b3;}.q{fill:#404a6d;}.r{fill:#19254f;}.s{fill:#57607f;}.t{fill:#7c658c;}.u{fill:#270041;}.h{stroke:#19254f;stroke-width:2.2px;}.i{stroke:#e1c4a1;}</style></defs><g id="a"><path class="l" d="M553.17,650.1c-110.32,55.53-354.13,54.11-390-82.08-44.06-167.31,150.75-58.28,192.75-340.84,21.18-142.47,284.22-56.18,306.3,119.44,17.52,139.35-26.97,262.16-109.05,303.48Z"/></g><g id="b"><path class="j" d="M640.75,232.27c9.57-.6,19.35,1.76,27.46,6.65-10.9-15.4-21.81-30.8-32.71-46.21,36.63,15.28,71.29,34.79,102.95,57.96-24.96-45.5-66.8-82.69-116.48-103.52l26.77-16.09c-29.03-14.39-63.01-19.65-95.26-14.74,19.68-12.44,39.35-24.89,59.03-37.33-39.89-16.86-87.73-15.76-126.42,2.89,9-14.38,18.01-28.75,27.01-43.13-40.19,10.96-76.54,33.68-102.96,64.11-5.71,2.26-11.19,5.18-16.59,8.93-.4-2.25-.92-4.48-1.57-6.67-2.63-8.81-6.84-15.06-12.51-18.58-1.87-1.16-3.81-1.93-5.72-2.36-2.37-6.39-8.03-11.85-14.27-14.17-10.41-3.86-21.94-1.44-30.83,1.11l.83,2.88c8.45-2.42,19.37-4.74,28.96-1.18,5.01,1.86,9.61,6.01,11.93,10.94-5.31-.15-10.06,2.13-12.62,5.53-2.62,3.48-3.33,9.1,.02,12.49,2.44,2.47,6.54,3.08,9.96,1.47,2.83-1.33,5.14-4.07,6.33-7.51,.93-2.7,1.08-5.46,.62-8.13,1.14,.37,2.23,.87,3.21,1.48,5.03,3.12,8.8,8.8,11.21,16.89,.76,2.55,1.32,5.15,1.72,7.78-2.52,1.89-5.03,3.98-7.55,6.28v-.15c-1.39-.79-2.83-1.52-4.29-2.2-31.83-22.26-71.54-34.46-111.06-33.68-46.02,.91-91.23,19.4-123.19,50.37,28.76,2.28,57.09,9.64,83.09,21.57-39.6,12.53-75.75,34.42-104.23,63.11,20.23-3.04,40.47-6.07,60.7-9.11-27.06,27.49-46.81,61.32-57.02,97.62,14.82-7,31.34-10.81,47.97-11.06-16.67,18.13-29.06,39.74-36.02,62.86,13.44-10.57,31.01-16.38,48.58-16.08-19.85,18.43-31.62,44.35-32.1,70.69,14.42-17.95,34.67-31.69,57.35-38.91-12.42,17.3-19.94,37.71-21.58,58.6,18.14-11.7,56.18-30.47,74.32-42.17-2.9,23.47,8.26,48.81,17.48,52.69,0,0,20.98-41.15,54.26-52.25-1.63,1.91-3.17,3.89-4.58,5.95-9.33,13.66-14.06,29.94-16.99,46.22,2.24-.06,4.49-.08,6.73-.08-1.32,7-2.65,13.99-3.97,20.99-13.74-5.24-28.43-7.93-43.14-7.96-5.94-3.26-11.99-6.3-18.17-9.08-3.12-1.4-6.61-2.77-10.15-1.7-.35,1.82,.44,3.66,1.37,5.27,1.65,2.83,3.85,5.33,6.43,7.35-3.62,.76-7.15,1.84-10.46,3.48-3.38,1.67-6.51,3.97-9,6.79-2.81,3.2-.27,8.33,3.97,7.94,5.21-.48,10.22-2.91,13.62-6.84-3.19,4.73-3.65,5.34-5.12,8.16-1.79,3.43-2.04,7.41-1.32,11.21,.72,3.8,4.1,7.3,7.44,6.75-.88-8.24,4.47-18.48,11.67-22.63-6.79,5.09-10.98,13.48-10.97,21.97,0,2.64,.44,5.42,2.36,7.38,1.02,1.05,2.43,1.71,3.89,1.61,3.01-.2,4.41-3.1,5.72-5.56,3.66-6.87,9.39-12.61,16.24-16.29,3.44,8.35-1.53,10.67-1.33,16.69,.05,1.45,.32,5.32,3.78,5.09,1.25-.08,2.49,.12,3.49-.64,6.47-4.88,11.08-12.13,12.79-20.04,6.24-1.23,12.44,1.69,18.33,4.08,5.89,2.39,12.81,4.27,18.38,1.21,3.47-1.9,5.73-5.39,7.84-8.73,4.83-7.63,9.7-15.38,12.91-23.78,.38,2.74,.78,5.43,1.17,8.02-1,1.72-1.92,3.48-2.75,5.3-6.32,13.8-7.59,30.15-3.5,44.88,.32,.19,.65,.36,.98,.55,1.81,11.09,7.5,21.59,15.43,29.66,2.01,2.05,4.16,3.94,6.42,5.7,.54,12.59,1.07,25.18,1.61,37.78,4.03,2.26,8.48,3.76,13.08,4.56-.38,3.66-.75,7.32-1.12,10.98-.12,1.12-.21,2.3-.06,3.41-1.58,.12-3.14,.42-4.65,.98-2.78,1.01-5.23,2.81-8.04,3.73-3.05,1-6.39,.95-9.36,2.16-4.79,1.95-7.89,7.39-7.13,12.51,.76,5.12,5.31,9.42,10.46,9.89,6.01,.55,11.78-3.56,17.77-2.76,4.16,.56,7.8,3.44,11.99,3.69,4.08,.25,8.02-2.15,10.39-5.48,2.37-3.34,3.35-7.48,3.63-11.56,.24-3.45-.09-7.19-2.3-9.84-1.04-1.25-2.62-2.07-4.13-2.33,.46-5.22,.41-10.49-.14-15.7,5.17-1.09,10.18-3.04,14.66-5.9-.92-6.57-1.64-12.88-2.3-19.09,6.84,.76,13.76,.8,20.59-.05,2.68-.33,5.34-.82,7.96-1.43-.04,3.84-.09,7.67-.13,11.51-.04,3.1-.02,6.39,1.67,8.99,2.06,3.19,6.04,4.46,9.71,5.43,2.84,.75,5.71,1.45,8.6,2.03l.77,14.2c.05,.89,.11,1.81,.34,2.66-3.57,1.55-8.35,2.48-13.01,2.53-5.09,.05-10.66-1.2-14.93,1.57-4.14,2.68-5.4,8.62-3.52,13.19,1.88,4.57,6.29,7.74,11.02,9.13,4.73,1.39,9.79,1.22,14.69,.64,4.9-.58,9.77-1.54,14.7-1.69,2.21-.06,4.6-.02,6.4-1.3,1.43-1.02,2.22-2.71,2.86-4.35,1.28-3.25,2.27-6.63,2.94-10.06,.67-3.43,.95-7.27-1.06-10.13-.82-1.17-1.96-2.02-3.25-2.62,.28-4.23,.25-8.47-.09-12.69,6.45-.78,12.77-3.13,17.75-7.65,.73-18.2,.47-36.44-.78-54.61-.16-2.3-.38-4.73-1.7-6.62h0c2.17-3.85,4.03-7.87,5.52-12.04,1.01-2.85,1.84-5.99,1.68-8.96,.96-1.15,1.86-2.35,2.68-3.63,3.17-4.9,4.81-13.62,4.7-22.3,5.59-8.06,9.17-17.64,10.24-27.52,3.08,1.19,6.13,2.47,9.13,3.87,1.52-23.38-4.4-47.2-16.7-67.14-.66-1.07-1.34-2.11-2.03-3.16,20.26,6.41,39.5,15.68,56.71,27.72,.15-9.5,.29-19.01,.44-28.51,11.18,9.22,22.35,18.44,33.53,27.67-1.09-26.21-7.84-52.24-19.7-76.05,23.34,9.36,44.15,24.32,59.9,43.08-10.43-25.14-20.86-50.29-31.29-75.43,19.84,19.78,39.68,39.57,59.53,59.35-10.26-36.97-28.19-72.08-52.49-102.77,23.44,13.01,46.88,26.02,70.32,39.03-14.74-24.67-33.09-47.44-54.37-67.45ZM371.2,94.77c-.92,2.68-2.66,4.79-4.76,5.77-2.26,1.06-5.01,.7-6.55-.86-2.18-2.21-1.57-6.17,.24-8.58,2.23-2.97,5.85-4.28,9.54-4.28,.6,0,1.21,.04,1.81,.1,.63,2.56,.62,5.24-.28,7.84Z"/></g><g id="c"><path class="t" d="M402.97,111.59c26.81-34.82,66.17-60.86,110.12-72.84l-27.01,43.13c38.69-18.65,86.53-19.74,126.42-2.89l-59.03,37.33c32.25-4.91,66.23,.35,95.26,14.74l-26.77,16.09c49.68,20.83,91.52,58.01,116.48,103.52-31.66-23.17-66.32-42.68-102.95-57.96l32.71,46.21c-8.11-4.89-17.89-7.26-27.46-6.65,21.28,20.02,39.63,42.79,54.37,67.45l-70.32-39.03c24.29,30.69,42.23,65.81,52.49,102.77l-59.53-59.35,31.29,75.43c-15.75-18.75-36.56-33.72-59.9-43.08,11.86,23.81,18.61,49.84,19.7,76.05l-33.53-27.67-.44,28.51c-57.35-40.13-137.15-49.67-202.82-24.25-27.73,10.74-5.38-6.56-33.89,2.59-33.64,10.79-54.88,52.46-54.88,52.46-9.23-3.88-20.39-29.22-17.48-52.69-18.14,11.7-56.18,30.47-74.32,42.17,1.64-20.89,9.16-41.3,21.58-58.6-22.68,7.22-42.92,20.95-57.35,38.91,.48-26.34,12.25-52.26,32.1-70.69-17.57-.31-35.15,5.51-48.59,16.08,6.96-23.11,19.34-44.73,36.02-62.86-16.62,.25-33.15,4.06-47.97,11.06,10.2-36.3,29.96-70.12,57.02-97.62l-60.7,9.11c28.48-28.69,64.63-50.58,104.23-63.11-26-11.93-54.34-19.29-83.09-21.57,31.95-30.97,77.17-49.46,123.19-50.37,46.02-.91,92.3,15.77,126.09,45.45,4.33-7.66,8.66-15.31,8.96-17.85Z"/><path class="f" d="M381.08,160.27c11.33-15.48,14.93-36.34,9.44-54.73-2.08-6.97-5.68-13.9-11.86-17.73s-15.36-3.43-19.73,2.38c-2.3,3.06-2.8,7.81-.11,10.54,2.08,2.11,5.57,2.42,8.25,1.16,2.68-1.26,4.58-3.84,5.54-6.64,3.3-9.59-4.17-20.3-13.68-23.83-9.51-3.53-20.14-1.65-29.89,1.14"/><path class="u" d="M472,610.72c3.11-1.56,6.3-3.15,9.75-3.53s7.29,.69,9.29,3.54c2.01,2.86,1.73,6.7,1.06,10.13-.67,3.43-1.66,6.8-2.94,10.06-.65,1.64-1.43,3.33-2.86,4.35-1.8,1.29-4.19,1.24-6.4,1.3-4.93,.14-9.8,1.11-14.7,1.69s-9.96,.76-14.69-.64-9.15-4.57-11.02-9.13c-1.88-4.57-.62-10.5,3.52-13.19,4.27-2.77,9.84-1.52,14.93-1.57,5.13-.05,10.41-1.17,14.06-3Z"/><path class="u" d="M405.32,610.02c-6.33-1.88-13.18-3.74-19.38-1.48-2.78,1.01-5.23,2.81-8.04,3.73-3.05,1-6.39,.95-9.36,2.16-4.79,1.95-7.89,7.39-7.13,12.51s5.31,9.42,10.46,9.89c6.01,.55,11.78-3.56,17.77-2.76,4.16,.56,7.8,3.44,11.99,3.69,4.08,.25,8.02-2.15,10.39-5.48,2.37-3.34,3.35-7.48,3.63-11.56,.24-3.45-.09-7.19-2.3-9.84-2.21-2.65-6.85-3.42-8.04-.86Z"/><path class="k" d="M469.55,588.84l1.06,19.69c.08,1.5,.2,3.11,1.12,4.3,1.1,1.43,3.07,1.88,4.87,1.91,4.14,.08,8.28-1.56,11.06-4.79,.6-6.81,.39-13.69-.64-20.44-5.65-1.96-11.98-1.92-17.47-.67Z"/><path class="k" d="M408.77,590.21c.83,6.07,.99,12.23,.45,18.34-.09,1.02-.22,2.11-.86,2.91-.83,1.05-2.27,1.35-3.61,1.48-2.89,.28-5.83,.09-8.66-.57-1.85-.43-3.8-1.17-4.81-2.78-.99-1.58-.83-3.59-.64-5.44l1.62-15.85c3.19-.93,6.45-1.87,9.77-1.75s6.78,1.46,8.61,4.23c-.41,.12-.82,.25-1.88-.58Z"/><path class="u" d="M354.74,504.55c-1.17,14.94,5.41,29.9,15.92,40.58,10.51,10.68,24.61,17.35,39.2,20.74,10.52,2.44,21.46,3.27,32.17,1.94,29.67-3.68,56.42-25.15,66.44-53.32,1.56-4.37,2.68-9.42,.45-13.49-3.33-6.07-11.77-6.43-18.69-6-45.2,2.82-90.4,5.64-135.5,9.55Z"/><path class="u" d="M505.45,587.76c.73-18.2,.46-36.44-.78-54.61-.16-2.3-.38-4.73-1.7-6.62-2.49-3.55-7.59-3.72-11.93-3.52-8.41,.38-17.02,.79-24.82,3.96-7.8,3.16-14.79,9.66-15.97,17.95l-.38,32.98c-.04,3.1-.02,6.39,1.67,8.99,2.06,3.19,6.04,4.46,9.71,5.43,7.44,1.96,15.05,3.63,22.74,3.39s15.54-2.54,21.47-7.94Z"/><path class="u" d="M420.49,558.58c.94,9.25,1.88,18.5,3.26,28.37-13.44,8.57-31.54,9.23-45.05,1.67l-1.96-45.89c16.16,1.84,31.86,7.59,43.75,15.85Z"/><g><path class="k" d="M323.27,441.05l-4.53,23.95c-17.51-6.68-36.57-9.23-55.22-7.39-6.5,.64-13.04,1.85-18.89,4.74-3.38,1.67-6.51,3.97-9,6.79-2.81,3.2-.27,8.33,3.97,7.94,6.68-.62,13.06-4.44,16.09-10.52-5.52,8.27-5.8,8.42-7.59,11.84s-2.04,7.41-1.32,11.21,4.1,7.3,7.44,6.75c-.88-8.24,4.47-18.48,11.67-22.63-6.79,5.09-10.98,13.48-10.97,21.97,0,2.64,.44,5.42,2.36,7.38,1.02,1.05,2.43,1.71,3.89,1.61,3.01-.2,4.41-3.1,5.72-5.56,3.66-6.87,9.39-12.61,16.24-16.29,3.44,8.35-1.53,10.67-1.33,16.69,.05,1.45,.32,5.32,3.78,5.09,1.25-.08,2.49,.12,3.49-.64,6.47-4.88,11.08-12.13,12.79-20.04,6.24-1.22,12.44,1.69,18.33,4.08s12.81,4.27,18.38,1.21c3.47-1.9,5.73-5.39,7.84-8.73,6.25-9.88,12.58-19.94,15.27-31.37,.3-1.27,.44-2.58,.35-3.88-.47-7.31-6.6-8.55-11.91-8.92-5.95-.42-11.95-.32-17.88,.28-4.55,.46-10.17,2.33-8.99,4.43Z"/><path class="k" d="M283.04,461.26c-8.28-4.9-16.83-9.35-25.6-13.3-3.12-1.4-6.61-2.77-10.15-1.7-.35,1.82,.44,3.66,1.37,5.27,3.29,5.63,8.75,9.95,14.98,11.86s13.18,1.38,19.05-1.45c-.26,.28-.52,.57,.35-.67Z"/></g><path class="r" d="M367.06,447.58c-16.87-2.74-34-3.91-51.08-3.48,2.93-16.28,7.66-32.56,16.99-46.22s23.82-24.46,40.25-26.34c3.4-.39,7.58,.03,9.07,3.11,1.13,2.33,.12,5.08-.92,7.44-4.65,10.53-10.1,20.74-13.61,31.69-3.51,10.96-4.99,22.96-.69,33.79Z"/><path class="q" d="M382.1,450.08c-8.84,2.33-15.65,13.92-20.52,21.66-2.43-15.49-5.75-36.93-4.87-52.58,.88-15.65,5.11-31.48,14.52-44.01,9.36-12.46,23.35-20.94,38.21-25.64s30.63-5.86,46.21-5.7c4.66,.05,9.66,.33,13.36,3.16,3.77,2.89,5.31,7.76,6.65,12.32,7.16,24.4,22.9,77.94,15.45,102.27"/><path class="q" d="M509.98,455.83c9.45,7.72,9.62,35.61,2.86,46.07-6.76,10.47-18.19,16.24-29.41,20.44-42.15,15.78-90.62,15.17-129.18-7.42-4.09-14.73-2.82-31.08,3.5-44.88,6.32-13.8,17.62-24.9,31-30.46,12.38-5.15,26.05-5.59,39.3-4.46,31.08,2.65,60.99,3.6,81.93,20.7Z"/><path class="k" d="M528.1,447.48c-.39,14.63-6.44,29.03-16.44,39.29l-44.18-10.25c-3.26-.76-6.76-1.5-9.88-.27-4.07,1.61-6.16,5.98-8.4,9.74-2.25,3.76-5.9,7.6-10.22,6.91-11.91-3.04-3.64-14.09-3.62-21.34-4.81,.33-6.3,5.91-8.53,10.19s-5.99,9.02-10.72,8.12c-4.13-.79-6.25-5.85-5.37-9.97,.87-4.12,2.49-7.98,5.18-11.31-3.65,2.16-4.87,6.74-6.72,10.56-1.85,3.82-5.95,7.6-9.86,5.94-3.31-1.4-4.08-5.76-3.66-9.33,1.25-10.76,9.03-20.07,18.69-24.95,9.67-4.88,20.96-5.76,31.71-4.4,10.74,1.35,21.1,4.81,31.37,8.24l4.43-19.08c11.79-.39,23.64,.94,35.05,3.92,4.84,1.26,11.31,3.14,11.18,8.01Z"/><path class="k" d="M435.35,454.06c-2.52-5.61-7.58-10.02-13.48-11.75-3.14-.92-6.49-1.08-9.71-.52-4.86,.85-6.93,6.79-3.54,10.38,2.58,2.74,5.9,4.8,9.54,5.78,6.4,1.73,13.62,.1,17.21-3.89Z"/><path class="s" d="M467.71,343.74c21.58,9.14,40.2,25.12,52.5,45.07,12.3,19.95,18.22,43.76,16.7,67.14-20.24-9.5-42.77-14.09-64.98-12.31-1.61-9.4-5.91-18.33-12.72-24.41-5.84-8.55-11.38-17.45-14.54-27.3-3.15-9.86-3.74-20.85,.25-30.4,3.99-9.55,13.11-17.25,23.45-17.8,.49,.9,.99,1.81-.65,0Z"/><path class="k" d="M422.26,386.68c31.33-2.63,61.36-18.33,81.4-42.55,9.06-10.94,16.27-24.01,17.4-38.17,1.13-14.16-4.83-29.42-16.5-37.7,2.79,1.52,6.45-.61,7.65-3.54s.64-6.27-.1-9.36-1.62-6.27-.99-9.38c.67-3.3,2.99-6.18,3.15-9.54,.27-5.64-6.2-9.86-11.77-8.95s-9.9,5.46-12.42,10.34c-12.58-30.13-37.61-55.17-68.31-66.26-30.71-11.1-66.68-7.57-93.81,10.59s-44.27,50.91-43.07,82.99c-15.61,13.15-19.12,37.03-12.09,56.19s22.75,34.01,40.09,44.78c9.03,5.61,18.79,10.37,29.26,12.24,10.47,1.87,21.77,.63,30.28-5.61-4.44,5.05-4.56,13.08-1.05,18.81,3.52,5.73,10.1,9.17,16.79,9.83s13.44-1.22,19.43-4.28,11.29-7.28,16.44-11.42c-.05,.09-.11,.19-1.78,.98Z"/><path class="u" d="M407.8,227.39c19.93-19.91,45.49-34.12,73.5-40.1,2.11-4.92-.61-11.09-5.33-13.61-4.72-2.52-10.78-1.69-15.23,1.28-4.45,2.97-7.42,7.79-9.05,12.89-.54-4.37-5.08-7.52-9.48-7.47-4.41,.06-8.45,2.72-11.22,6.15-2.77,3.42-4.48,7.57-6.15,11.64,1.21-4.36-2.55-9.12-7.04-9.66-4.49-.54-8.93,2.54-10.77,6.67s-1.38,9.02,.38,13.19c-1.99-1.27-4.82-.52-6.37,1.26-1.55,1.78-1.99,4.31-1.77,6.66,.52,5.47,4.56,10.44,8.53,11.1Z"/><path class="p" d="M380.29,190.83c-20.48-22.4-66.72-35.3-95.66-44.76,21.04-11.84,47.27-14.04,69.39-5.05-6.46-8.8-11.46-18.67-14.64-28.29,14.85-2.89,30.71-.31,43.87,7.16l-2.98,70.95Z"/><path class="g" d="M370.36,267.09c-2.36,11.61-10.77,21.81-21.71,26.35-6.93,2.88-14.92,3.71-20.72,8.48-6.55,5.39-8.66,15.17-5.84,23.17,2.82,8,9.97,14.07,18.06,16.61s16.98,1.8,25-.97c16.5-5.69,29.63-20.24,33.61-37.23"/><path class="n" d="M413.91,268.67c-7.03-8.34-8.27-21.09-2.98-30.63,5.29-9.54,16.77-15.23,27.57-13.68s20.2,10.26,22.59,20.9c1.38,6.17,.44,13-3.3,18.1-4.58,6.24-12.68,9.09-20.42,9.18-7.74,.09-15.28-2.2-23.46-3.87Z"/><path class="n" d="M334.5,263.1c-5.6-.63-11.28-1.28-16.49-3.44-5.2-2.16-9.96-6.06-11.82-11.38-1.61-4.61-.88-9.77,1-14.28,3.58-8.57,11.48-15.29,20.59-17.07,9.11-1.78,19.14,1.6,25.03,8.77,5.89,7.17,7.22,17.9,2.92,26.13-4.3,8.23-13.88,12.09-21.24,11.26Z"/><path class="o" d="M387.2,352.04c28.67,1.49,57.77-9.02,78.86-28.49-3.79-4.3-6.18-9.82-6.72-15.52-21.97,17.57-46.2,32.3-72.15,44.01Z"/><path class="i" d="M336.39,277.67c6.19-3.54,11.48-8.64,15.24-14.7,1.33-2.14,2.5-4.81,1.46-7.11-1.33-2.97-5.34-3.42-8.58-3.12-12.43,1.14-24.06,6.75-34.43,13.69"/><path class="e" d="M426.02,287.78c9.88-6.43,21.34-10.4,33.03-11.62,.86-3.1,.54-6.52-.79-9.61-15.4-9.09-35.4-9.84-51.44-1.94"/><path class="k" d="M328.11,279.51c9.88-6.43,21.34-10.4,33.03-11.62,.86-3.1,.54-6.52-.79-9.61-15.4-9.09-35.4-9.84-51.44-1.94"/><circle class="u" cx="446.56" cy="247.26" r="4.31"/><circle class="u" cx="345.45" cy="238.79" r="4.46"/><path class="p" d="M380.29,190.83c6.37-16.12,36.52-28.26,52.7-34.46,18.61-7.14,37.68-13.06,57.16-17.83-21.36-11.24-47.37-13.29-70.6-6.1,6.14-14.76,16.43-27.78,29.3-36.93-26.6,1.54-45.97,6.57-65.65,24.57l-2.91,70.75Z"/><path class="g" d="M408.95,280.69c5.4-4.13,19.33-7.72,28.1-8.15"/><path class="e" d="M356.34,256.8c-13.98-8.25-32.14-8.94-46.7-1.77"/><path class="e" d="M320.39,274.17c8.97-5.84,19.37-9.45,29.99-10.55"/><path class="u" d="M363.85,221.79c-22.49-9.4-45.87-16.69-70.22-21.72-.93-2.49-1.65-5.13-1.42-7.78s1.58-5.32,3.93-6.55c2.36-1.24,5.25-.86,7.78,0,5.98,2.01,11.07,6.51,13.8,12.24,.11-4.18,2.73-8.43,6.74-9.61,4.17-1.22,8.73,1.08,11.44,4.47s3.98,7.68,5.42,11.75c1.49-3.48,5.53-5.46,9.3-5.16s7.19,2.6,9.51,5.59c3.64,4.69,4.78,11.21,2.94,16.85,0-.19,0-.38,.76-.08Z"/><path class="h" d="M365.08,463.15c11.44-10.73,20.92-15.02,30.71-17.7"/><path class="m" d="M447.5,317.03l9.54,14.32c-13.55,8.79-18.54,10.69-18.54,10.69l-6.18-14.5,15.18-10.52Z"/></g><g id="d"/></svg>