<svg xmlns="http://www.w3.org/2000/svg" viewBox="0 0 430.32 371.72"><defs><style>.cls-1{fill:#f6e6ee;}.cls-2{fill:#e3dee6;stroke:#e3dee6;stroke-width:4.39px;}.cls-10,.cls-11,.cls-13,.cls-14,.cls-15,.cls-16,.cls-19,.cls-2,.cls-20,.cls-21,.cls-28,.cls-4,.cls-8{stroke-miterlimit:10;}.cls-3{fill:#270041;}.cls-10,.cls-11,.cls-13,.cls-14,.cls-16,.cls-20,.cls-21,.cls-25,.cls-28,.cls-4,.cls-8{fill:none;}.cls-4{stroke:#735983;stroke-width:1.28px;}.cls-10,.cls-11,.cls-13,.cls-14,.cls-15,.cls-16,.cls-19,.cls-20,.cls-21,.cls-25,.cls-4,.cls-8{stroke-linecap:round;}.cls-15,.cls-5{fill:#e6b889;}.cls-6{fill:#dcd7e0;}.cls-19,.cls-7{fill:#a15e38;}.cls-19,.cls-20,.cls-25,.cls-8{stroke:#7a4327;}.cls-25,.cls-8{stroke-width:1.15px;}.cls-9{fill:#d9d9d9;}.cls-10,.cls-11,.cls-13,.cls-14,.cls-15{stroke:#c28b5f;}.cls-10{stroke-width:1.05px;}.cls-11{stroke-width:1.14px;}.cls-12{fill:#c28b5f;}.cls-13,.cls-16{stroke-width:0.77px;}.cls-14,.cls-15,.cls-19,.cls-20{stroke-width:1.06px;}.cls-16{stroke:#b5b5b5;}.cls-17{fill:#35261f;}.cls-18{fill:#7a4327;}.cls-21{stroke:#5e412d;stroke-width:1.03px;}.cls-22{fill:#c6c2ca;}.cls-23{fill:#8dccd7;}.cls-24{fill:#6abccb;}.cls-25{stroke-linejoin:round;}.cls-26{fill:#dba57e;}.cls-27{fill:#19254f;}.cls-28{stroke:#19254f;stroke-width:2.04px;}</style></defs><g id="illustrasjoner"><path class="cls-1" d="M399.36,219.18c-4.7,62.26-79.59,100.48-165.19,97.42-108.57-3.88-249.75-78.54-188-178.84,29.24-47.51,104.71-24.16,132.21-40.5C283.85,34.59,411.7,55.42,399.36,219.18Z"/><path class="cls-2" d="M194.27,257.22l-5.48-1.89a.9.9,0,0,0-.46,0l-3.28.57a7.56,7.56,0,0,1-4.33-.5l-5.9-2.52a.28.28,0,0,1,0-.49l2.08-1.38a3.3,3.3,0,0,0,1.17-3.61l-10.21,2.49-.26.09-26.37-3.15a16.49,16.49,0,0,1,3-8.34,16.35,16.35,0,0,0,2.07-15.15l-1.86-5.1a23,23,0,0,0,2-9.67c0-8.6-3.8-19.29-17.59-22.18.67-2.51.32-2.94,9.34-5.17,12.88-3.19,9.85-18,9.85-18,3.82.3,5.84-2.62,4.43-4.27s-5.75-5.32-5.8-11.22a20.23,20.23,0,0,0-1.82-7.34,32.24,32.24,0,0,0,4.37-1s-.79-.3-2.14-.93a34.54,34.54,0,0,0-3.74-6.37,8.26,8.26,0,0,0,2.11-1.17.38.38,0,0,0,0-.54.37.37,0,0,0-.53-.06,7.43,7.43,0,0,1-2.12,1.12,22.42,22.42,0,0,0-7.42-6.28c-8.52-4.26-14-4.13-25-1.25a21.81,21.81,0,0,0-4.08,1.55c-.16-1.28-.42-3.54-.42-3.54a28.08,28.08,0,0,0-6,8.22c-.41.42-.8.84-1.18,1.27a19.16,19.16,0,0,0-7.55,10.12,10.59,10.59,0,0,1,2.24-1.37c-.11.27-.22.54-.31.8-1.24,3.5-1.11,9-.47,14.17a29,29,0,0,0-.55,6.74s.61-.57,1.43-1.27a41.13,41.13,0,0,0,1.74,6.52A24.89,24.89,0,0,1,97,175l1.49-.15a29.38,29.38,0,0,1-1.14,8.26c-.3,1.06-.88,2.59-1.24,3.5a29.28,29.28,0,0,0-3.92,2c-10.82-1.11-23.67,2.84-34.81,14.81-12.18,13.09-17.72,21.5-19.75,27.13a12.28,12.28,0,0,0-1.3,3.78c-1.69,8.68,17.32,28.14,27.79,37.42l.38,4.72-1.77,2.07a1.64,1.64,0,0,0,.37,2.52,7,7,0,0,0,4.82,1l5.06-.76a7.3,7.3,0,0,0,4.69-2.78c20.91,8.48,53,5.52,69.67-6.47l-1.83-6.38,21.26-2.39.05-.77,6.72,1.38a18.91,18.91,0,0,0,11.05-1l9.68-4A.86.86,0,0,0,194.27,257.22ZM73.65,250.11c-.7-1.35-1.34-2.57-1.93-3.67A16.8,16.8,0,0,0,70.18,243a.61.61,0,0,0-.48-.29v0a14,14,0,0,0,1.48-1c1.92-.8,3.87-1.7,5.81-2.69Z"/><path class="cls-2" d="M363.45,223.58a23.85,23.85,0,0,1-.49-2.52c-1.78-12.42-4.58-20.5-11.35-20.69-3.62-3.85-9.67-6.43-19.36-8.63l.37-.51-.34-4.43-1.16,1.11a37.53,37.53,0,0,1,1.41-13.08c.75-.3,1.76-.72,3-1.29,6.53-2.51,19.12-18,15-31.06a13.86,13.86,0,1,0-14.91-17.39c-11.21-6.39-22.23-2.18-27.42-.36-3.83,1.34-6,2.8-7.15,4.14v0a11.66,11.66,0,0,0-2.65,7.64c-2.42,4-3.58,8.36-3.28,10.79.47,3.73-5.83,6.31-7,11.94-.51,2.44,2.18,3.09,3.7,3.67,2.72,1-.6,6.09,2.51,11.07,2.13,3.41,4.93,2.52,13.84,2.92l.21,9.4-2.37.35v.11l-.17,0-.5,4a38.92,38.92,0,0,0-7.63.65,14.55,14.55,0,0,0-2.6-.88c-11.65,1.94-20.49,19.58-26.78,33.69-1.56,2.54-7.14,3.4-6.46,7.13,0,0-4.84-2.25-8.19-2.49l-18.14-17.11-1.39.87L224.9,205l-9.8-7.5a3.31,3.31,0,0,0-.06,3.8l1.59,2.36a1.08,1.08,0,0,1-.85,1.69l-7.92.31a9.74,9.74,0,0,1-5.25-1.3l-3.16-1.82a12.27,12.27,0,0,0-6.12-1.63h-2.76a.86.86,0,0,0-.55,1.52L201.7,212a17.33,17.33,0,0,0,8.82,3.8l11.32,1.42,3.26,2.18a3.79,3.79,0,0,0-.88,1.32c-1.19,4.26,32.3,36.47,40.23,39,6.35,2.05,14.11-8,16.95-12.14,1.39-1.57,2.82-3.29,4.26-5.09,3.06,12.28,7,24.24,8.89,32.62.63,2.79,13.63,4.15,24.64,3.25a65.55,65.55,0,0,0,16-3.51s3.8-7.65,8.18-17.61c2.41,5.42,4.58,9.67,5.95,11.34,4.6,5.63,2.36,7.93,15.15,7.67C376.05,276.05,365.33,231.22,363.45,223.58Z"/><path class="cls-2" d="M164.22,139.78H165l-.94,12,12.87-12h66.93a9.78,9.78,0,0,0,9.78-9.78v-5.69h19.05l11.85,11.07-.87-11.14a9.78,9.78,0,0,0,8.61-9.71V63.27a9.78,9.78,0,0,0-9.78-9.78H202.86a9.78,9.78,0,0,0-9.78,9.78V69H164.22a9.78,9.78,0,0,0-9.78,9.78V130A9.78,9.78,0,0,0,164.22,139.78Z"/><path class="cls-3" d="M125.8,185.87c16.28,1.88,20.62,13.47,20.62,22.67s-4.34,12.27-5.62,18.67-17.13-11.51-17.13-11.51l-5.37-14.83Z"/><path class="cls-3" d="M67,272.29,79.66,230.1l0-24.61c2.56-11.37,15.73-26.6,42.92-19.52h0a27.16,27.16,0,0,1,15.86,15.88l7.86,21.46a16.35,16.35,0,0,1-2.07,15.15h0a16.36,16.36,0,0,0-2.44,14l5.6,19.55C127.43,286.33,85.64,287.8,67,272.29Z"/><path class="cls-3" d="M105.53,216.68a16.87,16.87,0,0,0-8.93-27.33c-11.59-2.8-26.51.42-39.2,14.06C35.31,227.17,35,235.52,38,239.8c10.88,15.51,47.75.06,67.24-22.81Z"/><path class="cls-3" d="M65.8,236c-19.43-6.26-27.22-13.08-29.45-1.68s31.33,41.46,34.23,42.5,16-1.71,6.25-20.59S65.8,236,65.8,236Z"/><path class="cls-4" d="M71.34,238.37c-2.21,1-8,.85-10.57-.34"/><path class="cls-4" d="M62.82,244.68c3.92-1.2,6.65-2.22,8.69-4.09"/><path class="cls-4" d="M69.64,243.31c2.89,4.78,3.06,13.3,5.11,15.85s-2.22,6.48-10.06,8.7"/><path class="cls-5" d="M75,264.75l-9.71,4.78a2.1,2.1,0,0,0-1.15,2l.39,4.89-1.77,2.07a1.64,1.64,0,0,0,.37,2.52,7,7,0,0,0,4.82,1l5.06-.76a7.27,7.27,0,0,0,6-5.46l1.33-5.41.61,0a6.27,6.27,0,0,0,4-1l1.06-.69-9.43-4.08A1.86,1.86,0,0,0,75,264.75Z"/><polygon class="cls-6" points="306.04 186.63 310.72 185.94 311.66 191.74 305.78 191.91 306.04 186.63"/><path class="cls-7" d="M224.9,205l-9.8-7.5a3.31,3.31,0,0,0-.06,3.8l1.59,2.36a1.08,1.08,0,0,1-.85,1.69l-7.92.31a9.74,9.74,0,0,1-5.25-1.3l-3.16-1.82a12.27,12.27,0,0,0-6.12-1.63h-2.76a.86.86,0,0,0-.55,1.52L201.7,212a17.33,17.33,0,0,0,8.82,3.8l11.32,1.42,6.9,4.6,5.62-3.32,1.46-4.6Z"/><line class="cls-8" x1="203.94" y1="210.32" x2="195.08" y2="203.5"/><path class="cls-5" d="M194.27,257.22l-5.48-1.89a.9.9,0,0,0-.46,0l-3.28.57a7.56,7.56,0,0,1-4.33-.5l-5.9-2.52a.28.28,0,0,1,0-.49l2.08-1.38a3.3,3.3,0,0,0,1.17-3.61l-10.21,2.49-10.47,3.69-2.89,6,2.45,3,9.81-.11,6.85,1.41a18.91,18.91,0,0,0,11.05-1l9.68-4A.86.86,0,0,0,194.27,257.22Z"/><path class="cls-3" d="M295.13,190.46c-16.88,2.81-27.87,38.61-33.75,48.83-3,5.26,1.79,13,7.92,17.13s37.54-41.86,38.1-47.55C308.93,193.27,295.13,190.46,295.13,190.46Z"/><path class="cls-3" d="M331.37,191.54c20.26,4.46,25.12,10.34,25.12,25.43s-21.29,57.91-21.29,57.91a65.55,65.55,0,0,1-16,3.51c-11,.9-24-.46-24.64-3.25-4.6-20.2-20.9-61.24-8.63-77.35,6.83-9,23-6.9,23-6.9Z"/><path class="cls-5" d="M95.81,187.41s1.11-2.68,1.56-4.28c3.84-13.71-3.09-19.53-2.34-35.91s21-24,33.06-21.32c13,2.87,18.5,15.94,18.56,21.84s4.39,9.57,5.8,11.22-.61,4.57-4.43,4.27c0,0,3,14.77-9.85,18-9.81,2.42-8.54,2.71-9.55,5.88,0,0,1.52,2.73-.3,3.84C119.58,196.27,95.81,187.41,95.81,187.41Z"/><path class="cls-9" d="M147.61,139.87c-15,2.88-17.29,2.19-21.89.69,0,0-.7,10.95-7.38,17.4S113.73,173.63,97,175a24.89,24.89,0,0,0-1.73-7.84c-1.61-3.92-4.65-19.12-2.15-26.16,1.83-5.16,7.2-14.39,17.28-17.05,10.94-2.88,16.47-3,25,1.25S147.61,139.87,147.61,139.87Z"/><path class="cls-10" d="M145,171c-2.65.48-5.32-.69-7.61-2.13"/><path class="cls-11" d="M140.41,145.34a8.17,8.17,0,0,0-7.41,3.11"/><path class="cls-12" d="M140.76,151.23l.88-.43a2.29,2.29,0,0,1,.93,1.71,2,2,0,0,1-.9,1.72,1.63,1.63,0,0,1-1.86-.14,2,2,0,0,1-.55-1,2.21,2.21,0,0,1,.57-2.24,1.42,1.42,0,0,1,2.09.27C142,151.12,142.08,151.07,140.76,151.23Z"/><path class="cls-11" d="M137.37,153a14,14,0,0,1,3.1-.06"/><path class="cls-13" d="M148,162c-1.25.06-1.76.23-2.1.74"/><line class="cls-14" x1="137.26" y1="156.65" x2="133" y2="154.61"/><path class="cls-9" d="M124.68,146.55c-.81,3.81,0,8.65,2,11.07,0,0-2.42.23-7.15-2.88s2.19-8.19,2.19-8.19Z"/><path class="cls-9" d="M99.62,130.91a19.25,19.25,0,0,0-8.41,10.68s2.62-2.16,4.43-1.71Z"/><path class="cls-9" d="M93.83,149.54c-1.14,5-1.94,9.2-1.71,12.39,0,0,3.52-3.3,5.11-3.87S93.83,149.54,93.83,149.54Z"/><path class="cls-9" d="M140.82,140.84a38.87,38.87,0,0,0,8.38-1.39,62.55,62.55,0,0,1-9.53-4.93Z"/><path class="cls-9" d="M124.48,146.62a16.71,16.71,0,0,0,1.28,6.6,15,15,0,0,1-4.29-1.39Z"/><path class="cls-9" d="M98.09,135.85A26.07,26.07,0,0,1,105.92,122s.46,4,.53,4.36S98.09,135.85,98.09,135.85Z"/><path class="cls-9" d="M111.52,167.51c-2.08,3.41-4.24,6-4.59,8.85l-3.33-5.76,4.83-4.54Z"/><path class="cls-9" d="M112,165.2c-.59,2.29-2.15,5.35-1.85,7.38a9.71,9.71,0,0,1-3.51-5.41C105.94,163.72,112,165.2,112,165.2Z"/><path class="cls-15" d="M120.74,165.49a6.1,6.1,0,0,1-6.45-1.69,6.18,6.18,0,0,1-.75-6.69,5,5,0,0,1,3.12-2.6,3.52,3.52,0,0,1,3.67,1.3"/><path class="cls-14" d="M120.78,161.91a2,2,0,0,1-1.22-1.35,2.08,2.08,0,0,1,.4-1.81,3,3,0,0,0-1.48-1.25,2.38,2.38,0,0,0-1.92.06,2.31,2.31,0,0,0-1.07,2.83"/><path class="cls-16" d="M125.58,135.68c6.25,2.5,12.45,2,15.91.28"/><path class="cls-16" d="M134.62,132.55c3.89.49,8.24,0,10.57-1.87"/><path class="cls-16" d="M99.49,136.43c-3.63,4.3-4.14,7.11-4,11.33"/><path class="cls-16" d="M120.47,141.59c-.57,2-1.13,5.91.17,8.75"/><path class="cls-16" d="M132.8,127.24c-2.39,1.45-8.78,3.41-11.76,3.07"/><path class="cls-16" d="M107.49,162.27c-.51,3-2.22,5.54-5,8"/><path class="cls-17" d="M335.78,173.45c-3,1.36-4.72,1.93-4.72,1.93l1.28-3.67,3.44,1.74"/><path class="cls-17" d="M301.09,128.85a11.59,11.59,0,0,0-2.55,8.82l4.51-4.78Z"/><path class="cls-7" d="M308.19,176.88c-8.91-.4-11.71.49-13.84-2.92-3.11-5,.21-10-2.51-11.07-1.52-.58-4.21-1.23-3.7-3.67,1.19-5.63,7.49-8.21,7-11.94-.6-4.83,4.57-17.15,14-19.79,13.07-3.66,28.12.31,32.5,8.18,4.71,8.49,4.14,21.33-4.65,31.15-7.16,8-6.05,19.62-5.64,24.72a18.72,18.72,0,0,1-10.72,5,24.2,24.2,0,0,1-12.06-2Z"/><path class="cls-17" d="M300.3,133.7c2.84,3.64,13.63,8,18.06,8s.12,7.38,2.05,8.75c7.43,5.24.68,11.7.68,11.7.23,5.57,6.7,10,12.16,11.71s25.13-19.8,15.57-35.23c-14.66-23.63-33.31-16.4-40.57-13.86C296.89,128.7,300.3,133.7,300.3,133.7Z"/><path class="cls-18" d="M300.65,148.59l-.72-.67a2.28,2.28,0,0,0-1.4,1.38,2,2,0,0,0,.36,1.93,1.66,1.66,0,0,0,1.85.41,2,2,0,0,0,.81-.76,2.24,2.24,0,0,0,.1-2.34,1.45,1.45,0,0,0-2.11-.35C299.48,148.12,299.42,148,300.65,148.59Z"/><path class="cls-8" d="M303.77,151.06a14.28,14.28,0,0,0-3-1"/><path class="cls-19" d="M319.41,151.72a3.5,3.5,0,0,1,3.67-1.3A4.94,4.94,0,0,1,326.2,153a6.17,6.17,0,0,1-.75,6.69,6.06,6.06,0,0,1-6.45,1.69"/><path class="cls-20" d="M319,157.82a2,2,0,0,0,1.22-1.35,2.07,2.07,0,0,0-.4-1.81,3.18,3.18,0,0,1,1.48-1.26,2.42,2.42,0,0,1,1.92.06,2.32,2.32,0,0,1,1.07,2.84"/><path class="cls-8" d="M298.88,143.19c1.7-.57,6.36-.17,8.58,1.14"/><path class="cls-8" d="M291.94,161.43c.86-.34,1.65,1.14,3.13,1"/><circle class="cls-17" cx="349.04" cy="128.7" r="13.86"/><path class="cls-21" d="M305.5,130.6c.18-1.23,1.59-1.88,2.84-2s2.54.16,3.7-.29,2.2-1.81,3.55-2.18a8.12,8.12,0,0,1,2.78,0,9.84,9.84,0,0,0,5.69-1.28"/><path class="cls-21" d="M331.44,169.74c.7.38,1.55-.35,1.77-1.11a20.5,20.5,0,0,1,.46-2.36c.51-1.2,2.63-.91,3.9-1.23s2.66-.64,3.45-1.68,0-3.05.23-4.22"/><path class="cls-21" d="M317.07,136a2.75,2.75,0,0,1,2.44-2.41,16.88,16.88,0,0,1,1.73.1,3.87,3.87,0,0,0,2.72-1.07"/><path class="cls-21" d="M337,152.21a7.35,7.35,0,0,0,2.13-.77,2.47,2.47,0,0,0,1.23-1.81c.05-.71-.31-1.42-.19-2.13s1-1.46,1.09-2.31a3.58,3.58,0,0,0-.51-1.82,2,2,0,0,1-.12-1.83"/><path class="cls-21" d="M347.77,143a1.19,1.19,0,0,1,.57,1.52c-.14.28-.38.5-.52.77a2.21,2.21,0,0,0,.18,1.87,4.59,4.59,0,0,1,.63,1.83"/><path class="cls-3" d="M363.45,223.58a23.85,23.85,0,0,1-.49-2.52c-1.8-12.57-4.64-20.71-11.59-20.71-15.59,0-22,7.16-21.22,17.13.83,10.74,14.58,45.51,19.18,51.13s2.36,7.93,15.15,7.67C376.05,276.05,365.33,231.22,363.45,223.58Z"/><path class="cls-3" d="M262.4,237l-26.84-25.31s-10.63,6.52-11.34,9c-1.19,4.26,32.3,36.47,40.23,39s18.06-13.81,18.06-13.81Z"/><path class="cls-4" d="M347.79,202.31c-5.62,3.41-16,14.32-11.93,29.48"/><path class="cls-4" d="M352.74,209c2,11.59,11.25,58.8,11.25,58.8"/><polygon class="cls-7" points="330.24 192.42 314.22 209.47 308.59 194.58 328.53 190.21 330.24 192.42"/><path class="cls-3" d="M268.37,224.12c-1.54,2.56-7.16,3.41-6.48,7.16,0,0-7.67-3.58-10.4-2.21s10.91,11.25,10.91,11.25l10.74-9Z"/><polygon class="cls-22" points="305.78 196.51 313.62 204.01 327.51 198.22 312.34 235.88 305.78 196.51"/><polygon class="cls-6" points="332.62 191.23 332.28 186.8 314.22 204.18 317.45 212.02 332.62 191.23"/><polygon class="cls-6" points="307.06 186.88 305.86 186.71 305.01 193.44 309.1 211.34 314.22 204.18 307.06 186.88"/><polyline class="cls-4" points="329.64 197.11 330.83 222.25 320.78 226.09 319.84 240.15 313.45 267.67"/><polyline class="cls-4" points="303.05 193.7 297.85 221.31 305.27 224.13 302.8 241.68 308 266.82"/><polyline class="cls-4" points="281.49 231.54 264.62 247.39 235.22 223.87"/><path class="cls-23" d="M282.5,53.49H202.86a9.78,9.78,0,0,0-9.78,9.78V69h50.78a9.78,9.78,0,0,1,9.78,9.78v45.57h19.05l11.85,11.07-.87-11.14a9.78,9.78,0,0,0,8.61-9.71V63.27A9.78,9.78,0,0,0,282.5,53.49Z"/><path class="cls-23" d="M193.08,114.53V69H164.22a9.78,9.78,0,0,0-9.78,9.78V130a9.78,9.78,0,0,0,9.78,9.78H165l-.94,12,12.87-12h66.93a9.78,9.78,0,0,0,9.78-9.78v-5.69H202.86A9.78,9.78,0,0,1,193.08,114.53Z"/><path class="cls-24" d="M243.86,69H193.08v45.57a9.78,9.78,0,0,0,9.78,9.78h50.78V78.74A9.78,9.78,0,0,0,243.86,69Z"/><path class="cls-25" d="M294.3,166.79c3.08.17,7.77-2.17,8.44-2.6l-3.95,5.08-1.59.34Z"/><polygon class="cls-18" points="299.88 165.77 300.09 166.94 301.2 165.56 299.88 165.77"/><line class="cls-4" x1="142.84" y1="214.93" x2="137.98" y2="204.71"/><path class="cls-4" d="M86,233.09s6.48-3.75,7.84-9.89"/><polygon class="cls-3" points="140.54 246.72 167.64 249.96 166.79 263.25 137.99 266.49 140.54 246.72"/><path class="cls-4" d="M143.06,263.53A23.33,23.33,0,0,1,140,252.26"/><path class="cls-4" d="M97.2,191.56c5.23,2.95,10.86,5.39,16.81,6.18s12.3-.2,17.24-3.63"/><path class="cls-26" d="M133.8,180.94l-13.25-2.67s6.88,8.15,7.9,6.88,1.78-3.25,5.29-3.44C135.14,181.63,133.8,180.94,133.8,180.94Z"/><circle class="cls-27" cx="173.08" cy="123.28" r="4.92"/><circle class="cls-27" cx="185.58" cy="84.45" r="4.92"/><circle class="cls-27" cx="217.78" cy="75.74" r="4.92"/><circle class="cls-27" cx="240.13" cy="76.5" r="4.92"/><circle class="cls-27" cx="274.41" cy="73.47" r="4.92"/><circle class="cls-27" cx="265.7" cy="103.77" r="4.92"/><circle class="cls-27" cx="225.71" cy="103.72" r="4.92"/><circle class="cls-27" cx="224.52" cy="122.17" r="4.92"/><circle class="cls-27" cx="201.82" cy="119.57" r="4.92"/><line class="cls-28" x1="173.08" y1="123.28" x2="185.2" y2="86.35"/><line class="cls-28" x1="187.09" y1="85.4" x2="225.73" y2="104.53"/><line class="cls-28" x1="240.7" y1="77.26" x2="225.36" y2="103.96"/><line class="cls-28" x1="273.85" y1="73.47" x2="240.13" y2="77.26"/><line class="cls-28" x1="266.65" y1="105.86" x2="273.85" y2="73.47"/><line class="cls-28" x1="224.6" y1="104.34" x2="266.84" y2="104.91"/><line class="cls-28" x1="219.11" y1="75.74" x2="224.6" y2="103.59"/><line class="cls-28" x1="185.2" y1="86.35" x2="203.38" y2="120.06"/><line class="cls-28" x1="173.65" y1="123.09" x2="203.01" y2="118.93"/><line class="cls-28" x1="225.73" y1="104.53" x2="224.22" y2="122.53"/><line class="cls-28" x1="202.25" y1="118.55" x2="225.73" y2="121.58"/><line class="cls-28" x1="217.21" y1="76.12" x2="240.7" y2="77.26"/></g></svg>