<svg width="315" height="227" viewBox="0 0 315 227" fill="none" xmlns="http://www.w3.org/2000/svg">
<g clip-path="url(#clip0)">
<path d="M313.956 143.131C309.956 196.217 246.101 228.796 173.124 226.19C80.559 222.884 -39.807 159.23 12.835 73.719C37.772 33.213 102.111 53.119 125.559 39.185C215.477 -14.244 324.476 3.513 313.956 143.131Z" fill="#F8E8F0"/>
<path d="M139.1 175.568L134.429 173.957C134.304 173.914 134.17 173.903 134.039 173.926L131.239 174.416C129.99 174.636 128.705 174.488 127.539 173.989L122.509 171.84C122.469 171.823 122.435 171.796 122.409 171.761C122.384 171.726 122.368 171.685 122.364 171.642C122.36 171.599 122.368 171.556 122.387 171.517C122.405 171.478 122.434 171.445 122.47 171.421L124.237 170.247C124.7 169.899 125.044 169.416 125.222 168.866C125.401 168.315 125.406 167.723 125.237 167.169L116.53 169.287L116.307 169.366L93.844 166.68C94.035 164.119 94.9242 161.66 96.415 159.569C97.7404 157.723 98.5944 155.581 98.9024 153.33C99.2104 151.078 98.963 148.786 98.182 146.652L96.591 142.308C97.7581 139.718 98.3451 136.904 98.311 134.063C98.311 126.728 95.07 117.616 83.311 115.153C83.883 113.008 83.585 112.643 91.271 110.742C102.252 108.027 99.671 95.432 99.671 95.432C102.931 95.684 104.654 93.193 103.45 91.788C102.246 90.383 98.55 87.256 98.505 82.224C98.3878 80.06 97.8633 77.9375 96.959 75.968C98.2169 75.7833 99.4607 75.5134 100.682 75.16C100.682 75.16 100.003 74.9 98.853 74.366C97.9934 72.4432 96.9264 70.6201 95.671 68.929C96.3158 68.6883 96.9204 68.3512 97.464 67.929C97.5316 67.8745 97.5748 67.7954 97.5841 67.709C97.5934 67.6226 97.568 67.5361 97.5135 67.4685C97.459 67.4009 97.3798 67.3577 97.2935 67.3484C97.2071 67.3391 97.1206 67.3645 97.053 67.419C96.5089 67.8331 95.9009 68.1556 95.253 68.374C93.5613 66.1499 91.4026 64.3237 88.929 63.024C81.659 59.389 76.95 59.502 67.616 61.958C66.4172 62.2783 65.2542 62.7199 64.145 63.276C64.009 62.189 63.783 60.261 63.783 60.261C61.6688 62.2625 59.9402 64.6352 58.683 67.261C58.3323 67.617 57.9963 67.9793 57.675 68.348C54.617 70.4117 52.3484 73.4506 51.239 76.969C51.8237 76.5033 52.4639 76.112 53.145 75.804C53.053 76.037 52.963 76.268 52.886 76.485C51.826 79.472 51.934 84.176 52.479 88.563C52.0995 90.4539 51.9434 92.3827 52.014 94.31C52.014 94.31 52.532 93.827 53.232 93.228C53.571 95.1236 54.0684 96.9875 54.719 98.8C55.5656 100.933 56.0633 103.189 56.193 105.481C56.6323 105.444 57.0567 105.402 57.466 105.353C57.4768 107.735 57.1471 110.106 56.487 112.394C56.232 113.302 55.736 114.603 55.429 115.382C54.2749 115.858 53.1584 116.42 52.089 117.064C42.867 116.118 31.906 119.484 22.415 129.689C12.031 140.851 7.29999 148.02 5.57399 152.821C5.02721 153.826 4.65333 154.915 4.46799 156.044C3.02299 163.444 19.234 180.034 28.159 187.944L28.486 191.976L26.978 193.736C26.8363 193.889 26.7306 194.071 26.6685 194.27C26.6063 194.469 26.5894 194.68 26.6189 194.886C26.6484 195.092 26.7236 195.289 26.8391 195.463C26.9545 195.636 27.1071 195.782 27.286 195.889C28.5141 196.649 29.9721 196.947 31.4 196.732L35.711 196.083C37.3019 195.841 38.7363 194.989 39.711 193.709C57.545 200.941 84.873 198.409 99.111 188.198L97.551 182.752L115.68 180.714L115.722 180.058L121.455 181.24C124.611 181.891 127.89 181.582 130.869 180.354L139.126 176.954C139.269 176.902 139.393 176.806 139.479 176.68C139.565 176.554 139.61 176.404 139.607 176.252C139.605 176.099 139.554 175.951 139.463 175.829C139.372 175.706 139.245 175.615 139.1 175.568ZM36.27 169.5C35.67 168.351 35.122 167.313 34.622 166.372C34.2954 165.343 33.856 164.354 33.312 163.422C33.2679 163.351 33.2077 163.291 33.1363 163.248C33.0649 163.204 32.9843 163.178 32.901 163.171L32.895 163.159C33.3346 162.912 33.7569 162.635 34.159 162.331C35.802 161.65 37.459 160.88 39.111 160.038L36.27 169.5Z" fill="#E3DEE6" stroke="#E3DEE6" stroke-width="3.745" stroke-miterlimit="10"/>
<path d="M283.34 146.883C283.166 146.176 283.027 145.461 282.923 144.739C281.409 134.146 279.023 127.255 273.25 127.092C270.159 123.81 265.003 121.617 256.743 119.739L257.062 119.302L256.771 115.524L255.782 116.475C255.522 112.715 255.928 108.938 256.982 105.319C257.619 105.067 258.482 104.708 259.565 104.219C265.13 102.073 275.865 88.889 272.371 77.734C274.507 77.4975 276.539 76.6829 278.246 75.3777C279.954 74.0725 281.274 72.3263 282.063 70.327C282.852 68.3277 283.081 66.151 282.725 64.0313C282.369 61.9116 281.441 59.9292 280.042 58.2974C278.643 56.6656 276.826 55.4463 274.785 54.7707C272.745 54.0951 270.559 53.9888 268.462 54.4633C266.366 54.9377 264.439 55.975 262.888 57.4634C261.337 58.9517 260.222 60.8349 259.662 62.91C250.099 57.463 240.707 61.052 236.282 62.601C233.015 63.744 231.182 64.986 230.187 66.131L230.178 66.112C228.67 67.9448 227.869 70.2573 227.92 72.63C225.853 76.07 224.864 79.757 225.12 81.825C225.52 85.006 220.149 87.208 219.135 92.012C218.697 94.087 220.989 94.645 222.291 95.141C224.605 96.023 221.779 100.328 224.43 104.574C226.244 107.48 228.63 106.721 236.23 107.067L236.409 115.081L234.39 115.375V115.467L234.249 115.447L233.82 118.837C231.637 118.808 229.457 118.994 227.311 119.393C226.597 119.075 225.855 118.824 225.095 118.644C215.168 120.299 207.63 135.337 202.262 147.368C200.933 149.529 196.179 150.263 196.762 153.447C194.546 152.411 192.194 151.694 189.777 151.319L174.3 136.74C174.3 136.74 173.832 137.028 173.121 137.484L165.221 131L156.865 124.606C156.525 125.075 156.337 125.637 156.327 126.216C156.317 126.795 156.485 127.363 156.809 127.843L158.17 129.86C158.262 129.996 158.316 130.155 158.327 130.32C158.337 130.484 158.303 130.648 158.229 130.795C158.154 130.942 158.042 131.067 157.903 131.156C157.765 131.244 157.605 131.295 157.44 131.301L150.686 131.562C149.122 131.623 147.572 131.242 146.215 130.462L143.521 128.911C141.935 127.995 140.136 127.513 138.304 127.511H135.95C135.799 127.511 135.651 127.557 135.527 127.644C135.403 127.731 135.31 127.854 135.259 127.997C135.207 128.139 135.202 128.294 135.242 128.44C135.282 128.585 135.367 128.715 135.484 128.811L145.441 137.011C147.589 138.78 150.194 139.903 152.955 140.25L162.607 141.463L165.393 143.32C165.067 143.637 164.811 144.02 164.641 144.442C163.624 148.075 192.178 175.542 198.941 177.719C204.354 179.465 210.976 170.864 213.397 167.372C214.576 166.031 215.797 164.572 217.029 163.029C219.638 173.5 222.977 183.7 224.604 190.841C225.146 193.217 236.227 194.38 245.618 193.611C250.273 193.192 254.858 192.188 259.262 190.623C259.262 190.623 262.501 184.102 266.241 175.609C268.288 180.228 270.141 183.851 271.308 185.276C275.232 190.071 273.325 192.037 284.224 191.819C294.083 191.621 284.947 153.4 283.34 146.883Z" fill="#E3DEE6" stroke="#E3DEE6" stroke-width="3.745" stroke-miterlimit="10"/>
<path d="M113.481 75.436H114.15L113.35 85.673L124.318 75.436H181.38C183.591 75.436 185.712 74.5576 187.275 72.9942C188.839 71.4307 189.717 69.3101 189.717 67.099V62.251H205.96L216.068 71.685L215.326 62.185C217.35 61.9413 219.214 60.9647 220.567 59.4398C221.919 57.9149 222.666 55.9474 222.667 53.909V10.21C222.667 7.99881 221.789 5.87816 220.225 4.31451C218.662 2.75086 216.541 1.87227 214.33 1.87201H146.43C145.335 1.87201 144.251 2.08769 143.239 2.50672C142.228 2.92576 141.309 3.53995 140.535 4.31421C139.76 5.08848 139.146 6.00766 138.727 7.01927C138.308 8.03088 138.093 9.1151 138.093 10.21V15.057H113.481C111.27 15.0573 109.15 15.9357 107.586 17.4992C106.023 19.0626 105.144 21.183 105.144 23.394V67.1C105.145 69.3109 106.023 71.431 107.586 72.9942C109.15 74.5574 111.27 75.4357 113.481 75.436Z" fill="#E3DEE6" stroke="#E3DEE6" stroke-width="3.745" stroke-miterlimit="10"/>
<path d="M80.727 114.736C94.605 116.336 98.31 126.216 98.31 134.063C98.31 141.91 94.61 144.526 93.51 149.976C92.41 155.426 78.91 140.167 78.91 140.167L74.332 127.524L80.727 114.736Z" fill="#270041"/>
<path d="M30.593 188.412L41.393 152.446L41.365 131.457C43.553 121.768 54.776 108.778 77.958 114.82C81.0465 115.982 83.8508 117.791 86.183 120.126C88.5151 122.461 90.3212 125.267 91.48 128.357L98.18 146.652C98.9609 148.786 99.2081 151.078 98.9001 153.33C98.5921 155.581 97.7383 157.723 96.413 159.569C95.1876 161.276 94.3639 163.238 94.0035 165.308C93.6432 167.378 93.7554 169.503 94.332 171.524L99.105 188.194C82.119 200.383 46.486 201.635 30.593 188.412Z" fill="#270041"/>
<path d="M63.446 141C65.0364 139.126 66.1202 136.876 66.5942 134.465C67.0682 132.053 66.9165 129.56 66.1537 127.224C65.3908 124.887 64.0421 122.785 62.2363 121.118C60.4305 119.451 58.2277 118.274 55.838 117.7C45.954 115.308 33.23 118.06 22.415 129.688C3.576 149.942 3.331 157.062 5.893 160.714C15.169 173.937 46.601 160.76 63.221 141.267L63.446 141Z" fill="#270041"/>
<path d="M29.572 157.472C13.011 152.133 6.372 146.32 4.472 156.044C2.572 165.768 31.181 191.385 33.651 192.273C36.121 193.161 47.256 190.816 38.98 174.722C30.704 158.628 29.572 157.472 29.572 157.472Z" fill="#270041"/>
<path d="M34.3 159.494C32.411 160.366 27.47 160.22 25.29 159.203" stroke="#735983" stroke-width="1.092" stroke-miterlimit="10" stroke-linecap="round"/>
<path d="M27.033 164.87C30.375 163.853 32.7 162.981 34.444 161.383" stroke="#735983" stroke-width="1.092" stroke-miterlimit="10" stroke-linecap="round"/>
<path d="M32.846 163.708C35.316 167.777 35.461 175.043 37.205 177.222C38.949 179.401 35.316 182.744 28.631 184.633" stroke="#735983" stroke-width="1.092" stroke-miterlimit="10" stroke-linecap="round"/>
<path d="M37.411 181.983L29.132 186.062C28.8129 186.219 28.5485 186.469 28.3731 186.778C28.1976 187.087 28.1192 187.442 28.148 187.797L28.486 191.972L26.978 193.732C26.8363 193.885 26.7306 194.067 26.6685 194.266C26.6063 194.465 26.5894 194.676 26.6189 194.882C26.6485 195.088 26.7237 195.285 26.8391 195.459C26.9545 195.632 27.1072 195.778 27.286 195.885C28.5141 196.645 29.9721 196.943 31.4 196.728L35.711 196.079C36.9265 195.895 38.0602 195.355 38.9682 194.526C39.8762 193.698 40.5175 192.618 40.811 191.424L41.946 186.808L42.464 186.857C43.6687 186.97 44.8762 186.673 45.892 186.016L46.792 185.433L38.754 181.95C38.5411 181.858 38.3108 181.813 38.0789 181.819C37.847 181.824 37.6191 181.88 37.411 181.983Z" fill="#E8BA8B"/>
<path d="M234.393 115.379L238.389 114.797L239.188 119.738L234.175 119.883L234.393 115.379Z" fill="#DED9E2"/>
<path d="M165.222 131L156.867 124.606C156.526 125.074 156.338 125.636 156.328 126.216C156.317 126.795 156.486 127.363 156.81 127.843L158.171 129.86C158.263 129.996 158.317 130.155 158.328 130.32C158.338 130.484 158.304 130.648 158.23 130.795C158.155 130.942 158.043 131.067 157.904 131.156C157.766 131.244 157.606 131.295 157.441 131.301L150.687 131.562C149.123 131.623 147.573 131.242 146.216 130.462L143.522 128.911C141.936 127.995 140.137 127.513 138.305 127.511H135.95C135.799 127.511 135.651 127.557 135.527 127.644C135.403 127.731 135.31 127.854 135.259 127.997C135.207 128.139 135.202 128.294 135.242 128.44C135.282 128.585 135.367 128.715 135.484 128.811L145.441 137.011C147.589 138.78 150.194 139.903 152.955 140.25L162.607 141.463L168.492 145.386L173.292 142.553L174.531 138.633L165.222 131Z" fill="#A35E38"/>
<path d="M147.348 135.578L139.792 129.765" stroke="#7A4327" stroke-width="0.983" stroke-miterlimit="10" stroke-linecap="round"/>
<path d="M139.1 175.568L134.429 173.957C134.304 173.914 134.17 173.903 134.039 173.926L131.239 174.416C129.99 174.636 128.705 174.487 127.539 173.989L122.51 171.841C122.47 171.824 122.436 171.797 122.411 171.762C122.385 171.727 122.37 171.686 122.366 171.643C122.362 171.6 122.369 171.556 122.388 171.517C122.406 171.478 122.435 171.445 122.471 171.421L124.238 170.247C124.701 169.899 125.045 169.416 125.224 168.866C125.402 168.315 125.407 167.723 125.238 167.169L116.531 169.287L107.606 172.435L105.14 177.579L107.234 180.129L115.592 180.029L121.438 181.229C124.594 181.88 127.873 181.571 130.852 180.343L139.109 176.943C139.249 176.89 139.37 176.796 139.455 176.672C139.539 176.549 139.584 176.402 139.583 176.252C139.582 176.103 139.535 175.957 139.449 175.834C139.363 175.712 139.241 175.619 139.1 175.568Z" fill="#E8BA8B"/>
<path d="M225.092 118.648C210.706 121.048 201.333 151.562 196.32 160.281C193.744 164.761 197.846 171.398 203.077 174.881C208.308 178.364 235.077 139.188 235.555 134.337C236.863 121.046 225.092 118.648 225.092 118.648Z" fill="#270041"/>
<path d="M256 119.569C273.269 123.369 277.41 128.384 277.41 141.245C277.41 154.106 259.261 190.623 259.261 190.623C254.857 192.188 250.273 193.192 245.617 193.61C236.227 194.38 225.145 193.217 224.603 190.841C220.68 173.621 206.787 138.629 217.249 124.897C223.068 117.26 236.867 119.012 236.867 119.012L256 119.569Z" fill="#270041"/>
<path d="M55.164 116.044C55.164 116.044 56.104 113.759 56.486 112.394C59.761 100.711 53.852 95.744 54.497 81.784C55.142 67.824 72.362 61.328 82.684 63.6C93.786 66.05 98.455 77.192 98.5 82.224C98.545 87.256 102.242 90.384 103.445 91.788C104.648 93.192 102.926 95.688 99.666 95.432C99.666 95.432 102.249 108.032 91.266 110.742C82.908 112.809 83.993 113.054 83.132 115.754C83.132 115.754 84.425 118.084 82.875 119.033C75.423 123.6 55.164 116.044 55.164 116.044Z" fill="#E8BA8B"/>
<path d="M99.324 75.515C86.552 77.971 84.587 77.381 80.657 76.104C80.657 76.104 80.067 85.438 74.369 90.94C68.671 96.442 70.439 104.302 56.193 105.481C56.0633 103.189 55.5656 100.933 54.719 98.8C53.343 95.459 50.756 82.5 52.887 76.494C54.448 72.094 59.02 64.224 67.612 61.963C76.946 59.506 81.655 59.393 88.925 63.028C96.195 66.663 99.324 75.515 99.324 75.515Z" fill="#DBDBDB"/>
<path d="M97.136 102.041C94.874 102.446 92.597 101.449 90.642 100.221" stroke="#C48D5F" stroke-width="0.896" stroke-miterlimit="10" stroke-linecap="round"/>
<path d="M93.185 80.179C91.9934 80.0394 90.786 80.2101 89.6798 80.6743C88.5736 81.1386 87.606 81.8808 86.871 82.829" stroke="#C48D5F" stroke-width="0.971" stroke-miterlimit="10" stroke-linecap="round"/>
<path d="M93.482 85.2L94.231 84.83C94.463 84.9992 94.6544 85.2179 94.7914 85.4703C94.9284 85.7226 95.0075 86.0023 95.023 86.289C95.0343 86.5783 94.9699 86.8654 94.8363 87.1222C94.7027 87.3789 94.5044 87.5964 94.261 87.753C94.0165 87.9004 93.7321 87.9679 93.4475 87.946C93.1629 87.9242 92.8921 87.8141 92.673 87.631C92.4445 87.4122 92.2826 87.1331 92.206 86.826C92.1025 86.494 92.0933 86.1398 92.1795 85.8028C92.2657 85.4659 92.4438 85.1596 92.694 84.918C92.8225 84.808 92.9726 84.7261 93.1346 84.6777C93.2967 84.6293 93.4671 84.6154 93.6349 84.637C93.8027 84.6586 93.964 84.7151 94.1086 84.803C94.2531 84.8908 94.3776 85.0081 94.474 85.147C94.543 85.105 94.613 85.06 93.482 85.2Z" fill="#C48D5F"/>
<path d="M90.589 86.7C91.4664 86.5848 92.3541 86.5693 93.235 86.654" stroke="#C48D5F" stroke-width="0.971" stroke-miterlimit="10" stroke-linecap="round"/>
<path d="M99.63 94.368C98.565 94.416 98.13 94.562 97.838 94.998" stroke="#C48D5F" stroke-width="0.655" stroke-miterlimit="10" stroke-linecap="round"/>
<path d="M90.5 89.824L86.867 88.08" stroke="#C48D5F" stroke-width="0.904" stroke-miterlimit="10" stroke-linecap="round"/>
<path d="M79.772 81.213C79.085 84.455 79.772 88.582 81.443 90.645C81.443 90.645 79.379 90.845 75.351 88.189C71.323 85.533 77.218 81.213 77.218 81.213H79.772Z" fill="#DBDBDB"/>
<path d="M58.409 67.872C54.9933 69.9366 52.4452 73.1731 51.24 76.978C51.24 76.978 53.468 75.138 55.018 75.525L58.409 67.872Z" fill="#DBDBDB"/>
<path d="M53.468 83.76C52.499 88.022 51.821 91.607 52.015 94.32C52.015 94.32 55.015 91.51 56.375 91.026C57.735 90.542 53.468 83.76 53.468 83.76Z" fill="#DBDBDB"/>
<path d="M93.537 76.339C95.9539 76.2075 98.3491 75.8122 100.68 75.16C97.8571 73.9927 95.1397 72.5848 92.558 70.952L93.537 76.339Z" fill="#DBDBDB"/>
<path d="M79.607 81.273C79.5825 83.2028 79.9514 85.1174 80.691 86.9C79.4213 86.6905 78.1905 86.2906 77.04 85.714L79.607 81.273Z" fill="#DBDBDB"/>
<path d="M57.108 72.088C58.041 67.5465 60.374 63.4117 63.779 60.265C63.779 60.265 64.179 63.633 64.233 63.977C64.287 64.321 57.108 72.088 57.108 72.088Z" fill="#DBDBDB"/>
<path d="M68.554 99.08C66.778 101.99 64.94 104.166 64.643 106.623L61.8 101.711L65.921 97.845L68.554 99.08Z" fill="#DBDBDB"/>
<path d="M69 97.109C68.5 99.064 67.169 101.67 67.425 103.4C65.9277 102.249 64.8691 100.621 64.425 98.786C63.8 95.848 69 97.109 69 97.109Z" fill="#DBDBDB"/>
<path d="M76.414 97.355C75.4565 97.6763 74.426 97.711 73.449 97.4551C72.472 97.1991 71.591 96.6635 70.914 95.914C70.2672 95.1278 69.8624 94.1706 69.749 93.1588C69.6356 92.147 69.8183 91.124 70.275 90.214C70.5375 89.6778 70.9106 89.2032 71.3698 88.8216C71.829 88.44 72.3638 88.16 72.939 88C73.5112 87.8552 74.1135 87.8831 74.6699 88.0803C75.2263 88.2775 75.7117 88.6351 76.065 89.108" fill="#E8BA8B"/>
<path d="M76.414 97.355C75.4565 97.6763 74.426 97.711 73.449 97.4551C72.472 97.1991 71.591 96.6635 70.914 95.914C70.2672 95.1278 69.8624 94.1706 69.749 93.1588C69.6356 92.147 69.8183 91.124 70.275 90.214C70.5375 89.6778 70.9106 89.2032 71.3698 88.8216C71.829 88.44 72.3638 88.16 72.939 88C73.5112 87.8552 74.1135 87.8831 74.6699 88.0803C75.2263 88.2775 75.7117 88.6351 76.065 89.108" stroke="#C48D5F" stroke-width="0.904" stroke-miterlimit="10" stroke-linecap="round"/>
<path d="M76.452 94.31C76.1985 94.2153 75.9715 94.0612 75.79 93.8606C75.6085 93.6599 75.4779 93.4186 75.409 93.157C75.3428 92.8905 75.3394 92.6122 75.3989 92.3442C75.4584 92.0761 75.5793 91.8255 75.752 91.612C75.4552 91.1308 75.0138 90.7559 74.491 90.541C74.229 90.4373 73.9486 90.3885 73.667 90.3976C73.3854 90.4067 73.1087 90.4736 72.854 90.594C72.4364 90.8204 72.1141 91.1894 71.946 91.6337C71.7778 92.0779 71.775 92.5678 71.938 93.014" stroke="#C48D5F" stroke-width="0.904" stroke-miterlimit="10" stroke-linecap="round"/>
<path d="M80.545 71.941C85.874 74.072 91.153 73.636 94.108 72.183" stroke="#B7B7B7" stroke-width="0.655" stroke-miterlimit="10" stroke-linecap="round"/>
<path d="M88.247 69.277C91.565 69.688 95.271 69.277 97.257 67.677" stroke="#B7B7B7" stroke-width="0.655" stroke-miterlimit="10" stroke-linecap="round"/>
<path d="M58.3 72.585C55.2 76.248 54.77 78.646 54.883 82.244" stroke="#B7B7B7" stroke-width="0.655" stroke-miterlimit="10" stroke-linecap="round"/>
<path d="M76.186 76.978C75.702 78.722 75.217 82.016 76.331 84.438" stroke="#B7B7B7" stroke-width="0.655" stroke-miterlimit="10" stroke-linecap="round"/>
<path d="M86.7 64.748C84.666 65.983 79.216 67.654 76.673 67.363" stroke="#B7B7B7" stroke-width="0.655" stroke-miterlimit="10" stroke-linecap="round"/>
<path d="M65.118 94.61C64.682 97.153 63.229 99.333 60.831 101.44" stroke="#B7B7B7" stroke-width="0.655" stroke-miterlimit="10" stroke-linecap="round"/>
<path d="M259.75 104.141C257.183 105.303 255.73 105.788 255.73 105.788L256.82 102.663L259.75 104.141Z" fill="#35261F"/>
<path d="M230.179 66.117C229.323 67.1564 228.689 68.3593 228.314 69.6523C227.939 70.9453 227.832 72.3012 227.999 73.637L231.85 69.568L230.179 66.117Z" fill="#35261F"/>
<path d="M236.233 107.071C228.633 106.725 226.247 107.484 224.433 104.578C221.782 100.332 224.608 96.027 222.294 95.145C220.994 94.645 218.7 94.091 219.138 92.016C220.152 87.216 225.521 85.01 225.123 81.829C224.608 77.718 229.016 67.206 237.054 64.957C248.204 61.838 261.035 65.226 264.762 71.932C268.784 79.171 268.3 90.118 260.8 98.49C254.7 105.304 255.648 115.221 256 119.569C253.498 121.953 250.291 123.462 246.859 123.869C243.341 124.186 239.8 123.597 236.574 122.158L236.233 107.071Z" fill="#A35E38"/>
<path d="M229.5 70.258C231.922 73.358 241.126 77.039 244.9 77.039C248.674 77.039 245 83.339 246.644 84.499C252.98 88.972 247.225 94.477 247.225 94.477C247.419 99.224 252.941 103.003 257.591 104.456C262.241 105.909 279.02 87.577 270.863 74.424C258.363 54.273 242.463 60.439 236.278 62.605C226.594 66 229.5 70.258 229.5 70.258Z" fill="#35261F"/>
<path d="M229.806 82.953L229.187 82.376C228.912 82.4714 228.661 82.627 228.454 82.8315C228.246 83.036 228.087 83.2842 227.987 83.558C227.892 83.8353 227.871 84.1326 227.926 84.4205C227.981 84.7084 228.11 84.9771 228.3 85.2C228.494 85.4143 228.75 85.5629 229.032 85.625C229.314 85.6872 229.609 85.6599 229.875 85.547C230.161 85.4018 230.4 85.178 230.563 84.902C230.76 84.6105 230.873 84.2699 230.888 83.9182C230.903 83.5664 230.821 83.2174 230.649 82.91C230.557 82.7655 230.435 82.6421 230.292 82.5475C230.149 82.453 229.988 82.3895 229.819 82.3613C229.65 82.333 229.477 82.3405 229.311 82.3834C229.145 82.4262 228.99 82.5034 228.856 82.61C228.805 82.548 228.751 82.484 229.806 82.953Z" fill="#7A4327"/>
<path d="M232.463 85.056C231.646 84.6881 230.79 84.4137 229.911 84.238" stroke="#7A4327" stroke-width="0.983" stroke-miterlimit="10" stroke-linecap="round"/>
<path d="M245.8 85.617C246.153 85.1439 246.639 84.7861 247.195 84.5887C247.751 84.3913 248.354 84.3632 248.926 84.508C249.501 84.6685 250.035 84.9487 250.494 85.3303C250.953 85.7119 251.325 86.1861 251.588 86.722C252.045 87.632 252.228 88.6551 252.114 89.667C252 90.6789 251.595 91.636 250.948 92.422C250.271 93.1721 249.39 93.7081 248.413 93.9643C247.436 94.2205 246.406 94.1856 245.448 93.864" fill="#A35E38"/>
<path d="M245.8 85.617C246.153 85.1439 246.639 84.7861 247.195 84.5887C247.751 84.3913 248.354 84.3632 248.926 84.508C249.501 84.6685 250.035 84.9487 250.494 85.3303C250.953 85.7119 251.325 86.1861 251.588 86.722C252.045 87.632 252.228 88.6551 252.114 89.667C252 90.6789 251.595 91.636 250.948 92.422C250.271 93.1721 249.39 93.7081 248.413 93.9643C247.436 94.2205 246.406 94.1856 245.448 93.864" stroke="#7A4327" stroke-width="0.904" stroke-miterlimit="10" stroke-linecap="round"/>
<path d="M245.412 90.819C245.666 90.7247 245.893 90.5708 246.074 90.3703C246.256 90.1698 246.386 89.9286 246.455 89.667C246.521 89.4005 246.525 89.1222 246.465 88.8542C246.406 88.5861 246.285 88.3355 246.112 88.122C246.408 87.6401 246.85 87.265 247.373 87.051C247.635 86.9471 247.915 86.8981 248.197 86.9073C248.479 86.9164 248.755 86.9833 249.01 87.104C249.427 87.3302 249.75 87.699 249.918 88.1431C250.086 88.5872 250.089 89.077 249.926 89.523" stroke="#7A4327" stroke-width="0.904" stroke-miterlimit="10" stroke-linecap="round"/>
<path d="M228.289 78.347C230.769 77.9021 233.326 78.2408 235.604 79.316" stroke="#7A4327" stroke-width="0.983" stroke-miterlimit="10" stroke-linecap="round"/>
<path d="M222.38 93.9C223.106 93.609 223.785 94.869 225.044 94.724" stroke="#7A4327" stroke-width="0.983" stroke-miterlimit="10" stroke-linecap="round"/>
<path d="M271.061 77.814C277.588 77.814 282.88 72.5225 282.88 65.995C282.88 59.4676 277.588 54.176 271.061 54.176C264.534 54.176 259.242 59.4676 259.242 65.995C259.242 72.5225 264.534 77.814 271.061 77.814Z" fill="#35261F"/>
<path d="M233.941 67.613C234.087 66.562 235.296 66.013 236.355 65.942C237.413 66.0181 238.476 65.9345 239.509 65.694C240.62 65.263 241.391 64.154 242.54 63.837C243.325 63.7091 244.126 63.7193 244.907 63.867C246.598 64.0011 248.291 63.6216 249.763 62.778" stroke="#5E412D" stroke-width="0.874" stroke-miterlimit="10" stroke-linecap="round"/>
<path d="M256.051 100.981C256.651 101.304 257.37 100.686 257.566 100.031C257.657 99.3554 257.786 98.6854 257.951 98.024C258.387 97 260.2 97.245 261.279 96.971C262.391 96.8373 263.426 96.3345 264.219 95.543C264.831 94.732 264.219 92.943 264.413 91.943" stroke="#5E412D" stroke-width="0.874" stroke-miterlimit="10" stroke-linecap="round"/>
<path d="M243.8 72.221C243.863 71.6942 244.103 71.2044 244.48 70.8313C244.857 70.4581 245.35 70.2236 245.877 70.166C246.368 70.126 246.859 70.247 247.352 70.255C248.216 70.2665 249.051 69.9383 249.676 69.341" stroke="#5E412D" stroke-width="0.874" stroke-miterlimit="10" stroke-linecap="round"/>
<path d="M260.756 86.037C261.392 85.9139 262.005 85.6919 262.572 85.379C262.854 85.2202 263.096 84.9982 263.279 84.7303C263.461 84.4624 263.579 84.156 263.623 83.835C263.668 83.227 263.356 82.623 263.463 82.023C263.592 81.302 264.294 80.777 264.389 80.051C264.389 79.5052 264.241 78.9696 263.959 78.502C263.821 78.2676 263.74 78.004 263.723 77.7325C263.705 77.4609 263.752 77.1891 263.859 76.939" stroke="#5E412D" stroke-width="0.874" stroke-miterlimit="10" stroke-linecap="round"/>
<path d="M269.973 78.2C270.205 78.313 270.385 78.511 270.475 78.753C270.566 78.995 270.56 79.2625 270.458 79.5C270.346 79.738 270.141 79.922 270.021 80.157C269.926 80.4171 269.89 80.6952 269.916 80.971C269.942 81.2468 270.029 81.5133 270.171 81.751C270.458 82.2257 270.641 82.7561 270.707 83.307" stroke="#5E412D" stroke-width="0.874" stroke-miterlimit="10" stroke-linecap="round"/>
<path d="M283.34 146.883C283.166 146.176 283.027 145.461 282.923 144.739C281.39 134.018 278.968 127.077 273.047 127.077C259.747 127.077 254.301 133.177 254.955 141.677C255.655 150.838 267.379 180.477 271.303 185.277C275.227 190.077 273.32 192.038 284.219 191.82C294.083 191.621 284.947 153.4 283.34 146.883Z" fill="#270041"/>
<path d="M197.192 158.32L174.305 136.74C174.305 136.74 165.242 142.296 164.641 144.44C163.624 148.073 192.178 175.54 198.941 177.717C205.704 179.894 214.341 165.947 214.341 165.947L197.192 158.32Z" fill="#270041"/>
<path d="M270 128.748C265.2 131.654 256.34 140.954 259.828 153.887" stroke="#735983" stroke-width="1.092" stroke-miterlimit="10" stroke-linecap="round"/>
<path d="M274.209 134.415C275.953 144.297 283.8 184.549 283.8 184.549" stroke="#735983" stroke-width="1.092" stroke-miterlimit="10" stroke-linecap="round"/>
<path d="M255.028 120.319L241.368 134.851L236.57 122.157L253.574 118.43L255.028 120.319Z" fill="#A35E38"/>
<path d="M202.278 147.348C200.97 149.528 196.178 150.254 196.756 153.448C196.756 153.448 190.217 150.397 187.892 151.559C185.567 152.721 197.192 161.15 197.192 161.15L206.347 153.45L202.278 147.348Z" fill="#270041"/>
<path d="M234.175 123.807L240.859 130.201L252.702 125.26L239.769 157.375L234.175 123.807Z" fill="#C8C4CC"/>
<path d="M257.062 119.302L256.771 115.524L241.368 130.346L244.129 137.031L257.062 119.302Z" fill="#DED9E2"/>
<path d="M235.265 115.597L234.247 115.451L233.521 121.191L237.008 136.449L241.368 130.346L235.265 115.597Z" fill="#DED9E2"/>
<path d="M254.519 124.316L255.536 145.75L246.963 149.019L246.163 161.008L240.714 184.476" stroke="#735983" stroke-width="1.092" stroke-miterlimit="10" stroke-linecap="round"/>
<path d="M231.85 121.409L227.418 144.95L233.739 147.348L231.632 162.316L236.064 183.75" stroke="#735983" stroke-width="1.092" stroke-miterlimit="10" stroke-linecap="round"/>
<path d="M213.467 153.669L199.081 167.184L174.014 147.13" stroke="#735983" stroke-width="1.092" stroke-miterlimit="10" stroke-linecap="round"/>
<path d="M214.33 1.87201H146.43C145.335 1.87201 144.251 2.08769 143.239 2.50672C142.228 2.92576 141.309 3.53995 140.535 4.31421C139.76 5.08848 139.146 6.00766 138.727 7.01927C138.308 8.03088 138.093 9.1151 138.093 10.21V15.057H181.381C183.592 15.057 185.713 15.9354 187.276 17.4989C188.84 19.0623 189.718 21.1829 189.718 23.394V62.251H205.96L216.068 71.685L215.326 62.185C217.35 61.9413 219.214 60.9647 220.567 59.4398C221.919 57.9149 222.666 55.9474 222.667 53.909V10.21C222.667 7.99881 221.789 5.87816 220.225 4.31451C218.662 2.75086 216.541 1.87227 214.33 1.87201Z" fill="#8DCCD7"/>
<path d="M138.093 53.914V15.057H113.481C111.27 15.0573 109.15 15.9357 107.586 17.4992C106.023 19.0626 105.144 21.183 105.144 23.394V67.1C105.144 69.311 106.023 71.4314 107.586 72.9949C109.15 74.5583 111.27 75.4367 113.481 75.437H114.15L113.35 85.674L124.318 75.437H181.38C183.591 75.437 185.712 74.5586 187.275 72.9952C188.839 71.4317 189.717 69.3111 189.717 67.1V62.251H146.43C145.335 62.2511 144.251 62.0356 143.239 61.6167C142.228 61.1977 141.309 60.5836 140.535 59.8094C139.76 59.0353 139.146 58.1161 138.727 57.1046C138.308 56.093 138.093 55.0089 138.093 53.914Z" fill="#8DCCD7"/>
<path d="M181.381 15.057H138.093V53.914C138.093 55.0089 138.308 56.093 138.727 57.1046C139.146 58.1161 139.76 59.0353 140.535 59.8094C141.309 60.5836 142.228 61.1977 143.239 61.6167C144.251 62.0356 145.335 62.2511 146.43 62.251H189.718V23.394C189.718 21.1829 188.84 19.0623 187.276 17.4989C185.713 15.9354 183.592 15.057 181.381 15.057Z" fill="#6ABCCB"/>
<path d="M151.311 40.925L160.451 51.208L177.587 25.502" stroke="#19254F" stroke-width="3.149" stroke-miterlimit="10"/>
<path d="M224.384 98.467C227.018 98.613 231.014 96.619 231.584 96.245L228.218 100.581L226.861 100.871L224.384 98.467Z" stroke="#7A4327" stroke-width="0.983" stroke-linecap="round" stroke-linejoin="round"/>
<path d="M229.143 97.596L229.325 98.595L230.269 97.414L229.143 97.596Z" fill="#7A4327"/>
<path d="M95.259 139.513L91.117 130.794" stroke="#735983" stroke-width="1.092" stroke-miterlimit="10" stroke-linecap="round"/>
<path d="M46.8 154.989C46.8 154.989 52.322 151.789 53.484 146.561" stroke="#735983" stroke-width="1.092" stroke-miterlimit="10" stroke-linecap="round"/>
<path d="M93.297 166.614L116.402 169.375L115.676 180.71L91.117 183.471L93.297 166.614Z" fill="#270041"/>
<path d="M95.443 180.947C93.7752 178.015 92.8805 174.708 92.843 171.335" stroke="#735983" stroke-width="1.092" stroke-miterlimit="10" stroke-linecap="round"/>
<path d="M56.342 119.587C60.7443 122.233 65.6092 124.02 70.678 124.851C75.755 125.525 81.166 124.681 85.372 121.758" stroke="#735983" stroke-width="1.092" stroke-miterlimit="10" stroke-linecap="round"/>
<path d="M87.55 110.534L76.256 108.253C76.256 108.253 82.12 115.203 82.989 114.117C83.858 113.031 84.509 111.348 87.495 111.185C88.689 111.12 87.55 110.534 87.55 110.534Z" fill="#DDA77F"/>
</g>
<defs>
<clipPath id="clip0">
<rect width="314.663" height="226.335" fill="white"/>
</clipPath>
</defs>
</svg>
