<svg width="322" height="323" viewBox="0 0 322 323" fill="none" xmlns="http://www.w3.org/2000/svg">
<g clip-path="url(#clip0)">
<path d="M203.601 135.771C222.07 134.964 240.572 136.183 258.776 139.407C258.146 136.674 257.202 133.454 256.226 130.421C250.238 111.825 244.25 93.2286 238.263 74.632C231.212 52.732 223.102 29.383 202.863 15.101C187.204 4.04795 166.331 0.152956 146.213 0.00495561C125.195 -0.151044 103.799 3.55495 85.694 12.905C67.589 22.255 53.074 37.619 48.548 55.585C42.558 79.363 54.148 104.11 50.927 128.296C50.5362 131.146 49.9647 133.968 49.216 136.746C61.288 144.401 72.291 153.662 93.427 155.974C129.159 159.88 159.68 137.726 203.601 135.771Z" fill="#E6F4F6"/>
<path d="M203.601 135.771C159.68 137.726 129.159 159.88 93.427 155.971C72.291 153.659 63.605 143.861 51.532 136.206C48.817 146.44 49.944 145.973 43.551 154.668C-9.39099 226.668 17.976 265.111 27.012 275.052C95.155 350.018 198.539 318.671 223.55 302.252C308.907 246.216 247.895 145.867 253.957 130.126C255.957 131.419 252.838 127.308 251.785 122.741C238.25 120.325 225.973 134.775 203.601 135.771Z" fill="#ACDAE2"/>
<path d="M318.872 108.482C318.76 108.436 318.635 108.432 318.52 108.471C318.405 108.51 318.309 108.589 318.248 108.694C314.302 115.519 304.805 117.694 297.87 119.277C293.419 120.276 288.881 120.84 284.32 120.962C283.367 121.016 282.352 121.073 281.29 121.142L279.89 121.117C270.429 120.564 261.329 117.347 252.529 114.235L251.869 114C231.079 106.655 213.232 107.149 200.745 109.388V50.6309L189.016 43.4639V92.4229C188.008 91.4076 186.911 90.4846 185.739 89.6649C184.216 84.0787 181.563 78.8647 177.943 74.3453C174.324 69.826 169.815 66.0976 164.697 63.3909C163.585 62.8169 162.444 62.3129 161.29 61.8479L166.213 57.0289C166.213 57.0289 155.127 55.6989 150.866 59.1349C150.754 59.1209 150.641 59.1129 150.529 59.0989C149.113 57.455 147.438 56.0538 145.569 54.9509C137.225 50.0769 126.676 51.7849 117.338 49.3039C120.781 50.9709 124.276 52.6719 127.114 55.2359C128.509 56.5653 129.823 57.9764 131.05 59.4619C127.616 58.709 124.063 58.6757 120.615 59.3641C117.167 60.0526 113.9 61.4478 111.018 63.4619C108.371 65.3819 105.972 67.8909 102.795 68.6619C100.066 69.3269 97.213 68.5889 94.501 67.8539C95.142 67.9369 93.761 67.5789 92.38 67.2209C94.655 70.5909 98.621 72.5209 102.628 73.2109C105.536 73.6438 108.486 73.7146 111.411 73.4219C106.959 77.8858 103.251 83.0336 100.427 88.6699C100.276 88.9045 100.178 89.169 100.139 89.4452C100.1 89.7214 100.122 90.0027 100.202 90.2699C97.2894 92.4914 94.9291 95.3556 93.305 98.6391C91.681 101.923 90.8371 105.537 90.839 109.2V112.167C90.8338 116.433 91.9794 120.622 94.155 124.292C93.515 124.004 92.874 123.719 92.244 123.406C89.415 121.999 86.66 120.306 83.997 118.671C80.238 116.21 76.2701 114.085 72.139 112.319C54.699 105.466 35.045 100.926 21.5 119.219C21.435 119.307 21.4005 119.413 21.4018 119.523C21.4032 119.632 21.4402 119.738 21.5074 119.824C21.5745 119.91 21.668 119.972 21.7736 120C21.8791 120.028 21.991 120.02 22.092 119.979C24.638 118.932 26.749 118.191 26.784 118.179C35.051 114.993 45.284 116.667 57.199 123.145C59.699 124.503 62.204 125.994 64.627 127.437C69.3231 130.39 74.2296 132.994 79.307 135.229L78.334 135.049C68.185 133.17 57.685 131.225 47.584 132.016C34.6698 133.109 22.5405 138.67 13.284 147.741C13.2007 147.823 13.1488 147.931 13.1371 148.047C13.1255 148.164 13.1548 148.28 13.2202 148.377C13.2855 148.474 13.3826 148.545 13.4948 148.577C13.6069 148.61 13.7269 148.602 13.834 148.556C26.46 143.105 43.417 144.906 54.619 149.108C60.9648 151.513 67.1771 154.256 73.229 157.327C76.452 158.904 79.786 160.535 83.929 162.416C93.7951 166.985 104.524 169.392 115.396 169.476C118.565 169.478 121.731 169.254 124.868 168.807C144.599 165.977 161.933 154.24 177.999 142.214C174.448 150.814 164.671 160.406 157.439 167.021C157.344 167.105 157.285 167.222 157.274 167.349C157.262 167.475 157.299 167.601 157.377 167.701C157.454 167.801 157.567 167.868 157.693 167.888C157.818 167.908 157.946 167.88 158.051 167.809C163.998 163.909 169.02 160.409 173.451 157.32C187.484 147.533 195.951 141.626 211.118 138.943C223.192 136.81 235.698 138.264 247.793 139.671C251.638 140.118 255.614 140.581 259.519 140.922C280.431 142.747 295.784 139.56 306.454 131.183C306.545 131.111 306.609 131.01 306.634 130.897C306.659 130.783 306.644 130.665 306.591 130.562C306.538 130.458 306.451 130.377 306.344 130.33C306.238 130.284 306.119 130.277 306.007 130.309C301.11 131.892 295.991 132.681 290.844 132.646C305.985 129.578 315.107 124.263 319.167 109.074C319.198 108.956 319.186 108.831 319.131 108.722C319.077 108.613 318.985 108.528 318.872 108.482Z" fill="#E3DEE6" stroke="#E3DEE6" stroke-width="3.745" stroke-linejoin="round"/>
<path d="M221.739 247.769L220.639 244.886L226.829 242.525L219.229 222.598L214.311 224.473L213.454 222.226C214.483 221.617 215.462 220.927 216.382 220.163C217.133 219.533 217.816 218.825 218.418 218.051L221.089 217.032L230.304 241.2L235.904 239.066L237.004 241.949L221.739 247.769Z" fill="#19254F"/>
<path d="M151.183 220.494L152.55 217.728L158.49 220.663L167.936 201.542L163.217 199.21L164.283 197.054C165.428 197.394 166.598 197.643 167.783 197.798C168.756 197.921 169.739 197.94 170.716 197.856L173.279 199.122L161.822 222.311L167.192 224.964L165.826 227.73L151.183 220.494Z" fill="#19254F"/>
<path d="M88.162 298.592L87.062 295.709L93.253 293.349L85.653 273.421L80.739 275.3L79.882 273.052C80.9114 272.443 81.8905 271.753 82.81 270.989C83.5615 270.359 84.244 269.651 84.846 268.877L87.517 267.859L96.732 292.026L102.332 289.892L103.432 292.775L88.162 298.592Z" fill="#19254F"/>
<path d="M47.631 215.369L48.88 212.548L54.939 215.228L63.567 195.728L58.754 193.598L59.727 191.398C60.8866 191.691 62.0676 191.892 63.259 191.998C64.236 192.079 65.2188 192.057 66.191 191.931L68.806 193.087L58.339 216.733L63.817 219.157L62.568 221.979L47.631 215.369Z" fill="#19254F"/>
<path d="M138.758 278.014C137.433 277.705 136.217 277.043 135.238 276.097C134.26 275.152 133.556 273.959 133.202 272.645C132.283 269.778 132.417 266.034 133.602 261.412C134.787 256.79 136.463 253.471 138.629 251.455C139.594 250.524 140.781 249.855 142.078 249.512C143.375 249.169 144.738 249.163 146.037 249.496C147.336 249.829 148.529 250.488 149.502 251.412C150.474 252.335 151.194 253.492 151.593 254.773C152.526 257.582 152.401 261.297 151.218 265.92C150.035 270.543 148.352 273.89 146.169 275.963C145.235 276.943 144.052 277.651 142.747 278.012C141.442 278.374 140.063 278.374 138.758 278.014ZM139.485 275.171C140.26 275.378 141.079 275.34 141.831 275.06C142.692 274.707 143.452 274.144 144.04 273.423C144.866 272.428 145.544 271.318 146.053 270.129C147.448 266.828 148.342 263.337 148.705 259.771C148.828 258.504 148.76 257.227 148.505 255.98C148.326 255.084 147.924 254.248 147.338 253.547C146.804 252.954 146.104 252.535 145.328 252.347C144.55 252.14 143.728 252.169 142.966 252.431C142.105 252.755 141.343 253.295 140.752 254C139.928 254.971 139.254 256.059 138.752 257.229C138.035 258.866 137.463 260.562 137.042 262.299C136.013 266.319 135.76 269.367 136.284 271.443C136.808 273.519 137.875 274.762 139.485 275.171Z" fill="#19254F"/>
<path d="M209.214 292.569C208.024 293.228 206.678 293.553 205.318 293.508C203.958 293.462 202.636 293.049 201.493 292.312C198.889 290.802 196.476 287.935 194.254 283.712C192.032 279.489 191.049 275.903 191.305 272.955C191.397 271.617 191.829 270.325 192.561 269.201C193.293 268.077 194.3 267.159 195.487 266.534C196.674 265.91 198.001 265.599 199.341 265.632C200.682 265.665 201.992 266.04 203.147 266.722C205.722 268.18 208.122 271.02 210.347 275.243C212.572 279.466 213.569 283.077 213.338 286.078C213.302 287.432 212.899 288.75 212.173 289.893C211.447 291.036 210.424 291.961 209.214 292.569ZM207.848 289.969C208.561 289.603 209.143 289.025 209.513 288.314C209.916 287.473 210.102 286.545 210.054 285.614C210 284.321 209.758 283.044 209.338 281.82C208.768 280.119 208.051 278.47 207.197 276.893C206.385 275.302 205.435 273.784 204.358 272.359C203.6 271.337 202.693 270.434 201.667 269.68C200.933 269.135 200.073 268.784 199.167 268.659C198.372 268.575 197.57 268.734 196.867 269.114C196.149 269.482 195.558 270.055 195.167 270.761C194.746 271.578 194.542 272.49 194.576 273.408C194.616 274.68 194.847 275.938 195.26 277.142C195.826 278.837 196.539 280.479 197.391 282.049C199.324 285.722 201.181 288.153 202.962 289.341C204.743 290.529 206.371 290.739 207.848 289.972V289.969Z" fill="#19254F"/>
<path d="M236.794 185.61C235.524 186.099 234.146 186.235 232.805 186.003C231.465 185.77 230.212 185.179 229.181 184.291C226.811 182.437 224.816 179.265 223.197 174.776C221.578 170.287 221.099 166.6 221.76 163.716C222.035 162.403 222.641 161.182 223.521 160.17C224.401 159.158 225.525 158.387 226.787 157.932C228.048 157.477 229.405 157.352 230.729 157.57C232.053 157.787 233.298 158.34 234.348 159.175C236.698 160.975 238.683 164.119 240.302 168.607C241.921 173.095 242.411 176.81 241.77 179.751C241.548 181.086 240.967 182.336 240.091 183.368C239.215 184.399 238.076 185.174 236.794 185.61ZM235.794 182.85C236.551 182.586 237.208 182.094 237.672 181.44C238.187 180.663 238.499 179.769 238.579 178.84C238.703 177.553 238.641 176.254 238.394 174.985C238.064 173.221 237.582 171.49 236.952 169.81C236.368 168.121 235.636 166.487 234.766 164.927C234.155 163.81 233.38 162.79 232.466 161.903C231.815 161.263 231.013 160.796 230.134 160.547C229.359 160.355 228.544 160.402 227.796 160.681C227.035 160.948 226.371 161.435 225.889 162.081C225.359 162.832 225.032 163.707 224.938 164.621C224.803 165.886 224.858 167.165 225.101 168.414C225.428 170.171 225.907 171.895 226.535 173.568C227.943 177.472 229.447 180.136 231.047 181.559C232.647 182.982 234.231 183.413 235.798 182.85H235.794Z" fill="#19254F"/>
<path d="M21.329 242.853C21.319 241.493 21.678 240.155 22.3677 238.982C23.0575 237.81 24.0522 236.846 25.246 236.194C27.8167 234.629 31.488 233.88 36.26 233.946C41.032 234.012 44.651 234.863 47.117 236.5C48.2488 237.22 49.1776 238.217 49.815 239.397C50.4525 240.578 50.7773 241.901 50.7587 243.242C50.74 244.583 50.3785 245.898 49.7085 247.06C49.0386 248.222 48.0824 249.193 46.931 249.881C44.419 251.446 40.7774 252.195 36.006 252.129C31.2347 252.063 27.5857 251.211 25.059 249.574C23.888 248.895 22.9228 247.912 22.266 246.728C21.6092 245.545 21.2854 244.206 21.329 242.853ZM24.263 242.894C24.2437 243.695 24.4736 244.483 24.921 245.148C25.4661 245.903 26.1915 246.509 27.031 246.912C28.1918 247.482 29.429 247.881 30.704 248.097C32.4706 248.41 34.261 248.569 36.055 248.572C37.8415 248.619 39.6286 248.51 41.396 248.246C42.656 248.069 43.8822 247.703 45.034 247.163C45.8628 246.78 46.5821 246.196 47.126 245.463C47.5794 244.805 47.8234 244.026 47.826 243.227C47.8443 242.422 47.6233 241.629 47.191 240.95C46.6745 240.19 45.9709 239.575 45.148 239.166C44.0116 238.593 42.7957 238.194 41.541 237.982C39.782 237.668 37.9988 237.509 36.212 237.507C32.0634 237.449 29.0407 237.918 27.144 238.914C25.2474 239.91 24.287 241.237 24.263 242.894Z" fill="#19254F"/>
<path d="M186.666 94.07C185.638 87.6012 183.118 81.4607 179.304 76.1355C175.49 70.8103 170.488 66.4468 164.695 63.391C153.336 57.526 139.601 57.363 127.835 62.263C116.069 67.163 106.331 76.9 100.427 88.67C100.134 89.255 99.887 90.07 100.373 90.493C100.859 90.916 101.436 89.603 100.353 90.02C104.676 93.061 109.713 94.744 114.674 96.389C121.442 98.633 128.279 98.543 135.36 99.034C141.887 99.487 149.198 98.274 155.66 97.212C165.929 95.526 175.424 96.339 186.666 94.07Z" fill="#F49727"/>
<path d="M94.499 67.8549C97.21 68.5899 100.064 69.3279 102.793 68.6629C105.97 67.8889 108.369 65.3799 111.016 63.4629C115.286 60.4902 120.362 58.8934 125.564 58.8863C130.767 58.8791 135.847 60.462 140.125 63.4229C137.563 63.1648 134.989 63.7843 132.825 65.1799C130.874 66.4479 129.359 68.2889 127.458 69.6309C123.835 72.1869 119.2 72.6959 114.787 73.1249C110.74 73.5179 106.634 73.9099 102.627 73.2149C98.62 72.5199 94.655 70.5949 92.379 67.2249C93.759 67.5799 95.139 67.9379 94.499 67.8549Z" fill="#F49727"/>
<path d="M154.988 67.785C154.364 65.1209 153.208 62.6106 151.589 60.405C149.97 58.1994 147.922 56.3442 145.567 54.951C137.223 50.077 126.675 51.785 117.336 49.304C120.779 50.971 124.273 52.672 127.113 55.236C129.38 57.284 131.156 59.818 133.351 61.944C136.165 64.6738 139.628 66.6423 143.414 67.6642C147.199 68.6861 151.182 68.7276 154.988 67.785Z" fill="#F49727"/>
<path d="M150.214 59.7519C153.849 55.5429 166.214 57.0289 166.214 57.0289L160.397 62.7229L150.214 59.7519Z" fill="#F49727"/>
<path d="M116.256 132.187L160.347 135.011L133.849 146.957L112.998 136.314L116.256 132.187Z" fill="#FFCB9F"/>
<path d="M169.425 131.971C166.499 131.968 163.645 131.058 161.258 129.366C158.87 127.675 157.065 125.285 156.092 122.525C155.166 119.893 153.446 117.613 151.17 116C148.893 114.387 146.171 113.521 143.381 113.521C140.591 113.521 137.869 114.387 135.592 116C133.316 117.613 131.596 119.893 130.67 122.525C129.697 125.285 127.893 127.675 125.506 129.367C123.118 131.058 120.265 131.968 117.339 131.971H114.673C109.424 131.964 104.391 129.876 100.68 126.164C96.9678 122.453 94.8796 117.42 94.873 112.171V109.2C94.8796 103.951 96.9678 98.9183 100.68 95.2065C104.391 91.4947 109.424 89.4065 114.673 89.3999H172.091C177.34 89.4065 182.373 91.4947 186.084 95.2065C189.796 98.9183 191.884 103.951 191.891 109.2V112.168C191.884 117.417 189.796 122.45 186.084 126.161C182.373 129.873 177.34 131.961 172.091 131.968L169.425 131.971Z" fill="#C1E3E9"/>
<path d="M172.091 93.432C176.272 93.4368 180.28 95.0998 183.236 98.0562C186.193 101.013 187.856 105.021 187.86 109.202V112.169C187.855 116.35 186.192 120.358 183.236 123.314C180.28 126.27 176.272 127.933 172.091 127.938H169.425C167.334 127.936 165.295 127.286 163.589 126.077C161.882 124.869 160.593 123.161 159.897 121.189C158.695 117.769 156.46 114.806 153.502 112.711C150.543 110.615 147.007 109.489 143.382 109.489C139.757 109.489 136.221 110.615 133.262 112.711C130.304 114.806 128.069 117.769 126.867 121.189C126.171 123.161 124.882 124.869 123.175 126.078C121.469 127.286 119.43 127.937 117.339 127.939H114.672C110.491 127.934 106.483 126.271 103.527 123.315C100.571 120.359 98.9078 116.351 98.903 112.17V109.2C98.9075 105.019 100.57 101.011 103.527 98.0542C106.483 95.0978 110.491 93.4348 114.672 93.43H172.091V93.432ZM172.091 85.365H114.672C111.542 85.3651 108.443 85.9817 105.551 87.1796C102.66 88.3775 100.032 90.1332 97.8191 92.3465C95.606 94.5598 93.8505 97.1873 92.6529 100.079C91.4552 102.971 90.8389 106.07 90.839 109.2V112.167C90.8393 118.488 93.3503 124.55 97.8198 129.019C102.289 133.489 108.351 136 114.672 136H117.339C121.101 136 124.77 134.832 127.839 132.658C130.909 130.483 133.227 127.41 134.475 123.861C135.123 122.016 136.328 120.418 137.924 119.288C139.519 118.157 141.427 117.55 143.382 117.55C145.337 117.55 147.245 118.157 148.84 119.288C150.436 120.418 151.641 122.016 152.289 123.861C153.537 127.41 155.855 130.484 158.925 132.658C161.994 134.832 165.663 136 169.425 136H172.091C178.412 136 184.474 133.489 188.944 129.019C193.414 124.549 195.925 118.487 195.925 112.166V109.2C195.925 106.07 195.309 102.971 194.111 100.079C192.913 97.187 191.158 94.5595 188.945 92.3462C186.731 90.1329 184.104 88.3772 181.212 87.1793C178.32 85.9815 175.221 85.365 172.091 85.365Z" fill="#19254F"/>
<path d="M117.339 136.003H172.57L157.9 127.407L151.55 117.116L136.004 115.802L126.808 127.845L120.239 131.567L117.339 136.003Z" fill="#19254F"/>
<path d="M117.239 93.459H134.262L116.255 127.952C116.255 127.952 109.414 127.952 106.699 125.889L117.239 93.459Z" fill="#9ED4DD"/>
<path d="M114.953 93.4719L104.582 124.26C103.336 123.164 102.225 121.924 101.27 120.567L111.478 93.7439C112.631 93.5912 113.791 93.5004 114.953 93.4719Z" fill="#9ED4DD"/>
<path d="M164.473 112.423C166.153 112.423 167.514 111.062 167.514 109.382C167.514 107.703 166.153 106.341 164.473 106.341C162.794 106.341 161.432 107.703 161.432 109.382C161.432 111.062 162.794 112.423 164.473 112.423Z" fill="#68BCCB"/>
<path d="M172.401 109.519H163.387" stroke="#68BCCB" stroke-width="2" stroke-miterlimit="10" stroke-linecap="round"/>
<path d="M122.012 112.423C123.692 112.423 125.053 111.062 125.053 109.382C125.053 107.703 123.692 106.341 122.012 106.341C120.333 106.341 118.971 107.703 118.971 109.382C118.971 111.062 120.333 112.423 122.012 112.423Z" fill="#68BCCB"/>
<path d="M114.084 109.245H123.098" stroke="#68BCCB" stroke-width="2" stroke-miterlimit="10" stroke-linecap="round"/>
<path d="M200.745 117.129V50.6309L189.016 43.4639V107.101L200.745 117.129Z" fill="#19254F"/>
<path d="M279.872 121.617C270.102 121.048 260.929 117.733 251.702 114.473C222.084 104.006 198.889 109.601 189.269 112.787C171.685 118.609 156.91 132.915 138.442 134.326C130.574 134.926 122.742 133.079 115.072 131.246C107.206 129.366 99.262 127.458 92.021 123.856C85.174 120.45 79.073 115.582 71.956 112.785C56.92 106.875 36.038 100.427 21.902 119.516C24.492 118.45 26.602 117.711 26.602 117.711C36.637 113.846 47.988 117.568 57.435 122.704C66.882 127.84 75.772 134.483 86.235 136.969C73.669 134.879 60.321 131.522 47.621 132.513C34.8151 133.567 22.7858 139.084 13.631 148.1C25.958 142.78 42.768 144.135 54.79 148.644C66.812 153.153 72.441 156.658 84.133 161.964C96.795 167.71 111.033 170.289 124.795 168.314C145.095 165.403 162.669 153.128 179.054 140.798C176.202 149.567 166.185 159.698 157.774 167.398C182.5 151.198 190.925 142.013 211.028 138.458C227.028 135.629 243.372 139.019 259.559 140.43C275.746 141.841 293.359 140.83 306.143 130.796C298.314 133.054 294.243 133.415 286.102 133.01C304.835 129.915 314.433 124.841 318.681 108.953C314.641 115.939 305.235 118.113 297.981 119.772C291.59 121.235 288.116 121.221 281.281 121.649L279.872 121.617Z" fill="#028EA7" stroke="#028EA7" stroke-linecap="round" stroke-linejoin="round"/>
<path opacity="0.52" d="M234.344 172.056C225.971 175.203 219.882 182.551 212.538 187.656C205.194 192.761 196.646 196.941 187.714 196.456C188.902 198.075 191.154 198.381 193.153 198.556C203.302 199.424 213.817 200.248 223.414 196.836C234.08 193.044 242.371 184.448 252.673 179.755C261.514 175.759 271.427 174.793 280.873 177.005C276.594 170.317 253.089 165.014 234.344 172.056Z" fill="#5AB5C6"/>
<path opacity="0.82" d="M204.959 126.034C196.585 129.18 190.496 136.529 183.152 141.634C175.808 146.739 167.261 150.919 158.329 150.434C159.516 152.052 161.768 152.359 163.768 152.534C173.916 153.401 184.431 154.226 194.028 150.814C204.694 147.022 212.985 138.426 223.287 133.733C232.128 129.737 242.041 128.771 251.487 130.983C247.209 124.3 223.703 118.992 204.959 126.034Z" fill="#E6F4F6"/>
<path opacity="0.52" d="M10.81 210.333C20.049 203.451 32.528 202.404 43.889 204.313C55.25 206.222 65.975 210.754 76.989 214.138C88.003 217.522 99.823 219.764 110.999 216.967C117.251 215.403 123.005 212.333 128.686 209.291C113.649 220.891 96.673 232.84 77.716 231.731C61.416 230.777 46.992 220.194 30.755 218.469C20.529 217.382 10.194 219.914 0.739014 223.956C3.51801 216.53 10.108 210.856 10.81 210.333Z" fill="#5AB5C6"/>
<path d="M109.287 184.7C107.962 184.392 106.745 183.729 105.767 182.784C104.789 181.839 104.085 180.646 103.731 179.332C102.812 176.465 102.945 172.721 104.131 168.098C105.317 163.475 106.993 160.157 109.158 158.142C110.123 157.211 111.31 156.542 112.607 156.199C113.904 155.856 115.267 155.85 116.566 156.183C117.865 156.516 119.058 157.175 120.031 158.099C121.003 159.022 121.723 160.179 122.122 161.46C123.055 164.269 122.93 167.984 121.746 172.607C120.562 177.23 118.879 180.577 116.698 182.65C115.764 183.63 114.581 184.338 113.276 184.699C111.971 185.06 110.592 185.061 109.287 184.7ZM110.014 181.858C110.789 182.065 111.608 182.027 112.36 181.747C113.221 181.394 113.981 180.831 114.569 180.11C115.395 179.115 116.073 178.005 116.582 176.816C117.3 175.172 117.874 173.468 118.298 171.725C118.763 170 119.076 168.238 119.233 166.458C119.356 165.191 119.289 163.913 119.033 162.666C118.854 161.77 118.452 160.934 117.865 160.234C117.332 159.641 116.631 159.222 115.856 159.034C115.078 158.827 114.256 158.856 113.494 159.118C112.634 159.441 111.871 159.981 111.28 160.685C110.456 161.656 109.782 162.744 109.28 163.914C108.563 165.551 107.991 167.247 107.57 168.983C106.541 173.004 106.289 176.053 106.812 178.128C107.335 180.203 108.403 181.447 110.014 181.858Z" fill="#19254F"/>
<path opacity="0.82" d="M177.878 209.97C158.44 217.27 144.304 234.332 127.256 246.186C110.208 258.04 90.366 267.739 69.632 266.619C72.387 270.375 77.616 271.086 82.258 271.483C105.816 273.498 130.226 275.411 152.504 267.491C177.264 258.691 196.511 238.733 220.425 227.84C240.948 218.564 263.959 216.32 285.888 221.455C275.956 205.933 221.39 193.622 177.878 209.97Z" fill="#E6F4F6"/>
<path opacity="0.82" d="M68.311 189.038C91.93 185.291 101.053 177.472 120.6 176.821C140.147 176.17 159.858 179.264 165.233 183.011C165.233 183.011 128.908 186.92 115.876 194.088C102.844 201.256 68.311 189.038 68.311 189.038Z" fill="#E6F4F6"/>
</g>
<defs>
<clipPath id="clip0">
<rect width="320.315" height="322.938" fill="white" transform="translate(0.739014)"/>
</clipPath>
</defs>
</svg>
