<svg width="410" height="347" viewBox="0 0 410 347" fill="none" xmlns="http://www.w3.org/2000/svg">
<g clip-path="url(#clip0)">
<path d="M368.63 125.655C376.101 167.339 329.379 345.214 244.658 333.883C140.582 319.963 197.537 206.152 98.275 152.283C-38.1 78.2771 151.38 -10.5559 255.011 17.1641C337.238 39.1591 361.79 87.4921 368.63 125.655Z" fill="#F2F0F4"/>
<path d="M407.326 287.5L405.967 287.431V287.44C398.667 287.165 392.342 287.548 390.961 287.64C391.342 286.459 391.696 285.269 391.992 284.063C392.369 282.99 392.379 281.821 392.02 280.742C391.508 279.858 390.756 279.139 389.85 278.667L351.55 253.967C349.95 252.937 348.15 251.861 346.275 252.198C346.39 251.445 346.337 250.676 346.119 249.947C345.901 249.217 345.525 248.544 345.016 247.978C344.508 247.411 343.88 246.963 343.178 246.668C342.476 246.373 341.718 246.236 340.957 246.269C340.157 245.915 340.972 244.799 341.527 244.127C342.422 243.043 342.389 241.492 342.311 240.089L341.522 225.909C341.063 220.309 341.046 214.682 341.472 209.08C341.823 205.661 342.505 202.256 342.395 198.82C342.154 194.954 341.252 191.158 339.728 187.597L341.96 187.197C344.782 186.796 347.549 186.078 350.211 185.059C345.603 175.489 340.977 165.872 337.873 155.714C335.823 148.566 334.164 141.311 332.904 133.982C331.727 128.581 331.002 123.091 330.736 117.57C330.674 114.57 330.879 111.57 330.685 108.585C330.076 99.185 326.554 93.237 321.985 85.003C321.652 84.7271 321.39 84.3766 321.218 83.98C321.047 83.6422 320.774 83.3668 320.438 83.193C320.111 82.9738 319.772 82.7735 319.422 82.593L315.385 75.893C314.388 75.6566 313.364 75.5557 312.34 75.593C312.533 73.7028 312.917 71.837 313.485 70.024C314.176 69.752 315.116 69.363 316.285 68.838C322.93 66.278 336.401 49.206 328.553 36.538C316.7 17.415 302.019 20.14 294.04 22.69C290.862 23.4324 287.527 23.0979 284.559 21.739C284.501 22.9741 284.935 24.1818 285.765 25.098C283.5 25.523 281.988 25.361 278.982 24.754C278.982 24.754 278.103 29.583 282.372 31.525C282.106 32.5193 281.978 33.5457 281.992 34.575C279.748 38.304 278.674 42.3 278.954 44.542C279.384 47.991 278.577 48.824 274.405 54.936C273.105 56.836 274.469 58.436 275.88 58.977C276.106 59.0583 276.308 59.1933 276.47 59.3705C276.632 59.5478 276.748 59.7617 276.809 59.994C276.31 62.3514 276.331 64.7892 276.869 67.138C277.803 70.113 277.53 71.066 281.288 71.431C283.523 71.7491 285.781 71.8775 288.037 71.815C288.83 71.832 289.586 72.1544 290.147 72.715C290.708 73.2756 291.031 74.031 291.049 74.824L291.12 78.052L288.315 81.724L281.521 86.514C274.374 87.8393 267.14 88.6414 259.877 88.914C259.176 88.9732 258.47 88.8797 257.808 88.64C256.908 88.234 256.336 87.333 255.572 86.7C254.825 86.1065 253.911 85.7631 252.958 85.7182C252.006 85.6733 251.063 85.9293 250.264 86.45C251.244 83.029 249.035 79.587 246.915 76.73C242.089 70.2266 237.132 63.824 232.045 57.522C231.874 57.179 231.633 56.8756 231.338 56.6313C231.043 56.387 230.7 56.2073 230.331 56.1037C229.962 56 229.575 55.9748 229.196 56.0296C228.817 56.0845 228.453 56.2181 228.129 56.422L226.724 56.952L225.506 54.483C226.521 53.9897 227.41 53.2715 228.106 52.383C228.947 51.122 230.382 41.452 230.789 38.67C231.196 35.888 229.973 36.037 229.973 36.037C229.357 36.2222 228.804 36.5726 228.373 37.05C226.034 40.459 226.929 42.395 225.964 38.538C224.677 33.396 221.517 23.458 221.517 23.458C219.759 22.704 215.789 23.72 213.217 24.526C213.204 24.261 213.196 24.11 213.196 24.11C213.196 24.11 208.462 20.14 205.755 21.302C205.755 21.302 201.45 32.202 200.163 37.347C199.198 41.204 197.092 39.882 194.753 36.472C194.32 35.9945 193.765 35.6446 193.148 35.46C193.148 35.46 191.923 35.311 192.331 38.093C192.739 40.875 195.079 49.893 195.919 51.155C196.615 52.0435 197.504 52.7617 198.519 53.255L198.169 53.963L184.637 50C183.2 52.5406 182.132 55.2731 181.466 58.115C181.189 58.912 181.215 59.7832 181.54 60.562C181.918 61.1075 182.442 61.5349 183.052 61.795C183.277 61.915 183.507 62.019 183.734 62.133C180.168 69.215 176.353 76.893 172.81 83.92C172.58 84.4964 172.2 85.0008 171.71 85.381C171.293 85.5892 170.858 85.7602 170.41 85.892C168.693 86.592 167.981 88.599 167.462 90.38C166.883 89.8813 166.153 89.592 165.39 89.5588C164.627 89.5256 163.875 89.7504 163.255 90.197C162.614 90.798 162.028 91.4542 161.502 92.158C160.122 93.658 159.468 93.563 157.528 94.176L157.165 94.344C155.678 94.661 154.145 94.6972 152.645 94.451C151.648 94.1686 150.684 93.7835 149.767 93.302C146.95 91.9986 143.961 91.1055 140.891 90.65C140.773 90.386 140.747 90.458 140.61 90.697C140.61 90.697 140.542 91.048 140.418 91.691L140.269 91.209C140.587 90.216 140.703 89.286 140.91 88.375C141.838 84.285 144.621 84.692 148.638 83.622C150.238 83.195 152.016 82.658 152.838 81.217C153.353 80.0326 153.49 78.718 153.229 77.453C153.114 76.3283 152.999 75.2033 152.882 74.078C152.705 73.2959 152.826 72.476 153.22 71.778C153.708 71.132 154.592 70.954 155.251 70.484C155.618 70.2151 155.912 69.8574 156.103 69.4442C156.294 69.0311 156.378 68.5761 156.345 68.122C156.191 67.1781 155.748 66.305 155.079 65.622C154.538 64.982 153.948 64.372 153.361 63.774C153.476 63.8662 153.597 63.9517 153.722 64.03C154.045 64.2402 154.412 64.3744 154.795 64.4228C155.177 64.4711 155.566 64.4322 155.931 64.309C156.408 64.0512 156.814 63.6785 157.111 63.2245C157.407 62.7705 157.586 62.2496 157.631 61.709C157.864 57.34 156.425 53.0463 153.606 49.7C152.811 48.766 151.642 47.846 150.476 48.226C149.31 48.606 148.906 50.061 148.828 51.295C148.59 55.2713 149.744 59.2066 152.091 62.425C152.166 62.525 152.245 62.625 152.323 62.725C151.406 61.8516 150.636 60.8363 150.042 59.718C148.657 55.132 146.759 50.429 143.389 47.134C144.893 46.7891 146.434 46.6339 147.976 46.672C144.586 38.978 134.781 33.372 126.676 35.614C124.359 36.2905 122.146 37.2857 120.103 38.571C102.613 38.421 93.528 49.503 92.639 60.971C90.9059 62.6616 89.5669 64.7136 88.7173 66.9808C87.8678 69.2481 87.5286 71.6747 87.724 74.088C87.824 75.973 87.592 77.156 86.168 78.394C85.0144 79.2452 83.6561 79.7758 82.231 79.932C79.462 80.448 74.115 80.603 70.331 87.561C69.3138 89.4119 68.73 91.4695 68.6237 93.5789C68.5173 95.6882 68.8912 97.7941 69.717 99.738C70.36 101.273 71.478 102.618 71.63 104.276C71.806 106.197 70.03 107.638 68.748 109.076C67.227 110.783 66.209 113.161 66.828 115.362C67.0903 116.269 67.6116 117.08 68.328 117.696C67.069 118.596 65.815 119.45 64.571 120.24C61.453 122.222 58.229 124.049 55.265 126.255C49.112 130.835 44.265 136.909 39.486 142.91C33.05 150.998 25.586 160.925 19.053 169.186C17.8937 168.903 16.7177 168.693 15.532 168.558C14.354 171.325 13.1767 174.091 12 176.858C11.906 176.981 11.8426 177.124 11.8151 177.276C11.7876 177.428 11.7966 177.585 11.8416 177.733C11.8866 177.88 11.9661 178.015 12.0736 178.126C12.1812 178.238 12.3136 178.321 12.46 178.371C15.5685 180.266 18.7727 182 22.06 183.565L20.129 188.735C20.129 188.735 17.955 193.598 17.819 197.2C17.683 200.802 18.327 213.812 18.327 213.812C18.327 213.812 22.638 217.426 25.104 216.369C25.104 216.369 29.024 206.44 30.196 201.757C31.075 198.245 32.996 199.448 35.123 202.557C35.5168 202.993 36.0224 203.312 36.585 203.48C36.585 203.48 37.699 203.615 37.328 201.08C36.957 198.545 34.828 190.333 34.061 189.18C33.8395 188.861 33.5769 188.574 33.28 188.324L39 190.743C39.3653 190.945 39.7867 191.022 40.2 190.963C40.5855 190.813 40.9122 190.542 41.131 190.191C43.299 187.409 45.4657 184.628 47.631 181.847C47.137 181.601 46.639 181.362 46.145 181.117C51.13 174.63 58.272 165.032 63.575 158.087L60.786 164.711C57.279 184.349 46.615 199.228 40.162 218.105C35.706 231.142 33.004 245.38 24.019 255.825C27.2485 258.381 30.6613 260.697 34.23 262.754C33.302 262.924 32.572 263.123 32.504 263.439C28.282 265.348 23.982 267.151 19.604 268.849L20.855 271.526L18.648 272.191C18.664 271.841 18.681 271.485 18.702 271.107C13.5994 271.142 8.50185 271.436 3.429 271.987V271.977L2.08 272.143L6.98 312.169L7.656 312.086C7.672 312.086 16.213 314.062 17.022 305.649C17.8181 299.181 19.0648 292.776 20.753 286.481C19.932 283.998 19.2936 281.457 18.843 278.881L20.15 282.06L25.436 281.329C27.122 284.94 28.8083 288.551 30.495 292.163C30.5682 292.381 30.686 292.581 30.841 292.751C30.9959 292.921 31.1846 293.056 31.395 293.149C31.9853 293.279 32.6006 293.236 33.167 293.025C53.035 287.605 70.904 278.581 89.967 271.602C89.6823 275.065 89.3753 278.501 89.046 281.911C87.813 294.523 84.446 302.045 83.212 314.658C84.406 315.122 85.545 315.545 86.659 315.945L86.147 318.011C86.055 317.921 85.97 317.841 85.875 317.748C82.5482 321.615 79.4192 325.648 76.5 329.831L76.464 329.809L75.757 330.971L97.957 344.471L114.213 345.024L114.26 343.665H114.16C114.49 342.085 115.433 335.399 108.054 334.365C106.576 334.158 105.112 333.86 103.67 333.474C100.518 329.347 98.178 325.841 98.178 325.841C97.678 325.614 97.232 325.408 96.798 325.211L98.775 319.539C103.409 320.613 108.255 321.431 114.402 322.401C115.58 311.337 118.102 281.206 119.064 266.014L119.177 266.19C121.406 265.728 123.709 265.762 125.923 266.29C126.345 268.659 126.804 271.025 127.323 273.385C132.994 269.321 138.911 265.611 145.04 262.276C147.201 261.042 149.574 259.527 150.075 257.09C150.245 255.628 150.056 254.147 149.523 252.775C147.527 246.008 145.871 239.153 144.554 232.211L144.56 232.203C145.349 230.627 145.76 228.89 145.76 227.128C146.213 218.958 145.506 210.764 143.66 202.792C142.86 203.453 141.981 204.011 141.043 204.454C140.095 189.373 140.712 174.234 142.885 159.28C143.455 152.409 144.26 146.746 146.32 141.48C148.38 136.214 150.041 132.006 154.926 129.158L155.795 128.595C164.471 124.699 173.452 121.522 182.648 119.095C184.819 118.666 186.91 117.903 188.848 116.834C191.821 114.96 193.591 111.71 195.187 108.579C201.031 97.115 206.269 85.3517 210.879 73.338L212.115 73.883C212.526 72.659 212.937 71.4353 213.347 70.212C220.748 84.7021 228.876 98.8091 237.7 112.479C238.608 114.045 239.746 115.466 241.075 116.696C244.784 119.806 250.146 119.536 254.987 119.557C260.958 119.584 266.901 120.3 272.852 120.827C265.883 132.834 255.83 142.758 243.734 149.571C242.951 149.965 242.22 150.455 241.559 151.031C241.057 151.55 240.616 152.125 240.245 152.744C238.437 155.52 236.629 158.296 234.82 161.072C237.92 161.757 240.825 163.132 243.32 165.094C243.649 165.411 244.058 165.633 244.504 165.736C245.019 165.743 245.523 165.581 245.937 165.274C262.05 155.682 273.547 139.367 275.611 122.597C276.018 124.597 276.338 126.776 276.711 128.93C277.185 131.674 277.767 134.399 278.438 137.101C278.835 149.428 280.981 161.637 284.812 173.361C286.212 177.643 287.991 182.022 291.274 185.061C290.35 185.688 289.592 186.53 289.065 187.515C288.887 187.807 288.781 188.137 288.758 188.478C288.735 188.819 288.794 189.161 288.931 189.474C289.051 189.794 289.142 190.124 289.202 190.461C289.802 192.633 290.426 194.801 291.046 196.969C290.669 198.277 290.257 199.878 289.796 201.858C285.437 220.768 282.044 239.888 279.63 259.144C279.089 262.115 279.074 265.158 279.585 268.135C280.322 271.326 282.209 274.109 284.006 276.847C293.839 291.827 302.248 308.108 315.379 320.301C315.819 320.79 316.394 321.138 317.031 321.301C317.716 321.334 318.394 321.157 318.976 320.794C321.872 319.359 324.734 317.859 327.563 316.294L330.078 321.194C329.242 321.594 328.321 322.012 327.263 322.494C327.263 322.494 324.922 326 321.77 330.127C320.328 330.513 318.865 330.811 317.387 331.019C310.008 332.051 310.95 338.735 311.28 340.319H311.18L311.226 341.678L327.482 341.125L350.309 327.157L349.954 326.577L349.6 326L349.566 326.02C346.647 321.835 343.517 317.801 340.19 313.933C339.634 314.476 339.123 314.962 338.636 315.414L336.922 310.82C336.951 310.802 336.98 310.786 337.008 310.768C338.023 310.139 339.165 309.239 339.023 308.054C338.91 307.519 338.662 307.022 338.303 306.61C332.603 298.848 326.903 291.085 320.712 283.91C319.668 279.415 318.658 274.912 317.682 270.402C318.643 271.256 319.651 272.057 320.7 272.8C326.006 276.492 331.512 279.888 337.193 282.973C350.86 290.725 364.605 298.514 379.361 303.912C380.023 304.229 380.765 304.339 381.49 304.228C382.25 303.936 382.889 303.395 383.3 302.692C384.388 301.202 385.397 299.655 386.323 298.059L390.278 300.644C390.118 301.404 389.939 302.221 389.74 303.137C391.876 309.294 393.581 315.593 394.84 321.987C396.254 330.328 404.646 327.733 404.646 327.733L405.325 327.767L407.326 287.5ZM211.212 51.656C211.212 51.656 211.452 51.118 211.784 50.261C212.327 51.804 212.809 52.884 212.809 52.884L215.072 58.945C214.954 58.904 214.836 58.861 214.717 58.826L209.144 57.191L211.212 51.656ZM283.761 86.124L284.661 85.693C284.466 85.828 284.27 85.963 284.077 86.1L283.407 86.208L283.761 86.124Z" fill="#E3DEE6" stroke="#E3DEE6" stroke-width="3.745" stroke-miterlimit="10"/>
<path d="M87.394 312.983L84.888 323.114L96.741 325.397L99.404 317.757L87.394 312.983Z" fill="#EED2AA"/>
<path d="M85.879 317.744C91.036 322.783 92.179 323.079 98.188 325.835C98.188 325.835 101.527 330.835 105.605 335.935L97.68 343.466L76.114 330.39C79.1425 326.004 82.4021 321.783 85.879 317.744Z" fill="#715782"/>
<path d="M108.064 334.359C116.442 335.531 114.092 343.995 114.092 343.995L97.622 343.979L103.348 333.391C104.9 333.806 106.474 334.129 108.064 334.359Z" fill="#715782"/>
<path d="M83.031 334.825C84.0791 333.183 84.4579 331.201 84.0896 329.288C83.7213 327.375 82.6339 325.676 81.051 324.54" stroke="#19254F" stroke-width="0.619" stroke-miterlimit="10" stroke-linecap="round"/>
<path d="M107.022 335.2C103.409 337.363 103.028 343.668 103.028 343.668" stroke="#19254F" stroke-width="0.681" stroke-miterlimit="10" stroke-linecap="round"/>
<path d="M114.244 344.34L98.166 343.793L76.114 330.391" stroke="#19254F" stroke-width="1.36" stroke-miterlimit="10"/>
<path d="M390.52 287.818L397.156 293.366L390.623 300.875L381.606 294.981L390.52 287.818Z" fill="#EED2AA"/>
<path d="M389.736 303.14C391.147 296.683 391.595 294.81 390.67 287.659C395.988 287.309 401.321 287.242 406.646 287.459L404.646 327.733C404.646 327.733 396.254 330.333 394.84 321.987C393.579 315.594 391.874 309.296 389.736 303.14Z" fill="#475172"/>
<path d="M406.034 296.435C403.898 296.271 401.906 295.294 400.469 293.705C399.032 292.117 398.258 290.038 398.307 287.896" stroke="#19254F" stroke-width="0.681" stroke-miterlimit="10" stroke-linecap="round"/>
<path d="M395.482 319.95C398.065 316.624 404.369 317.007 404.369 317.007" stroke="#19254F" stroke-width="0.681" stroke-miterlimit="10" stroke-linecap="round"/>
<path d="M404.643 327.736L406.646 287.462" stroke="#19254F" stroke-width="1.36" stroke-miterlimit="10"/>
<path d="M336.796 310.474L339.819 318.578L330.427 321.872L325.506 312.29L336.796 310.474Z" fill="#EED2AA"/>
<path d="M22.486 271.036L16.379 272.878L20.153 282.056L28.168 280.947L22.486 271.036Z" fill="#EED2AA"/>
<path d="M207.469 61.675L211.212 51.656C211.212 51.656 213.599 46.316 213.748 42.356C213.897 38.396 213.19 24.115 213.19 24.115C213.19 24.115 208.457 20.145 205.749 21.306C205.749 21.306 201.444 32.206 200.157 37.352C199.192 41.209 197.086 39.887 194.747 36.477C194.314 35.9994 193.759 35.6494 193.141 35.465C193.141 35.465 191.918 35.316 192.325 38.098C192.732 40.88 195.073 49.898 195.913 51.16C196.609 52.0485 197.498 52.7667 198.513 53.26L194.891 60.6L207.469 61.675Z" fill="#EED2AA"/>
<path d="M23.541 179.61L20.133 188.734C20.133 188.734 17.959 193.597 17.823 197.199C17.687 200.801 18.331 213.81 18.331 213.81C18.331 213.81 22.642 217.425 25.108 216.368C25.108 216.368 29.028 206.439 30.2 201.756C31.079 198.244 33 199.448 35.127 202.556C35.5208 202.992 36.0264 203.311 36.589 203.479C36.589 203.479 37.703 203.614 37.332 201.079C36.961 198.544 34.832 190.332 34.065 189.179C33.4308 188.371 32.6206 187.718 31.696 187.27L34.996 180.584L23.541 179.61Z" fill="#EED2AA"/>
<path d="M216.551 62.8999L212.809 52.8809C212.809 52.8809 210.421 47.5409 210.272 43.5809C210.123 39.6209 210.83 25.3399 210.83 25.3399C210.83 25.3399 218.805 22.2979 221.513 23.4599C221.513 23.4599 224.673 33.3979 225.96 38.5399C226.925 42.3969 226.03 40.4609 228.369 37.0519C228.8 36.5745 229.353 36.2242 229.969 36.0389C229.969 36.0389 231.193 35.8909 230.785 38.6719C230.377 41.4529 228.943 51.1239 228.102 52.3849C227.406 53.2735 226.517 53.9917 225.502 54.4849L229.126 61.8279L216.551 62.8999Z" fill="#F0B77F"/>
<path d="M316.482 68.749C313.698 70.007 312.123 70.532 312.123 70.532L313.306 67.145L316.482 68.745" fill="#F49727"/>
<path d="M315.38 75.892C313.976 75.5859 312.531 75.5102 311.103 75.668L311.492 78.757L314.561 78.957L315.38 75.892Z" fill="#270041"/>
<path d="M291.05 74.8241C291.032 74.0312 290.708 73.2758 290.147 72.7153C289.586 72.1549 288.83 71.8324 288.037 71.8151C282.081 71.6811 279.903 71.9441 278.194 69.2031C275.323 64.6031 278.389 59.9341 275.88 58.9771C274.469 58.4381 273.108 56.8351 274.405 54.9361C278.577 48.8241 279.384 47.9911 278.954 44.5421C278.398 40.0851 283.183 28.6921 291.898 26.2581C303.987 22.8821 317.898 26.5581 321.932 33.8341C326.289 41.6831 325.758 53.5511 317.623 62.6231C311.003 70.0071 312.028 80.7581 312.404 85.4721C309.69 88.0547 306.212 89.6883 302.492 90.1281C298.678 90.4696 294.84 89.8289 291.343 88.2671L291.05 74.8241Z" fill="#F0B77F"/>
<path d="M291.129 78.041L305.659 78.859L289.338 83.464L283.761 86.124L281.203 86.738L288.315 81.724L291.129 78.041Z" fill="#B8DFE6"/>
<path d="M284.443 27.511C283.516 28.6376 282.827 29.9414 282.42 31.3428C282.013 32.7442 281.896 34.2138 282.076 35.662L286.253 31.254L284.443 27.511Z" fill="#F49727"/>
<path d="M283.706 32C286.33 35.362 296.306 39.357 300.401 39.359C304.496 39.361 300.501 46.186 302.288 47.447C309.154 52.299 302.913 58.265 302.913 58.265C303.12 63.411 309.105 67.51 314.145 69.088C319.185 70.666 337.386 50.801 328.545 36.537C315.008 14.686 297.767 21.361 291.058 23.706C280.558 27.378 283.706 32 283.706 32Z" fill="#F49727"/>
<path d="M286.91 48.045C286.025 47.6451 285.097 47.3469 284.144 47.156" stroke="#CD8852" stroke-width="1.482" stroke-miterlimit="10" stroke-linecap="round"/>
<path d="M282.389 40.769C285.077 40.2881 287.849 40.6569 290.318 41.824" stroke="#CD8852" stroke-width="1.482" stroke-miterlimit="10" stroke-linecap="round"/>
<path d="M275.974 57.623C276.762 57.308 277.497 58.674 278.862 58.517" stroke="#CD8852" stroke-width="0.811" stroke-miterlimit="10" stroke-linecap="round"/>
<path d="M294.239 22.7329C284.963 25.5029 284.48 25.8639 278.982 24.7539C278.982 24.7539 277.909 30.5479 283.706 32.0009L293.419 27.8139L294.239 22.7329Z" fill="#F49727"/>
<path d="M296.772 22.094C289.613 23.933 287.203 22.723 284.558 21.739C284.501 22.7345 284.775 23.7209 285.336 24.5447C285.898 25.3686 286.716 25.9836 287.664 26.294L296.752 25.021L296.772 22.094Z" fill="#F49727"/>
<path d="M298.67 39.2C300.67 39.661 298.732 47.2 295.87 48.544C295.87 48.544 300.37 49.925 303.534 46.91L305.246 42.216L303.324 36.625L298.67 39.2Z" fill="#F49727"/>
<path d="M301.368 48.6599C301.751 48.1474 302.277 47.7599 302.88 47.5463C303.483 47.3327 304.136 47.3026 304.756 47.4599C305.379 47.6339 305.958 47.9377 306.455 48.3513C306.952 48.7649 307.357 49.279 307.641 49.8599C308.136 50.8473 308.333 51.957 308.209 53.0543C308.084 54.1516 307.644 55.1892 306.941 56.0409C306.207 56.8531 305.252 57.4334 304.193 57.7105C303.134 57.9876 302.018 57.9495 300.98 57.6009" fill="#F0B77F"/>
<path d="M301.368 48.6599C301.751 48.1474 302.277 47.7599 302.88 47.5463C303.483 47.3327 304.136 47.3026 304.756 47.4599C305.379 47.6339 305.958 47.9377 306.455 48.3513C306.952 48.7649 307.357 49.279 307.641 49.8599C308.136 50.8473 308.333 51.957 308.209 53.0543C308.084 54.1516 307.644 55.1892 306.941 56.0409C306.207 56.8531 305.252 57.4334 304.193 57.7105C303.134 57.9876 302.018 57.9495 300.98 57.6009" stroke="#CD8852" stroke-width="0.811" stroke-miterlimit="10" stroke-linecap="round"/>
<path d="M300.945 54.2999C301.22 54.1976 301.466 54.0308 301.663 53.8137C301.86 53.5965 302.002 53.3353 302.077 53.0519C302.149 52.7628 302.152 52.461 302.088 52.1703C302.023 51.8795 301.892 51.6076 301.705 51.3759C302.027 50.8544 302.506 50.4483 303.073 50.2159C303.357 50.1036 303.661 50.0508 303.967 50.0608C304.272 50.0707 304.572 50.1433 304.848 50.2739C305.3 50.5199 305.649 50.9201 305.831 51.4017C306.013 51.8833 306.016 52.4142 305.84 52.8979" stroke="#CD8852" stroke-width="0.811" stroke-miterlimit="10" stroke-linecap="round"/>
<path d="M311.1 75.668C311.121 77.351 312.321 79.712 316.588 81.897L307.773 86.183L301.538 81.553L311.1 75.668Z" fill="#F0B77F"/>
<path d="M276.853 59.775C282.87 59.859 287.153 60.8119 291.386 58.2579C295.619 55.7039 296.5 48.7 296.5 48.7L300.53 48.7599C300.53 48.7599 298.553 54.8909 299.53 58.5789C300.507 62.2669 301.225 71.8789 289.135 71.6989C277.045 71.5189 278.218 71.4359 276.87 67.1409C275.9 64.0539 276.853 59.775 276.853 59.775Z" fill="#D7A076"/>
<path d="M282.318 66.5669C284.668 66.9159 287.059 65.1669 288.828 63.8829C288.91 63.8233 288.971 63.7395 289.002 63.6433C289.034 63.5471 289.034 63.4434 289.003 63.347C288.972 63.2506 288.912 63.1664 288.83 63.1064C288.749 63.0464 288.65 63.0137 288.549 63.0129C286.343 63.0029 282.406 62.8689 280.896 62.0779" stroke="#CD8852" stroke-width="1.482" stroke-miterlimit="10" stroke-linecap="round"/>
<path d="M303.9 35.778C298.51 35.578 286.805 31.092 284.439 27.511" stroke="#EC7A00" stroke-width="1.068" stroke-miterlimit="10" stroke-linecap="round"/>
<path d="M314.451 40.4851C313.397 43.5879 313.098 46.8974 313.58 50.1387C314.061 53.3801 315.309 56.4598 317.22 59.1221" stroke="#EC7A00" stroke-width="1.068" stroke-miterlimit="10" stroke-linecap="round"/>
<path d="M313.954 30.011C311.116 24.754 303.372 23.011 295.111 24.536" stroke="#EC7A00" stroke-width="1.068" stroke-miterlimit="10" stroke-linecap="round"/>
<path d="M310 32.982C304.281 31.99 295.465 29.551 291.968 27.061" stroke="#EC7A00" stroke-width="0.534" stroke-miterlimit="10" stroke-linecap="round"/>
<path d="M289.794 201.858C285.435 220.768 282.042 239.888 279.628 259.144C279.087 262.115 279.072 265.158 279.583 268.135C280.32 271.326 282.207 274.109 284.004 276.847C293.837 291.827 302.246 308.108 315.377 320.301C315.817 320.79 316.392 321.138 317.029 321.301C317.714 321.334 318.392 321.157 318.974 320.794C325.14 317.739 331.152 314.395 337.009 310.761C338.024 310.132 339.166 309.232 339.024 308.047C338.911 307.512 338.663 307.015 338.304 306.603C332.604 298.841 326.904 291.078 320.713 283.903C316.713 266.666 313.188 249.328 310.138 231.888C308.385 221.863 306.51 211.204 299.672 203.667C298.793 202.698 297.101 202.578 296.53 201.401C294.445 197.1 294.223 182.814 289.794 201.858Z" fill="#270041"/>
<path d="M324.275 309.9C315.056 297.335 306.148 284.55 297.551 271.545C296.371 269.938 295.442 268.162 294.794 266.277C294.32 264.271 294.177 262.2 294.372 260.148C295.102 244.568 297.96 229.162 302.864 214.356" stroke="#47265D" stroke-width="1.256" stroke-miterlimit="10"/>
<path d="M291.906 185.649C288.197 182.608 286.306 177.92 284.806 173.361C280.239 159.393 278.069 144.753 278.39 130.061C286.576 131.305 293.116 137.508 298.09 144.125C305.277 153.682 310.546 165.951 307.351 177.473C306.991 179.152 306.158 180.693 304.951 181.915C303.648 182.921 302.116 183.589 300.492 183.861C297.414 184.6 294.267 185.086 291.906 185.649Z" fill="#B8DFE6"/>
<path d="M275.888 115C269.035 129.593 257.794 141.682 243.737 149.576C242.954 149.969 242.223 150.459 241.562 151.035C241.06 151.554 240.619 152.128 240.249 152.748L234.823 161.077C237.923 161.761 240.828 163.136 243.323 165.098C243.652 165.416 244.061 165.637 244.507 165.74C245.022 165.747 245.526 165.585 245.94 165.278C264.48 154.234 276.919 134.29 275.888 115Z" fill="#E83C65"/>
<path d="M117.631 89.321L140.266 91.207L147.975 116.106L130.374 195.511L100.495 194.283L107.044 141.074L117.631 89.321Z" fill="#59B5C5"/>
<path d="M119.187 266.184C121.869 265.623 124.654 265.812 127.236 266.73L126.964 240.125L122.475 226.013C122.475 226.013 113.593 233.713 113.593 234.395C113.593 235.077 113.32 257.043 113.32 257.043L119.187 266.184Z" fill="#59B5C5"/>
<path d="M89.05 281.907C87.817 294.52 84.45 302.041 83.217 314.654C94.487 319.035 101.65 320.381 114.417 322.395C115.855 308.895 119.294 266.985 119.458 258.495C119.602 251.216 120.338 243.96 121.66 236.8C121.611 236.8 121.56 236.8 121.32 238.048C123.396 231.18 123.646 223.657 123.871 216.293L124.639 191.187C124.663 190.381 124.624 189.412 124.083 189.002C123.868 188.862 123.62 188.782 123.364 188.77C115.607 187.763 107.764 187.835 100.309 190.486C97.327 193.048 96.42 198.076 95.833 202.629C92.4 229.34 91.537 256.477 89.05 281.907Z" fill="#8BCBD7"/>
<path d="M140.766 98.555C136.066 111.537 133.893 125.271 131.741 138.907C124.708 183.48 117.7 229.3 127.329 273.38C133 269.316 138.917 265.606 145.046 262.271C147.207 261.037 149.58 259.522 150.082 257.085C150.252 255.623 150.062 254.142 149.529 252.77C140.61 222.447 138.346 190.554 142.892 159.275C143.462 152.404 144.267 146.741 146.327 141.475C148.387 136.209 150.048 132.001 154.933 129.153L155.803 128.59C164.479 124.694 173.459 121.516 182.655 119.09C184.826 118.66 186.917 117.898 188.855 116.829C191.827 114.955 193.598 111.705 195.194 108.575C201.258 96.6868 206.67 84.477 211.405 72L184.405 60.24L184.205 61.212C180.505 68.544 176.513 76.591 172.818 83.922C172.588 84.4982 172.208 85.0025 171.718 85.383C171.301 85.5913 170.866 85.7622 170.418 85.894C168.701 86.594 167.989 88.601 167.47 90.382C166.891 89.8833 166.161 89.594 165.398 89.5608C164.635 89.5276 163.883 89.7524 163.263 90.199C162.622 90.8 162.036 91.4562 161.51 92.16C160.129 93.66 159.476 93.565 157.536 94.178L157.173 94.346C155.686 94.6629 154.153 94.6992 152.652 94.453C151.656 94.1705 150.691 93.7851 149.775 93.303C146.958 92.0008 143.969 91.1081 140.899 90.652C140.781 90.389 140.755 90.46 140.618 90.699L140.766 98.555Z" fill="#B8DFE6"/>
<path d="M133.057 205.511C134.917 205.862 136.832 205.8 138.665 205.329C140.498 204.858 142.206 203.99 143.667 202.787C145.513 210.759 146.22 218.952 145.767 227.122C145.767 228.884 145.356 230.622 144.567 232.198C144.156 232.977 143.517 233.611 142.735 234.015C141.953 234.42 141.066 234.576 140.193 234.461C138.493 234.084 137.421 232.44 136.631 230.89C132.652 223.063 131.395 214.133 133.057 205.511Z" fill="#D7EDF1"/>
<path d="M32.511 263.439C28.289 265.348 23.989 267.151 19.611 268.849L30.5 292.159C30.5726 292.377 30.6902 292.578 30.8453 292.748C31.0003 292.917 31.1893 293.053 31.4 293.145C31.9903 293.275 32.6056 293.232 33.172 293.021C54.567 287.184 73.641 277.165 94.385 270.021C96.7464 269.346 99.0036 268.349 101.093 267.058C102.993 265.717 104.231 263.684 103.485 262.234C103.039 259.775 100.875 257.672 98.079 256.364C95.0484 255.079 91.8019 254.379 88.511 254.302C82.132 253.976 75.664 255.01 69.303 256.037L56.578 258.1C53.32 258.626 50.056 259.154 46.858 259.894C43.194 260.742 39.62 261.869 35.889 262.484C34.318 262.74 32.616 262.947 32.511 263.439Z" fill="#B8DFE6"/>
<path d="M198.278 67.784L212.123 73.877L215.978 62.391C216.328 61.349 216.606 60.015 215.769 59.303C215.455 59.0724 215.097 58.9099 214.717 58.826L184.637 50C183.2 52.5404 182.132 55.273 181.466 58.115C181.189 58.912 181.215 59.7832 181.54 60.562C181.918 61.1075 182.442 61.535 183.052 61.795C188.179 64.535 193.907 65.86 198.278 67.784Z" fill="#D7EDF1"/>
<path d="M130.868 158.939C135.609 147.843 140.734 136.922 146.242 126.176C143.927 126.658 141.559 126.837 139.198 126.711C140.923 118.318 144.192 110.319 148.841 103.121C149.656 101.861 150.498 100.129 149.509 99.0001C149.049 98.5735 148.493 98.2647 147.888 98.1001C146.228 97.436 144.724 96.4348 143.471 95.1599C142.218 93.885 141.243 92.364 140.607 90.6931C140.607 90.6931 129.007 150.758 128.601 156.762C128.446 159.784 128.081 162.791 127.509 165.762L130.868 158.939Z" fill="#D7EDF1"/>
<path d="M129.965 97.9601C125.348 121.153 122.293 143.921 117.675 167.114C115.827 176.396 113.975 185.68 112.475 195.024C108.471 219.885 106.957 245.083 107.956 270.244C102.331 268.503 96.5175 267.445 90.64 267.092C81.44 266.542 72.24 267.728 63.029 268.022C53.818 268.316 44.314 267.649 36.006 263.665C31.7637 261.454 27.7508 258.827 24.026 255.825C33.011 245.38 35.713 231.142 40.169 218.105C46.622 199.228 57.286 184.349 60.793 164.711L77.984 123.883L89.99 108.6L90.263 93.5921L109.091 90.3181L124.644 87.5891L129.965 97.9601Z" fill="#CAE7EC"/>
<path d="M123.247 90.679C123.247 92.92 120.873 94.443 120.258 96.599C120.057 97.5045 120.015 98.438 120.133 99.358L121.687 121.408C119.769 121.021 117.798 120.97 115.863 121.257C118.232 144.484 118.505 154.444 118.505 162.221L130.877 100.767C131.301 98.6604 131.084 96.4751 130.254 94.493L126.964 86.636L123.247 90.679Z" fill="#D7EDF1"/>
<path d="M289.2 190.461C295.71 213.892 303.157 237.035 311.542 259.891C312.666 262.954 313.842 266.075 315.921 268.591C317.329 270.191 318.935 271.605 320.7 272.8C326.006 276.492 331.512 279.888 337.193 282.973C350.86 290.725 364.605 298.514 379.361 303.912C380.023 304.229 380.765 304.339 381.49 304.228C382.25 303.936 382.889 303.395 383.3 302.692C387.385 297.107 390.339 290.777 391.994 284.058C392.371 282.985 392.381 281.816 392.022 280.737C391.51 279.854 390.758 279.134 389.852 278.663L351.552 253.963C349.952 252.932 348.152 251.857 346.277 252.194C346.392 251.441 346.339 250.672 346.121 249.943C345.904 249.213 345.527 248.54 345.019 247.974C344.511 247.407 343.883 246.959 343.181 246.664C342.479 246.369 341.721 246.232 340.96 246.265C340.16 245.911 340.974 244.795 341.529 244.123C342.424 243.039 342.391 241.488 342.313 240.085L341.524 225.905C341.065 220.305 341.048 214.678 341.474 209.076C341.825 205.657 342.507 202.252 342.397 198.816C342.211 193.023 339.797 187.564 337.715 182.816C334.298 179.43 329.034 178.958 324.229 178.724C312.879 178.172 300.541 178.146 291.429 184.938C290.441 185.588 289.628 186.473 289.065 187.514C288.887 187.806 288.781 188.136 288.758 188.477C288.735 188.818 288.794 189.16 288.931 189.473C289.051 189.793 289.141 190.124 289.2 190.461Z" fill="#47265D"/>
<path d="M381.271 289.508C365.432 281.563 350.491 271.941 336.705 260.808C334.274 259.056 332.189 256.869 330.556 254.356C328.956 251.556 328.481 248.27 328.038 245.074C326.048 230.718 324.058 216.362 322.067 202.006" stroke="#270041" stroke-width="1.256" stroke-miterlimit="10"/>
<path d="M321.98 85C326.553 93.234 330.075 99.183 330.68 108.582C330.874 111.572 330.669 114.572 330.731 117.567C330.997 123.088 331.722 128.578 332.899 133.979C334.159 141.308 335.818 148.563 337.868 155.711C340.968 165.869 345.598 175.486 350.206 185.056C347.544 186.075 344.777 186.793 341.955 187.194L322.207 190.762C317.883 191.543 313.22 192.284 309.258 190.383C306.924 189.091 304.881 187.331 303.258 185.213C289.506 169.182 280.333 149.738 276.704 128.931C275.986 124.776 275.468 120.496 274.132 117.706C271.789 109.55 274.699 100.906 277.576 92.929C279.116 88.659 288.024 83.129 292.249 81.47C295.114 80.344 295.831 82.339 300.128 82.032C303.964 81.758 305.49 81.6 309.314 81.201C313.138 80.802 317.261 81.009 320.428 83.19C320.764 83.3638 321.037 83.6391 321.208 83.977C321.381 84.3741 321.646 84.7246 321.98 85Z" fill="#270041"/>
<path d="M296.526 84.381C304.381 83.605 311.686 90.013 313.903 97.589C314.59 99.7593 314.79 102.055 314.487 104.311C313.857 108.289 311.205 111.702 308.051 114.211C300.919 119.875 291.351 121.496 282.243 121.377C273.135 121.258 264.1 119.6 254.99 119.557C250.149 119.536 244.79 119.806 241.078 116.696C239.749 115.467 238.611 114.045 237.703 112.479C227.837 97.1961 218.843 81.3678 210.764 65.07C210.576 64.8812 210.444 64.6431 210.384 64.3831C210.325 64.123 210.339 63.8515 210.426 63.5993C210.514 63.3472 210.67 63.1247 210.878 62.9572C211.086 62.7897 211.336 62.6839 211.601 62.652L228.129 56.428C228.453 56.2239 228.817 56.0899 229.196 56.035C229.576 55.98 229.962 56.0051 230.331 56.1088C230.7 56.2124 231.043 56.3923 231.339 56.6367C231.634 56.8812 231.874 57.1848 232.045 57.528C237.131 63.8287 242.088 70.2313 246.915 76.736C249.035 79.593 251.244 83.036 250.264 86.456C251.063 85.9354 252.006 85.6794 252.958 85.7242C253.911 85.7691 254.825 86.1126 255.572 86.706C256.336 87.339 256.902 88.24 257.808 88.646C258.47 88.8861 259.176 88.9796 259.877 88.92C272.329 88.726 284.458 85.572 296.526 84.381Z" fill="#47265D"/>
<path d="M319.575 82.8501L315.38 75.8921C315.38 75.8921 313.275 77.3611 306.38 78.4501C301.52 79.2171 300.292 79.5761 293.845 80.7011L287.45 83.9241C287.45 83.9241 299.013 85.1011 304.436 84.7941C309.859 84.4871 319.575 82.8501 319.575 82.8501Z" fill="#270041"/>
<path d="M234.065 5.18506L236.93 7.09506L224.651 19.2371L234.065 5.18506Z" fill="#E83C65"/>
<path d="M215.373 18.146L218.511 0.682L212.235 0L215.373 18.146Z" fill="#E83C65"/>
<path d="M202.412 18.692L189.86 4.09302L186.995 8.59502L202.412 18.692Z" fill="#E83C65"/>
<path d="M20.756 286.481C18.884 280.142 18.302 278.306 18.71 271.107C13.3805 271.142 8.05671 271.46 2.761 272.06L7.661 312.086C7.661 312.086 16.217 314.07 17.027 305.649C17.8225 299.181 19.0685 292.776 20.756 286.481Z" fill="#715782"/>
<path d="M4.01801 280.967C6.13634 280.649 8.05208 279.53 9.37122 277.843C10.6904 276.155 11.3126 274.026 11.11 271.893" stroke="#19254F" stroke-width="0.681" stroke-miterlimit="10" stroke-linecap="round"/>
<path d="M16.235 303.661C13.419 300.529 7.159 301.361 7.159 301.361" stroke="#19254F" stroke-width="0.681" stroke-miterlimit="10" stroke-linecap="round"/>
<path d="M7.659 312.086L2.761 272.06" stroke="#19254F" stroke-width="1.36" stroke-miterlimit="10"/>
<path d="M340.191 313.929C335.034 318.968 333.268 319.737 327.261 322.492C327.261 322.492 323.921 327.498 319.843 332.592L327.768 340.124L349.956 326.578C346.928 322.191 343.668 317.969 340.191 313.929Z" fill="#475172"/>
<path d="M317.385 331.017C309.006 332.189 311.357 340.652 311.357 340.652L327.826 340.637L322.1 330.049C320.549 330.463 318.974 330.787 317.385 331.017Z" fill="#475172"/>
<path d="M342.418 331.482C341.265 329.677 340.849 327.498 341.254 325.394C341.658 323.291 342.854 321.423 344.595 320.174" stroke="#19254F" stroke-width="0.681" stroke-miterlimit="10" stroke-linecap="round"/>
<path d="M318.426 331.859C322.04 334.022 322.426 340.326 322.426 340.326" stroke="#19254F" stroke-width="0.681" stroke-miterlimit="10" stroke-linecap="round"/>
<path d="M311.205 340.998L327.282 340.451L349.956 326.576" stroke="#19254F" stroke-width="1.36" stroke-miterlimit="10"/>
<path d="M61.6511 186.047L69.8739 187.913L63.4495 216.213C63.2019 217.304 62.5314 218.251 61.5853 218.847C60.6392 219.443 59.4951 219.639 58.4047 219.391C57.3143 219.144 56.3669 218.473 55.7709 217.527C55.1749 216.581 54.9791 215.437 55.2267 214.347L61.6511 186.047Z" fill="#E3F3F5"/>
<path d="M60.038 193.152L55.227 214.352C55.0964 214.895 55.0749 215.458 55.1638 216.009C55.2526 216.56 55.45 217.088 55.7444 217.562C56.0389 218.037 56.4246 218.448 56.8792 218.772C57.3338 219.096 57.8481 219.326 58.3925 219.45C58.9368 219.573 59.5003 219.587 60.0502 219.492C60.6001 219.396 61.1255 219.192 61.5958 218.891C62.0662 218.591 62.4723 218.2 62.7904 217.741C63.1085 217.282 63.3324 216.765 63.449 216.219L68.261 195.024L60.038 193.152Z" fill="#F7B7C6"/>
<path opacity="0.39" d="M61.6511 186.047L69.8739 187.913L63.4495 216.213C63.2019 217.304 62.5314 218.251 61.5853 218.847C60.6392 219.443 59.4951 219.639 58.4047 219.391V219.391C57.3143 219.144 56.3669 218.473 55.7709 217.527C55.1749 216.581 54.9791 215.437 55.2267 214.347L61.6511 186.047V186.047Z" stroke="#B1DCE4" stroke-width="0.739" stroke-linejoin="round"/>
<path d="M65.7 194.438L61.508 212.905C61.132 214.558 59.932 217.7 55.472 216.94C55.8206 217.759 56.4199 218.446 57.1839 218.903C57.9479 219.36 58.837 219.562 59.7235 219.482C60.6099 219.401 61.4478 219.041 62.1167 218.454C62.7857 217.867 63.2511 217.082 63.446 216.214L68.258 195.019L65.7 194.438Z" fill="#F4A0B3"/>
<path d="M71.4769 185.843L61.099 183.487L60.5916 185.722L70.9695 188.078L71.4769 185.843Z" fill="#E3F3F5"/>
<path d="M71.4769 185.843L61.099 183.487L60.5916 185.722L70.9695 188.078L71.4769 185.843Z" stroke="#B1DCE4" stroke-width="0.739" stroke-linejoin="round"/>
<path d="M60.829 202.524C61.1305 202.524 61.375 202.28 61.375 201.978C61.375 201.677 61.1305 201.432 60.829 201.432C60.5275 201.432 60.283 201.677 60.283 201.978C60.283 202.28 60.5275 202.524 60.829 202.524Z" fill="#F07E99"/>
<path d="M62.681 208.567C63.1052 208.567 63.449 208.223 63.449 207.799C63.449 207.375 63.1052 207.031 62.681 207.031C62.2568 207.031 61.913 207.375 61.913 207.799C61.913 208.223 62.2568 208.567 62.681 208.567Z" fill="#F07E99"/>
<path d="M58.844 213.335C59.1196 213.335 59.343 213.111 59.343 212.836C59.343 212.56 59.1196 212.337 58.844 212.337C58.5684 212.337 58.345 212.56 58.345 212.836C58.345 213.111 58.5684 213.335 58.844 213.335Z" fill="#F07E99"/>
<path d="M71.0326 186.102L67.5454 185.311L67.1994 186.835L70.6866 187.627L71.0326 186.102Z" fill="#CCE8ED"/>
<path opacity="0.52" d="M71.4769 185.843L61.099 183.487L60.5916 185.722L70.9695 188.078L71.4769 185.843Z" stroke="#B1DCE4" stroke-width="0.739" stroke-linejoin="round"/>
<path d="M69.293 185.032L63.738 183.732L64.121 181.913C64.215 181.511 64.4647 181.163 64.8153 180.944C65.166 180.726 65.5888 180.656 65.991 180.75L68.514 181.338C68.9161 181.432 69.2644 181.682 69.4825 182.032C69.7006 182.383 69.7705 182.806 69.677 183.208L69.293 185.032Z" fill="#F6AA4E"/>
<path d="M71.076 183.285L62.946 181.385L63.312 179.563C63.512 178.725 64.659 178.278 65.885 178.563L69.576 179.423C70.802 179.709 71.637 180.623 71.442 181.457L71.076 183.285Z" fill="#F59E35"/>
<path opacity="0.52" d="M66.5435 189.904L64.0211 189.316C63.619 189.222 63.2706 188.972 63.0525 188.622C62.8344 188.271 62.7646 187.848 62.8583 187.446L63.7439 183.648L69.295 184.942L68.4095 188.74C68.3159 189.141 68.0669 189.489 67.7171 189.708C67.3673 189.926 66.9452 189.996 66.5435 189.904Z" fill="#F6AA4E"/>
<path d="M83.7436 194.836L81.7164 192.96L70.4395 205.146L72.4666 207.022L83.7436 194.836Z" fill="#715782"/>
<path d="M86.272 201.657C92.6697 201.657 97.856 196.471 97.856 190.073C97.856 183.675 92.6697 178.489 86.272 178.489C79.8743 178.489 74.688 183.675 74.688 190.073C74.688 196.471 79.8743 201.657 86.272 201.657Z" fill="#90CDD8" stroke="#9683A3" stroke-width="1.481" stroke-miterlimit="10"/>
<path d="M77.8352 203.309L73.7259 199.506L62.449 211.692L66.5583 215.495L77.8352 203.309Z" fill="#A494AF"/>
<path d="M91.99 189.269C93.1272 189.269 94.049 188.347 94.049 187.21C94.049 186.073 93.1272 185.151 91.99 185.151C90.8528 185.151 89.931 186.073 89.931 187.21C89.931 188.347 90.8528 189.269 91.99 189.269Z" fill="#BBE0E7"/>
<path opacity="0.63" d="M92.497 193.291C93.1752 193.291 93.725 192.741 93.725 192.063C93.725 191.385 93.1752 190.835 92.497 190.835C91.8188 190.835 91.269 191.385 91.269 192.063C91.269 192.741 91.8188 193.291 92.497 193.291Z" fill="white"/>
<path d="M84.281 179.812C81.545 183.243 81.931 194.385 85.572 200.212C83.2317 199.999 81.0295 199.011 79.315 197.404C78.2172 196.279 77.3786 194.928 76.8577 193.446C76.3369 191.963 76.1466 190.384 76.3 188.82C76.8209 185.898 78.4068 183.273 80.751 181.452C81.8718 180.792 83.054 180.243 84.281 179.812Z" fill="#BBE0E7"/>
<path d="M78.41 205.75C69.1555 206.361 59.8702 205.177 51.065 202.264C51.325 206.406 49.209 210.264 47.626 214.103C46.043 217.942 45.026 222.568 47.272 226.059C48.872 228.552 51.794 229.859 54.644 230.677C57.7657 231.716 61.1071 231.907 64.327 231.232C69.172 229.983 72.862 225.857 74.855 221.268C76.848 216.679 77.405 211.616 78.41 205.75Z" fill="#E6F4F6"/>
<path d="M113.464 57.1921C112.888 56.9201 112.316 56.6411 111.74 56.3991C106.722 54.2911 101.298 56.3161 96.329 58.5391C90.248 61.2591 87.383 67.6031 87.729 74.0841C87.829 75.9691 87.598 77.1521 86.173 78.3901C85.0194 79.2413 83.6611 79.7719 82.236 79.9281C79.467 80.4441 74.12 80.5991 70.336 87.5571C69.3188 89.408 68.735 91.4657 68.6287 93.575C68.5223 95.6843 68.8961 97.7903 69.722 99.7341C70.365 101.269 71.484 102.614 71.635 104.272C71.811 106.193 70.035 107.634 68.752 109.072C67.232 110.779 66.214 113.157 66.833 115.358C67.733 118.568 71.795 119.979 75.027 119.158C78.259 118.337 80.818 115.941 83.227 113.634L87.48 109.559C90.651 106.519 93.869 103.421 96.035 99.6001C96.635 98.5381 97.247 97.3401 98.381 96.8891C99.5226 96.6112 100.723 96.7061 101.807 97.1601C103.481 97.6465 105.225 97.8417 106.965 97.7371C99.556 80.3301 107.932 67.4001 113.464 57.1921Z" fill="#83C8D4"/>
<path d="M117.631 89.3209C117.491 89.2669 117.531 89.5789 117.674 89.5509C117.817 89.5229 117.874 89.3389 117.887 89.1899C118.218 85.9519 116.329 82.9469 114.492 80.2599C111.641 76.0879 108.631 71.7249 108.086 66.7009C107.894 64.0743 108.122 61.434 108.76 58.8789C109.25 56.2357 110.098 53.6715 111.28 51.2569C112.714 48.5819 114.771 46.2919 117.278 44.5809C119.784 42.8699 122.667 41.7884 125.68 41.4279C129.753 41.0918 133.846 41.7868 137.58 43.4489C138.945 43.993 140.246 44.6827 141.463 45.5059C146.087 48.7339 148.407 54.3139 150.037 59.7129C150.963 61.7189 153.289 63.5199 155.069 65.6279C155.738 66.311 156.181 67.1841 156.335 68.1279C156.368 68.5821 156.284 69.037 156.093 69.4502C155.902 69.8633 155.608 70.2211 155.241 70.4899C154.582 70.9599 153.698 71.1379 153.21 71.7839C152.816 72.482 152.695 73.3019 152.872 74.0839L153.219 77.4589C153.48 78.7239 153.343 80.0385 152.828 81.2229C152.008 82.6639 150.233 83.2009 148.628 83.6279C144.611 84.6979 141.828 84.2909 140.9 88.3809C140.693 89.2919 140.577 90.2219 140.259 91.2149C139.45 92.0888 138.451 92.7648 137.339 93.1905C136.227 93.6162 135.033 93.7803 133.847 93.6699C129.547 93.4319 126.411 91.0779 125.763 90.0889L117.631 89.3209Z" fill="#EED2AA"/>
<path d="M157.629 61.712C157.863 57.3423 156.425 53.0474 153.606 49.7C152.812 48.766 151.642 47.846 150.476 48.226C149.31 48.606 148.906 50.061 148.828 51.295C148.59 55.2716 149.744 59.2069 152.092 62.425C152.522 63.0657 153.074 63.6149 153.717 64.041C154.04 64.2512 154.407 64.3855 154.789 64.4338C155.172 64.4821 155.561 64.4432 155.926 64.32C156.405 64.0619 156.812 63.6881 157.109 63.2326C157.407 62.777 157.585 62.2543 157.629 61.712Z" fill="#715782"/>
<path d="M149.785 61.259C149.117 58.0402 147.734 55.0126 145.738 52.4C144.912 51.322 143.676 50.22 142.368 50.583C141.06 50.946 140.568 52.531 140.453 53.883C140.18 57.1893 140.887 60.5028 142.485 63.41C143.017 64.4818 143.801 65.4083 144.77 66.11C145.259 66.4553 145.827 66.6706 146.422 66.7358C147.017 66.8011 147.618 66.7141 148.17 66.483C148.682 66.2298 149.119 65.8476 149.438 65.3742C149.757 64.9007 149.947 64.3524 149.99 63.783C150.114 62.937 150.043 62.074 149.785 61.259Z" fill="#715782"/>
<path d="M45.785 181.6C51.285 174.462 59.667 163.163 65.166 156.025C65.8969 154.827 67.009 153.908 68.324 153.417C69.979 153.012 71.91 153.963 73.342 153.042C74.617 152.222 74.711 150.43 75.4 149.08C76.206 147.499 77.839 146.544 79.387 145.68L93.036 138.02C97.231 135.665 101.491 133.262 104.836 129.808C108.181 126.354 110.553 121.635 110.078 116.848C109.642 112.442 106.93 108.629 104.178 105.16C101.621 101.935 94.642 98.0831 90.923 99.8451L89.234 100.561C81.694 106.934 72.9 114.953 64.567 120.247C61.449 122.229 58.225 124.056 55.261 126.262C49.108 130.842 44.261 136.916 39.482 142.917C32.73 151.402 24.836 161.931 18.082 170.417L44.55 182.696L45.785 181.6Z" fill="#D7EDF1"/>
<path d="M22.848 183.918L39 190.743C39.3653 190.945 39.7867 191.022 40.2 190.963C40.5856 190.813 40.9122 190.542 41.131 190.191L47.631 181.847C42.089 179.084 36.5163 176.384 30.913 173.747C25.99 171.433 20.934 169.137 15.526 168.553L12 176.857C11.906 176.98 11.8427 177.123 11.8151 177.275C11.7876 177.427 11.7966 177.584 11.8416 177.732C11.8866 177.879 11.9661 178.014 12.0736 178.126C12.1812 178.237 12.3136 178.32 12.46 178.37C15.8103 180.422 19.2791 182.275 22.848 183.918Z" fill="#E8F5F7"/>
<path d="M104.384 103.929C99.779 104.543 88.114 100.859 82.691 105.771L84.532 94.413L102.644 91.241L104.384 103.929Z" fill="#83C8D4"/>
<path d="M315.653 197.83C307.74 198.649 298.053 194.01 296.553 188.007" stroke="#270041" stroke-width="1.256" stroke-miterlimit="10" stroke-linecap="round"/>
<path d="M140.471 55.938L124.644 60.304" stroke="#715782" stroke-width="1.256" stroke-miterlimit="10"/>
<path d="M150.567 72.3101C148.018 73.1598 145.295 73.3477 142.654 72.8561C142.654 72.8561 145.726 77.5391 149.475 77.4951" stroke="#D1AD83" stroke-width="1.256" stroke-linecap="round" stroke-linejoin="round"/>
<path d="M154.2 69.3239C153.413 69.0099 152.678 70.3749 151.313 70.2179" stroke="#D1AD83" stroke-width="0.628" stroke-linecap="round" stroke-linejoin="round"/>
<path d="M126.676 35.6091C123.315 36.6138 120.169 38.2331 117.399 40.3851C108.116 57.5181 91.219 74.6851 103.637 103.891C104.669 103.815 105.692 103.648 106.694 103.391C108.624 102.94 110.425 102.054 111.96 100.8C113.495 99.5461 114.723 97.9576 115.549 96.1561C118.1 96.3619 120.662 95.903 122.983 94.8241C124.267 94.384 125.438 93.6628 126.408 92.7131C127.009 91.9991 127.482 91.1873 127.808 90.3131C129.85 85.3661 129.857 79.3591 126.841 74.9381C125.835 73.7098 124.929 72.4026 124.133 71.0291C122.833 68.2581 123.507 64.9741 124.595 62.1151C124.956 59.5761 124.006 57.1551 124.532 54.8751C125.126 52.2961 127.549 50.4481 130.115 49.7981C132.722 49.2966 135.404 49.3365 137.995 49.9151C137.937 49.3991 138.453 49.0151 138.914 48.7771C141.709 47.3214 144.827 46.5988 147.977 46.6771C144.586 38.9731 134.781 33.3711 126.676 35.6091Z" fill="#83C8D4"/>
<path d="M121.9 38.611C97.888 37.383 88.751 56.679 93.99 70.965C99.229 85.251 107.323 68.346 107.323 68.346L114.942 51.446L121.9 38.611Z" fill="#83C8D4"/>
<path d="M111.733 62.6941C109.217 70.6021 97.648 68.0511 94.776 74.8581C91.904 81.6651 96.744 85.9821 94.393 89.3761C92.042 92.7701 85.567 93.4411 85.567 93.4411" stroke="#59B5C5" stroke-width="1.256" stroke-miterlimit="10" stroke-linecap="round"/>
<path d="M118.192 47.7681C113.774 45.2941 103.879 44.4101 100.345 48.2981C99.3181 49.5107 98.0448 50.4907 96.6097 51.173C95.1746 51.8553 93.6107 52.2242 92.022 52.2551" stroke="#59B5C5" stroke-width="1.256" stroke-miterlimit="10" stroke-linecap="round"/>
<path d="M118.926 74.689C120.017 79.737 121.109 89.833 112.926 91.607C112.926 91.607 111.562 98.019 89.733 98.429" stroke="#59B5C5" stroke-width="1.256" stroke-miterlimit="10" stroke-linecap="round"/>
<path d="M126.17 62.1869C125.708 61.8885 125.171 61.7261 124.621 61.7185C124.071 61.7109 123.529 61.8583 123.059 62.1439C121.725 62.7828 120.696 63.9218 120.196 65.3139C119.958 66.0074 119.889 66.7475 119.993 67.4732C120.097 68.1989 120.373 68.8894 120.796 69.4879C121.027 69.9787 121.353 70.4189 121.755 70.7835C122.157 71.148 122.627 71.4296 123.138 71.6122C123.649 71.7947 124.191 71.8746 124.733 71.8473C125.275 71.82 125.806 71.6859 126.296 71.4529" fill="#EED2AA"/>
<path d="M126.17 62.1869C125.708 61.8885 125.171 61.7261 124.621 61.7185C124.071 61.7109 123.529 61.8583 123.059 62.1439C121.725 62.7828 120.696 63.9218 120.196 65.3139C119.958 66.0074 119.889 66.7475 119.993 67.4732C120.097 68.1989 120.373 68.8894 120.796 69.4879C121.027 69.9787 121.353 70.4189 121.755 70.7835C122.157 71.148 122.627 71.4296 123.138 71.6122C123.649 71.7947 124.191 71.8746 124.733 71.8473C125.275 71.82 125.806 71.6859 126.296 71.4529" stroke="#D1AD83" stroke-width="1.256" stroke-miterlimit="10" stroke-linecap="round"/>
<path d="M126.805 67.9201C126.589 67.8559 126.391 67.7407 126.229 67.584C126.066 67.4274 125.944 67.2339 125.872 67.0201C125.803 66.8026 125.785 66.5721 125.82 66.3466C125.854 66.1211 125.941 65.9067 126.072 65.7201C125.797 65.3382 125.409 65.053 124.962 64.9051C124.739 64.834 124.503 64.8097 124.27 64.8336C124.036 64.8575 123.81 64.9292 123.606 65.0441C123.273 65.2563 123.027 65.5812 122.913 65.9595C122.8 66.3378 122.826 66.7444 122.987 67.1051" fill="#EED2AA"/>
<path d="M126.805 67.9201C126.589 67.8559 126.391 67.7407 126.229 67.584C126.066 67.4274 125.944 67.2339 125.872 67.0201C125.803 66.8026 125.785 66.5721 125.82 66.3466C125.854 66.1211 125.941 65.9067 126.072 65.7201C125.797 65.3382 125.409 65.053 124.962 64.9051C124.739 64.834 124.503 64.8097 124.27 64.8336C124.036 64.8575 123.81 64.9292 123.606 65.0441C123.273 65.2563 123.027 65.5812 122.913 65.9595C122.8 66.3378 122.826 66.7444 122.987 67.1051" stroke="#D1AD83" stroke-width="0.628" stroke-miterlimit="10" stroke-linecap="round"/>
<path d="M77.014 102.36C70.192 97.1759 74.32 85.8859 80.6 85.0669" stroke="#59B5C5" stroke-width="1.256" stroke-miterlimit="10" stroke-linecap="round"/>
<path d="M119.855 40.163C115.212 39.463 115.212 30.033 107.755 29.47" stroke="#59B5C5" stroke-width="0.992" stroke-miterlimit="10" stroke-linecap="round"/>
<path d="M122.734 39.7559C124.644 35.6629 132.012 31.5699 140.198 33.7559" stroke="#59B5C5" stroke-width="1.256" stroke-miterlimit="10" stroke-linecap="round"/>
</g>
<defs>
<clipPath id="clip0">
<rect width="409.289" height="346.955" fill="white"/>
</clipPath>
</defs>
</svg>
