<svg width="400" height="316" viewBox="0 0 400 316" fill="none" xmlns="http://www.w3.org/2000/svg">
<path d="M51.0554 143.312C72.8071 226.162 151.298 266.491 230.807 253.114C339.171 234.883 411.335 81.4317 324.684 36.7723C269.832 8.49876 265.355 60.2598 203.798 43.7341C109.494 18.4172 36.7092 88.671 51.0554 143.312Z" fill="#FEF7EE"/>
<path d="M210.919 139.354H156.835V183.055H210.919V139.354Z" fill="#E3DEE6" stroke="#E3DEE6" stroke-width="1.32115" stroke-miterlimit="10"/>
<path d="M148.142 174.108H119.411V198.012H148.142V174.108Z" fill="#E3DEE6" stroke="#E3DEE6" stroke-width="1.32115" stroke-miterlimit="10"/>
<path d="M317.263 103.183C317.959 99.7112 319.375 96.3032 318.909 92.8129C318.404 89.0405 315.765 85.904 312.809 83.4864V55.6482L295.588 38.4248H222.991V61.0679C221.152 61.5525 219.384 62.2726 217.73 63.2103C216.538 63.7835 215.549 64.7065 214.895 65.8562C214.298 67.121 214.442 68.5959 214.606 69.9854C214.941 72.8929 215.276 75.8001 215.612 78.7071C213.871 79.0436 212.184 79.6129 210.595 80.3997C210.472 88.0464 211.014 95.6894 212.214 103.242C212.683 106.248 213.365 109.463 215.607 111.517C217.101 112.71 218.819 113.59 220.66 114.105L233.783 118.736C237.941 120.204 242.415 121.911 244.762 125.648C246.256 128.026 246.668 130.916 246.844 133.72C247.077 137.425 246.961 141.144 246.496 144.828C245.841 150.014 244.586 155.669 247.237 160.174C246.819 160.054 247.237 160.743 247.965 161.19C245.378 164.017 244.571 168.494 244.053 172.482C241.014 195.892 235.511 228.331 230.663 251.601C233.607 251.677 236.553 251.731 239.501 251.772L239.35 254.666C238.866 254.598 238.347 254.521 237.778 254.439C233.467 256.278 229.034 257.813 224.509 259.033C218.601 260.461 220.869 266.342 220.874 266.353L220.882 266.757L249.873 266.195L249.865 265.792V265.781L249.858 265.387H249.851C249.732 261.692 249.424 258.005 248.929 254.34L248.607 254.402L248.895 251.865C251.153 251.877 253.414 251.886 255.678 251.89C258.466 233.258 262.09 207.892 265.362 189.322C265.153 208.169 260.397 252.546 260.397 252.546L268.744 252.72L268.649 254.56C268.283 254.494 267.903 254.423 267.492 254.34C266.997 258.005 266.689 261.692 266.57 265.387H266.565L266.549 266.195L295.541 266.757L295.548 266.354C295.548 266.354 297.825 260.462 291.913 259.033C287.388 257.813 282.955 256.278 278.644 254.439L277.888 254.551L278.073 252.913L285.283 253.064C285.283 253.064 288.336 198.085 289.126 175.181C289.281 170.657 289.197 165.539 285.91 162.094H286.017C289.842 159.337 291.057 154.095 292.011 149.288C293.275 142.922 294.538 136.558 295.882 130.362C295.897 130.385 295.909 130.41 295.924 130.433C295.849 132.736 298.467 134.403 300.756 134.137C303.045 133.871 304.948 132.281 306.547 130.622C313.342 123.516 317.286 114.158 317.627 104.332C317.67 104 317.608 103.662 317.448 103.366C317.396 103.296 317.334 103.234 317.263 103.183ZM222.993 78.5377L222.909 78.5257C222.931 78.4017 222.963 78.28 222.993 78.1575V78.5377ZM222.037 67.7356C221.999 66.3767 222.251 65.0252 222.776 63.7712C222.843 63.6389 222.916 63.5029 222.991 63.3653V70.1759C222.961 70.1645 222.928 70.1653 222.897 70.1509C222.078 69.7555 221.999 68.6427 222.037 67.7356ZM308.402 103.81L304.156 108.202C300.66 105.913 296.996 103.783 292.892 103.158L291.153 102.891H309.422C309.054 103.164 308.712 103.472 308.402 103.81Z" fill="#E3DEE6" stroke="#E3DEE6" stroke-width="1.32115" stroke-miterlimit="10"/>
<path d="M114.737 139.641C120.279 137.81 125.462 135.054 130.613 132.308C131.363 132.003 132.035 131.535 132.582 130.938C133.128 130.34 133.534 129.628 133.77 128.854C135.449 125.052 137.128 121.249 138.806 117.446C138.986 117.166 139.094 116.846 139.12 116.514C139.147 116.182 139.091 115.849 138.957 115.544C138.908 115.482 138.853 115.425 138.792 115.374C139.001 115.161 139.23 114.968 139.476 114.798C139.522 114.767 139.57 114.739 139.617 114.709H173.37C181.736 108.597 189.106 101.227 195.218 92.8613V60.3867H116.996V114.712H127.836C126.348 116.588 126.15 119.575 124 120.625C123.19 120.947 122.322 121.099 121.451 121.069C116.219 121.269 111.007 121.813 105.802 122.354C104.74 122.41 103.692 122.631 102.697 123.01C102.325 123.179 101.975 123.391 101.651 123.641C100.728 123.488 99.7864 123.48 98.8603 123.615C98.4272 123.664 98.0008 123.718 97.5797 123.773C97.5797 123.743 97.5918 123.719 97.5941 123.685C97.8269 119.893 98.6525 118.97 100.248 118.707C101.424 118.597 102.523 118.075 103.352 117.234C104.181 116.392 104.687 115.285 104.78 114.108C104.801 113.62 104.903 113.139 105.082 112.685C105.183 112.362 105.35 112.064 105.574 111.81C105.798 111.556 106.072 111.352 106.38 111.212C106.602 111.112 106.775 110.93 106.863 110.703C106.95 110.477 106.945 110.225 106.848 110.002C106.422 108.984 105.837 108.04 105.115 107.205C104.849 106.957 104.656 106.642 104.555 106.293C104.535 105.948 104.602 105.603 104.75 105.29C105.155 104.065 105.259 102.76 105.054 101.485C104.848 100.211 104.339 99.0049 103.569 97.9686C103.612 97.5961 103.584 97.2188 103.487 96.8566C103.136 95.5775 101.255 94.5063 99.4803 93.8954C96.1022 92.6884 92.4596 92.4222 88.9419 93.1251C85.4153 93.8504 82.2569 95.795 80.0214 98.6173C78.1609 101.213 77.014 104.252 76.6951 107.43C76.3826 110.592 76.3451 113.776 76.5832 116.944C76.7651 119.304 76.7236 121.675 76.4592 124.026C76.4448 124.122 76.4259 124.217 76.4108 124.313C75.4647 124.443 74.5558 124.768 73.7415 125.267C72.6898 126.104 71.8237 127.151 71.1981 128.34C70.5725 129.53 70.2011 130.837 70.1075 132.177C70.0203 135.286 70.3089 138.393 70.967 141.432C71.4962 143.894 71.2392 145.547 71.3949 148.059C71.6746 152.556 70.7448 157.031 69.8202 161.44C68.0747 169.764 66.3291 178.087 65.0024 186.49C65.4272 186.537 65.9383 186.575 66.4969 186.606C64.9419 204.417 60.3539 246.873 60.2624 249.68C61.0539 249.735 61.8462 249.782 62.6377 249.836L61.7638 255.91C61.5075 255.862 61.2406 255.811 60.9594 255.754C60.5418 258.843 60.2824 261.952 60.1823 265.068H60.1762L60.1694 265.384V265.409L60.1626 265.749L80.4349 266.142L80.4296 266.44L104.871 266.914L104.878 266.573C104.878 266.573 106.798 261.606 101.812 260.402C97.9974 259.372 94.2588 258.078 90.624 256.528L89.9345 256.63L90.2981 252.446L94.9905 252.548L97.1208 239.055C98.1649 232.732 99.2913 226.43 100.78 220.197C103.28 209.735 106.806 199.401 107.62 188.703L109.737 188.848C110.902 185.029 110.246 180.893 109.177 177.045C108.108 173.197 106.63 169.434 106.144 165.471C105.559 160.708 106.441 155.862 107.948 151.306C108.768 148.827 109.789 146.265 109.371 143.687C109.282 143.162 109.141 142.646 108.953 142.147C109.339 141.864 109.743 141.606 110.162 141.375C111.633 140.662 113.164 140.082 114.737 139.641ZM81.4547 256.49C81.3791 256.474 81.3035 256.461 81.2279 256.445C81.2279 256.445 81.0525 257.655 80.8643 259.535C77.2896 258.525 73.7822 257.29 70.363 255.837L70.3229 255.843L70.8521 250.378C72.0753 250.453 73.2985 250.544 74.5216 250.619C74.8566 250.669 75.1985 250.63 75.5142 250.508C75.6244 250.453 75.7471 250.427 75.8703 250.433L75.5868 252.125L81.3322 252.251L81.4547 256.49Z" fill="#E3DEE6" stroke="#E3DEE6" stroke-width="1.32115" stroke-miterlimit="10"/>
<path d="M295.586 38.4248H222.991V102.891H312.809V55.6483L295.586 38.4248Z" fill="#FCE0BE"/>
<path d="M295.588 55.6483C301.262 56.8821 307.136 56.8821 312.81 55.6483L295.588 38.4248C297.478 44.7788 297.664 50.5802 295.588 55.6483Z" fill="#F9C382"/>
<path d="M210.919 139.354H156.835V183.055H210.919V139.354Z" fill="#FCE0BE"/>
<path d="M148.143 174.108H119.411V198.012H148.143V174.108Z" fill="#FCE0BE"/>
<path d="M195.225 60.3867H116.996V114.712H173.374L195.225 92.8613V60.3867Z" fill="#FCE0BE"/>
<path d="M173.374 114.712C181.74 108.6 189.11 101.23 195.222 92.8643C187.617 97.4523 180.631 101.451 173.854 98.1765C171.834 105.767 172.892 110.246 173.374 114.712Z" fill="#F9C382"/>
<path d="M206.331 144.183H161.905V170.018H206.331V144.183Z" stroke="#F7B05B" stroke-width="0.518582" stroke-miterlimit="10" stroke-linecap="round"/>
<path d="M161.905 170.018L206.332 144.183" stroke="#F7B05B" stroke-width="0.518582" stroke-miterlimit="10" stroke-linecap="round"/>
<path d="M161.905 144.183L206.332 170.018" stroke="#F7B05B" stroke-width="0.518582" stroke-miterlimit="10" stroke-linecap="round"/>
<path d="M161.905 174.583H193.293" stroke="#F7B05B" stroke-width="0.518582" stroke-miterlimit="10" stroke-linecap="round"/>
<path d="M161.905 179.039H193.293" stroke="#F7B05B" stroke-width="0.518582" stroke-miterlimit="10" stroke-linecap="round"/>
<path d="M123.998 179.903H142.348" stroke="#F7B05B" stroke-width="0.518582" stroke-miterlimit="10" stroke-linecap="round"/>
<path d="M126.413 71.4934H167.942" stroke="#F7B05B" stroke-width="0.518582" stroke-miterlimit="10" stroke-linecap="round"/>
<path d="M126.413 77.2881H167.942" stroke="#F7B05B" stroke-width="0.518582" stroke-miterlimit="10" stroke-linecap="round"/>
<path d="M126.413 83.0826H167.942" stroke="#F7B05B" stroke-width="0.518582" stroke-miterlimit="10" stroke-linecap="round"/>
<path d="M126.413 88.8779H167.942" stroke="#F7B05B" stroke-width="0.518582" stroke-miterlimit="10" stroke-linecap="round"/>
<path d="M126.413 94.6726H153.214" stroke="#F7B05B" stroke-width="0.518582" stroke-miterlimit="10" stroke-linecap="round"/>
<path d="M126.413 104.728H141.383" stroke="#F7B05B" stroke-width="0.518582" stroke-miterlimit="10" stroke-linecap="round"/>
<path d="M123.998 184.474H142.348" stroke="#F7B05B" stroke-width="0.518582" stroke-miterlimit="10" stroke-linecap="round"/>
<path d="M123.998 189.046H142.348" stroke="#F7B05B" stroke-width="0.518582" stroke-miterlimit="10" stroke-linecap="round"/>
<path d="M123.998 193.617H138.244" stroke="#F7B05B" stroke-width="0.518582" stroke-miterlimit="10" stroke-linecap="round"/>
<path d="M191.845 70.5283H173.736V88.637H191.845V70.5283Z" stroke="#F7B05B" stroke-width="0.518582" stroke-miterlimit="10" stroke-linecap="round"/>
<path d="M174.702 71.7346L191.845 88.636" stroke="#F7B05B" stroke-width="0.518582" stroke-miterlimit="10" stroke-linecap="round"/>
<path d="M173.736 88.6363L191.845 70.5283" stroke="#F7B05B" stroke-width="0.518582" stroke-miterlimit="10" stroke-linecap="round"/>
<path d="M134.831 104.319L133.2 104.822" stroke="#19254F" stroke-width="0.518582" stroke-miterlimit="10" stroke-linecap="round"/>
<path d="M239.651 248.876L239.168 258.212L248.343 256.763L249.309 248.232L239.651 248.876Z" fill="#EE718E"/>
<path d="M268.946 248.876L268.463 258.212L277.639 256.763L278.605 248.232L268.946 248.876Z" fill="#EE718E"/>
<path d="M62.7919 248.715L61.5846 257.166L70.1559 257.528L71.122 247.628L62.7919 248.715Z" fill="#805430"/>
<path d="M90.4372 250.888L89.713 259.218L81.5039 258.252L81.2627 249.56L90.4372 250.888Z" fill="#805430"/>
<path d="M70.3615 255.837C66.3971 256.42 65.245 256.613 60.9594 255.754C60.5258 258.956 60.2626 262.179 60.1709 265.409L84.6132 265.882C84.6132 265.882 86.5334 260.915 81.5485 259.711C77.7339 258.682 73.9958 257.387 70.3615 255.837Z" fill="#303B61"/>
<path d="M65.6245 265.413C65.6141 264.115 65.1068 262.871 64.2069 261.935C63.307 261 62.0829 260.444 60.7863 260.384" stroke="#19254F" stroke-width="0.159102" stroke-miterlimit="10" stroke-linecap="round"/>
<path d="M80.2852 260.016C78.1685 261.439 78.1329 265.267 78.1329 265.267" stroke="#19254F" stroke-width="0.159102" stroke-miterlimit="10" stroke-linecap="round"/>
<path d="M84.6132 265.882L60.1709 265.409" stroke="#19254F" stroke-width="0.317852" stroke-miterlimit="10"/>
<path d="M277.223 97.8741C275.585 98.2521 274.679 98.3708 274.679 98.3708L275.68 96.6691L277.223 97.8741Z" fill="#F49727"/>
<path d="M264.331 70.7007C263.71 71.2099 263.199 71.8403 262.829 72.5534C262.46 73.2666 262.239 74.0476 262.182 74.8487L264.909 72.9149L264.331 70.7007Z" fill="#6C3F20"/>
<path d="M262.043 96.7002C262.118 96.2699 262.024 95.8274 261.78 95.4646C261.537 95.1019 261.164 94.8469 260.737 94.7528C257.536 94.0444 257.131 94.2062 256.504 92.5445C255.445 89.7474 257.599 87.5604 256.347 86.7749C256.137 86.6742 255.954 86.5237 255.815 86.3367C255.676 86.1496 255.585 85.9315 255.549 85.7011C255.513 85.4708 255.534 85.2352 255.609 85.0146C255.684 84.7941 255.812 84.5952 255.982 84.4352C258.888 81.5814 259.413 81.2177 259.549 79.3096C259.726 76.8436 263.527 71.2033 268.493 70.8208C275.381 70.2916 282.497 73.763 283.9 78.1212C285.411 82.8249 283.858 89.1759 278.497 93.2053C278.035 93.5515 273.06 106.501 273.236 104.985C271.495 106.089 269.443 106.6 267.387 106.439C265.032 106.101 262.775 105.266 260.767 103.99L262.043 96.7002Z" fill="#EEB685"/>
<path d="M263.453 73.0456C264.512 75.1419 269.47 78.3654 271.681 78.8039C273.893 79.2423 271.006 82.5006 271.833 83.373C275.021 86.7265 271.014 89.2802 271.014 89.2802C270.576 92.0773 273.369 94.9342 275.922 96.3244C278.475 97.7146 290.425 88.9347 287.178 80.2886C282.204 67.0431 272.182 68.8053 268.308 69.3541C262.249 70.2129 263.453 73.0456 263.453 73.0456Z" fill="#6C3F20"/>
<path d="M263.469 82.0507C263.033 81.7406 262.564 81.4807 262.07 81.2759" stroke="#CB885C" stroke-width="0.380646" stroke-miterlimit="10" stroke-linecap="round"/>
<path d="M261.805 77.6389C263.308 77.6664 264.765 78.1616 265.974 79.0556" stroke="#CB885C" stroke-width="0.380646" stroke-miterlimit="10" stroke-linecap="round"/>
<path d="M256.54 86.0537C257 85.9683 257.25 86.784 258.003 86.8453" stroke="#CB885C" stroke-width="0.208491" stroke-miterlimit="10" stroke-linecap="round"/>
<path d="M270.764 78.5325C271.796 78.9951 269.942 82.8612 268.252 83.2778C268.252 83.2778 270.532 84.5047 272.561 83.215L273.987 80.8639L273.546 77.6389L270.764 78.5325Z" fill="#6C3F20"/>
<path d="M271.209 83.9286C271.47 83.6927 271.796 83.5396 272.145 83.4888C272.493 83.4379 272.849 83.4915 273.167 83.6428C273.485 83.8032 273.765 84.0291 273.989 84.3056C274.214 84.5821 274.377 84.9029 274.469 85.247C274.63 85.8329 274.618 86.4531 274.434 87.0323C274.25 87.6115 273.902 88.1248 273.431 88.5098C272.949 88.8698 272.371 89.0809 271.77 89.1175C271.169 89.154 270.57 89.0143 270.047 88.7154" fill="#EEB685"/>
<path d="M271.209 83.9286C271.47 83.6927 271.796 83.5396 272.145 83.4888C272.493 83.4379 272.849 83.4915 273.167 83.6428C273.485 83.8032 273.765 84.0291 273.989 84.3056C274.214 84.5821 274.377 84.9029 274.469 85.247C274.63 85.8329 274.618 86.4531 274.434 87.0323C274.25 87.6115 273.902 88.1248 273.431 88.5098C272.949 88.8698 272.371 89.0809 271.77 89.1175C271.169 89.154 270.57 89.0143 270.047 88.7154" stroke="#CB885C" stroke-width="0.208491" stroke-miterlimit="10" stroke-linecap="round"/>
<path d="M270.378 86.9285C270.538 86.9025 270.688 86.8387 270.818 86.7424C270.947 86.6461 271.052 86.5201 271.123 86.3751C271.192 86.2267 271.227 86.0642 271.223 85.9004C271.219 85.7365 271.177 85.5758 271.101 85.4309C271.331 85.1835 271.633 85.0154 271.964 84.9508C272.129 84.9204 272.299 84.9243 272.463 84.9622C272.627 85.0002 272.781 85.0715 272.916 85.1716C273.134 85.3526 273.28 85.606 273.326 85.8855C273.373 86.165 273.318 86.4519 273.171 86.6941" stroke="#CB885C" stroke-width="0.208491" stroke-miterlimit="10" stroke-linecap="round"/>
<path d="M277.075 96.5232C276.431 100.024 280.704 102.858 283.232 104.853L271.189 106.12L267.686 102.257L277.075 96.5232Z" fill="#EEB685"/>
<path d="M256.785 87.3101C260.024 87.9988 262.232 88.9733 264.794 88.0442C267.355 87.1151 268.579 83.429 268.579 83.429L270.749 83.8916C270.749 83.8916 269.026 86.9911 269.156 89.0859C269.287 91.1807 268.651 96.4491 262.141 95.0582C255.631 93.6672 256.275 93.7503 256.006 91.2866C255.975 89.9203 256.24 88.5636 256.785 87.3101Z" fill="#D8A178"/>
<path d="M258.343 89.9946C259.635 90.4481 261.049 90.4137 262.318 89.8978" stroke="#CB885C" stroke-width="0.380646" stroke-miterlimit="10" stroke-linecap="round"/>
<path d="M250.203 159.436C245.784 161.788 244.698 167.515 244.053 172.479C241.014 195.889 235.511 228.328 230.663 251.599C238.979 251.82 247.306 251.869 255.681 251.886C258.469 233.254 262.093 207.888 265.365 189.317C265.156 208.165 260.4 252.541 260.4 252.541L285.284 253.059C285.284 253.059 288.337 198.08 289.127 175.176C289.285 170.599 289.203 165.41 285.801 161.966C281.801 160.487 277.767 159.004 273.554 158.349C267.873 157.466 262.079 158.118 256.368 158.771C254.206 159.02 251.837 158.569 250.203 159.436Z" fill="#270041"/>
<path d="M66.6549 184.678C65.2942 201.12 60.3516 246.767 60.2563 249.68C65.0104 250.012 69.766 250.325 74.5232 250.619C74.8581 250.668 75.2 250.63 75.5158 250.508C76.11 250.216 76.4063 250.873 76.4622 250.213C76.7223 247.165 78.3756 244.631 78.7302 241.595C79.8241 232.146 81.2415 222.479 82.8125 213.095C83.8746 206.736 84.3297 200.227 86.3587 194.108C85.9441 203.028 84.8781 211.906 83.1693 220.671C82.5645 223.759 81.8841 226.833 81.4472 229.949C80.4016 237.408 80.7736 245.021 79.4703 252.204L94.0009 252.478C94.139 252.511 94.283 252.511 94.4211 252.478C94.5592 252.445 94.6874 252.379 94.7949 252.286C94.9023 252.193 94.9861 252.076 95.039 251.944C95.092 251.812 95.1127 251.67 95.0994 251.528C96.8457 241.056 98.3221 230.524 100.79 220.197C103.449 209.067 107.273 198.083 107.753 186.649C107.803 186.482 107.814 186.307 107.784 186.135C107.754 185.964 107.685 185.803 107.581 185.663C107.478 185.524 107.343 185.41 107.188 185.332C107.033 185.254 106.862 185.213 106.689 185.212C100.681 183.9 94.6093 182.899 88.4982 182.216C86.7025 181.986 84.8941 181.87 83.0839 181.869C80.5395 181.976 78.0075 182.283 75.5112 182.786L69.567 183.826C68.5539 183.937 67.5683 184.226 66.6549 184.678Z" fill="#19254F"/>
<path d="M137.659 117.196C137.987 116.22 138.627 115.378 139.48 114.801C139.929 114.553 140.352 114.262 140.745 113.932C141.303 113.243 141.625 112.392 141.661 111.506C141.881 109.889 142.007 108.262 142.039 106.631C142.066 105.19 141.982 103.639 141.101 102.498C140.221 101.358 138.261 100.974 137.375 102.111C137.112 102.449 136.957 102.891 136.592 103.115C136.219 103.262 135.827 103.352 135.427 103.381C134.397 103.638 133.874 104.763 133.53 105.767C132.769 107.981 132.184 110.252 131.782 112.558C131.551 113.367 131.617 114.233 131.968 114.998C132.51 115.678 133.276 116.144 134.129 116.312L136.448 117.053C136.768 117.189 137.12 117.23 137.462 117.169C137.791 117.075 138.062 116.691 137.659 117.196Z" fill="#805430"/>
<path d="M317.036 104.518C317.565 100.58 319.435 96.7508 318.909 92.813C318.391 88.9424 315.628 85.74 312.58 83.2982C312.252 83.796 312.121 84.3974 312.212 84.9863C312.324 88.6422 312.266 92.2976 312.039 95.9525C312.04 96.1398 312.002 96.3253 311.927 96.4968C311.86 96.6057 311.772 96.7001 311.668 96.7744C311.564 96.8488 311.446 96.9017 311.322 96.93C310.071 97.2838 308.925 96.1136 308.286 94.9803C307.647 93.8471 307.034 92.5007 305.791 92.1182C305.458 92.4856 305.219 92.9281 305.094 93.4079C304.969 93.8877 304.962 94.3906 305.074 94.8738C305.307 95.8366 305.696 96.7546 306.227 97.5915C306.747 98.5797 307.342 99.5269 308.006 100.425C308.975 101.668 310.285 102.889 310.25 104.465C312.437 105.271 314.836 105.29 317.036 104.518Z" fill="#EEB685"/>
<path d="M215.702 79.4851L214.606 69.9839C214.446 68.5944 214.298 67.1195 214.895 65.8548C215.549 64.7051 216.538 63.782 217.73 63.2089C219.518 62.1904 221.441 61.4271 223.441 60.9409C224.004 61.7937 223.238 62.8558 222.776 63.7668C222.251 65.021 221.999 66.3727 222.037 67.7319C221.999 68.639 222.078 69.7549 222.897 70.1465C223.18 70.2479 223.484 70.2776 223.781 70.2329C224.078 70.1882 224.359 70.0704 224.599 69.8902C225.105 69.5696 225.53 69.1297 226.051 68.8318C226.26 68.6879 226.517 68.6317 226.767 68.6753C227.319 68.8265 227.309 69.6195 227.123 70.1623C226.419 71.8172 225.532 73.3879 224.477 74.8449C223.529 76.3712 222.709 78.0873 222.814 79.8812C220.545 80.2556 218.251 80.4616 215.952 80.4973C216 80.0029 215.903 79.4949 215.702 79.4851Z" fill="#EEB685"/>
<path d="M247.237 160.174C244.586 155.668 245.841 150.012 246.496 144.827C246.96 141.144 247.077 137.424 246.844 133.719C246.668 130.916 246.256 128.025 244.762 125.647C242.418 121.911 237.944 120.204 233.783 118.735L220.66 114.104C218.819 113.589 217.101 112.709 215.607 111.517C213.365 109.462 212.683 106.247 212.214 103.242C211.014 95.6886 210.472 88.0457 210.595 80.399C214.703 78.4143 219.339 77.8032 223.82 78.6557C225.189 83.925 226.068 89.3095 226.446 94.7406C226.77 94.7518 227.086 94.8422 227.367 95.0041C227.647 95.1659 227.884 95.3941 228.056 95.6687C228.228 95.9433 228.33 96.256 228.353 96.5792C228.376 96.9024 228.32 97.2264 228.188 97.5226C228.55 97.4375 228.924 97.4286 229.289 97.4965C229.654 97.5644 230.001 97.7075 230.307 97.9167C230.613 98.126 230.873 98.3968 231.068 98.7119C231.264 99.0269 231.392 99.3794 231.444 99.7467C238.1 100.418 244.802 100.496 251.472 99.9788C254.193 99.7679 258.849 98.1244 261.019 100.589C264.432 101.572 266.548 102.322 270.091 102.576C273.854 102.845 275.123 102.233 278.886 100.649C282.656 101.567 289.058 102.575 292.894 103.159C297.633 103.88 301.787 106.611 305.772 109.274L305.47 109.095C305.588 109.371 305.651 109.667 305.654 109.966C305.657 110.266 305.602 110.563 305.489 110.841C305.003 112.708 304.442 114.697 302.974 115.945C302.135 116.55 301.244 117.081 300.313 117.533C299.374 117.995 298.654 118.81 298.312 119.801C296.003 129.182 294.007 139.234 292.012 149.284C291.058 154.09 289.842 159.332 286.018 162.09C273.955 162.25 261.894 162.095 249.834 161.624C249.395 161.626 248.957 161.57 248.533 161.457C247.477 161.128 246.718 160.025 247.237 160.174Z" fill="#19254F"/>
<path d="M295.926 130.429C295.85 132.732 298.468 134.399 300.758 134.133C303.048 133.867 304.949 132.277 306.549 130.618C313.344 123.512 317.287 114.155 317.628 104.329C317.672 103.996 317.609 103.658 317.449 103.362C317.29 103.193 317.097 103.06 316.883 102.97C316.669 102.881 316.438 102.838 316.206 102.844L312.476 102.432C311.738 102.217 310.951 102.233 310.223 102.479C309.494 102.725 308.858 103.188 308.402 103.807L301.138 111.32C299.157 113.189 297.445 115.324 296.051 117.664C293.801 121.88 293.789 127.209 295.926 130.429Z" fill="#19254F"/>
<path d="M103.526 149.062C105.087 145.997 107.149 143.014 110.171 141.375C111.638 140.663 113.166 140.082 114.737 139.641C120.279 137.81 125.462 135.054 130.612 132.308C131.362 132.004 132.035 131.535 132.581 130.938C133.128 130.34 133.534 129.629 133.77 128.854L138.807 117.446C138.987 117.166 139.095 116.846 139.121 116.514C139.147 116.182 139.091 115.849 138.958 115.544C138.791 115.332 138.581 115.157 138.342 115.03C136.789 113.969 135.034 113.239 133.186 112.883C132.261 112.715 131.309 112.772 130.41 113.05C129.512 113.327 128.693 113.817 128.024 114.479C126.357 116.33 126.24 119.528 124 120.622C123.19 120.944 122.322 121.096 121.451 121.066C116.219 121.266 111.007 121.81 105.803 122.351C104.74 122.407 103.692 122.628 102.697 123.007C100.249 124.088 99.0539 126.843 98.304 129.412C97.1054 133.519 96.4696 137.769 96.414 142.047C96.383 144.405 96.6159 146.979 98.2284 148.699C99.8409 150.419 102.889 150.322 103.526 149.062Z" fill="#EE718E"/>
<path d="M79.4922 124.131C86.2287 126.248 91.7058 124.434 98.8611 123.62C100.465 123.439 102.339 123.374 103.403 124.588C104.31 125.628 104.231 127.167 104.244 128.549C104.277 131.601 105.024 134.603 106.427 137.313C107.512 139.404 109.003 141.366 109.375 143.69C109.793 146.268 108.77 148.831 107.952 151.309C106.445 155.865 105.563 160.71 106.148 165.474C106.634 169.437 108.114 173.201 109.181 177.048C110.248 180.895 110.906 185.032 109.74 188.851L83.7075 187.07C80.3848 186.785 77.0494 186.674 73.715 186.738C75.7365 186.704 68.0973 186.841 64.9933 186.494C66.3193 178.091 68.0648 169.768 69.8111 161.444C70.7357 157.034 71.6656 152.559 71.3858 148.063C71.2301 145.551 71.4879 143.897 70.958 141.436C70.2998 138.397 70.0112 135.289 70.0984 132.181C70.192 130.84 70.5634 129.534 71.189 128.344C71.8146 127.154 72.6807 126.108 73.7324 125.271C75.7493 123.899 79.4922 124.131 79.4922 124.131Z" fill="#EE718E"/>
<path d="M95.8228 125.13C95.1266 123.672 97.4958 125.301 97.5949 123.688C97.8277 119.895 98.6532 118.973 100.248 118.71C101.425 118.6 102.526 118.079 103.355 117.237C104.185 116.396 104.691 115.288 104.784 114.11C104.805 113.622 104.908 113.142 105.087 112.687C105.187 112.364 105.355 112.066 105.579 111.812C105.802 111.559 106.077 111.355 106.385 111.214C106.606 111.115 106.78 110.932 106.867 110.706C106.955 110.479 106.95 110.227 106.853 110.005C106.426 108.986 105.841 108.042 105.119 107.207C104.854 106.96 104.661 106.645 104.56 106.296C104.54 105.95 104.606 105.605 104.754 105.292C105.248 103.801 105.293 102.197 104.883 100.68C104.473 99.1634 103.626 97.8005 102.447 96.7613C99.6836 94.4064 95.6883 94.2575 92.0747 94.6173C90.832 94.6933 89.6083 94.9589 88.446 95.4051C87.1556 96.0422 85.9722 96.8762 84.9383 97.8771C82.9493 99.6159 80.8764 101.471 80.035 103.973C79.5627 105.691 79.4203 107.483 79.6154 109.254C79.7387 111.504 79.97 113.865 81.2476 115.724C82.0731 116.924 83.2751 117.815 84.1717 118.962C85.277 120.444 85.85 122.255 85.798 124.103C85.746 125.95 85.0721 127.727 83.8852 129.144C83.6889 129.349 83.556 129.606 83.5027 129.885C83.3432 130.956 84.6873 131.251 85.6617 131.204C89.4416 131.024 90.277 127.359 93.9851 126.625C94.5128 126.562 95.0171 126.371 95.4547 126.07C95.8584 125.734 96.0852 125.114 95.8228 125.13Z" fill="#805430"/>
<path d="M103.484 96.8565C103.903 98.3874 102.968 99.9341 102.031 101.215C100.731 102.992 99.3447 104.701 97.873 106.342C97.2771 106.941 96.7654 107.619 96.352 108.356C95.6875 109.702 95.7638 111.28 95.8553 112.779C96.2038 118.487 96.5758 124.307 98.6857 129.622C98.8953 130.046 99.0096 130.51 99.0206 130.983C99.0193 131.219 98.9368 131.448 98.787 131.631C98.6371 131.814 98.429 131.94 98.1973 131.988C98.0715 131.633 97.8747 131.307 97.6191 131.03C97.3635 130.753 97.0544 130.531 96.7103 130.377C97.0844 132.912 97.0091 135.494 96.4881 138.004C96.4221 138.569 96.1779 139.098 95.7911 139.516C95.4151 139.798 94.9722 139.977 94.5059 140.036C93.1253 140.321 91.7254 140.504 90.3178 140.582C90.9256 139.737 91.3194 138.758 91.4653 137.728C91.6112 136.698 91.5049 135.648 91.1554 134.668L89.9867 137.167C89.5448 138.354 88.8139 139.413 87.8601 140.247C86.7383 140.929 85.4552 141.302 84.1422 141.325C82.4735 141.493 80.802 141.629 79.1278 141.734C78.8914 141.771 78.6491 141.739 78.4308 141.641C77.9152 141.344 78.0815 140.575 78.2796 140.014C78.9282 138.123 79.15 136.112 78.9293 134.125C78.7085 132.138 78.0506 130.225 77.0027 128.523C76.0123 129.311 74.9255 129.97 73.7687 130.484C75.254 128.624 76.1851 126.384 76.4554 124.02C76.7198 121.668 76.7613 119.297 76.5794 116.938C76.3414 113.769 76.3788 110.585 76.6913 107.423C77.0099 104.245 78.1569 101.206 80.0176 98.6104C82.2527 95.7876 85.4113 93.843 88.9381 93.1182C92.4558 92.4153 96.0984 92.6816 99.4765 93.8886C101.251 94.5062 103.133 95.5774 103.484 96.8565Z" fill="#270041"/>
<path d="M94.995 252.548L75.5883 252.125L85.3668 193.786L104.079 194.993L94.995 252.548Z" fill="#19254F"/>
<path d="M278.647 254.437C273.945 255.128 272.579 255.356 267.495 254.338C266.98 258.136 266.669 261.959 266.56 265.79L295.551 266.351C295.551 266.351 297.829 260.46 291.916 259.031C287.391 257.811 282.958 256.275 278.647 254.437Z" fill="#715782"/>
<path d="M273.029 265.796C273.016 264.255 272.414 262.777 271.345 261.667C270.276 260.557 268.822 259.899 267.283 259.829" stroke="#19254F" stroke-width="0.188736" stroke-miterlimit="10" stroke-linecap="round"/>
<path d="M290.421 259.393C287.906 261.081 287.868 265.623 287.868 265.623" stroke="#19254F" stroke-width="0.188736" stroke-miterlimit="10" stroke-linecap="round"/>
<path d="M295.551 266.351L266.56 265.79" stroke="#19254F" stroke-width="0.377119" stroke-miterlimit="10"/>
<path d="M90.6277 256.528C86.6641 257.111 85.512 257.304 81.2256 256.445C80.792 259.647 80.5291 262.87 80.4379 266.1L104.88 266.573C104.88 266.573 106.8 261.606 101.815 260.402C98.0001 259.372 94.2621 258.078 90.6277 256.528Z" fill="#555E7D"/>
<path d="M85.8907 266.104C85.8806 264.806 85.3734 263.561 84.4734 262.625C83.5735 261.69 82.3493 261.135 81.0525 261.074" stroke="#19254F" stroke-width="0.159102" stroke-miterlimit="10" stroke-linecap="round"/>
<path d="M100.554 260.707C98.4369 262.13 98.4021 265.958 98.4021 265.958" stroke="#19254F" stroke-width="0.159102" stroke-miterlimit="10" stroke-linecap="round"/>
<path d="M104.88 266.573L80.4379 266.1" stroke="#19254F" stroke-width="0.317852" stroke-miterlimit="10"/>
<path d="M237.78 254.437C242.482 255.128 243.849 255.356 248.933 254.338C249.446 258.136 249.758 261.959 249.867 265.79L220.875 266.351C220.875 266.351 218.597 260.46 224.511 259.031C229.035 257.81 233.469 256.275 237.78 254.437Z" fill="#715782"/>
<path d="M243.399 265.796C243.411 264.255 244.014 262.777 245.082 261.667C246.151 260.557 247.605 259.899 249.144 259.829" stroke="#19254F" stroke-width="0.188736" stroke-miterlimit="10" stroke-linecap="round"/>
<path d="M226.006 259.393C228.52 261.081 228.559 265.623 228.559 265.623" stroke="#19254F" stroke-width="0.188736" stroke-miterlimit="10" stroke-linecap="round"/>
<path d="M220.875 266.351L249.867 265.79" stroke="#19254F" stroke-width="0.377119" stroke-miterlimit="10"/>
<path d="M76.5544 248.353L83.5563 193.062" stroke="#57607F" stroke-width="0.345722" stroke-miterlimit="10" stroke-linecap="round"/>
<path d="M76.9165 248.594H93.6969" stroke="#57607F" stroke-width="0.172861" stroke-miterlimit="10"/>
<path d="M85.4879 246.904L95.6286 191.733" stroke="#57607F" stroke-width="0.172861" stroke-miterlimit="10"/>
<path d="M72.3292 247.749L62.5507 247.146" stroke="#57607F" stroke-width="0.345722" stroke-miterlimit="10" stroke-linecap="round"/>
<path d="M107.741 142.639C105.648 145.134 102.429 148.838 101.785 151.815" stroke="#E94068" stroke-width="0.345722" stroke-miterlimit="10" stroke-linecap="round"/>
<path d="M101.343 124.854C99.1696 129.924 99.0894 135.557 100.94 139.904" stroke="#E94068" stroke-width="0.345722" stroke-miterlimit="10" stroke-linecap="round"/>
<path d="M68.2244 182.318C76.6747 182.8 106.373 184.007 106.373 184.007" stroke="#E94068" stroke-width="0.345722" stroke-miterlimit="10" stroke-linecap="round"/>
<path d="M70.9337 131.869C71.6527 127.938 75.8967 125.081 75.8967 125.081" stroke="#E94068" stroke-width="0.345722" stroke-miterlimit="10" stroke-linecap="round"/>
<path d="M285.285 76.7249C285.043 74.2302 284.564 71.461 282.226 70.2862C280.185 69.2604 278.645 69.8636 276.803 68.5362C275.681 67.7257 272.608 67.1754 269.924 68.2942C268.972 68.6904 266.278 67.8573 264.28 68.8378C262.617 69.6527 262.429 72.6177 260.981 72.4597C260.981 72.4597 263.073 73.103 264.522 72.2987C265.97 71.4943 274.581 72.8619 274.581 72.8619L285.285 76.7249Z" fill="#6C3F20"/>
<path d="M285.133 76.2925C286.009 76.8973 288.484 79.4918 288.574 81.4233C288.664 83.3548 287.487 85.9803 287.186 87.3683C286.884 88.7563 287.065 90.3869 285.948 91.4128C284.832 92.4386 282.447 93.9786 282.326 94.9742C282.121 94.6903 281.978 94.3668 281.905 94.0243C281.833 93.6818 281.832 93.3279 281.905 92.9852C282.532 91.4701 283.238 89.9891 284.021 88.5484L282.482 78.227L285.133 76.2925Z" fill="#6C3F20"/>
<path d="M296.632 127.75C298.685 122.197 300.012 111.572 299.65 108.917" stroke="#596280" stroke-width="0.345722" stroke-miterlimit="10" stroke-linecap="round"/>
<path d="M304.479 109.038C305.204 110.248 307.135 112.66 306.531 115.678" stroke="#596280" stroke-width="0.345722" stroke-miterlimit="10" stroke-linecap="round"/>
<path d="M219.128 100.829C220.939 99.1389 226.371 98.2937 226.371 98.2937C225.048 100.363 224.108 102.653 223.595 105.054" stroke="#596280" stroke-width="0.345722" stroke-linecap="round" stroke-linejoin="round"/>
<path d="M259.088 104.089C262.709 106.503 269.349 107.107 271.401 107.107C274.929 106.823 278.413 106.134 281.784 105.054" stroke="#596280" stroke-width="0.345722" stroke-linecap="round" stroke-linejoin="round"/>
<path d="M248.705 152.254C249.067 153.463 250.033 158.529 251.724 159.981C251.724 159.981 251.119 154.065 252.689 152.737" stroke="#596280" stroke-width="0.345722" stroke-linecap="round" stroke-linejoin="round"/>
<path d="M249.792 168.675L260.657 168.917L260.295 180.989L253.413 184.49L248.343 181.352L249.792 168.675Z" fill="#4C2B61"/>
<path d="M271.884 168.796L283.594 168.917L283.232 180.989L277.921 185.214L271.281 181.351L271.884 168.796Z" fill="#4C2B61"/>
<path d="M249.912 165.295L284.801 165.657" stroke="#4C2B61" stroke-width="0.345722" stroke-linecap="round" stroke-linejoin="round"/>
<path d="M233.132 248.353H252.931" stroke="#4C2B61" stroke-width="0.345722" stroke-linecap="round" stroke-linejoin="round"/>
<path d="M262.83 248.715H283.111" stroke="#4C2B61" stroke-width="0.345722" stroke-linecap="round" stroke-linejoin="round"/>
<path d="M272.447 93.4252C272.809 93.9483 272.286 97.2882 271.12 98.1334C269.953 98.9786 275.626 97.4893 277.075 96.5232C278.525 95.557 275.185 94.1494 275.185 94.1494L272.447 93.4252Z" fill="#6C3F20"/>
<path d="M100.067 106.701L102.909 106.371" stroke="#5B3722" stroke-width="0.172861" stroke-miterlimit="10" stroke-linecap="round"/>
<path d="M102.503 107.039C102.903 107.039 103.228 106.715 103.228 106.315C103.228 105.915 102.903 105.59 102.503 105.59C102.103 105.59 101.779 105.915 101.779 106.315C101.779 106.715 102.103 107.039 102.503 107.039Z" fill="#5B3722"/>
<path d="M103.591 115.127C102.516 115.269 101.422 115.081 100.455 114.588" stroke="#5B3722" stroke-width="0.172861" stroke-miterlimit="10" stroke-linecap="round"/>
<path d="M105.637 110.885C105.164 111.074 105.042 111.727 104.603 111.793" stroke="#5B3722" stroke-width="0.129822" stroke-miterlimit="10" stroke-linecap="round"/>
<path d="M138.257 103.438L148.983 100.402" stroke="#19254F" stroke-width="0.518582" stroke-miterlimit="10" stroke-linecap="round"/>
</svg>
