<svg width="266" height="335" viewBox="0 0 266 335" fill="none" xmlns="http://www.w3.org/2000/svg">
<g clip-path="url(#clip0)">
<path d="M227.374 168.136C199.628 88.4 43.6271 8.79998 67.0101 128.977C76.5691 178.11 66.5221 205.244 51.8271 223.564H236.482C237.25 207.682 234.746 189.322 227.374 168.136Z" fill="#E5E0E8"/>
<path d="M51.8271 223.564C26.4811 233.547 -20.9379 276.973 10.9441 307.134C74.0441 366.829 181.027 315.488 205.566 291.484C220.51 276.867 234.957 255.111 236.482 223.564H51.8271Z" fill="#B5A8BE"/>
<path d="M261.483 284.345V272.367L244.683 255.567L227.849 238.733H176.203C162.025 237.744 160.539 234.821 152.803 224.025C149.565 215.225 145.428 201.192 144.066 191.709C143.896 189.95 143.74 188.192 143.611 186.436C143.133 179.66 143.047 172.814 144.669 166.364C146.389 159.936 150.021 154.182 155.084 149.864C155.5 149.493 155.932 149.141 156.361 148.786L156.391 148.819C157.329 149.839 158.516 150.597 159.836 151.019C160.215 151.145 160.6 151.251 160.99 151.338C160.904 151.534 160.834 151.737 160.782 151.945C160.583 152.801 160.682 153.7 161.065 154.492C161.448 155.284 162.09 155.92 162.885 156.296C163.679 156.672 164.579 156.765 165.434 156.558C166.288 156.351 167.047 155.858 167.582 155.161C167.986 155.923 168.595 156.557 169.34 156.992C170.084 157.427 170.936 157.646 171.798 157.623C172.66 157.601 173.499 157.339 174.221 156.867C174.942 156.394 175.517 155.73 175.882 154.948C176.419 154.986 176.958 154.893 177.452 154.677C177.945 154.46 178.379 154.127 178.715 153.706C179.051 153.285 179.28 152.789 179.381 152.26C179.483 151.73 179.454 151.185 179.298 150.669C179.142 150.153 178.863 149.683 178.485 149.299C178.107 148.916 177.641 148.629 177.128 148.466C176.614 148.302 176.069 148.265 175.538 148.359C175.008 148.453 174.508 148.674 174.082 149.004C174.001 148.955 173.921 148.904 173.836 148.86C174.656 148.355 175.326 147.638 175.776 146.786C176.226 145.934 176.439 144.977 176.393 144.014C176.347 143.052 176.044 142.119 175.515 141.314C174.987 140.508 174.252 139.859 173.387 139.434C179.381 137.388 185.844 136.5 192.192 134.522C193.885 133.996 195.547 133.375 197.17 132.663C198.807 131.92 200.379 131.042 201.87 130.037C203.362 129.016 204.752 127.854 206.022 126.567C207.268 125.273 208.405 123.878 209.422 122.397C210.764 120.407 211.909 118.291 212.841 116.079C214.89 114.742 216.726 113.106 218.289 111.224C220.378 108.739 222.119 105.98 223.462 103.024C224.802 100.078 225.836 97.0029 226.547 93.846C226.986 91.8383 227.307 89.8069 227.51 87.762C230.222 83.9658 231.839 79.4976 232.185 74.8451C232.531 70.1926 231.592 65.5345 229.471 61.3791C227.35 57.2237 224.129 53.7307 220.158 51.2812C216.187 48.8318 211.62 47.52 206.955 47.489C206.016 41.0683 203.62 34.9478 199.949 29.5966C196.279 24.2454 191.432 19.8056 185.78 16.6173C180.129 13.4291 173.822 11.5771 167.344 11.2033C160.866 10.8296 154.388 11.9439 148.407 14.461C144.202 9.41622 138.662 5.65648 132.421 3.61151C126.18 1.56653 119.489 1.31884 113.114 2.89674C106.739 4.47465 100.936 7.81448 96.3692 12.5345C91.8024 17.2544 88.6558 23.1641 87.289 29.588C81.9322 27.1427 76.0867 25.956 70.2005 26.1189C64.3142 26.2817 58.5433 27.7897 53.3298 30.5273C48.1163 33.2649 43.5986 37.1595 40.1228 41.9128C36.647 46.6661 34.3053 52.1519 33.277 57.95C26.047 60.743 20.0218 65.9772 16.2454 72.7457C12.4689 79.5142 11.1791 87.3906 12.5995 95.0101C14.0198 102.63 18.0608 109.512 24.0224 114.465C29.9839 119.419 37.4903 122.13 45.2411 122.131C45.8171 122.131 46.389 122.116 46.9571 122.087C47.6161 123.164 48.2991 124.227 49.0291 125.258C51.2547 128.438 53.8784 131.319 56.8361 133.832C59.8122 136.357 63.1491 138.423 66.736 139.962C70.2973 141.415 73.9813 142.546 77.744 143.342C85.137 145.035 92.584 146.083 99.226 149.182C100.893 149.918 102.513 150.754 104.077 151.688C104.835 152.181 105.559 152.724 106.303 153.238C106.667 153.504 107.056 153.738 107.403 154.032L108.409 154.932L109.416 155.832L109.916 156.282C110.072 156.443 110.216 156.618 110.364 156.782L112.145 158.808C113.239 160.24 114.211 161.761 115.051 163.355C115.901 164.955 116.636 166.614 117.251 168.319C117.534 169.184 117.775 170.067 118.04 170.94L118.166 171.371C119.756 181.198 117.8 209.658 108.635 224.337H108.674L98.346 234.449C94.206 237.639 87.7231 238.698 84.452 238.809H68.807L65.6591 241.958H16.128L10.034 248.052C9.25019 247.809 8.40602 247.85 7.649 248.166C6.89198 248.483 6.27025 249.055 5.89241 249.784C5.51458 250.512 5.40466 251.35 5.58187 252.151C5.75907 252.953 6.21213 253.666 6.8619 254.167C7.51166 254.668 8.31683 254.925 9.13674 254.893C9.95664 254.861 10.7392 254.541 11.3476 253.991C11.956 253.44 12.3517 252.693 12.4655 251.881C12.5792 251.068 12.4039 250.241 11.97 249.545L17.132 244.382H63.2321L51.5091 256.107H27.147L15.37 267.885V279.593C14.5983 279.853 13.9427 280.377 13.5177 281.072C13.0928 281.767 12.9254 282.589 13.045 283.394C13.1646 284.2 13.5635 284.938 14.1719 285.48C14.7804 286.021 15.5598 286.332 16.3739 286.357C17.1881 286.382 17.9851 286.12 18.6259 285.617C19.2667 285.115 19.7105 284.403 19.8796 283.606C20.0488 282.809 19.9326 281.978 19.5514 281.258C19.1702 280.539 18.5482 279.976 17.794 279.668V268.889L28.151 258.531H52.5131L69.3131 241.731L82.474 254.9L75.258 262.116H60.7441L47.1331 275.727V286.618C46.3646 286.908 45.7227 287.46 45.3199 288.176C44.9171 288.892 44.779 289.727 44.9297 290.534C45.0805 291.342 45.5106 292.071 46.1446 292.593C46.7786 293.116 47.5762 293.398 48.3977 293.392C49.2193 293.385 50.0123 293.09 50.6381 292.558C51.2638 292.026 51.6824 291.29 51.8205 290.48C51.9586 289.67 51.8074 288.838 51.3934 288.128C50.9794 287.419 50.329 286.877 49.556 286.599V276.731L61.7481 264.54H72.834L66.0821 271.293V277.91C65.3089 278.163 64.6491 278.679 64.2178 279.369C63.7866 280.058 63.6114 280.878 63.7227 281.683C63.8341 282.489 64.2249 283.23 64.8271 283.777C65.4292 284.324 66.2043 284.642 67.017 284.675C67.8297 284.709 68.6284 284.456 69.2735 283.96C69.9186 283.465 70.3692 282.759 70.5466 281.965C70.7239 281.171 70.6167 280.34 70.2438 279.617C69.8708 278.894 69.2558 278.325 68.5061 278.01V272.3L75.76 265.046L85.567 274.853V287.634C84.8008 287.935 84.1648 288.496 83.7707 289.219C83.3765 289.942 83.2492 290.78 83.4111 291.588C83.573 292.395 84.0137 293.119 84.6562 293.634C85.2986 294.149 86.1017 294.422 86.9248 294.404C87.748 294.387 88.5387 294.08 89.1584 293.538C89.7782 292.996 90.1874 292.253 90.3146 291.44C90.4417 290.626 90.2786 289.794 89.8538 289.089C89.429 288.383 88.7696 287.85 87.9911 287.582V273.846L77.474 263.329L84.691 256.112H107.606V264.733C106.835 265.007 106.185 265.543 105.77 266.248C105.354 266.952 105.2 267.781 105.333 268.588C105.467 269.395 105.88 270.129 106.5 270.663C107.12 271.196 107.908 271.494 108.726 271.505C109.544 271.517 110.34 271.24 110.974 270.723C111.609 270.207 112.042 269.484 112.197 268.681C112.352 267.878 112.221 267.046 111.824 266.33C111.428 265.614 110.793 265.061 110.03 264.766V253.688H84.689L72.236 241.233H85.821L85.807 241.242C92.594 242.165 96.613 241.805 98.107 241.283C104.707 238.975 106.116 234.577 111.6 233.057L111.581 233.011L111.599 233.019V233.057C112.251 242.722 115.726 245.708 119.093 248.966C122.273 252.043 126.611 253.479 127.632 258.666V277.07L108.589 296.116H94.571V318.805C93.8307 319.16 93.2386 319.764 92.8983 320.511C92.5581 321.258 92.4914 322.101 92.7098 322.892C92.9283 323.684 93.418 324.373 94.0934 324.84C94.7687 325.307 95.5867 325.522 96.4043 325.446C97.2219 325.371 97.987 325.011 98.5658 324.429C99.1447 323.847 99.5004 323.079 99.5708 322.261C99.6412 321.443 99.4218 320.627 98.9509 319.954C98.4801 319.281 97.7878 318.796 96.995 318.582V298.54H107.876V306.054C107.108 306.345 106.466 306.897 106.064 307.613C105.662 308.33 105.525 309.165 105.676 309.972C105.827 310.78 106.258 311.508 106.893 312.03C107.527 312.552 108.325 312.834 109.146 312.827C109.968 312.82 110.761 312.524 111.386 311.991C112.011 311.458 112.429 310.722 112.567 309.912C112.704 309.102 112.552 308.27 112.138 307.561C111.723 306.851 111.072 306.311 110.299 306.033V297.833L127.631 280.503V303.503C126.863 303.794 126.221 304.346 125.819 305.062C125.417 305.779 125.28 306.614 125.431 307.421C125.582 308.229 126.013 308.957 126.648 309.479C127.282 310.001 128.08 310.283 128.901 310.276C129.723 310.269 130.516 309.973 131.141 309.44C131.766 308.907 132.184 308.171 132.322 307.361C132.459 306.551 132.307 305.719 131.893 305.01C131.478 304.3 130.827 303.76 130.054 303.482V266.4L130.06 266.45C130.06 266.45 132.992 258.523 130.929 253.256C129.475 249.545 125.829 246.685 123.761 244.622C122.577 243.285 121.618 241.766 120.921 240.122C116.593 228.134 120 226.467 122.35 225.722C123.956 225.215 126.082 225.374 126.589 227.209V229.173V229.197V232.697C125.825 233.008 125.195 233.579 124.809 234.308C124.423 235.038 124.306 235.879 124.479 236.686C124.651 237.493 125.102 238.214 125.753 238.721C126.403 239.229 127.212 239.492 128.037 239.463C128.861 239.435 129.65 239.117 130.263 238.565C130.877 238.014 131.277 237.264 131.394 236.447C131.51 235.63 131.335 234.798 130.9 234.097C130.464 233.396 129.796 232.871 129.012 232.613V228.639C129.354 227.157 130.385 224.139 132.992 225.282C138.205 227.562 137.553 241.246 137.445 249.173L137.485 249.138C137.485 249.255 137.485 249.366 137.485 249.458C137.526 251.166 139.868 252.55 144.373 255.836L148.7 260.163H163.994C164.375 260.885 164.997 261.45 165.753 261.76C166.508 262.07 167.348 262.105 168.126 261.859C168.904 261.613 169.572 261.101 170.011 260.413C170.451 259.725 170.635 258.905 170.531 258.095C170.428 257.285 170.043 256.538 169.445 255.983C168.846 255.427 168.072 255.1 167.256 255.058C166.441 255.015 165.637 255.261 164.984 255.751C164.331 256.241 163.871 256.944 163.684 257.739H149.704L144.631 252.665C143.681 251.371 143.392 249.975 144.982 249.748H157.549C157.962 250.45 158.608 250.984 159.375 251.259C160.142 251.533 160.98 251.53 161.745 251.249C162.509 250.969 163.151 250.429 163.559 249.725C163.966 249.02 164.114 248.194 163.975 247.392C163.837 246.589 163.422 245.861 162.801 245.333C162.181 244.806 161.396 244.512 160.582 244.504C159.767 244.496 158.976 244.774 158.346 245.289C157.715 245.804 157.285 246.524 157.131 247.324H146.237C143.262 246.881 140.97 245.294 140.402 242.867V240.411C140.686 233.734 142.448 230.03 145.589 231.038C151.345 232.884 152.35 243.716 165.463 241.191L165.428 241.147H194.458L200.502 247.191L177.928 269.766H154.508V285.73C153.739 286.014 153.094 286.56 152.687 287.272C152.28 287.983 152.136 288.815 152.28 289.623C152.425 290.43 152.848 291.16 153.477 291.687C154.106 292.213 154.9 292.501 155.72 292.501C156.539 292.501 157.333 292.213 157.962 291.687C158.591 291.16 159.015 290.43 159.159 289.623C159.303 288.815 159.159 287.983 158.752 287.272C158.345 286.56 157.7 286.014 156.931 285.73V272.2H162.877L173.052 282.375V294.91C172.287 295.221 171.656 295.791 171.27 296.521C170.883 297.251 170.766 298.093 170.938 298.901C171.111 299.708 171.562 300.429 172.213 300.938C172.863 301.446 173.672 301.709 174.497 301.681C175.323 301.652 176.111 301.335 176.726 300.783C177.34 300.231 177.741 299.481 177.858 298.664C177.974 297.846 177.8 297.014 177.364 296.312C176.929 295.611 176.26 295.085 175.476 294.827V281.371L166.306 272.2H177.927L190.12 284.392V287.25C189.355 287.561 188.725 288.131 188.339 288.861C187.952 289.59 187.835 290.432 188.007 291.24C188.18 292.047 188.631 292.768 189.281 293.276C189.932 293.784 190.74 294.047 191.565 294.019C192.39 293.99 193.179 293.673 193.793 293.121C194.407 292.57 194.808 291.82 194.925 291.003C195.041 290.186 194.867 289.353 194.432 288.652C193.996 287.951 193.328 287.425 192.544 287.167V283.388L180.144 270.988L202.216 248.916L207.992 254.691V268.932C207.223 269.216 206.579 269.762 206.171 270.474C205.764 271.185 205.62 272.018 205.765 272.825C205.909 273.632 206.333 274.362 206.962 274.888C207.59 275.415 208.384 275.703 209.204 275.703C210.024 275.703 210.818 275.415 211.446 274.888C212.075 274.362 212.499 273.632 212.643 272.825C212.788 272.018 212.644 271.185 212.237 270.474C211.83 269.762 211.185 269.216 210.416 268.932V253.687L197.889 241.157H226.848L242.971 257.281L226.271 273.981V285.244C225.549 285.625 224.984 286.247 224.674 287.002C224.364 287.758 224.329 288.598 224.575 289.376C224.821 290.154 225.333 290.822 226.021 291.261C226.709 291.701 227.529 291.885 228.339 291.781C229.149 291.678 229.896 291.293 230.451 290.694C231.007 290.096 231.334 289.321 231.376 288.506C231.419 287.691 231.173 286.887 230.683 286.234C230.193 285.581 229.49 285.121 228.695 284.934V274.985L243.472 260.209V292.854C242.701 293.138 242.055 293.685 241.647 294.398C241.239 295.111 241.094 295.944 241.239 296.753C241.383 297.562 241.807 298.294 242.437 298.821C243.067 299.348 243.863 299.637 244.684 299.637C245.506 299.637 246.301 299.348 246.931 298.821C247.561 298.294 247.985 297.562 248.129 296.753C248.274 295.944 248.129 295.111 247.721 294.398C247.313 293.685 246.667 293.138 245.896 292.854V260.208L259.061 273.371V284.428C258.296 284.739 257.665 285.309 257.279 286.039C256.892 286.769 256.775 287.611 256.947 288.419C257.12 289.226 257.571 289.947 258.222 290.456C258.872 290.964 259.681 291.227 260.506 291.199C261.332 291.17 262.12 290.853 262.735 290.301C263.349 289.749 263.75 288.999 263.867 288.182C263.983 287.364 263.809 286.532 263.373 285.83C262.938 285.129 262.269 284.603 261.485 284.345H261.483ZM79.608 135.191C79.2401 135.133 78.887 135.067 78.525 135.006C78.3656 134.772 78.2334 134.521 78.1311 134.257C77.8251 133.464 77.6407 132.628 77.584 131.78C77.541 131.175 77.5504 130.567 77.612 129.963C78.2641 129.873 78.9024 129.702 79.512 129.454C80.1303 129.858 80.8239 130.132 81.551 130.261C82.0107 132.141 82.6235 133.981 83.383 135.761C82.1011 135.573 80.834 135.388 79.608 135.191ZM144.636 130.912C144.628 130.867 144.623 130.822 144.615 130.777C144.409 129.694 144.078 128.639 143.629 127.632C144.426 127.534 145.163 127.162 145.714 126.578C146.197 127.043 146.827 127.326 147.496 127.378C146.614 128.589 145.643 129.752 144.636 130.912ZM73.516 131.251C73.506 131.293 73.4891 131.332 73.479 131.375C73.2908 132.205 73.1797 133.051 73.147 133.901C72.147 133.649 71.159 133.374 70.205 133.064C71.4505 132.765 72.5936 132.139 73.516 131.251ZM103.227 140.26C102.188 139.876 101.156 139.48 100.116 139.121C99.065 138.811 98.0061 138.468 96.971 138.221C95.779 137.904 94.61 137.644 93.453 137.409C92.5727 135.992 91.7796 134.523 91.078 133.009C89.6513 129.945 88.8176 126.638 88.621 123.264C88.3969 119.89 88.8039 116.504 89.821 113.279C90.3875 111.506 91.1595 109.806 92.121 108.213C93.2428 108.871 94.4788 109.313 95.764 109.513C96.1916 112.207 96.8912 114.852 97.8521 117.405C98.9046 120.19 100.286 122.84 101.967 125.297C103.609 127.782 105.477 130.11 107.546 132.253C108.943 133.745 110.415 135.166 111.956 136.509L111.888 136.55C114.396 138.657 116.168 141.507 116.948 144.688C113.323 143.812 109.848 142.75 106.608 141.688C105.514 141.137 104.385 140.66 103.227 140.26ZM153.003 140.825C154.136 137.893 155.669 134.696 156.984 132.01C158.375 129.608 159.495 127.059 160.324 124.41C160.877 122.599 161.272 120.743 161.504 118.863C166.444 124.07 173.209 127.158 180.379 127.48C179.889 128.225 179.379 128.955 178.835 129.654C178.487 130.105 178.117 130.534 177.742 130.954C176.935 131.105 176.123 131.263 175.302 131.434C173.512 131.834 171.631 132.264 169.83 132.844C163.852 134.643 158.179 137.333 153.003 140.825ZM159.594 146.431C159.581 146.408 159.56 146.387 159.547 146.363C161.569 144.958 163.687 143.696 165.886 142.588C165.835 142.742 165.786 142.898 165.751 143.059C165.678 143.381 165.634 143.708 165.62 144.038C164.734 144.018 163.868 144.303 163.168 144.846C162.468 145.39 161.976 146.158 161.776 147.021C161.693 147.403 161.669 147.796 161.706 148.186C161.536 148.101 161.352 148.032 161.193 147.938C160.536 147.587 159.984 147.066 159.594 146.431ZM194.738 127.273C193.297 127.795 191.828 128.238 190.338 128.6C188.538 129.045 186.659 129.4 184.722 129.743C185.262 128.889 185.774 128.02 186.248 127.132C190.433 126.436 194.402 124.787 197.848 122.312C198.331 123.279 198.614 124.333 198.68 125.412C197.418 126.138 196.1 126.76 194.738 127.273ZM205.268 119.555C204.363 120.706 203.367 121.781 202.289 122.771C201.968 121.698 201.539 120.661 201.008 119.676C203.689 117.086 205.821 113.982 207.276 110.55C208.731 107.118 209.479 103.428 209.475 99.7C209.475 99.2333 209.463 98.7683 209.44 98.305C210.654 98.1784 211.857 97.9645 213.04 97.665C212.886 99.146 212.697 100.615 212.448 102.065C211.926 105.27 211.062 108.41 209.872 111.431C209.436 112.523 208.935 113.577 208.402 114.608C208.315 114.732 208.245 114.866 208.192 115.008C207.35 116.605 206.372 118.126 205.268 119.555ZM220.189 101.5C218.978 104.157 217.411 106.637 215.531 108.871L215.075 109.399C215.635 107.126 216.041 104.818 216.289 102.491C216.511 100.469 216.631 98.45 216.689 96.434C219.027 95.4416 221.204 94.1052 223.147 92.469C223.106 92.669 223.075 92.863 223.031 93.058C222.374 95.9614 221.422 98.7902 220.189 101.5ZM53.6521 121.054C60.735 119.194 67.0049 115.045 71.487 109.254C75.393 110.645 79.6897 110.443 83.448 108.692C83.14 109.392 82.848 110.092 82.593 110.807C82.0203 112.413 81.5677 114.06 81.239 115.734C80.2832 115.019 79.1782 114.528 78.0065 114.3C76.8348 114.071 75.6265 114.11 74.4719 114.413C73.3173 114.717 72.246 115.277 71.3381 116.052C70.4301 116.827 69.7088 117.797 69.2281 118.89C68.9951 118.868 68.7591 118.854 68.5201 118.854C67.3257 118.853 66.1499 119.15 65.0985 119.717C64.0471 120.283 63.1531 121.102 62.4969 122.1C61.8406 123.098 61.4428 124.244 61.3391 125.434C61.2355 126.624 61.4293 127.821 61.903 128.917C61.709 128.784 61.5121 128.665 61.32 128.526C58.4363 126.395 55.8565 123.882 53.6521 121.054Z" fill="#E3DEE6" stroke="#E3DEE6" stroke-width="3.745" stroke-miterlimit="10"/>
<path d="M144.395 255.862C139.874 252.562 137.526 251.179 137.485 249.468C137.444 247.757 138.055 241.69 138.055 241.69L139.929 246.903L140.906 251.179L146.35 255.808L144.395 255.862Z" fill="#19254F"/>
<path d="M145.155 253.31C143.743 251.79 143.037 249.781 145.372 249.726L140.372 247.5L139.772 249.292L141.944 251.898L145.155 253.31Z" fill="#19254F"/>
<path d="M147.742 127.407C149.349 127.407 150.651 126.104 150.651 124.498C150.651 122.891 149.349 121.589 147.742 121.589C146.135 121.589 144.833 122.891 144.833 124.498C144.833 126.104 146.135 127.407 147.742 127.407Z" fill="#028EA7"/>
<path d="M133.614 208.038C133.398 201.401 132.882 194.514 132.735 187.214C132.642 183.444 132.744 179.673 133.042 175.914C133.356 171.872 134.091 167.874 135.233 163.984L135.697 162.484L136.287 160.937L136.893 159.403L137.607 157.929C137.849 157.442 138.081 156.947 138.337 156.472L139.158 155.081C139.438 154.623 139.701 154.152 139.997 153.71L140.911 152.41C143.318 149.073 146.164 146.076 149.372 143.5C155.447 138.676 162.392 135.064 169.83 132.86C171.63 132.28 173.512 131.848 175.302 131.45C177.097 131.076 178.864 130.75 180.579 130.462C184.011 129.872 187.284 129.362 190.337 128.608C191.827 128.246 193.296 127.803 194.737 127.281C196.106 126.764 197.431 126.137 198.699 125.405C199.949 124.668 201.126 123.812 202.212 122.85C203.319 121.841 204.341 120.741 205.267 119.563C207.176 117.085 208.725 114.348 209.867 111.436C211.057 108.415 211.92 105.275 212.443 102.07C213.56 95.5459 213.613 88.7009 213.637 81.8269V81.7499C213.633 81.3952 213.768 81.0531 214.014 80.7976C214.26 80.5422 214.597 80.3941 214.952 80.3854C215.307 80.3767 215.65 80.5082 215.909 80.7513C216.167 80.9943 216.319 81.3294 216.332 81.6839C216.693 88.5409 217.059 95.5089 216.29 102.499C215.669 109.599 213.312 116.438 209.425 122.413C208.408 123.894 207.271 125.289 206.025 126.583C204.755 127.87 203.365 129.032 201.873 130.053C200.382 131.058 198.81 131.936 197.173 132.679C195.55 133.391 193.888 134.012 192.195 134.538C185.475 136.633 178.618 137.488 172.333 139.808C165.996 142.04 160.142 145.456 155.081 149.875C150.018 154.193 146.386 159.947 144.666 166.375C143.044 172.825 143.13 179.675 143.608 186.447C144.108 193.247 145.001 200.062 145.635 206.936L145.669 207.296C145.816 208.891 145.324 210.48 144.3 211.712C143.276 212.945 141.804 213.72 140.209 213.867C138.614 214.014 137.025 213.522 135.793 212.498C134.56 211.474 133.785 210.002 133.638 208.407C133.626 208.282 133.618 208.151 133.614 208.038Z" fill="#19254F"/>
<path d="M119.789 206.952C120.411 199.51 120.543 192.034 120.182 184.575C120.006 182.732 119.955 180.867 119.65 179.048L119.271 176.306L118.71 173.606L118.428 172.258L118.044 170.943C117.779 170.07 117.538 169.187 117.255 168.322C116.64 166.617 115.905 164.958 115.055 163.358C114.215 161.764 113.243 160.243 112.149 158.811L110.368 156.785C110.218 156.618 110.076 156.443 109.92 156.285L109.42 155.835L108.413 154.935L107.407 154.035C107.063 153.745 106.674 153.507 106.307 153.241C105.563 152.727 104.839 152.184 104.08 151.691C102.516 150.757 100.897 149.92 99.2311 149.185C92.5881 146.085 85.1411 145.038 77.7481 143.345C73.9856 142.549 70.3019 141.418 66.7411 139.965C63.1541 138.426 59.8172 136.36 56.8411 133.835C53.8834 131.322 51.2597 128.44 49.0341 125.261C46.8036 122.114 44.9007 118.748 43.3551 115.214C40.3768 108.151 38.4107 100.703 37.5151 93.0899C36.4951 85.5449 36.1861 77.9739 35.8681 70.4549C35.854 70.1056 35.9762 69.7646 36.2088 69.5037C36.4415 69.2427 36.7664 69.0824 37.1149 69.0565C37.4635 69.0305 37.8086 69.141 38.0773 69.3646C38.346 69.5882 38.5173 69.9074 38.5551 70.2549L38.5641 70.3449C39.3521 77.8399 40.1361 85.3129 41.5931 92.5449C42.8833 99.6474 45.1798 106.53 48.4131 112.984C51.4801 119.081 55.8958 124.399 61.3251 128.534C63.8952 130.416 66.7349 131.9 69.7481 132.934C72.9661 133.969 76.2663 134.727 79.6131 135.202C83.1351 135.767 86.9131 136.228 90.8701 136.922C92.8631 137.29 94.8881 137.677 96.9761 138.233C98.0111 138.479 99.0701 138.822 100.121 139.133C101.162 139.492 102.193 139.888 103.232 140.272C105.352 141.079 107.419 142.02 109.42 143.089C110.431 143.669 111.426 144.323 112.427 144.953C112.927 145.281 113.435 145.576 113.915 145.937L115.335 147.072L116.749 148.225L117.449 148.808C117.673 149.016 117.883 149.241 118.1 149.457C118.962 150.332 119.818 151.22 120.667 152.121C122.254 153.991 123.681 155.993 124.931 158.103C126.159 160.162 127.238 162.306 128.158 164.52C128.58 165.602 128.945 166.686 129.333 167.777L129.895 169.416L130.331 171.033L131.181 174.282L131.807 177.482L132.115 179.082C132.207 179.613 132.266 180.13 132.343 180.656L132.772 183.803C133.625 191.83 133.962 199.903 133.782 207.973C133.751 209.823 132.99 211.586 131.666 212.879C130.341 214.171 128.56 214.888 126.709 214.874C124.859 214.859 123.089 214.114 121.784 212.801C120.48 211.488 119.747 209.714 119.745 207.863C119.745 207.73 119.75 207.595 119.76 207.458L119.789 206.952Z" fill="#19254F"/>
<path d="M73.1191 60.9131C72.6153 74.4376 67.4299 87.3673 58.4491 97.4921C55.5941 100.692 53.1601 104.292 49.9131 107.092C45.6651 110.75 45.8631 116.439 49.7241 120.397" fill="#028EA7"/>
<path d="M74.4671 60.959C74.6817 66.8395 73.9325 72.7155 72.2491 78.354C71.3982 81.1917 70.3421 83.9636 69.0891 86.648C67.8086 89.3359 66.3271 91.9232 64.6571 94.388C64.2491 95.013 63.8241 95.627 63.3631 96.215C62.9021 96.803 62.4791 97.415 61.9921 97.987L60.5781 99.7C60.1451 100.2 59.7171 100.734 59.2871 101.268C57.5272 103.622 55.6344 105.874 53.6181 108.013C53.3471 108.292 53.0571 108.564 52.7711 108.837L51.9351 109.601C51.5842 109.918 51.2681 110.272 50.9921 110.656C50.4843 111.365 50.1625 112.19 50.0561 113.056C49.9827 113.946 50.1123 114.842 50.4351 115.675C50.7359 116.911 50.8221 118.19 50.6901 119.456L50.6761 119.684C50.6617 119.916 50.6017 120.144 50.4994 120.353C50.3972 120.562 50.2548 120.749 50.0803 120.903C49.9058 121.057 49.7027 121.175 49.4825 121.251C49.2623 121.326 49.0294 121.358 48.7971 121.343H48.7581C47.7992 121.241 46.8861 120.88 46.1166 120.299C45.3472 119.717 44.7504 118.938 44.3901 118.043C43.6428 116.222 43.3768 114.239 43.6178 112.285C43.8588 110.331 44.5986 108.472 45.7661 106.887C46.3247 106.123 46.9644 105.422 47.6741 104.796L48.4171 104.133C48.6461 103.917 48.8771 103.708 49.1031 103.48C50.9121 101.69 52.6301 99.537 54.5311 97.321C55.0111 96.767 55.4941 96.209 56.0051 95.653L57.3601 94.128C58.2341 93.109 59.0881 92.068 59.8921 90.988C63.1628 86.6552 65.823 81.8937 67.7981 76.837C69.802 71.708 71.137 66.3422 71.7701 60.872V60.85C71.8128 60.5136 71.9803 60.2055 72.2394 59.9868C72.4984 59.768 72.8302 59.6545 73.169 59.6687C73.5078 59.6829 73.8289 59.8238 74.0688 60.0635C74.3086 60.3032 74.4497 60.6242 74.4641 60.963L74.4671 60.959Z" fill="#19254F"/>
<path d="M92.1941 145.4C91.5148 145.561 90.8075 145.562 90.1277 145.403C89.4479 145.245 88.8142 144.931 88.2761 144.486C87.6471 143.678 87.0789 142.825 86.5761 141.933C85.4775 140.132 84.4948 138.264 83.6341 136.338C81.8416 132.342 80.8161 128.044 80.6111 123.669C80.4469 119.295 81.1182 114.93 82.5891 110.808C84.0481 106.607 86.4657 102.804 89.6501 99.7C92.819 96.8221 96.4813 94.5398 100.461 92.963C104.17 91.398 107.787 90.173 111.079 88.598C114.301 87.1668 117.173 85.0512 119.495 82.3981C120.659 81.1621 121.548 79.694 122.104 78.0902C122.66 76.4864 122.871 74.7831 122.722 73.0921V73.0771C122.678 72.7409 122.761 72.4004 122.956 72.1228C123.151 71.8451 123.442 71.6507 123.773 71.5778C124.105 71.5049 124.451 71.5589 124.744 71.7291C125.037 71.8993 125.256 72.1734 125.357 72.4971C125.98 74.6181 126.047 76.8637 125.551 79.018C125.043 81.1349 124.16 83.1437 122.944 84.949C120.529 88.4471 117.356 91.3556 113.662 93.458C110.115 95.5131 106.491 97.0681 103.199 98.7901C100.041 100.251 97.1671 102.26 94.7091 104.722C92.4832 107.191 90.8153 110.11 89.8191 113.281C88.8019 116.506 88.395 119.892 88.6191 123.266C88.8157 126.64 89.6494 129.947 91.0761 133.011C91.8153 134.609 92.655 136.158 93.5901 137.649L94.3191 138.796C94.5937 139.165 94.8283 139.562 95.0191 139.981C95.3191 140.893 95.3341 142.005 94.3951 143.843L94.3821 143.869C94.1678 144.282 93.8569 144.636 93.476 144.903C93.095 145.17 92.6552 145.34 92.1941 145.4Z" fill="#19254F"/>
<path d="M93.3421 64.9998C90.4641 70.9608 87.5601 76.9908 86.1571 83.4598C84.7541 89.9288 86.3391 98.9408 89.4851 104.765" fill="#028EA7"/>
<path d="M94.5581 65.5868C93.5091 68.9478 92.2801 72.1868 91.3071 75.4368C90.7911 77.0488 90.3341 78.6618 89.9621 80.2718C89.7701 81.0718 89.5831 81.8718 89.4281 82.6718C89.2731 83.4718 89.1361 84.2838 89.0631 84.9918C88.8128 88.0986 89.0128 91.2253 89.6571 94.2748C89.9605 95.8232 90.3613 97.3509 90.8571 98.8488C91.1064 99.5902 91.3781 100.315 91.6721 101.023L91.9071 101.542C92.0074 101.708 92.0657 101.897 92.0771 102.091C92.0447 102.374 91.9385 102.644 91.7691 102.874C91.4424 103.323 91.0741 103.741 90.6691 104.122L90.5341 104.254C89.9211 104.855 89.1405 105.255 88.2951 105.404C86.8501 105.661 86.1081 105.463 85.7121 105.104C85.5511 104.914 85.4282 104.695 85.3501 104.459L85.0551 103.784C84.6898 102.88 84.3594 101.971 84.0641 101.056C83.4941 99.2358 83.0596 97.376 82.7641 95.4918C82.1151 91.6776 82.1516 87.7782 82.8721 83.9768C83.0901 82.9668 83.3381 82.0768 83.6121 81.1918C83.8861 80.3068 84.1741 79.4258 84.5061 78.5678C85.1731 76.8528 85.9181 75.1928 86.7061 73.5758C88.319 70.4108 90.1289 67.3501 92.1251 64.4118C92.3094 64.1419 92.5845 63.9471 92.9003 63.8628C93.2161 63.7785 93.5516 63.8103 93.8459 63.9525C94.1402 64.0946 94.3738 64.3376 94.5041 64.6374C94.6344 64.9371 94.6529 65.2737 94.5561 65.5858L94.5581 65.5868Z" fill="#19254F"/>
<path d="M131.727 153.7C131.146 152.914 130.741 152.012 130.538 151.056C130.336 150.099 130.342 149.111 130.555 148.157C130.732 147.415 131.037 146.71 131.455 146.073C131.871 145.479 132.305 144.902 132.734 144.337C134.473 142.114 136.2 140.081 137.978 138.206L143.078 132.686C144.685 130.857 146.278 129.08 147.64 127.186C150.519 123.568 152.447 119.287 153.248 114.733C153.606 112.393 153.673 110.018 153.448 107.662C153.219 105.246 152.581 102.899 152.365 100.294L154.741 99.3389C155.282 99.4327 155.811 99.5905 156.315 99.8089C156.749 99.9824 157.163 100.201 157.551 100.46C158.231 100.888 158.806 101.464 159.232 102.146C159.911 103.451 160.406 104.845 160.703 106.286C161.425 109.231 161.779 112.254 161.758 115.286C161.732 118.383 161.249 121.458 160.324 124.414C159.421 127.289 158.185 130.048 156.64 132.635C153.693 137.307 150.217 141.624 146.281 145.5C144.514 147.377 142.742 149.129 141.199 150.886C140.528 151.812 139.714 152.625 138.788 153.296C137.335 154.056 135.743 154.516 134.108 154.648L131.727 153.7Z" fill="#19254F"/>
<path d="M173.689 136.2C173.737 135.397 174.074 134.638 174.638 134.064C175.118 133.589 175.626 133.144 176.122 132.685C177.093 131.736 177.999 130.723 178.836 129.654C180.52 127.478 181.947 125.115 183.088 122.611C185.413 117.496 186.841 112.02 187.308 106.421C187.57 103.656 187.608 100.677 187.733 97.747C187.858 94.817 187.967 91.888 188.033 88.968C188.245 83.13 188.156 77.296 188.075 71.429C188.067 71.079 188.195 70.7394 188.432 70.482C188.67 70.2246 188.998 70.0695 189.347 70.0494C189.697 70.0292 190.04 70.1457 190.306 70.3742C190.571 70.6027 190.737 70.9254 190.769 71.274C191.375 77.141 191.692 83.06 191.859 88.974C191.914 91.931 191.926 94.882 191.931 97.826C191.906 100.77 191.959 103.675 191.77 106.771C191.417 112.928 189.968 118.972 187.489 124.618C186.208 127.474 184.599 130.172 182.696 132.658C181.729 133.909 180.68 135.094 179.555 136.206C178.962 136.734 178.419 137.319 177.782 137.796C177.042 138.29 176.148 138.498 175.265 138.384C174.788 138.324 174.353 138.079 174.054 137.702C173.754 137.325 173.615 136.846 173.665 136.367L173.689 136.2Z" fill="#19254F"/>
<path d="M153.553 99.8539C145.053 90.8679 142.203 80.1899 142.708 67.8339C142.993 61.6416 144.499 55.5667 147.138 49.958C149.778 44.3492 153.499 39.3172 158.089 35.1509" fill="#028EA7"/>
<path d="M153.553 99.8539C145.053 90.8679 142.203 80.1899 142.708 67.8339C142.993 61.6416 144.499 55.5667 147.138 49.958C149.778 44.3492 153.499 39.3172 158.089 35.1509" stroke="#19254F" stroke-width="2.699" stroke-linecap="square" stroke-linejoin="round"/>
<path d="M116.121 28.1909C122.809 31.627 128.703 36.424 133.427 42.2737C138.15 48.1235 141.597 54.8966 143.547 62.1579" fill="#028EA7"/>
<path d="M116.121 28.1909C122.809 31.627 128.703 36.424 133.427 42.2737C138.15 48.1235 141.597 54.8966 143.547 62.1579" stroke="#19254F" stroke-width="2.699" stroke-miterlimit="10"/>
<path d="M168.882 65.342C170.047 71.959 169.181 78.7736 166.397 84.8887C163.614 91.0038 159.044 96.1327 153.289 99.6" fill="#028EA7"/>
<path d="M170.206 65.083C172.084 72.0447 171.742 79.4189 169.228 86.177C166.686 93.326 161.964 99.497 155.728 103.82L150.855 95.375C156.22 92.8785 160.666 88.7596 163.563 83.6C166.74 78.1638 168.137 71.8698 167.557 65.6L170.206 65.083Z" fill="#19254F"/>
<path d="M123.961 74.659C124.302 64.923 118.584 55.203 113.115 47.929L123.961 74.659Z" fill="#028EA7"/>
<path d="M123.961 74.659C124.302 64.923 118.584 55.203 113.115 47.929" stroke="#19254F" stroke-width="2.699" stroke-miterlimit="10" stroke-linecap="round"/>
<path d="M132.225 153.645C132.287 153.661 132.352 153.666 132.416 153.66C132.45 153.656 132.483 153.65 132.516 153.642C132.516 153.609 132.498 153.57 132.49 153.533C132.463 153.342 132.383 153.163 132.258 153.016C131.933 152.546 131.561 152.11 131.147 151.716C130.158 150.762 129.121 149.858 128.04 149.009C126.93 148.109 125.758 147.256 124.601 146.355L121.071 143.725C116.22 140.323 111.689 136.484 107.537 132.257C105.468 130.114 103.6 127.786 101.958 125.301C100.277 122.843 98.8956 120.194 97.8431 117.409C96.801 114.638 96.0604 111.763 95.6341 108.834C95.2964 105.913 95.2144 102.969 95.389 100.034C95.4024 99.7074 95.541 99.3985 95.7759 99.1714C96.0109 98.9443 96.3242 98.8163 96.651 98.814C96.9777 98.8117 97.2929 98.9352 97.531 99.159C97.7692 99.3828 97.912 99.6896 97.93 100.016L97.942 100.251C98.0138 102.977 98.322 105.693 98.863 108.366C99.4728 110.952 100.356 113.466 101.497 115.866C102.634 118.247 104.051 120.483 105.718 122.528C107.364 124.62 109.198 126.557 111.197 128.314C115.329 131.884 119.775 135.074 124.482 137.843C126.832 139.331 129.223 140.801 131.613 142.395C132.803 143.204 134.005 144.018 135.176 144.946C136.48 145.896 137.62 147.053 138.552 148.37C139.252 149.21 139.589 150.293 139.49 151.381C139.392 152.47 138.864 153.475 138.025 154.174C137.185 154.874 136.102 155.212 135.013 155.113C133.924 155.014 132.92 154.487 132.22 153.647L132.225 153.645Z" fill="#19254F"/>
<path d="M92.3181 137.2C104.823 139.935 129.758 153.678 151.325 142.28L142.337 155.762L134.131 187.8L129.051 184.869L121.04 161.618L110.098 148.332L98.1801 142.47L92.3181 137.2Z" fill="#19254F"/>
<path d="M111.889 136.552C113.491 137.909 114.808 139.57 115.764 141.439C116.72 143.309 117.296 145.349 117.459 147.442L128.35 149.188L124.858 141.955L113.552 135.555L111.889 136.552Z" fill="#19254F"/>
<path d="M157.775 130.4C155.53 134.972 152.039 141.955 151.457 146.112L143.057 148.772L144.47 137.632L155.61 129.153L157.775 130.4Z" fill="#19254F"/>
<path d="M209.207 113.94C210.394 113.38 211.508 112.678 212.526 111.849C213.042 111.38 213.593 110.965 214.076 110.439L214.825 109.687L215.525 108.874C217.408 106.639 218.977 104.158 220.189 101.5C221.426 98.7896 222.382 95.9598 223.042 93.0549C223.675 90.1023 224.074 87.1043 224.235 84.0889V84.0259C224.265 83.5526 224.482 83.1106 224.838 82.7972C225.194 82.4837 225.659 82.3244 226.133 82.3544C226.606 82.3844 227.048 82.6011 227.361 82.957C227.675 83.3128 227.834 83.7786 227.804 84.2519C227.639 87.4763 227.217 90.6825 226.543 93.8399C225.832 96.9967 224.799 100.072 223.459 103.018C222.115 105.974 220.374 108.732 218.285 111.218C216.218 113.773 213.613 115.841 210.655 117.274C210.216 117.474 209.715 117.491 209.263 117.322C208.811 117.153 208.445 116.811 208.245 116.371C208.045 115.932 208.027 115.431 208.197 114.979C208.366 114.527 208.708 114.161 209.147 113.961L209.164 113.954L209.207 113.94Z" fill="#19254F"/>
<path d="M200.257 127.739C202.418 122.585 195.934 116.1 193.772 112.439" stroke="#19254F" stroke-width="4" stroke-miterlimit="10" stroke-linecap="round"/>
<path d="M151.098 223.897L161.363 239.945H194.96L209.205 254.19V271.66" stroke="#19254F" stroke-width="2.425" stroke-miterlimit="10"/>
<path d="M181.656 239.945H227.347L244.683 257.281V296.656" stroke="#19254F" stroke-width="2.425" stroke-miterlimit="10"/>
<path d="M227.481 288.593V274.482L244.683 257.281L260.271 272.869V287.518" stroke="#19254F" stroke-width="2.425" stroke-miterlimit="10"/>
<path d="M201.679 247.739L178.43 270.988H155.719V288.593" stroke="#19254F" stroke-width="2.425" stroke-miterlimit="10"/>
<path d="M163.514 271.122L174.264 281.873V298.268" stroke="#19254F" stroke-width="2.425" stroke-miterlimit="10"/>
<path d="M178.43 270.988L191.331 283.889V289.399" stroke="#19254F" stroke-width="2.425" stroke-miterlimit="10"/>
<path d="M111.775 223.012L94.3811 240.021H69.3091L52.0111 257.319H27.6491L16.5821 268.387V283.217" stroke="#19254F" stroke-width="2.425" stroke-miterlimit="10"/>
<path d="M66.3531 243.17H16.6301L8.83508 250.965" stroke="#19254F" stroke-width="2.425" stroke-miterlimit="10"/>
<path d="M69.3091 240.021L84.1881 254.9H108.819V268.166" stroke="#19254F" stroke-width="2.425" stroke-miterlimit="10"/>
<path d="M84.1881 254.9L67.2931 271.794V280.798" stroke="#19254F" stroke-width="2.425" stroke-miterlimit="10"/>
<path d="M86.7791 291.012V274.348L75.7601 263.328H61.2461L48.3451 276.229V290.205" stroke="#19254F" stroke-width="2.425" stroke-miterlimit="10"/>
<path d="M139.19 223.281V248.546H160.691" stroke="#19254F" stroke-width="2.425" stroke-miterlimit="10"/>
<path d="M138.787 248.546L149.202 258.961H167.478" stroke="#19254F" stroke-width="2.425" stroke-miterlimit="10"/>
<path d="M115.403 223.55V239.139L128.842 252.577V306.869" stroke="#19254F" stroke-width="2.425" stroke-miterlimit="10"/>
<path d="M128.943 277.472L109.087 297.328H95.7831V322.727" stroke="#19254F" stroke-width="2.425" stroke-miterlimit="10"/>
<path d="M109.087 297.328V308.885" stroke="#19254F" stroke-width="2.425" stroke-miterlimit="10"/>
<path d="M9.00505 254.868C10.9347 254.868 12.499 253.304 12.499 251.374C12.499 249.444 10.9347 247.88 9.00505 247.88C7.07536 247.88 5.51105 249.444 5.51105 251.374C5.51105 253.304 7.07536 254.868 9.00505 254.868Z" fill="#19254F"/>
<path d="M16.4601 286.39C18.3897 286.39 19.9541 284.826 19.9541 282.896C19.9541 280.966 18.3897 279.402 16.4601 279.402C14.5304 279.402 12.9661 280.966 12.9661 282.896C12.9661 284.826 14.5304 286.39 16.4601 286.39Z" fill="#19254F"/>
<path d="M48.3761 293.368C50.3058 293.368 51.8701 291.804 51.8701 289.874C51.8701 287.944 50.3058 286.38 48.3761 286.38C46.4464 286.38 44.8821 287.944 44.8821 289.874C44.8821 291.804 46.4464 293.368 48.3761 293.368Z" fill="#19254F"/>
<path d="M67.1341 284.719C69.0638 284.719 70.6281 283.155 70.6281 281.225C70.6281 279.295 69.0638 277.731 67.1341 277.731C65.2044 277.731 63.6401 279.295 63.6401 281.225C63.6401 283.155 65.2044 284.719 67.1341 284.719Z" fill="#19254F"/>
<path d="M86.862 294.364C88.7917 294.364 90.356 292.8 90.356 290.87C90.356 288.94 88.7917 287.376 86.862 287.376C84.9324 287.376 83.368 288.94 83.368 290.87C83.368 292.8 84.9324 294.364 86.862 294.364Z" fill="#19254F"/>
<path d="M108.766 271.509C110.696 271.509 112.26 269.945 112.26 268.015C112.26 266.085 110.696 264.521 108.766 264.521C106.836 264.521 105.272 266.085 105.272 268.015C105.272 269.945 106.836 271.509 108.766 271.509Z" fill="#19254F"/>
<path d="M109.121 312.803C111.051 312.803 112.615 311.239 112.615 309.309C112.615 307.379 111.051 305.815 109.121 305.815C107.191 305.815 105.627 307.379 105.627 309.309C105.627 311.239 107.191 312.803 109.121 312.803Z" fill="#19254F"/>
<path d="M128.876 310.249C130.806 310.249 132.37 308.685 132.37 306.755C132.37 304.825 130.806 303.261 128.876 303.261C126.946 303.261 125.382 304.825 125.382 306.755C125.382 308.685 126.946 310.249 128.876 310.249Z" fill="#19254F"/>
<path d="M160.557 251.502C162.487 251.502 164.051 249.938 164.051 248.008C164.051 246.078 162.487 244.514 160.557 244.514C158.627 244.514 157.063 246.078 157.063 248.008C157.063 249.938 158.627 251.502 160.557 251.502Z" fill="#19254F"/>
<path d="M167.075 262.051C169.005 262.051 170.569 260.487 170.569 258.557C170.569 256.627 169.005 255.063 167.075 255.063C165.145 255.063 163.581 256.627 163.581 258.557C163.581 260.487 165.145 262.051 167.075 262.051Z" fill="#19254F"/>
<path d="M209.205 275.692C211.135 275.692 212.699 274.128 212.699 272.198C212.699 270.268 211.135 268.704 209.205 268.704C207.275 268.704 205.711 270.268 205.711 272.198C205.711 274.128 207.275 275.692 209.205 275.692Z" fill="#19254F"/>
<path d="M191.466 293.968C193.396 293.968 194.96 292.404 194.96 290.474C194.96 288.544 193.396 286.98 191.466 286.98C189.536 286.98 187.972 288.544 187.972 290.474C187.972 292.404 189.536 293.968 191.466 293.968Z" fill="#19254F"/>
<path d="M174.399 301.628C176.329 301.628 177.893 300.064 177.893 298.134C177.893 296.204 176.329 294.64 174.399 294.64C172.469 294.64 170.905 296.204 170.905 298.134C170.905 300.064 172.469 301.628 174.399 301.628Z" fill="#19254F"/>
<path d="M155.719 292.49C157.649 292.49 159.213 290.926 159.213 288.996C159.213 287.066 157.649 285.502 155.719 285.502C153.789 285.502 152.225 287.066 152.225 288.996C152.225 290.926 153.789 292.49 155.719 292.49Z" fill="#19254F"/>
<path d="M227.884 291.818C229.814 291.818 231.378 290.254 231.378 288.324C231.378 286.394 229.814 284.83 227.884 284.83C225.954 284.83 224.39 286.394 224.39 288.324C224.39 290.254 225.954 291.818 227.884 291.818Z" fill="#19254F"/>
<path d="M244.683 299.612C246.613 299.612 248.177 298.048 248.177 296.118C248.177 294.188 246.613 292.624 244.683 292.624C242.753 292.624 241.189 294.188 241.189 296.118C241.189 298.048 242.753 299.612 244.683 299.612Z" fill="#19254F"/>
<path d="M260.406 291.146C262.336 291.146 263.9 289.582 263.9 287.652C263.9 285.722 262.336 284.158 260.406 284.158C258.476 284.158 256.912 285.722 256.912 287.652C256.912 289.582 258.476 291.146 260.406 291.146Z" fill="#19254F"/>
<path d="M127.801 223.617V234.704" stroke="#19254F" stroke-width="2.425" stroke-miterlimit="10"/>
<path d="M114.545 223.942L119.331 215.566L132.294 204L143.861 208.986L147.451 223.744C142.665 219.357 123.719 219.556 115.941 223.944" fill="#19254F"/>
<path d="M206.771 98.439C220.843 98.439 232.25 87.0316 232.25 72.96C232.25 58.8883 220.843 47.481 206.771 47.481C192.699 47.481 181.292 58.8883 181.292 72.96C181.292 87.0316 192.699 98.439 206.771 98.439Z" fill="#028EA7"/>
<path d="M174.474 82.643C189.839 82.643 202.295 70.1871 202.295 54.822C202.295 39.4569 189.839 27.001 174.474 27.001C159.109 27.001 146.653 39.4569 146.653 54.822C146.653 70.1871 159.109 82.643 174.474 82.643Z" fill="#028EA7"/>
<path d="M121.525 71.8741C140.856 71.8741 156.526 56.2036 156.526 36.8731C156.526 17.5426 140.856 1.87207 121.525 1.87207C102.195 1.87207 86.524 17.5426 86.524 36.8731C86.524 56.2036 102.195 71.8741 121.525 71.8741Z" fill="#028EA7"/>
<path d="M71.2681 103.284C92.5808 103.284 109.858 86.0067 109.858 64.694C109.858 43.3813 92.5808 26.104 71.2681 26.104C49.9554 26.104 32.6781 43.3813 32.6781 64.694C32.6781 86.0067 49.9554 103.284 71.2681 103.284Z" fill="#028EA7"/>
<path d="M122.261 115.849C145.963 115.849 165.178 96.6343 165.178 72.9319C165.178 49.2295 145.963 30.0149 122.261 30.0149C98.5587 30.0149 79.3441 49.2295 79.3441 72.9319C79.3441 96.6343 98.5587 115.849 122.261 115.849Z" fill="#028EA7"/>
<path d="M181.654 127.516C197.019 127.516 209.475 115.06 209.475 99.695C209.475 84.3299 197.019 71.874 181.654 71.874C166.289 71.874 153.833 84.3299 153.833 99.695C153.833 115.06 166.289 127.516 181.654 127.516Z" fill="#028EA7"/>
<path d="M164.909 96.1049C188.374 96.1049 207.396 77.0828 207.396 53.6179C207.396 30.1529 188.374 11.1309 164.909 11.1309C141.444 11.1309 122.422 30.1529 122.422 53.6179C122.422 77.0828 141.444 96.1049 164.909 96.1049Z" fill="#028EA7"/>
<path d="M45.2421 122.131C63.5812 122.131 78.4481 107.264 78.4481 88.925C78.4481 70.5858 63.5812 55.719 45.2421 55.719C26.9029 55.719 12.0361 70.5858 12.0361 88.925C12.0361 107.264 26.9029 122.131 45.2421 122.131Z" fill="#028EA7"/>
<path d="M117.789 169.584C120.006 177.122 118.454 208.63 108.644 224.342L153.038 224.675C149.214 214.449 143.949 196.298 143.616 187.209C143.283 178.12 128.098 169.584 128.098 169.584H117.789Z" fill="#19254F"/>
<path d="M96.0851 325.435C98.0147 325.435 99.5791 323.871 99.5791 321.941C99.5791 320.011 98.0147 318.447 96.0851 318.447C94.1554 318.447 92.5911 320.011 92.5911 321.941C92.5911 323.871 94.1554 325.435 96.0851 325.435Z" fill="#19254F"/>
<path d="M98.8321 109.228C96.3931 110.669 86.6391 108.228 88.2461 99.3621L93.4001 98.4761L97.0001 103.408L97.7761 106.955L98.8321 109.228Z" fill="#028EA7"/>
<path d="M76.7731 110.17C85.5887 110.17 92.7351 103.023 92.7351 94.2078C92.7351 85.3923 85.5887 78.2458 76.7731 78.2458C67.9575 78.2458 60.8111 85.3923 60.8111 94.2078C60.8111 103.023 67.9575 110.17 76.7731 110.17Z" fill="#028EA7"/>
<path d="M45.071 110.835C42.363 110.837 39.681 110.306 37.1786 109.27C34.6762 108.235 32.4026 106.716 30.4876 104.801C28.5727 102.887 27.0542 100.613 26.0189 98.1104C24.9836 95.6081 24.4518 92.9261 24.454 90.218" stroke="#46ADBF" stroke-width="2" stroke-miterlimit="10" stroke-linecap="round"/>
<path d="M48.8401 65.388C48.8388 62.4473 49.4171 59.5353 50.5419 56.8182C51.6667 54.1012 53.316 51.6325 55.3955 49.5533C57.475 47.4741 59.9439 45.8251 62.6611 44.7006C65.3783 43.5762 68.2904 42.9983 71.2311 43" stroke="#46ADBF" stroke-width="2" stroke-miterlimit="10" stroke-linecap="round"/>
<path d="M190.502 43.218C190.503 41.1507 190.097 39.1034 189.306 37.1932C188.516 35.283 187.356 33.5474 185.895 32.0855C184.433 30.6237 182.697 29.4643 180.787 28.6738C178.877 27.8832 176.829 27.4768 174.762 27.478" stroke="#46ADBF" stroke-width="2" stroke-miterlimit="10" stroke-linecap="round"/>
<path d="M188.729 70.487C188.728 68.5651 189.106 66.6619 189.84 64.8862C190.575 63.1104 191.653 61.4969 193.012 60.138C194.371 58.779 195.984 57.7013 197.76 56.9664C199.536 56.2315 201.439 55.8538 203.361 55.855" stroke="#46ADBF" stroke-width="2" stroke-miterlimit="10" stroke-linecap="round"/>
<path d="M125.443 57.9609C123.9 59.5061 122.067 60.7319 120.049 61.5682C118.032 62.4046 115.87 62.835 113.686 62.835C111.502 62.835 109.339 62.4046 107.322 61.5682C105.304 60.7319 103.471 59.5061 101.928 57.9609" stroke="#46ADBF" stroke-width="2" stroke-miterlimit="10" stroke-linecap="round"/>
<path d="M182.078 116.821C179.894 116.822 177.732 116.393 175.714 115.558C173.696 114.722 171.863 113.498 170.318 111.954C168.774 110.409 167.549 108.576 166.714 106.558C165.879 104.54 165.45 102.378 165.451 100.194" stroke="#46ADBF" stroke-width="2" stroke-miterlimit="10" stroke-linecap="round"/>
<path d="M127.935 239.424C129.865 239.424 131.429 237.86 131.429 235.93C131.429 234 129.865 232.436 127.935 232.436C126.005 232.436 124.441 234 124.441 235.93C124.441 237.86 126.005 239.424 127.935 239.424Z" fill="#19254F"/>
<path d="M165.463 241.2C152.349 243.725 151.345 232.893 145.589 231.047C142.357 230.01 140.58 233.947 140.377 240.997C140.204 246.976 137.445 249.182 137.445 249.182C137.553 241.255 138.205 227.571 132.992 225.291C129.586 223.801 128.865 229.418 128.865 229.418L126.585 229.2C127.345 225.508 124.413 225.074 122.35 225.725C119.709 226.559 115.725 228.549 122.893 245.056L113.988 239.517C115.182 225.182 98.3501 237.671 96.6121 239.517L113.445 221.056L129.517 218.341L141.463 218.015L148.956 221.273L152.105 224.096L165.463 241.2Z" fill="#19254F"/>
<path d="M148.63 247.446C144.178 247.663 140.485 245.6 140.268 242.016L138.968 243.102L139.402 248.64L145.918 248.857L148.63 247.446Z" fill="#19254F"/>
<path d="M152.54 223.663C160.576 234.848 161.879 237.781 176.54 238.763L161.771 241.369L155.255 233.985L152.54 223.663Z" fill="#19254F"/>
<path d="M127.779 259.609C127.128 253.636 122.458 252.224 119.092 248.966C115.726 245.708 112.25 242.722 111.598 233.057C111.309 228.763 116.268 238.649 116.268 238.649L122.893 245.057L125.173 248.857L129.408 252.984L129.191 258.957L127.779 259.609Z" fill="#19254F"/>
<path d="M130.06 266.45C130.06 266.45 132.992 258.523 130.929 253.256C129.475 249.545 125.829 246.686 123.761 244.622C121.693 242.558 118.874 236.586 118.874 232.022L116.051 232.891L115.399 242.121L123.979 250.158L128.979 256.673L130.06 266.45Z" fill="#19254F"/>
<path d="M85.8071 241.242C92.5941 242.165 96.6131 241.805 98.1071 241.283C104.707 238.975 106.116 234.577 111.6 233.057L109.714 228.699L94.6031 240.061L87.8701 240.007L85.8071 241.242Z" fill="#19254F"/>
<path d="M84.3951 238.812C87.87 238.704 95.095 237.512 99.164 233.762L96.889 238L92.762 240.443L83.4771 239.792L84.3951 238.812Z" fill="#19254F"/>
<path d="M139.508 122.776C147.923 122.776 154.745 115.954 154.745 107.539C154.745 99.1238 147.923 92.302 139.508 92.302C131.093 92.302 124.271 99.1238 124.271 107.539C124.271 115.954 131.093 122.776 139.508 122.776Z" fill="#E5E0E8"/>
<path d="M114.364 121.421C123.05 121.421 130.091 114.38 130.091 105.694C130.091 97.0083 123.05 89.967 114.364 89.967C105.678 89.967 98.6371 97.0083 98.6371 105.694C98.6371 114.38 105.678 121.421 114.364 121.421Z" fill="#E5E0E8"/>
<path d="M128.594 119.592C130.614 119.592 132.252 117.88 132.252 115.768C132.252 113.656 130.614 111.944 128.594 111.944C126.574 111.944 124.936 113.656 124.936 115.768C124.936 117.88 126.574 119.592 128.594 119.592Z" fill="#E5E0E8"/>
<path d="M152.205 118.982C154.145 114.077 155.142 108.895 154.754 106.651L148.27 108.424L145.637 115.38L148.187 118.317L152.205 118.982Z" fill="#E5E0E8"/>
<path d="M140.369 135.648C140.9 135.124 141.282 134.468 141.476 133.748C141.738 132.872 141.873 131.962 141.876 131.048C141.877 129.079 141.436 127.135 140.587 125.358L140.578 125.337C140.5 125.167 140.488 124.975 140.544 124.797C140.6 124.619 140.72 124.468 140.881 124.374C141.042 124.28 141.232 124.249 141.415 124.287C141.597 124.325 141.759 124.429 141.869 124.58C143.235 126.416 144.172 128.534 144.612 130.78C144.843 131.965 144.902 133.178 144.789 134.38C144.676 135.761 144.204 137.089 143.42 138.233L143.338 138.35C143.186 138.568 142.992 138.754 142.768 138.897C142.544 139.04 142.294 139.138 142.033 139.184C141.771 139.231 141.503 139.225 141.243 139.168C140.983 139.111 140.738 139.004 140.52 138.851C140.302 138.699 140.116 138.506 139.973 138.282C139.829 138.058 139.732 137.808 139.685 137.546C139.639 137.284 139.644 137.016 139.701 136.756C139.758 136.497 139.866 136.251 140.018 136.033C140.118 135.89 140.236 135.761 140.369 135.648Z" fill="#19254F"/>
<path d="M139.901 127.74C141.248 127.74 142.34 126.648 142.34 125.301C142.34 123.954 141.248 122.862 139.901 122.862C138.554 122.862 137.462 123.954 137.462 125.301C137.462 126.648 138.554 127.74 139.901 127.74Z" fill="#028EA7"/>
<path d="M143.863 126.243C145.47 126.243 146.772 124.941 146.772 123.334C146.772 121.727 145.47 120.425 143.863 120.425C142.257 120.425 140.954 121.727 140.954 123.334C140.954 124.941 142.257 126.243 143.863 126.243Z" fill="#414B6E"/>
<path d="M143.195 127.676C145.109 127.676 146.661 126.124 146.661 124.21C146.661 122.296 145.109 120.744 143.195 120.744C141.281 120.744 139.729 122.296 139.729 124.21C139.729 126.124 141.281 127.676 143.195 127.676Z" fill="#028EA7"/>
<path d="M138.903 128.293C141.383 128.293 143.393 126.283 143.393 123.803C143.393 121.323 141.383 119.313 138.903 119.313C136.423 119.313 134.413 121.323 134.413 123.803C134.413 126.283 136.423 128.293 138.903 128.293Z" fill="#028EA7"/>
<path d="M143.255 125.854C145.383 125.854 147.108 124.129 147.108 122.001C147.108 119.873 145.383 118.148 143.255 118.148C141.127 118.148 139.402 119.873 139.402 122.001C139.402 124.129 141.127 125.854 143.255 125.854Z" fill="#028EA7"/>
<path d="M159.594 146.431C159.984 147.067 160.536 147.587 161.194 147.938C161.989 148.392 162.845 148.729 163.736 148.938C165.654 149.383 167.648 149.393 169.57 148.968H169.592C169.775 148.93 169.966 148.961 170.127 149.056C170.288 149.15 170.408 149.302 170.464 149.48C170.519 149.658 170.507 149.851 170.428 150.021C170.349 150.19 170.21 150.324 170.038 150.397C167.941 151.312 165.667 151.747 163.38 151.669C162.173 151.626 160.979 151.41 159.833 151.029C158.513 150.607 157.326 149.849 156.388 148.829L156.288 148.729C156.104 148.532 155.961 148.301 155.868 148.049C155.774 147.797 155.732 147.528 155.744 147.26C155.755 146.991 155.82 146.727 155.934 146.483C156.049 146.24 156.211 146.022 156.41 145.842C156.61 145.661 156.844 145.523 157.098 145.434C157.352 145.345 157.621 145.308 157.89 145.324C158.158 145.34 158.421 145.41 158.662 145.529C158.903 145.648 159.119 145.814 159.295 146.017C159.41 146.143 159.511 146.282 159.594 146.431Z" fill="#19254F"/>
<path d="M171.668 157.633C174.242 157.633 176.328 155.547 176.328 152.973C176.328 150.399 174.242 148.313 171.668 148.313C169.094 148.313 167.008 150.399 167.008 152.973C167.008 155.547 169.094 157.633 171.668 157.633Z" fill="#028EA7"/>
<path d="M176.102 154.973C177.941 154.973 179.432 153.482 179.432 151.643C179.432 149.804 177.941 148.313 176.102 148.313C174.263 148.313 172.772 149.804 172.772 151.643C172.772 153.482 174.263 154.973 176.102 154.973Z" fill="#028EA7"/>
<path d="M164.532 156.676C166.66 156.676 168.385 154.951 168.385 152.823C168.385 150.695 166.66 148.97 164.532 148.97C162.404 148.97 160.679 150.695 160.679 152.823C160.679 154.951 162.404 156.676 164.532 156.676Z" fill="#028EA7"/>
<path d="M165.53 151.744C167.658 151.744 169.383 150.019 169.383 147.891C169.383 145.763 167.658 144.038 165.53 144.038C163.402 144.038 161.677 145.763 161.677 147.891C161.677 150.019 163.402 151.744 165.53 151.744Z" fill="#028EA7"/>
<path d="M171.006 149.673C173.986 149.673 176.401 147.258 176.401 144.278C176.401 141.298 173.986 138.883 171.006 138.883C168.026 138.883 165.611 141.298 165.611 144.278C165.611 147.258 168.026 149.673 171.006 149.673Z" fill="#028EA7"/>
<path d="M74.5891 139.543C73.7292 138.251 73.2335 136.75 73.1541 135.2C73.0744 133.916 73.1829 132.628 73.4761 131.375C74.0225 129.059 75.0869 126.896 76.5891 125.05C76.758 124.837 76.9978 124.692 77.2646 124.642C77.5315 124.591 77.8078 124.638 78.043 124.773C78.2783 124.909 78.4569 125.125 78.5463 125.382C78.6357 125.638 78.6299 125.918 78.5301 126.171L78.5111 126.217C77.7834 127.977 77.4673 129.88 77.5871 131.78C77.6433 132.629 77.8277 133.464 78.1341 134.257C78.3141 134.83 78.6806 135.326 79.1751 135.667C79.6495 135.857 80.0726 136.157 80.4103 136.54C80.748 136.924 80.9908 137.382 81.1194 137.876C81.2479 138.371 81.2584 138.889 81.1502 139.389C81.0419 139.888 80.8178 140.355 80.496 140.753C80.1742 141.15 79.7637 141.466 79.2974 141.675C78.8312 141.885 78.3222 141.982 77.8116 141.959C77.3009 141.936 76.8029 141.793 76.3574 141.542C75.912 141.292 75.5317 140.94 75.2471 140.515L74.5891 139.543Z" fill="#19254F"/>
<path d="M75.027 128.405C76.6336 128.405 77.936 127.103 77.936 125.496C77.936 123.889 76.6336 122.587 75.027 122.587C73.4204 122.587 72.118 123.889 72.118 125.496C72.118 127.103 73.4204 128.405 75.027 128.405Z" fill="#414B6E"/>
<path d="M82.522 130.351C85.5657 130.351 88.0331 127.883 88.0331 124.84C88.0331 121.796 85.5657 119.329 82.522 119.329C79.4784 119.329 77.011 121.796 77.011 124.84C77.011 127.883 79.4784 130.351 82.522 130.351Z" fill="#028EA7"/>
<path d="M76.4961 130.05C80.8857 130.05 84.4441 126.492 84.4441 122.102C84.4441 117.712 80.8857 114.154 76.4961 114.154C72.1065 114.154 68.5481 117.712 68.5481 122.102C68.5481 126.492 72.1065 130.05 76.4961 130.05Z" fill="#028EA7"/>
<path d="M68.5201 133.271C72.5009 133.271 75.7281 130.044 75.7281 126.063C75.7281 122.082 72.5009 118.855 68.5201 118.855C64.5392 118.855 61.3121 122.082 61.3121 126.063C61.3121 130.044 64.5392 133.271 68.5201 133.271Z" fill="#028EA7"/>
</g>
<defs>
<clipPath id="clip0">
<rect width="265.483" height="334.955" fill="white" transform="translate(0.289062)"/>
</clipPath>
</defs>
</svg>
