<svg width="414" height="338" viewBox="0 0 414 338" fill="none" xmlns="http://www.w3.org/2000/svg">
<g clip-path="url(#clip0)">
<path d="M88.951 94.18C116.221 14.137 167.982 6.27999 237.941 30.726C325.383 61.275 437.395 169.196 371.804 245.226C328.914 294.943 266.039 251.946 238.966 255.256C159.499 264.973 43.795 226.713 88.951 94.18Z" fill="#F8E8F0"/>
<path d="M411.534 274.99C405.287 263.091 396.709 252.57 386.312 244.054C375.915 235.538 363.911 229.201 351.014 225.42L348.198 224.62C340.762 222.52 331.126 219.787 323.382 216.659C324.999 214.636 326.44 212.479 327.691 210.212C329.907 206.03 331.036 201.402 332.127 196.927C332.404 195.797 332.679 194.668 332.971 193.547C333.35 192.099 333.615 190.708 333.871 189.365C334.59 185.587 335.21 182.327 338.05 179.627L338.276 179.414C340.348 177.44 341.985 175.882 349.325 172.904L349.991 172.618C350.029 172.601 350.067 172.582 350.104 172.561C353.962 170.381 359.004 169.537 365.09 170.055C369.323 170.256 373.565 169.983 377.737 169.24C378.72 169.102 379.701 168.965 380.678 168.84C387.41 167.915 393.975 166.036 400.178 163.262C401.554 162.752 402.823 161.991 403.92 161.016C404.739 160.132 405.377 159.096 405.797 157.966C407.382 154.277 408.579 150.433 409.371 146.497C409.819 144.254 410.038 141.697 408.278 139.721C407.096 138.594 405.679 137.744 404.128 137.232L387.128 130.269C385.303 129.642 383.591 128.725 382.057 127.554C381.474 127.009 380.937 126.417 380.451 125.784C380.057 125.299 379.651 124.797 379.186 124.317C376.286 121.306 371.724 119.73 368.062 118.463C365.701 117.646 363.718 116.818 361.8 116.017C358.224 114.395 354.484 113.163 350.644 112.344C347.867 111.787 344.82 112.619 342.444 113.6C338.958 93.6504 333.332 74.1349 325.661 55.392C315.903 32.074 304.38 14.665 290.434 2.17003C290.258 2.01198 290.037 1.91122 289.803 1.88109C289.568 1.85095 289.329 1.89287 289.119 2.00128C288.908 2.10969 288.735 2.27949 288.624 2.4882C288.512 2.6969 288.466 2.93467 288.492 3.17003L293.765 51.17C279.329 39.07 263.122 31.725 247.049 30.209C246.789 30.1917 246.53 30.2587 246.311 30.4001C246.092 30.5415 245.924 30.7498 245.833 30.994C245.748 31.2427 245.75 31.5126 245.837 31.7603C245.924 32.008 246.092 32.2193 246.314 32.36C252.235 36.118 256.76 43.022 259.762 52.88C260.7 55.958 261.477 59.158 262.23 62.253C263.378 67.5733 264.943 72.7951 266.91 77.87C271.51 88.885 280.391 99.139 292.58 107.523C302.971 114.672 314.596 119.865 325.923 124.823C324.761 125.97 323.602 127.023 322.547 127.989C321.174 129.241 319.988 130.322 319.105 131.311C309.805 141.733 300.888 147.158 292.605 147.436C282.514 147.769 271.674 143.594 262.833 135.968L262.757 136.056C255.347 129.664 249.071 120.941 243.569 109.388C241.887 105.857 240.322 102.167 238.808 98.598C235.069 89.785 231.202 80.671 225.197 72.976C216.71 62.09 203.551 53.857 188.151 49.786C178.117 47.2562 167.771 46.1898 157.432 46.62C149.377 45.2785 141.923 41.5107 136.066 35.82C130.154 30.0265 125.449 23.1183 122.224 15.495L121.643 14.188L120.569 15.132C113.814 21.069 112.169 31.925 116.545 39.713L113.115 39.87C112.409 39.8696 111.73 40.1418 111.22 40.63C111.076 40.789 110.966 40.9754 110.895 41.1779C110.825 41.3804 110.796 41.5951 110.81 41.809C110.85 42.2194 111.014 42.608 111.28 42.923C113.945 46.7183 117.419 49.8752 121.451 52.166C124.325 53.734 127.54 54.5722 130.813 54.607C131.176 54.607 131.537 54.594 131.896 54.572C127.505 59.202 124.541 65.686 123.503 73.433C122.904 78.5709 122.813 83.7553 123.232 88.911C109.898 91.391 96.09 93.111 85.668 86.229C84.686 85.581 83.711 84.837 82.768 84.118C80.6214 82.2755 78.1687 80.8232 75.521 79.827C71.372 78.527 67.074 79.42 62.921 80.288L62.786 80.316C45.6853 83.887 28.3331 86.1247 10.886 87.009C10.054 87.051 7.23198 87.309 5.82298 88.92C5.54263 89.233 5.32953 89.6003 5.19691 89.999C5.06429 90.3977 5.01496 90.8195 5.05198 91.238C5.14625 91.9627 5.40819 92.6553 5.81698 93.261C8.19463 97.1728 11.4511 100.477 15.328 102.911C19.2049 105.345 23.5956 106.842 28.152 107.284C34.928 107.884 41.568 106.084 47.988 104.335C50.911 103.542 53.933 102.719 56.909 102.145C59.8859 101.458 62.9653 101.337 65.987 101.788C68.1733 102.299 70.2978 103.045 72.323 104.014L117.271 123.548C114.735 124.322 112.098 124.713 109.447 124.707C100.441 124.995 91.431 124.286 82.581 122.593C81.581 122.401 80.572 122.193 79.561 121.993C73.029 120.667 66.273 119.293 59.738 121.07C50.538 123.57 44.82 131.357 39.288 138.891L39.188 139.032C36.655 140.746 9.91698 159.142 2.31898 176.832C2.25377 176.983 2.22508 177.148 2.23523 177.312C2.24539 177.477 2.2941 177.637 2.37744 177.779C2.46078 177.921 2.5764 178.041 2.71495 178.131C2.8535 178.22 3.01109 178.275 3.17498 178.292C20.834 180.153 32.611 176.467 41.341 166.335C43.332 164.026 45.103 161.51 46.816 159.078C48.486 156.705 50.216 154.251 52.116 152.033C55.235 148.403 60.245 143.965 66.397 143.442C73.641 142.833 80.079 147.504 86.319 152.027L86.563 152.203C100.31 162.164 117.419 174.558 134.884 171.077C153.061 167.455 164.168 161.033 167.971 151.963C171.236 155.718 171.499 158.54 171.879 162.624C172.076 165.359 172.508 168.072 173.17 170.733L173.057 170.762C173.675 173.15 174.252 175.603 174.81 177.975C176.454 184.959 178.152 192.182 181.155 198.875C185.305 208.122 191.744 215.024 199.111 218.251L193.174 220.712C192.982 220.792 192.815 220.921 192.69 221.087C192.565 221.252 192.486 221.448 192.461 221.654C192.437 221.86 192.468 222.069 192.551 222.259C192.633 222.45 192.765 222.615 192.933 222.737C197.976 226.406 203.656 229.108 209.684 230.706C206.775 232.037 203.602 232.692 200.403 232.622C200.142 232.62 199.887 232.703 199.678 232.859C199.469 233.016 199.317 233.237 199.246 233.488C199.178 233.741 199.197 234.01 199.3 234.251C199.404 234.492 199.585 234.691 199.815 234.817C210.34 240.558 222.676 240.448 234.615 240.348L236.315 240.335C239.177 240.313 241.761 240.184 244.041 240.07C251.706 239.685 256.771 239.433 263.406 243.283L263.869 243.577C268.103 250.629 279.275 261.44 285.22 265.877C290.04 269.471 295.75 271.505 301.27 273.472C303.484 274.261 305.77 275.077 307.953 275.972C322.787 282.096 335.153 293.165 347.11 303.872C348.936 305.506 350.762 307.132 352.588 308.751C366.788 321.277 382.532 333.251 401.388 336.034C401.445 336.042 401.502 336.046 401.559 336.046C401.866 336.047 402.161 335.926 402.38 335.71C402.599 335.495 402.724 335.201 402.728 334.894C402.897 323.077 397.309 310.932 386.994 300.694C377.794 291.568 366.069 285.005 355.722 279.215L355.592 279.143C344.833 273.121 333.706 266.894 324.828 258.267C316.375 250.055 313.967 242.703 313.614 237.514C320.06 240.495 327.784 241.684 335.284 242.814C344.484 244.201 354.001 245.633 360.859 250.426C364.536 252.997 367.398 256.404 370.427 260.011C372.552 262.656 374.85 265.157 377.307 267.496C384.452 273.888 393.704 277.421 403.291 277.418C405.794 277.421 408.291 277.169 410.744 276.668C410.92 276.631 411.086 276.554 411.227 276.442C411.369 276.331 411.483 276.188 411.56 276.026C411.638 275.863 411.677 275.685 411.674 275.504C411.671 275.324 411.626 275.147 411.544 274.987L411.534 274.99ZM122.443 50.311C118.794 48.2323 115.64 45.3857 113.199 41.968H113.211L120.385 41.64L119.262 40.066C114.552 33.466 115.389 23.566 120.923 17.709C124.208 25.0621 128.857 31.726 134.623 37.348C139.087 41.6025 144.387 44.8817 150.186 46.977C148.321 47.108 146.422 47.266 144.473 47.46C144.427 47.4634 144.382 47.4707 144.337 47.482L143.337 47.715C140.166 48.5553 137.201 50.0379 134.627 52.071L134.605 51.994C130.485 53.0091 126.133 52.4068 122.443 50.311ZM73.151 102.084C70.9857 101.049 68.7126 100.256 66.373 99.721C63.0888 99.2172 59.739 99.3387 56.5 100.079C53.448 100.668 50.386 101.501 47.426 102.305C40.897 104.08 34.726 105.756 28.326 105.188C24.101 104.779 20.0295 103.391 16.4342 101.134C12.8389 98.8778 9.81865 95.8148 7.61298 92.188C7.37798 91.8533 7.21645 91.4726 7.13898 91.071C7.12435 90.9335 7.13966 90.7945 7.18385 90.6635C7.22804 90.5325 7.30007 90.4126 7.39498 90.312C8.41502 89.5083 9.68267 89.0841 10.981 89.112C28.5374 88.2224 45.9982 85.9706 63.206 82.377L63.351 82.348C67.244 81.534 71.268 80.694 74.893 81.834C77.3054 82.7616 79.5385 84.1008 81.493 85.792C82.463 86.532 83.467 87.292 84.508 87.985C95.517 95.251 109.694 93.558 123.376 91.024C123.516 92.87 123.676 94.708 123.839 96.53C124.18 100.367 124.532 104.33 124.652 108.218C124.786 112.57 124.51 117.981 121.162 121.227C120.727 121.638 120.252 122.007 119.746 122.327L73.151 102.084ZM175.201 170.206C174.569 167.653 174.156 165.051 173.968 162.428C173.551 157.959 173.219 154.408 168.746 149.699C168.824 149.417 168.895 149.135 168.959 148.849L166.907 148.386C164.683 158.226 153.769 165.167 134.465 169.012C117.908 172.323 101.205 160.218 87.79 150.5L87.547 150.323C81.301 145.796 74.214 140.666 66.212 141.344C59.351 141.929 53.887 146.734 50.512 150.662C48.54 152.956 46.784 155.452 45.084 157.862C43.401 160.252 41.66 162.726 39.737 164.957C31.743 174.234 20.937 177.767 4.84498 176.337C13.202 159.104 40.223 140.858 40.502 140.67C40.6035 140.603 40.6923 140.518 40.764 140.419L40.976 140.13C46.294 132.888 51.793 125.399 60.281 123.095C66.337 121.451 72.842 122.771 79.135 124.049C80.153 124.255 81.166 124.461 82.176 124.655C91.1791 126.378 100.345 127.099 109.507 126.805C114.067 126.659 119.192 126.06 122.623 122.734C126.563 118.913 126.9 112.934 126.752 108.149C126.63 104.204 126.276 100.205 125.932 96.338C125.27 88.882 124.586 81.172 125.586 73.707C127.248 61.293 134.086 52.335 143.843 49.751L144.743 49.54C149.143 49.105 153.312 48.84 157.293 48.723L157.335 48.73V48.722C167.523 48.2854 177.72 49.3276 187.609 51.816C202.567 55.77 215.326 63.741 223.536 74.259C229.371 81.736 233.183 90.719 236.868 99.408C238.391 102.997 239.968 106.708 241.668 110.281C247.052 121.581 253.187 130.257 260.39 136.755C256.533 145.928 248.552 154.355 236.784 154.877C224.502 155.423 199.078 154.496 187.651 159.067C182.892 160.967 178.929 165.39 175.451 170.747C175.402 170.556 175.357 170.362 175.308 170.171L175.195 170.201L175.201 170.206Z" fill="#E3DEE6" stroke="#E3DEE6" stroke-width="3.745" stroke-miterlimit="10"/>
<path d="M7.94098 177.706C23.12 174.564 34.279 165.806 42.746 152.544C47.241 145.501 53.011 138.428 60.979 135.912C66.616 134.132 72.831 135.399 78.198 137.878C83.565 140.357 88.309 143.978 93.274 147.183C106.766 155.898 123.449 161.743 138.874 157.277C142.881 156.067 146.71 154.331 150.262 152.115C155.162 149.135 159.784 145.341 162.395 140.236C168.669 127.973 161.627 112.593 165.886 99.4921C166.919 96.3141 168.763 93.2021 171.727 91.6611C173.744 90.7034 175.986 90.3227 178.206 90.5611C188.196 91.3091 196.048 99.7451 200.263 108.834C204.478 117.923 206.101 128.006 209.883 137.283C215.554 151.194 225.828 162.715 236.749 173.031" stroke="#E83C65" stroke-width="1.169" stroke-miterlimit="10"/>
<path d="M4.69998 176.7C16.86 168.106 28.261 157.963 39.142 147.548C45.328 141.626 50.176 133.776 58.186 130.748C68.299 126.927 79.491 130.943 89.646 134.648C98.946 138.048 108.539 141.234 118.437 141.258C128.335 141.282 138.731 137.639 144.59 129.658C153.09 118.084 150.307 100.529 159.947 89.886C167.481 81.569 180.79 80.446 191.076 84.933C201.362 89.42 209.006 98.433 214.813 108.041C220.62 117.649 224.962 128.081 230.913 137.597C236.864 147.113 244.813 155.935 255.282 159.962" stroke="#E83C65" stroke-width="1.169" stroke-miterlimit="10"/>
<path d="M169.523 151.335C173.074 141.101 173.597 129.829 175.079 119.099C175.679 114.741 176.145 110.239 178.201 106.349C179.366 104.149 181.345 102.043 183.837 102.001C186.862 101.95 189.037 104.86 190.337 107.59C196.51 120.526 195.315 135.623 198.031 149.696C200.878 164.441 208.081 178.078 217.101 190.085C220.801 195.005 225.301 199.985 231.34 201.138" stroke="#E83C65" stroke-width="1.169" stroke-miterlimit="10"/>
<path d="M216.699 212.7C205.154 206.007 197.413 193.99 193.454 181.246C189.495 168.502 188.948 154.967 189.012 141.623C189.043 135.033 189.195 128.293 187.112 122.042C187.05 121.726 186.92 121.427 186.731 121.166C186.542 120.905 186.298 120.688 186.017 120.53C185.232 120.23 184.417 120.851 183.843 121.464C179.688 125.91 178.259 131.784 176.524 137.616" stroke="#E83C65" stroke-width="1.169" stroke-miterlimit="10"/>
<path d="M256.451 144.48C252.513 141.789 249.011 138.511 246.065 134.76C238.149 125.093 232.675 113.712 226.414 102.899C220.153 92.086 212.766 81.475 202.272 74.693C194.101 69.414 184.508 66.767 174.933 65.053C168.56 63.912 161.823 63.181 155.75 65.423C147.702 68.392 142.265 76.123 139.373 84.197C136.481 92.271 135.65 100.916 133.779 109.287C132.201 116.347 128.879 124.24 121.892 126.119C117.533 127.292 112.776 124.819 108.433 126.049" stroke="#E83C65" stroke-width="1.169" stroke-miterlimit="10"/>
<path d="M6.13998 90.4221C16.57 94.3221 27.508 98.1381 38.577 96.9291C46.998 96.0091 54.977 92.2071 63.437 91.8701C82.06 91.1291 97.673 106.952 116.219 108.805C119.229 109.105 122.484 108.963 124.951 107.213" stroke="#E83C65" stroke-width="1.169" stroke-miterlimit="10"/>
<path d="M23.835 175.86C21.121 175.18 18.6479 173.763 16.689 171.766C14.7301 169.768 13.3617 167.268 12.735 164.541" stroke="#E83C65" stroke-width="1.169" stroke-miterlimit="10"/>
<path d="M35.341 170.215C31.501 169.594 27.52 168.907 24.32 166.695C21.12 164.483 17.762 159.874 19.12 156.227" stroke="#E83C65" stroke-width="1.169" stroke-miterlimit="10"/>
<path d="M44.176 159.892C42.1769 160.134 40.1489 159.893 38.2625 159.188C36.3762 158.483 34.6866 157.336 33.336 155.842C31.646 154.055 29.782 149.898 30.441 147.528" stroke="#E83C65" stroke-width="1.169" stroke-miterlimit="10"/>
<path d="M52.989 149.034C48.639 149.109 45.089 147.129 43.319 143.154C42.3609 141.332 41.7185 139.36 41.419 137.323" stroke="#E83C65" stroke-width="1.169" stroke-miterlimit="10"/>
<path d="M61.562 143.019C58.4489 141.464 55.9275 138.936 54.3795 135.819C52.8315 132.703 52.3413 129.166 52.983 125.746C53.06 125.688 53.1483 125.648 53.2422 125.626C53.336 125.605 53.4333 125.604 53.5276 125.623C53.622 125.642 53.7113 125.68 53.7897 125.736C53.8682 125.792 53.934 125.863 53.983 125.946" stroke="#E83C65" stroke-width="1.169" stroke-miterlimit="10"/>
<path d="M69.871 142.219C66.8467 136.083 65.8053 129.159 66.891 122.405" stroke="#E83C65" stroke-width="1.169" stroke-miterlimit="10"/>
<path d="M77.791 144.935C80.0831 138.035 80.4329 130.637 78.802 123.551" stroke="#E83C65" stroke-width="1.169" stroke-miterlimit="10"/>
<path d="M85.536 149.411C87.1186 144.827 88.2752 140.107 88.991 135.311C89.558 131.517 89.769 127.349 87.658 124.146" stroke="#E83C65" stroke-width="1.169" stroke-miterlimit="10"/>
<path d="M93.845 155.6C98.458 149.912 99.545 147.009 99.982 139.7C100.167 136.618 99.851 128.385 98.248 125.747" stroke="#E83C65" stroke-width="1.169" stroke-miterlimit="10"/>
<path d="M104.051 161.931C110.651 152.114 112.692 137.848 109.409 126.486" stroke="#E83C65" stroke-width="1.169" stroke-miterlimit="10"/>
<path d="M114.276 167.757C116.803 165.585 117.968 162.257 118.976 159.086C120.763 153.467 122.407 147.747 122.834 141.867C123.261 135.987 122.398 129.877 119.442 124.775" stroke="#E83C65" stroke-width="1.169" stroke-miterlimit="10"/>
<path d="M132.695 170.359C135.92 168.735 137.441 165.023 138.449 161.559C140.685 153.868 141.703 145.688 140.217 137.818C138.731 129.948 135.262 120.609 125.543 116.867" stroke="#E83C65" stroke-width="1.169" stroke-miterlimit="10"/>
<path d="M156.437 163.327C160.261 150.737 159.131 137.162 153.279 125.378C147.427 113.593 137.294 104.489 124.953 99.927" stroke="#E83C65" stroke-width="1.169" stroke-miterlimit="10"/>
<path d="M18.251 103.053C16.8493 100.766 16.217 98.0893 16.4468 95.4164C16.6766 92.7436 17.7564 90.2146 19.528 88.2" stroke="#E83C65" stroke-width="1.169" stroke-miterlimit="10"/>
<path d="M29.051 106.707C27.569 103.568 26.9082 100.104 27.1305 96.6396C27.3528 93.1753 28.4509 89.8242 30.322 86.9001" stroke="#E83C65" stroke-width="1.169" stroke-miterlimit="10"/>
<path d="M41.812 104.623C38.6781 98.5366 38.0039 91.4785 39.929 84.9089" stroke="#E83C65" stroke-width="1.169" stroke-miterlimit="10"/>
<path d="M51.6 102.719C50.1713 99.7955 49.3479 96.6134 49.1793 93.3637C49.0108 90.1141 49.5004 86.8638 50.619 83.8081" stroke="#E83C65" stroke-width="1.169" stroke-miterlimit="10"/>
<path d="M62.143 100.9C61.0179 97.6177 60.5856 94.1377 60.8734 90.6798C61.1612 87.2219 62.1628 83.8613 63.815 80.8101" stroke="#E83C65" stroke-width="1.169" stroke-miterlimit="10"/>
<path d="M71.51 103.056C75.6236 96.9206 77.7021 89.6464 77.451 82.2639" stroke="#E83C65" stroke-width="1.169" stroke-miterlimit="10"/>
<path d="M83.598 107.784C85.7568 105.418 87.4 102.628 88.4235 99.5929C89.4469 96.5575 89.8281 93.3426 89.543 90.1521" stroke="#E83C65" stroke-width="1.169" stroke-miterlimit="10"/>
<path d="M93.143 112.57C98.597 106.57 101.554 99.5951 100.711 91.5291" stroke="#E83C65" stroke-width="1.169" stroke-miterlimit="10"/>
<path d="M104.004 116.973C106.925 113.588 109.106 109.63 110.407 105.352C111.708 101.075 112.101 96.5722 111.56 92.134" stroke="#E83C65" stroke-width="1.169" stroke-miterlimit="10"/>
<path d="M113.929 121.267C117.946 117.123 119.503 113.433 120.473 105.914C120.949 102.224 121.479 93.582 118.853 90.946" stroke="#E83C65" stroke-width="1.169" stroke-miterlimit="10"/>
<path d="M168.695 151.142C171.61 136.149 168.581 120.61 160.248 107.81C151.915 95.0103 138.931 85.9522 124.041 82.551" stroke="#E83C65" stroke-width="1.169" stroke-miterlimit="10"/>
<path d="M126.775 68.259C132.431 65.396 139.44 66.29 145.052 69.238C150.664 72.186 155.1 76.938 159.075 81.881C166.956 91.669 173.584 102.767 176.311 115.034C179.038 127.301 177.624 142.204 170.397 152.485" stroke="#E83C65" stroke-width="1.169" stroke-miterlimit="10"/>
<path d="M185.851 120.492C185.635 104.592 183.951 90.6921 176.812 76.4801C169.673 62.2681 159.863 51.3801 144.188 48.7001" stroke="#E83C65" stroke-width="1.169" stroke-miterlimit="10"/>
<path d="M188.961 130.6C199.624 118.82 205.179 103.18 203.161 87.5C202.084 79.6178 199.343 72.0548 195.119 65.3134C190.895 58.5721 185.285 52.8066 178.661 48.4" stroke="#E83C65" stroke-width="1.163" stroke-miterlimit="10"/>
<path d="M170.883 154.817C177.26 145.982 183.409 139.857 188.831 130.406" stroke="#E83C65" stroke-width="1.169" stroke-miterlimit="10"/>
<path d="M173.774 168.263C178.321 160.327 182.923 152.316 189.129 145.596C196.285 137.846 205.384 132.025 212.166 123.945C225.166 108.455 227.755 85.0101 218.439 67.0591" stroke="#E83C65" stroke-width="1.169" stroke-miterlimit="10"/>
<path d="M176.201 178.829C184.834 165.017 198.982 155.82 211.951 145.965C224.92 136.11 237.741 124.16 241.524 108.317C241.856 107.292 241.891 106.193 241.624 105.149C241.473 104.634 241.135 104.194 240.676 103.915C240.218 103.635 239.672 103.537 239.145 103.638" stroke="#E83C65" stroke-width="1.169" stroke-miterlimit="10"/>
<path d="M178.238 187.879C209.525 177.782 235.67 155.933 251.163 126.937" stroke="#E83C65" stroke-width="1.169" stroke-miterlimit="10"/>
<path d="M185.351 205C210.406 198.776 231.818 182.257 249.139 163.114C255.532 156.049 261.821 147.549 261.092 138.049" stroke="#E83C65" stroke-width="1.169" stroke-miterlimit="10"/>
<path d="M143.351 48.554C133.171 43.585 122.251 34.683 116.343 25.019" stroke="#E83C65" stroke-width="1.169" stroke-miterlimit="10"/>
<path d="M138.268 50.712C131.603 49.76 124.493 47.602 118.145 40.746" stroke="#E83C65" stroke-width="1.169" stroke-miterlimit="10"/>
<path d="M136.787 37.9611C133.41 38.798 130.301 40.4807 127.754 42.8507C125.207 45.2207 123.305 48.2 122.227 51.5081" stroke="#E83C65" stroke-width="1.169" stroke-miterlimit="10"/>
<path d="M167.933 148.618C164.942 161.852 147.977 167.393 134.671 170.045C117.871 173.395 101.049 161.404 87.171 151.351C80.898 146.806 74.018 141.736 66.299 142.394C60.349 142.9 55.199 146.818 51.309 151.347C47.419 155.876 44.431 161.125 40.533 165.647C30.896 176.831 17.956 178.793 3.27398 177.247C11.051 159.142 39.917 139.8 39.917 139.8C45.412 132.32 51.049 124.515 60.006 122.083C67.289 120.105 74.963 122.206 82.375 123.626C91.3019 125.335 100.391 126.049 109.475 125.757C113.903 125.614 118.711 125.066 121.892 121.982C125.423 118.559 125.854 113.101 125.702 108.182C125.347 96.622 123.009 85.032 124.545 73.568C126.081 62.104 132.425 51.688 143.606 48.728L144.578 48.501C159.107 47.058 173.768 47.067 187.884 50.801C202 54.535 215.384 62.101 224.373 73.615C232.713 84.301 236.795 97.593 242.623 109.832C247.429 119.922 253.612 129.543 262.074 136.844C270.536 144.145 281.478 148.972 292.651 148.6C303.824 148.228 313.896 138.9 319.98 132.086C321.727 130.128 324.915 127.613 327.951 124.427C316.008 119.21 303.983 113.948 293.251 106.561C282.519 99.174 273.023 89.444 267.996 77.42C264.667 69.455 263.404 60.798 260.889 52.54C258.374 44.282 254.236 35.998 246.947 31.373C268.715 33.427 288.47 45.892 303.37 61.893C318.27 77.894 328.919 97.314 338.979 116.726C338.979 116.726 345.346 112.481 350.425 113.496C357.325 114.877 361.04 117.273 367.69 119.574C371.615 120.931 375.711 122.393 378.355 125.134C379.386 126.204 380.161 127.434 381.293 128.434C382.922 129.695 384.746 130.681 386.693 131.354L403.693 138.317C405.078 138.765 406.348 139.511 407.414 140.503C408.846 142.109 408.625 144.303 408.232 146.271C407.458 150.128 406.285 153.894 404.732 157.509C404.368 158.5 403.815 159.412 403.103 160.192C402.108 161.06 400.962 161.738 399.723 162.192C393.616 164.914 387.157 166.762 380.535 167.684C375.456 168.328 370.296 169.325 365.193 168.892C359.436 168.403 353.913 169.07 349.533 171.546L348.866 171.831C341.083 174.99 339.506 176.639 337.25 178.782C333.079 182.744 333.298 187.689 331.845 193.255C330.392 198.821 329.355 204.584 326.662 209.667C322.681 217.182 315.267 222.857 313.03 231.067C310.257 241.238 316.443 251.767 324.004 259.115C333.028 267.883 344.163 274.1 355.142 280.244C366.121 286.388 377.231 292.67 386.161 301.532C395.091 310.394 401.73 322.303 401.551 334.883C383.068 332.156 367.365 320.239 353.351 307.883C339.337 295.527 325.658 282.03 308.389 274.9C300.789 271.761 292.502 269.861 285.91 264.943C279.65 260.273 268.664 249.487 264.722 242.743L264.022 242.298C254.945 237.03 248.544 239.075 236.294 239.167C224.044 239.259 211.123 239.659 200.368 233.793C204.814 233.891 209.187 232.661 212.93 230.26C205.955 228.872 199.364 225.983 193.616 221.795L202.316 218.188C193.016 215.414 186.192 207.248 182.216 198.398C178.24 189.548 176.616 179.864 174.183 170.474C171.75 161.084 174.465 157.037 167.677 150.109" stroke="#270041" stroke-width="2.104" stroke-linejoin="round"/>
<path d="M262.073 136.846C270.536 144.146 281.478 148.972 292.648 148.597C303.818 148.222 313.893 138.897 319.977 132.083C321.724 130.125 324.912 127.61 327.948 124.424C316.005 119.207 303.98 113.945 293.248 106.558C282.516 99.171 273.02 89.441 267.993 77.417C264.664 69.452 263.401 60.795 260.886 52.537C258.371 44.279 254.233 35.995 246.944 31.37C268.712 33.424 288.467 45.889 303.367 61.89C318.267 77.891 328.916 97.311 338.976 116.723C338.976 116.723 345.343 112.478 350.422 113.493C357.322 114.874 361.037 117.27 367.687 119.571C371.612 120.928 375.708 122.39 378.352 125.131C379.383 126.201 380.158 127.431 381.29 128.431C382.919 129.692 384.743 130.678 386.69 131.351L403.69 138.314C405.075 138.762 406.345 139.508 407.411 140.5C408.843 142.106 408.622 144.3 408.229 146.268C407.455 150.125 406.282 153.891 404.729 157.506C404.365 158.497 403.812 159.409 403.1 160.189C402.105 161.057 400.959 161.735 399.72 162.189C393.613 164.911 387.154 166.759 380.532 167.681C375.453 168.325 370.293 169.322 365.19 168.889C359.433 168.4 353.91 169.067 349.53 171.543L348.863 171.828C341.08 174.987 339.503 176.636 337.247 178.779C333.076 182.741 333.295 187.686 331.842 193.252C330.389 198.818 329.352 204.581 326.659 209.664C322.678 217.179 315.264 222.854 313.027 231.064C310.254 241.235 316.44 251.764 324.001 259.112C333.025 267.88 344.16 274.097 355.139 280.241C366.118 286.385 377.228 292.667 386.158 301.529C395.088 310.391 401.727 322.3 401.548 334.88C383.065 332.153 367.362 320.236 353.348 307.88C339.334 295.524 325.655 282.027 308.386 274.897C300.786 271.758 292.499 269.858 285.907 264.94C279.647 260.27 268.661 249.484 264.719 242.74L264.019 242.295C254.942 237.027 248.541 239.072 236.291 239.164C224.041 239.256 211.12 239.656 200.365 233.79C204.811 233.888 209.184 232.658 212.927 230.257C205.952 228.869 199.361 225.98 193.613 221.792L202.313 218.185C193.013 215.411 186.189 207.245 182.213 198.395C178.237 189.545 176.613 179.861 174.18 170.471" stroke="#46ADBF" stroke-width="2.338" stroke-linejoin="round"/>
<path d="M124.151 89.8119C110.981 92.2909 96.274 94.4889 85.09 87.1119C81.818 84.9519 78.947 82.0119 75.207 80.8349C71.276 79.5979 67.033 80.5079 62.999 81.3519C45.8437 84.9358 28.4354 87.1786 10.932 88.0599C8.78498 88.1679 5.91798 89.01 6.09398 91.153C6.17849 91.7163 6.39055 92.253 6.71398 92.722C9.00651 96.4907 12.145 99.6739 15.8809 102.019C19.6168 104.365 23.8475 105.809 28.238 106.236C37.887 107.092 47.19 102.949 56.702 101.111C59.8095 100.392 63.0252 100.271 66.178 100.754C68.4414 101.278 70.6403 102.049 72.735 103.054L120.158 123.664" stroke="#19254F" stroke-width="2.104" stroke-miterlimit="10"/>
<path d="M157.483 47.693C149.172 46.547 141.45 42.337 135.345 36.582C129.334 30.6905 124.548 23.6675 121.264 15.918C114.425 21.929 113.116 33.265 118.406 40.677L113.164 40.917C112.588 40.943 111.823 41.166 111.864 41.741C111.898 41.9455 111.99 42.1362 112.128 42.291C114.71 45.9533 118.062 49.0067 121.949 51.237C125.878 53.4633 130.512 54.0962 134.894 53.005" stroke="#270041" stroke-width="2.104" stroke-miterlimit="10"/>
<path d="M295.303 54.462L289.651 3.04102C305.5 17.241 316.365 36.213 324.58 55.841C332.297 74.685 337.937 94.3139 341.4 114.38L337.337 119.08L301.157 74.517L295.303 54.462Z" fill="#028EA7"/>
<path d="M295.303 54.462L289.651 3.04102C305.5 17.241 316.365 36.213 324.58 55.841C332.297 74.685 337.937 94.3139 341.4 114.38L337.337 119.08L301.157 74.517L295.303 54.462" stroke="#028EA7" stroke-width="2.338" stroke-linejoin="round"/>
<path d="M317.535 215.326C326.651 219.926 340.874 223.745 350.694 226.545C363.448 230.258 375.32 236.511 385.597 244.928C395.873 253.345 404.342 263.753 410.494 275.526C404.771 276.653 398.865 276.436 393.241 274.894C387.616 273.351 382.426 270.523 378.08 266.634C372.186 261.27 368.047 254.034 361.515 249.471C348.466 240.352 327.197 243.171 313.005 235.962" fill="#028EA7"/>
<path d="M317.535 215.326C326.651 219.926 340.874 223.745 350.694 226.545C363.448 230.258 375.32 236.511 385.597 244.928C395.873 253.345 404.342 263.753 410.494 275.526C404.771 276.653 398.865 276.436 393.241 274.894C387.616 273.351 382.426 270.523 378.08 266.634C372.186 261.27 368.047 254.034 361.515 249.471C348.466 240.352 327.197 243.171 313.005 235.962" stroke="#028EA7" stroke-width="2.338" stroke-linejoin="round"/>
<path d="M407.41 140.5C406.344 139.508 405.074 138.762 403.689 138.314L386.689 131.351C384.742 130.678 382.918 129.692 381.289 128.431C380.157 127.431 379.382 126.198 378.351 125.131C375.707 122.39 371.611 120.931 367.686 119.571C361.036 117.271 357.321 114.871 350.421 113.494C345.342 112.478 338.976 116.723 338.976 116.723C328.911 97.311 318.261 77.891 303.362 61.89C288.463 45.889 268.707 33.424 246.939 31.37C254.228 35.995 258.366 44.279 260.881 52.537C263.396 60.795 264.659 69.452 267.988 77.417C273.015 89.441 282.506 99.172 293.243 106.558C303.98 113.944 316.005 119.207 327.943 124.424C324.907 127.61 321.719 130.124 319.972 132.083C313.888 138.899 303.813 148.222 292.643 148.597C281.473 148.972 270.531 144.146 262.068 136.846C261.641 136.477 261.245 136.078 260.829 135.698C257.156 145.274 249.005 154.339 236.783 154.882C224.501 155.428 199.077 154.501 187.65 159.072C182.492 161.135 178.268 166.15 174.587 172.115C176.799 180.987 178.469 190.059 182.21 198.393C186.182 207.243 193.01 215.409 202.31 218.183L193.61 221.79C199.358 225.978 205.949 228.867 212.924 230.255C209.181 232.656 204.808 233.886 200.362 233.788C211.117 239.654 224.038 239.254 236.288 239.162C248.538 239.07 254.939 237.025 264.016 242.293L264.716 242.738C268.658 249.48 279.644 260.266 285.904 264.938C292.496 269.856 300.781 271.756 308.383 274.895C325.652 282.025 339.332 295.52 353.345 307.878C367.358 320.236 383.06 332.153 401.545 334.878C401.724 322.298 395.086 310.39 386.155 301.527C377.224 292.664 366.116 286.383 355.136 280.239C344.156 274.095 333.022 267.878 323.998 259.11C316.437 251.764 310.251 241.233 313.024 231.062C315.261 222.857 322.675 217.182 326.656 209.662C329.349 204.579 330.387 198.816 331.839 193.25C333.291 187.684 333.073 182.739 337.244 178.777C339.5 176.634 341.077 174.985 348.86 171.826L349.527 171.541C353.907 169.065 359.427 168.398 365.187 168.887C370.287 169.32 375.45 168.323 380.529 167.678C387.151 166.757 393.61 164.909 399.717 162.187C400.957 161.733 402.102 161.055 403.097 160.187C403.809 159.407 404.362 158.496 404.726 157.505C406.279 153.89 407.452 150.124 408.226 146.267C408.621 144.307 408.842 142.109 407.41 140.5Z" fill="#46ADBF"/>
<path d="M279.285 190.762C273.129 204.045 256.477 210.2 239.112 205.535C221.747 200.87 213.194 199.315 204.641 203.98" stroke="#028EA7" stroke-width="2.338" stroke-linecap="round" stroke-linejoin="round"/>
<path d="M287.319 171.324C265.16 170.024 260.883 187.652 243.777 182.468" stroke="#028EA7" stroke-width="2.338" stroke-linecap="round" stroke-linejoin="round"/>
<path d="M335.008 119.488C289.393 100.568 295.095 66.356 256.995 36.551" stroke="#028EA7" stroke-width="2.338" stroke-linecap="round" stroke-linejoin="round"/>
<path d="M316.866 177.414C316.283 185.773 319.198 201.514 300.732 215.514" stroke="#028EA7" stroke-width="2.338" stroke-linecap="round" stroke-linejoin="round"/>
<path d="M407.442 151.236C406.075 149.868 406.235 144.593 404.321 145.049C402.407 145.505 400.493 146.963 400.584 144.958C400.645 143.608 402.564 141.068 403.813 139.551C404.091 139.211 404.489 138.991 404.924 138.935C405.36 138.88 405.8 138.993 406.155 139.251L406.68 139.633C407.84 140.478 408.625 141.742 408.867 143.157C409.057 144.272 408.972 145.416 408.62 146.49L407.442 151.236Z" fill="#57396B"/>
<path d="M390.44 331.464C390.149 325.146 386.94 318.634 384.9 316.788C384.9 316.788 386.844 327.868 386.455 330.297L390.44 331.464Z" fill="#028EA7"/>
<path d="M330.473 140.481C328.529 143.786 319.393 152.727 313.367 154.671" stroke="#028EA7" stroke-width="2.338" stroke-linecap="round" stroke-linejoin="round"/>
<path d="M359.825 135.277H366.982" stroke="#57396B" stroke-width="2.87" stroke-linecap="round" stroke-linejoin="round"/>
<path d="M367.22 138.14C368.933 138.14 370.321 136.752 370.321 135.039C370.321 133.326 368.933 131.938 367.22 131.938C365.507 131.938 364.119 133.326 364.119 135.039C364.119 136.752 365.507 138.14 367.22 138.14Z" fill="#57396B"/>
</g>
<defs>
<clipPath id="clip0">
<rect width="413.185" height="337.92" fill="white" transform="translate(0.350983)"/>
</clipPath>
</defs>
</svg>
