<svg width="341" height="298" viewBox="0 0 341 298" fill="none" xmlns="http://www.w3.org/2000/svg">
<g clip-path="url(#clip0)">
<path d="M115.308 134.937C95.734 125.613 73.797 117.171 52.842 122.737C32.069 128.257 17.905 147.3 9.583 167.121C-17.775 232.264 19.857 276.134 42.483 287.01C65.109 297.886 91.374 298.826 116.249 295.418C133.109 293.1 149.655 288.9 165.58 282.898L145.442 148.35C135.165 144.645 125.152 139.626 115.308 134.937Z" fill="#E4E5EA"/>
<path d="M263.119 126.245C241.048 130.876 221.098 142.645 199.568 149.353C192.153 151.664 184.539 153.532 176.781 153.892C166.015 154.392 155.6 152.012 145.442 148.35L165.584 282.9C177.638 278.365 189.286 272.813 200.4 266.305C209.291 261.096 217.875 255.258 227.363 251.24C238.551 246.502 249.939 243.904 261.917 241.874C273.422 239.925 286.134 239.841 297.184 236.092C299.935 235.227 302.636 234.212 305.275 233.051C324.453 225.451 342.775 203.423 339.944 171.341C337.989 149.187 316.813 114.979 263.119 126.245Z" fill="#B2B6C4"/>
<path d="M316.756 68.8C317.389 67.4549 317.673 65.972 317.583 64.488C317.492 63.0041 317.029 61.5669 316.236 60.309C315.076 58.532 313.242 57.218 312.349 55.293C311.949 54.423 311.756 53.472 311.432 52.57C309.745 47.87 304.5 45.142 299.505 45.103C294.51 45.064 289.757 47.216 285.462 49.766C284.872 50.117 284.283 50.484 283.7 50.866C283.27 50.271 282.815 49.674 282.356 49.092C282.468 49.083 282.584 49.083 282.696 49.073C284.476 43.2104 286.256 37.3477 288.035 31.485C288.17 31.1307 288.227 30.7514 288.202 30.373C288.082 29.538 287.226 29.044 286.462 28.685C275.95 23.745 264.678 20.669 253.471 17.618L197.1 2.27105C195.985 1.83822 194.761 1.77581 193.608 2.09305C191.433 2.96605 191.275 5.95405 191.601 8.27505C192.956 17.7313 196.226 26.8116 201.212 34.96C197.658 36.5283 194.212 38.3324 190.898 40.36L181.639 46.384C181.364 46.5288 181.135 46.7473 180.977 47.015C180.527 48.003 182.147 48.601 183.277 48.575L193.301 48.338C193.39 51.038 194.257 53.831 197.02 55.55C197.095 55.826 197.17 56.102 197.258 56.388C197.73 57.933 199.347 59.081 199.246 60.694C199.047 61.856 198.54 62.9433 197.778 63.843C196.027 66.3944 194.561 69.1297 193.405 72C193.074 72.701 192.891 73.4624 192.867 74.237C192.934 74.9245 193.178 75.5828 193.575 76.1476C193.973 76.7124 194.51 77.1643 195.135 77.459C196.391 78.0325 197.754 78.3331 199.135 78.341C197.884 84.9211 199.141 91.608 200.753 94.889C202.093 97.8942 204.4 100.364 207.307 101.905C210.062 103.261 211.267 104.166 214.288 104.714C214.561 104.728 214.817 104.847 215.004 105.046C215.105 105.227 215.148 105.433 215.128 105.639C214.824 111.395 214.122 117.123 213.028 122.782L211.349 123.844L211.359 123.826C208.878 125.004 207.924 126.367 207.436 127.844L204.412 132.757C203.796 133.757 203.388 134.87 203.212 136.031C196.617 137.805 189.199 140.419 184.975 148.642C183.879 150.965 183.067 153.411 182.555 155.927C181.19 160.927 180.694 166.368 180.127 171.455C179.702 175.27 179.401 179.587 179.197 184.193C178.549 183.993 177.912 183.793 177.261 183.593C165.283 180.054 153.248 176.525 141.334 172.704L141.356 172.559L133.022 170C131.336 169.433 129.604 168.8 127.849 168.173L127.86 168.098L121.811 165.745L119.73 165.54C117.824 165.008 115.879 164.622 113.914 164.387C113.772 164.937 113.66 165.493 113.578 166.055L107.555 165.097L107.4 166.675C98.093 167.444 88.795 163.685 79.372 163.147C78.2258 162.972 77.0539 163.186 76.044 163.756C74.96 164.524 74.591 165.93 74.144 167.18C72.124 172.803 67.075 177.38 66.776 183.345C66.7474 185.465 67.322 187.55 68.4328 189.355C69.5436 191.161 71.1449 192.614 73.05 193.545C73.2891 194.853 73.8434 196.083 74.6647 197.128C75.4861 198.174 76.5499 199.003 77.764 199.545C79.1918 199.989 80.6867 200.177 82.18 200.101L88.458 200.15L91 204.124C85.6884 208.405 82.1595 214.508 81.1 221.247L103.813 225.284C104.128 226.217 104.688 227.049 105.435 227.691C106.182 228.334 107.087 228.764 108.057 228.936C109.027 229.108 110.025 229.017 110.948 228.671C111.87 228.326 112.682 227.738 113.3 226.971L135.246 230.871C136.253 225.783 135.802 220.514 133.946 215.671C149.395 221.328 164.746 227.617 179.546 234.558C180.018 246.376 180.546 254.63 180.525 254.427L181.264 262.838C181.728 269.661 182.145 272.428 182.364 273.712L182.371 273.512L182.428 274.159C184.579 273.233 186.675 272.185 188.706 271.02L192.125 269.311L192.135 269.088C194.091 267.96 196.36 266.612 199.016 264.972C210.338 257.861 222.338 251.889 234.839 247.146C241.219 244.882 247.754 243.077 254.392 241.746C270.33 238.559 283.898 238.746 297.992 233.884C300.224 225.27 299.052 219.155 299.053 210.256C299.053 193.142 299.053 176.027 299.053 158.911C299.127 157.45 298.978 155.986 298.611 154.569C297.998 152.945 297.069 151.46 295.878 150.197C295.011 149.379 294.053 148.662 293.024 148.06L270.299 120.543C270.885 120.42 271.41 120.094 271.78 119.623C272.007 119.137 272.077 118.593 271.98 118.065C271.454 111.556 270.573 105.076 267.824 98.365L265.324 98.721C265.241 98.2286 265.268 97.7239 265.403 97.243C265.403 97.243 275.837 92.765 281.859 86.263C282.238 86.7317 282.645 87.1778 283.076 87.599C286.428 90.847 291.183 92.334 295.846 92.566C298.699 92.7927 301.564 92.3261 304.198 91.206C306.543 89.964 308.681 88.3645 310.535 86.465C313.069 84.123 315.661 81.704 317.168 78.6C318.675 75.496 318.888 71.5161 316.756 68.8ZM79.025 192.032C78.915 191.855 78.838 191.661 78.741 191.476C79.0285 191.812 79.3432 192.123 79.682 192.407C79.508 192.355 79.333 192.301 79.159 192.246C79.115 192.174 79.069 192.1 79.025 192.032ZM98.525 197.799C99.12 197.368 99.6486 196.852 100.094 196.267C100.4 195.766 100.78 195.314 101.221 194.926C102.198 194.22 103.395 194.54 104.621 194.902L104.286 198.309C102.683 198.541 101.103 198.915 99.566 199.426L98.525 197.799Z" fill="#E3DEE6" stroke="#E3DEE6" stroke-width="3.745" stroke-linejoin="round"/>
<path d="M135.771 225.521C135.778 218.594 133.17 211.92 128.469 206.832C123.768 201.744 117.32 198.618 110.414 198.078C103.508 197.538 96.6531 199.624 91.2187 203.92C85.7842 208.215 82.1709 214.403 81.101 221.247L135.247 230.872C135.595 229.11 135.771 227.317 135.771 225.521Z" fill="#6D758F"/>
<path d="M113.725 221.523L87.6993 180.891L79.4892 186.15L105.515 226.782L113.725 221.523Z" fill="#19254F"/>
<path d="M109.02 229.021C112.058 229.021 114.52 226.559 114.52 223.521C114.52 220.483 112.058 218.021 109.02 218.021C105.982 218.021 103.52 220.483 103.52 223.521C103.52 226.559 105.982 229.021 109.02 229.021Z" fill="#414B6E"/>
<path d="M103.719 238.081L104.416 233.889L93.226 232.028L91.573 236.062L103.719 238.081Z" fill="#AFB3C2"/>
<path d="M106.925 238.615L119.318 240.676L119.059 236.324L107.622 234.422L106.925 238.615Z" fill="#AFB3C2"/>
<path d="M103.268 240.794L90.504 238.672L88.267 244.129L102.325 246.467L103.268 240.794Z" fill="#AFB3C2"/>
<path d="M106.474 241.328L105.531 247L119.835 249.379L119.485 243.491L106.474 241.328Z" fill="#AFB3C2"/>
<path d="M89.923 253.056L99.848 263.685L84.319 269.476C88.4722 272.524 93.3719 274.393 98.5 274.885C109.436 276.205 118.907 272.261 119.653 266.075C120.399 259.889 112.139 253.805 101.203 252.486C97.4393 251.997 93.6182 252.19 89.923 253.056Z" fill="#AFB3C2"/>
<path d="M89.923 253.056C84.399 254.431 80.514 257.424 80.046 261.296C79.695 264.207 81.34 267.096 84.319 269.476L99.848 263.685L89.923 253.056Z" fill="#DDDEE5"/>
<path d="M101.147 263.843C101.101 264.225 100.612 264.508 99.971 264.497L86.542 264.281C85.826 264.27 85.19 263.897 85.122 263.449C85.054 263.001 85.58 262.649 86.295 262.658L99.724 262.874C100.441 262.885 101.077 263.258 101.145 263.706C101.152 263.752 101.152 263.798 101.147 263.843Z" fill="#3A4468"/>
<path d="M103.473 264.121C103.621 262.893 102.118 261.701 100.116 261.46C98.1132 261.218 96.3698 262.018 96.2216 263.246C96.0733 264.474 97.5765 265.666 99.5789 265.908C101.581 266.149 103.325 265.349 103.473 264.121Z" fill="#545D7C"/>
<path d="M34.892 164.269L55.893 204.77L46.518 251.647L14.266 197.27L34.892 164.269Z" fill="#C8CBD5"/>
<path d="M38.267 159.393L52.518 136.892L67.143 169.519L58.143 197.645L38.267 159.393Z" fill="#C8CBD5"/>
<path d="M109.655 166.406C99.594 168.085 89.555 163.73 79.372 163.148C78.2258 162.973 77.054 163.187 76.044 163.757C74.96 164.525 74.591 165.931 74.144 167.181C72.123 172.804 67.075 177.381 66.776 183.346C66.7396 186.161 67.7706 188.885 69.6616 190.97C71.5525 193.056 74.1631 194.348 76.968 194.586C78.096 194.639 79.594 194.106 79.462 192.986C79.388 192.641 79.2395 192.316 79.027 192.034C78.0186 190.41 77.5486 188.509 77.6842 186.603C77.8198 184.696 78.554 182.881 79.782 181.416C82.354 178.606 87.208 178.116 90.069 180.629C92.93 183.142 92.879 188.362 89.769 190.563C88.421 191.517 86.653 191.931 85.643 193.237C84.054 195.294 85.409 198.575 87.743 199.717C90.077 200.859 92.886 200.379 95.32 199.466C97.1828 198.873 98.839 197.763 100.096 196.266C100.402 195.765 100.782 195.313 101.222 194.925C103.131 193.546 105.878 196.083 108.06 195.195C108.686 194.892 109.224 194.433 109.621 193.862C112.849 189.769 113.596 184.308 114.228 179.134C114.54 176.578 114.846 173.934 114.122 171.466C113.398 168.998 111.364 166.719 109.655 166.406Z" fill="#E1C4A1"/>
<path d="M96.094 199.216C94.149 200.174 91.894 200.177 89.721 200.161L82.178 200.102C80.6848 200.178 79.19 199.99 77.762 199.547C74.452 198.299 72.762 194.469 72.723 190.932C76.46 190.681 79.942 193.161 83.687 193.082C86.179 193.03 88.496 191.849 90.654 190.602C91.5127 189.99 92.5231 189.625 93.575 189.547C95.457 189.6 96.775 191.559 97.005 193.428C97.235 195.297 96.705 197.169 96.605 199.05C96.564 198.715 96.523 198.381 96.094 199.216Z" fill="#E1C4A1"/>
<path d="M115.828 166.414L107.555 165.098L103.74 203.913L114.317 206.208L115.828 166.414Z" fill="#E1F2F5"/>
<path d="M214.422 194.266C207.886 191.678 200.58 191.046 193.922 188.86C188.387 187.043 182.894 185.26 177.27 183.6C162.498 179.236 147.629 174.912 133.024 170C126.937 167.953 120.277 165.077 113.916 164.387C112.968 167.501 109.777 199.038 109.501 202.904C109.201 207.076 109.574 207.252 113.278 208.473C136.355 215.997 158.951 224.923 180.94 235.2C190.362 239.652 200.627 247.424 210.713 249.637C216.821 234.737 221.97 215.298 216.439 199.769C215.783 197.608 214.72 195.593 213.307 193.832C213.684 194.21 214.03 194.614 214.422 194.266Z" fill="#533367"/>
<path d="M180.532 254.432C180.592 254.954 176.995 199.622 180.132 171.458C180.772 165.716 181.316 159.518 183.132 154.018C184.474 149.945 189.091 144.218 190.57 142.768C197.603 135.853 211.21 135.989 218.244 129.074L268.544 118.409L298.625 154.833L249.545 244.66C249.545 244.66 229.399 248.104 199.017 266.86C186.937 274.318 182.43 276.047 182.43 276.047L180.532 254.432Z" fill="#664A78"/>
<path d="M118.825 165.452L114.048 208.945L121.353 211.296L127.86 168.099L121.811 165.746L118.825 165.452Z" fill="#F6AD54"/>
<path d="M133.022 170.001L141.363 172.566L134.72 215.876L126.829 213.09L133.022 170.001Z" fill="#F6AD54"/>
<path d="M84.769 194.241C89.1718 194.241 92.741 190.672 92.741 186.269C92.741 181.866 89.1718 178.297 84.769 178.297C80.3662 178.297 76.797 181.866 76.797 186.269C76.797 190.672 80.3662 194.241 84.769 194.241Z" fill="#19254F"/>
<path d="M176.816 213.017L139.303 200.002" stroke="#34104D" stroke-width="1.727" stroke-miterlimit="10" stroke-linecap="round"/>
<path d="M194.424 221.055L192.127 271.2L182.43 276.049L179.495 208.423L183.131 154.018L194.041 141.819L206.382 135.205L215.477 142.967L201.505 155.982L194.424 221.055Z" fill="#533367"/>
<path d="M213.5 122.488L209.162 125.231C209.162 125.231 205.781 135.439 205.781 136.46L213.437 135.184L214.266 127.656L213.5 122.488Z" fill="#9CD3DD"/>
<path d="M267.835 98.376L263.836 98.947L265.048 102.583L267.6 100.35L267.835 98.376Z" fill="#9CD3DD"/>
<path d="M316.756 68.8001C318.888 71.5131 318.691 75.5001 317.184 78.6081C315.677 81.7161 313.084 84.1311 310.551 86.4731C308.697 88.3726 306.559 89.9721 304.214 91.2141C301.58 92.3342 298.715 92.8008 295.862 92.5741C291.199 92.3421 286.444 90.8551 283.091 87.6071C278.978 83.6231 277.554 77.6931 276.313 72.1071C275.413 68.0411 274.513 63.7341 275.837 59.7851C277.337 55.2961 281.393 52.1851 285.462 49.7711C289.762 47.2211 294.51 45.0711 299.505 45.1081C304.5 45.1451 309.745 47.8731 311.432 52.5751C311.756 53.4751 311.945 54.4281 312.349 55.2981C313.242 57.2231 315.076 58.5371 316.236 60.3141C317.028 61.5714 317.49 63.0077 317.581 64.4906C317.672 65.9736 317.388 67.4556 316.756 68.8001Z" fill="#593520"/>
<path d="M193.381 46.1392C193.006 49.8892 193.631 54.5142 198.757 56.3892L200.507 47.1392L193.381 46.1392Z" fill="#71472A"/>
<path d="M210.947 139.679C187.347 150.623 189.31 214.456 189.377 227.122C189.424 235.999 188.702 262.86 191.744 271.2C197.044 242.007 206.633 196.018 217.776 168.888C212.808 165.587 208.472 161.421 204.976 156.588C215.285 155.404 216.624 155.212 221.215 154.588C222.95 154.353 224.3 152.946 225.715 151.916L261.571 125.852C261.571 125.852 267.132 121.135 266.195 120.947C265.258 120.759 210.945 139.672 210.945 139.672" fill="#7C658C"/>
<path d="M196.381 44.6391C196.522 46.5141 195.381 50.2641 197.257 56.3891C197.729 57.9341 199.346 59.0821 199.245 60.6951C199.046 61.857 198.539 62.9444 197.777 63.8441C196.027 66.3952 194.561 69.1301 193.405 72.0001C193.074 72.701 192.891 73.4624 192.867 74.2371C192.934 74.9245 193.178 75.5829 193.575 76.1477C193.973 76.7124 194.51 77.1643 195.135 77.4591C196.391 78.0324 197.754 78.3334 199.135 78.3421C197.884 84.9211 199.141 91.6081 200.753 94.8891C202.093 97.8942 204.4 100.364 207.307 101.905C210.062 103.261 211.267 104.166 214.288 104.714C214.561 104.728 214.817 104.847 215.004 105.046C215.105 105.227 215.148 105.433 215.128 105.639C215.135 111.179 212.616 127.007 210.863 132.395C211.518 137.032 215.415 132.003 217.244 136.314C217.834 137.707 217.044 134.896 218.244 135.822C220.792 137.797 223.251 132.428 226.259 131.265C238.536 126.52 251.433 124.626 262.167 117.009C263.793 116.044 265.133 114.663 266.049 113.009C266.849 111.209 266.625 109.131 266.382 107.172L265.373 99.0131C265.183 98.3321 265.242 97.6057 265.539 96.9643C265.837 96.3229 266.353 95.8084 266.995 95.5131L272.235 91.6511C274.853 89.8891 277.232 87.7946 279.311 85.4201C280.741 83.5843 281.884 81.542 282.7 79.3631C285.427 72.186 285.552 64.28 283.054 57.0201C280.515 49.7848 275.724 43.5535 269.384 39.2401C263.141 34.9721 255.766 32.7021 248.427 30.8781C241.294 29.1051 233.994 27.6881 226.648 27.9221C219.302 28.1561 211.848 30.1501 206.016 34.6221C200.184 39.0941 195.888 37.4141 196.381 44.6391Z" fill="#E1C4A1"/>
<path d="M206.257 61.6401H217.382" stroke="#B48F6C" stroke-width="1.727" stroke-miterlimit="10" stroke-linecap="round"/>
<path d="M208.132 64.3901C209.72 64.3901 211.007 63.103 211.007 61.5151C211.007 59.9273 209.72 58.6401 208.132 58.6401C206.544 58.6401 205.257 59.9273 205.257 61.5151C205.257 63.103 206.544 64.3901 208.132 64.3901Z" fill="#B48F6C"/>
<path d="M204.132 89.3911C207.788 89.4693 211.403 88.6086 214.632 86.8911L204.132 89.3911Z" fill="#EED2AA"/>
<path d="M204.132 89.3911C207.788 89.4693 211.403 88.6086 214.632 86.8911" stroke="#D1AD83" stroke-width="2.19" stroke-miterlimit="10" stroke-linecap="round"/>
<path d="M194.506 46.0141C195.131 49.7641 199.257 54.6391 233.506 61.6401L234.631 78.8901C239.256 92.2661 258.201 97.8661 265.417 97.2541C265.417 97.2541 277.633 92.0161 283.258 84.6401C288.883 77.2641 287.383 56.7641 285.133 53.0141C283.041 49.873 280.7 46.9051 278.133 44.1391L235.963 38.1001L199.632 40.1401L194.506 46.0141Z" fill="#6C4327"/>
<path d="M247.019 47.0731L183.276 48.5731C182.146 48.5991 180.526 48.0011 180.976 47.0131C181.134 46.7453 181.363 46.5268 181.638 46.3821L190.897 40.3581C193.697 38.5371 201.13 34.6711 204.382 33.7581C207.358 32.9251 205.943 34.9381 209.041 35.0881C217.792 35.5131 226.428 37.1151 235.028 38.7131L243.448 40.2771C244.911 40.4536 246.328 40.9077 247.621 41.6151C248.248 41.9602 248.757 42.4849 249.084 43.1218C249.41 43.7586 249.539 44.4786 249.453 45.1891C249.29 45.7149 248.968 46.1778 248.533 46.5148C248.098 46.8519 247.569 47.0468 247.019 47.0731Z" fill="#270041"/>
<path d="M282.7 49.076L288.039 31.488C288.174 31.1337 288.231 30.7544 288.206 30.376C288.086 29.541 287.23 29.047 286.467 28.688C275.954 23.748 264.682 20.672 253.475 17.621L197.1 2.27105C195.985 1.83822 194.761 1.77581 193.608 2.09305C191.433 2.96605 191.275 5.95405 191.601 8.27505C192.959 17.7623 196.246 26.871 201.258 35.04C212.804 40.14 225.435 42.14 237.903 44.09L255.703 46.88C264.982 48.333 274.345 49.792 282.7 49.076Z" fill="#E1F2F5"/>
<path d="M232.812 62.483C234.279 61.253 236.512 61.564 238.235 62.408C240.561 63.5214 242.355 65.5069 243.227 67.934C244.041 70.348 243.983 73.488 242.463 75.534C241.358 77.1691 239.739 78.3886 237.863 78.999C236.52 79.337 233.746 79.399 232.588 78.638" fill="#E1C4A1"/>
<path d="M232.812 62.483C234.279 61.253 236.512 61.564 238.235 62.408C240.561 63.5214 242.355 65.5069 243.227 67.934C244.041 70.348 243.983 73.488 242.463 75.534C241.358 77.1691 239.739 78.3886 237.863 78.999C236.52 79.337 233.746 79.399 232.588 78.638" stroke="#D1AD83" stroke-width="2.19" stroke-miterlimit="10" stroke-linecap="round"/>
<path d="M231.705 72.4771C232.081 72.3661 232.426 72.1662 232.709 71.8944C232.992 71.6226 233.206 71.2867 233.332 70.9151C233.454 70.5361 233.487 70.1339 233.428 69.7401C233.369 69.3462 233.219 68.9714 232.991 68.6451C233.469 67.9785 234.146 67.4806 234.925 67.2231C235.314 67.0993 235.725 67.0569 236.132 67.0985C236.538 67.1401 236.932 67.2649 237.288 67.4651C237.869 67.8351 238.298 68.4015 238.496 69.0612C238.695 69.7209 238.65 70.43 238.369 71.0591" stroke="#D1AD83" stroke-width="1.095" stroke-miterlimit="10" stroke-linecap="round"/>
<path d="M284.385 51.3892C280.822 53.2642 283.635 61.3272 287.385 64.3272C291.135 67.3272 295.073 58.8892 295.073 58.8892L284.385 51.3892Z" fill="#593520"/>
<path d="M196.721 75.916C198.844 75.24 198.443 76.682 200.931 77.001" stroke="#D1AD83" stroke-width="1.151" stroke-miterlimit="10" stroke-linecap="round"/>
<path d="M216.306 104.944C216.306 104.944 218.476 105.263 231.49 100.861C231.49 100.861 216.625 114.194 215.29 115.598L216.306 104.944Z" fill="#D2B494"/>
<path d="M299.062 158.919C299.137 157.458 298.988 155.993 298.62 154.577C298.007 152.953 297.078 151.468 295.887 150.205C292.918 147.375 289.387 146.305 286.723 145.473C273.095 142.525 258.863 144.542 246.591 151.159C244.293 152.327 242.188 153.841 240.349 155.647C235.149 161.063 234.392 169.226 233.915 176.718C233.355 185.499 232.796 194.28 232.237 203.06C231.32 217.46 229.797 236.123 230.661 250.53C238.369 247.584 246.306 245.279 254.393 243.639C270.332 240.452 283.9 240.639 297.993 235.778C300.225 227.164 299.053 219.163 299.054 210.264C299.058 193.149 299.061 176.034 299.062 158.919Z" fill="#7C658C"/>
<path d="M232.7 193.5C233.873 155.22 239.208 150.436 270.022 144.312" stroke="#45245C" stroke-width="2.302" stroke-miterlimit="10" stroke-linecap="round"/>
<path d="M206.382 135.205C199.145 137.098 189.899 139.074 184.982 148.645C174.482 169.083 181.241 268.852 182.366 275.602C182.366 275.602 186.194 163.063 192.319 149.857C194.631 144.872 202.648 141.335 205.525 138.948C208.551 136.437 206.382 135.205 206.382 135.205Z" fill="#7C658C"/>
<path d="M204.281 141.675L208.651 135.822L209.161 125.231L207.439 127.847L204.415 132.76C203.593 134.096 203.146 135.63 203.122 137.199C203.099 138.768 203.499 140.314 204.281 141.675Z" fill="#9CD3DD"/>
<path d="M267.835 98.376C253.16 110.053 236.295 118.671 218.235 123.724C215.235 124.561 211.982 125.439 210.052 127.884C208.655 129.737 207.672 131.869 207.168 134.134C206.664 136.4 206.652 138.747 207.132 141.018C227.407 134.395 249.997 127.186 270.271 120.564C270.871 120.441 271.409 120.111 271.789 119.631C272.016 119.145 272.086 118.6 271.989 118.073C271.465 111.564 270.584 105.084 267.835 98.376Z" fill="#E1F2F5"/>
<path d="M241.46 81.7641C248.348 86.3481 271.538 86.8751 283.442 74.7441" stroke="#593520" stroke-width="1.727" stroke-miterlimit="10" stroke-linecap="round"/>
<path d="M225.852 52.865C232.314 54.679 264.283 48.897 276.64 55.699" stroke="#593520" stroke-width="1.727" stroke-miterlimit="10" stroke-linecap="round"/>
<path d="M257.141 91.6361C262.923 93.4501 273.806 90.1621 279.701 84.2671" stroke="#593520" stroke-width="1.727" stroke-miterlimit="10" stroke-linecap="round"/>
<path d="M288.317 84.7211C294.325 87.6681 299.767 89.8211 308.723 83.1331" stroke="#43281A" stroke-width="1.727" stroke-miterlimit="10" stroke-linecap="round"/>
<path d="M313.371 73.0439C310.092 76.626 305.957 79.3173 301.354 80.8659" stroke="#43281A" stroke-width="1.727" stroke-miterlimit="10" stroke-linecap="round"/>
<path d="M275.319 134.476C279.798 140.321 283.517 146.711 286.387 153.493C279.194 154.501 268.155 155.616 260.345 156.556C257.891 148.936 255.565 140.837 253.395 133.132L269.01 131.68C270.323 131.444 271.675 131.553 272.934 131.996C274.142 132.547 274.2 133.184 275.319 134.476Z" fill="#A291AD"/>
<path d="M256.498 143.98L280.1 141.477L282.063 144.67L257.706 147.777L256.498 143.98Z" fill="#F6AB50"/>
<path d="M284.954 150.344L283.271 146.849L258.548 150.409L259.519 153.709L284.954 150.344Z" fill="#F6AB50"/>
<path d="M206.482 132.106C207.439 128.995 206.625 126.077 211.362 123.828L209.927 126.364L206.338 134.307L206.482 132.106Z" fill="#9CD3DD"/>
</g>
<defs>
<clipPath id="clip0">
<rect width="340.235" height="297.171" fill="white"/>
</clipPath>
</defs>
</svg>
