<svg width="341" height="301" viewBox="0 0 341 301" fill="none" xmlns="http://www.w3.org/2000/svg">
<g clip-path="url(#clip0)">
<path d="M115.543 138.184C95.969 128.861 74.032 120.419 53.077 125.984C32.304 131.503 18.14 150.549 9.81799 170.367C-17.54 235.509 20.092 279.38 42.718 290.256C65.344 301.132 91.609 302.072 116.484 298.664C133.344 296.346 149.89 292.146 165.815 286.144L145.677 151.6C135.4 147.893 125.387 142.873 115.543 138.184Z" fill="#E4E5EA"/>
<path d="M263.354 129.493C241.283 134.124 221.333 145.893 199.803 152.601C192.388 154.912 184.774 156.78 177.016 157.139C166.25 157.639 155.835 155.26 145.677 151.598L165.819 286.146C177.873 281.611 189.52 276.06 200.635 269.553C209.526 264.343 218.11 258.506 227.598 254.488C238.786 249.75 250.174 247.152 262.152 245.122C273.657 243.173 286.369 243.088 297.419 239.339C300.17 238.475 302.871 237.46 305.51 236.299C324.688 228.699 343.01 206.671 340.179 174.588C338.224 152.435 317.048 118.226 263.354 129.493Z" fill="#B2B6C4"/>
<path d="M100.235 264.209C98.211 263.965 96.449 264.773 96.299 266.015C96.149 267.257 97.669 268.46 99.693 268.705C101.717 268.95 103.479 268.14 103.629 266.899C103.779 265.658 102.254 264.453 100.235 264.209Z" fill="#E3DEE6" stroke="#E3DEE6" stroke-width="3.745" stroke-linejoin="round"/>
<path d="M301.277 212.47C301.277 195.174 301.279 177.878 301.282 160.582C301.358 159.105 301.207 157.625 300.835 156.194C300.216 154.553 299.277 153.051 298.073 151.776C297.197 150.949 296.229 150.224 295.189 149.616L272.224 121.807C272.818 121.684 273.349 121.355 273.724 120.878C273.953 120.386 274.023 119.835 273.924 119.302C273.392 112.725 272.501 106.177 269.724 99.402L267.203 99.762C267.12 99.2642 267.147 98.7542 267.283 98.268C270.077 96.5191 272.749 94.584 275.283 92.476C275.328 93.0664 275.506 93.639 275.804 94.1512C276.101 94.6633 276.51 95.1018 277 95.434C277.6 92.634 279.355 89.625 281.127 86.9C281.627 86.337 282.12 85.767 282.582 85.181C291.737 73.576 287.941 58.413 285.667 54.623C284.797 53.172 283.782 51.363 282.861 49.682C283.489 49.652 284.123 49.634 284.741 49.582C286.541 43.6574 288.341 37.7324 290.141 31.807C290.278 31.4494 290.336 31.0662 290.31 30.684C290.189 29.84 289.324 29.341 288.552 28.978C277.929 23.985 266.537 20.878 255.211 17.793L198.24 2.27502C197.113 1.8379 195.875 1.77513 194.71 2.09602C192.51 2.97802 192.353 5.99602 192.683 8.34302C194.052 17.8994 197.357 27.0757 202.396 35.31C198.803 36.8952 195.321 38.7189 191.972 40.769L182.615 46.856C182.337 47.0028 182.106 47.2236 181.946 47.494C181.491 48.494 183.128 49.094 184.271 49.07L195.371 48.808C195.861 49.5168 196.529 50.0843 197.308 50.454C197.371 52.6646 197.738 54.8559 198.4 56.966C198.878 58.528 200.512 59.688 200.409 61.318C200.208 62.4924 199.696 63.5914 198.925 64.5C197.156 67.0788 195.675 69.8432 194.507 72.744C194.173 73.4524 193.988 74.222 193.964 75.005C194.031 75.6998 194.278 76.3652 194.68 76.936C195.081 77.5068 195.625 77.9634 196.256 78.261C197.526 78.8414 198.905 79.1454 200.302 79.153C199.038 85.802 200.308 92.56 201.937 95.875C203.291 98.9124 205.623 101.409 208.561 102.966C211.345 104.336 212.561 105.251 215.616 105.805C215.891 105.819 216.151 105.939 216.339 106.14C216.44 106.323 216.484 106.532 216.465 106.74C216.157 112.557 215.447 118.345 214.341 124.064L212.641 125.137L212.652 125.119C210.144 126.309 209.18 127.687 208.687 129.179L205.631 134.143C205.01 135.153 204.599 136.279 204.423 137.452C197.757 139.245 190.261 141.887 185.992 150.197C184.885 152.544 184.064 155.015 183.547 157.558C182.167 162.611 181.666 168.11 181.093 173.251C180.664 177.107 180.359 181.469 180.153 186.123C179.499 185.923 178.853 185.716 178.197 185.523C166.097 181.947 153.929 178.381 141.889 174.523L141.912 174.377L133.482 171.784C131.782 171.212 130.028 170.575 128.254 169.938L128.266 169.862L122.153 167.484L120.053 167.278C118.126 166.74 116.161 166.35 114.175 166.112C114.032 166.667 113.918 167.23 113.836 167.798L107.749 166.83L107.592 168.424C98.187 169.202 88.792 165.403 79.268 164.859C78.1094 164.682 76.9251 164.899 75.904 165.474C74.804 166.251 74.436 167.674 73.982 168.935C71.935 174.613 66.835 179.237 66.535 185.267C66.5069 187.409 67.0879 189.515 68.2104 191.339C69.3328 193.163 70.9505 194.631 72.875 195.572C73.1165 196.894 73.6765 198.138 74.5066 199.195C75.3367 200.252 76.4118 201.091 77.639 201.639C79.0821 202.087 80.5929 202.277 82.102 202.201L88.446 202.25L91.018 206.265C85.6532 210.591 82.0889 216.757 81.018 223.565L103.971 227.645C104.289 228.588 104.856 229.428 105.61 230.077C106.365 230.727 107.28 231.161 108.26 231.336C109.24 231.51 110.249 231.417 111.181 231.068C112.113 230.719 112.934 230.125 113.558 229.35L135.735 233.3C136.753 228.16 136.298 222.836 134.424 217.943C150.036 223.66 165.547 230.016 180.511 237.03C180.988 248.973 181.524 257.315 181.501 257.109L182.247 265.609C182.716 272.504 183 275.609 183.216 276.909L183.223 276.709L183.281 277.364C185.454 276.428 187.572 275.368 189.625 274.191L193.081 272.463L193.091 272.239C195.067 271.098 197.36 269.739 200.043 268.079C211.485 260.893 223.611 254.859 236.243 250.064C242.692 247.778 249.295 245.955 256.004 244.611C272.111 241.39 285.822 241.579 300.069 236.666C302.323 227.954 301.277 221.463 301.277 212.47ZM78.916 194.044C78.805 193.866 78.727 193.67 78.629 193.484C78.9199 193.823 79.2379 194.137 79.58 194.424C79.404 194.371 79.227 194.317 79.051 194.261C79.006 194.188 78.96 194.116 78.916 194.044ZM98.626 199.873C99.2268 199.437 99.7604 198.916 100.21 198.325C100.52 197.819 100.904 197.362 101.349 196.97C102.337 196.256 103.549 196.58 104.788 196.946L104.449 200.389C102.829 200.623 101.232 201 99.679 201.518L98.626 199.873Z" fill="#E3DEE6" stroke="#E3DEE6" stroke-width="3.745" stroke-linejoin="round"/>
<path d="M103.871 240.582L104.576 236.345L93.267 234.464L91.597 238.54L103.871 240.582Z" fill="#AFB3C2"/>
<path d="M107.111 241.121L119.635 243.203L119.374 238.806L107.816 236.884L107.111 241.121Z" fill="#AFB3C2"/>
<path d="M103.415 243.323L90.516 241.178L88.256 246.693L102.462 249.056L103.415 243.323Z" fill="#AFB3C2"/>
<path d="M106.655 243.862L105.702 249.595L120.157 251.999L119.804 246.049L106.655 243.862Z" fill="#AFB3C2"/>
<path d="M89.929 255.715L99.959 266.457L84.266 272.309C88.4621 275.388 93.4122 277.277 98.593 277.775C109.645 279.109 119.215 275.123 119.97 268.875C120.725 262.627 112.376 256.475 101.325 255.141C97.5227 254.647 93.6624 254.841 89.929 255.715Z" fill="#AFB3C2"/>
<path d="M89.929 255.715C84.347 257.104 80.42 260.129 79.948 264.042C79.593 266.984 81.255 269.903 84.266 272.309L99.959 266.457L89.929 255.715Z" fill="#DDDEE5"/>
<path d="M101.272 266.616C101.225 267.002 100.732 267.288 100.084 267.277L86.513 267.059C85.789 267.047 85.146 266.671 85.077 266.218C85.008 265.765 85.54 265.406 86.263 265.418L99.834 265.637C100.558 265.648 101.201 266.025 101.27 266.478C101.277 266.524 101.277 266.57 101.272 266.616Z" fill="#3A4468"/>
<path d="M103.623 266.898C103.773 265.657 102.253 264.453 100.23 264.208C98.2059 263.964 96.4438 264.772 96.294 266.014C96.1442 267.255 97.6634 268.459 99.6872 268.704C101.711 268.948 103.473 268.14 103.623 266.898Z" fill="#545D7C"/>
<path d="M34.316 165.988L55.539 206.918L46.064 254.291L13.472 199.338L34.316 165.988Z" fill="#C8CBD5"/>
<path d="M37.727 161.061L52.128 138.322L66.908 171.293L57.813 199.717L37.727 161.061Z" fill="#C8CBD5"/>
<path d="M136.262 227.888C136.261 220.892 133.623 214.154 128.872 209.018C124.122 203.882 117.61 200.727 110.635 200.182C103.661 199.637 96.737 201.742 91.2463 206.077C85.7556 210.412 82.1017 216.658 81.014 223.569L135.735 233.3C136.086 231.517 136.263 229.705 136.262 227.888Z" fill="#6D758F"/>
<path d="M113.983 223.848L87.6815 182.786L79.3838 188.101L105.685 229.163L113.983 223.848Z" fill="#19254F"/>
<path d="M109.228 231.425C112.298 231.425 114.786 228.937 114.786 225.867C114.786 222.797 112.298 220.309 109.228 220.309C106.158 220.309 103.67 222.797 103.67 225.867C103.67 228.937 106.158 231.425 109.228 231.425Z" fill="#414B6E"/>
<path d="M109.87 168.148C99.703 169.848 89.558 165.448 79.27 164.855C78.1114 164.678 76.9271 164.895 75.906 165.47C74.806 166.247 74.438 167.67 73.984 168.931C71.935 174.613 66.835 179.237 66.535 185.267C66.498 188.112 67.5398 190.865 69.4509 192.972C71.3619 195.08 74.0002 196.385 76.835 196.626C77.975 196.68 79.489 196.141 79.355 195.007C79.2803 194.658 79.1305 194.329 78.916 194.044C77.8967 192.403 77.4217 190.483 77.5587 188.556C77.6958 186.629 78.4378 184.795 79.679 183.315C82.279 180.475 87.179 179.977 90.079 182.515C92.979 185.053 92.919 190.33 89.779 192.554C88.418 193.518 86.63 193.936 85.61 195.254C84.004 197.333 85.374 200.654 87.734 201.803C90.094 202.952 92.934 202.473 95.391 201.549C97.2735 200.952 98.9475 199.831 100.218 198.319C100.527 197.813 100.911 197.356 101.356 196.964C103.285 195.57 106.056 198.133 108.266 197.237C108.895 196.933 109.435 196.473 109.835 195.9C113.098 191.764 113.852 186.245 114.491 181.016C114.806 178.433 115.116 175.765 114.384 173.268C113.652 170.771 111.597 168.464 109.87 168.148Z" fill="#E1C4A1"/>
<path d="M96.165 201.305C94.2 202.273 91.916 202.276 89.725 202.26L82.102 202.201C80.5929 202.277 79.0821 202.087 77.639 201.639C74.294 200.378 72.581 196.508 72.547 192.933C76.324 192.679 79.847 195.186 83.627 195.106C86.145 195.053 88.487 193.86 90.668 192.6C91.5355 191.98 92.5568 191.612 93.62 191.534C95.52 191.587 96.857 193.567 97.086 195.456C97.315 197.345 96.786 199.237 96.686 201.137C96.641 200.8 96.598 200.461 96.165 201.305Z" fill="#E1C4A1"/>
<path d="M116.108 168.155L107.748 166.826L103.893 206.051L114.581 208.371L116.108 168.155Z" fill="#E1F2F5"/>
<path d="M215.746 196.3C209.146 193.684 201.758 193.046 195.027 190.836C189.434 189 183.882 187.199 178.199 185.52C163.271 181.11 148.244 176.741 133.484 171.778C127.333 169.709 120.602 166.802 114.174 166.105C113.216 169.252 109.991 201.123 109.712 205.03C109.412 209.246 109.786 209.424 113.53 210.658C136.851 218.262 159.687 227.283 181.909 237.669C191.431 242.169 201.809 250.023 211.998 252.259C218.171 237.197 223.374 217.559 217.784 201.859C217.122 199.675 216.048 197.639 214.62 195.859C215 196.246 215.35 196.654 215.746 196.3Z" fill="#533367"/>
<path d="M181.498 257.106C181.558 257.633 177.923 201.715 181.098 173.253C181.745 167.453 182.298 161.187 184.127 155.629C185.483 151.512 190.148 145.729 191.643 144.259C198.751 137.271 212.502 137.409 219.61 130.421L270.435 119.642L300.835 156.452L251.241 247.23C251.241 247.23 230.881 250.71 200.178 269.667C187.97 277.204 183.415 278.951 183.415 278.951L181.498 257.106Z" fill="#664A78"/>
<path d="M119.137 167.184L114.31 211.137L121.692 213.513L128.268 169.858L122.155 167.48L119.137 167.184Z" fill="#F6AD54"/>
<path d="M133.484 171.781L141.914 174.373L135.2 218.141L127.226 215.326L133.484 171.781Z" fill="#F6AD54"/>
<path d="M84.721 196.277C89.1702 196.277 92.777 192.67 92.777 188.221C92.777 183.772 89.1702 180.165 84.721 180.165C80.2718 180.165 76.665 183.772 76.665 188.221C76.665 192.67 80.2718 196.277 84.721 196.277Z" fill="#19254F"/>
<path d="M177.742 215.252L139.832 202.099" stroke="#34104D" stroke-width="1.745" stroke-miterlimit="10" stroke-linecap="round"/>
<path d="M195.536 223.375L193.215 274.051L183.415 278.951L180.45 210.61L184.124 155.629L195.149 143.3L207.621 136.616L216.812 144.461L202.693 157.613L195.536 223.375Z" fill="#533367"/>
<path d="M214.814 123.765L210.429 126.537C210.429 126.537 207.012 136.853 207.012 137.884L214.749 136.595L215.587 128.987L214.814 123.765Z" fill="#9CD3DD"/>
<path d="M269.724 99.397L265.683 99.974L266.908 103.649L269.487 101.393L269.724 99.397Z" fill="#9CD3DD"/>
<path d="M212.235 141.138C188.38 152.197 190.368 216.706 190.435 229.506C190.483 238.478 189.753 265.623 192.827 274.051C198.186 244.551 207.873 198.073 219.135 170.656C214.114 167.322 209.733 163.112 206.2 158.229C216.618 157.029 217.972 156.839 222.611 156.212C224.364 155.974 225.729 154.552 227.16 153.512L263.395 127.171C263.395 127.171 269.015 122.404 268.068 122.215C267.121 122.026 212.235 141.138 212.235 141.138Z" fill="#7C658C"/>
<path d="M197.514 45.0909C197.657 46.9859 196.504 50.7759 198.399 56.9659C198.877 58.5279 200.511 59.6879 200.408 61.3179C200.207 62.4921 199.695 63.5909 198.925 64.4999C197.156 67.0784 195.674 69.8429 194.506 72.7439C194.172 73.4523 193.987 74.2219 193.963 75.0049C194.03 75.6996 194.277 76.3649 194.679 76.9357C195.081 77.5064 195.624 77.9631 196.255 78.2609C197.525 78.8413 198.904 79.1453 200.301 79.1529C199.037 85.8019 200.307 92.5599 201.936 95.8749C203.29 98.912 205.622 101.408 208.56 102.966C211.344 104.336 212.56 105.251 215.615 105.805C215.89 105.819 216.15 105.939 216.338 106.14C216.439 106.323 216.483 106.532 216.464 106.74C216.47 112.34 213.925 128.334 212.153 133.779C212.815 138.465 216.753 133.379 218.601 137.739C219.201 139.147 218.401 136.306 219.607 137.239C222.183 139.239 224.668 133.809 227.707 132.639C240.114 127.839 253.147 125.929 263.995 118.232C265.639 117.256 266.993 115.859 267.918 114.186C268.73 112.363 268.5 110.268 268.255 108.286L267.235 100.04C267.042 99.3511 267.101 98.616 267.401 97.9667C267.702 97.3175 268.224 96.7967 268.874 96.4979L274.174 92.5979C276.821 90.8168 279.225 88.6991 281.325 86.2979C282.77 84.4424 283.924 82.3787 284.75 80.1769C287.506 72.9235 287.632 64.9338 285.107 57.5969C282.54 50.2871 277.699 43.9921 271.293 39.6349C264.985 35.3219 257.532 33.0279 250.115 31.1849C242.907 29.3929 235.53 27.9619 228.105 28.1979C220.68 28.4339 213.146 30.4489 207.255 34.9719C201.364 39.4949 197.015 37.7899 197.514 45.0909Z" fill="#E1C4A1"/>
<path d="M207.494 62.272H218.738" stroke="#B48F6C" stroke-width="1.745" stroke-miterlimit="10" stroke-linecap="round"/>
<path d="M209.389 65.052C210.994 65.052 212.295 63.7509 212.295 62.146C212.295 60.541 210.994 59.24 209.389 59.24C207.784 59.24 206.483 60.541 206.483 62.146C206.483 63.7509 207.784 65.052 209.389 65.052Z" fill="#B48F6C"/>
<path d="M205.347 90.317C209.042 90.3964 212.695 89.5263 215.958 87.79L205.347 90.317Z" fill="#EED2AA"/>
<path d="M205.347 90.317C209.042 90.3964 212.695 89.5263 215.958 87.79" stroke="#D1AD83" stroke-width="2.213" stroke-miterlimit="10" stroke-linecap="round"/>
<path d="M194.635 46.4621C195.266 50.2521 195.535 53.5541 233.963 54.3281L234.737 63.2281L236.172 79.7081C240.846 93.2261 256.272 87.3411 267.284 98.2661C267.284 98.2661 276.784 92.5391 282.584 85.1791C291.74 73.5741 287.944 58.4111 285.67 54.6211C283.396 50.8311 280.135 44.5861 280.135 44.5861L237.517 38.4861L200.801 40.5471L194.635 46.4621Z" fill="#6C4327"/>
<path d="M248.689 47.551L184.271 49.07C183.129 49.097 181.491 48.492 181.946 47.494C182.106 47.2236 182.337 47.0028 182.615 46.856L191.972 40.769C194.801 38.928 202.313 35.021 205.599 34.101C208.608 33.258 207.177 35.293 210.308 35.445C219.152 35.874 227.879 37.493 236.571 39.108L245.08 40.688C246.559 40.8675 247.99 41.3267 249.297 42.041C249.93 42.3899 250.445 42.9202 250.775 43.5639C251.104 44.2075 251.234 44.9351 251.147 45.653C251.035 46.2126 250.725 46.7129 250.273 47.0617C249.821 47.4105 249.259 47.5843 248.689 47.551Z" fill="#270041"/>
<path d="M284.743 49.576L290.135 31.8C290.272 31.4424 290.33 31.0592 290.304 30.677C290.182 29.833 289.318 29.334 288.546 28.971C277.923 23.978 266.531 20.871 255.205 17.786L198.24 2.27502C197.113 1.8379 195.875 1.77513 194.71 2.09602C192.51 2.97802 192.352 5.99602 192.683 8.34302C194.056 17.9306 197.377 27.1357 202.442 35.391C214.11 40.541 226.875 42.563 239.475 44.537L257.465 47.356C266.841 48.825 276.303 50.3 284.743 49.576Z" fill="#E1F2F5"/>
<path d="M234.335 63.1241C235.817 61.8821 238.079 62.1961 239.815 63.0481C242.166 64.1738 243.978 66.1804 244.86 68.6331C245.682 71.0731 245.624 74.2461 244.088 76.3131C242.972 77.9648 241.337 79.1966 239.441 79.8131C238.084 80.1551 235.281 80.2131 234.11 79.4491" fill="#E1C4A1"/>
<path d="M234.335 63.1241C235.817 61.8821 238.079 62.1961 239.815 63.0481C242.166 64.1738 243.978 66.1804 244.86 68.6331C245.682 71.0731 245.624 74.2461 244.088 76.3131C242.972 77.9648 241.337 79.1966 239.441 79.8131C238.084 80.1551 235.281 80.2131 234.11 79.4491" stroke="#D1AD83" stroke-width="2.213" stroke-miterlimit="10" stroke-linecap="round"/>
<path d="M233.212 73.2249C233.592 73.1124 233.94 72.9103 234.226 72.6356C234.512 72.3608 234.728 72.0214 234.856 71.6459C234.981 71.262 235.014 70.8544 234.954 70.4553C234.895 70.0561 234.743 69.6764 234.511 69.3459C234.994 68.6723 235.679 68.1695 236.466 67.9099C236.859 67.7847 237.275 67.7417 237.685 67.7837C238.096 67.8256 238.494 67.9517 238.854 68.1539C239.442 68.5273 239.876 69.0998 240.076 69.7667C240.277 70.4335 240.23 71.1503 239.946 71.7859" stroke="#D1AD83" stroke-width="1.107" stroke-miterlimit="10" stroke-linecap="round"/>
<path d="M197.857 76.6999C200.003 76.0169 199.598 77.4729 202.112 77.7999" stroke="#D1AD83" stroke-width="1.163" stroke-miterlimit="10" stroke-linecap="round"/>
<path d="M217.65 106.035C217.65 106.035 219.842 106.357 232.995 101.909C232.995 101.909 217.973 115.383 216.619 116.802L217.65 106.035Z" fill="#D2B494"/>
<path d="M301.282 160.582C301.358 159.105 301.207 157.625 300.835 156.194C300.216 154.553 299.277 153.051 298.073 151.776C295.073 148.915 291.503 147.838 288.812 146.993C275.04 144.014 260.657 146.052 248.255 152.739C245.933 153.919 243.806 155.449 241.948 157.275C236.694 162.748 235.927 170.998 235.448 178.569L233.748 205.19C232.821 219.745 231.282 238.603 232.155 253.162C239.944 250.184 247.966 247.855 256.139 246.199C272.246 242.977 285.957 243.166 300.204 238.254C302.459 229.554 301.275 221.463 301.275 212.47C301.278 195.174 301.281 177.878 301.282 160.582Z" fill="#7C658C"/>
<path d="M234.22 195.523C235.405 156.838 240.796 152.004 271.937 145.815" stroke="#45245C" stroke-width="2.327" stroke-miterlimit="10" stroke-linecap="round"/>
<path d="M207.621 136.616C200.307 138.529 190.963 140.527 185.994 150.199C175.383 170.853 182.214 271.678 183.351 278.499C183.351 278.499 187.219 164.77 193.409 151.424C195.745 146.385 203.847 142.811 206.755 140.399C209.813 137.861 207.621 136.616 207.621 136.616Z" fill="#7C658C"/>
<path d="M205.497 143.155L209.914 137.24L210.429 126.54L208.689 129.184L205.633 134.148C204.802 135.499 204.351 137.049 204.327 138.634C204.303 140.22 204.707 141.783 205.497 143.158V143.155Z" fill="#9CD3DD"/>
<path d="M269.724 99.3999C254.894 111.2 237.851 119.91 219.6 125.016C216.567 125.863 213.281 126.75 211.329 129.216C209.918 131.089 208.924 133.243 208.415 135.533C207.907 137.822 207.894 140.194 208.379 142.489C228.868 135.796 251.697 128.51 272.186 121.818C272.478 121.796 272.762 121.709 273.017 121.563C273.271 121.417 273.49 121.216 273.656 120.975C273.823 120.733 273.934 120.458 273.98 120.168C274.027 119.879 274.008 119.582 273.925 119.301C273.393 112.725 272.503 106.177 269.724 99.3999Z" fill="#E1F2F5"/>
<path d="M277.287 135.88C281.814 141.787 285.573 148.246 288.473 155.1C281.204 156.118 270.047 157.246 262.155 158.195C259.675 150.495 257.325 142.31 255.132 134.523L270.912 133.056C272.239 132.818 273.605 132.928 274.877 133.375C276.099 133.93 276.16 134.574 277.287 135.88Z" fill="#A291AD"/>
<path d="M258.268 145.484L282.119 142.955L284.103 146.182L259.489 149.321L258.268 145.484Z" fill="#F6AB50"/>
<path d="M287.025 151.916L285.324 148.384L260.339 151.981L261.32 155.317L287.025 151.916Z" fill="#F6AB50"/>
<path d="M207.722 133.484C208.689 130.341 207.867 127.391 212.654 125.119L211.203 127.682L207.577 135.708L207.722 133.484Z" fill="#9CD3DD"/>
<path d="M285.135 80.566C283.483 83.996 278.148 90.094 277.004 95.429C277.004 95.429 273.704 93.651 276.115 87.929L280.434 80.429L285.135 80.566Z" fill="#6C4327"/>
<path d="M278.223 53.554C281.704 57.519 283.155 77.731 275.902 85.661" stroke="#593520" stroke-width="1.163" stroke-miterlimit="10" stroke-linecap="round"/>
<path d="M251.628 58.873C249.5 82.663 263.328 84.114 267.391 90.69" stroke="#593520" stroke-width="1.745" stroke-miterlimit="10" stroke-linecap="round"/>
<path d="M259.364 49.4919C261.674 51.4961 263.565 53.9381 264.926 56.677C266.287 59.4158 267.092 62.3972 267.294 65.4489" stroke="#593520" stroke-width="1.745" stroke-miterlimit="10" stroke-linecap="round"/>
</g>
<defs>
<clipPath id="clip0">
<rect width="340.235" height="300.419" fill="white" transform="translate(0.234985)"/>
</clipPath>
</defs>
</svg>
