<svg width="403" height="314" viewBox="0 0 403 314" fill="none" xmlns="http://www.w3.org/2000/svg">
<g clip-path="url(#clip0)">
<path d="M73.5119 271.506C43.7399 239.612 -17.7021 60.412 59.4049 23.742C154.127 -21.306 113.397 129.366 284.117 100.272C437.517 74.128 331.742 269.989 229.599 302.878C148.553 328.974 100.769 300.705 73.5119 271.506Z" fill="#F8E8F0"/>
<path d="M301.937 125.018L302.613 123.957L304.892 125.409L309.567 118.074L307.756 116.92L308.284 116.093C308.733 116.282 309.197 116.435 309.671 116.549C310.06 116.642 310.458 116.693 310.858 116.702L311.841 117.329L306.171 126.229L308.231 127.542L307.555 128.603L301.937 125.018Z" fill="#F49727"/>
<path d="M59.157 33.9468L59.833 32.8858L62.112 34.3378L66.787 26.9998L64.977 25.8458L65.504 25.0188C65.9536 25.2079 66.4178 25.3604 66.892 25.4748C67.2808 25.5676 67.6784 25.6188 68.078 25.6278L69.062 26.2548L63.392 35.1548L65.452 36.4678L64.775 37.5288L59.157 33.9468Z" fill="#F49727"/>
<path d="M185.423 42.1519L186.623 42.5359L185.798 45.1089L194.081 47.7639L194.737 45.7199L195.671 46.0199C195.603 46.5027 195.573 46.9903 195.582 47.4779C195.592 47.8778 195.643 48.2757 195.736 48.6649L195.38 49.7749L185.335 46.5549L184.589 48.8809L183.389 48.4969L185.423 42.1519Z" fill="#F49727"/>
<path d="M272.061 111.9L272.969 112.771L271.099 114.722L277.378 120.742L278.863 119.192L279.571 119.871C279.298 120.275 279.058 120.701 278.852 121.143C278.685 121.506 278.557 121.886 278.47 122.276L277.663 123.118L270.049 115.818L268.358 117.582L267.45 116.711L272.061 111.9Z" fill="#F49727"/>
<path d="M129.98 59.4839L131.225 59.6669L130.833 62.3399L139.433 63.6039L139.746 61.4799L140.716 61.6229C140.728 62.1104 140.778 62.5963 140.867 63.0759C140.942 63.4686 141.058 63.8524 141.213 64.2209L141.044 65.3749L130.607 63.8419L130.252 66.2589L129.007 66.0759L129.98 59.4839Z" fill="#F49727"/>
<path d="M93.29 18.354L92.614 19.415L90.335 17.964L85.663 25.3L87.474 26.453L86.947 27.281C86.4974 27.0918 86.0332 26.9394 85.559 26.825C85.1703 26.732 84.7727 26.6811 84.373 26.673L83.389 26.046L89.055 17.146L86.994 15.834L87.67 14.772L93.29 18.354Z" fill="#F49727"/>
<path d="M126.142 46.569L125.742 45.375L128.307 44.523L125.564 36.268L123.527 36.945L123.217 36.014C123.648 35.7844 124.059 35.5206 124.447 35.225C124.765 34.9822 125.055 34.7059 125.314 34.401L126.423 34.033L129.75 44.044L132.068 43.274L132.468 44.468L126.142 46.569Z" fill="#F49727"/>
<path d="M148.454 46.843C148.729 47.2878 148.877 47.7988 148.884 48.3214C148.891 48.8441 148.757 49.3589 148.494 49.811C147.727 51.0619 146.63 52.0768 145.323 52.744C144.115 53.5577 142.702 54.016 141.246 54.067C140.731 54.0553 140.228 53.9121 139.784 53.6511C139.34 53.39 138.97 53.0198 138.71 52.5756C138.449 52.1314 138.307 51.6279 138.295 51.1131C138.284 50.5982 138.405 50.089 138.646 49.634C139.399 48.3872 140.488 47.3772 141.787 46.719C143.006 45.9023 144.427 45.4382 145.893 45.378C146.412 45.368 146.925 45.4989 147.376 45.7569C147.827 46.0149 148.199 46.3902 148.454 46.843ZM147.482 47.414C147.329 47.1466 147.097 46.9334 146.817 46.804C146.487 46.6652 146.128 46.6105 145.772 46.645C145.277 46.6891 144.791 46.8043 144.329 46.987C143.686 47.2366 143.066 47.541 142.476 47.897C141.88 48.2373 141.315 48.6291 140.787 49.068C140.408 49.3774 140.078 49.7417 139.807 50.149C139.611 50.4401 139.492 50.7757 139.459 51.125C139.442 51.4314 139.517 51.7359 139.675 51.999C139.829 52.267 140.06 52.4832 140.337 52.62C140.658 52.7676 141.012 52.8296 141.364 52.8C141.851 52.7616 142.33 52.6507 142.785 52.471C143.425 52.2232 144.043 51.92 144.63 51.565C145.694 51.029 146.619 50.2521 147.33 49.296C147.533 49.0297 147.655 48.7108 147.682 48.3772C147.709 48.0437 147.639 47.7093 147.482 47.414Z" fill="#F49727"/>
<path d="M113.523 13.8759C113.952 14.1747 114.292 14.5843 114.507 15.061C114.721 15.5377 114.803 16.0636 114.742 16.5829C114.536 18.0354 113.933 19.4029 113 20.5349C112.216 21.7624 111.104 22.7456 109.789 23.3729C109.312 23.568 108.793 23.6378 108.281 23.5755C107.77 23.5133 107.283 23.3212 106.866 23.0175C106.45 22.7138 106.118 22.3086 105.903 21.8404C105.687 21.3723 105.595 20.8567 105.635 20.3429C105.83 18.8992 106.426 17.5393 107.356 16.4179C108.149 15.1832 109.267 14.1917 110.588 13.5529C111.061 13.3364 111.583 13.2521 112.1 13.309C112.617 13.3659 113.109 13.5618 113.523 13.8759ZM112.859 14.7869C112.612 14.6026 112.314 14.4996 112.006 14.4919C111.649 14.4957 111.298 14.5885 110.985 14.7619C110.548 14.9992 110.148 15.2986 109.797 15.6509C109.307 16.1354 108.86 16.6614 108.46 17.2229C108.048 17.7724 107.686 18.357 107.376 18.9699C107.152 19.4043 106.994 19.8698 106.907 20.3509C106.843 20.6964 106.868 21.0523 106.978 21.3859C107.083 21.674 107.274 21.9234 107.524 22.1009C107.772 22.2856 108.07 22.3925 108.379 22.4079C108.732 22.4147 109.081 22.3303 109.392 22.1629C109.824 21.9339 110.219 21.6413 110.564 21.2949C111.053 20.8136 111.499 20.2899 111.896 19.7299C112.659 18.8146 113.197 17.734 113.469 16.5739C113.548 16.2486 113.533 15.9073 113.424 15.5906C113.316 15.2738 113.118 14.9949 112.856 14.7869H112.859Z" fill="#F49727"/>
<path d="M162.703 55.3669C162.8 54.8534 163.035 54.3759 163.382 53.9853C163.73 53.5947 164.176 53.3056 164.675 53.1489C166.085 52.742 167.579 52.7326 168.994 53.1219C170.434 53.3354 171.785 53.9486 172.894 54.8919C173.267 55.2476 173.543 55.6928 173.695 56.1851C173.847 56.6774 173.871 57.2005 173.764 57.7046C173.657 58.2087 173.423 58.677 173.084 59.0651C172.745 59.4532 172.312 59.7482 171.827 59.9219C170.43 60.3341 168.945 60.3459 167.542 59.9559C166.091 59.7368 164.729 59.1219 163.605 58.1789C163.215 57.8353 162.925 57.3925 162.766 56.8974C162.607 56.4022 162.585 55.8733 162.703 55.3669ZM163.803 55.6009C163.735 55.9019 163.763 56.2165 163.883 56.5009C164.032 56.8259 164.261 57.1085 164.547 57.3229C164.943 57.6243 165.381 57.8669 165.847 58.0429C166.49 58.2925 167.153 58.4855 167.829 58.6199C168.499 58.771 169.18 58.863 169.866 58.8949C170.354 58.9218 170.844 58.8756 171.319 58.7579C171.66 58.6751 171.975 58.5076 172.234 58.2709C172.454 58.0565 172.603 57.7808 172.663 57.4799C172.73 57.178 172.706 56.863 172.594 56.5749C172.456 56.2497 172.236 55.9656 171.956 55.7499C171.571 55.4491 171.142 55.208 170.685 55.0349C170.045 54.786 169.384 54.5936 168.711 54.4599C167.564 54.1383 166.358 54.0887 165.189 54.3149C164.86 54.3743 164.554 54.527 164.309 54.7547C164.064 54.9825 163.889 55.2758 163.806 55.5999L163.803 55.6009Z" fill="#F49727"/>
<path d="M140.09 80.8499C140.047 80.3289 140.145 79.806 140.376 79.3367C140.606 78.8674 140.959 78.4694 141.398 78.1849C142.648 77.4169 144.085 77.0086 145.552 77.0049C146.998 76.8254 148.465 77.0551 149.787 77.6679C150.242 77.9109 150.626 78.2661 150.905 78.6998C151.183 79.1335 151.346 79.6313 151.378 80.1457C151.409 80.6601 151.309 81.1741 151.086 81.6387C150.863 82.1033 150.524 82.503 150.103 82.7999C148.867 83.5704 147.44 83.9785 145.983 83.9779C144.527 84.155 143.05 83.9262 141.715 83.3169C141.246 83.0909 140.848 82.7422 140.562 82.3078C140.276 81.8734 140.113 81.3696 140.09 80.8499ZM141.216 80.7809C141.231 81.0887 141.342 81.3841 141.533 81.6259C141.764 81.8989 142.06 82.1099 142.393 82.2399C142.854 82.4251 143.34 82.5423 143.835 82.5879C144.521 82.6558 145.211 82.6645 145.898 82.6139C146.584 82.5804 147.265 82.487 147.935 82.3349C148.413 82.23 148.872 82.0544 149.298 81.8139C149.604 81.6425 149.863 81.397 150.05 81.0999C150.203 80.8347 150.273 80.5294 150.25 80.2239C150.234 79.9149 150.126 79.6176 149.941 79.3699C149.721 79.0936 149.433 78.8784 149.106 78.7449C148.654 78.5586 148.177 78.441 147.69 78.3959C147.007 78.3271 146.319 78.3181 145.635 78.3689C144.444 78.3647 143.268 78.6387 142.201 79.1689C141.9 79.3152 141.647 79.5449 141.472 79.8306C141.298 80.1163 141.209 80.4461 141.216 80.7809Z" fill="#F49727"/>
<path d="M194.384 60.3338C194.886 60.4797 195.339 60.7588 195.695 61.1417C196.051 61.5245 196.296 61.9966 196.405 62.5078C196.675 63.9492 196.542 65.437 196.021 66.8078C195.671 68.2216 194.932 69.509 193.887 70.5238C193.498 70.8615 193.028 71.0939 192.524 71.1989C192.019 71.3039 191.496 71.2779 191.004 71.1235C190.512 70.9692 190.068 70.6915 189.714 70.317C189.36 69.9424 189.108 69.4835 188.981 68.9838C188.704 67.5539 188.834 66.0749 189.355 64.7148C189.711 63.2916 190.453 61.9942 191.499 60.9658C191.878 60.6093 192.346 60.3622 192.854 60.2509C193.362 60.1396 193.891 60.1683 194.384 60.3338ZM194.046 61.4088C193.754 61.3143 193.439 61.3122 193.146 61.4028C192.808 61.5208 192.505 61.7212 192.264 61.9858C191.927 62.3506 191.644 62.7622 191.424 63.2078C191.115 63.8239 190.859 64.4656 190.661 65.1258C190.447 65.7776 190.29 66.4468 190.193 67.1258C190.12 67.6094 190.12 68.1012 190.193 68.5848C190.244 68.9324 190.381 69.2616 190.593 69.5418C190.786 69.7798 191.046 69.9541 191.34 70.0418C191.634 70.1375 191.95 70.1431 192.248 70.0578C192.585 69.952 192.888 69.7608 193.129 69.5028C193.465 69.1469 193.746 68.7424 193.962 68.3028C194.271 67.6895 194.525 67.0504 194.723 66.3928C195.152 65.2815 195.316 64.0856 195.202 62.8998C195.172 62.5668 195.047 62.2493 194.842 61.985C194.638 61.7207 194.361 61.5207 194.046 61.4088Z" fill="#F49727"/>
<path d="M255.813 90.3549C256.239 90.0522 256.74 89.8707 257.261 89.8299C257.782 89.789 258.305 89.8903 258.773 90.1229C260.071 90.807 261.155 91.8361 261.905 93.0969C262.796 94.2494 263.345 95.6286 263.491 97.0779C263.514 97.5928 263.404 98.105 263.173 98.5656C262.941 99.0262 262.596 99.4199 262.169 99.7093C261.743 99.9987 261.249 100.174 260.736 100.219C260.223 100.264 259.706 100.176 259.236 99.9649C257.943 99.2932 256.865 98.2726 256.123 97.0189C255.231 95.8547 254.678 94.4672 254.523 93.0089C254.478 92.4913 254.575 91.9712 254.802 91.5039C255.029 91.0366 255.378 90.6396 255.813 90.3549ZM256.446 91.2879C256.19 91.4573 255.993 91.7018 255.881 91.9879C255.763 92.3255 255.732 92.6871 255.79 93.0399C255.866 93.5311 256.012 94.0087 256.225 94.4579C256.516 95.0832 256.86 95.6821 257.254 96.2479C257.632 96.8209 258.06 97.3596 258.532 97.8579C258.865 98.2159 259.25 98.5217 259.674 98.7649C259.978 98.9422 260.322 99.0399 260.674 99.0489C260.981 99.0466 261.28 98.9518 261.532 98.7769C261.789 98.6059 261.99 98.3622 262.109 98.0769C262.235 97.7469 262.273 97.3901 262.221 97.0409C262.152 96.5557 262.01 96.0837 261.8 95.6409C261.511 95.018 261.169 94.4214 260.777 93.8579C260.173 92.831 259.338 91.9592 258.338 91.3119C258.058 91.1271 257.731 91.0266 257.396 91.0223C257.06 91.0181 256.731 91.1103 256.446 91.2879Z" fill="#F49727"/>
<path d="M353.244 122.634C353.746 122.78 354.199 123.059 354.555 123.442C354.91 123.825 355.156 124.297 355.265 124.808C355.535 126.249 355.402 127.737 354.881 129.108C354.531 130.522 353.791 131.81 352.747 132.825C352.357 133.162 351.888 133.394 351.383 133.499C350.879 133.604 350.356 133.578 349.864 133.423C349.372 133.269 348.928 132.991 348.574 132.617C348.22 132.242 347.968 131.784 347.841 131.284C347.564 129.854 347.694 128.375 348.215 127.015C348.571 125.592 349.313 124.294 350.359 123.266C350.738 122.91 351.206 122.663 351.714 122.552C352.222 122.44 352.751 122.469 353.244 122.634ZM352.906 123.71C352.614 123.614 352.299 123.612 352.006 123.704C351.668 123.822 351.365 124.022 351.124 124.287C350.786 124.652 350.503 125.063 350.284 125.509C349.975 126.125 349.719 126.767 349.521 127.427C349.307 128.079 349.15 128.748 349.053 129.427C348.98 129.911 348.98 130.402 349.053 130.886C349.104 131.234 349.241 131.563 349.453 131.843C349.646 132.081 349.906 132.255 350.2 132.343C350.494 132.439 350.81 132.445 351.108 132.36C351.444 132.253 351.748 132.062 351.989 131.804C352.325 131.448 352.606 131.043 352.822 130.604C353.13 129.991 353.385 129.351 353.583 128.694C354.012 127.583 354.176 126.387 354.062 125.201C354.032 124.868 353.907 124.55 353.702 124.286C353.497 124.022 353.221 123.822 352.906 123.71Z" fill="#F49727"/>
<path d="M252.204 126.3C252.611 125.973 253.1 125.762 253.618 125.69C254.135 125.618 254.663 125.689 255.144 125.893C256.479 126.5 257.621 127.463 258.444 128.677C259.401 129.775 260.031 131.12 260.262 132.558C260.315 133.07 260.235 133.588 260.031 134.061C259.828 134.535 259.506 134.948 259.098 135.262C258.689 135.576 258.207 135.78 257.697 135.855C257.187 135.93 256.667 135.874 256.185 135.691C254.855 135.097 253.718 134.142 252.904 132.934C251.943 131.825 251.307 130.473 251.065 129.026C250.991 128.511 251.057 127.986 251.258 127.505C251.458 127.025 251.785 126.609 252.204 126.3ZM252.89 127.194C252.644 127.379 252.462 127.636 252.368 127.929C252.27 128.273 252.26 128.637 252.339 128.986C252.444 129.471 252.618 129.939 252.857 130.375C253.184 130.982 253.563 131.56 253.99 132.101C254.401 132.651 254.859 133.163 255.36 133.633C255.714 133.971 256.116 134.253 256.554 134.472C256.867 134.63 257.215 134.707 257.566 134.696C257.872 134.676 258.165 134.563 258.406 134.373C258.653 134.187 258.84 133.931 258.941 133.639C259.047 133.302 259.065 132.943 258.992 132.598C258.895 132.119 258.726 131.658 258.492 131.229C258.168 130.624 257.79 130.049 257.365 129.51C256.702 128.519 255.817 127.698 254.78 127.11C254.49 126.941 254.158 126.859 253.823 126.873C253.488 126.888 253.164 126.999 252.89 127.192V127.194Z" fill="#F49727"/>
<path d="M73.211 36.7998C73.713 36.9454 74.1662 37.2246 74.5221 37.6074C74.878 37.9903 75.1233 38.4625 75.232 38.9738C75.5016 40.4152 75.3688 41.903 74.848 43.2738C74.4982 44.688 73.7589 45.9757 72.714 46.9908C72.3244 47.3282 71.855 47.5603 71.3504 47.6651C70.8457 47.7698 70.3227 47.7438 69.831 47.5893C69.3393 47.4349 68.8953 47.1572 68.5412 46.7827C68.1871 46.4082 67.9347 45.9494 67.808 45.4498C67.531 44.0198 67.6606 42.5408 68.182 41.1808C68.5373 39.7574 69.2781 38.4595 70.323 37.4298C70.7023 37.0732 71.1712 36.8262 71.6799 36.7152C72.1885 36.6043 72.7177 36.6335 73.211 36.7998ZM72.873 37.8758C72.5809 37.7803 72.2663 37.7782 71.973 37.8698C71.6353 37.987 71.3323 38.1871 71.092 38.4518C70.7543 38.8169 70.4711 39.2288 70.251 39.6748C69.9417 40.2905 69.6864 40.9319 69.488 41.5918C69.2741 42.2436 69.1175 42.9128 69.02 43.5918C68.9475 44.0754 68.9475 44.5672 69.02 45.0508C69.0706 45.3984 69.2082 45.7276 69.42 46.0078C69.6124 46.2461 69.8725 46.4204 70.166 46.5078C70.4603 46.6033 70.7763 46.6092 71.074 46.5248C71.4107 46.418 71.7144 46.2265 71.956 45.9688C72.2917 45.6126 72.5722 45.2081 72.788 44.7688C73.0971 44.156 73.3518 43.5172 73.549 42.8598C73.976 41.7491 74.1383 40.5542 74.023 39.3698C73.9949 39.0362 73.8716 38.7177 73.6677 38.4521C73.4639 38.1866 73.188 37.9852 72.873 37.8718V37.8758Z" fill="#F49727"/>
<path d="M400.923 172.865C400.523 168.299 397.765 164.165 394.183 161.311C390.489 158.575 386.302 156.577 381.851 155.428C360.363 149.077 337.281 152.146 315.341 156.698C307.629 158.298 299.426 160.376 294.215 166.281C292.115 168.661 290.588 171.744 290.825 174.909C291.064 176.868 291.782 178.739 292.915 180.355C299.296 187.612 309.191 190.355 318.784 192.116C317.543 194.858 315.705 197.287 313.404 199.227C313.218 199.383 313.024 199.55 312.837 199.727L311.272 198.683L302.472 205.683L303.932 206.837C297.57 213.605 291.072 220.031 285.519 226.68L285.333 226.455C282.633 227.666 279.744 229.529 279.651 231.206C279.558 232.883 276.851 231.578 276.297 230.274C275.743 228.97 272.571 228.504 271.919 229.622C271.339 230.622 267.884 228.222 266.343 229.462L252.832 222.695C248.026 218.475 244.241 214.489 239.672 211.55C235.103 208.611 229.603 206.777 224.228 207.569C220.928 208.055 217.856 209.489 214.644 210.382C211.432 211.275 207.807 211.573 204.923 209.902L204.645 209.552L204.535 209.661C203.436 206.071 201.733 202.694 199.5 199.675C199.2 200.168 198.802 200.593 198.331 200.926C198.05 200.225 197.669 199.569 197.201 198.977C196.642 193.429 196.776 187.833 197.601 182.318C198.789 178.975 201.429 171.164 201.444 167.698H201.479L204.972 161.098C204.627 161.047 204.283 160.98 203.939 160.924L204.344 160.644C219.807 128.657 235.271 96.6707 250.736 64.684L252.05 62.778C258.16 64.329 264.63 65.184 270.75 63.657C276.87 62.13 282.563 57.832 284.393 51.8C286.162 45.971 283.953 39.342 279.567 35.115C275.181 30.888 268.923 28.927 262.832 29.015C260.954 29.042 258.923 29.215 257.352 28.182C255.628 27.053 255.027 24.868 254.152 23.001C251.262 16.811 244.406 13.221 237.617 12.458C230.828 11.695 224.017 13.304 217.408 15.044C216.323 6.29299 206.33 0.0349933 197.823 2.36199C189.316 4.68899 183.898 14.552 185.947 23.13C187.996 31.708 196.747 37.966 205.563 37.737C190.702 71.3523 175.974 105.059 161.379 138.858L161.486 139.176C161.391 139.076 161.286 138.976 161.196 138.876C159.924 141.33 158.652 143.783 157.379 146.236C157.931 146.836 158.505 147.417 159.079 147.995C157.582 150.246 156.851 152.92 156.993 155.619L150.254 161.595C149.656 162.035 149.192 162.632 148.912 163.32C148.803 163.832 148.843 164.363 149.027 164.853C149.212 165.342 149.532 165.769 149.951 166.082C150.751 166.747 151.777 167.071 152.851 167.794C150.417 171.773 149.617 176.539 150.619 181.094C151.611 183.524 153.842 184.179 156.245 185.235C158.925 186.368 161.707 187.246 164.552 187.858C165.397 188.093 166.189 188.489 166.884 189.024C167.574 189.504 167.738 192.654 167.536 193.4C167.701 196.787 166.842 198.093 165.728 201.3L165.112 202.846C164.383 202.722 163.652 202.615 162.927 202.514C162.559 202.37 162.163 202.313 161.769 202.346C161.375 202.379 160.994 202.501 160.655 202.704C160.316 202.906 160.027 203.184 159.812 203.515C159.596 203.846 159.459 204.222 159.411 204.614C158.3 207.561 157.347 210.566 156.555 213.614L142.562 212.57C138.938 212.144 135.275 212.185 131.662 212.69C128.991 213.181 127.59 212.428 125.295 213.879H123.063C115.578 212.716 106.89 213.179 98.7919 212.058L98.8439 212.016C97.4439 209.967 93.9999 208.476 91.9509 208.849C89.9019 209.222 89.9009 206.613 88.2249 205.496C86.5489 204.379 83.9149 204.884 82.3559 204.471C80.7969 204.058 81.2379 201.024 80.3999 199.813C80.0329 199.284 78.6679 199.2 77.2469 199.273C76.3569 197.763 75.5649 196.185 74.8049 194.608C70.6259 185.94 66.9149 179.284 63.5889 171.568L66.5209 170.568L62.1899 159.24L55.4679 161.552C52.3114 154.504 50.373 146.973 49.7349 139.277C49.4529 135.821 49.4029 132.226 48.5789 128.898C48.7879 128.415 48.9029 128.136 48.9029 128.136C48.6829 127.957 48.4379 127.769 48.2029 127.584C48.1869 127.536 48.1719 127.484 48.1559 127.44C65.3649 114.419 85.6259 99.54 88.3449 97.54L105.813 101.053L113.275 92.967C113.965 93.3669 114.776 93.5027 115.559 93.349C116.341 93.1954 117.041 92.7628 117.528 92.1317C118.015 91.5006 118.257 90.714 118.207 89.9183C118.158 89.1225 117.821 88.3717 117.26 87.8056C116.698 87.2395 115.951 86.8967 115.155 86.8408C114.36 86.7849 113.571 87.0198 112.936 87.5019C112.301 87.9839 111.863 88.6802 111.703 89.4613C111.543 90.2424 111.672 91.055 112.066 91.748L105.206 99.181L94.1529 96.961L111.476 76.6C112.176 76.9917 112.995 77.1154 113.78 76.9483C114.565 76.7811 115.263 76.3344 115.743 75.6913C116.223 75.0482 116.453 74.2526 116.39 73.4526C116.327 72.6525 115.975 71.9026 115.401 71.3424C114.826 70.7822 114.067 70.45 113.266 70.4075C112.465 70.365 111.675 70.6153 111.044 71.1116C110.414 71.6079 109.985 72.3164 109.838 73.1054C109.691 73.8943 109.836 74.7098 110.245 75.4L106.423 79.887L106.285 67.687L112.159 59.755C112.935 59.9851 113.769 59.9251 114.504 59.5861C115.24 59.2471 115.827 58.6523 116.156 57.9125C116.485 57.1727 116.534 56.3385 116.294 55.5652C116.054 54.7919 115.54 54.1324 114.85 53.7096C114.159 53.2868 113.338 53.1295 112.54 53.2671C111.742 53.4047 111.022 53.8277 110.512 54.4573C110.003 55.087 109.74 55.8803 109.773 56.6894C109.805 57.4985 110.131 58.2682 110.689 58.855L104.562 67.127L104.731 81.877L95.1229 93.177L93.9589 87.55C94.6712 87.1488 95.2131 86.5021 95.4834 85.7307C95.7537 84.9592 95.7339 84.1157 95.4277 83.3577C95.1216 82.5998 94.55 81.9792 93.8197 81.6118C93.0894 81.2445 92.2503 81.1556 91.4593 81.3617C90.6682 81.5678 89.9792 82.0548 89.521 82.7318C89.0628 83.4087 88.8667 84.2293 88.9693 85.0403C89.0719 85.8513 89.4662 86.5973 90.0785 87.1388C90.6909 87.6803 91.4795 87.9804 92.2969 87.983L93.7109 94.834L92.2299 96.574L87.9379 95.711L87.6329 95.935C87.3859 96.116 65.8149 111.935 47.5019 125.782C47.3129 125.371 47.1129 124.965 46.8839 124.569C46.4163 123.769 45.8738 123.015 45.2639 122.318C49.8889 115.218 53.9119 109.318 57.8359 103.565C63.1729 95.736 68.6929 87.638 75.6699 76.622L88.8919 75.108L95.3689 66.956C96.1416 67.1905 96.9732 67.1361 97.7087 66.803C98.4443 66.4699 99.0338 65.8808 99.3673 65.1455C99.7008 64.4101 99.7557 63.5786 99.5217 62.8058C99.2877 62.0329 98.7808 61.3715 98.0954 60.9446C97.41 60.5178 96.5928 60.3546 95.796 60.4854C94.9992 60.6163 94.2771 61.0323 93.7643 61.656C93.2514 62.2797 92.9827 63.0685 93.0082 63.8756C93.0337 64.6827 93.3517 65.4529 93.9029 66.043L87.9919 73.485L77.0079 74.743L93.4769 54.081L93.0289 49.008L102.893 48.857L108.734 41.963C109.429 42.3584 110.245 42.4876 111.029 42.3265C111.812 42.1655 112.511 41.7252 112.994 41.0877C113.478 40.4501 113.713 39.6586 113.656 38.8605C113.6 38.0624 113.255 37.3121 112.687 36.7491C112.118 36.1862 111.364 35.8489 110.566 35.8002C109.767 35.7514 108.978 35.9945 108.345 36.4841C107.712 36.9737 107.279 37.6766 107.126 38.4619C106.972 39.2471 107.11 40.0613 107.512 40.753L102.088 47.153L92.8779 47.294L92.2569 40.266L96.8429 34.123C97.6228 34.3394 98.4548 34.265 99.1839 33.9135C99.913 33.5619 100.489 32.9574 100.806 32.2124C101.122 31.4673 101.157 30.6327 100.903 29.864C100.65 29.0954 100.126 28.445 99.4283 28.0342C98.731 27.6234 97.908 27.4801 97.1128 27.631C96.3177 27.782 95.6045 28.2169 95.1062 28.8547C94.6079 29.4926 94.3585 30.2898 94.4044 31.0979C94.4504 31.9059 94.7886 32.6698 95.3559 33.247L90.4919 39.765L91.7079 53.548L75.6609 73.68L74.4709 63.294L81.0119 55.062C81.7584 55.3459 82.5827 55.349 83.3313 55.0705C84.0799 54.7921 84.7019 54.2511 85.0814 53.5484C85.4609 52.8456 85.5721 52.0288 85.3944 51.2502C85.2166 50.4715 84.762 49.7839 84.1152 49.3154C83.4683 48.8469 82.6732 48.6294 81.878 48.7033C81.0827 48.7773 80.3414 49.1377 79.792 49.7174C79.2426 50.2972 78.9226 51.0568 78.8915 51.8549C78.8604 52.653 79.1203 53.4352 79.6229 54.056L72.6899 62.783L74.1779 75.783C67.2339 86.732 61.7359 94.8 56.4229 102.6C52.5549 108.271 48.5909 114.087 44.0489 121.046C43.2787 120.331 42.455 119.676 41.5849 119.086C47.2039 104.6 51.4229 92.124 51.0599 76.248L59.5939 65.505L58.4109 55.161C59.123 54.7804 59.6726 54.154 59.9572 53.3984C60.2418 52.6428 60.2421 51.8095 59.958 51.0537C59.674 50.2979 59.1249 49.6711 58.413 49.29C57.7011 48.9089 56.875 48.7996 56.0885 48.9823C55.3021 49.165 54.6088 49.6274 54.1378 50.2832C53.6669 50.9391 53.4503 51.7438 53.5285 52.5474C53.6068 53.351 53.9744 54.0989 54.563 54.6516C55.1515 55.2044 55.921 55.5243 56.7279 55.552L57.8089 64.994L50.9459 73.634C50.9259 73.259 50.9199 72.894 50.8949 72.515L50.8009 72.521L47.3389 42.292C48.0862 41.995 48.7 41.4363 49.0659 40.7202C49.4318 40.0041 49.5249 39.1794 49.3277 38.3998C49.1305 37.6202 48.6566 36.9388 47.9942 36.4828C47.3319 36.0267 46.5263 35.8271 45.7276 35.921C44.929 36.015 44.1917 36.3962 43.6533 36.9935C43.1149 37.5908 42.812 38.3635 42.8011 39.1676C42.7903 39.9717 43.0722 40.7523 43.5943 41.3639C44.1164 41.9756 44.8431 42.3765 45.6389 42.492L49.2229 73.848L41.0409 67.348L39.8479 56.9C40.5755 56.5713 41.159 55.9896 41.4899 55.263C41.8207 54.5364 41.8764 53.7143 41.6465 52.9497C41.4167 52.1851 40.9169 51.53 40.2403 51.1063C39.5636 50.6825 38.7561 50.5189 37.9678 50.646C37.1796 50.773 36.4644 51.182 35.9551 51.7969C35.4458 52.4118 35.1772 53.1908 35.1992 53.9888C35.2213 54.7869 35.5324 55.5499 36.0748 56.1358C36.6172 56.7216 37.3539 57.0906 38.1479 57.174L39.4229 68.249L49.3459 76.133C49.7259 91.654 45.6149 103.933 40.1059 118.151C37.5999 116.737 34.9928 115.511 32.3059 114.482C31.9082 115.838 31.7645 117.256 31.8819 118.664C30.2199 118.264 28.8349 118.24 27.9449 118.778C24.3399 120.964 17.5219 128.59 14.9729 133.52C13.5629 136.247 15.4359 141.22 17.3909 145.12C17.1709 147.08 19.2329 149.376 20.1629 150.301C20.2935 150.457 20.4411 150.597 20.6029 150.72L20.8479 150.84C15.8339 157.072 9.49657 162.112 2.29492 165.593L3.03592 167.139C10.5854 163.489 17.2127 158.18 22.4229 151.61L24.8069 152.778C20.6751 161.291 14.6893 168.771 7.28892 174.668L8.35692 176.01C15.9566 169.955 22.1036 162.275 26.3469 153.533L27.3239 154.012C23.7134 163.536 18.796 172.511 12.7129 180.68L14.0879 181.704C20.2329 173.451 25.2064 164.387 28.8669 154.77L30.0409 155.345C31.5509 159.826 32.7839 164.396 33.7329 169.029L27.2579 171.256L30.1919 182.993L33.4919 181.864C33.6919 182.518 33.8919 183.164 34.1069 183.785C38.1859 195.767 40.8329 208.037 44.9119 220.02C47.4119 227.36 49.2949 235.245 54.8759 240.628C63.6239 249.066 80.4449 253.766 92.5109 255.228C98.4369 255.947 104.453 256.996 109.7 259.841C117.45 264.041 122.773 271.853 125.595 280.206C128.417 288.559 125.495 293.539 125.655 302.354L125.836 303.363C154.096 311.975 186.531 313.692 215.267 306.836C215.225 305.927 215.189 305.026 215.148 304.12C220.862 302.749 226.548 301.075 232.206 299.85C232.857 288.617 234.218 278.769 235.579 268.921C235.787 267.421 236.063 265.783 237.196 264.776C238.606 263.523 240.751 263.734 242.603 264.088C249.985 265.503 257.117 268.001 263.769 271.499C268.269 273.869 273.083 276.793 278.069 275.804C281.582 275.104 284.406 272.579 287.012 270.122C301.66 256.304 315.439 241.593 328.272 226.074L330.039 227.474L337.677 216.296L333.067 213.221C334.786 208.845 337.727 205.055 341.54 202.305C345.354 199.555 349.878 197.96 354.573 197.711C357.153 197.629 359.736 197.968 362.315 197.844C364.921 197.859 367.45 196.96 369.462 195.304C369.509 195.26 369.547 195.204 369.593 195.161C372.181 194.866 374.761 194.488 377.329 193.997C383.029 192.907 388.779 191.243 393.419 187.756C398.059 184.269 401.43 178.646 400.923 172.865Z" fill="#E3DEE6" stroke="#E3DEE6" stroke-width="3.745" stroke-linejoin="round"/>
<path d="M165.734 201.3C166.848 198.1 167.707 196.792 167.541 193.4C167.741 192.654 167.58 189.5 166.89 189.024C166.195 188.489 165.403 188.093 164.558 187.858C161.713 187.246 158.931 186.368 156.251 185.235C153.851 184.179 151.617 183.524 150.625 181.094C149.623 176.539 150.423 171.772 152.858 167.794C151.781 167.071 150.758 166.747 149.958 166.082C149.539 165.768 149.219 165.342 149.035 164.853C148.851 164.363 148.811 163.831 148.919 163.32C149.2 162.632 149.664 162.036 150.262 161.595L157.001 155.619C156.902 153.846 157.184 152.072 157.829 150.418C158.474 148.763 159.467 147.266 160.74 146.028C160.74 146.028 170.829 133.062 189.34 138.746C207.851 144.43 201.514 165.706 201.514 165.706C201.435 168.383 200.446 170.934 199.64 173.488C197.108 181.729 196.279 190.399 197.202 198.971C200.133 202.633 199.243 208.337 196.202 211.906C193.161 215.475 188.502 217.256 183.907 218.192C180.149 219.119 176.218 219.082 172.479 218.084C168.806 216.927 165.489 214.116 164.539 210.384C163.684 207.023 162.752 207.702 164.404 204.652" fill="#805430"/>
<path d="M185.286 162.267C184.821 166.367 183.237 179.686 197.023 183.878C197.023 183.878 202.612 168.978 201.215 166.366L186.215 158.914L185.286 162.267Z" fill="#391D0C"/>
<path d="M161.379 138.859C176.04 105.105 190.769 71.3976 205.564 37.7369C196.748 37.9659 187.996 31.7079 185.948 23.1299C183.9 14.5519 189.317 4.68792 197.823 2.36192C206.329 0.0359228 216.323 6.29292 217.41 15.0439C224.017 13.3039 230.83 11.6949 237.619 12.4579C244.408 13.2209 251.265 16.8109 254.155 22.9999C255.027 24.8669 255.628 27.0519 257.355 28.1809C258.926 29.2099 260.955 29.0409 262.835 29.0139C268.926 28.9259 275.184 30.8869 279.57 35.1139C283.956 39.3409 286.165 45.9699 284.396 51.7989C282.566 57.8309 276.857 62.1229 270.74 63.6489C264.623 65.1749 258.154 64.3209 252.04 62.7699L250.723 64.6769L204.33 160.637L199.814 163.758L177.83 156.865L164.044 146.805L161.379 138.859Z" fill="#CEE9EE"/>
<path d="M195.094 152.028L242.133 53.2671" stroke="#AEDBE3" stroke-width="1.716" stroke-miterlimit="10"/>
<path d="M187.275 149.568C202.675 116.553 218.775 83.8752 235.575 51.5359" stroke="#AEDBE3" stroke-width="1.716" stroke-miterlimit="10"/>
<path d="M177.774 145.016L222.784 49.259" stroke="#AEDBE3" stroke-width="1.716" stroke-miterlimit="10"/>
<path d="M171.646 138.429C186.975 106.51 201.879 74.3917 216.358 42.073" stroke="#AEDBE3" stroke-width="1.716" stroke-miterlimit="10"/>
<path d="M161.196 138.874L157.38 146.234C168.064 157.809 183.761 165.889 201.47 167.694L204.963 161.094C188.182 158.6 172.209 150.916 161.196 138.874Z" fill="#A8D8E1"/>
<path d="M168.949 188.511C168.949 188.511 181.31 191.211 181.86 191.455C182.41 191.699 169.76 195.49 168.389 196.866L168.949 188.511Z" fill="#71472A"/>
<path d="M30.0989 155.374L20.5989 150.717C20.5989 150.717 15.9419 146.617 17.8049 144.01C19.6679 141.403 30.8459 139.91 30.8459 139.91L38.4839 149.784L30.0989 155.374Z" fill="#8C6443"/>
<path d="M319.558 190.173C318.379 193.7 316.249 196.834 313.403 199.227C312.546 199.946 311.524 200.839 311.723 201.94C311.951 202.652 312.44 203.252 313.092 203.619C319.168 208.062 325.639 211.938 332.423 215.2C333.851 210.35 336.75 206.064 340.718 202.932C344.687 199.8 349.53 197.976 354.579 197.714C357.159 197.632 359.742 197.971 362.321 197.847C364.927 197.862 367.456 196.963 369.468 195.307C371.358 193.548 372.176 190.473 370.791 188.294C369.191 185.772 365.684 185.494 362.697 185.479L327.784 185.341C325.895 185.195 323.998 185.472 322.23 186.152C320.523 186.957 319.159 188.82 319.558 190.173Z" fill="#805430"/>
<path d="M292.914 180.355C299.781 188.165 310.714 190.748 320.968 192.505C339.594 195.698 358.768 197.543 377.33 193.995C383.03 192.905 388.781 191.241 393.421 187.754C398.061 184.267 401.43 178.646 400.921 172.865C400.521 168.299 397.763 164.165 394.181 161.311C390.487 158.575 386.3 156.577 381.849 155.428C360.361 149.077 337.279 152.146 315.339 156.698C307.628 158.298 299.424 160.376 294.213 166.281C292.113 168.661 290.586 171.744 290.823 174.909C291.062 176.869 291.78 178.739 292.914 180.355Z" fill="#F6AC53"/>
<path d="M381.84 175.728C382.035 172.632 381.568 169.53 380.471 166.628C379.374 163.726 377.671 161.091 375.476 158.899C373.281 156.706 370.645 155.007 367.742 153.913C364.839 152.819 361.736 152.356 358.64 152.554C363.406 155.531 367.93 158.878 372.172 162.564C376.318 166.193 379.618 170.686 381.84 175.728Z" fill="#F49727"/>
<path d="M352.651 172.111C351.212 166.521 348.733 160.958 344.285 157.281C339.837 153.604 333.085 152.3 328.197 155.374C332.964 157.328 337.557 159.684 341.925 162.416C346.309 165.168 349.919 168.993 352.412 173.53C352.574 173.512 352.725 173.442 352.843 173.33C352.962 173.219 353.04 173.071 353.067 172.911C353.094 172.75 353.068 172.586 352.993 172.441C352.918 172.297 352.798 172.181 352.651 172.111Z" fill="#F49727"/>
<path d="M326.402 175.929C326.844 173.359 326.266 170.718 324.789 168.569C323.316 166.45 321.574 164.532 319.605 162.863C317.463 160.882 315.112 158.801 312.213 158.469C309.172 158.121 306.302 159.78 303.691 161.378C312.662 164.872 320.545 170.685 326.533 178.224C326.688 177.163 326.843 176.1 326.402 175.929Z" fill="#F49727"/>
<path d="M29.4509 153.58C31.3625 158.967 32.8704 164.489 33.9619 170.1L43.2329 170.744L56.3979 163.577C52.6887 155.96 50.4293 147.72 49.7349 139.277C49.3249 134.253 49.4049 128.934 46.8839 124.569C43.8699 119.35 37.8839 116.748 32.3009 114.482C31.7128 116.511 31.6734 118.659 32.1867 120.708C32.7001 122.756 33.7478 124.632 35.2229 126.144L29.4509 153.58Z" fill="#805430"/>
<path d="M36.5229 129.668C44.6279 108.76 51.461 94.0139 50.04 72.5679" stroke="#F49727" stroke-width="1.716" stroke-miterlimit="10"/>
<path d="M40.4299 132.239C59.9379 117.298 88.1399 96.627 88.1399 96.627L105.506 100.119L114.617 90.248" stroke="#F49727" stroke-width="1.716" stroke-miterlimit="10"/>
<path d="M75.223 75.7229C61.013 98.1919 53.2289 107.982 39.0229 130.451" stroke="#F49727" stroke-width="1.716" stroke-miterlimit="10"/>
<path d="M25.5689 145.606C20.099 154.591 12.1458 161.801 2.66895 166.366" stroke="#F49727" stroke-width="1.716" stroke-miterlimit="10"/>
<path d="M30.1099 148.694C26.3689 160.374 20.7231 171.355 13.4009 181.194" stroke="#F49727" stroke-width="1.716" stroke-miterlimit="10"/>
<path d="M7.82288 175.339C17.1017 167.918 24.1562 158.084 28.2119 146.916" stroke="#F49727" stroke-width="1.716" stroke-miterlimit="10"/>
<path d="M204.923 209.894C207.808 211.565 211.433 211.267 214.645 210.374C217.857 209.481 220.931 208.047 224.229 207.561C229.604 206.769 235.104 208.603 239.673 211.542C244.242 214.481 248.027 218.467 252.833 222.687L272.341 232.458C274.008 233.293 275.789 234.151 277.641 233.968C280.815 233.656 282.51 230.321 284.523 227.848C292.41 218.157 302.47 209.028 311.273 198.679L336.35 216.087C321.279 235.307 304.788 253.37 287.016 270.124C284.41 272.581 281.586 275.109 278.073 275.806C273.083 276.795 268.273 273.871 263.773 271.501C257.121 268.002 249.989 265.505 242.607 264.09C240.755 263.736 238.607 263.525 237.201 264.778C236.067 265.785 235.791 267.421 235.583 268.923C234.222 278.771 232.861 288.623 232.21 299.852C219.754 302.552 207.138 307.445 194.436 306.416C192.768 306.281 190.77 302.033 189.444 301.016C187.638 299.625 187.155 297.149 186.799 294.897C182.76 269.343 178.716 243.297 182.639 217.722L185.631 214.071C185.234 211.82 185.628 209.501 186.746 207.507C187.863 205.513 189.636 203.967 191.763 203.131C194.492 202.146 198.007 202.157 199.501 199.67C201.735 202.688 203.438 206.065 204.537 209.656L204.647 209.547L204.923 209.894Z" fill="#A8D8E1"/>
<path d="M125.654 302.356C125.489 293.541 128.415 288.556 125.593 280.208C122.771 271.86 117.448 264.047 109.698 259.843C104.451 256.998 98.4349 255.949 92.5089 255.23C80.4429 253.766 63.6219 249.066 54.8739 240.63C49.2929 235.247 47.4089 227.362 44.9099 220.022C40.8309 208.039 38.1839 195.769 34.1099 183.787C33.0289 180.612 31.9839 176.926 32.6189 173.634C33.7569 167.742 39.2689 168.119 45.0079 166.368C50.7469 164.617 54.3229 164.086 59.6329 161.152C63.9059 174.095 68.8899 182.325 74.8099 194.603C76.2866 198.055 78.3102 201.246 80.8029 204.053C91.5529 215.097 109.338 211.741 123.067 213.874H125.303C127.603 212.423 129.003 213.174 131.669 212.685C135.282 212.18 138.945 212.14 142.569 212.565L156.561 213.609C157.353 210.561 158.306 207.556 159.417 204.609C159.465 204.217 159.602 203.841 159.818 203.51C160.033 203.179 160.322 202.901 160.661 202.699C161 202.496 161.381 202.374 161.775 202.341C162.169 202.308 162.565 202.366 162.933 202.509C166.122 202.952 169.442 203.477 172.061 205.349C174.68 207.221 176.323 210.874 174.89 213.757L185.625 214.066L185.854 214.946C194.038 219.815 203.182 222.849 212.654 223.838C212.651 223.813 212.654 223.788 212.662 223.764C212.671 223.741 212.685 223.72 212.704 223.703C213.329 251.154 213.953 278.603 215.268 306.836C186.532 313.692 154.097 311.975 125.837 303.363L125.654 302.356Z" fill="#CEE9EE"/>
<path d="M199.818 239.358C200.929 239.358 201.83 238.457 201.83 237.346C201.83 236.235 200.929 235.334 199.818 235.334C198.707 235.334 197.806 236.235 197.806 237.346C197.806 238.457 198.707 239.358 199.818 239.358Z" fill="#2DA1B6"/>
<path d="M201.494 271.774C202.605 271.774 203.506 270.873 203.506 269.762C203.506 268.651 202.605 267.75 201.494 267.75C200.383 267.75 199.482 268.651 199.482 269.762C199.482 270.873 200.383 271.774 201.494 271.774Z" fill="#2DA1B6"/>
<path d="M152.917 271.216C154.028 271.216 154.929 270.315 154.929 269.204C154.929 268.093 154.028 267.192 152.917 267.192C151.806 267.192 150.905 268.093 150.905 269.204C150.905 270.315 151.806 271.216 152.917 271.216Z" fill="#2DA1B6"/>
<path d="M202.053 300.836C203.164 300.836 204.065 299.935 204.065 298.824C204.065 297.713 203.164 296.812 202.053 296.812C200.942 296.812 200.041 297.713 200.041 298.824C200.041 299.935 200.942 300.836 202.053 300.836Z" fill="#2DA1B6"/>
<path d="M153.476 300.279C154.587 300.279 155.488 299.378 155.488 298.267C155.488 297.156 154.587 296.255 153.476 296.255C152.365 296.255 151.464 297.156 151.464 298.267C151.464 299.378 152.365 300.279 153.476 300.279Z" fill="#2DA1B6"/>
<path d="M154.241 239.877C155.352 239.877 156.253 238.976 156.253 237.865C156.253 236.754 155.352 235.853 154.241 235.853C153.13 235.853 152.229 236.754 152.229 237.865C152.229 238.976 153.13 239.877 154.241 239.877Z" fill="#2DA1B6"/>
<path d="M285.329 226.447C282.629 227.658 279.74 229.521 279.647 231.198C279.554 232.875 276.847 231.57 276.293 230.266C275.739 228.962 272.567 228.497 271.915 229.614C271.263 230.731 266.978 227.565 265.86 230.08C264.742 232.595 274.06 241.817 274.06 241.817L291.199 233.527L285.329 226.447Z" fill="#A8D8E1"/>
<path d="M311.271 198.679L337.679 216.294L330.04 227.472L302.468 205.675L311.271 198.679Z" fill="#C9E7EC"/>
<path d="M62.1889 159.24L27.2579 171.256L30.1929 182.993L66.5209 170.558L62.1889 159.24Z" fill="#E3F2F5"/>
<path d="M164.412 159.024C163.492 158.417 162.507 157.916 161.474 157.532L164.412 159.024Z" fill="#805430"/>
<path d="M164.412 159.024C163.492 158.417 162.507 157.916 161.474 157.532" stroke="#61391F" stroke-width="1.789" stroke-miterlimit="10" stroke-linecap="round"/>
<path d="M152.711 165.55C153.49 165.474 153.788 166.873 155.038 167.086L152.711 165.55Z" fill="#805430"/>
<path d="M152.711 165.55C153.49 165.474 153.788 166.873 155.038 167.086" stroke="#61391F" stroke-width="0.748" stroke-miterlimit="10" stroke-linecap="round"/>
<path d="M182.447 164.435C183.06 164.047 183.775 163.849 184.501 163.867C185.226 163.885 185.93 164.117 186.524 164.535C187.114 164.972 187.605 165.528 187.965 166.168C188.325 166.807 188.545 167.516 188.611 168.247C188.737 169.494 188.498 170.75 187.923 171.863C187.348 172.976 186.462 173.898 185.373 174.517C184.267 175.081 183.02 175.31 181.786 175.175C180.551 175.041 179.383 174.549 178.424 173.76" fill="#805430"/>
<path d="M182.447 164.435C183.06 164.047 183.775 163.849 184.501 163.867C185.226 163.885 185.93 164.117 186.524 164.535C187.114 164.972 187.605 165.528 187.965 166.168C188.325 166.807 188.545 167.516 188.611 168.247C188.737 169.494 188.498 170.75 187.923 171.863C187.348 172.976 186.462 173.898 185.373 174.517C184.267 175.081 183.02 175.31 181.786 175.175C180.551 175.041 179.383 174.549 178.424 173.76" stroke="#61391F" stroke-width="1.342" stroke-miterlimit="10" stroke-linecap="round"/>
<path d="M179.717 170.241C180.049 170.243 180.376 170.166 180.672 170.015C180.968 169.865 181.223 169.645 181.417 169.376C181.61 169.098 181.736 168.78 181.785 168.446C181.835 168.111 181.806 167.77 181.701 167.449C182.253 167.027 182.925 166.79 183.62 166.773C183.966 166.769 184.31 166.836 184.63 166.97C184.949 167.104 185.238 167.302 185.478 167.552C185.858 167.996 186.066 168.561 186.064 169.145C186.063 169.729 185.851 170.294 185.468 170.735" fill="#805430"/>
<path d="M179.717 170.241C180.049 170.243 180.376 170.166 180.672 170.015C180.968 169.865 181.223 169.645 181.417 169.376C181.61 169.098 181.736 168.78 181.785 168.446C181.835 168.111 181.806 167.77 181.701 167.449C182.253 167.027 182.925 166.79 183.62 166.773C183.966 166.769 184.31 166.836 184.63 166.97C184.949 167.104 185.238 167.302 185.478 167.552C185.858 167.996 186.066 168.561 186.064 169.145C186.063 169.729 185.851 170.294 185.468 170.735" stroke="#61391F" stroke-width="0.92" stroke-miterlimit="10" stroke-linecap="round"/>
<path d="M156.429 174.388C159 175.553 161.908 175.739 164.606 174.909L156.429 174.388Z" fill="#805430"/>
<path d="M156.429 174.388C159 175.553 161.908 175.739 164.606 174.909" stroke="#61391F" stroke-width="1.789" stroke-miterlimit="10" stroke-linecap="round"/>
<path d="M280.159 235.39C281.559 237.206 283.931 240.979 284.071 248.104" stroke="#6FBFCD" stroke-width="1.716" stroke-miterlimit="10" stroke-linecap="round"/>
<path d="M272.336 232.458C268.981 238.603 268.562 243.214 268.422 248.244" stroke="#6FBFCD" stroke-width="1.716" stroke-miterlimit="10" stroke-linecap="round"/>
<path d="M269.54 231.338C263.113 233.433 260.318 241.817 260.318 241.817" stroke="#6FBFCD" stroke-width="1.716" stroke-miterlimit="10" stroke-linecap="round"/>
<path d="M98.844 212.009C97.444 209.96 94 208.469 91.951 208.842C89.902 209.215 89.901 206.606 88.225 205.489C86.549 204.372 83.914 204.877 82.356 204.464C80.798 204.051 81.238 201.017 80.4 199.807C79.562 198.597 73.507 199.713 73.507 199.713L78.258 212.475C78.258 212.475 90.833 218.343 91.112 218.25C91.391 218.157 98.844 212.009 98.844 212.009Z" fill="#CEE9EE"/>
<path d="M76.4409 205.209C70.4329 206.187 65.6819 211.636 65.6819 211.636" stroke="#AEDBE3" stroke-width="1.716" stroke-miterlimit="10" stroke-linecap="round"/>
<path d="M125.857 271.438C121.2 261.006 122.876 226.727 126.23 218.343" stroke="#AEDBE3" stroke-width="1.716" stroke-miterlimit="10" stroke-linecap="round"/>
<path d="M50.3139 75.8078L46.0659 38.7168" stroke="#F49727" stroke-width="1.716" stroke-miterlimit="10"/>
<path d="M57.1799 51.958L58.7019 65.25L50.3139 75.808L40.2319 67.799L38.6519 54" stroke="#F49727" stroke-width="1.716" stroke-miterlimit="10"/>
<path d="M56.8289 55.5669C58.6586 55.5669 60.1419 54.0836 60.1419 52.2539C60.1419 50.4242 58.6586 48.9409 56.8289 48.9409C54.9991 48.9409 53.5159 50.4242 53.5159 52.2539C53.5159 54.0836 54.9991 55.5669 56.8289 55.5669Z" fill="#F49727"/>
<path d="M46.1239 42.5369C47.9536 42.5369 49.4369 41.0536 49.4369 39.2239C49.4369 37.3942 47.9536 35.9109 46.1239 35.9109C44.2942 35.9109 42.8109 37.3942 42.8109 39.2239C42.8109 41.0536 44.2942 42.5369 46.1239 42.5369Z" fill="#F49727"/>
<path d="M38.5099 57.201C40.3396 57.201 41.8229 55.7177 41.8229 53.888C41.8229 52.0582 40.3396 50.575 38.5099 50.575C36.6802 50.575 35.1969 52.0582 35.1969 53.888C35.1969 55.7177 36.6802 57.201 38.5099 57.201Z" fill="#F49727"/>
<path d="M96.7639 63.8211L88.4419 74.2961L75.0439 75.8311L73.5789 63.0381L82.2179 52.1641" stroke="#F49727" stroke-width="1.716" stroke-miterlimit="10"/>
<path d="M96.3059 67.096C98.1356 67.096 99.6189 65.6127 99.6189 63.783C99.6189 61.9533 98.1356 60.47 96.3059 60.47C94.4762 60.47 92.9929 61.9533 92.9929 63.783C92.9929 65.6127 94.4762 67.096 96.3059 67.096Z" fill="#F49727"/>
<path d="M110.376 42.4131C112.206 42.4131 113.689 40.9298 113.689 39.1001C113.689 37.2704 112.206 35.7871 110.376 35.7871C108.546 35.7871 107.063 37.2704 107.063 39.1001C107.063 40.9298 108.546 42.4131 110.376 42.4131Z" fill="#F49727"/>
<path d="M97.6939 34.2381C99.5236 34.2381 101.007 32.7548 101.007 30.9251C101.007 29.0953 99.5236 27.6121 97.6939 27.6121C95.8641 27.6121 94.3809 29.0953 94.3809 30.9251C94.3809 32.7548 95.8641 34.2381 97.6939 34.2381Z" fill="#F49727"/>
<path d="M113.063 59.878C114.893 59.878 116.376 58.3947 116.376 56.565C116.376 54.7352 114.893 53.252 113.063 53.252C111.233 53.252 109.75 54.7352 109.75 56.565C109.75 58.3947 111.233 59.878 113.063 59.878Z" fill="#F49727"/>
<path d="M113.089 77.0271C114.919 77.0271 116.402 75.5438 116.402 73.7141C116.402 71.8844 114.919 70.4011 113.089 70.4011C111.259 70.4011 109.776 71.8844 109.776 73.7141C109.776 75.5438 111.259 77.0271 113.089 77.0271Z" fill="#F49727"/>
<path d="M114.949 93.4409C116.779 93.4409 118.262 91.9577 118.262 90.1279C118.262 88.2982 116.779 86.8149 114.949 86.8149C113.119 86.8149 111.636 88.2982 111.636 90.1279C111.636 91.9577 113.119 93.4409 114.949 93.4409Z" fill="#F49727"/>
<path d="M92.3079 87.9981C94.1376 87.9981 95.6209 86.5148 95.6209 84.6851C95.6209 82.8553 94.1376 81.3721 92.3079 81.3721C90.4782 81.3721 88.9949 82.8553 88.9949 84.6851C88.9949 86.5148 90.4782 87.9981 92.3079 87.9981Z" fill="#F49727"/>
<path d="M82.1979 55.2981C84.0276 55.2981 85.5109 53.8148 85.5109 51.9851C85.5109 50.1554 84.0276 48.6721 82.1979 48.6721C80.3682 48.6721 78.8849 50.1554 78.8849 51.9851C78.8849 53.8148 80.3682 55.2981 82.1979 55.2981Z" fill="#F49727"/>
<path d="M75.0439 75.8311L92.5929 53.8151L91.3749 40.0171L97.7949 31.4131" stroke="#F49727" stroke-width="1.716" stroke-miterlimit="10"/>
<path d="M91.835 48.168L102.491 48.006L110.801 38.198" stroke="#F49727" stroke-width="1.716" stroke-miterlimit="10"/>
<path d="M112.582 73.9709L92.8369 97.1849" stroke="#F49727" stroke-width="1.716" stroke-miterlimit="10"/>
<path d="M105.592 82.0309L105.425 67.4049L112.989 57.1909" stroke="#F49727" stroke-width="1.716" stroke-miterlimit="10"/>
<path d="M94.5619 94.719L92.7399 85.885" stroke="#F49727" stroke-width="1.716" stroke-miterlimit="10"/>
<path opacity="0.12" d="M308.423 105.284C309.357 112.9 314.255 119.459 317.031 126.611C319.807 133.763 321.565 141.733 319.361 149.082C320.95 148.419 321.661 146.603 322.205 144.97C324.976 136.685 327.785 128.084 326.876 119.395C325.866 109.738 320.376 101.095 318.538 91.5569C316.992 83.3797 318.187 74.9208 321.938 67.4919C315.499 69.7099 306.335 88.2359 308.423 105.284Z" fill="#F49727"/>
<path opacity="0.12" d="M376.975 125.147C376.334 130.377 372.975 134.881 371.064 139.793C369.153 144.705 367.95 150.177 369.464 155.224C368.373 154.769 367.885 153.524 367.51 152.4C365.61 146.711 363.679 140.805 364.303 134.837C364.996 128.206 368.769 122.268 370.029 115.72C371.092 110.105 370.272 104.296 367.697 99.1941C372.117 100.717 378.41 113.44 376.975 125.147Z" fill="#F49727"/>
<path opacity="0.12" d="M340.028 160.9C334.128 152.976 333.228 142.272 334.865 132.527C336.502 122.782 340.39 113.583 343.292 104.137C346.194 94.6909 348.123 84.5529 345.723 74.9669C344.382 69.6039 341.748 64.6669 339.139 59.7949C349.087 72.6949 359.339 87.2539 358.387 103.515C357.569 117.497 348.487 129.868 347.011 143.796C346.079 152.566 348.251 161.431 351.718 169.541C345.344 167.158 340.477 161.505 340.028 160.9Z" fill="#F49727"/>
<path d="M20.5979 150.717C20.5979 150.717 12.4229 138.45 14.9679 133.52C17.5129 128.59 24.3349 120.964 27.9409 118.778C31.5469 116.592 43.2729 123.578 48.9029 128.136C48.9029 128.136 42.8269 142.903 36.5209 147.762C30.2149 152.621 26.1829 143.27 21.9139 145.962C17.6449 148.654 20.5979 150.717 20.5979 150.717Z" fill="#8C6443"/>
</g>
<defs>
<clipPath id="clip0">
<rect width="402.423" height="313.185" fill="white" transform="translate(0.422974)"/>
</clipPath>
</defs>
</svg>
