<svg width="403" height="314" viewBox="0 0 403 314" fill="none" xmlns="http://www.w3.org/2000/svg">
<g clip-path="url(#clip0)">
<path d="M73.089 271.506C43.317 239.612 -18.125 60.412 58.982 23.742C153.704 -21.306 112.974 129.366 283.694 100.272C437.094 74.128 331.319 269.989 229.176 302.878C148.13 328.974 100.346 300.705 73.089 271.506Z" fill="#F8E8F0"/>
<path d="M400.5 172.865C400.1 168.299 397.342 164.165 393.76 161.311C390.066 158.575 385.879 156.577 381.428 155.428C359.94 149.077 336.858 152.146 314.918 156.698C307.206 158.298 299.003 160.376 293.792 166.281C291.692 168.661 290.165 171.744 290.402 174.909C290.641 176.868 291.359 178.739 292.492 180.355C298.873 187.612 308.768 190.355 318.361 192.116C317.12 194.858 315.282 197.287 312.981 199.227C312.795 199.383 312.601 199.55 312.414 199.727L310.849 198.683L302.049 205.683L303.509 206.837C297.147 213.605 290.649 220.031 285.096 226.68L284.91 226.455C282.21 227.666 279.321 229.529 279.228 231.206C279.135 232.883 276.428 231.578 275.874 230.274C275.32 228.97 272.148 228.504 271.496 229.622C270.916 230.622 267.461 228.222 265.92 229.462L252.409 222.695C247.603 218.475 243.818 214.489 239.249 211.55C234.68 208.611 229.18 206.777 223.805 207.569C220.505 208.055 217.433 209.489 214.221 210.382C211.009 211.275 207.384 211.573 204.5 209.902L204.222 209.552L204.112 209.661C203.013 206.071 201.31 202.694 199.077 199.675C198.777 200.168 198.379 200.593 197.908 200.926C197.627 200.225 197.246 199.569 196.778 198.977C196.219 193.429 196.353 187.833 197.178 182.318C198.366 178.975 201.006 171.164 201.021 167.698H201.056L204.549 161.098C204.204 161.047 203.86 160.98 203.516 160.924L203.921 160.644C219.384 128.657 234.848 96.6707 250.313 64.684L251.627 62.778C257.737 64.329 264.207 65.184 270.327 63.657C276.447 62.13 282.14 57.832 283.97 51.8C285.739 45.971 283.53 39.342 279.144 35.115C274.758 30.888 268.5 28.927 262.409 29.015C260.531 29.042 258.5 29.215 256.929 28.182C255.205 27.053 254.604 24.868 253.729 23.001C250.839 16.811 243.983 13.221 237.194 12.458C230.405 11.695 223.594 13.304 216.985 15.044C215.9 6.29299 205.907 0.0349933 197.4 2.36199C188.893 4.68899 183.475 14.552 185.524 23.13C187.573 31.708 196.324 37.966 205.14 37.737C190.279 71.3523 175.551 105.059 160.956 138.858L161.063 139.176C160.968 139.076 160.863 138.976 160.773 138.876C159.501 141.33 158.229 143.783 156.956 146.236C157.508 146.836 158.082 147.417 158.656 147.995C157.16 150.246 156.428 152.92 156.57 155.619L149.831 161.595C149.233 162.035 148.769 162.632 148.489 163.32C148.38 163.832 148.42 164.363 148.605 164.853C148.789 165.342 149.109 165.769 149.528 166.082C150.328 166.747 151.354 167.071 152.428 167.794C149.994 171.773 149.194 176.539 150.196 181.094C151.188 183.524 153.419 184.179 155.822 185.235C158.503 186.368 161.284 187.246 164.129 187.858C164.974 188.093 165.766 188.489 166.461 189.024C167.151 189.504 167.315 192.654 167.113 193.4C167.278 196.787 166.419 198.093 165.305 201.3L164.689 202.846C163.96 202.722 163.229 202.615 162.504 202.514C162.136 202.37 161.74 202.313 161.346 202.346C160.952 202.379 160.571 202.501 160.232 202.704C159.893 202.906 159.604 203.184 159.389 203.515C159.173 203.846 159.036 204.222 158.988 204.614C157.877 207.561 156.924 210.566 156.132 213.614L142.139 212.57C138.515 212.144 134.852 212.185 131.239 212.69C128.568 213.181 127.167 212.428 124.872 213.879H122.64C115.155 212.716 106.467 213.179 98.369 212.058L98.421 212.016C97.021 209.967 93.577 208.476 91.528 208.849C89.479 209.222 89.478 206.613 87.802 205.496C86.126 204.379 83.492 204.884 81.933 204.471C80.374 204.058 80.815 201.024 79.977 199.813C79.61 199.284 78.245 199.2 76.824 199.273C75.934 197.763 75.142 196.185 74.382 194.608C70.203 185.94 66.492 179.284 63.166 171.568L66.098 170.568L61.767 159.24L55.045 161.552C51.8885 154.504 49.95 146.973 49.312 139.277C49.03 135.821 48.98 132.226 48.156 128.898C48.365 128.415 48.48 128.136 48.48 128.136C48.26 127.957 48.015 127.769 47.78 127.584C47.764 127.536 47.749 127.484 47.733 127.44C64.942 114.419 85.203 99.54 87.922 97.54L105.39 101.053L112.852 92.967C113.542 93.3669 114.353 93.5027 115.136 93.349C115.918 93.1954 116.618 92.7628 117.105 92.1317C117.592 91.5006 117.834 90.714 117.785 89.9183C117.735 89.1225 117.398 88.3717 116.837 87.8056C116.276 87.2395 115.528 86.8967 114.732 86.8408C113.937 86.7849 113.148 87.0198 112.513 87.5019C111.878 87.9839 111.44 88.6802 111.28 89.4613C111.12 90.2424 111.249 91.055 111.643 91.748L104.783 99.181L93.73 96.961L111.053 76.6C111.753 76.9917 112.572 77.1154 113.357 76.9483C114.142 76.7811 114.84 76.3344 115.32 75.6913C115.8 75.0482 116.03 74.2526 115.967 73.4526C115.904 72.6525 115.552 71.9026 114.978 71.3424C114.403 70.7822 113.645 70.45 112.843 70.4075C112.042 70.365 111.252 70.6153 110.622 71.1116C109.991 71.6079 109.562 72.3164 109.415 73.1054C109.268 73.8943 109.413 74.7098 109.822 75.4L106 79.887L105.862 67.687L111.736 59.755C112.512 59.9851 113.346 59.9251 114.081 59.5861C114.817 59.2471 115.404 58.6523 115.733 57.9125C116.062 57.1727 116.111 56.3385 115.871 55.5652C115.631 54.7919 115.117 54.1324 114.427 53.7096C113.736 53.2868 112.915 53.1295 112.117 53.2671C111.319 53.4047 110.599 53.8277 110.09 54.4573C109.58 55.087 109.318 55.8803 109.35 56.6894C109.382 57.4985 109.708 58.2682 110.266 58.855L104.139 67.127L104.308 81.877L94.7 93.177L93.536 87.55C94.2483 87.1488 94.7902 86.5021 95.0605 85.7307C95.3308 84.9592 95.311 84.1157 95.0048 83.3577C94.6986 82.5998 94.127 81.9792 93.3968 81.6118C92.6665 81.2445 91.8274 81.1556 91.0364 81.3617C90.2453 81.5678 89.5563 82.0548 89.0981 82.7318C88.6399 83.4087 88.4437 84.2293 88.5463 85.0403C88.6489 85.8513 89.0432 86.5973 89.6556 87.1388C90.268 87.6803 91.0565 87.9804 91.874 87.983L93.288 94.834L91.807 96.574L87.515 95.711L87.21 95.935C86.963 96.116 65.392 111.935 47.079 125.782C46.89 125.371 46.69 124.965 46.461 124.569C45.9933 123.769 45.4509 123.015 44.841 122.318C49.466 115.218 53.489 109.318 57.413 103.565C62.75 95.736 68.27 87.638 75.247 76.622L88.469 75.108L94.946 66.956C95.7187 67.1905 96.5503 67.1361 97.2858 66.803C98.0214 66.4699 98.6108 65.8808 98.9444 65.1455C99.2779 64.4101 99.3328 63.5786 99.0988 62.8058C98.8648 62.0329 98.3579 61.3715 97.6725 60.9446C96.9871 60.5178 96.1699 60.3546 95.3731 60.4854C94.5763 60.6163 93.8542 61.0323 93.3413 61.656C92.8285 62.2797 92.5598 63.0685 92.5853 63.8756C92.6108 64.6827 92.9288 65.4529 93.48 66.043L87.569 73.485L76.585 74.743L93.054 54.081L92.606 49.008L102.47 48.857L108.311 41.963C109.007 42.3584 109.822 42.4876 110.606 42.3265C111.39 42.1655 112.088 41.7252 112.571 41.0877C113.055 40.4501 113.29 39.6586 113.233 38.8605C113.177 38.0624 112.832 37.3121 112.264 36.7491C111.695 36.1862 110.941 35.8489 110.143 35.8002C109.344 35.7514 108.555 35.9945 107.922 36.4841C107.289 36.9737 106.856 37.6766 106.703 38.4619C106.55 39.2471 106.687 40.0613 107.089 40.753L101.665 47.153L92.455 47.294L91.834 40.266L96.42 34.123C97.1999 34.3394 98.0319 34.265 98.761 33.9135C99.49 33.5619 100.066 32.9574 100.383 32.2124C100.699 31.4673 100.734 30.6327 100.48 29.864C100.227 29.0954 99.7028 28.445 99.0054 28.0342C98.3081 27.6234 97.4851 27.4801 96.6899 27.631C95.8948 27.782 95.1816 28.2169 94.6833 28.8547C94.185 29.4926 93.9356 30.2898 93.9815 31.0979C94.0275 31.9059 94.3656 32.6698 94.933 33.247L90.069 39.765L91.285 53.548L75.238 73.68L74.048 63.294L80.589 55.062C81.3355 55.3459 82.1598 55.349 82.9084 55.0705C83.657 54.7921 84.279 54.2511 84.6585 53.5484C85.038 52.8456 85.1492 52.0288 84.9715 51.2502C84.7937 50.4715 84.3391 49.7839 83.6922 49.3154C83.0454 48.8469 82.2503 48.6294 81.455 48.7033C80.6598 48.7773 79.9184 49.1377 79.3691 49.7174C78.8197 50.2972 78.4997 51.0568 78.4686 51.8549C78.4375 52.653 78.6974 53.4352 79.2 54.056L72.267 62.783L73.755 75.783C66.811 86.732 61.313 94.8 56 102.6C52.132 108.271 48.168 114.087 43.626 121.046C42.8558 120.331 42.0321 119.676 41.162 119.086C46.781 104.6 51 92.124 50.637 76.248L59.171 65.505L57.988 55.161C58.7001 54.7804 59.2497 54.154 59.5343 53.3984C59.8189 52.6428 59.8192 51.8095 59.5351 51.0537C59.251 50.2979 58.7019 49.6711 57.9901 49.29C57.2782 48.9089 56.4521 48.7996 55.6656 48.9823C54.8791 49.165 54.1859 49.6274 53.7149 50.2832C53.244 50.9391 53.0274 51.7438 53.1056 52.5474C53.1838 53.351 53.5515 54.0989 54.14 54.6516C54.7286 55.2044 55.498 55.5243 56.305 55.552L57.386 64.994L50.523 73.634C50.503 73.259 50.497 72.894 50.472 72.515L50.378 72.521L46.916 42.292C47.6633 41.995 48.2771 41.4363 48.643 40.7202C49.0089 40.0041 49.1019 39.1794 48.9048 38.3998C48.7076 37.6202 48.2337 36.9388 47.5713 36.4828C46.909 36.0267 46.1034 35.8271 45.3047 35.921C44.5061 36.015 43.7688 36.3962 43.2304 36.9935C42.692 37.5908 42.3891 38.3635 42.3782 39.1676C42.3674 39.9717 42.6493 40.7523 43.1714 41.3639C43.6935 41.9756 44.4202 42.3765 45.216 42.492L48.8 73.848L40.618 67.348L39.425 56.9C40.1526 56.5713 40.7361 55.9896 41.067 55.263C41.3978 54.5364 41.4535 53.7143 41.2236 52.9497C40.9938 52.1851 40.494 51.53 39.8174 51.1063C39.1407 50.6825 38.3332 50.5189 37.5449 50.646C36.7567 50.773 36.0414 51.182 35.5322 51.7969C35.0229 52.4118 34.7543 53.1908 34.7763 53.9888C34.7983 54.7869 35.1095 55.5499 35.6519 56.1358C36.1943 56.7216 36.931 57.0906 37.725 57.174L39 68.249L48.923 76.133C49.303 91.654 45.192 103.933 39.683 118.151C37.177 116.737 34.5699 115.511 31.883 114.482C31.4853 115.838 31.3415 117.256 31.459 118.664C29.797 118.264 28.412 118.24 27.522 118.778C23.917 120.964 17.099 128.59 14.55 133.52C13.14 136.247 15.013 141.22 16.968 145.12C16.748 147.08 18.81 149.376 19.74 150.301C19.8706 150.457 20.0182 150.597 20.18 150.72L20.425 150.84C15.411 157.072 9.07366 162.112 1.87201 165.593L2.61301 167.139C10.1625 163.489 16.7898 158.18 22 151.61L24.384 152.778C20.2522 161.291 14.2664 168.771 6.86601 174.668L7.93401 176.01C15.5336 169.955 21.6807 162.275 25.924 153.533L26.901 154.012C23.2905 163.536 18.3731 172.511 12.29 180.68L13.665 181.704C19.81 173.451 24.7835 164.387 28.444 154.77L29.618 155.345C31.128 159.826 32.361 164.396 33.31 169.029L26.835 171.256L29.769 182.993L33.069 181.864C33.269 182.518 33.469 183.164 33.684 183.785C37.763 195.767 40.41 208.037 44.489 220.02C46.989 227.36 48.872 235.245 54.453 240.628C63.201 249.066 80.022 253.766 92.088 255.228C98.014 255.947 104.03 256.996 109.277 259.841C117.027 264.041 122.35 271.853 125.172 280.206C127.994 288.559 125.072 293.539 125.232 302.354L125.413 303.363C153.673 311.975 186.108 313.692 214.844 306.836C214.802 305.927 214.766 305.026 214.725 304.12C220.439 302.749 226.125 301.075 231.783 299.85C232.434 288.617 233.795 278.769 235.156 268.921C235.364 267.421 235.64 265.783 236.773 264.776C238.183 263.523 240.328 263.734 242.18 264.088C249.562 265.503 256.694 268.001 263.346 271.499C267.846 273.869 272.66 276.793 277.646 275.804C281.159 275.104 283.983 272.579 286.589 270.122C301.237 256.304 315.017 241.593 327.849 226.074L329.616 227.474L337.254 216.296L332.644 213.221C334.363 208.845 337.304 205.055 341.117 202.305C344.931 199.555 349.455 197.96 354.15 197.711C356.73 197.629 359.313 197.968 361.892 197.844C364.498 197.859 367.027 196.96 369.039 195.304C369.086 195.26 369.124 195.204 369.17 195.161C371.758 194.866 374.338 194.488 376.906 193.997C382.606 192.907 388.356 191.243 392.996 187.756C397.636 184.269 401.007 178.646 400.5 172.865Z" fill="#E3DEE6" stroke="#E3DEE6" stroke-width="3.745" stroke-linejoin="round"/>
<path d="M165.311 201.3C166.425 198.1 167.284 196.792 167.118 193.4C167.318 192.654 167.157 189.5 166.467 189.024C165.772 188.489 164.98 188.093 164.135 187.858C161.29 187.246 158.509 186.368 155.828 185.235C153.428 184.179 151.194 183.524 150.202 181.094C149.2 176.539 150 171.772 152.435 167.794C151.358 167.071 150.335 166.747 149.535 166.082C149.117 165.768 148.796 165.342 148.612 164.853C148.428 164.363 148.388 163.831 148.496 163.32C148.777 162.632 149.241 162.036 149.839 161.595L156.578 155.619C156.479 153.846 156.762 152.072 157.407 150.418C158.052 148.763 159.044 147.266 160.317 146.028C160.317 146.028 170.406 133.062 188.917 138.746C207.428 144.43 201.091 165.706 201.091 165.706C201.012 168.383 200.023 170.934 199.217 173.488C196.686 181.729 195.856 190.399 196.779 198.971C199.71 202.633 198.82 208.337 195.779 211.906C192.738 215.475 188.079 217.256 183.484 218.192C179.726 219.119 175.795 219.082 172.056 218.084C168.383 216.927 165.066 214.116 164.116 210.384C163.261 207.023 162.329 207.702 163.981 204.652" fill="#805430"/>
<path d="M184.863 162.267C184.398 166.367 182.814 179.686 196.6 183.878C196.6 183.878 202.189 168.978 200.792 166.366L185.792 158.914L184.863 162.267Z" fill="#391D0C"/>
<path d="M160.956 138.859C175.617 105.105 190.346 71.3976 205.141 37.7369C196.325 37.9659 187.573 31.7079 185.525 23.1299C183.477 14.5519 188.894 4.68792 197.4 2.36192C205.906 0.0359228 215.9 6.29292 216.987 15.0439C223.594 13.3039 230.407 11.6949 237.196 12.4579C243.985 13.2209 250.842 16.8109 253.732 22.9999C254.604 24.8669 255.205 27.0519 256.932 28.1809C258.503 29.2099 260.532 29.0409 262.412 29.0139C268.503 28.9259 274.761 30.8869 279.147 35.1139C283.533 39.3409 285.742 45.9699 283.973 51.7989C282.143 57.8309 276.434 62.1229 270.317 63.6489C264.2 65.1749 257.731 64.3209 251.617 62.7699L250.3 64.6769L203.907 160.637L199.391 163.758L177.407 156.865L163.621 146.805L160.956 138.859Z" fill="#CEE9EE"/>
<path d="M194.671 152.028L241.71 53.2671" stroke="#AEDBE3" stroke-width="1.716" stroke-miterlimit="10"/>
<path d="M186.852 149.568C202.252 116.553 218.352 83.8752 235.152 51.5359" stroke="#AEDBE3" stroke-width="1.716" stroke-miterlimit="10"/>
<path d="M177.351 145.016L222.361 49.259" stroke="#AEDBE3" stroke-width="1.716" stroke-miterlimit="10"/>
<path d="M171.223 138.429C186.552 106.51 201.456 74.3917 215.935 42.073" stroke="#AEDBE3" stroke-width="1.716" stroke-miterlimit="10"/>
<path d="M160.773 138.874L156.957 146.234C167.641 157.809 183.338 165.889 201.047 167.694L204.54 161.094C187.759 158.6 171.786 150.916 160.773 138.874Z" fill="#A8D8E1"/>
<path d="M168.526 188.511C168.526 188.511 180.887 191.211 181.437 191.455C181.987 191.699 169.337 195.49 167.966 196.866L168.526 188.511Z" fill="#71472A"/>
<path d="M29.676 155.374L20.176 150.717C20.176 150.717 15.519 146.617 17.382 144.01C19.245 141.403 30.423 139.91 30.423 139.91L38.061 149.784L29.676 155.374Z" fill="#8C6443"/>
<path d="M319.135 190.173C317.956 193.7 315.826 196.834 312.98 199.227C312.123 199.946 311.101 200.839 311.3 201.94C311.528 202.652 312.017 203.252 312.669 203.619C318.745 208.062 325.216 211.938 332 215.2C333.428 210.35 336.327 206.064 340.296 202.932C344.264 199.8 349.107 197.976 354.156 197.714C356.736 197.632 359.319 197.971 361.898 197.847C364.504 197.862 367.033 196.963 369.045 195.307C370.935 193.548 371.753 190.473 370.368 188.294C368.768 185.772 365.261 185.494 362.274 185.479L327.361 185.341C325.472 185.195 323.575 185.472 321.807 186.152C320.1 186.957 318.736 188.82 319.135 190.173Z" fill="#805430"/>
<path d="M292.491 180.355C299.358 188.165 310.291 190.748 320.545 192.505C339.171 195.698 358.345 197.543 376.907 193.995C382.607 192.905 388.358 191.241 392.998 187.754C397.638 184.267 401.007 178.646 400.498 172.865C400.098 168.299 397.34 164.165 393.758 161.311C390.064 158.575 385.877 156.577 381.426 155.428C359.938 149.077 336.856 152.146 314.916 156.698C307.205 158.298 299.001 160.376 293.79 166.281C291.69 168.661 290.163 171.744 290.4 174.909C290.639 176.869 291.357 178.739 292.491 180.355Z" fill="#F6AC53"/>
<path d="M381.417 175.728C381.612 172.632 381.146 169.53 380.048 166.628C378.951 163.726 377.248 161.091 375.053 158.899C372.858 156.706 370.222 155.007 367.319 153.913C364.416 152.819 361.313 152.356 358.217 152.554C362.983 155.531 367.508 158.878 371.749 162.564C375.895 166.193 379.195 170.686 381.417 175.728Z" fill="#F49727"/>
<path d="M352.228 172.111C350.789 166.521 348.31 160.958 343.862 157.281C339.414 153.604 332.662 152.3 327.774 155.374C332.541 157.328 337.134 159.684 341.502 162.416C345.886 165.168 349.496 168.993 351.989 173.53C352.151 173.512 352.302 173.442 352.421 173.33C352.539 173.219 352.617 173.071 352.644 172.911C352.671 172.75 352.645 172.586 352.57 172.441C352.495 172.297 352.375 172.181 352.228 172.111Z" fill="#F49727"/>
<path d="M325.979 175.929C326.422 173.359 325.843 170.718 324.366 168.569C322.893 166.45 321.151 164.532 319.182 162.863C317.04 160.882 314.689 158.801 311.79 158.469C308.749 158.121 305.879 159.78 303.268 161.378C312.239 164.872 320.122 170.685 326.11 178.224C326.265 177.163 326.42 176.1 325.979 175.929Z" fill="#F49727"/>
<path d="M29.028 153.58C30.9396 158.967 32.4474 164.489 33.539 170.1L42.81 170.744L55.975 163.577C52.2658 155.96 50.0064 147.72 49.312 139.277C48.902 134.253 48.982 128.934 46.461 124.569C43.447 119.35 37.461 116.748 31.878 114.482C31.2899 116.511 31.2505 118.659 31.7638 120.708C32.2772 122.756 33.3249 124.632 34.8 126.144L29.028 153.58Z" fill="#805430"/>
<path d="M36.1 129.668C44.205 108.76 51.038 94.0139 49.617 72.5679" stroke="#F49727" stroke-width="1.716" stroke-miterlimit="10"/>
<path d="M40.007 132.239C59.515 117.298 87.717 96.627 87.717 96.627L105.083 100.119L114.194 90.248" stroke="#F49727" stroke-width="1.716" stroke-miterlimit="10"/>
<path d="M74.8 75.7229C60.59 98.1919 52.806 107.982 38.6 130.451" stroke="#F49727" stroke-width="1.716" stroke-miterlimit="10"/>
<path d="M25.146 145.606C19.6761 154.591 11.7228 161.801 2.24603 166.366" stroke="#F49727" stroke-width="1.716" stroke-miterlimit="10"/>
<path d="M29.687 148.694C25.946 160.374 20.3003 171.355 12.978 181.194" stroke="#F49727" stroke-width="1.716" stroke-miterlimit="10"/>
<path d="M7.40002 175.339C16.6788 167.918 23.7334 158.084 27.789 146.916" stroke="#F49727" stroke-width="1.716" stroke-miterlimit="10"/>
<path d="M204.5 209.894C207.385 211.565 211.01 211.267 214.222 210.374C217.434 209.481 220.508 208.047 223.806 207.561C229.181 206.769 234.681 208.603 239.25 211.542C243.819 214.481 247.604 218.467 252.41 222.687L271.918 232.458C273.585 233.293 275.366 234.151 277.218 233.968C280.392 233.656 282.087 230.321 284.1 227.848C291.987 218.157 302.047 209.028 310.85 198.679L335.927 216.087C320.856 235.307 304.365 253.37 286.593 270.124C283.987 272.581 281.163 275.109 277.65 275.806C272.66 276.795 267.85 273.871 263.35 271.501C256.698 268.002 249.566 265.505 242.184 264.09C240.332 263.736 238.184 263.525 236.778 264.778C235.644 265.785 235.368 267.421 235.16 268.923C233.799 278.771 232.438 288.623 231.787 299.852C219.331 302.552 206.715 307.445 194.013 306.416C192.345 306.281 190.347 302.033 189.021 301.016C187.215 299.625 186.732 297.149 186.376 294.897C182.337 269.343 178.293 243.297 182.216 217.722L185.208 214.071C184.811 211.82 185.205 209.501 186.323 207.507C187.44 205.513 189.213 203.967 191.34 203.131C194.069 202.146 197.584 202.157 199.078 199.67C201.312 202.688 203.015 206.065 204.114 209.656L204.224 209.547L204.5 209.894Z" fill="#A8D8E1"/>
<path d="M125.231 302.356C125.066 293.541 127.992 288.556 125.17 280.208C122.348 271.86 117.025 264.047 109.275 259.843C104.028 256.998 98.012 255.949 92.086 255.23C80.02 253.766 63.199 249.066 54.451 240.63C48.87 235.247 46.986 227.362 44.487 220.022C40.408 208.039 37.761 195.769 33.687 183.787C32.606 180.612 31.561 176.926 32.196 173.634C33.334 167.742 38.846 168.119 44.585 166.368C50.324 164.617 53.9 164.086 59.21 161.152C63.483 174.095 68.467 182.325 74.387 194.603C75.8637 198.055 77.8873 201.246 80.38 204.053C91.13 215.097 108.915 211.741 122.644 213.874H124.88C127.18 212.423 128.58 213.174 131.246 212.685C134.859 212.18 138.522 212.14 142.146 212.565L156.138 213.609C156.93 210.561 157.883 207.556 158.994 204.609C159.042 204.217 159.179 203.841 159.395 203.51C159.61 203.179 159.899 202.901 160.238 202.699C160.577 202.496 160.958 202.374 161.352 202.341C161.746 202.308 162.142 202.366 162.51 202.509C165.699 202.952 169.019 203.477 171.638 205.349C174.257 207.221 175.9 210.874 174.467 213.757L185.202 214.066L185.431 214.946C193.615 219.815 202.759 222.849 212.231 223.838C212.228 223.813 212.231 223.788 212.24 223.764C212.248 223.741 212.262 223.72 212.281 223.703C212.906 251.154 213.53 278.603 214.845 306.836C186.109 313.692 153.674 311.975 125.414 303.363L125.231 302.356Z" fill="#CEE9EE"/>
<path d="M199.395 239.358C200.506 239.358 201.407 238.457 201.407 237.346C201.407 236.235 200.506 235.334 199.395 235.334C198.284 235.334 197.383 236.235 197.383 237.346C197.383 238.457 198.284 239.358 199.395 239.358Z" fill="#2DA1B6"/>
<path d="M201.071 271.774C202.182 271.774 203.083 270.873 203.083 269.762C203.083 268.651 202.182 267.75 201.071 267.75C199.96 267.75 199.059 268.651 199.059 269.762C199.059 270.873 199.96 271.774 201.071 271.774Z" fill="#2DA1B6"/>
<path d="M152.494 271.216C153.605 271.216 154.506 270.315 154.506 269.204C154.506 268.093 153.605 267.192 152.494 267.192C151.383 267.192 150.482 268.093 150.482 269.204C150.482 270.315 151.383 271.216 152.494 271.216Z" fill="#2DA1B6"/>
<path d="M201.63 300.836C202.741 300.836 203.642 299.935 203.642 298.824C203.642 297.713 202.741 296.812 201.63 296.812C200.519 296.812 199.618 297.713 199.618 298.824C199.618 299.935 200.519 300.836 201.63 300.836Z" fill="#2DA1B6"/>
<path d="M153.053 300.279C154.164 300.279 155.065 299.378 155.065 298.267C155.065 297.156 154.164 296.255 153.053 296.255C151.942 296.255 151.041 297.156 151.041 298.267C151.041 299.378 151.942 300.279 153.053 300.279Z" fill="#2DA1B6"/>
<path d="M153.818 239.877C154.929 239.877 155.83 238.976 155.83 237.865C155.83 236.754 154.929 235.853 153.818 235.853C152.707 235.853 151.806 236.754 151.806 237.865C151.806 238.976 152.707 239.877 153.818 239.877Z" fill="#2DA1B6"/>
<path d="M284.906 226.447C282.206 227.658 279.317 229.521 279.224 231.198C279.131 232.875 276.424 231.57 275.87 230.266C275.316 228.962 272.144 228.497 271.492 229.614C270.84 230.731 266.555 227.565 265.437 230.08C264.319 232.595 273.637 241.817 273.637 241.817L290.776 233.527L284.906 226.447Z" fill="#A8D8E1"/>
<path d="M310.848 198.679L337.256 216.294L329.617 227.472L302.045 205.675L310.848 198.679Z" fill="#C9E7EC"/>
<path d="M61.766 159.24L26.835 171.256L29.77 182.993L66.098 170.558L61.766 159.24Z" fill="#E3F2F5"/>
<path d="M163.989 159.024C163.069 158.417 162.084 157.916 161.051 157.532L163.989 159.024Z" fill="#805430"/>
<path d="M163.989 159.024C163.069 158.417 162.084 157.916 161.051 157.532" stroke="#61391F" stroke-width="1.789" stroke-miterlimit="10" stroke-linecap="round"/>
<path d="M152.288 165.55C153.067 165.474 153.365 166.873 154.615 167.086L152.288 165.55Z" fill="#805430"/>
<path d="M152.288 165.55C153.067 165.474 153.365 166.873 154.615 167.086" stroke="#61391F" stroke-width="0.748" stroke-miterlimit="10" stroke-linecap="round"/>
<path d="M182.024 164.435C182.637 164.047 183.352 163.849 184.078 163.867C184.803 163.885 185.507 164.117 186.101 164.535C186.691 164.972 187.182 165.528 187.542 166.168C187.902 166.807 188.122 167.516 188.188 168.247C188.314 169.494 188.075 170.75 187.5 171.863C186.925 172.976 186.039 173.898 184.95 174.517C183.844 175.081 182.597 175.31 181.363 175.175C180.128 175.041 178.96 174.549 178.001 173.76" fill="#805430"/>
<path d="M182.024 164.435C182.637 164.047 183.352 163.849 184.078 163.867C184.803 163.885 185.507 164.117 186.101 164.535C186.691 164.972 187.182 165.528 187.542 166.168C187.902 166.807 188.122 167.516 188.188 168.247C188.314 169.494 188.075 170.75 187.5 171.863C186.925 172.976 186.039 173.898 184.95 174.517C183.844 175.081 182.597 175.31 181.363 175.175C180.128 175.041 178.96 174.549 178.001 173.76" stroke="#61391F" stroke-width="1.342" stroke-miterlimit="10" stroke-linecap="round"/>
<path d="M179.294 170.241C179.626 170.243 179.953 170.166 180.249 170.015C180.545 169.865 180.8 169.645 180.994 169.376C181.187 169.098 181.313 168.78 181.362 168.446C181.412 168.111 181.383 167.77 181.278 167.449C181.831 167.027 182.502 166.79 183.197 166.773C183.544 166.769 183.887 166.836 184.207 166.97C184.526 167.104 184.815 167.302 185.055 167.552C185.435 167.996 185.643 168.561 185.641 169.145C185.64 169.729 185.428 170.294 185.045 170.735" fill="#805430"/>
<path d="M179.294 170.241C179.626 170.243 179.953 170.166 180.249 170.015C180.545 169.865 180.8 169.645 180.994 169.376C181.187 169.098 181.313 168.78 181.362 168.446C181.412 168.111 181.383 167.77 181.278 167.449C181.831 167.027 182.502 166.79 183.197 166.773C183.544 166.769 183.887 166.836 184.207 166.97C184.526 167.104 184.815 167.302 185.055 167.552C185.435 167.996 185.643 168.561 185.641 169.145C185.64 169.729 185.428 170.294 185.045 170.735" stroke="#61391F" stroke-width="0.92" stroke-miterlimit="10" stroke-linecap="round"/>
<path d="M156.006 174.388C158.577 175.553 161.485 175.739 164.183 174.909L156.006 174.388Z" fill="#805430"/>
<path d="M156.006 174.388C158.577 175.553 161.485 175.739 164.183 174.909" stroke="#61391F" stroke-width="1.789" stroke-miterlimit="10" stroke-linecap="round"/>
<path d="M279.736 235.39C281.136 237.206 283.508 240.979 283.648 248.104" stroke="#6FBFCD" stroke-width="1.716" stroke-miterlimit="10" stroke-linecap="round"/>
<path d="M271.913 232.458C268.558 238.603 268.139 243.214 267.999 248.244" stroke="#6FBFCD" stroke-width="1.716" stroke-miterlimit="10" stroke-linecap="round"/>
<path d="M269.117 231.338C262.69 233.433 259.895 241.817 259.895 241.817" stroke="#6FBFCD" stroke-width="1.716" stroke-miterlimit="10" stroke-linecap="round"/>
<path d="M98.421 212.009C97.021 209.96 93.577 208.469 91.528 208.842C89.479 209.215 89.478 206.606 87.802 205.489C86.126 204.372 83.491 204.877 81.933 204.464C80.375 204.051 80.815 201.017 79.977 199.807C79.139 198.597 73.084 199.713 73.084 199.713L77.835 212.475C77.835 212.475 90.41 218.343 90.689 218.25C90.968 218.157 98.421 212.009 98.421 212.009Z" fill="#CEE9EE"/>
<path d="M76.018 205.209C70.01 206.187 65.259 211.636 65.259 211.636" stroke="#AEDBE3" stroke-width="1.716" stroke-miterlimit="10" stroke-linecap="round"/>
<path d="M125.434 271.438C120.777 261.006 122.453 226.727 125.807 218.343" stroke="#AEDBE3" stroke-width="1.716" stroke-miterlimit="10" stroke-linecap="round"/>
<path d="M49.891 75.8078L45.643 38.7168" stroke="#F49727" stroke-width="1.716" stroke-miterlimit="10"/>
<path d="M56.757 51.958L58.279 65.25L49.891 75.808L39.809 67.799L38.229 54" stroke="#F49727" stroke-width="1.716" stroke-miterlimit="10"/>
<path d="M56.406 55.5669C58.2357 55.5669 59.719 54.0836 59.719 52.2539C59.719 50.4242 58.2357 48.9409 56.406 48.9409C54.5763 48.9409 53.093 50.4242 53.093 52.2539C53.093 54.0836 54.5763 55.5669 56.406 55.5669Z" fill="#F49727"/>
<path d="M45.701 42.5369C47.5307 42.5369 49.014 41.0536 49.014 39.2239C49.014 37.3942 47.5307 35.9109 45.701 35.9109C43.8713 35.9109 42.388 37.3942 42.388 39.2239C42.388 41.0536 43.8713 42.5369 45.701 42.5369Z" fill="#F49727"/>
<path d="M38.087 57.201C39.9167 57.201 41.4 55.7177 41.4 53.888C41.4 52.0582 39.9167 50.575 38.087 50.575C36.2573 50.575 34.774 52.0582 34.774 53.888C34.774 55.7177 36.2573 57.201 38.087 57.201Z" fill="#F49727"/>
<path d="M96.341 63.8211L88.019 74.2961L74.621 75.8311L73.156 63.0381L81.795 52.1641" stroke="#F49727" stroke-width="1.716" stroke-miterlimit="10"/>
<path d="M95.883 67.096C97.7127 67.096 99.196 65.6127 99.196 63.783C99.196 61.9533 97.7127 60.47 95.883 60.47C94.0533 60.47 92.57 61.9533 92.57 63.783C92.57 65.6127 94.0533 67.096 95.883 67.096Z" fill="#F49727"/>
<path d="M109.953 42.4131C111.783 42.4131 113.266 40.9298 113.266 39.1001C113.266 37.2704 111.783 35.7871 109.953 35.7871C108.123 35.7871 106.64 37.2704 106.64 39.1001C106.64 40.9298 108.123 42.4131 109.953 42.4131Z" fill="#F49727"/>
<path d="M97.271 34.2381C99.1007 34.2381 100.584 32.7548 100.584 30.9251C100.584 29.0953 99.1007 27.6121 97.271 27.6121C95.4413 27.6121 93.958 29.0953 93.958 30.9251C93.958 32.7548 95.4413 34.2381 97.271 34.2381Z" fill="#F49727"/>
<path d="M112.64 59.878C114.47 59.878 115.953 58.3947 115.953 56.565C115.953 54.7352 114.47 53.252 112.64 53.252C110.81 53.252 109.327 54.7352 109.327 56.565C109.327 58.3947 110.81 59.878 112.64 59.878Z" fill="#F49727"/>
<path d="M112.666 77.0271C114.496 77.0271 115.979 75.5438 115.979 73.7141C115.979 71.8844 114.496 70.4011 112.666 70.4011C110.836 70.4011 109.353 71.8844 109.353 73.7141C109.353 75.5438 110.836 77.0271 112.666 77.0271Z" fill="#F49727"/>
<path d="M114.526 93.4409C116.356 93.4409 117.839 91.9577 117.839 90.1279C117.839 88.2982 116.356 86.8149 114.526 86.8149C112.696 86.8149 111.213 88.2982 111.213 90.1279C111.213 91.9577 112.696 93.4409 114.526 93.4409Z" fill="#F49727"/>
<path d="M91.885 87.9981C93.7147 87.9981 95.198 86.5148 95.198 84.6851C95.198 82.8553 93.7147 81.3721 91.885 81.3721C90.0553 81.3721 88.572 82.8553 88.572 84.6851C88.572 86.5148 90.0553 87.9981 91.885 87.9981Z" fill="#F49727"/>
<path d="M81.775 55.2981C83.6048 55.2981 85.088 53.8148 85.088 51.9851C85.088 50.1554 83.6048 48.6721 81.775 48.6721C79.9453 48.6721 78.462 50.1554 78.462 51.9851C78.462 53.8148 79.9453 55.2981 81.775 55.2981Z" fill="#F49727"/>
<path d="M74.621 75.8311L92.17 53.8151L90.952 40.0171L97.372 31.4131" stroke="#F49727" stroke-width="1.716" stroke-miterlimit="10"/>
<path d="M91.412 48.168L102.068 48.006L110.378 38.198" stroke="#F49727" stroke-width="1.716" stroke-miterlimit="10"/>
<path d="M112.159 73.9709L92.414 97.1849" stroke="#F49727" stroke-width="1.716" stroke-miterlimit="10"/>
<path d="M105.169 82.0309L105.002 67.4049L112.566 57.1909" stroke="#F49727" stroke-width="1.716" stroke-miterlimit="10"/>
<path d="M94.139 94.719L92.317 85.885" stroke="#F49727" stroke-width="1.716" stroke-miterlimit="10"/>
<path opacity="0.12" d="M308 105.284C308.934 112.9 313.832 119.459 316.608 126.611C319.384 133.763 321.142 141.733 318.938 149.082C320.527 148.419 321.238 146.603 321.782 144.97C324.553 136.685 327.362 128.084 326.453 119.395C325.443 109.738 319.953 101.095 318.115 91.5569C316.569 83.3797 317.764 74.9208 321.515 67.4919C315.076 69.7099 305.912 88.2359 308 105.284Z" fill="#F49727"/>
<path opacity="0.12" d="M376.552 125.147C375.911 130.377 372.552 134.881 370.641 139.793C368.73 144.705 367.527 150.177 369.041 155.224C367.95 154.769 367.462 153.524 367.087 152.4C365.187 146.711 363.256 140.805 363.88 134.837C364.573 128.206 368.346 122.268 369.606 115.72C370.669 110.105 369.849 104.296 367.274 99.1941C371.694 100.717 377.987 113.44 376.552 125.147Z" fill="#F49727"/>
<path opacity="0.12" d="M339.605 160.9C333.705 152.976 332.805 142.272 334.442 132.527C336.079 122.782 339.967 113.583 342.869 104.137C345.771 94.6909 347.7 84.5529 345.3 74.9669C343.959 69.6039 341.325 64.6669 338.716 59.7949C348.664 72.6949 358.916 87.2539 357.964 103.515C357.146 117.497 348.064 129.868 346.588 143.796C345.656 152.566 347.828 161.431 351.295 169.541C344.921 167.158 340.054 161.505 339.605 160.9Z" fill="#F49727"/>
<path d="M20.175 150.717C20.175 150.717 12 138.45 14.545 133.52C17.09 128.59 23.912 120.964 27.518 118.778C31.124 116.592 42.85 123.578 48.48 128.136C48.48 128.136 42.404 142.903 36.098 147.762C29.792 152.621 25.76 143.27 21.491 145.962C17.222 148.654 20.175 150.717 20.175 150.717Z" fill="#8C6443"/>
</g>
<defs>
<clipPath id="clip0">
<rect width="402.423" height="313.185" fill="white"/>
</clipPath>
</defs>
</svg>
