<svg width="273" height="379" viewBox="0 0 273 379" fill="none" xmlns="http://www.w3.org/2000/svg">
<g clip-path="url(#clip0)">
<path d="M226.727 210.412C271.205 212.119 278.227 181.597 270.028 149.259C263.781 124.618 239.721 102.562 200.241 110.523C160.76 118.484 135.536 220.233 107.3 194.795C75.5594 166.203 28.2022 169.379 11.8439 197.713C5.66509 208.411 2.65244 211.033 2.68284 211.791C2.71324 212.548 226.731 210.412 226.731 210.412" fill="#F8E1ED"/>
<path d="M12.9839 239.902C8.87987 246.328 3.22698 251.953 0.998654 259.284C-1.38319 267.122 0.668813 275.941 5.32002 282.64C10.1567 289.204 16.7919 294.231 24.4249 297.112C43.9007 305.037 65.8207 301.992 86.4729 298.307C107.125 294.623 120.161 288.678 140.304 294.617C151.599 297.946 152.139 311.164 171.098 326.314C202.521 351.42 332.292 309.052 239.891 210.195C212.904 210.195 15.2046 211.899 2.67522 211.765C3.08866 218.534 10.2053 218.935 14.32 222.076C20.1644 226.539 16.3096 234.702 12.9839 239.902Z" fill="#C0E3E9"/>
<path d="M272.372 287.685C272.277 287.348 272.067 287.055 271.78 286.855C271.493 286.655 271.145 286.559 270.796 286.586C270.591 286.601 249.806 288.008 242.129 274.535C235.187 262.349 225.865 258.262 222.404 257.114C225.041 234.077 212.425 219.838 211.876 219.234C211.732 219.071 211.553 218.942 211.353 218.856C211.153 218.769 210.936 218.728 210.718 218.735C210.5 218.739 210.287 218.791 210.091 218.885C209.895 218.98 209.721 219.115 209.582 219.283C199.266 231.718 197.245 244.016 195.294 255.91C191.919 276.454 188.727 295.858 144.502 316.125C144.228 316.194 143.947 316.277 143.69 316.352C143.57 316.341 143.448 316.347 143.329 316.367C133.988 317.885 125.586 312.427 115.431 298.149C116.063 297.878 116.707 297.586 117.204 297.331C118.457 296.689 119.667 295.969 120.828 295.174C122.345 294.129 123.739 292.916 124.984 291.559C126.017 290.439 126.949 289.229 127.768 287.944C129.723 285.504 130.919 282.545 131.208 279.434C131.371 278.607 131.476 277.77 131.521 276.929C131.71 274.823 131.223 272.712 130.13 270.902C129.662 270.192 129.035 269.598 128.3 269.168C127.565 268.738 126.741 268.483 125.891 268.421C122.637 268.264 119.376 268.351 116.136 268.682C110.638 269.159 105.116 269.311 99.5997 269.138C96.4077 262.722 93.2157 255.959 90.1225 249.402C77.2192 222.076 65.0288 196.253 50.3121 187.311C50.0655 187.164 49.8084 187.036 49.543 186.927L20.2814 68.9518C20.556 68.6905 20.7659 68.3689 20.8947 68.0126C21.0234 67.6563 21.0674 67.2749 21.0231 66.8987C20.9789 66.5225 20.8477 66.1617 20.6398 65.8448C20.4319 65.528 20.1531 65.2637 19.8254 65.073C20.1872 60.8511 20.818 56.2679 21.7862 50.8026C22.7445 45.4304 23.9964 40.1146 25.5361 34.879C26.1182 32.9282 26.7521 30.9896 27.4361 29.098C27.8692 29.0386 28.2784 28.8643 28.6211 28.5932C28.9638 28.3222 29.2275 27.9642 29.3846 27.5568C29.5417 27.1493 29.5865 26.7072 29.5143 26.2766C29.4421 25.846 29.2557 25.4425 28.9743 25.1084C29.7814 23.1469 30.5809 21.3935 31.4063 19.7843C33.636 15.0135 36.9083 10.8027 40.9823 7.46168C42.9596 5.92795 45.2417 4.8333 47.6764 4.25084C48.7129 4.01015 49.7724 3.88189 50.8365 3.86827C51.0371 4.18614 51.3084 4.45345 51.6294 4.64935C51.9504 4.84525 52.3124 4.96445 52.6871 4.99765C53.0618 5.03086 53.4392 4.97718 53.7897 4.84079C54.1402 4.70441 54.4545 4.489 54.7079 4.21137L55.0667 4.2812C57.5893 4.83527 60.0186 5.75054 62.2791 6.99865C64.6229 8.25223 66.8543 9.70487 68.9488 11.3405C72.5191 14.1221 75.862 17.1832 78.9459 20.4948C78.8256 20.8619 78.7941 21.2522 78.854 21.6338C78.9138 22.0154 79.0633 22.3774 79.2901 22.6902C79.517 23.003 79.8148 23.2576 80.1592 23.4333C80.5036 23.6091 80.8848 23.7008 81.2715 23.7011C81.4619 23.701 81.6517 23.6786 81.8369 23.6343C84.8161 26.9954 87.8653 30.7695 91.1272 35.1052C92.86 37.4173 94.684 39.9632 96.8226 43.0739C96.6609 43.4511 96.5968 43.8628 96.636 44.2713C96.6753 44.6797 96.8168 45.0717 97.0475 45.4113C97.2782 45.7508 97.5906 46.027 97.9561 46.2143C98.3216 46.4017 98.7284 46.4943 99.1391 46.4836C102.555 51.5769 105.979 56.9708 109.299 62.5256C110.255 64.151 111.192 65.788 112.108 67.4367C111.845 67.8104 111.692 68.2502 111.667 68.7062C111.642 69.1622 111.745 69.6162 111.965 70.0164C112.186 70.4167 112.514 70.7472 112.913 70.9704C113.312 71.1936 113.765 71.3006 114.222 71.2791C117.414 77.1816 120.699 83.7277 124.509 91.7389C124.83 92.416 125.145 93.0961 125.459 93.7747C125.193 94.1292 125.027 94.5494 124.981 94.9905C124.934 95.4316 125.009 95.877 125.196 96.2792C125.383 96.6813 125.676 97.0251 126.044 97.2739C126.412 97.5226 126.84 97.6669 127.283 97.6915C130.254 104.124 133.23 110.782 136.349 117.977C136.223 118.331 136.234 118.72 136.379 119.067L137.176 120.969C135.96 122.892 137.29 126.015 137.983 127.649C138.104 127.934 138.206 128.171 138.262 128.336C138.553 128.933 138.973 129.458 139.492 129.871C140.012 130.284 140.617 130.577 141.264 130.726L141.568 131.447C140.92 131.618 140.312 131.915 139.779 132.321C139.246 132.726 138.798 133.233 138.461 133.812C138.123 134.39 137.904 135.03 137.814 135.693C137.724 136.357 137.766 137.032 137.937 137.679C138.108 138.326 138.406 138.934 138.812 139.466C139.218 139.999 139.726 140.446 140.305 140.783C140.884 141.12 141.524 141.339 142.189 141.429C142.853 141.519 143.529 141.477 144.177 141.306C144.094 141.647 144.06 141.998 144.075 142.349C144.165 144.758 146.659 148.327 148.235 148.839C148.451 148.908 148.676 148.949 148.902 148.96L150.868 153.653C150.888 153.705 150.912 153.756 150.939 153.804C150.646 157.551 150.92 159.947 151.83 161.494L151.742 161.887L151.502 162.259C148.564 166.699 145.879 171.302 143.459 176.043L143.111 176.746C142.686 177.38 142.397 178.094 142.26 178.844C142.124 179.594 142.143 180.364 142.318 181.106C134.183 182.928 123.368 185.337 110.223 188.103C110.027 188.145 109.841 188.225 109.677 188.338C109.512 188.451 109.371 188.596 109.262 188.764C109.153 188.932 109.079 189.119 109.043 189.316C109.007 189.513 109.01 189.715 109.053 189.91C109.889 193.139 111.168 196.237 112.853 199.116C115.626 204.026 119.332 208.348 123.763 211.839C123.83 211.929 123.905 212.011 123.988 212.085C128.67 216.195 136.774 219.828 147.407 222.6C151.631 223.766 155.923 224.67 160.258 225.308C163.45 225.842 166.77 226.312 170.138 226.705C177.287 227.47 184.514 226.971 191.49 225.232C192.083 225.134 192.662 225.035 193.203 224.929L193.597 224.845C200.605 223.108 207.307 220.313 213.472 216.558C216.192 215.08 218.816 213.432 221.328 211.624C221.471 211.517 221.593 211.385 221.689 211.235C233.404 202.803 241.417 193.074 244.29 183.778C248.153 171.273 248.001 154.771 247.186 143.092C247.215 142.74 247.248 142.39 247.282 142.037C247.358 141.228 247.434 140.419 247.459 139.599L247.738 128.771C247.743 128.567 247.707 128.365 247.632 128.176C247.557 127.987 247.445 127.815 247.303 127.67C247.162 127.522 246.992 127.405 246.803 127.327C246.614 127.248 246.411 127.21 246.207 127.214L242.62 127.242C242.225 127.245 241.847 127.402 241.566 127.679C241.285 127.956 241.122 128.331 241.113 128.725L241.018 132.874C226.295 147.448 199.038 163.315 169.426 174.545L166.902 168.142C167.247 167.867 167.562 167.558 167.845 167.22C168.951 165.54 169.614 163.608 169.772 161.603C169.843 161.473 169.894 161.334 169.924 161.19L170.157 160.033C171.143 157.137 173.653 149.039 175.613 142.303C178.377 135.81 178.391 134.501 178.395 134.072C178.433 133.21 178.251 132.353 177.866 131.58C177.482 130.807 176.908 130.145 176.197 129.654C175.215 128.829 174.186 128.062 173.113 127.359C172.774 127.126 172.455 126.903 172.175 126.707C172.13 126.654 172.082 126.603 172.031 126.556L171.522 126.085C171.407 125.98 171.277 125.893 171.136 125.827C171.174 125.725 171.212 125.626 171.253 125.523L171.47 125.47C174.085 124.576 176.255 122.712 177.533 120.264C178.069 119.36 178.396 118.348 178.49 117.301C178.584 116.254 178.442 115.2 178.074 114.215C175.946 108.827 172.134 106.434 166.755 107.099C166.091 107.136 165.434 106.953 164.885 106.577L164.75 106.497C164.406 106.293 163.995 106.234 163.607 106.331C163.218 106.428 162.884 106.674 162.677 107.016H162.657C162.468 106.941 162.267 106.905 162.064 106.909C161.861 106.914 161.661 106.959 161.476 107.042C161.291 107.124 161.124 107.243 160.986 107.391C160.848 107.539 160.74 107.714 160.67 107.904C160.494 108.413 160.432 108.955 160.489 109.492C160.546 110.028 160.721 110.545 161.002 111.005C160.228 111.927 159.708 113.033 159.492 114.216C159.377 114.329 159.152 114.499 158.992 114.62C158.118 115.193 157.422 115.998 156.981 116.944C156.779 117.426 156.757 117.965 156.92 118.461C157.083 118.958 157.419 119.379 157.867 119.648C157.594 120.61 157.634 121.634 157.983 122.572C158.222 123.242 158.705 123.798 159.337 124.127C158.077 124.277 156.875 124.741 155.841 125.476C154.626 126.745 153.809 128.34 153.491 130.067C152.82 129.381 152.14 128.673 151.505 128.01L150.851 127.33C150.779 127.017 150.61 126.736 150.368 126.525L148.003 124.467C147.809 124.299 147.576 124.183 147.326 124.128C146.659 123.319 146.034 122.476 145.455 121.602C145.153 121.037 144.723 120.55 144.199 120.181C143.674 119.812 143.071 119.571 142.436 119.477L141.385 116.969C141.229 116.597 140.932 116.303 140.559 116.15C140.512 116.132 140.463 116.114 140.415 116.1C136.174 106.436 132.254 97.8433 128.44 89.8625C124.499 81.6646 119.176 70.9026 112.924 60.3653C107.233 50.8082 101.047 41.5538 94.3922 32.6398C90.618 27.6588 87.1296 23.4308 83.7293 19.7129C79.9589 15.5153 75.8179 11.665 71.3565 8.20859C69.0821 6.44994 66.661 4.88917 64.1198 3.5434C61.5251 2.13073 58.7395 1.10038 55.8495 0.484373C52.8675 -0.171354 49.7775 -0.162543 46.7994 0.510181C43.8402 1.23085 41.0666 2.56707 38.6598 4.4315C34.1498 8.1307 30.5293 12.7943 28.0653 18.0779C25.5684 23.1365 23.5389 28.4121 22.002 33.8391C20.4481 39.2104 19.1892 44.6626 18.2309 50.1711C17.2421 55.595 16.5464 61.0682 16.147 66.5668C16.0766 66.8181 16.0729 67.0834 16.1364 67.3365L16.182 67.5248C16.2059 67.7037 16.2498 67.8793 16.3127 68.0485L45.5606 185.978H45.5134L45.2794 185.943C43.7431 185.716 42.1776 186.079 40.8987 186.959C40.7985 187.037 40.7091 187.129 40.6327 187.23C34.9902 194.646 30.1699 202.651 26.2565 211.105C24.9053 213.763 23.0281 218.774 22.2832 220.805C21.3784 222.996 20.6297 225.248 20.0428 227.544C12.8585 251.794 13.1913 277.649 20.9973 301.706C16.8644 311.595 14.4172 332.161 19.2615 335.996C23.5889 339.426 31.4215 335.507 35.6775 332.353C51.7895 356.427 74.8434 370.558 97.5218 370.25C116.613 369.987 140.447 366.62 163.098 345.422C162.898 346.078 162.868 346.774 163.011 347.444C163.153 348.115 163.463 348.738 163.912 349.257C164.361 349.775 164.934 350.171 165.578 350.409C166.222 350.646 166.915 350.717 167.594 350.614C167.089 351.36 166.542 352.077 165.957 352.762C164.267 351.931 162.424 351.453 160.543 351.36C160.52 351.36 160.391 351.378 160.374 351.382C159.325 351.559 158.388 352.139 157.763 352.998C157.138 353.858 156.875 354.928 157.032 355.978C157.188 357.029 157.75 357.976 158.598 358.617C159.447 359.258 160.512 359.541 161.567 359.406C161.535 359.482 161.504 359.557 161.476 359.633C161.097 360.611 160.799 361.619 160.585 362.645C158.719 362.76 156.901 363.289 155.265 364.194C154.66 364.694 154.214 365.359 153.98 366.107C153.746 366.856 153.734 367.656 153.946 368.411C154.158 369.167 154.585 369.844 155.174 370.362C155.764 370.88 156.492 371.216 157.269 371.329C157.447 371.355 157.627 371.369 157.807 371.371C157.159 371.983 156.638 372.715 156.273 373.527C156.262 373.555 156.215 373.693 156.206 373.72C155.9 374.737 156.006 375.833 156.501 376.773C156.996 377.713 157.84 378.422 158.852 378.748C159.864 379.073 160.963 378.989 161.914 378.514C162.865 378.038 163.591 377.209 163.937 376.205C164.217 374.248 164.088 372.255 163.56 370.35C163.634 370.377 163.712 370.401 163.786 370.426C164.54 370.652 165.343 370.655 166.098 370.434C166.853 370.212 167.527 369.777 168.039 369.18C168.551 368.584 168.879 367.851 168.982 367.072C169.085 366.293 168.959 365.501 168.62 364.792C168.587 364.723 168.549 364.657 168.506 364.595C167.39 363.196 166.012 362.027 164.451 361.151C164.647 360.597 164.875 360.054 165.133 359.526C165.701 358.382 166.399 357.307 167.212 356.322C167.513 357.575 168.063 358.754 168.831 359.788C169.196 360.177 169.634 360.489 170.12 360.709C170.606 360.928 171.13 361.05 171.663 361.067C172.196 361.084 172.727 360.996 173.226 360.807C173.725 360.619 174.182 360.335 174.571 359.97C174.964 359.596 175.278 359.147 175.496 358.65C175.713 358.153 175.83 357.618 175.838 357.075C175.847 356.533 175.747 355.994 175.545 355.491C175.343 354.987 175.043 354.529 174.662 354.142C173.428 353.219 172.017 352.559 170.517 352.205C171.399 350.876 172.176 349.48 172.841 348.03C172.868 348.071 172.891 348.106 172.912 348.135C173.212 348.576 173.595 348.954 174.04 349.247C174.485 349.54 174.984 349.742 175.508 349.843C176.031 349.943 176.57 349.94 177.092 349.833C177.614 349.725 178.11 349.516 178.552 349.217C178.995 348.915 179.374 348.528 179.667 348.078C179.96 347.629 180.161 347.126 180.259 346.599C180.357 346.071 180.349 345.53 180.237 345.006C180.125 344.481 179.91 343.984 179.605 343.543C179.391 343.232 178.78 342.346 175.297 340.658C175.577 339.409 175.807 338.122 175.981 336.819C176.257 334.739 176.402 332.643 176.418 330.545C178.564 327.73 180.748 324.683 183.201 321.082C185.046 322.872 186.779 324.774 188.389 326.777C186.209 328.78 183.382 331.635 182.818 333.484C182.41 334.879 182.572 336.379 183.268 337.656C183.964 338.933 185.138 339.882 186.533 340.298C187.928 340.713 189.431 340.56 190.713 339.872C191.995 339.184 192.953 338.017 193.376 336.626C193.534 336.012 193.596 335.378 193.562 334.745C194.713 337.017 195.556 339.433 196.068 341.927C196.091 342.038 196.114 342.148 196.138 342.257C193.621 343.865 190.139 346.31 189.275 348.026L189.179 348.217C188.556 349.53 188.478 351.036 188.962 352.406C189.447 353.777 190.454 354.9 191.765 355.531C193.075 356.162 194.583 356.249 195.958 355.774C197.333 355.299 198.464 354.3 199.104 352.995C199.34 352.475 199.499 351.924 199.576 351.358C200.852 353.575 202.411 355.616 204.214 357.431C202.709 360.391 201.174 363.914 201.288 365.771C201.413 367.168 202.067 368.464 203.118 369.395C204.168 370.325 205.534 370.82 206.937 370.779C208.341 370.737 209.675 370.161 210.668 369.169C211.66 368.178 212.236 366.845 212.277 365.443C212.626 368.115 213.208 371.144 214.129 372.383L214.281 372.587C215.186 373.703 216.493 374.42 217.921 374.587C219.349 374.753 220.786 374.356 221.924 373.478C223.063 372.601 223.812 371.314 224.014 369.892C224.215 368.47 223.851 367.026 223.001 365.868C221.729 364.151 217.187 362.12 214.431 361.01C214.24 360.893 214.047 360.773 213.857 360.654C215.025 360.261 216.027 359.489 216.704 358.46C217.38 357.431 217.692 356.206 217.589 354.98C217.486 353.753 216.975 352.597 216.136 351.695C215.297 350.793 214.18 350.198 212.963 350.005C212.881 349.992 212.798 349.986 212.715 349.987C210.748 349.863 207.015 351.241 204.375 352.352C202.081 349.312 200.469 345.816 199.646 342.099C202.194 342.993 205.155 343.831 206.679 343.569C207.394 343.46 208.081 343.212 208.701 342.838C209.32 342.465 209.859 341.973 210.288 341.391C210.717 340.81 211.027 340.149 211.2 339.448C211.374 338.746 211.407 338.018 211.299 337.303C211.19 336.589 210.942 335.903 210.568 335.285C210.194 334.666 209.701 334.127 209.119 333.699C208.536 333.27 207.875 332.961 207.173 332.788C206.47 332.615 205.741 332.581 205.026 332.69L204.842 332.722C203.179 333.008 200.406 335.034 198.216 336.831C196.963 333.488 195.276 330.324 193.2 327.419C193.907 327.698 194.654 327.861 195.413 327.901C196.874 327.897 198.273 327.313 199.303 326.278C200.333 325.243 200.909 323.841 200.904 322.382C200.899 320.923 200.315 319.526 199.278 318.497C198.242 317.469 196.839 316.893 195.378 316.898C193.554 316.898 190.172 318.633 187.322 320.314C186.613 319.58 185.896 318.865 185.171 318.169C186.708 315.864 188.211 313.564 189.698 311.29C192.314 307.288 194.791 303.498 197.346 299.836C207.901 297.456 218.777 296.829 229.536 297.981C241.527 298.879 251.88 299.651 271.615 289.449C271.926 289.287 272.17 289.023 272.308 288.701C272.446 288.38 272.469 288.021 272.372 287.685ZM171.809 341.021C171.737 341.188 171.69 341.364 171.672 341.545C171.526 342.081 171.369 342.611 171.199 343.134C169.844 342.811 168.459 342.623 167.066 342.573C166.676 342.566 166.286 342.603 165.904 342.685C168.241 340.332 170.562 337.773 172.867 335.009C172.663 337.037 172.31 339.046 171.809 341.021ZM153.999 178.503C155.075 177.471 156.204 176.496 157.383 175.583L158.231 177.584C156.914 177.867 155.504 178.173 153.999 178.503ZM211.914 363.512L212.066 363.609C212.084 363.785 212.104 363.966 212.124 364.151C212.074 363.971 212.005 363.758 211.914 363.512Z" fill="#CDC4D2"/>
<path d="M170.49 127.202L169.816 127.022L170.157 127.465L170.49 127.202Z" fill="#2BA5B9"/>
<path d="M161.388 125.349L162.239 125.531L161.397 125.654L161.388 125.349Z" fill="#2BA5B9"/>
<path d="M171.172 123.99C170.248 124.222 169.736 124.294 169.736 124.294L170.286 123.32L171.172 123.988" fill="#35261F"/>
<path d="M163.619 109.572C163.272 109.867 162.989 110.228 162.786 110.635C162.584 111.043 162.466 111.487 162.441 111.941L163.961 110.82L163.619 109.572Z" fill="#35261F"/>
<path d="M163.169 123.55C160.66 122.977 159.825 123.094 159.392 122.012C158.766 120.44 159.965 119.18 159.248 118.748C158.845 118.505 158.115 118.182 158.386 117.518C159.012 115.982 160.932 115.572 160.991 114.491C161.259 113.281 161.873 112.175 162.758 111.307C163.643 110.439 164.761 109.847 165.977 109.601C169.875 109.234 173.941 111.131 174.779 113.585C175.234 115.142 175.198 116.802 174.676 118.339C174.155 119.875 173.172 121.214 171.862 122.174C169.419 124.072 169.14 127.425 168.994 128.892C168.017 129.534 166.859 129.843 165.692 129.772C164.502 129.666 163.359 129.257 162.373 128.584L163.169 123.55Z" fill="#A35E38"/>
<path d="M163.145 110.908C164.36 112.417 166.002 113.526 167.857 114.089C169.114 114.315 167.509 116.187 167.988 116.67C168.229 116.894 168.414 117.172 168.527 117.481C168.64 117.791 168.678 118.122 168.639 118.449C168.599 118.776 168.482 119.089 168.298 119.362C168.114 119.635 167.868 119.861 167.58 120.022C167.36 121.611 168.97 123.199 170.43 123.961C171.891 124.723 178.578 119.639 176.655 114.776C173.709 107.327 168.045 108.422 165.855 108.769C162.434 109.317 163.145 110.908 163.145 110.908Z" fill="#35261F"/>
<path d="M162.488 115.147L162.317 114.918C162.22 114.933 162.127 114.97 162.046 115.025C161.965 115.08 161.898 115.153 161.848 115.238C161.799 115.324 161.773 115.421 161.773 115.52C161.773 115.619 161.799 115.717 161.848 115.803C161.9 115.886 161.976 115.951 162.066 115.988C162.156 116.026 162.256 116.035 162.351 116.014C162.455 115.982 162.547 115.922 162.619 115.841C162.703 115.756 162.761 115.649 162.788 115.533C162.815 115.417 162.809 115.296 162.771 115.183C162.749 115.13 162.716 115.081 162.674 115.041C162.632 115.001 162.582 114.971 162.527 114.951C162.473 114.932 162.415 114.924 162.357 114.928C162.299 114.933 162.243 114.949 162.192 114.977C162.174 114.951 162.158 114.922 162.488 115.147Z" fill="#7A4327"/>
<path d="M163.239 116.005C162.99 115.833 162.721 115.69 162.44 115.579" stroke="#7A4327" stroke-width="0.304" stroke-miterlimit="10" stroke-linecap="round"/>
<path d="M162.254 113.524C163.106 113.525 163.936 113.79 164.63 114.283" stroke="#7A4327" stroke-width="0.304" stroke-miterlimit="10" stroke-linecap="round"/>
<path d="M159.351 118.338C159.611 118.285 159.761 118.743 160.188 118.771" stroke="#7A4327" stroke-width="0.166" stroke-miterlimit="10" stroke-linecap="round"/>
<path d="M166.896 108.649C163.894 108.985 163.726 109.07 162.099 108.425C161.918 108.894 161.927 109.415 162.123 109.878C162.319 110.341 162.687 110.71 163.149 110.908L166.363 110.161L166.896 108.649Z" fill="#35261F"/>
<path d="M167.705 108.593C166.407 108.827 165.068 108.546 163.975 107.808C163.902 108.11 163.931 108.428 164.058 108.712C164.184 108.996 164.402 109.23 164.676 109.378L167.536 109.489L167.705 108.593Z" fill="#35261F"/>
<path d="M167.34 113.943C167.928 114.195 166.916 116.402 165.961 116.654C166.344 116.842 166.767 116.933 167.193 116.919C167.619 116.906 168.035 116.788 168.406 116.577L169.191 115.232L168.91 113.41L167.34 113.943Z" fill="#35261F"/>
<path d="M167.644 116.993C167.79 116.857 167.973 116.768 168.17 116.736C168.367 116.703 168.569 116.73 168.751 116.812C168.933 116.899 169.096 117.024 169.227 117.179C169.358 117.333 169.454 117.513 169.511 117.708C169.607 118.038 169.606 118.389 169.507 118.719C169.409 119.049 169.217 119.343 168.954 119.566C168.684 119.774 168.359 119.9 168.019 119.927C167.678 119.954 167.337 119.881 167.038 119.718" fill="#A35E38"/>
<path d="M167.644 116.993C167.79 116.857 167.973 116.768 168.17 116.736C168.367 116.703 168.569 116.73 168.751 116.812C168.933 116.899 169.096 117.024 169.227 117.179C169.358 117.333 169.454 117.513 169.511 117.708C169.607 118.038 169.606 118.389 169.507 118.719C169.409 119.049 169.217 119.343 168.954 119.566C168.684 119.774 168.359 119.9 168.019 119.927C167.678 119.954 167.337 119.881 167.038 119.718" stroke="#7A4327" stroke-width="0.166" stroke-miterlimit="10" stroke-linecap="round"/>
<path d="M167.2 118.699C167.29 118.683 167.375 118.645 167.448 118.59C167.52 118.534 167.578 118.462 167.617 118.379C167.655 118.294 167.673 118.202 167.669 118.109C167.666 118.016 167.64 117.926 167.595 117.845C167.723 117.702 167.893 117.604 168.08 117.565C168.174 117.546 168.27 117.547 168.363 117.566C168.456 117.586 168.544 117.625 168.621 117.681C168.745 117.782 168.829 117.924 168.857 118.082C168.885 118.24 168.855 118.402 168.773 118.54" stroke="#7A4327" stroke-width="0.166" stroke-miterlimit="10" stroke-linecap="round"/>
<path d="M169.527 125.737C169.438 126.27 169.375 126.791 170.6 127.726L167.864 128.874L166.154 127.052L169.527 125.737Z" fill="#A35E38"/>
<path d="M163.02 124.532C162.716 125.765 160.524 125.708 160.524 125.708L161.366 128.005L163.833 128.818L165.376 127.299L163.02 124.532Z" fill="#A35E38"/>
<path d="M110.531 189.588C146.595 181.998 164.52 177.226 171.775 176.799L125.256 194.276L110.531 189.588Z" fill="#017680"/>
<path d="M164.531 166.264L173.206 188.273L165.703 191.317L157.264 171.415L164.531 166.264Z" fill="#DC8126"/>
<path d="M144.379 182.837C143.23 179.307 143.548 179.326 144.821 176.704C148.317 169.512 154.131 161.185 153.982 161.113C153.982 161.113 153.303 160.07 153.657 159.716C155.292 158.886 157.134 158.549 158.957 158.746C161.344 159.01 167.308 157.51 168.015 158.304C168.722 159.098 168.319 164.129 166.647 166.291C165.536 167.721 152.952 176.484 152.155 178.425C151.97 179.095 151.954 179.801 152.108 180.478C152.263 181.156 152.583 181.785 153.04 182.309L144.999 185.041L144.38 182.834" fill="#F39427"/>
<path d="M152.212 151.855C143.836 131.424 135.306 111.045 125.884 91.0877C121.144 81.1242 116.195 71.2549 110.609 61.7514C104.997 52.2576 98.9008 43.0583 92.3432 34.1898C85.7129 25.4196 78.5841 16.862 69.873 10.1382C67.7141 8.45183 65.4134 6.95496 62.9965 5.66426C60.6082 4.34581 58.041 3.38035 55.3752 2.79804C52.7237 2.20266 49.9738 2.19541 47.3192 2.77679C44.6772 3.4098 42.1994 4.59465 40.049 6.25329C35.8104 9.74383 32.3954 14.1256 30.0474 19.086C27.5936 24.0136 25.5951 29.1545 24.0768 34.4449C22.524 39.7364 21.2606 45.1084 20.292 50.537C19.2853 55.9549 18.5713 61.423 18.1534 66.9176L17.6472 66.8994C18.0438 61.378 18.7384 55.8819 19.7281 50.4353C20.6778 44.9813 21.924 39.5829 23.4612 34.2642C24.971 28.9265 26.9659 23.7378 29.4212 18.7626C31.8001 13.6923 35.2708 9.20934 39.5854 5.6339C41.8188 3.8992 44.3951 2.65737 47.1444 1.9904C49.9104 1.37132 52.7787 1.36614 55.547 1.97521C58.2939 2.56161 60.941 3.54346 63.4054 4.89002C65.8717 6.19274 68.2207 7.70587 70.4263 9.41251C79.2833 16.197 86.4881 24.7744 93.1761 33.5598C99.7975 42.4342 105.957 51.6432 111.63 61.1502C117.283 70.6765 122.289 80.5549 127.072 90.5199C136.598 110.48 145.216 130.841 153.683 151.245L152.212 151.855Z" fill="#26003D"/>
<path d="M152.906 151.509L139.342 119.121" stroke="#26003D" stroke-width="1.573" stroke-miterlimit="10" stroke-linecap="square"/>
<path d="M148.671 127.709C146.961 126.159 145.459 124.394 144.201 122.46C142.947 120.623 142.259 120.942 140.05 121.031C136.347 121.171 139.238 126.521 139.696 127.847C140.138 129.127 143.294 129.932 144.491 129.499C145.113 129.276 147.594 131.776 147.594 131.776L148.671 127.709Z" fill="#A35E38"/>
<path d="M156.037 134.561C153.651 132.707 148.311 126.666 147.427 126.092C146.542 125.519 145.482 131.093 145.659 132.151C145.835 133.209 153.666 142.499 154.992 143.029L156.037 134.561Z" fill="#0D808F"/>
<path d="M61.758 238.485C63.7518 238.027 64.5698 234.189 63.5851 229.913C62.6004 225.638 60.1859 222.543 58.1921 223.001C56.1984 223.459 55.3804 227.296 56.3651 231.572C57.3498 235.848 59.7643 238.943 61.758 238.485Z" fill="#FFF5FA"/>
<path d="M60.9577 235.01C62.0564 234.757 62.5072 232.642 61.9645 230.286C61.4218 227.929 60.0912 226.224 58.9925 226.476C57.8937 226.728 57.443 228.843 57.9857 231.2C58.5283 233.556 59.859 235.262 60.9577 235.01Z" fill="#1A264F"/>
<path d="M61.4887 233.723C62.3013 233.723 62.9601 233.065 62.9601 232.253C62.9601 231.442 62.3013 230.784 61.4887 230.784C60.6761 230.784 60.0173 231.442 60.0173 232.253C60.0173 233.065 60.6761 233.723 61.4887 233.723Z" fill="#FFF5FA"/>
<path d="M64.3813 209.85C64.6596 210.337 64.8273 210.879 64.8724 211.437C64.9176 211.996 64.8392 212.558 64.6427 213.083C64.3752 213.652 63.9298 214.119 63.3735 214.414C62.8532 214.679 62.2904 214.851 61.7106 214.923C61.1071 214.984 60.4975 214.901 59.9331 214.679C59.3687 214.457 58.8659 214.102 58.4669 213.646C58.0666 213.245 57.7648 212.757 57.5855 212.22C57.4061 211.682 57.3541 211.111 57.4333 210.55L57.672 210.561C57.9361 211.466 58.4818 212.263 59.23 212.838C59.5466 213.115 59.915 213.327 60.3139 213.461C60.7127 213.595 61.1342 213.649 61.5541 213.62C61.977 213.619 62.3949 213.528 62.7793 213.352C63.1638 213.176 63.5059 212.919 63.7824 212.6C64.2429 211.76 64.4509 210.805 64.3813 209.85Z" fill="#1A264F"/>
<path d="M60.2529 209.844C60.7205 209.934 61.1967 209.972 61.6726 209.957C62.144 209.965 62.6071 209.832 63.0026 209.576L63.1287 209.661C62.7946 210.096 62.3345 210.417 61.8109 210.582C61.3054 210.769 60.7809 210.9 60.2468 210.972L60.2529 209.844Z" fill="#1A264F"/>
<path d="M84.9681 274.448C90.6332 278.887 97.2132 288.492 101.352 298.084C103.694 298.827 106.18 298.999 108.603 298.585C102.743 288.996 92.1258 277.916 84.6428 273.121C84.6779 273.579 84.7878 274.027 84.9681 274.448Z" fill="#26003D"/>
<path d="M86.3512 276.419C90.6209 281.24 93.928 286.832 96.0945 292.894C96.4873 294.119 97.1712 295.231 98.0878 296.135C99.0045 297.039 100.127 297.707 101.358 298.084C97.2193 288.493 90.6392 278.887 84.9741 274.448C85.2851 275.197 85.755 275.869 86.3512 276.419Z" fill="#26003D"/>
<path d="M168.687 159.64C170.391 154.661 176.539 134.416 176.539 132.74C176.539 131.064 171.769 128.476 170.49 127.328C170.49 127.328 167.249 128.901 165.11 128.376C164.322 128.178 163.583 127.817 162.942 127.318C162.301 126.818 161.772 126.19 161.388 125.475C159.776 125.441 158.187 125.852 156.794 126.662C154.806 128.25 153.435 136.727 153.701 141.539C153.967 146.352 150.679 157.961 153.456 161.176C153.657 161.406 168.687 159.64 168.687 159.64Z" fill="#048DA4"/>
<path d="M156.44 144.374C154.2 143.3 152.996 142.843 152.284 141.905C151.632 141.082 150.721 140.502 149.698 140.26C148.675 140.018 147.6 140.127 146.647 140.571C143.745 141.761 147.597 147.044 148.7 147.402C149.804 147.761 151.275 146.244 151.936 146.373C153.337 146.96 154.703 147.629 156.027 148.374L156.44 144.374Z" fill="#A35E38"/>
<path d="M174.04 130.317C174.882 130.502 175.63 130.979 176.151 131.664C176.672 132.35 176.931 133.198 176.883 134.057C176.857 136.275 171.513 148.06 170.651 149.291C170.125 149.941 169.472 150.476 168.731 150.864C167.99 151.251 167.177 151.482 166.343 151.542C165.623 151.621 159.065 151.879 156.521 149.296C155.609 148.374 154.513 148.641 154.53 148.456C154.726 146.355 154.586 143.539 154.862 143.628C157.529 144.409 160.321 144.676 163.087 144.413C164.653 144.456 164.595 144.635 165.084 144.228C165.475 143.905 164.78 143.677 165.724 143.346C166.702 143.006 165.699 142.783 166.012 142.242C166.325 141.702 169.885 131.265 171.292 130.553C172.144 130.124 173.128 130.039 174.04 130.317Z" fill="#2BA5B9"/>
<path d="M17.9011 66.9023L48.0048 188.28" stroke="#26003D" stroke-width="0.393" stroke-miterlimit="10"/>
<path d="M142.868 139.965C144.849 139.965 146.455 138.361 146.455 136.382C146.455 134.404 144.849 132.8 142.868 132.8C140.887 132.8 139.281 134.404 139.281 136.382C139.281 138.361 140.887 139.965 142.868 139.965Z" fill="#26003D"/>
<path d="M127.414 96.1763C127.926 96.1763 128.341 95.7617 128.341 95.2503C128.341 94.7388 127.926 94.3242 127.414 94.3242C126.902 94.3242 126.487 94.7388 126.487 95.2503C126.487 95.7617 126.902 96.1763 127.414 96.1763Z" fill="#26003D"/>
<path d="M114.108 69.7593C114.62 69.7593 115.035 69.3447 115.035 68.8333C115.035 68.3218 114.62 67.9072 114.108 67.9072C113.596 67.9072 113.181 68.3218 113.181 68.8333C113.181 69.3447 113.596 69.7593 114.108 69.7593Z" fill="#26003D"/>
<path d="M99.0708 44.9608C99.5828 44.9608 99.998 44.5461 99.998 44.0347C99.998 43.5233 99.5828 43.1086 99.0708 43.1086C98.5587 43.1086 98.1436 43.5233 98.1436 44.0347C98.1436 44.5461 98.5587 44.9608 99.0708 44.9608Z" fill="#26003D"/>
<path d="M81.27 22.5548C81.7821 22.5548 82.1972 22.1401 82.1972 21.6287C82.1972 21.1172 81.7821 20.7026 81.27 20.7026C80.7579 20.7026 80.3428 21.1172 80.3428 21.6287C80.3428 22.1401 80.7579 22.5548 81.27 22.5548Z" fill="#26003D"/>
<path d="M52.9036 3.86823C53.4157 3.86823 53.8308 3.45362 53.8308 2.94217C53.8308 2.43072 53.4157 2.01611 52.9036 2.01611C52.3916 2.01611 51.9764 2.43072 51.9764 2.94217C51.9764 3.45362 52.3916 3.86823 52.9036 3.86823Z" fill="#26003D"/>
<path d="M27.0971 27.9805C27.6092 27.9805 28.0243 27.5659 28.0243 27.0545C28.0243 26.543 27.6092 26.1284 27.0971 26.1284C26.585 26.1284 26.1699 26.543 26.1699 27.0545C26.1699 27.5659 26.585 27.9805 27.0971 27.9805Z" fill="#26003D"/>
<path d="M18.5927 68.1092C19.1048 68.1092 19.5199 67.6946 19.5199 67.1831C19.5199 66.6717 19.1048 66.2571 18.5927 66.2571C18.0807 66.2571 17.6655 66.6717 17.6655 67.1831C17.6655 67.6946 18.0807 68.1092 18.5927 68.1092Z" fill="#26003D"/>
<path d="M152.906 151.509L151.439 148.007" stroke="#26003D" stroke-width="1.573" stroke-miterlimit="10" stroke-linecap="square"/>
<path d="M142.328 129.334C143.058 129.422 144.352 129.308 144.505 128.954C144.659 128.6 145.098 129.757 145.098 129.757L142.678 130.147L142.328 129.334Z" fill="#26003D"/>
<path d="M141.705 121.702C141.857 122.077 139.807 122.63 139.188 121.901L138.79 120.776L141.286 120.688L141.705 121.702Z" fill="#26003D"/>
<path d="M192.922 223.442C193.042 223.42 193.171 223.388 193.291 223.363C207.812 218.917 224.53 207.845 234.787 185.119C211.802 203.877 185.322 217.705 145.37 220.453C160.77 225.142 177.055 226.166 192.922 223.442Z" fill="#017680"/>
<path d="M243.947 146.58C244.31 141.835 244.479 136.833 244.422 131.55C217.655 160.395 148.089 189.38 110.531 189.594C111.338 192.673 112.561 195.628 114.169 198.377C168.273 198.554 217.134 170.25 243.947 146.58Z" fill="#2FA8BC"/>
<path d="M243.947 146.58C217.134 170.25 168.273 198.554 114.169 198.37C116.998 203.378 120.826 207.751 125.417 211.22C175.201 210.036 214.922 187.12 241.141 165.778C242.537 159.454 243.475 153.038 243.947 146.58Z" fill="#048DA4"/>
<path d="M125.42 211.22C128.33 213.414 131.5 215.239 134.859 216.655C138.292 218.11 141.802 219.377 145.373 220.45C185.325 217.702 211.805 203.874 234.79 185.116C237.559 178.9 239.688 172.42 241.144 165.775C214.928 187.12 175.205 210.036 125.42 211.22Z" fill="#017680"/>
<path d="M244.488 131.47L244.422 131.54C245.076 192.441 216.397 216.283 193.291 223.359C207.482 220.491 236.611 203.5 242.836 183.332C249.119 162.995 244.488 131.47 244.488 131.47Z" fill="#017680"/>
<path d="M246.216 128.737L246.032 135.956L245.938 139.564C245.9 140.767 245.745 141.966 245.654 143.167L245.012 150.369L243.9 157.522C242.317 167.081 239.481 176.391 235.467 185.211C231.385 194.078 225.601 202.058 218.443 208.7C217.531 209.506 216.667 210.37 215.707 211.129L212.8 213.344C211.841 214.096 210.835 214.786 209.789 215.411C208.756 216.06 207.728 216.717 206.669 217.314C204.531 218.48 202.318 219.502 200.043 220.371C197.825 221.461 195.37 221.983 192.899 221.889C195.004 220.637 197.234 219.878 199.332 218.762C201.448 217.725 203.51 216.578 205.507 215.326C209.463 212.809 213.155 209.901 216.529 206.646C223.322 200.178 228.787 192.449 232.617 183.891C236.412 175.292 239.059 166.232 240.489 156.944C241.945 147.622 242.66 138.2 242.626 128.766L246.216 128.737Z" fill="#269DB1"/>
<path opacity="0.27" d="M16.9647 252.731C15.7902 264.695 16.5964 276.771 19.3511 288.473C20.4151 292.974 51.6907 271.793 65.7386 273.647C65.7386 273.647 60.7028 264.91 38.4363 265.44C16.1698 265.97 16.9647 252.731 16.9647 252.731Z" fill="#048DA4"/>
<path opacity="0.27" d="M40.2922 335.863C68.6555 328.185 76.6066 327.126 102.585 328.979C128.563 330.833 130.948 328.715 136.514 325.803C131.574 332.765 124.875 338.295 117.099 341.829C109.323 345.363 100.748 346.776 92.2474 345.923C62.2927 343.276 64.6791 357.837 64.6791 357.837C64.6791 357.837 52.2151 349.101 49.8348 346.719C47.4545 344.337 40.2922 335.863 40.2922 335.863Z" fill="#048DA4"/>
<path d="M124.984 210.945L145.973 211.001C150.8 210.963 155.621 211.295 160.397 211.994L171.993 213.693C181.917 215.147 192.01 215.008 201.89 213.28L220.412 210.415C220.412 210.415 196.678 228.265 170.312 225.197C145.66 222.33 131.213 216.415 124.984 210.945Z" fill="#048DA4"/>
<path d="M154.691 143.496L156.626 143.987L156.486 149.379L154.298 148.679L154.691 143.496Z" fill="#3DBCC9"/>
<path d="M149.375 127.67L147.006 125.611L144.566 133.089L147.411 135.008L149.375 127.67Z" fill="#048DA4"/>
<path d="M147.314 135.093L145.267 130.191L144.748 131.087L144.145 133.427L147.23 135.625L147.314 135.093Z" fill="#26003D"/>
<path d="M161.388 125.349C161.724 126.021 162.196 126.616 162.776 127.095C163.356 127.574 164.029 127.926 164.753 128.13C166.715 128.425 168.72 128.103 170.49 127.207L171 127.677C170.141 128.307 169.164 128.759 168.127 129.006C167.09 129.253 166.014 129.291 164.963 129.117C163.944 128.985 162.982 128.576 162.182 127.933C161.383 127.29 160.776 126.439 160.43 125.473L161.388 125.349Z" fill="#2BA5B9"/>
<path d="M161.198 161.005L147.51 179.186L148.828 183.388" stroke="#DC8126" stroke-width="0.166" stroke-miterlimit="10"/>
<path d="M161.59 170.473L164.507 177.701" stroke="#C67124" stroke-width="0.166" stroke-miterlimit="10"/>
<path d="M153.456 161.173L153.175 162.406L168.433 160.892L168.687 159.64L153.456 161.173Z" fill="#0D808F"/>
<path d="M163.397 123.613L167.418 124.107L163.064 125.359L163.397 123.613Z" fill="#915233"/>
<path d="M145.479 129.703L145.092 129.473L144.902 128.896L145.028 127.571L145.416 127.943L146.002 128.137L145.479 129.703Z" fill="#915233"/>
<path d="M170.49 127.202L169.816 127.022L170.157 127.465L170.49 127.202Z" fill="#2BA5B9"/>
<path d="M161.388 125.349L162.239 125.531L161.397 125.654L161.388 125.349Z" fill="#2BA5B9"/>
<path d="M171.172 123.99C170.248 124.222 169.736 124.294 169.736 124.294L170.286 123.32L171.172 123.988" fill="#35261F"/>
<path d="M163.619 109.572C163.272 109.867 162.989 110.228 162.786 110.635C162.584 111.043 162.466 111.487 162.441 111.941L163.961 110.82L163.619 109.572Z" fill="#35261F"/>
<path d="M163.169 123.55C160.66 122.977 159.825 123.094 159.392 122.012C158.766 120.44 159.965 119.18 159.248 118.748C158.845 118.505 158.115 118.182 158.386 117.518C159.012 115.982 160.932 115.572 160.991 114.491C161.259 113.281 161.873 112.175 162.758 111.307C163.643 110.439 164.761 109.847 165.977 109.601C169.875 109.234 173.941 111.131 174.779 113.585C175.234 115.142 175.198 116.802 174.676 118.339C174.155 119.875 173.172 121.214 171.862 122.174C169.419 124.072 169.14 127.425 168.994 128.892C168.017 129.534 166.859 129.843 165.692 129.772C164.502 129.666 163.359 129.257 162.373 128.584L163.169 123.55Z" fill="#A35E38"/>
<path d="M163.145 110.908C164.36 112.417 166.002 113.526 167.857 114.089C169.114 114.315 167.509 116.187 167.988 116.67C168.229 116.894 168.414 117.172 168.527 117.481C168.64 117.791 168.678 118.122 168.639 118.449C168.599 118.776 168.482 119.089 168.298 119.362C168.114 119.635 167.868 119.861 167.58 120.022C167.36 121.611 168.97 123.199 170.43 123.961C171.891 124.723 178.578 119.639 176.655 114.776C173.709 107.327 168.045 108.422 165.855 108.769C162.434 109.317 163.145 110.908 163.145 110.908Z" fill="#35261F"/>
<path d="M162.488 115.147L162.317 114.918C162.22 114.933 162.127 114.97 162.046 115.025C161.965 115.08 161.898 115.153 161.848 115.238C161.799 115.324 161.773 115.421 161.773 115.52C161.773 115.619 161.799 115.717 161.848 115.803C161.9 115.886 161.976 115.951 162.066 115.988C162.156 116.026 162.256 116.035 162.351 116.014C162.455 115.982 162.547 115.922 162.619 115.841C162.703 115.756 162.761 115.649 162.788 115.533C162.815 115.417 162.809 115.296 162.771 115.183C162.749 115.13 162.716 115.081 162.674 115.041C162.632 115.001 162.582 114.971 162.527 114.951C162.473 114.932 162.415 114.924 162.357 114.928C162.299 114.933 162.243 114.949 162.192 114.977C162.174 114.951 162.158 114.922 162.488 115.147Z" fill="#7A4327"/>
<path d="M163.239 116.237C163.192 116.237 163.145 116.222 163.107 116.194C162.87 116.032 162.615 115.898 162.347 115.795C162.319 115.784 162.293 115.767 162.271 115.746C162.249 115.725 162.232 115.7 162.22 115.672C162.208 115.644 162.201 115.614 162.201 115.584C162.2 115.554 162.206 115.523 162.217 115.495C162.228 115.467 162.245 115.441 162.266 115.42C162.287 115.398 162.312 115.38 162.34 115.368C162.368 115.356 162.398 115.35 162.428 115.349C162.459 115.349 162.489 115.354 162.517 115.365C162.816 115.484 163.099 115.637 163.362 115.821C163.403 115.849 163.433 115.889 163.449 115.935C163.465 115.982 163.466 116.032 163.451 116.079C163.437 116.126 163.408 116.167 163.368 116.196C163.329 116.225 163.281 116.241 163.232 116.241L163.239 116.237Z" fill="#7A4327"/>
<path d="M164.63 114.517C164.574 114.517 164.52 114.497 164.478 114.461C163.833 114.015 163.07 113.769 162.286 113.753C162.256 113.758 162.225 113.757 162.196 113.749C162.166 113.742 162.138 113.729 162.114 113.71C162.09 113.692 162.069 113.669 162.054 113.643C162.038 113.617 162.029 113.588 162.025 113.557C162.02 113.527 162.022 113.497 162.029 113.467C162.037 113.438 162.05 113.41 162.068 113.386C162.086 113.362 162.109 113.341 162.135 113.326C162.162 113.31 162.191 113.3 162.221 113.296C163.14 113.284 164.038 113.57 164.78 114.112C164.816 114.142 164.841 114.183 164.853 114.229C164.865 114.275 164.862 114.323 164.846 114.367C164.829 114.411 164.799 114.449 164.761 114.476C164.722 114.503 164.676 114.517 164.628 114.517H164.63Z" fill="#7A4327"/>
<path d="M160.189 118.898C159.965 118.87 159.759 118.762 159.608 118.595C159.506 118.5 159.442 118.443 159.384 118.456C159.368 118.461 159.351 118.462 159.334 118.459C159.317 118.457 159.301 118.45 159.286 118.441C159.272 118.432 159.26 118.419 159.25 118.405C159.241 118.391 159.235 118.375 159.232 118.358C159.229 118.341 159.228 118.324 159.231 118.308C159.234 118.291 159.24 118.275 159.25 118.261C159.259 118.247 159.271 118.235 159.285 118.225C159.299 118.216 159.315 118.209 159.331 118.206C159.512 118.166 159.649 118.289 159.775 118.405C159.885 118.53 160.036 118.612 160.201 118.637C160.234 118.639 160.266 118.655 160.288 118.68C160.31 118.706 160.321 118.739 160.319 118.772C160.319 118.789 160.316 118.806 160.309 118.821C160.303 118.837 160.293 118.851 160.281 118.863C160.268 118.875 160.254 118.884 160.238 118.89C160.222 118.896 160.205 118.899 160.189 118.898Z" fill="#7A4327"/>
<path d="M166.896 108.649C163.894 108.985 163.726 109.07 162.099 108.425C161.918 108.894 161.927 109.415 162.123 109.878C162.319 110.341 162.687 110.71 163.149 110.908L166.363 110.161L166.896 108.649Z" fill="#35261F"/>
<path d="M167.705 108.593C166.407 108.827 165.068 108.546 163.975 107.808C163.902 108.11 163.931 108.428 164.058 108.712C164.184 108.996 164.402 109.23 164.676 109.378L167.536 109.489L167.705 108.593Z" fill="#35261F"/>
<path d="M167.34 113.943C167.928 114.195 166.916 116.402 165.961 116.654C166.344 116.842 166.767 116.933 167.193 116.919C167.619 116.906 168.035 116.788 168.406 116.577L169.191 115.232L168.91 113.41L167.34 113.943Z" fill="#35261F"/>
<path d="M167.644 116.993C167.79 116.857 167.973 116.768 168.17 116.736C168.367 116.704 168.569 116.73 168.751 116.812C168.933 116.9 169.096 117.024 169.227 117.179C169.358 117.333 169.454 117.514 169.511 117.708C169.607 118.038 169.606 118.39 169.507 118.719C169.409 119.049 169.217 119.343 168.954 119.566C168.684 119.775 168.359 119.9 168.019 119.927C167.678 119.954 167.337 119.881 167.038 119.718" fill="#A35E38"/>
<path d="M167.877 120.056C167.558 120.059 167.244 119.979 166.965 119.824C166.95 119.816 166.937 119.805 166.927 119.792C166.917 119.779 166.909 119.764 166.905 119.749C166.9 119.733 166.899 119.716 166.901 119.699C166.903 119.683 166.908 119.667 166.916 119.653C166.933 119.624 166.96 119.602 166.993 119.593C167.025 119.584 167.06 119.588 167.089 119.604C167.366 119.757 167.681 119.825 167.997 119.801C168.312 119.777 168.613 119.661 168.863 119.467C169.105 119.26 169.283 118.988 169.374 118.682C169.465 118.377 169.467 118.052 169.378 117.746C169.329 117.569 169.243 117.405 169.125 117.264C169.007 117.124 168.861 117.009 168.696 116.929C168.538 116.856 168.362 116.831 168.19 116.858C168.017 116.886 167.857 116.963 167.729 117.081C167.718 117.093 167.704 117.102 167.688 117.109C167.673 117.115 167.657 117.118 167.64 117.118C167.623 117.118 167.607 117.115 167.592 117.109C167.576 117.103 167.562 117.093 167.551 117.082C167.539 117.07 167.529 117.056 167.523 117.041C167.517 117.026 167.513 117.009 167.513 116.993C167.513 116.976 167.516 116.96 167.523 116.944C167.529 116.929 167.538 116.915 167.55 116.903C167.713 116.749 167.919 116.647 168.141 116.61C168.363 116.573 168.591 116.602 168.796 116.695C168.995 116.79 169.171 116.926 169.313 117.094C169.455 117.262 169.56 117.458 169.62 117.67C169.726 118.024 169.726 118.401 169.619 118.755C169.513 119.109 169.306 119.424 169.023 119.662C168.697 119.919 168.292 120.058 167.877 120.056Z" fill="#7A4327"/>
<path d="M167.2 118.825C167.168 118.825 167.138 118.813 167.114 118.792C167.091 118.77 167.077 118.741 167.074 118.709C167.072 118.678 167.081 118.646 167.101 118.621C167.121 118.596 167.149 118.58 167.18 118.575C167.25 118.561 167.315 118.531 167.371 118.488C167.427 118.445 167.472 118.389 167.503 118.326C167.532 118.259 167.546 118.186 167.543 118.114C167.54 118.041 167.521 117.97 167.486 117.905L167.44 117.826L167.503 117.758C167.649 117.597 167.843 117.486 168.056 117.441C168.167 117.419 168.281 117.42 168.391 117.443C168.501 117.467 168.606 117.513 168.697 117.579C168.849 117.698 168.952 117.868 168.987 118.058C169.022 118.247 168.987 118.443 168.887 118.608C168.879 118.623 168.867 118.636 168.854 118.646C168.84 118.656 168.825 118.663 168.808 118.667C168.792 118.671 168.775 118.672 168.758 118.669C168.741 118.666 168.725 118.66 168.711 118.651C168.697 118.642 168.684 118.63 168.675 118.616C168.665 118.602 168.658 118.586 168.655 118.57C168.652 118.553 168.652 118.536 168.655 118.519C168.658 118.503 168.665 118.487 168.675 118.473C168.738 118.361 168.76 118.231 168.737 118.105C168.713 117.978 168.646 117.864 168.547 117.782C168.484 117.737 168.412 117.706 168.336 117.69C168.259 117.674 168.181 117.674 168.105 117.69C167.972 117.717 167.849 117.78 167.749 117.872C167.817 118.054 167.811 118.255 167.732 118.432C167.685 118.534 167.614 118.622 167.525 118.69C167.436 118.758 167.332 118.804 167.222 118.824L167.2 118.825Z" fill="#7A4327"/>
<path d="M169.527 125.737C169.438 126.27 169.375 126.791 170.6 127.726L167.864 128.874L166.154 127.052L169.527 125.737Z" fill="#A35E38"/>
<path d="M163.02 124.532C162.716 125.765 160.524 125.708 160.524 125.708L161.366 128.005L163.833 128.818L165.376 127.299L163.02 124.532Z" fill="#A35E38"/>
<path d="M110.531 189.588C146.595 181.998 164.52 177.226 171.775 176.799L125.256 194.276L110.531 189.588Z" fill="#017680"/>
<path d="M164.531 166.264L173.206 188.273L165.703 191.317L157.264 171.415L164.531 166.264Z" fill="#DC8126"/>
<path d="M144.379 182.837C143.23 179.307 143.548 179.326 144.821 176.704C148.317 169.512 154.131 161.185 153.982 161.113C153.982 161.113 153.303 160.07 153.657 159.716C155.292 158.886 157.134 158.549 158.957 158.746C161.344 159.01 167.308 157.51 168.015 158.304C168.722 159.098 168.319 164.129 166.647 166.291C165.536 167.721 152.952 176.484 152.155 178.425C151.97 179.095 151.954 179.801 152.108 180.478C152.263 181.156 152.583 181.785 153.04 182.309L144.999 185.041L144.38 182.834" fill="#F39427"/>
<path d="M152.212 151.855C143.836 131.424 135.306 111.045 125.884 91.0876C121.144 81.1241 116.195 71.2548 110.609 61.7513C104.997 52.2575 98.9008 43.0582 92.3432 34.1898C89.0341 29.7872 85.5852 25.4803 81.8856 21.4026C78.2286 17.2963 74.2098 13.5263 69.8775 10.1381C67.7187 8.45178 65.418 6.95491 63.001 5.66421C60.6127 4.34576 58.0456 3.3803 55.3797 2.79799C52.7283 2.20261 49.9783 2.19536 47.3237 2.77673C44.6817 3.40975 42.2039 4.5946 40.0536 6.25324C35.8154 9.74412 32.4003 14.1258 30.052 19.086C27.5966 24.0134 25.5966 29.1543 24.0768 34.4448C22.524 39.7364 21.2606 45.1083 20.292 50.537C19.2853 55.9548 18.5713 61.4229 18.1534 66.9175L17.6472 66.8993C18.0438 61.3779 18.7384 55.8819 19.7281 50.4352C20.6778 44.9812 21.924 39.5829 23.4612 34.2642C24.971 28.9265 26.9659 23.7377 29.4212 18.7626C31.7992 13.6922 35.2701 9.20949 39.5854 5.63536C41.8184 3.90015 44.3949 2.65827 47.1444 1.99186C49.9104 1.37279 52.7787 1.3676 55.547 1.97668C58.2939 2.56307 60.941 3.54492 63.4054 4.89148C65.8717 6.19372 68.2207 7.70634 70.4263 9.41246C74.8193 12.8168 78.8972 16.6087 82.6106 20.7422C86.3544 24.8412 89.8397 29.1481 93.1822 33.5613C99.8015 42.4353 105.959 51.6438 111.63 61.1502C117.283 70.6764 122.289 80.5548 127.072 90.5198C136.598 110.482 145.216 130.841 153.683 151.245L152.212 151.855Z" fill="#26003D"/>
<path d="M139.983 117.56L137.777 118.481L152.263 153.072L154.469 152.151L139.983 117.56Z" fill="#26003D"/>
<path d="M148.671 127.709C146.961 126.159 145.459 124.394 144.201 122.46C142.947 120.623 142.259 120.942 140.05 121.031C136.347 121.171 139.238 126.521 139.696 127.847C140.138 129.127 143.294 129.932 144.491 129.499C145.113 129.276 147.594 131.776 147.594 131.776L148.671 127.709Z" fill="#A35E38"/>
<path d="M156.037 134.561C153.651 132.707 148.311 126.666 147.427 126.092C146.542 125.519 145.482 131.093 145.659 132.151C145.835 133.209 153.666 142.499 154.992 143.029L156.037 134.561Z" fill="#0D808F"/>
<path d="M145.008 317.689C105.944 327.126 82.1135 209.255 48.488 188.814C47.5321 188.203 46.4633 187.79 45.3447 187.599C13.4976 299.947 93.2263 341.375 145.008 317.689Z" fill="#048DA4"/>
<path d="M240.809 275.412C232.551 260.917 220.736 258.336 220.736 258.336C221.764 251.665 221.407 244.853 219.69 238.324C217.972 231.796 214.93 225.689 210.751 220.383C183.314 253.457 216.155 285.145 145.004 317.695C93.2262 341.378 13.4976 299.953 45.3431 187.612C45.2656 187.601 45.1835 187.583 45.1091 187.574C43.9712 187.393 42.8067 187.642 41.8426 188.272C-16.7018 265.361 36.0666 369.705 97.502 368.861C158.937 368.016 176.086 327.583 196.436 298.614C231.7 290.601 237.379 305.576 270.916 288.231C270.911 288.225 249.068 289.906 240.809 275.412Z" fill="#26003D"/>
<path d="M61.758 238.485C63.7518 238.027 64.5698 234.189 63.5851 229.913C62.6004 225.638 60.1859 222.543 58.1921 223.001C56.1984 223.459 55.3804 227.296 56.3651 231.572C57.3498 235.848 59.7643 238.943 61.758 238.485Z" fill="#FFF5FA"/>
<path d="M60.9577 235.01C62.0564 234.757 62.5072 232.642 61.9645 230.286C61.4218 227.929 60.0912 226.224 58.9925 226.476C57.8937 226.728 57.443 228.843 57.9857 231.2C58.5283 233.556 59.859 235.262 60.9577 235.01Z" fill="#1A264F"/>
<path d="M81.7974 237.562C82.7733 245.996 75.4256 254.253 71.4614 256.026C71.4614 256.026 79.3882 254.556 81.577 248.827C83.7659 243.097 83.4634 241.001 83.4634 241.001L81.7974 237.562Z" fill="#1A264F"/>
<path d="M61.4887 233.723C62.3013 233.723 62.9601 233.065 62.9601 232.253C62.9601 231.442 62.3013 230.784 61.4887 230.784C60.6761 230.784 60.0173 231.442 60.0173 232.253C60.0173 233.065 60.6761 233.723 61.4887 233.723Z" fill="#FFF5FA"/>
<path d="M48.0321 188.073C50.7103 191.61 53.4266 195.135 55.8419 198.884C57.0618 200.756 58.1708 202.699 59.1631 204.701C60.1736 206.718 60.9581 208.84 61.5023 211.029L60.5417 211.238C60.0703 209.102 59.3643 207.024 58.4365 205.043C57.5114 203.04 56.4689 201.093 55.3144 199.213C53.0192 195.43 50.4048 191.838 47.8208 188.226L48.0321 188.073Z" fill="#1A264F"/>
<path d="M63.9328 210.634C64.2124 211.12 64.3808 211.662 64.4257 212.221C64.4707 212.78 64.3911 213.342 64.1927 213.866C63.9258 214.436 63.4809 214.903 62.925 215.199C62.4047 215.464 61.8418 215.635 61.2621 215.706C60.6586 215.768 60.049 215.684 59.4846 215.462C58.9202 215.24 58.4174 214.886 58.0184 214.429C57.6173 214.029 57.3151 213.541 57.1357 213.004C56.9562 212.467 56.9046 211.896 56.9849 211.335L57.222 211.346C57.4897 212.25 58.0353 213.046 58.7815 213.623C59.0978 213.901 59.4661 214.113 59.865 214.247C60.264 214.381 60.6857 214.435 61.1056 214.405C61.5283 214.404 61.9459 214.313 62.3303 214.137C62.7147 213.961 63.0569 213.705 63.3339 213.386C63.7905 212.544 63.9982 211.589 63.9328 210.634Z" fill="#1A264F"/>
<path d="M59.8045 210.629C60.2724 210.717 60.7483 210.755 61.2242 210.742C61.695 210.748 62.1571 210.615 62.5527 210.361L62.6804 210.446C62.346 210.881 61.8853 211.203 61.361 211.367C60.8559 211.553 60.3319 211.684 59.7985 211.757L59.8045 210.629Z" fill="#1A264F"/>
<path d="M168.687 159.64C170.391 154.661 176.539 134.416 176.539 132.74C176.539 131.064 171.769 128.476 170.49 127.328C170.49 127.328 167.249 128.901 165.11 128.376C164.322 128.178 163.583 127.817 162.942 127.318C162.301 126.818 161.772 126.19 161.388 125.475C159.776 125.441 158.187 125.852 156.794 126.662C154.806 128.25 153.435 136.727 153.701 141.539C153.967 146.352 150.679 157.961 153.456 161.176C153.657 161.406 168.687 159.64 168.687 159.64Z" fill="#048DA4"/>
<path d="M156.44 144.374C154.2 143.3 152.996 142.843 152.284 141.905C151.632 141.082 150.721 140.502 149.698 140.26C148.675 140.018 147.6 140.127 146.647 140.571C143.745 141.761 147.597 147.044 148.7 147.402C149.804 147.761 151.275 146.244 151.936 146.373C153.337 146.96 154.703 147.629 156.027 148.374L156.44 144.374Z" fill="#A35E38"/>
<path d="M174.04 130.317C174.882 130.502 175.63 130.979 176.151 131.664C176.672 132.35 176.931 133.198 176.883 134.057C176.857 136.275 171.513 148.06 170.651 149.291C170.125 149.941 169.472 150.476 168.731 150.864C167.99 151.251 167.177 151.482 166.343 151.542C165.623 151.621 159.065 151.879 156.521 149.296C155.609 148.374 154.513 148.641 154.53 148.456C154.726 146.355 154.586 143.539 154.862 143.628C157.529 144.409 160.321 144.676 163.087 144.413C164.653 144.456 164.595 144.635 165.084 144.228C165.475 143.905 164.78 143.677 165.724 143.346C166.702 143.006 165.699 142.783 166.012 142.242C166.325 141.702 169.885 131.265 171.292 130.553C172.144 130.124 173.128 130.039 174.04 130.317Z" fill="#2BA5B9"/>
<path d="M142.868 139.965C144.849 139.965 146.455 138.361 146.455 136.382C146.455 134.404 144.849 132.8 142.868 132.8C140.887 132.8 139.281 134.404 139.281 136.382C139.281 138.361 140.887 139.965 142.868 139.965Z" fill="#26003D"/>
<path d="M127.414 96.1763C127.926 96.1763 128.341 95.7617 128.341 95.2503C128.341 94.7388 127.926 94.3242 127.414 94.3242C126.902 94.3242 126.487 94.7388 126.487 95.2503C126.487 95.7617 126.902 96.1763 127.414 96.1763Z" fill="#26003D"/>
<path d="M114.108 69.7593C114.62 69.7593 115.035 69.3447 115.035 68.8333C115.035 68.3218 114.62 67.9072 114.108 67.9072C113.596 67.9072 113.181 68.3218 113.181 68.8333C113.181 69.3447 113.596 69.7593 114.108 69.7593Z" fill="#26003D"/>
<path d="M99.0708 44.9608C99.5828 44.9608 99.998 44.5461 99.998 44.0347C99.998 43.5233 99.5828 43.1086 99.0708 43.1086C98.5587 43.1086 98.1436 43.5233 98.1436 44.0347C98.1436 44.5461 98.5587 44.9608 99.0708 44.9608Z" fill="#26003D"/>
<path d="M81.27 22.5548C81.7821 22.5548 82.1972 22.1401 82.1972 21.6287C82.1972 21.1172 81.7821 20.7026 81.27 20.7026C80.7579 20.7026 80.3428 21.1172 80.3428 21.6287C80.3428 22.1401 80.7579 22.5548 81.27 22.5548Z" fill="#26003D"/>
<path d="M52.9036 3.86823C53.4157 3.86823 53.8308 3.45362 53.8308 2.94217C53.8308 2.43072 53.4157 2.01611 52.9036 2.01611C52.3916 2.01611 51.9764 2.43072 51.9764 2.94217C51.9764 3.45362 52.3916 3.86823 52.9036 3.86823Z" fill="#26003D"/>
<path d="M27.0971 27.9805C27.6092 27.9805 28.0243 27.5659 28.0243 27.0545C28.0243 26.543 27.6092 26.1284 27.0971 26.1284C26.585 26.1284 26.1699 26.543 26.1699 27.0545C26.1699 27.5659 26.585 27.9805 27.0971 27.9805Z" fill="#26003D"/>
<path d="M18.5927 68.1092C19.1048 68.1092 19.5199 67.6946 19.5199 67.1831C19.5199 66.6717 19.1048 66.2571 18.5927 66.2571C18.0807 66.2571 17.6655 66.6717 17.6655 67.1831C17.6655 67.6946 18.0807 68.1092 18.5927 68.1092Z" fill="#26003D"/>
<path d="M152.078 146.446L149.872 147.367L152.262 153.073L154.468 152.151L152.078 146.446Z" fill="#26003D"/>
<path d="M142.328 129.334C143.058 129.422 144.352 129.308 144.505 128.954C144.659 128.6 145.098 129.757 145.098 129.757L142.678 130.147L142.328 129.334Z" fill="#26003D"/>
<path d="M141.705 121.702C141.857 122.077 139.807 122.63 139.188 121.901L138.79 120.776L141.286 120.688L141.705 121.702Z" fill="#26003D"/>
<path d="M192.922 223.442C193.042 223.42 193.171 223.388 193.291 223.363C207.812 218.917 224.53 207.845 234.787 185.119C211.802 203.877 185.322 217.705 145.37 220.453C160.77 225.142 177.055 226.166 192.922 223.442Z" fill="#017680"/>
<path d="M243.947 146.58C244.31 141.835 244.479 136.833 244.422 131.55C217.655 160.395 148.089 189.38 110.531 189.594C111.338 192.673 112.561 195.628 114.169 198.377C168.273 198.554 217.134 170.25 243.947 146.58Z" fill="#2FA8BC"/>
<path d="M243.947 146.58C217.134 170.25 168.273 198.554 114.169 198.37C116.998 203.378 120.826 207.751 125.417 211.22C175.201 210.036 214.922 187.12 241.141 165.778C242.537 159.454 243.475 153.038 243.947 146.58Z" fill="#048DA4"/>
<path d="M125.42 211.22C128.33 213.414 131.5 215.239 134.859 216.655C138.292 218.11 141.802 219.377 145.373 220.45C185.325 217.702 211.805 203.874 234.79 185.116C237.559 178.9 239.688 172.42 241.144 165.775C214.928 187.12 175.205 210.036 125.42 211.22Z" fill="#017680"/>
<path d="M244.488 131.47L244.422 131.54C245.076 192.441 216.397 216.283 193.291 223.359C207.482 220.491 236.611 203.5 242.836 183.332C249.119 162.995 244.488 131.47 244.488 131.47Z" fill="#017680"/>
<path d="M246.216 128.737L246.032 135.956L245.938 139.564C245.9 140.767 245.745 141.966 245.654 143.167L245.012 150.367C244.669 152.755 244.269 155.139 243.9 157.522C242.317 167.081 239.481 176.391 235.467 185.211C231.385 194.078 225.601 202.058 218.443 208.7C217.531 209.506 216.667 210.37 215.707 211.129L212.8 213.344C212.309 213.703 211.844 214.103 211.332 214.431L209.789 215.411C208.756 216.06 207.728 216.717 206.669 217.314C204.531 218.48 202.318 219.502 200.043 220.371C198.929 220.855 197.78 221.256 196.606 221.569C195.396 221.863 194.148 221.969 192.905 221.883C195.01 220.631 197.24 219.872 199.338 218.756C201.455 217.719 203.516 216.572 205.513 215.32C209.469 212.803 213.162 209.895 216.535 206.64C223.328 200.172 228.793 192.442 232.623 183.884C236.418 175.286 239.065 166.226 240.495 156.938L241.506 149.954L242.114 142.91C242.2 141.735 242.352 140.565 242.386 139.385L242.466 135.843L242.632 128.763L246.216 128.737Z" fill="#269DB1"/>
<g opacity="0.27">
<path opacity="0.27" d="M16.9647 252.731C15.7902 264.695 16.5964 276.771 19.3511 288.473C20.4151 292.974 51.6907 271.793 65.7386 273.647C65.7386 273.647 60.7028 264.91 38.4363 265.44C16.1698 265.97 16.9647 252.731 16.9647 252.731Z" fill="#048DA4"/>
</g>
<g opacity="0.27">
<path opacity="0.27" d="M40.2922 335.863C68.6555 328.185 76.6066 327.126 102.585 328.979C128.563 330.833 130.948 328.715 136.514 325.803C131.574 332.765 124.875 338.295 117.099 341.829C109.323 345.363 100.748 346.776 92.2474 345.923C62.2927 343.276 64.6791 357.837 64.6791 357.837C64.6791 357.837 52.2151 349.101 49.8348 346.719C47.4545 344.337 40.2922 335.863 40.2922 335.863Z" fill="#048DA4"/>
</g>
<path d="M124.984 210.945L145.973 211.001C150.8 210.963 155.621 211.295 160.397 211.994L171.993 213.693C181.917 215.147 192.01 215.008 201.89 213.28L220.412 210.415C220.412 210.415 196.678 228.265 170.312 225.197C145.66 222.33 131.213 216.415 124.984 210.945Z" fill="#048DA4"/>
<g opacity="0.27">
<path opacity="0.27" d="M27.468 211.832L42.06 211.783L40.8227 225.902C40.8227 225.902 24.656 225.363 21.4746 228.009C23.1968 222.519 25.1971 217.119 27.468 211.832Z" fill="#048DA4"/>
</g>
<path d="M154.691 143.496L156.626 143.987L156.486 149.379L154.298 148.679L154.691 143.496Z" fill="#3DBCC9"/>
<path d="M149.375 127.67L147.006 125.611L144.566 133.089L147.411 135.008L149.375 127.67Z" fill="#048DA4"/>
<path d="M147.314 135.093L145.267 130.191L144.748 131.087L144.145 133.427L147.23 135.625L147.314 135.093Z" fill="#26003D"/>
<path d="M161.388 125.349C161.724 126.021 162.196 126.616 162.776 127.095C163.356 127.574 164.029 127.926 164.753 128.13C166.715 128.425 168.72 128.103 170.49 127.207L171 127.677C170.141 128.307 169.164 128.759 168.127 129.006C167.09 129.253 166.014 129.291 164.963 129.117C163.944 128.985 162.982 128.576 162.182 127.933C161.383 127.29 160.776 126.439 160.43 125.473L161.388 125.349Z" fill="#2BA5B9"/>
<path d="M148.582 183.071L147.37 179.162L147.41 179.11L161.097 160.929L161.298 161.081L147.651 179.209L148.823 182.996L148.582 183.071Z" fill="#DC8126"/>
<path d="M161.708 170.426L161.472 170.521L164.389 177.748L164.625 177.653L161.708 170.426Z" fill="#C67124"/>
<path d="M153.456 161.173L153.175 162.406L168.433 160.892L168.687 159.64L153.456 161.173Z" fill="#0D808F"/>
<path d="M163.397 123.613L167.418 124.107L163.064 125.359L163.397 123.613Z" fill="#915233"/>
<path d="M145.479 129.703L145.092 129.473L144.902 128.896L145.028 127.571L145.416 127.943L146.002 128.137L145.479 129.703Z" fill="#915233"/>
<path d="M24.928 297.884C19.1095 304.471 15.615 331.167 20.2039 334.801C24.7927 338.436 35.8082 331.247 37.6732 328.404L24.928 297.884Z" fill="#26003D"/>
<path d="M128.872 271.745C128.529 271.221 128.068 270.784 127.527 270.468C126.986 270.152 126.38 269.965 125.754 269.923C118.477 269.285 107.498 272.129 89.5874 269.803C88.9552 269.737 88.3169 269.763 87.692 269.879C87.2794 269.955 86.878 270.082 86.4973 270.258C86.2026 270.394 85.9267 270.567 85.6765 270.773C85.4552 270.959 85.258 271.171 85.0897 271.406C85.0761 271.427 85.0593 271.444 85.0441 271.465C84.9014 271.681 84.7961 271.92 84.7325 272.171C84.6518 272.48 84.6235 272.8 84.6489 273.118C84.684 273.575 84.7939 274.024 84.9742 274.445C85.2848 275.195 85.7547 275.868 86.3513 276.419C90.621 281.24 93.9281 286.832 96.0946 292.893C96.4874 294.119 97.1713 295.231 98.0879 296.135C99.0046 297.039 100.127 297.707 101.358 298.084C103.7 298.827 106.187 298.999 108.609 298.585C111.368 298.15 114.038 297.269 116.513 295.975C117.709 295.364 118.864 294.677 119.971 293.917C121.393 292.936 122.7 291.799 123.868 290.527C125.787 288.44 127.33 286.037 128.428 283.425C129.329 281.343 129.86 279.121 129.998 276.858C130.17 275.077 129.776 273.288 128.872 271.745Z" fill="#26003D"/>
<path d="M202.799 365.637C202.66 363.441 206.243 356.823 206.243 356.823C206.243 356.823 210.624 362.943 210.762 365.14C210.801 366.178 210.432 367.191 209.734 367.962C209.036 368.733 208.064 369.201 207.025 369.266C205.986 369.331 204.963 368.988 204.174 368.311C203.385 367.633 202.892 366.674 202.8 365.639L202.799 365.637Z" fill="#EB3B63"/>
<path d="M190.622 348.723C191.613 346.758 198.049 342.85 198.049 342.85C198.049 342.85 198.739 350.342 197.745 352.308C197.522 352.786 197.207 353.215 196.817 353.57C196.427 353.925 195.971 354.199 195.474 354.376C194.978 354.554 194.451 354.632 193.924 354.605C193.397 354.578 192.881 354.447 192.405 354.219C191.929 353.992 191.504 353.672 191.152 353.279C190.801 352.887 190.531 352.428 190.358 351.93C190.185 351.432 190.113 350.905 190.146 350.38C190.178 349.854 190.315 349.34 190.548 348.867C190.57 348.818 190.593 348.771 190.619 348.724L190.622 348.723Z" fill="#EB3B63"/>
<path d="M184.293 333.854C184.937 331.751 190.62 326.813 190.62 326.813C190.62 326.813 192.568 334.079 191.925 336.184C191.622 337.198 190.929 338.049 189.998 338.552C189.067 339.055 187.974 339.168 186.959 338.866C185.945 338.564 185.092 337.872 184.589 336.942C184.085 336.012 183.972 334.92 184.274 333.907L184.293 333.854Z" fill="#EB3B63"/>
<path d="M212.721 351.502C210.539 351.209 203.676 354.299 203.676 354.299C203.676 354.299 209.476 359.097 211.66 359.392C212.69 359.495 213.719 359.194 214.53 358.553C215.342 357.913 215.873 356.982 216.011 355.958C216.149 354.934 215.883 353.897 215.27 353.065C214.657 352.232 213.744 351.671 212.724 351.498L212.721 351.502Z" fill="#EB3B63"/>
<path d="M205.098 334.208C202.926 334.581 197.307 339.586 197.307 339.586C197.307 339.586 204.279 342.433 206.451 342.06C206.969 341.981 207.467 341.802 207.916 341.532C208.364 341.261 208.755 340.905 209.066 340.484C209.377 340.063 209.602 339.585 209.728 339.077C209.854 338.569 209.878 338.041 209.8 337.523C209.721 337.006 209.542 336.509 209.271 336.061C209.001 335.613 208.644 335.222 208.222 334.912C207.801 334.601 207.322 334.377 206.813 334.251C206.305 334.125 205.776 334.101 205.258 334.179C205.205 334.179 205.153 334.196 205.106 334.206L205.098 334.208Z" fill="#EB3B63"/>
<path d="M195.381 318.412C193.179 318.412 186.79 322.401 186.79 322.401C186.79 322.401 193.174 326.382 195.384 326.382C196.442 326.39 197.46 325.977 198.214 325.236C198.968 324.494 199.396 323.483 199.404 322.426C199.412 321.369 198.999 320.353 198.256 319.6C197.513 318.847 196.502 318.419 195.443 318.412H195.381Z" fill="#EB3B63"/>
<path d="M213.419 362.663C210.918 361.133 208.561 359.378 206.38 357.42C201.796 353.258 198.701 347.713 197.564 341.631C194.797 327.523 180.026 316.233 179.876 316.127L180.135 315.785C180.287 315.898 195.184 327.284 197.985 341.554C199.107 347.544 202.157 353.003 206.672 357.103C208.834 359.043 211.169 360.782 213.647 362.299L213.419 362.663Z" fill="#26003D"/>
<path d="M178.544 344.614C177.748 343.461 173.344 341.555 173.344 341.555C173.344 341.555 173.561 346.342 174.358 347.497C174.743 348.039 175.325 348.408 175.979 348.527C176.633 348.645 177.308 348.502 177.858 348.13C178.409 347.757 178.791 347.184 178.924 346.533C179.056 345.882 178.928 345.205 178.567 344.648L178.544 344.614Z" fill="#EB3B63"/>
<path d="M157.687 374.066C158.143 372.739 161.865 369.721 161.865 369.721C161.865 369.721 162.95 374.391 162.496 375.713C162.395 376.031 162.232 376.326 162.017 376.581C161.802 376.836 161.539 377.046 161.243 377.2C160.947 377.353 160.623 377.447 160.29 377.475C159.958 377.504 159.623 377.467 159.305 377.366C158.986 377.265 158.691 377.103 158.436 376.888C158.181 376.673 157.97 376.41 157.816 376.114C157.663 375.818 157.569 375.495 157.54 375.163C157.512 374.831 157.549 374.496 157.65 374.179C157.661 374.141 157.674 374.104 157.688 374.068L157.687 374.066Z" fill="#EB3B63"/>
<path d="M156.229 365.357C157.332 364.49 162.104 363.975 162.104 363.975C162.104 363.975 160.473 368.482 159.368 369.349C158.837 369.754 158.168 369.933 157.506 369.849C156.843 369.765 156.241 369.424 155.828 368.899C155.416 368.375 155.226 367.71 155.301 367.047C155.376 366.384 155.708 365.778 156.227 365.358L156.229 365.357Z" fill="#EB3B63"/>
<path d="M160.713 352.863C162.104 352.671 166.489 354.631 166.489 354.631C166.489 354.631 162.803 357.701 161.412 357.891C161.076 357.958 160.73 357.957 160.394 357.888C160.059 357.818 159.74 357.682 159.459 357.487C159.178 357.291 158.939 357.041 158.757 356.751C158.574 356.461 158.453 356.137 158.399 355.799C158.346 355.461 158.361 355.115 158.445 354.783C158.528 354.451 158.678 354.14 158.886 353.867C159.093 353.594 159.353 353.367 159.651 353.197C159.949 353.028 160.278 352.92 160.619 352.881C160.652 352.875 160.686 352.87 160.719 352.867L160.713 352.863Z" fill="#EB3B63"/>
<path d="M166.235 344.171C167.573 343.749 172.221 344.942 172.221 344.942C172.221 344.942 169.108 348.586 167.77 349.013C167.133 349.207 166.445 349.144 165.853 348.837C165.262 348.53 164.815 348.003 164.609 347.37C164.402 346.737 164.453 346.049 164.75 345.453C165.046 344.857 165.566 344.401 166.196 344.183L166.235 344.171Z" fill="#EB3B63"/>
<path d="M167.241 365.446C166.606 364.197 162.502 361.718 162.502 361.718C162.502 361.718 162.078 366.492 162.713 367.743C163.031 368.322 163.561 368.754 164.192 368.949C164.823 369.144 165.505 369.086 166.094 368.787C166.683 368.488 167.133 367.973 167.348 367.349C167.563 366.725 167.526 366.042 167.246 365.445L167.241 365.446Z" fill="#EB3B63"/>
<path d="M173.571 355.202C172.589 354.198 167.927 353.063 167.927 353.063C167.927 353.063 168.953 357.745 169.935 358.748C170.163 358.991 170.437 359.187 170.741 359.325C171.045 359.462 171.374 359.538 171.707 359.549C172.041 359.559 172.373 359.504 172.686 359.387C172.998 359.269 173.284 359.091 173.527 358.863C173.771 358.635 173.967 358.361 174.104 358.057C174.242 357.754 174.318 357.426 174.329 357.093C174.339 356.759 174.284 356.427 174.166 356.115C174.049 355.804 173.87 355.518 173.642 355.275C173.619 355.249 173.595 355.225 173.572 355.202H173.571Z" fill="#EB3B63"/>
<path d="M161.629 369.846C161.529 367.982 161.6 366.114 161.841 364.264C162.37 360.359 164.161 356.735 166.942 353.94C176.985 342.491 174.314 324.771 174.285 324.593L174.556 324.551C174.583 324.73 177.276 342.574 167.142 354.126C164.401 356.878 162.634 360.45 162.111 364.297C161.873 366.131 161.803 367.984 161.903 369.831L161.629 369.846Z" fill="#26003D"/>
<path d="M215.366 371.511C214.056 369.741 213.465 362.25 213.465 362.25C213.465 362.25 220.475 365.009 221.78 366.771C222.43 367.606 222.72 368.664 222.589 369.713C222.457 370.762 221.913 371.715 221.077 372.363C220.242 373.012 219.182 373.302 218.132 373.171C217.082 373.039 216.128 372.496 215.479 371.661C215.441 371.613 215.404 371.563 215.369 371.51L215.366 371.511Z" fill="#EB3B63"/>
<path d="M115.329 287.533C109.326 289.141 100.256 287.923 93.3326 286.51C94.4511 288.544 95.3758 290.679 96.0945 292.886C96.4873 294.111 97.1712 295.223 98.0879 296.127C99.0045 297.031 100.127 297.7 101.358 298.077C103.7 298.82 106.186 298.991 108.609 298.577C111.368 298.143 114.038 297.261 116.513 295.968C117.709 295.357 118.864 294.669 119.971 293.909C121.393 292.928 122.7 291.791 123.868 290.519C123.868 290.519 126.198 284.623 115.329 287.533Z" fill="#26003D"/>
<path d="M129.998 276.637C130.132 274.93 129.739 273.222 128.872 271.745C128.528 271.221 128.068 270.784 127.527 270.468C126.986 270.152 126.38 269.965 125.754 269.923C118.477 269.285 107.498 272.129 89.5874 269.803C88.9552 269.737 88.3169 269.763 87.692 269.879C87.2794 269.955 86.878 270.082 86.4973 270.258C86.2026 270.394 85.9267 270.567 85.6765 270.773C85.4552 270.959 85.258 271.171 85.0897 271.406C85.0761 271.427 85.0593 271.444 85.0441 271.465C84.9014 271.681 84.7961 271.92 84.7325 272.171C84.6518 272.48 84.6235 272.8 84.6489 273.118C84.684 273.575 84.7939 274.024 84.9742 274.445C85.2848 275.195 85.7547 275.868 86.3513 276.419C88.77 279.106 90.8741 282.06 92.6229 285.224C107.49 283.984 129.481 272.988 129.998 276.637Z" fill="#26003D"/>
<path d="M87.6479 285.215C85.1155 284.576 83.5195 284.093 83.5195 284.093C84.8196 284.704 86.2168 285.084 87.6479 285.215Z" fill="#048DA4"/>
<path d="M87.6478 285.215C89.2302 285.613 91.1758 286.071 93.3326 286.511C93.1006 286.077 92.864 285.65 92.6228 285.229C90.9679 285.385 89.3018 285.38 87.6478 285.215Z" fill="#048DA4"/>
<path opacity="0.27" d="M130.001 276.858C130.001 276.782 130.001 276.706 130.001 276.637C129.484 272.994 107.493 283.984 92.6259 285.228C92.866 285.648 93.1026 286.076 93.3357 286.511C100.259 287.925 109.329 289.142 115.332 287.534C126.201 284.623 123.866 290.527 123.866 290.527C125.785 288.44 127.328 286.037 128.426 283.425C129.329 281.344 129.862 279.121 130.001 276.858Z" fill="#048DA4"/>
</g>
<defs>
<clipPath id="clip0">
<rect width="273" height="379" fill="white"/>
</clipPath>
</defs>
</svg>
