<svg width="331" height="285" viewBox="0 0 331 285" fill="none" xmlns="http://www.w3.org/2000/svg">
<g clip-path="url(#clip0)">
<path d="M160.58 22.022C211.655 -14.618 327.526 -11.819 330.888 78.971C335.188 195.017 214.888 164.771 205.172 203.613C197.113 235.848 167.564 275.067 99.872 276.141C35.3 277.166 21.433 191.793 62.8 154.186C131.66 91.587 111.153 57.481 160.58 22.022Z" fill="#FEF3E7"/>
<path d="M315.86 9.59996C315.86 9.59996 278.901 5.01996 247.76 30.282C245.36 32.232 243.091 34.282 240.954 36.391C228.426 13.249 204.609 46.091 202.914 59.191L207.033 64.268C211.533 56.109 220.889 44.311 227.276 53.085C226.498 54.249 225.748 55.4126 225.026 56.576L228.259 60.561L224.551 68.6L229.638 74.869L228.198 76.038C223.368 73.077 216.327 73.763 210.893 78.172C204.28 83.538 187.219 104.818 191.708 110.35C196.197 115.882 220.536 103.572 227.148 98.207C232.59 93.792 234.71 87.031 232.793 81.691L234.228 80.527L240.028 87.677L248.043 84.944L251.175 88.805C252.462 88.3383 253.757 87.844 255.058 87.322C262.11 95.332 248.725 102.009 239.853 104.722L243.973 109.799C257.113 110.836 294.044 94.362 274.228 77.368C276.728 75.716 279.192 73.923 281.589 71.979C282.26 71.435 282.9 70.879 283.545 70.323C283.59 70.298 283.628 70.2639 283.659 70.223C312.852 45.035 315.86 9.59996 315.86 9.59996Z" fill="#E3DEE6" stroke="#E3DEE6" stroke-width="3.745" stroke-miterlimit="10"/>
<path d="M193.1 109.751C163.984 134.821 189.067 186.698 140.864 187.03C105.641 187.272 106.147 134.459 140.404 132.866C174.288 131.29 187.875 192.341 164.788 214.196C107.753 268.183 54.362 208.15 0.588013 284.23" stroke="#9E8CA9" stroke-width="1.176" stroke-miterlimit="10" stroke-linecap="round"/>
<path d="M227.149 98.207C220.536 103.572 196.197 115.883 191.708 110.35C187.219 104.817 204.28 83.538 210.893 78.172C217.506 72.806 226.506 72.942 230.993 78.472C235.48 84.002 233.762 92.841 227.149 98.207Z" fill="#E83C65"/>
<path d="M227.9 93.1831C223.837 96.4831 208.447 103.505 205.15 99.4421C201.853 95.3791 211.9 81.7671 215.964 78.4701C217.917 76.9033 220.41 76.1733 222.9 76.4395C225.389 76.7057 227.672 77.9465 229.249 79.8907C230.826 81.8349 231.57 84.3244 231.317 86.8152C231.064 89.3059 229.836 91.5953 227.9 93.1831Z" fill="#F49727"/>
<path d="M240.03 87.677L224.551 68.6L228.869 59.252L249.352 84.498L240.03 87.677Z" fill="#9DA2B4"/>
<path d="M240.979 36.431C228.456 13.214 204.614 46.09 202.918 59.193L207.037 64.27C211.537 56.107 220.903 44.3 227.29 53.099L236.897 50.116L240.979 36.431Z" fill="#596280"/>
<path d="M274.091 77.2421C294.229 94.2791 257.147 110.836 243.975 109.796L239.856 104.719C248.771 101.996 262.256 95.2661 254.956 87.2021L259.856 78.4161L274.091 77.2421Z" fill="#596280"/>
<path d="M281.591 71.976C312.727 46.713 315.861 9.59996 315.861 9.59996C315.861 9.59996 278.901 5.01996 247.761 30.282C238.774 37.7221 231.092 46.6095 225.03 56.578L251.177 88.805C262.181 84.9265 272.46 79.2387 281.591 71.976Z" fill="#C5C8D3"/>
<path d="M248.8 76.2999L255.684 84.7859C255.684 84.7859 265.948 80.8689 269.984 77.6949L261.249 66.9299L248.8 76.2999Z" stroke="#8B91A6" stroke-width="0.501" stroke-miterlimit="10" stroke-linecap="round"/>
<path d="M256.081 58.1049L313.454 11.5549" stroke="#8B91A6" stroke-width="0.751" stroke-miterlimit="10" stroke-linecap="round"/>
<path d="M283.553 12.9829C280.766 17.4389 301.147 42.3829 305.808 40.5879" stroke="#8B91A6" stroke-width="0.751" stroke-miterlimit="10" stroke-linecap="round"/>
<path d="M279.761 15.1C279.702 15.1184 279.64 15.1245 279.578 15.118C279.516 15.1114 279.457 15.0923 279.403 15.0619C279.349 15.0315 279.302 14.9904 279.264 14.9411C279.227 14.8918 279.2 14.8353 279.185 14.7752C279.17 14.7151 279.168 14.6526 279.178 14.5915C279.188 14.5304 279.211 14.4721 279.245 14.4201C279.278 14.3681 279.322 14.3235 279.374 14.2891C279.425 14.2547 279.483 14.2312 279.544 14.22C279.661 14.1912 279.784 14.21 279.887 14.2721C279.99 14.3343 280.064 14.4348 280.092 14.5515C280.121 14.6682 280.102 14.7915 280.04 14.8944C279.978 14.9972 279.878 15.0712 279.761 15.1Z" fill="#8B91A6"/>
<path d="M280.744 17.4349C280.69 17.4633 280.631 17.4805 280.57 17.4855C280.509 17.4905 280.448 17.4832 280.39 17.464C280.333 17.4448 280.279 17.4141 280.233 17.3737C280.188 17.3334 280.151 17.2842 280.124 17.2292C280.098 17.1742 280.083 17.1144 280.08 17.0535C280.078 16.9926 280.088 16.9318 280.109 16.8747C280.131 16.8176 280.163 16.7654 280.205 16.7213C280.247 16.6772 280.298 16.6421 280.354 16.6179C280.462 16.5717 280.583 16.5688 280.692 16.61C280.802 16.6512 280.891 16.7332 280.942 16.8389C280.992 16.9446 281 17.0657 280.963 17.1768C280.926 17.2879 280.848 17.3804 280.744 17.4349Z" fill="#8B91A6"/>
<path d="M281.967 19.6589C281.889 19.7036 281.8 19.7242 281.711 19.7182C281.622 19.7123 281.536 19.68 281.465 19.6254C281.394 19.5709 281.341 19.4965 281.312 19.4117C281.283 19.3269 281.28 19.2355 281.304 19.1491C281.327 19.0626 281.375 18.9849 281.442 18.9258C281.51 18.8668 281.593 18.829 281.682 18.8172C281.77 18.8054 281.86 18.8202 281.941 18.8596C282.021 18.8991 282.088 18.9615 282.133 19.0389C282.193 19.1432 282.209 19.267 282.178 19.3832C282.147 19.4994 282.071 19.5985 281.967 19.6589Z" fill="#8B91A6"/>
<path d="M283.308 21.812C283.232 21.8601 283.144 21.8847 283.055 21.8827C282.965 21.8807 282.878 21.8523 282.805 21.801C282.732 21.7497 282.675 21.6778 282.643 21.5944C282.61 21.511 282.603 21.4199 282.622 21.3324C282.642 21.245 282.686 21.1653 282.751 21.1032C282.815 21.0412 282.897 20.9997 282.985 20.9839C283.073 20.9681 283.164 20.9788 283.246 21.0146C283.328 21.0504 283.398 21.1097 283.446 21.185C283.511 21.2865 283.533 21.4095 283.507 21.5271C283.481 21.6447 283.409 21.7472 283.308 21.812Z" fill="#8B91A6"/>
<path d="M284.726 23.916C284.652 23.9663 284.565 23.9935 284.475 23.9944C284.386 23.9952 284.298 23.9695 284.223 23.9205C284.148 23.8716 284.09 23.8015 284.055 23.7193C284.02 23.637 284.01 23.5462 284.026 23.4582C284.042 23.3703 284.084 23.2892 284.147 23.2251C284.209 23.1611 284.289 23.117 284.377 23.0983C284.464 23.0797 284.555 23.0874 284.639 23.1204C284.722 23.1534 284.793 23.2104 284.844 23.284C284.878 23.3332 284.902 23.3886 284.914 23.447C284.926 23.5054 284.927 23.5657 284.916 23.6244C284.905 23.6832 284.883 23.7391 284.85 23.7891C284.818 23.8392 284.775 23.8823 284.726 23.916Z" fill="#8B91A6"/>
<path d="M286.2 25.979C286.128 26.0315 286.041 26.0614 285.952 26.0648C285.862 26.0683 285.774 26.0452 285.697 25.9984C285.621 25.9516 285.56 25.8832 285.523 25.8019C285.485 25.7206 285.473 25.63 285.487 25.5416C285.501 25.4532 285.541 25.3709 285.601 25.3051C285.662 25.2392 285.741 25.1929 285.828 25.1719C285.915 25.1508 286.006 25.156 286.09 25.1869C286.174 25.2177 286.247 25.2727 286.3 25.345C286.335 25.3931 286.361 25.4478 286.375 25.5057C286.389 25.5637 286.391 25.6239 286.382 25.6828C286.372 25.7417 286.352 25.7982 286.32 25.849C286.289 25.8998 286.248 25.944 286.2 25.979Z" fill="#8B91A6"/>
<path d="M287.726 28.008C287.654 28.0618 287.569 28.0931 287.479 28.0982C287.39 28.1032 287.301 28.0817 287.224 28.0363C287.147 27.9909 287.085 27.9238 287.046 27.8432C287.007 27.7627 286.993 27.6725 287.005 27.5839C287.017 27.4953 287.056 27.4123 287.115 27.3453C287.174 27.2784 287.252 27.2305 287.339 27.2078C287.425 27.185 287.516 27.1884 287.601 27.2174C287.686 27.2465 287.76 27.2999 287.814 27.371C287.887 27.4672 287.918 27.5883 287.902 27.7077C287.885 27.8272 287.822 27.9352 287.726 28.008Z" fill="#8B91A6"/>
<path d="M292.542 33.9001C292.474 33.9581 292.39 33.9947 292.301 34.0052C292.212 34.0157 292.123 33.9996 292.043 33.959C291.963 33.9185 291.897 33.8552 291.853 33.7772C291.809 33.6992 291.79 33.61 291.797 33.5208C291.803 33.4316 291.836 33.3464 291.892 33.276C291.947 33.2055 292.022 33.153 292.107 33.125C292.192 33.097 292.283 33.0948 292.369 33.1187C292.455 33.1426 292.533 33.1914 292.591 33.2591C292.63 33.3044 292.66 33.3569 292.678 33.4136C292.697 33.4704 292.704 33.5302 292.699 33.5898C292.695 33.6493 292.679 33.7074 292.652 33.7606C292.625 33.8139 292.587 33.8613 292.542 33.9001Z" fill="#8B91A6"/>
<path d="M294.229 35.8C294.162 35.8597 294.079 35.8983 293.991 35.911C293.902 35.9236 293.812 35.9097 293.731 35.8711C293.65 35.8324 293.583 35.7707 293.537 35.6937C293.492 35.6167 293.47 35.5279 293.474 35.4385C293.479 35.3491 293.51 35.2632 293.564 35.1914C293.617 35.1197 293.691 35.0655 293.775 35.0356C293.86 35.0056 293.951 35.0014 294.038 35.0234C294.125 35.0453 294.203 35.0925 294.263 35.159C294.343 35.2486 294.385 35.3664 294.378 35.4865C294.372 35.6066 294.318 35.7193 294.229 35.8Z" fill="#8B91A6"/>
<path d="M295.961 37.6501C295.896 37.7115 295.814 37.7521 295.726 37.7669C295.637 37.7818 295.547 37.7701 295.465 37.7334C295.383 37.6968 295.315 37.6368 295.267 37.561C295.219 37.4852 295.195 37.397 295.198 37.3075C295.2 37.218 295.229 37.1313 295.281 37.0583C295.333 36.9853 295.405 36.9292 295.489 36.8972C295.572 36.8652 295.663 36.8586 295.751 36.8784C295.838 36.8981 295.917 36.9433 295.979 37.0081C296.02 37.0514 296.052 37.1024 296.074 37.1581C296.095 37.2138 296.105 37.2732 296.103 37.3329C296.102 37.3925 296.088 37.4513 296.064 37.5057C296.039 37.5602 296.004 37.6093 295.961 37.6501Z" fill="#8B91A6"/>
<path d="M297.748 39.451C297.684 39.514 297.604 39.5568 297.516 39.5741C297.428 39.5913 297.337 39.5821 297.255 39.5477C297.172 39.5133 297.102 39.4553 297.052 39.3808C297.002 39.3064 296.976 39.219 296.976 39.1295C296.976 39.0401 297.002 38.9526 297.052 38.8782C297.102 38.8038 297.172 38.7457 297.255 38.7113C297.337 38.6769 297.428 38.6678 297.516 38.685C297.604 38.7022 297.684 38.745 297.748 38.808C297.79 38.8501 297.824 38.9002 297.847 38.9554C297.87 39.0106 297.882 39.0697 297.882 39.1295C297.882 39.1893 297.87 39.2485 297.847 39.3036C297.824 39.3588 297.79 39.4089 297.748 39.451Z" fill="#8B91A6"/>
<path d="M299.608 41.1759C299.548 41.2424 299.47 41.2897 299.383 41.3116C299.296 41.3336 299.204 41.3293 299.12 41.2993C299.036 41.2693 298.962 41.215 298.908 41.1431C298.855 41.0713 298.824 40.9852 298.819 40.8958C298.815 40.8063 298.837 40.7175 298.883 40.6405C298.928 40.5636 298.996 40.5019 299.077 40.4634C299.158 40.4249 299.248 40.4113 299.337 40.4242C299.426 40.4371 299.508 40.476 299.575 40.5359C299.619 40.5758 299.655 40.624 299.681 40.6777C299.706 40.7314 299.721 40.7897 299.724 40.8491C299.727 40.9085 299.719 40.968 299.699 41.0241C299.679 41.0802 299.648 41.1318 299.608 41.1759Z" fill="#8B91A6"/>
<path d="M301.577 42.7751C301.541 42.8224 301.496 42.8621 301.444 42.892C301.393 42.9218 301.336 42.9413 301.277 42.9492C301.218 42.957 301.158 42.9532 301.101 42.938C301.043 42.9227 300.989 42.8963 300.942 42.8601C300.895 42.824 300.855 42.779 300.825 42.7275C300.795 42.676 300.776 42.6192 300.768 42.5602C300.76 42.5013 300.764 42.4413 300.779 42.3838C300.794 42.3263 300.821 42.2724 300.857 42.2251C300.93 42.1297 301.038 42.0671 301.157 42.0511C301.276 42.0352 301.397 42.0672 301.492 42.1401C301.587 42.2131 301.65 42.3209 301.666 42.44C301.682 42.5591 301.65 42.6797 301.577 42.7751Z" fill="#8B91A6"/>
<path d="M303.756 44.0621C303.732 44.1187 303.697 44.1699 303.653 44.2126C303.609 44.2552 303.556 44.2884 303.499 44.3102C303.441 44.3319 303.38 44.3418 303.319 44.3391C303.257 44.3364 303.197 44.3212 303.142 44.2945C303.086 44.2679 303.037 44.2302 302.997 44.1838C302.956 44.1375 302.926 44.0834 302.907 44.0249C302.888 43.9664 302.882 43.9046 302.887 43.8435C302.893 43.7823 302.911 43.723 302.941 43.6691C302.997 43.5662 303.09 43.4884 303.202 43.4514C303.313 43.4143 303.434 43.4206 303.541 43.4691C303.644 43.524 303.722 43.6149 303.762 43.7244C303.802 43.8338 303.8 43.9541 303.756 44.0621Z" fill="#8B91A6"/>
<path d="M250 29.135C248.511 34.884 277.958 70.55 283.372 69.991" stroke="#8B91A6" stroke-width="0.751" stroke-miterlimit="10" stroke-linecap="round"/>
<path d="M247.37 32.6C247.311 32.6209 247.249 32.6298 247.187 32.6262C247.125 32.6226 247.065 32.6065 247.009 32.579C246.953 32.5515 246.903 32.5131 246.863 32.466C246.822 32.419 246.792 32.3642 246.773 32.305C246.753 32.2459 246.747 32.1835 246.752 32.1216C246.758 32.0597 246.776 31.9995 246.805 31.9447C246.834 31.8898 246.874 31.8414 246.922 31.8023C246.971 31.7632 247.026 31.7342 247.086 31.717C247.202 31.6837 247.326 31.6968 247.433 31.7535C247.539 31.8103 247.619 31.9061 247.656 32.0209C247.693 32.1357 247.684 32.2603 247.63 32.3684C247.577 32.4765 247.484 32.5596 247.37 32.6Z" fill="#8B91A6"/>
<path d="M248.467 34.947C248.358 34.9989 248.233 35.0063 248.119 34.9677C248.005 34.9291 247.91 34.8475 247.855 34.7402C247.8 34.6329 247.788 34.5084 247.824 34.393C247.859 34.2775 247.937 34.1804 248.043 34.122C248.152 34.0701 248.277 34.0627 248.391 34.1013C248.505 34.1399 248.6 34.2215 248.655 34.3288C248.71 34.4361 248.722 34.5607 248.686 34.6761C248.651 34.7915 248.573 34.8887 248.467 34.947Z" fill="#8B91A6"/>
<path d="M249.757 37.2001C249.679 37.2488 249.588 37.273 249.496 37.2698C249.404 37.2665 249.314 37.2359 249.24 37.1818C249.165 37.1277 249.108 37.0526 249.077 36.9661C249.045 36.8796 249.039 36.7856 249.061 36.696C249.083 36.6065 249.131 36.5255 249.199 36.4633C249.267 36.4012 249.352 36.3607 249.444 36.3471C249.535 36.3335 249.628 36.3474 249.711 36.3869C249.794 36.4264 249.864 36.4899 249.911 36.5691C249.942 36.6206 249.963 36.6779 249.973 36.7375C249.982 36.7971 249.979 36.8579 249.965 36.9165C249.951 36.9751 249.925 37.0304 249.889 37.079C249.854 37.1277 249.809 37.1688 249.757 37.2001Z" fill="#8B91A6"/>
<path d="M251.143 39.4C251.067 39.4513 250.976 39.4788 250.884 39.4788C250.792 39.4788 250.702 39.4514 250.626 39.4001C250.549 39.3487 250.49 39.2758 250.455 39.1905C250.42 39.1053 250.411 39.0115 250.43 38.9213C250.448 38.8311 250.493 38.7484 250.559 38.6838C250.625 38.6193 250.708 38.5757 250.799 38.5587C250.889 38.5418 250.983 38.5521 251.067 38.5885C251.152 38.6248 251.224 38.6856 251.274 38.763C251.307 38.8134 251.33 38.8698 251.342 38.9292C251.353 38.9885 251.353 39.0495 251.341 39.1087C251.329 39.1678 251.305 39.224 251.271 39.274C251.237 39.324 251.194 39.3668 251.143 39.4Z" fill="#8B91A6"/>
<path d="M252.589 41.5549C252.514 41.6081 252.424 41.6376 252.332 41.6398C252.24 41.642 252.15 41.6167 252.072 41.5671C251.994 41.5176 251.933 41.4461 251.896 41.3617C251.859 41.2773 251.848 41.1838 251.865 41.0932C251.881 41.0025 251.924 40.9188 251.988 40.8527C252.053 40.7866 252.135 40.7411 252.225 40.722C252.315 40.7029 252.409 40.711 252.494 40.7454C252.58 40.7798 252.653 40.8388 252.705 40.9149C252.74 40.9645 252.764 41.0205 252.777 41.0795C252.79 41.1386 252.791 41.1996 252.78 41.259C252.769 41.3185 252.747 41.3752 252.714 41.426C252.681 41.4768 252.639 41.5206 252.589 41.5549Z" fill="#8B91A6"/>
<path d="M254.08 43.682C254.006 43.737 253.917 43.7687 253.826 43.7732C253.734 43.7776 253.642 43.7546 253.563 43.707C253.485 43.6594 253.422 43.5895 253.383 43.506C253.344 43.4226 253.33 43.3294 253.345 43.2384C253.359 43.1474 253.4 43.0627 253.462 42.995C253.525 42.9273 253.606 42.8798 253.695 42.8584C253.785 42.837 253.879 42.8428 253.965 42.8749C254.051 42.9071 254.126 42.9642 254.18 43.039C254.216 43.0878 254.241 43.1431 254.256 43.2019C254.27 43.2606 254.273 43.3215 254.263 43.3813C254.254 43.441 254.233 43.4983 254.202 43.5499C254.17 43.6015 254.129 43.6464 254.08 43.682Z" fill="#8B91A6"/>
<path d="M255.607 45.783C255.534 45.8388 255.445 45.8714 255.354 45.8769C255.262 45.8823 255.17 45.8603 255.091 45.8136C255.011 45.7669 254.948 45.6976 254.908 45.6146C254.868 45.5316 254.854 45.4385 254.867 45.3474C254.88 45.2562 254.92 45.1711 254.982 45.1027C255.043 45.0344 255.124 44.9859 255.213 44.9636C255.303 44.9412 255.397 44.946 255.483 44.9772C255.57 45.0085 255.645 45.0648 255.7 45.139C255.736 45.1874 255.762 45.2424 255.777 45.301C255.792 45.3595 255.796 45.4205 255.787 45.4803C255.778 45.5401 255.758 45.5976 255.727 45.6495C255.696 45.7015 255.655 45.7468 255.607 45.783Z" fill="#8B91A6"/>
<path d="M257.163 47.862C257.09 47.9188 257.003 47.9527 256.911 47.9595C256.819 47.9662 256.727 47.9455 256.647 47.8999C256.567 47.8543 256.502 47.7859 256.461 47.7034C256.42 47.621 256.405 47.5281 256.417 47.4368C256.429 47.3454 256.467 47.2597 256.528 47.1905C256.589 47.1213 256.669 47.0717 256.758 47.0482C256.847 47.0246 256.941 47.0281 257.028 47.0581C257.115 47.0882 257.191 47.1435 257.247 47.217C257.284 47.2648 257.311 47.3194 257.327 47.3778C257.343 47.4361 257.347 47.497 257.339 47.5569C257.331 47.6168 257.312 47.6746 257.281 47.727C257.251 47.7793 257.211 47.8252 257.163 47.862Z" fill="#8B91A6"/>
<path d="M258.745 49.9221C258.673 49.9797 258.586 50.0146 258.494 50.0223C258.402 50.03 258.31 50.0103 258.23 49.9656C258.149 49.9208 258.084 49.8532 258.042 49.7711C258 49.6891 257.983 49.5965 257.994 49.505C258.005 49.4136 258.043 49.3274 258.103 49.2576C258.163 49.1877 258.243 49.1373 258.331 49.1127C258.42 49.0882 258.514 49.0906 258.602 49.1197C258.689 49.1488 258.766 49.2032 258.822 49.2761C258.86 49.3235 258.887 49.3779 258.904 49.4361C258.92 49.4942 258.925 49.5551 258.918 49.6151C258.911 49.6751 258.892 49.7332 258.862 49.7858C258.832 49.8385 258.793 49.8848 258.745 49.9221Z" fill="#8B91A6"/>
<path d="M263.633 55.9901C263.563 56.0502 263.477 56.0882 263.386 56.0992C263.294 56.1103 263.201 56.0938 263.119 56.052C263.037 56.0101 262.97 55.9448 262.925 55.8643C262.88 55.7838 262.86 55.6918 262.868 55.6C262.875 55.5082 262.91 55.4208 262.968 55.3488C263.025 55.2769 263.103 55.2237 263.191 55.196C263.279 55.1683 263.373 55.1674 263.461 55.1934C263.549 55.2195 263.628 55.2712 263.687 55.3421C263.726 55.3881 263.756 55.4414 263.774 55.4989C263.793 55.5565 263.8 55.6171 263.795 55.6773C263.789 55.7375 263.773 55.7961 263.745 55.8498C263.717 55.9034 263.679 55.9511 263.633 55.9901Z" fill="#8B91A6"/>
<path d="M265.307 57.976C265.238 58.0368 265.152 58.0757 265.061 58.0876C264.969 58.0996 264.877 58.0841 264.794 58.0432C264.712 58.0022 264.643 57.9376 264.598 57.8577C264.552 57.7777 264.531 57.6859 264.538 57.5941C264.544 57.5022 264.578 57.4144 264.635 57.3418C264.692 57.2693 264.769 57.2152 264.856 57.1866C264.944 57.1579 265.038 57.156 265.126 57.181C265.215 57.206 265.294 57.2568 265.354 57.327C265.434 57.4194 265.473 57.5395 265.464 57.6612C265.456 57.7828 265.399 57.896 265.307 57.976Z" fill="#8B91A6"/>
<path d="M267.005 59.9409C266.937 60.0027 266.851 60.0427 266.76 60.0558C266.669 60.069 266.576 60.0547 266.493 60.0147C266.41 59.9748 266.341 59.9111 266.294 59.8317C266.247 59.7522 266.225 59.6607 266.231 59.5687C266.236 59.4768 266.269 59.3885 266.325 59.3153C266.381 59.242 266.457 59.187 266.544 59.1573C266.632 59.1276 266.726 59.1246 266.815 59.1485C266.904 59.1725 266.983 59.2224 267.044 59.2919C267.084 59.3371 267.115 59.3897 267.135 59.4467C267.155 59.5038 267.163 59.5642 267.159 59.6245C267.156 59.6848 267.14 59.7438 267.114 59.7981C267.087 59.8524 267.05 59.9009 267.005 59.9409Z" fill="#8B91A6"/>
<path d="M268.729 61.8841C268.662 61.9469 268.577 61.9881 268.486 62.0026C268.395 62.017 268.302 62.0041 268.218 61.9653C268.134 61.9266 268.064 61.8638 268.016 61.785C267.969 61.7062 267.945 61.615 267.95 61.5229C267.954 61.4308 267.985 61.3421 268.04 61.2681C268.095 61.194 268.171 61.138 268.258 61.1071C268.344 61.0763 268.439 61.0719 268.528 61.0947C268.617 61.1175 268.698 61.1664 268.759 61.2351C268.841 61.3252 268.884 61.4442 268.878 61.5658C268.873 61.6875 268.819 61.802 268.729 61.8841Z" fill="#8B91A6"/>
<path d="M270.481 63.7999C270.414 63.8636 270.33 63.9061 270.24 63.9219C270.149 63.9377 270.056 63.9261 269.971 63.8886C269.887 63.8511 269.816 63.7894 269.767 63.7114C269.718 63.6334 269.694 63.5425 269.696 63.4505C269.699 63.3584 269.729 63.2692 269.783 63.1944C269.837 63.1195 269.912 63.0623 269.998 63.0301C270.084 62.9978 270.178 62.992 270.268 63.0134C270.357 63.0347 270.439 63.0822 270.501 63.1499C270.585 63.2388 270.629 63.3572 270.626 63.4791C270.622 63.6009 270.57 63.7163 270.481 63.7999Z" fill="#8B91A6"/>
<path d="M272.268 65.6861C272.203 65.7511 272.119 65.7951 272.029 65.8126C271.939 65.8301 271.845 65.8203 271.76 65.7844C271.675 65.7485 271.603 65.6881 271.553 65.611C271.502 65.5339 271.476 65.4435 271.477 65.3514C271.478 65.2592 271.507 65.1695 271.559 65.0937C271.611 65.0178 271.685 64.9592 271.771 64.9254C271.856 64.8916 271.95 64.8841 272.04 64.9038C272.13 64.9235 272.212 64.9696 272.276 65.0361C272.318 65.0792 272.352 65.1303 272.374 65.1864C272.397 65.2424 272.408 65.3024 272.407 65.3628C272.407 65.4232 272.394 65.4829 272.37 65.5384C272.346 65.5939 272.311 65.6441 272.268 65.6861Z" fill="#8B91A6"/>
<path d="M274.1 67.53C274.036 67.5966 273.954 67.6427 273.864 67.6624C273.774 67.6821 273.68 67.6746 273.595 67.6407C273.509 67.6069 273.435 67.5484 273.383 67.4725C273.331 67.3967 273.302 67.307 273.301 67.2148C273.3 67.1227 273.326 67.0323 273.377 66.9552C273.427 66.8781 273.499 66.8177 273.584 66.7818C273.669 66.7459 273.763 66.7361 273.853 66.7536C273.943 66.7711 274.027 66.8151 274.092 66.88C274.135 66.9221 274.17 66.9723 274.194 67.0278C274.218 67.0833 274.231 67.143 274.231 67.2034C274.232 67.2638 274.221 67.3238 274.198 67.3798C274.176 67.4359 274.142 67.4869 274.1 67.53Z" fill="#8B91A6"/>
<path d="M275.985 69.3139C275.924 69.3829 275.844 69.4321 275.754 69.4553C275.665 69.4785 275.571 69.4746 275.484 69.4441C275.397 69.4136 275.321 69.358 275.266 69.2842C275.211 69.2104 275.179 69.1218 275.174 69.0298C275.17 68.9378 275.192 68.8464 275.24 68.7674C275.287 68.6884 275.357 68.6253 275.441 68.5862C275.524 68.547 275.617 68.5336 275.708 68.5476C275.799 68.5617 275.884 68.6025 275.952 68.6649C275.997 68.7053 276.033 68.7542 276.059 68.8087C276.085 68.8632 276.1 68.9223 276.103 68.9826C276.106 69.0429 276.097 69.1032 276.077 69.16C276.057 69.2169 276.026 69.2692 275.985 69.3139Z" fill="#8B91A6"/>
<path d="M277.962 71C277.884 71.0954 277.772 71.156 277.65 71.1686C277.528 71.1811 277.405 71.1446 277.31 71.067C277.215 70.9895 277.154 70.8772 277.141 70.7549C277.129 70.6326 277.165 70.5104 277.243 70.415C277.323 70.3263 277.433 70.2716 277.552 70.2623C277.671 70.253 277.789 70.2897 277.881 70.3649C277.974 70.4402 278.034 70.5481 278.049 70.6663C278.064 70.7846 278.033 70.9041 277.962 71Z" fill="#8B91A6"/>
<path d="M280.123 72.4301C280.093 72.4829 280.053 72.5293 280.005 72.5666C279.957 72.6039 279.902 72.6314 279.843 72.6475C279.784 72.6635 279.723 72.6679 279.663 72.6602C279.602 72.6526 279.544 72.6332 279.491 72.6031C279.438 72.5729 279.392 72.5327 279.354 72.4846C279.317 72.4365 279.29 72.3816 279.274 72.3229C279.258 72.2642 279.253 72.2029 279.261 72.1426C279.268 72.0822 279.288 72.0239 279.318 71.9711C279.382 71.8712 279.482 71.7998 279.598 71.7715C279.713 71.7433 279.835 71.7603 279.938 71.8191C280.041 71.8779 280.118 71.9741 280.152 72.0877C280.187 72.2014 280.176 72.3239 280.123 72.4301Z" fill="#8B91A6"/>
<path d="M310.443 12.1781C310.385 12.1077 310.349 12.0216 310.34 11.9307C310.33 11.8399 310.348 11.7483 310.391 11.6677C310.434 11.587 310.5 11.521 310.581 11.4779C310.661 11.4348 310.753 11.4166 310.844 11.4256C310.935 11.4346 311.021 11.4704 311.091 11.5285C311.162 11.5865 311.214 11.6642 311.24 11.7517C311.266 11.8392 311.266 11.9325 311.239 12.0198C311.212 12.1071 311.16 12.1845 311.089 12.2421C311.042 12.2805 310.989 12.3092 310.931 12.3268C310.873 12.3443 310.813 12.3503 310.753 12.3443C310.693 12.3384 310.634 12.3206 310.581 12.2921C310.528 12.2636 310.481 12.2248 310.443 12.1781Z" fill="#8B91A6"/>
<path d="M308.437 13.806C308.379 13.7355 308.342 13.6492 308.333 13.5581C308.323 13.4669 308.341 13.375 308.384 13.2941C308.427 13.2132 308.493 13.1469 308.574 13.1036C308.655 13.0603 308.747 13.042 308.838 13.0511C308.929 13.0601 309.016 13.0961 309.086 13.1543C309.157 13.2126 309.209 13.2906 309.235 13.3784C309.261 13.4662 309.261 13.5598 309.234 13.6473C309.207 13.7349 309.154 13.8124 309.083 13.87C308.989 13.9469 308.868 13.9834 308.747 13.9714C308.626 13.9594 308.514 13.8999 308.437 13.806Z" fill="#8B91A6"/>
<path d="M306.431 15.433C306.373 15.3626 306.337 15.2765 306.328 15.1856C306.318 15.0947 306.336 15.0032 306.379 14.9225C306.422 14.8419 306.488 14.7759 306.569 14.7328C306.649 14.6897 306.741 14.6715 306.832 14.6805C306.923 14.6895 307.009 14.7253 307.079 14.7833C307.15 14.8414 307.201 14.9191 307.228 15.0066C307.254 15.0941 307.254 15.1874 307.227 15.2747C307.2 15.362 307.148 15.4394 307.077 15.497C307.03 15.5352 306.977 15.5639 306.919 15.5813C306.861 15.5988 306.801 15.6047 306.741 15.5988C306.681 15.5929 306.623 15.5752 306.569 15.5467C306.516 15.5183 306.469 15.4796 306.431 15.433Z" fill="#8B91A6"/>
<path d="M304.425 17.0612C304.367 16.9908 304.331 16.9047 304.322 16.8138C304.312 16.7229 304.33 16.6313 304.373 16.5507C304.416 16.4701 304.482 16.404 304.563 16.3609C304.643 16.3178 304.735 16.2996 304.826 16.3086C304.917 16.3176 305.003 16.3535 305.073 16.4115C305.144 16.4696 305.195 16.5473 305.222 16.6348C305.248 16.7223 305.248 16.8156 305.221 16.9029C305.194 16.9902 305.142 17.0676 305.071 17.1252C305.024 17.1635 304.971 17.1923 304.913 17.2098C304.855 17.2274 304.795 17.2333 304.735 17.2274C304.675 17.2214 304.616 17.2037 304.563 17.1752C304.51 17.1466 304.463 17.1079 304.425 17.0612Z" fill="#8B91A6"/>
<path d="M302.418 18.6891C302.36 18.6187 302.324 18.5326 302.315 18.4417C302.305 18.3508 302.323 18.2593 302.366 18.1786C302.409 18.098 302.475 18.032 302.556 17.9889C302.636 17.9458 302.728 17.9276 302.819 17.9366C302.91 17.9456 302.996 17.9814 303.066 18.0394C303.137 18.0975 303.188 18.1752 303.215 18.2627C303.241 18.3502 303.241 18.4435 303.214 18.5308C303.187 18.6181 303.135 18.6955 303.064 18.7531C303.017 18.7913 302.964 18.82 302.906 18.8374C302.848 18.8549 302.788 18.8608 302.728 18.8549C302.668 18.849 302.61 18.8313 302.556 18.8028C302.503 18.7744 302.456 18.7357 302.418 18.6891Z" fill="#8B91A6"/>
<path d="M300.412 20.3172C300.353 20.2467 300.317 20.1604 300.308 20.0693C300.298 19.9781 300.316 19.8863 300.359 19.8053C300.402 19.7244 300.468 19.6581 300.549 19.6148C300.63 19.5716 300.722 19.5533 300.813 19.5623C300.904 19.5713 300.991 19.6073 301.061 19.6656C301.132 19.7238 301.184 19.8018 301.21 19.8896C301.236 19.9774 301.236 20.071 301.209 20.1585C301.182 20.2461 301.129 20.3236 301.058 20.3812C300.964 20.4582 300.843 20.4946 300.722 20.4826C300.601 20.4706 300.489 20.4112 300.412 20.3172Z" fill="#8B91A6"/>
<path d="M298.406 21.9442C298.348 21.8738 298.312 21.7877 298.303 21.6968C298.293 21.606 298.311 21.5144 298.354 21.4338C298.397 21.3531 298.463 21.2871 298.544 21.244C298.624 21.2009 298.716 21.1827 298.807 21.1917C298.898 21.2007 298.984 21.2365 299.054 21.2946C299.125 21.3526 299.177 21.4303 299.203 21.5178C299.229 21.6053 299.229 21.6986 299.202 21.7859C299.175 21.8733 299.123 21.9506 299.052 22.0082C299.005 22.0464 298.952 22.0751 298.894 22.0926C298.836 22.11 298.776 22.116 298.716 22.11C298.656 22.1041 298.598 22.0864 298.544 22.0579C298.491 22.0295 298.444 21.9908 298.406 21.9442Z" fill="#8B91A6"/>
<path d="M296.4 23.5722C296.342 23.5018 296.306 23.4157 296.297 23.3248C296.287 23.2339 296.305 23.1423 296.348 23.0617C296.391 22.9811 296.457 22.915 296.538 22.8719C296.618 22.8288 296.71 22.8106 296.801 22.8196C296.892 22.8286 296.978 22.8644 297.048 22.9225C297.119 22.9806 297.17 23.0583 297.197 23.1458C297.223 23.2332 297.223 23.3266 297.196 23.4139C297.169 23.5012 297.117 23.5785 297.046 23.6362C296.999 23.6744 296.946 23.703 296.888 23.7205C296.83 23.738 296.77 23.7439 296.71 23.738C296.65 23.732 296.592 23.7143 296.538 23.6859C296.485 23.6574 296.438 23.6188 296.4 23.5722Z" fill="#8B91A6"/>
<path d="M294.394 25.2001C294.336 25.1297 294.3 25.0436 294.291 24.9527C294.281 24.8618 294.299 24.7703 294.342 24.6896C294.385 24.609 294.451 24.543 294.532 24.4999C294.612 24.4568 294.704 24.4386 294.795 24.4476C294.886 24.4566 294.972 24.4924 295.042 24.5504C295.113 24.6085 295.165 24.6862 295.191 24.7737C295.217 24.8612 295.217 24.9545 295.19 25.0418C295.163 25.1291 295.111 25.2065 295.04 25.2641C294.993 25.3023 294.94 25.331 294.882 25.3484C294.824 25.3659 294.764 25.3718 294.704 25.3659C294.644 25.3599 294.586 25.3422 294.532 25.3138C294.479 25.2853 294.432 25.2467 294.394 25.2001Z" fill="#8B91A6"/>
<path d="M292.388 26.8281C292.33 26.7578 292.294 26.6718 292.284 26.5809C292.275 26.49 292.293 26.3984 292.336 26.3177C292.378 26.237 292.444 26.1709 292.525 26.1276C292.605 26.0844 292.697 26.0661 292.788 26.0749C292.878 26.0838 292.965 26.1195 293.035 26.1774C293.106 26.2354 293.158 26.313 293.184 26.4005C293.21 26.4879 293.21 26.5813 293.184 26.6686C293.157 26.756 293.105 26.8334 293.034 26.8911C292.94 26.9682 292.819 27.0048 292.698 26.993C292.577 26.9812 292.465 26.9219 292.388 26.8281Z" fill="#8B91A6"/>
<path d="M290.382 28.4552C290.324 28.3848 290.288 28.2987 290.278 28.2078C290.269 28.1169 290.287 28.0252 290.33 27.9445C290.373 27.8638 290.439 27.7977 290.519 27.7545C290.6 27.7114 290.691 27.6932 290.782 27.7022C290.873 27.7112 290.96 27.7471 291.03 27.8052C291.101 27.8634 291.152 27.9412 291.179 28.0287C291.205 28.1163 291.204 28.2097 291.177 28.297C291.15 28.3843 291.098 28.4617 291.027 28.5192C290.98 28.5574 290.927 28.586 290.869 28.6035C290.812 28.6209 290.751 28.6269 290.691 28.6209C290.631 28.615 290.573 28.5973 290.52 28.5688C290.467 28.5404 290.42 28.5018 290.382 28.4552Z" fill="#8B91A6"/>
<path d="M288.375 30.0831C288.317 30.0127 288.281 29.9266 288.272 29.8358C288.262 29.7449 288.28 29.6533 288.323 29.5727C288.366 29.4921 288.432 29.426 288.513 29.3829C288.593 29.3398 288.685 29.3216 288.776 29.3306C288.867 29.3396 288.953 29.3754 289.023 29.4335C289.094 29.4916 289.146 29.5693 289.172 29.6567C289.198 29.7442 289.198 29.8375 289.171 29.9249C289.144 30.0122 289.092 30.0895 289.021 30.1471C288.974 30.1855 288.921 30.2143 288.863 30.2318C288.805 30.2493 288.745 30.2553 288.685 30.2494C288.625 30.2434 288.566 30.2257 288.513 30.1971C288.46 30.1686 288.413 30.1299 288.375 30.0831Z" fill="#8B91A6"/>
<path d="M286.369 31.711C286.31 31.6405 286.274 31.5542 286.265 31.4631C286.256 31.3719 286.273 31.2801 286.316 31.1991C286.359 31.1182 286.425 31.0519 286.506 31.0086C286.587 30.9654 286.679 30.9471 286.77 30.9561C286.861 30.9651 286.948 31.0011 287.018 31.0594C287.089 31.1176 287.141 31.1956 287.167 31.2834C287.193 31.3712 287.193 31.4648 287.166 31.5523C287.139 31.6399 287.086 31.7174 287.015 31.775C286.921 31.852 286.8 31.8884 286.679 31.8764C286.558 31.8644 286.446 31.805 286.369 31.711Z" fill="#8B91A6"/>
<path d="M284.363 33.338C284.305 33.2676 284.269 33.1815 284.26 33.0906C284.25 32.9998 284.268 32.9082 284.311 32.8276C284.354 32.7469 284.42 32.6809 284.501 32.6378C284.581 32.5947 284.673 32.5765 284.764 32.5855C284.855 32.5945 284.941 32.6303 285.011 32.6884C285.082 32.7464 285.134 32.8241 285.16 32.9116C285.186 32.9991 285.186 33.0924 285.159 33.1797C285.132 33.267 285.08 33.3444 285.009 33.402C284.962 33.4402 284.909 33.4689 284.851 33.4864C284.793 33.5038 284.733 33.5098 284.673 33.5038C284.613 33.4979 284.555 33.4802 284.501 33.4517C284.448 33.4233 284.401 33.3846 284.363 33.338Z" fill="#8B91A6"/>
<path d="M282.357 34.9662C282.299 34.8958 282.263 34.8097 282.254 34.7188C282.244 34.6279 282.262 34.5364 282.305 34.4557C282.348 34.3751 282.414 34.3091 282.495 34.266C282.575 34.2229 282.667 34.2047 282.758 34.2137C282.849 34.2227 282.935 34.2585 283.005 34.3166C283.076 34.3746 283.128 34.4523 283.154 34.5398C283.18 34.6273 283.18 34.7206 283.153 34.8079C283.126 34.8952 283.074 34.9726 283.003 35.0302C282.956 35.0684 282.903 35.0971 282.845 35.1145C282.787 35.132 282.727 35.1379 282.667 35.132C282.607 35.1261 282.549 35.1084 282.495 35.0799C282.442 35.0515 282.395 35.0128 282.357 34.9662Z" fill="#8B91A6"/>
<path d="M280.351 36.5941C280.293 36.5237 280.257 36.4376 280.248 36.3467C280.238 36.2559 280.256 36.1643 280.299 36.0837C280.342 36.003 280.408 35.937 280.489 35.8939C280.569 35.8508 280.661 35.8326 280.752 35.8416C280.843 35.8506 280.929 35.8864 280.999 35.9445C281.07 36.0025 281.122 36.0802 281.148 36.1677C281.174 36.2552 281.174 36.3485 281.147 36.4358C281.12 36.5232 281.068 36.6005 280.997 36.6581C280.95 36.6965 280.897 36.7252 280.839 36.7428C280.781 36.7603 280.721 36.7663 280.661 36.7603C280.601 36.7544 280.542 36.7366 280.489 36.7081C280.436 36.6796 280.389 36.6409 280.351 36.5941Z" fill="#8B91A6"/>
<path d="M278.345 38.2221C278.287 38.1517 278.251 38.0656 278.242 37.9747C278.232 37.8838 278.25 37.7922 278.293 37.7116C278.336 37.631 278.402 37.5649 278.483 37.5218C278.563 37.4787 278.655 37.4605 278.746 37.4695C278.837 37.4785 278.923 37.5143 278.993 37.5724C279.064 37.6305 279.115 37.7082 279.142 37.7957C279.168 37.8831 279.168 37.9765 279.141 38.0638C279.114 38.1511 279.062 38.2285 278.991 38.2861C278.897 38.363 278.776 38.3994 278.655 38.3874C278.534 38.3755 278.422 38.316 278.345 38.2221Z" fill="#8B91A6"/>
<path d="M276.338 39.849C276.28 39.7786 276.244 39.6925 276.235 39.6016C276.225 39.5107 276.243 39.4192 276.286 39.3386C276.329 39.2579 276.395 39.1919 276.476 39.1488C276.556 39.1057 276.648 39.0875 276.739 39.0965C276.83 39.1055 276.916 39.1413 276.986 39.1994C277.057 39.2574 277.109 39.3351 277.135 39.4226C277.161 39.5101 277.161 39.6034 277.134 39.6907C277.107 39.778 277.055 39.8554 276.984 39.913C276.937 39.9512 276.884 39.9799 276.826 39.9974C276.768 40.0148 276.708 40.0208 276.648 40.0148C276.588 40.0089 276.53 39.9912 276.476 39.9627C276.423 39.9343 276.376 39.8956 276.338 39.849Z" fill="#8B91A6"/>
<path d="M274.332 41.4772C274.274 41.4068 274.238 41.3207 274.229 41.2298C274.219 41.1389 274.237 41.0474 274.28 40.9667C274.323 40.8861 274.389 40.8201 274.47 40.777C274.55 40.7339 274.642 40.7157 274.733 40.7247C274.824 40.7337 274.91 40.7695 274.98 40.8275C275.051 40.8856 275.102 40.9633 275.129 41.0508C275.155 41.1383 275.155 41.2316 275.128 41.3189C275.101 41.4062 275.049 41.4836 274.978 41.5412C274.931 41.5795 274.878 41.6083 274.82 41.6258C274.762 41.6434 274.702 41.6493 274.642 41.6434C274.582 41.6375 274.523 41.6197 274.47 41.5912C274.417 41.5627 274.37 41.5239 274.332 41.4772Z" fill="#8B91A6"/>
<path d="M272.326 43.1051C272.268 43.0347 272.232 42.9486 272.223 42.8577C272.213 42.7669 272.231 42.6753 272.274 42.5947C272.317 42.514 272.383 42.448 272.464 42.4049C272.544 42.3618 272.636 42.3436 272.727 42.3526C272.818 42.3616 272.904 42.3974 272.974 42.4555C273.045 42.5135 273.096 42.5912 273.123 42.6787C273.149 42.7662 273.149 42.8595 273.122 42.9468C273.095 43.0341 273.043 43.1115 272.972 43.1691C272.925 43.2075 272.872 43.2362 272.814 43.2538C272.756 43.2713 272.696 43.2773 272.636 43.2713C272.576 43.2654 272.517 43.2476 272.464 43.2191C272.411 43.1906 272.364 43.1518 272.326 43.1051Z" fill="#8B91A6"/>
<path d="M270.32 44.733C270.262 44.6626 270.226 44.5765 270.217 44.4857C270.207 44.3948 270.225 44.3032 270.268 44.2226C270.311 44.142 270.377 44.0759 270.458 44.0328C270.538 43.9897 270.63 43.9715 270.721 43.9805C270.812 43.9895 270.898 44.0253 270.968 44.0834C271.039 44.1415 271.091 44.2192 271.117 44.3066C271.143 44.3941 271.143 44.4874 271.116 44.5748C271.089 44.6621 271.037 44.7394 270.966 44.797C270.872 44.874 270.751 44.9104 270.63 44.8984C270.509 44.8864 270.397 44.827 270.32 44.733Z" fill="#8B91A6"/>
<path d="M268.314 46.36C268.256 46.2896 268.22 46.2035 268.211 46.1126C268.201 46.0217 268.219 45.9302 268.262 45.8495C268.305 45.7689 268.371 45.7029 268.452 45.6598C268.532 45.6167 268.624 45.5985 268.715 45.6075C268.806 45.6165 268.892 45.6523 268.962 45.7103C269.033 45.7684 269.084 45.8461 269.111 45.9336C269.137 46.0211 269.137 46.1144 269.11 46.2017C269.083 46.289 269.031 46.3664 268.96 46.424C268.913 46.4623 268.86 46.4911 268.802 46.5086C268.744 46.5262 268.684 46.5322 268.624 46.5262C268.564 46.5203 268.505 46.5025 268.452 46.474C268.399 46.4455 268.352 46.4067 268.314 46.36Z" fill="#8B91A6"/>
<path d="M266.307 47.9882C266.249 47.9178 266.213 47.8317 266.204 47.7408C266.194 47.6499 266.212 47.5583 266.255 47.4777C266.298 47.3971 266.364 47.331 266.445 47.2879C266.525 47.2448 266.617 47.2266 266.708 47.2356C266.799 47.2447 266.885 47.2805 266.955 47.3385C267.026 47.3966 267.078 47.4743 267.104 47.5618C267.13 47.6493 267.13 47.7426 267.103 47.8299C267.076 47.9172 267.024 47.9946 266.953 48.0522C266.906 48.0905 266.853 48.1193 266.795 48.1368C266.737 48.1544 266.677 48.1603 266.617 48.1544C266.557 48.1484 266.498 48.1307 266.445 48.1022C266.392 48.0736 266.345 48.0349 266.307 47.9882Z" fill="#8B91A6"/>
<path d="M264.3 49.6161C264.241 49.5456 264.205 49.4593 264.196 49.3681C264.186 49.277 264.204 49.1851 264.247 49.1042C264.29 49.0233 264.356 48.9569 264.437 48.9137C264.518 48.8704 264.61 48.8521 264.701 48.8611C264.792 48.8702 264.879 48.9061 264.949 48.9644C265.02 49.0227 265.072 49.1007 265.098 49.1885C265.124 49.2762 265.124 49.3698 265.097 49.4574C265.07 49.5449 265.017 49.6224 264.946 49.6801C264.899 49.7184 264.846 49.7472 264.788 49.7647C264.73 49.7823 264.67 49.7882 264.61 49.7823C264.55 49.7763 264.491 49.7586 264.438 49.7301C264.385 49.7015 264.338 49.6628 264.3 49.6161Z" fill="#8B91A6"/>
<path d="M262.3 51.2442C262.241 51.1737 262.205 51.0874 262.196 50.9963C262.186 50.9051 262.204 50.8133 262.247 50.7323C262.29 50.6514 262.356 50.5851 262.437 50.5418C262.518 50.4986 262.61 50.4803 262.701 50.4893C262.792 50.4983 262.879 50.5343 262.949 50.5926C263.02 50.6508 263.072 50.7288 263.098 50.8166C263.124 50.9044 263.124 50.998 263.097 51.0855C263.07 51.1731 263.017 51.2506 262.946 51.3082C262.852 51.3852 262.731 51.4216 262.61 51.4096C262.489 51.3976 262.377 51.3382 262.3 51.2442Z" fill="#8B91A6"/>
<path d="M260.289 52.8712C260.231 52.8008 260.195 52.7147 260.186 52.6238C260.176 52.533 260.194 52.4414 260.237 52.3608C260.28 52.2801 260.346 52.2141 260.427 52.171C260.507 52.1279 260.599 52.1097 260.69 52.1187C260.781 52.1277 260.867 52.1635 260.937 52.2216C261.008 52.2796 261.06 52.3573 261.086 52.4448C261.112 52.5323 261.112 52.6256 261.085 52.7129C261.058 52.8003 261.006 52.8776 260.935 52.9352C260.888 52.9736 260.835 53.0023 260.777 53.0199C260.719 53.0374 260.659 53.0434 260.599 53.0374C260.539 53.0315 260.48 53.0137 260.427 52.9852C260.374 52.9567 260.327 52.918 260.289 52.8712Z" fill="#8B91A6"/>
<path d="M258.283 54.5001C258.225 54.4297 258.189 54.3436 258.18 54.2528C258.17 54.1619 258.188 54.0703 258.231 53.9897C258.274 53.9091 258.34 53.843 258.421 53.7999C258.501 53.7568 258.593 53.7386 258.684 53.7476C258.775 53.7566 258.861 53.7924 258.931 53.8505C259.002 53.9086 259.054 53.9863 259.08 54.0737C259.106 54.1612 259.106 54.2545 259.079 54.3418C259.052 54.4292 259 54.5065 258.929 54.5641C258.882 54.6025 258.829 54.6312 258.771 54.6488C258.713 54.6663 258.653 54.6723 258.593 54.6664C258.533 54.6604 258.474 54.6427 258.421 54.6141C258.368 54.5856 258.321 54.5469 258.283 54.5001Z" fill="#8B91A6"/>
<path d="M256.276 56.127C256.217 56.0566 256.181 55.9703 256.172 55.8791C256.162 55.788 256.18 55.6961 256.223 55.6152C256.266 55.5342 256.332 55.4679 256.413 55.4246C256.494 55.3814 256.586 55.3631 256.677 55.3721C256.768 55.3812 256.855 55.4171 256.925 55.4754C256.996 55.5337 257.048 55.6117 257.074 55.6994C257.1 55.7872 257.1 55.8808 257.073 55.9684C257.046 56.0559 256.993 56.1334 256.922 56.191C256.828 56.268 256.707 56.3044 256.586 56.2924C256.465 56.2804 256.353 56.221 256.276 56.127Z" fill="#8B91A6"/>
<path d="M254.27 57.754C254.212 57.6836 254.176 57.5975 254.167 57.5067C254.157 57.4158 254.175 57.3242 254.218 57.2436C254.261 57.163 254.327 57.0969 254.408 57.0538C254.488 57.0107 254.58 56.9925 254.671 57.0015C254.762 57.0105 254.848 57.0463 254.918 57.1044C254.989 57.1625 255.041 57.2402 255.067 57.3276C255.093 57.4151 255.093 57.5084 255.066 57.5958C255.039 57.6831 254.987 57.7604 254.916 57.818C254.869 57.8563 254.816 57.8849 254.758 57.9024C254.7 57.9199 254.64 57.9258 254.58 57.9198C254.52 57.9139 254.462 57.8962 254.408 57.8677C254.355 57.8393 254.308 57.8007 254.27 57.754Z" fill="#8B91A6"/>
<path d="M252.264 59.3822C252.206 59.3118 252.17 59.2257 252.161 59.1348C252.151 59.044 252.169 58.9524 252.212 58.8718C252.255 58.7911 252.321 58.7251 252.402 58.682C252.482 58.6389 252.574 58.6207 252.665 58.6297C252.756 58.6387 252.842 58.6745 252.912 58.7326C252.983 58.7906 253.035 58.8683 253.061 58.9558C253.087 59.0433 253.087 59.1366 253.06 59.2239C253.033 59.3112 252.981 59.3886 252.91 59.4462C252.863 59.4846 252.81 59.5133 252.752 59.5309C252.694 59.5484 252.634 59.5544 252.574 59.5484C252.514 59.5425 252.455 59.5247 252.402 59.4962C252.349 59.4677 252.302 59.4289 252.264 59.3822Z" fill="#8B91A6"/>
<path d="M250.258 61.0101C250.2 60.9397 250.164 60.8536 250.155 60.7628C250.145 60.6719 250.163 60.5803 250.206 60.4997C250.249 60.4191 250.315 60.353 250.396 60.3099C250.476 60.2668 250.568 60.2486 250.659 60.2576C250.75 60.2666 250.836 60.3024 250.906 60.3605C250.977 60.4186 251.029 60.4963 251.055 60.5837C251.081 60.6712 251.081 60.7645 251.054 60.8519C251.027 60.9392 250.975 61.0165 250.904 61.0741C250.857 61.1124 250.804 61.141 250.746 61.1585C250.688 61.176 250.628 61.1819 250.568 61.1759C250.508 61.17 250.45 61.1523 250.396 61.1239C250.343 61.0954 250.296 61.0568 250.258 61.0101Z" fill="#8B91A6"/>
<path d="M248.252 62.6381C248.194 62.5677 248.158 62.4816 248.149 62.3907C248.139 62.2998 248.157 62.2082 248.2 62.1276C248.243 62.047 248.309 61.9809 248.39 61.9378C248.47 61.8947 248.562 61.8765 248.653 61.8855C248.744 61.8946 248.83 61.9304 248.9 61.9884C248.971 62.0465 249.023 62.1242 249.049 62.2117C249.075 62.2992 249.075 62.3925 249.048 62.4798C249.021 62.5671 248.969 62.6445 248.898 62.7021C248.804 62.7787 248.683 62.815 248.562 62.8031C248.441 62.7911 248.329 62.7318 248.252 62.6381Z" fill="#8B91A6"/>
<path d="M246.246 64.265C246.188 64.1946 246.152 64.1085 246.143 64.0176C246.133 63.9268 246.151 63.8352 246.194 63.7546C246.237 63.674 246.303 63.6079 246.384 63.5648C246.464 63.5217 246.556 63.5035 246.647 63.5125C246.738 63.5215 246.824 63.5573 246.894 63.6154C246.965 63.6734 247.016 63.7511 247.043 63.8386C247.069 63.9261 247.069 64.0194 247.042 64.1067C247.015 64.194 246.963 64.2714 246.892 64.329C246.845 64.3672 246.792 64.3959 246.734 64.4134C246.676 64.4308 246.616 64.4368 246.556 64.4308C246.496 64.4249 246.438 64.4072 246.384 64.3787C246.331 64.3503 246.284 64.3116 246.246 64.265Z" fill="#8B91A6"/>
<path d="M244.24 65.8932C244.182 65.8228 244.146 65.7367 244.136 65.6458C244.127 65.5549 244.145 65.4632 244.188 65.3825C244.231 65.3018 244.297 65.2357 244.377 65.1925C244.458 65.1494 244.549 65.1312 244.64 65.1402C244.731 65.1492 244.818 65.1851 244.888 65.2432C244.959 65.3014 245.01 65.3792 245.037 65.4667C245.063 65.5543 245.062 65.6477 245.035 65.735C245.008 65.8223 244.956 65.8997 244.885 65.9572C244.838 65.9954 244.785 66.024 244.727 66.0415C244.67 66.0589 244.609 66.0649 244.549 66.0589C244.489 66.053 244.431 66.0353 244.378 66.0068C244.325 65.9784 244.278 65.9398 244.24 65.8932Z" fill="#8B91A6"/>
<path d="M242.233 67.5211C242.175 67.4507 242.139 67.3646 242.13 67.2737C242.12 67.1829 242.138 67.0913 242.181 67.0107C242.224 66.9301 242.29 66.864 242.371 66.8209C242.451 66.7778 242.543 66.7596 242.634 66.7686C242.725 66.7776 242.811 66.8134 242.881 66.8715C242.952 66.9295 243.004 67.0072 243.03 67.0947C243.056 67.1822 243.056 67.2755 243.029 67.3628C243.002 67.4502 242.95 67.5275 242.879 67.5851C242.832 67.6235 242.779 67.6522 242.721 67.6698C242.663 67.6873 242.603 67.6933 242.543 67.6873C242.483 67.6814 242.424 67.6637 242.371 67.6351C242.318 67.6066 242.271 67.5679 242.233 67.5211Z" fill="#8B91A6"/>
<path d="M240.227 69.149C240.168 69.0785 240.132 68.9922 240.123 68.9011C240.113 68.8099 240.131 68.7181 240.174 68.6371C240.217 68.5562 240.283 68.4899 240.364 68.4466C240.445 68.4033 240.537 68.3851 240.628 68.3941C240.719 68.4031 240.806 68.4391 240.876 68.4974C240.947 68.5556 240.999 68.6336 241.025 68.7214C241.051 68.8092 241.051 68.9028 241.024 68.9903C240.997 69.0779 240.944 69.1554 240.873 69.213C240.779 69.2899 240.658 69.3264 240.537 69.3144C240.416 69.3024 240.304 69.2429 240.227 69.149Z" fill="#8B91A6"/>
<path d="M279.195 51.0951C285.681 51.0951 290.938 45.8376 290.938 39.3521C290.938 32.8667 285.681 27.6091 279.195 27.6091C272.71 27.6091 267.452 32.8667 267.452 39.3521C267.452 45.8376 272.71 51.0951 279.195 51.0951Z" fill="#646C89"/>
<path d="M279.195 48.474C284.233 48.474 288.317 44.3899 288.317 39.352C288.317 34.314 284.233 30.23 279.195 30.23C274.157 30.23 270.073 34.314 270.073 39.352C270.073 44.3899 274.157 48.474 279.195 48.474Z" fill="#D9EEF2"/>
<path d="M258.884 60.5219L254.294 54.8647L220.606 82.1989L225.196 87.856L258.884 60.5219Z" fill="#596280"/>
<path d="M267.863 77.687C268.093 77.687 268.279 77.5007 268.279 77.271C268.279 77.0412 268.093 76.855 267.863 76.855C267.633 76.855 267.447 77.0412 267.447 77.271C267.447 77.5007 267.633 77.687 267.863 77.687Z" fill="#8B91A6"/>
<path d="M221.356 97.0661L221.632 96.2761C221.818 95.7438 221.848 95.1695 221.719 94.6207C221.59 94.0718 221.306 93.5713 220.902 93.178C220.498 92.7846 219.991 92.5148 219.439 92.4002C218.886 92.2856 218.313 92.331 217.786 92.5311C217.387 92.6833 217.025 92.9199 216.725 93.2249C216.426 93.5299 216.196 93.896 216.051 94.2981L214.572 98.4111C214.419 98.8376 214.17 99.2232 213.844 99.5382C213.518 99.8532 213.124 100.089 212.693 100.228C211.966 100.497 211.209 100.677 210.439 100.766C209.639 100.736 209.982 104.641 209.982 104.641L220.782 101.163L221.356 97.0661Z" fill="#E83C65"/>
<path d="M216.941 131.18H216.654C216.607 132.748 215.962 134.239 214.853 135.348C213.744 136.458 212.253 137.102 210.685 137.149V137.437C212.253 137.484 213.744 138.128 214.853 139.238C215.962 140.347 216.606 141.837 216.654 143.405H216.941C216.988 141.837 217.633 140.346 218.742 139.237C219.851 138.128 221.342 137.484 222.91 137.437V137.149C221.342 137.102 219.851 136.458 218.742 135.349C217.632 134.239 216.988 132.748 216.941 131.18Z" fill="#FCDFBC"/>
<path d="M222.892 151.566H222.605C222.557 153.134 221.913 154.625 220.804 155.734C219.695 156.843 218.204 157.487 216.636 157.534V157.822C218.204 157.869 219.695 158.513 220.804 159.622C221.913 160.732 222.557 162.222 222.605 163.79H222.892C222.939 162.222 223.584 160.731 224.693 159.622C225.802 158.513 227.293 157.869 228.861 157.822V157.534C227.293 157.487 225.802 156.843 224.693 155.734C223.584 154.625 222.939 153.134 222.892 151.566Z" fill="#FCDFBC"/>
<path d="M161.665 78.4501H161.378C161.33 80.0181 160.686 81.5087 159.577 82.618C158.468 83.7272 156.977 84.3714 155.409 84.4191V84.7071C156.977 84.7543 158.468 85.3981 159.577 86.5073C160.686 87.6164 161.331 89.1071 161.378 90.6751H161.665C161.712 89.107 162.356 87.6162 163.466 86.507C164.575 85.3978 166.066 84.754 167.634 84.7071V84.4191C166.066 84.3716 164.575 83.7275 163.466 82.6183C162.357 81.509 161.712 80.0181 161.665 78.4501Z" fill="#FCDFBC"/>
<path d="M122.039 99.255H121.676C121.616 101.239 120.801 103.125 119.398 104.528C117.995 105.931 116.109 106.746 114.125 106.806V107.17C116.109 107.23 117.995 108.045 119.398 109.448C120.801 110.851 121.616 112.737 121.676 114.721H122.039C122.099 112.737 122.914 110.851 124.317 109.448C125.72 108.045 127.606 107.23 129.59 107.17V106.806C127.606 106.746 125.72 105.931 124.317 104.528C122.914 103.125 122.099 101.239 122.039 99.255Z" fill="#FCDFBC"/>
<path d="M69.724 202.448H69.361C69.3008 204.432 68.4859 206.318 67.0827 207.721C65.6795 209.124 63.7937 209.94 61.81 210V210.364C63.7935 210.424 65.6793 211.239 67.0826 212.642C68.4859 214.045 69.3008 215.931 69.361 217.914H69.724C69.784 215.93 70.5988 214.045 72.0021 212.641C73.4055 211.238 75.2914 210.424 77.275 210.364V210C75.2913 209.94 73.4053 209.125 72.002 207.721C70.5987 206.318 69.784 204.432 69.724 202.448Z" fill="#FCDFBC"/>
<path d="M231.141 122.351H230.947C230.915 123.41 230.48 124.417 229.731 125.167C228.981 125.916 227.974 126.351 226.915 126.383V126.577C227.974 126.609 228.981 127.045 229.73 127.794C230.48 128.543 230.915 129.55 230.947 130.609H231.141C231.173 129.55 231.608 128.543 232.357 127.794C233.106 127.044 234.113 126.609 235.172 126.577V126.383C234.113 126.351 233.106 125.916 232.357 125.167C231.607 124.417 231.173 123.41 231.141 122.351Z" fill="#FCDFBC"/>
</g>
<defs>
<clipPath id="clip0">
<rect width="331.001" height="284.818" fill="white"/>
</clipPath>
</defs>
</svg>
