<svg width="326" height="243" viewBox="0 0 326 243" fill="none" xmlns="http://www.w3.org/2000/svg">
<g clip-path="url(#clip0)">
<path d="M322.159 78.3001C303.822 28.8921 270.38 8.78612 218.159 1.70012C160.839 -6.08288 97.121 12.3081 41.425 68.5541C-42.549 153.354 14.225 247.183 95.71 242.222C188.352 236.581 151.583 182.854 266.728 176.274C314.237 173.559 333.616 109.173 322.159 78.3001Z" fill="#FEF5EA"/>
<path d="M64.843 22.5552C56.75 26.8652 52.443 36.0322 50.471 44.9882C48.499 53.9442 48.317 63.2672 45.716 72.0592C43.115 80.8512 37.324 89.5072 28.5 92.0002" stroke="#DD811D" stroke-width="1.606" stroke-miterlimit="10" stroke-linecap="round"/>
<path d="M196.579 40.1712C196.163 39.5487 195.626 39.0165 195 38.6062L189.964 35.3222C188.545 34.3965 186.936 33.8001 185.256 33.5769C183.576 33.3537 181.868 33.5093 180.256 34.0322L166.936 38.3532C165.512 38.815 164.23 39.6316 163.209 40.7261C162.189 41.8206 161.463 43.1569 161.102 44.6092L160.716 46.1622L163.16 45.4492L163.682 45.9152L144.362 49.2882V48.6772H138.434V58.4002C136.86 55.9822 135.717 53.6242 135.671 51.5892C135.652 51.0792 135.602 50.5708 135.519 50.0672C145.661 33.2212 137.855 17.9892 126.152 16.3752L125.899 16.4092C125.677 15.7529 125.412 15.1121 125.105 14.4912C121.337 6.95519 110.453 9.04919 92.034 6.95519C73.615 4.86119 52.685 17.0002 43.475 37.9322C34.265 58.8642 30.627 101.092 35.1 115.8C40.96 135.057 38.658 152.639 38.344 167.4C38.144 176.944 50.903 188.436 50.903 188.436C50.773 188.013 50.659 187.593 50.538 187.171C50.652 187.35 50.764 187.53 50.879 187.707L52.263 209.158L48.5 217.941C82.112 225.658 114.519 225.588 145.621 217.104L148.591 190.617C167.751 187.25 185.898 183.869 197.74 181.73C201.889 180.981 205.618 178.732 208.216 175.411C210.814 172.091 212.101 167.931 211.83 163.723L205.9 112.029H205.81L202.41 102.851L199.41 103.031L195.62 71.3002L196.72 67.9522L208.206 69.1192V69.1842H226V38.1412H208.205L196.579 40.1712ZM144.364 63.1892V62.6342L156.1 63.8272L157.18 67.5852L164.426 72.5942L167.672 98.3132L165.134 98.4582L162.134 104.768L163.134 105.122L162.298 105.113L160.689 121.657C159.273 125.257 157.617 128.721 156.429 128.908C153.913 129.308 153.075 130.494 153.075 134.857C153.075 139.183 143.18 133.762 132.794 134.445L132.71 134.429C132.688 134.218 132.663 134.009 132.641 133.797C131.694 124.323 127.469 115.624 122.014 107.897C134.014 107.446 133.657 107.797 137.105 102.272C142.612 93.4512 138.865 80.3352 141.549 79.2522C144.233 78.1692 148.518 77.1372 148.106 72.7522C147.906 70.5902 144.917 67.0342 141.922 63.1882L144.364 63.1892Z" fill="#E3DEE6" stroke="#E3DEE6" stroke-width="3.745" stroke-miterlimit="10"/>
<path d="M284.373 16.6131C279.402 16.4921 274.515 17.9068 270.378 20.6643C266.241 23.4219 263.054 27.3882 261.253 32.0225C259.452 36.6569 259.124 41.734 260.314 46.5617C261.503 51.3894 264.152 55.7329 267.9 59.0001C269.169 60.0894 270.19 61.4379 270.895 62.9547C271.599 64.4716 271.971 66.1217 271.984 67.7941C271.986 69.3935 272.622 70.9268 273.753 72.0577C274.884 73.1885 276.418 73.8245 278.017 73.8261H290.08C291.543 73.8245 292.946 73.2426 293.981 72.2079C295.015 71.1732 295.597 69.7704 295.599 68.3071C295.586 66.5402 295.95 64.7908 296.667 63.1756C297.383 61.5604 298.436 60.1165 299.754 58.9401C303.408 55.729 306.008 51.4904 307.214 46.7781C308.421 42.0659 308.178 37.0993 306.517 32.5274C304.856 27.9556 301.854 23.9911 297.904 21.1522C293.954 18.3134 289.24 16.7321 284.377 16.6151L284.373 16.6131Z" fill="#E3DEE6" stroke="#E3DEE6" stroke-width="3.745" stroke-miterlimit="10"/>
<path d="M291.5 75.9202H277.372C276.993 75.9202 276.63 76.0706 276.362 76.3384C276.094 76.6062 275.944 76.9694 275.944 77.3482C275.944 77.7269 276.094 78.0901 276.362 78.3579C276.63 78.6257 276.993 78.7762 277.372 78.7762H291.5C291.879 78.7762 292.242 78.6257 292.51 78.3579C292.778 78.0901 292.928 77.7269 292.928 77.3482C292.928 76.9694 292.778 76.6062 292.51 76.3384C292.242 76.0706 291.879 75.9202 291.5 75.9202Z" fill="#E3DEE6" stroke="#E3DEE6" stroke-width="3.745" stroke-miterlimit="10"/>
<path d="M291.5 80.0221H277.372C277.181 80.0171 276.992 80.0502 276.814 80.1197C276.636 80.1892 276.475 80.2935 276.338 80.4266C276.201 80.5596 276.093 80.7187 276.019 80.8944C275.944 81.0701 275.906 81.2589 275.906 81.4496C275.906 81.6403 275.944 81.8291 276.019 82.0048C276.093 82.1805 276.201 82.3396 276.338 82.4726C276.475 82.6057 276.636 82.71 276.814 82.7795C276.992 82.849 277.181 82.8821 277.372 82.8771H291.5C291.872 82.8673 292.226 82.7125 292.485 82.4459C292.745 82.1793 292.89 81.8218 292.89 81.4496C292.89 81.0774 292.745 80.7199 292.485 80.4533C292.226 80.1867 291.872 80.032 291.5 80.0221Z" fill="#E3DEE6" stroke="#E3DEE6" stroke-width="3.745" stroke-miterlimit="10"/>
<path d="M291.5 84.1242H277.372C277.181 84.1191 276.992 84.1523 276.814 84.2218C276.636 84.2912 276.475 84.3956 276.338 84.5286C276.201 84.6617 276.093 84.8208 276.019 84.9965C275.944 85.1722 275.906 85.3609 275.906 85.5517C275.906 85.7424 275.944 85.9311 276.019 86.1068C276.093 86.2826 276.201 86.4416 276.338 86.5747C276.475 86.7077 276.636 86.8121 276.814 86.8815C276.992 86.951 277.181 86.9842 277.372 86.9792H291.5C291.872 86.9693 292.226 86.8146 292.485 86.548C292.745 86.2813 292.89 85.9238 292.89 85.5517C292.89 85.1795 292.745 84.822 292.485 84.5554C292.226 84.2887 291.872 84.134 291.5 84.1242Z" fill="#E3DEE6" stroke="#E3DEE6" stroke-width="3.745" stroke-miterlimit="10"/>
<path d="M217.636 64.9211H199.819V64.8591L188.319 63.7591L187.219 66.9311L191.012 96.9901L194.018 96.8181L197.244 105.511H197.516L197.648 106.598L197.699 106.736L197.674 106.815L203.452 154.484C204.013 162.736 197.944 170.073 189.342 171.543C154.142 177.558 63.311 193.943 55.4 189.588C50.3 186.78 63.341 179.054 59.415 172.84C49.478 157.11 47.529 133.408 74.875 116.64L68.669 121.771C78.062 119.73 86.296 120.489 96.903 125.345C101.592 127.373 106.442 129.004 111.403 130.222L132.793 134.451C143.179 133.768 153.074 139.189 153.074 134.863C153.074 130.5 153.912 129.31 156.427 128.914C157.616 128.727 159.272 125.264 160.688 121.663L162.297 105.119L163.133 105.128L162.133 104.774L165.133 98.4641L167.671 98.3191L164.425 72.6001L157.179 67.5911L155.484 61.6911L160.242 61.7531L160.322 61.0701" fill="#E8DDE3"/>
<path d="M176.375 106.689L199.515 103.927L195.62 71.2996L172.481 74.0617L176.375 106.689Z" fill="#E8BA8B"/>
<path d="M65.244 126.681C37.936 144.381 39.883 169.404 49.806 186.008C53.726 192.568 58.89 197.814 63.988 200.778C71.888 205.371 162.588 188.078 197.739 181.73C201.888 180.981 205.617 178.732 208.215 175.411C210.813 172.091 212.1 167.931 211.829 163.723L205.9 112.029L170.735 111.61L167.386 148.031L65.244 126.681Z" fill="#270041"/>
<path d="M126.154 16.373C138.294 18.047 146.248 34.373 134.317 51.956C134.317 51.956 125.317 43.386 124.898 42.856C124.479 42.326 111.92 18.327 111.92 18.327L126.154 16.373Z" fill="#F49727"/>
<path d="M118.334 108.052C134.128 107.333 133.334 108.313 137.106 102.275C142.613 93.4541 138.866 80.3381 141.55 79.2551C144.234 78.1721 148.519 77.1401 148.107 72.7551C147.695 68.3701 135.826 58.2481 135.673 51.5891C135.52 44.9301 125.659 19.2491 110.882 16.5351C87.221 12.1881 59.458 16.3171 53.313 31.0261C47.168 45.7351 49.262 71.7001 61.543 86.2051C73.824 100.71 73.771 111.861 73.043 120.894C78.2419 125.847 84.9058 128.981 92.036 129.828C99.3462 130.486 106.703 129.261 113.406 126.271L118.334 108.052Z" fill="#E8BA8B"/>
<path d="M126.988 58.5842C128.016 58.5842 128.85 57.4909 128.85 56.1422C128.85 54.7935 128.016 53.7002 126.988 53.7002C125.96 53.7002 125.126 54.7935 125.126 56.1422C125.126 57.4909 125.96 58.5842 126.988 58.5842Z" fill="#C48D5F"/>
<path d="M115.897 56.1421H126.782" stroke="#C48D5F" stroke-width="1.606" stroke-miterlimit="10" stroke-linecap="round"/>
<path d="M140.178 76.8641C138.085 77.4921 135.154 78.5391 135.154 79.7941" stroke="#C48D5F" stroke-width="1.13" stroke-miterlimit="10" stroke-linecap="round"/>
<path d="M134.526 91.7251C128.875 91.0971 124.27 90.4691 121.549 87.5391" stroke="#C48D5F" stroke-width="1.606" stroke-miterlimit="10" stroke-linecap="round"/>
<path d="M124.689 27.4661C117.572 38.3501 111.289 42.5371 105.85 42.5371C105.85 42.5371 111.293 54.6771 95.803 57.6071C80.313 60.5371 83.663 68.0731 94.129 78.5391C104.595 89.0051 130.129 108.68 132.642 133.797C135.155 158.914 144.83 179.287 126.363 172.939C99.571 163.729 116.735 158.496 103.757 145.939C90.779 133.382 75.879 128 64.72 132.855C51.01 138.821 42.952 162.473 50.906 188.428C50.906 188.428 38.144 176.936 38.347 167.392C38.661 152.636 40.963 135.053 35.102 115.792C30.627 101.092 34.265 58.8591 43.475 37.9281C52.685 16.9971 73.616 4.86006 92.036 6.95306C110.456 9.04606 121.336 6.95306 125.107 14.4891C128.878 22.0251 124.689 27.4661 124.689 27.4661Z" fill="#F49727"/>
<path d="M129.43 47C126.788 45.631 119.598 45.007 114.003 47.9" stroke="#C48D5F" stroke-width="1.606" stroke-miterlimit="10" stroke-linecap="round"/>
<path d="M141.015 142.588C141.015 142.588 118.409 139.239 105.432 132.96C92.455 126.681 83.032 126.89 70.686 131.076C59.079 135.011 63.986 155.147 63.986 155.147L113.386 182.777L158.6 170.218L141.015 142.588Z" fill="#270041"/>
<path d="M141.015 142.588C151.481 141.751 161.528 147.612 161.528 143.007C161.528 138.402 162.365 137.146 164.877 136.728C167.389 136.31 171.993 120.401 171.993 120.401L185.393 120.82C185.393 120.82 184.138 151.798 184.138 154.729C184.138 157.66 166.974 166.029 165.299 164.776C163.624 163.523 141.015 142.588 141.015 142.588Z" fill="#270041"/>
<path d="M170.736 111.669L173.572 104.585L202.408 102.85L205.864 112.17L204.856 117.471L185.254 116.726L170.736 111.669Z" fill="#270041"/>
<path d="M50.592 183.2L52.266 209.155L48.5 217.941C82.113 225.658 114.519 225.588 145.621 217.104L150.644 172.311L86.175 160.589L50.592 183.2Z" fill="#270041"/>
<path d="M142.271 62.4211L208.205 69.1201V38.1411L142.271 49.6531V62.4211Z" fill="#19254F"/>
<path d="M208.204 69.1851H225.996V38.1411H208.204V69.1851Z" fill="#616986"/>
<path d="M64.843 22.5552C56.75 26.8652 52.443 36.0322 50.471 44.9882C48.499 53.9442 48.317 63.2672 45.716 72.0592C43.115 80.8512 37.324 89.5072 28.5 92.0002" stroke="#DD811D" stroke-width="1.606" stroke-miterlimit="10" stroke-linecap="round"/>
<path d="M121.226 18.8352C118.611 17.7962 115.587 19.0512 113.505 20.9432C111.423 22.8352 109.962 25.3072 108.067 27.3872C106.172 29.4672 103.559 31.2272 100.758 30.9612" stroke="#DD811D" stroke-width="1.606" stroke-miterlimit="10" stroke-linecap="round"/>
<path d="M98.017 40.7891C98.317 43.7221 96.066 46.4351 93.373 47.6351C90.68 48.8351 87.631 48.8571 84.683 48.8601" stroke="#DD811D" stroke-width="1.606" stroke-miterlimit="10" stroke-linecap="round"/>
<path d="M78.372 29.1482C71.432 30.8552 67.052 38.0342 65.942 45.0942C64.832 52.1542 66.22 59.3322 66.742 66.4602C67.264 73.5882 66.736 81.2722 62.442 86.9852" stroke="#DD811D" stroke-width="1.606" stroke-miterlimit="10" stroke-linecap="round"/>
<path d="M43.467 143.475C40.581 135.012 44.206 125.863 47.62 117.6C51.034 109.337 54.3 99.9322 50.779 91.7122" stroke="#DD811D" stroke-width="1.13" stroke-miterlimit="10" stroke-linecap="round"/>
<path d="M123.946 131.952C122.446 124.572 117.08 118.525 111.031 114.039C104.982 109.553 98.125 106.276 91.9 102.039C85.675 97.8021 79.894 92.2921 77.513 85.1481" stroke="#DD811D" stroke-width="1.606" stroke-miterlimit="10" stroke-linecap="round"/>
<path d="M139.812 191.043L98.959 193.988" stroke="#725883" stroke-width="2" stroke-miterlimit="10" stroke-linecap="round"/>
<path d="M201.3 113.567L177.741 112.567" stroke="#725883" stroke-width="1.285" stroke-miterlimit="10" stroke-linecap="round"/>
<path d="M165.505 145.1L173.354 154.519" stroke="#725883" stroke-width="1.285" stroke-miterlimit="10" stroke-linecap="round"/>
<path d="M169.272 139.135L179.947 144.472" stroke="#725883" stroke-width="1.285" stroke-miterlimit="10" stroke-linecap="round"/>
<path d="M74.767 192.51C64.219 191.6 53.651 180.854 53.3 170.273C52.985 160.761 57.185 147.612 66.6 140.391" stroke="#725883" stroke-width="2" stroke-miterlimit="10" stroke-linecap="round"/>
<path d="M172.865 77.285L169.365 74.729C166.948 72.9621 165.218 70.412 164.47 67.513L163.744 64.7L168.744 64.918L169.774 55.88C169.919 54.6102 169.757 53.3241 169.302 52.1297C168.847 50.9354 168.112 49.8676 167.159 49.016L163.159 45.449L160.715 46.162L161.101 44.609C161.463 43.1568 162.188 41.8205 163.208 40.726C164.229 39.6315 165.512 38.8149 166.935 38.353L180.255 34.032C181.867 33.5091 183.575 33.3535 185.255 33.5767C186.935 33.7999 188.544 34.3963 189.963 35.322L195 38.606C195.717 39.0734 196.318 39.6992 196.755 40.4351C197.192 41.1711 197.455 41.9976 197.522 42.851L198.507 55.284C198.81 59.1199 198.349 62.9779 197.149 66.634L195.62 71.3L188.648 75.291L172.865 77.285Z" fill="#E8BA8B"/>
<path d="M169.554 39.8381L174.863 44.5791" stroke="#C48D5F" stroke-width="1.606" stroke-miterlimit="10" stroke-linecap="round"/>
<path d="M183.078 42.7561L176.564 37.6311" stroke="#C48D5F" stroke-width="1.606" stroke-miterlimit="10" stroke-linecap="round"/>
<path d="M189.555 40.5071L183.568 36.2681" stroke="#C48D5F" stroke-width="1.606" stroke-miterlimit="10" stroke-linecap="round"/>
<path d="M138.436 63.1892H144.364V48.6772H138.436V63.1892Z" fill="#616986"/>
<path d="M154.272 49.5142V60.8172" stroke="#616986" stroke-width="1.285" stroke-miterlimit="10" stroke-linecap="round"/>
<path d="M154.2 64.5151C154.286 64.9991 154.381 65.5245 154.485 66.0911" stroke="#616986" stroke-width="1.285" stroke-miterlimit="10" stroke-linecap="round"/>
<path d="M155.074 69.2501C158.974 90.3051 168.157 143.097 135.72 134.733" stroke="#616986" stroke-width="1.285" stroke-miterlimit="10" stroke-linecap="round" stroke-dasharray="3.21 3.21"/>
<path d="M134.17 134.3C133.67 134.148 133.161 133.982 132.642 133.8" stroke="#616986" stroke-width="1.285" stroke-miterlimit="10" stroke-linecap="round"/>
<path d="M260.893 40.7842C260.892 36.9562 261.85 33.189 263.68 29.827C265.511 26.4651 268.155 23.6158 271.371 21.5397C274.587 19.4636 278.273 18.2271 282.09 17.9432C285.907 17.6593 289.735 18.3371 293.223 19.9146C296.711 21.4921 299.747 23.9189 302.055 26.9731C304.363 30.0273 305.868 33.6113 306.433 37.3974C306.997 41.1835 306.604 45.0508 305.288 48.6455C303.972 52.2402 301.776 55.4475 298.9 57.9742C297.446 59.2719 296.284 60.8643 295.493 62.6455C294.701 64.4268 294.298 66.3561 294.31 68.3052C294.31 68.8615 294.2 69.4123 293.988 69.9263C293.775 70.4402 293.463 70.9072 293.069 71.3005C292.676 71.6939 292.209 72.0059 291.695 72.2188C291.181 72.4316 290.63 72.5412 290.074 72.5412H278.013C276.753 72.5409 275.545 72.0404 274.655 71.1496C273.764 70.2589 273.264 69.0508 273.264 67.7912C273.251 65.9354 272.841 64.1039 272.06 62.4203C271.28 60.7366 270.147 59.2399 268.739 58.0312C266.273 55.8858 264.296 53.2357 262.942 50.2602C261.588 47.2847 260.89 44.0532 260.893 40.7842Z" fill="#F49727" stroke="#F49727" stroke-width="2.566" stroke-miterlimit="10"/>
<path d="M291.496 77.3491H277.372" stroke="#19254F" stroke-width="2.856" stroke-miterlimit="10" stroke-linecap="round"/>
<path d="M291.496 81.4501H277.372" stroke="#19254F" stroke-width="2.856" stroke-miterlimit="10" stroke-linecap="round"/>
<path d="M291.496 85.5511H277.372" stroke="#19254F" stroke-width="2.856" stroke-miterlimit="10" stroke-linecap="round"/>
<path d="M91.244 59.2001C90.3964 58.3721 89.3226 57.8137 88.158 57.5951C86.9934 57.3766 85.7902 57.5078 84.7 57.9721C83.6086 58.4684 82.6344 59.19 81.8416 60.0895C81.0489 60.9889 80.4553 62.046 80.1 63.1911C79.4754 65.1395 79.4299 67.2273 79.9692 69.2009C80.5085 71.1746 81.6094 72.9492 83.138 74.3091C84.7136 75.5873 86.6281 76.3776 88.6465 76.583C90.6649 76.7883 92.6993 76.3998 94.5 75.4651" fill="#E8BA8B"/>
<path d="M91.244 59.2001C90.3964 58.3721 89.3226 57.8137 88.158 57.5951C86.9934 57.3766 85.7902 57.5078 84.7 57.9721C83.6086 58.4684 82.6344 59.19 81.8416 60.0895C81.0489 60.9889 80.4553 62.046 80.1 63.1911C79.4754 65.1395 79.4299 67.2273 79.9692 69.2009C80.5085 71.1746 81.6094 72.9492 83.138 74.3091C84.7136 75.5873 86.6281 76.3776 88.6465 76.583C90.6649 76.7883 92.6993 76.3998 94.5 75.4651" stroke="#C48D5F" stroke-width="1.606" stroke-miterlimit="10" stroke-linecap="round"/>
<path d="M93.627 69.4082C93.0951 69.2986 92.5972 69.0632 92.1749 68.7217C91.7527 68.3802 91.4184 67.9425 91.2 67.4452C90.9861 66.9366 90.8928 66.3854 90.9275 65.8347C90.9622 65.2841 91.1239 64.7489 91.4 64.2712C90.6615 63.408 89.6682 62.8013 88.563 62.5382C88.0111 62.4134 87.4394 62.4034 86.8835 62.5087C86.3275 62.6139 85.7991 62.8323 85.331 63.1502C84.5728 63.7294 84.0479 64.5616 83.8519 65.4953C83.6559 66.429 83.8018 67.4021 84.263 68.2372" stroke="#C48D5F" stroke-width="1.13" stroke-miterlimit="10" stroke-linecap="round"/>
<path d="M72.929 102.684C78.845 110.77 102.509 118.066 105.664 125.362" stroke="#DD811D" stroke-width="1.13" stroke-miterlimit="10" stroke-linecap="round"/>
<path d="M104.875 12.761C95.607 12.17 82.789 13.353 76.281 20.452" stroke="#DD811D" stroke-width="1.13" stroke-miterlimit="10" stroke-linecap="round"/>
<path d="M279.982 69.1001V40.3411C279.982 39.8459 279.885 39.3556 279.695 38.898C279.506 38.4405 279.228 38.0248 278.878 37.6746C278.528 37.3244 278.112 37.0467 277.655 36.8571C277.198 36.6676 276.707 36.5701 276.212 36.5701H275.135C274.135 36.5701 273.176 36.9674 272.469 37.6746C271.761 38.3818 271.364 39.3409 271.364 40.3411V40.3411C271.364 40.8362 271.462 41.3266 271.651 41.784C271.841 42.2415 272.118 42.6571 272.469 43.0072C272.819 43.3573 273.235 43.635 273.692 43.8244C274.15 44.0138 274.64 44.1112 275.135 44.1111H285.369" stroke="#F8BA70" stroke-width="1.323" stroke-miterlimit="10" stroke-linecap="round"/>
<path d="M287.093 69.1001V40.3411C287.093 39.8459 287.19 39.3556 287.38 38.898C287.569 38.4405 287.847 38.0248 288.197 37.6746C288.547 37.3244 288.963 37.0467 289.42 36.8571C289.878 36.6676 290.368 36.5701 290.863 36.5701H291.94C292.94 36.5701 293.899 36.9674 294.607 37.6746C295.314 38.3818 295.711 39.3409 295.711 40.3411C295.711 40.8362 295.613 41.3266 295.424 41.784C295.234 42.2415 294.957 42.6571 294.606 43.0072C294.256 43.3573 293.841 43.635 293.383 43.8244C292.926 44.0138 292.435 44.1112 291.94 44.1111H281.706" stroke="#F8BA70" stroke-width="1.323" stroke-miterlimit="10" stroke-linecap="round"/>
</g>
<defs>
<clipPath id="clip0">
<rect width="325.369" height="242.41" fill="white"/>
</clipPath>
</defs>
</svg>
