<svg width="344" height="306" viewBox="0 0 344 306" fill="none" xmlns="http://www.w3.org/2000/svg">
<path d="M275.293 85.8498L275.729 85.4605C275.729 85.4605 253.998 -9.02861 197.334 0.70326C121.905 13.6584 143.678 114.427 103.628 131.411C42.9183 157.157 19.4267 168.332 15.8537 212.381C12.8966 248.831 52.651 284.757 52.6518 284.757L52.6045 284.799C52.6045 284.799 73.2776 321.59 131.383 296.069C229.862 252.815 273.744 320.626 329.73 239.035C353.457 204.458 353.44 133.111 275.293 85.8498Z" fill="#E3F3F5"/>
<path d="M121.157 81.3578C116.664 136.478 122.811 196.223 122.837 251.526" stroke="#19254F" stroke-width="0.486481" stroke-miterlimit="10"/>
<path d="M138.696 103.648C129.673 151.47 127.907 200.443 121.599 248.698" stroke="#19254F" stroke-width="0.486481" stroke-miterlimit="10"/>
<path d="M155.913 118.423C139.929 161.822 132.017 208.492 120.539 253.294" stroke="#19254F" stroke-width="0.486481" stroke-miterlimit="10"/>
<path d="M28.7399 235.471C26.9611 239.075 26.4219 240.114 25.9197 244.469C22.7304 243.896 19.5739 243.153 16.4635 242.244L23.5501 218.773C23.5501 218.773 28.882 218.472 28.4935 223.601C28.2993 227.559 28.3816 231.525 28.7399 235.471Z" fill="#68708B"/>
<path d="M18.1406 237.038C19.3766 237.448 20.4084 238.317 21.0235 239.465C21.6386 240.613 21.7904 241.953 21.4475 243.209" stroke="#19254F" stroke-width="0.145697" stroke-miterlimit="10" stroke-linecap="round"/>
<path d="M27.8139 224.71C25.8026 226.294 22.1383 225.141 22.1383 225.141" stroke="#19254F" stroke-width="0.145697" stroke-miterlimit="10" stroke-linecap="round"/>
<path d="M23.5501 218.771L16.4635 242.242" stroke="#19254F" stroke-width="0.291395" stroke-miterlimit="10"/>
<path d="M19.3095 286.291C21.7791 289.8 22.4785 290.836 26.3065 293.531C24.1396 296.229 21.8307 298.81 19.3896 301.262L1 282.627C1 282.627 3.44115 277.473 8.05212 280.457C11.6643 282.661 15.4259 284.611 19.3095 286.291Z" fill="#68708B"/>
<path d="M15.3618 297.031C16.3779 296.081 17.7193 295.557 19.1099 295.567C20.5005 295.576 21.8347 296.118 22.8377 297.082" stroke="#19254F" stroke-width="0.155575" stroke-miterlimit="10" stroke-linecap="round"/>
<path d="M8.74551 281.663C9.20291 284.359 6.25354 287.207 6.25354 287.207" stroke="#19254F" stroke-width="0.155575" stroke-miterlimit="10" stroke-linecap="round"/>
<path d="M1 282.63L19.3896 301.262" stroke="#19254F" stroke-width="0.310798" stroke-miterlimit="10"/>
<path d="M83.2385 266.519C78.8943 261.848 75.1995 256.612 72.2542 250.953C69.67 245.979 67.2582 240.264 62.1571 237.927C59.6703 236.786 56.8622 236.634 54.1299 236.497C45.6427 236.076 37.1555 235.655 28.664 235.436C26.5331 238.097 25.3477 241.39 25.2943 244.799C35.2004 247.725 44.8676 251.407 54.2108 255.811C57.9004 263.766 62.2568 271.393 67.2332 278.613C68.7596 280.827 70.5237 283.134 73.0949 283.922C76.3819 284.927 79.8765 283.1 82.4693 280.843C84.7675 278.843 86.8055 276.278 87.1914 273.256C87.5773 270.234 85.7718 266.796 82.7777 266.238C83.0145 266.041 83.248 265.843 83.2385 266.519Z" fill="#F49727"/>
<path d="M260.206 160.53C235.378 187.238 204.526 207.467 174.004 227.422C160.653 236.152 147.296 244.882 135.078 253.83C163.362 243.447 192.734 236.373 222.027 229.323L297.742 211.099" stroke="#19254F" stroke-width="0.486481" stroke-miterlimit="10"/>
<path d="M279.859 182.288C232.62 208.336 184.312 232.309 134.935 254.207L137.289 253.971" stroke="#19254F" stroke-width="0.486481" stroke-miterlimit="10"/>
<path d="M109.619 196.858C108.514 193.378 108.656 189.622 110.019 186.235C111.382 182.849 113.882 180.043 117.09 178.299C118.879 178.872 120.669 179.446 122.47 180.09C122.423 183.535 121.57 186.921 119.98 189.977C121.1 189.992 122.219 190.008 123.39 189.912C123.421 190.731 123.452 191.549 123.438 192.371L117.685 197.183C116.773 198.027 115.738 198.729 114.617 199.264C114.054 199.528 113.439 199.662 112.817 199.657C112.195 199.653 111.582 199.509 111.022 199.238C109.941 198.63 109.302 197.19 109.619 196.858Z" fill="#EEB581"/>
<path d="M197.552 241.306C198.776 239.471 201.296 239.212 203.405 238.565C206.173 237.648 208.627 235.971 210.489 233.725C212.341 231.545 213.742 229.018 214.609 226.291C213.497 224.042 211.923 222.052 209.991 220.452C207.379 222.269 205.097 224.518 203.244 227.103C202.392 225.498 201.54 223.892 200.676 222.325C200.028 222.53 199.435 222.879 198.943 223.347C198.45 223.815 198.071 224.389 197.833 225.025C196.197 228.729 194.034 231.326 194.81 235.437C195.387 236.95 197.394 239.512 197.645 241.113C197.802 240.966 197.962 240.82 197.552 241.306Z" fill="#EEB581"/>
<path d="M107.616 292.698C109.101 296.638 113.939 298.495 118.094 297.811C122.25 297.126 125.805 294.491 128.948 291.685C135.271 286.036 140.637 279.399 144.836 272.032C145.776 270.381 146.676 268.399 145.926 266.653C145.539 265.915 144.945 265.307 144.217 264.902C143.488 264.498 142.658 264.315 141.827 264.376C140.166 264.528 138.567 265.082 137.168 265.99C132.726 268.52 128.858 271.933 125.022 275.313L111.136 287.571C109.252 289.231 107.099 291.313 107.616 292.698Z" fill="#270041"/>
<path d="M284.437 130.397C269.707 112.07 246.278 101.73 222.792 100.679C199.305 99.6285 175.908 107.302 156.7 120.642C142.024 110.785 129.772 97.3501 120.044 81.2208C136.246 60.8285 159.688 45.9257 185.375 41.6266C211.062 37.3274 238.75 44.1392 258.443 61.1842C278.136 78.2292 288.929 105.54 284.437 130.397Z" fill="#19254F"/>
<path d="M121.662 83.1942C135.414 67.5989 153.533 55.63 173.677 50.4677C193.822 45.3055 215.937 47.2117 234.289 56.985C252.642 66.7582 266.818 84.5956 270.903 104.98C274.104 121.006 271.039 137.649 262.338 151.484C261.029 154.337 259.316 156.988 257.251 159.353C259.248 165.36 263.953 169.993 268.324 174.57C272.695 179.148 282.859 193.859 284.741 196.556C286.477 200.575 288.261 204.672 291.185 207.926C294.11 211.181 298.429 213.513 302.768 212.932C307.136 212.347 310.607 209.033 313.384 205.61C323.56 193.041 328.604 176.748 328.927 160.579C329.25 144.41 325.06 128.363 318.359 113.641C304.56 83.3268 279.47 57.9678 248.594 45.4761C217.718 32.9843 181.3 33.9758 151.925 49.6761C138.149 57.0392 125.653 67.9546 120.245 82.6188C121.358 82.7867 122.471 82.959 121.662 83.1942Z" fill="#5C6482"/>
<path d="M76.8255 281.759V282.219C68.5343 276.803 59.9751 271.809 51.1805 267.256C49.9476 266.612 48.5827 266.261 47.192 266.23C45.8012 266.199 44.4221 266.49 43.1619 267.079C33.9633 271.453 25.4908 277.213 18.0406 284.158C19.8464 288.614 22.3955 292.73 25.5794 296.332C32.1397 293.063 38.7844 289.872 45.4291 286.685C52.5897 290.183 59.3679 293.317 66.147 296.445C71.1086 298.737 76.1614 301.056 81.5752 301.805C90.692 303.067 99.783 299.763 108.22 296.084C120.883 290.564 133.717 283.508 141.137 272.361C138.522 268.186 135.261 264.452 131.476 261.299C125.631 256.601 118.941 253.066 111.767 250.884C111.758 251.466 111.617 252.039 111.355 252.559C108.581 257.443 104.344 261.333 99.2412 263.682C94.074 265.944 88.3822 266.734 82.794 265.966C80.6575 268.911 78.7744 272.032 77.1649 275.296C76.4539 276.554 76.0067 277.944 75.8505 279.381C75.7772 280.818 76.3475 282.376 76.8255 281.759Z" fill="#F6A747"/>
<path d="M139.081 274.18C141.234 271.924 144.416 271.025 147.463 270.37C150.511 269.714 153.7 269.164 156.594 267.64C173.235 262.404 188.198 252.866 199.968 239.989C199.317 235.988 195.919 232.587 192.058 232.209C185.092 236.992 178.127 241.776 171.237 246.716C163.52 247.082 155.891 248.525 148.573 251.003C145.574 252.02 142.226 253.201 139.363 251.847C137.818 251.119 136.679 249.747 135.245 248.817C132.914 247.304 130.008 247.067 127.234 246.873C125.093 246.723 122.841 246.591 120.896 247.497C119.31 248.297 118.033 249.6 117.265 251.201C115.36 254.935 115.861 259.616 117.969 263.239C120.215 266.818 123.539 269.591 127.462 271.159C131.198 272.633 135.1 273.648 139.081 274.18Z" fill="#F6A747"/>
<path d="M110.775 256.699C111.981 253.922 110.736 250.751 109.504 247.987L103.764 235.108C101.907 230.942 100.017 226.622 100.015 222.061C100.015 218.718 101.034 215.469 102.043 212.282L106.414 198.487C106.618 197.508 107.123 196.617 107.858 195.939C109.22 194.933 111.151 195.622 112.614 196.475C114.078 197.328 115.697 198.361 117.363 198.198C115.203 203.388 113.733 208.839 112.988 214.412C112.251 220.01 113.03 225.704 115.244 230.899C116.719 234.134 118.862 237.014 120.527 240.159C122.192 243.304 122.978 244.941 120.814 247.763C118.9 250.259 115.982 252.758 110.775 256.699Z" fill="#F49727"/>
<path d="M142.456 253.918C141.04 253.173 139.91 251.983 139.239 250.531C138.567 249.079 138.393 247.446 138.743 245.885C135.022 245.794 131.305 246.176 127.681 247.023C127.785 247.872 128.095 248.682 128.583 249.384C129.071 250.086 129.723 250.658 130.483 251.052C132.008 251.821 133.652 252.33 135.345 252.556C137.038 252.783 138.684 253.279 140.221 254.027C140.62 254.295 141.059 254.497 141.522 254.625C141.993 254.718 142.557 254.551 142.456 253.918Z" fill="#F6A747"/>
<path d="M122.484 270.39C116.295 267.48 110.963 263.019 107.005 257.441C107.602 256.504 108.199 255.566 108.697 254.821C113.3 259.421 118.377 263.521 123.843 267.052C122.919 268.247 122.277 269.659 122.484 270.39Z" fill="#270041"/>
<path d="M109.05 255.723C114.769 252.805 119.605 248.412 123.058 242.997L124.339 243.881C124.339 243.881 117.049 254.574 110.244 257.491L109.05 255.723Z" fill="#270041"/>
<path d="M139.095 243.472L139.952 239.877L136.586 238.992L134.787 231.756L131.64 229.45L128.236 228.357L121.909 227.343L121.3 229.095C121.043 229.734 120.918 230.419 120.931 231.108C120.945 231.797 121.097 232.476 121.379 233.105C120.481 234.374 119.344 235.544 118.45 236.809C118.342 236.996 118.295 237.211 118.316 237.426C118.337 237.641 118.424 237.843 118.566 238.006C118.745 238.148 119.005 238.097 119.225 238.159C119.795 238.319 119.861 238.987 119.866 239.578C119.896 241.967 120.809 244.261 122.43 246.017C122.58 246.198 122.765 246.346 122.974 246.453C123.254 246.554 123.556 246.584 123.85 246.539C125.512 246.365 127.142 245.968 128.697 245.358" fill="#EEB581"/>
<path d="M123.78 233.204C124.299 232.899 124.897 232.754 125.499 232.79C126.101 232.825 126.678 233.039 127.158 233.403L127.179 233.268" stroke="#B77E53" stroke-width="0.191206" stroke-miterlimit="10" stroke-linecap="round"/>
<path d="M121.636 241.803C121.912 241.957 122.223 242.039 122.54 242.04C122.856 242.041 123.168 241.962 123.445 241.809C123.996 241.496 124.489 241.091 124.902 240.61C124.861 241.367 124.591 242.094 124.127 242.694C123.662 243.295 123.027 243.739 122.304 243.969" stroke="#B77E53" stroke-width="0.191206" stroke-miterlimit="10" stroke-linecap="round"/>
<path d="M119.439 237.799C119.797 237.713 120.325 238.41 120.614 238.17" stroke="#B77E53" stroke-width="0.0956029" stroke-miterlimit="10" stroke-linecap="round"/>
<path d="M131.763 275.431C107.504 290.941 83.907 295.449 75.158 291.472C68.6201 288.5 55.0491 281.382 48.6077 277.975C47.5283 277.404 46.3178 277.127 45.0976 277.172C43.8773 277.216 42.6903 277.581 41.6555 278.229L22.3976 290.279" stroke="#E83C65" stroke-width="0.389114" stroke-miterlimit="10" stroke-linecap="round"/>
<path d="M142.142 251.338C134.853 254.657 128.914 260.362 125.305 267.511C121.677 274.636 120.804 282.848 122.854 290.576C122.217 290.529 121.581 290.664 121.018 290.964C120.455 291.265 119.99 291.719 119.675 292.274C117.238 283.988 118.056 275.083 121.962 267.379C125.868 259.675 132.568 253.752 140.693 250.82C141.02 251.238 141.344 251.657 142.142 251.338Z" fill="#270041"/>
<path d="M98.8295 301.801C96.518 296.999 93.237 292.729 89.1933 289.259C85.1496 285.789 80.4308 283.195 75.3345 281.639C75.6697 278.3 76.7808 275.085 78.579 272.251C80.3773 269.418 82.813 267.044 85.6917 265.318C86.2325 265.451 86.7498 265.666 87.2258 265.955C87.2316 265.958 87.2364 265.963 87.2398 265.968C87.2431 265.974 87.2449 265.98 87.2449 265.987C87.2449 265.993 87.2431 266 87.2398 266.005C87.2364 266.011 87.2316 266.016 87.2258 266.019C84.5617 267.571 82.284 269.707 80.564 272.266C78.8439 274.825 77.7263 277.741 77.295 280.794C88.3379 281.927 98.3988 289.854 102.29 300.231C100.99 300.342 99.7685 300.896 98.8295 301.801Z" fill="#270041"/>
<path d="M27.5675 240.169C27.5675 240.169 45.7289 243.348 51.6939 244.812C57.659 246.277 59.5152 246.005 63.0951 251.971C66.675 257.937 74.2302 273.314 74.2302 273.314" stroke="#E83C65" stroke-width="0.389114" stroke-miterlimit="10" stroke-linecap="round"/>
<path d="M111.481 198.279C109.095 207.691 104.19 214.718 105.78 222.008C107.37 229.299 114.53 247.195 114.53 247.195" stroke="#E83C65" stroke-width="0.389114" stroke-miterlimit="10" stroke-linecap="round"/>
<path d="M199.105 234.204C200.031 233.412 200.784 232.438 201.32 231.344C201.855 230.25 202.162 229.058 202.22 227.841" stroke="#B77E53" stroke-width="0.191206" stroke-miterlimit="10" stroke-linecap="round"/>
<path d="M114.397 195.893C114.5 194.873 114.842 193.891 115.394 193.028C115.947 192.164 116.695 191.443 117.578 190.922" stroke="#B77E53" stroke-width="0.191206" stroke-miterlimit="10" stroke-linecap="round"/>
<path d="M125.28 230.794C123.981 232.202 123.698 232.805 122.524 232.321C121.35 231.837 121.203 229.865 121.203 229.865L125.28 230.794Z" fill="#F49727"/>
<path d="M118.371 228.865C118.015 229.12 117.583 229.248 117.145 229.227C116.707 229.206 116.29 229.039 115.959 228.751C115.959 228.751 116.925 232.055 118.73 232.321C120.535 232.588 120.318 232.213 121.917 230.912L122.348 229.903L118.371 228.865Z" fill="#F49727"/>
<path d="M134.387 232.082C133.464 232.039 131.851 231.929 131.564 231.863C131.564 231.863 133.373 234.381 132.028 235.331C132.437 235.563 132.912 235.649 133.376 235.574C132.95 236.134 132.682 236.797 132.601 237.496L133.957 236.839L134.479 232.083L134.387 232.082Z" fill="#F49727"/>
<path d="M118.218 240.779C119.934 244.486 122.69 247.615 126.15 249.788C130.861 247.038 137.198 248.111 141.662 244.975C143.855 243.317 145.442 240.983 146.177 238.333C146.983 235.715 147.14 232.941 146.636 230.249C146.132 227.557 144.981 225.028 143.282 222.879C141.535 220.769 139.256 219.163 136.681 218.228C134.106 217.293 131.327 217.063 128.633 217.561C125.933 218.105 123.47 219.48 121.59 221.494C119.71 223.508 118.507 226.059 118.15 228.791C123.372 230.677 128.843 231.787 134.387 232.086C134.267 233.728 134.145 235.371 133.957 236.842C129.16 239.509 123.725 240.815 118.24 240.619C118.311 240.556 118.383 240.496 118.218 240.779Z" fill="#4C2B61"/>
<path d="M141.042 255.348C146.521 254.375 164.902 249.25 171.707 249.78L193.205 234.005" stroke="#E83C65" stroke-width="0.389114" stroke-miterlimit="10" stroke-linecap="round"/>
<path d="M141.681 276.71C142.476 278.831 140.222 282.941 138.631 284.929C137.04 286.918 136.378 288.906 136.909 290.762" stroke="#270041" stroke-width="0.486481" stroke-miterlimit="10"/>
<path d="M135.499 291.12L137.954 290.388C138.1 290.345 138.252 290.331 138.403 290.348C138.553 290.365 138.699 290.412 138.831 290.486C138.963 290.56 139.079 290.66 139.171 290.78C139.264 290.9 139.332 291.037 139.37 291.184L140.606 295.892C140.681 296.177 140.642 296.479 140.497 296.735C140.352 296.991 140.113 297.18 139.831 297.263L137.256 298.026C137.108 298.07 136.953 298.083 136.801 298.065C136.648 298.046 136.501 297.997 136.368 297.92C136.235 297.843 136.119 297.739 136.027 297.616C135.936 297.492 135.87 297.351 135.835 297.202L134.715 292.464C134.649 292.182 134.693 291.886 134.839 291.636C134.985 291.385 135.221 291.201 135.499 291.12Z" fill="#E83C65"/>
</svg>
