<svg width="347" height="282" viewBox="0 0 347 282" fill="none" xmlns="http://www.w3.org/2000/svg">
<g clip-path="url(#clip0)">
<path d="M213.796 281.064C279.496 276.295 346.719 221.118 337.596 146.838C328.473 72.558 248.997 89.6 234.212 46.929C215.099 -8.23904 89.996 -17.361 60.023 33.463C30.05 84.287 28.071 143.719 76.529 211.563C109.109 257.173 159.932 284.974 213.796 281.064Z" fill="#F8E8F0"/>
<path d="M150.714 188.471H150.697C150.703 188.7 150.715 188.92 150.714 188.471Z" fill="#E3DEE6" stroke="#E3DEE6" stroke-width="3.745" stroke-miterlimit="10"/>
<path d="M342.883 59.3679C341.816 58.5127 340.558 57.9293 339.216 57.6679C331.922 55.6499 324.567 53.8726 317.15 52.3359C312.478 51.3679 307.63 50.4979 302.969 51.5219C300.229 52.1219 297.669 53.3609 294.951 54.0649C291.908 54.8549 288.621 54.9979 285.904 56.5799C284.06 57.7267 282.541 59.3283 281.494 61.2309C276.003 70.6139 279.242 83.6369 272.627 92.2649C267.755 98.6189 259.134 100.479 251.254 101.905C250.255 102.182 249.208 102.238 248.185 102.071C248.096 102.044 248.009 102.01 247.924 101.971L247.602 101.757C247.402 101.609 247.223 101.433 247.071 101.236L246.977 101.004C235.085 76.6849 212.077 58.6739 186.356 50.2429C183.767 49.3949 181.152 48.6216 178.51 47.9229C178.471 47.8689 178.436 47.8119 178.397 47.7579L178.259 47.8579C161.257 43.3084 143.537 42.086 126.072 44.2579C125.991 44.2432 125.909 44.2375 125.827 44.2409C119.13 45.1375 112.493 46.4399 105.954 48.1409C87.746 52.8719 72.7 60.0589 61.222 69.4999C35.815 90.3999 25.206 122.481 14.886 159.176C14.8168 159.422 14.8303 159.684 14.9244 159.922C15.0186 160.16 15.1881 160.36 15.407 160.492L15.777 160.717C16.817 161.35 17.869 161.963 18.925 162.567C11.459 179.767 6.74399 193.786 3.23499 209.219C2.63499 211.863 2.06899 215.124 3.05199 216.875C4.50599 219.459 7.86599 220.805 9.73899 221.375C17.5455 223.851 25.6758 225.156 33.865 225.248C36.5293 225.251 39.191 225.084 41.834 224.748C42.343 224.683 42.842 224.623 43.329 224.564C47.824 224.02 51.707 223.55 53.977 220.136C55.634 217.643 54.971 215.655 54.205 213.355L54.025 212.812C53.738 211.936 53.398 211.078 53.069 210.248C52.4007 208.749 51.9117 207.176 51.612 205.563C50.849 200.202 54.439 195.163 58.181 190.463C60.286 187.818 62.242 185.563 64.863 184.763C67.669 183.907 70.799 184.89 73.829 185.841L74.401 186.02C76.034 186.528 77.676 186.974 79.321 187.392C79.167 192.374 79.121 196.126 79.26 201.631C79.1775 203.485 79.5555 205.331 80.36 207.003C81.76 209.443 84.495 210.503 86.717 211.156C92.0775 212.61 97.6179 213.293 103.171 213.183C107.271 213.183 111.31 212.928 115.131 212.683C116.594 212.59 119.043 212.437 120.54 210.76C120.666 210.619 120.756 210.45 120.802 210.266C120.847 210.083 120.848 209.892 120.804 209.708C119.312 203.453 119.154 196.953 120.341 190.633C122.65 190.518 124.95 190.372 127.241 190.196C127.248 190.234 127.253 190.271 127.26 190.31C131.734 190.002 146.396 189.122 150.698 188.468C150.691 188.244 150.69 188.02 150.715 188.468C151.007 193.868 152.015 199.158 152.442 204.652C152.889 210.448 152.439 216.277 151.108 221.936C150.776 223.314 150.983 224.767 151.688 225.998C152.393 227.228 153.542 228.142 154.899 228.552C166.021 231.888 168.064 233.252 183.576 232.98C191.287 232.843 204.091 231.134 211.331 228.48C212.705 228.125 213.897 227.273 214.678 226.088C214.977 225.684 215.172 225.213 215.247 224.717C215.322 224.22 215.273 223.713 215.106 223.239C214.364 221.392 212.847 221.255 211.425 220.144C210.003 219.033 209.737 217.027 209.59 215.231C208.803 205.567 208.411 194.909 208.341 185.079C208.341 184.35 208.328 183.615 208.326 182.896L210.832 183.817C213.136 184.66 215.58 185.052 218.032 184.969C225.483 184.72 231.874 184.664 237.091 183.296C239.496 185.951 242.046 188.471 244.728 190.846C248.258 194.26 251.558 198.446 251.847 203.346C252.136 208.246 249.499 213.79 252.447 217.711C254.061 219.857 256.863 220.678 259.487 221.246C270.402 223.6 281.671 223.807 292.666 221.857C294.012 221.745 295.29 221.219 296.325 220.351C297.825 218.815 297.513 216.229 296.469 214.351C295.425 212.473 293.798 210.984 292.72 209.13C291.287 206.663 290.92 203.738 290.655 200.897C289.919 193.001 289.751 185.061 290.155 177.141C290.282 174.665 290.419 172.002 289.096 169.906C288.163 168.617 286.956 167.55 285.562 166.782C280.122 163.519 274.354 160.837 268.353 158.782C277.574 157.465 286.5 154.952 293.511 149.036C302.166 141.736 306.311 130.543 310.099 119.873C312.953 111.838 315.808 103.804 318.663 95.7729L318.808 95.4729C321.932 91.5209 328.69 92.7999 332.808 89.9019C334.097 88.912 335.205 87.7066 336.083 86.3389C340.204 80.4455 342.978 73.7179 344.209 66.6329C344.651 64.0999 344.746 61.1299 342.883 59.3679ZM118.374 209.575C117.327 210.111 116.163 210.379 114.987 210.355C105.802 210.934 96.308 211.535 87.378 208.914C85.578 208.386 83.378 207.558 82.388 205.839C81.7835 204.502 81.5125 203.038 81.598 201.573C81.462 196.305 81.498 192.659 81.644 187.962C93.633 190.704 105.892 191.221 117.955 190.746C116.855 196.989 116.998 203.387 118.374 209.575ZM75.096 183.789L74.529 183.612C71.317 182.604 67.675 181.463 64.181 182.529C60.651 183.606 58.267 186.603 56.351 189.01C52.292 194.11 48.404 199.616 49.298 205.898C49.6219 207.694 50.159 209.446 50.898 211.115C51.229 211.949 51.541 212.737 51.805 213.545L51.989 214.099C52.75 216.379 53.018 217.364 52.033 218.846C50.359 221.364 47.294 221.735 43.051 222.246C42.558 222.306 42.051 222.367 41.54 222.434C32.04 223.653 21.573 222.545 10.425 219.142C7.84499 218.355 5.85199 217.079 5.09399 215.731C4.84399 215.287 4.56699 213.918 5.51699 209.739C8.97899 194.522 13.628 180.681 20.978 163.722C32.1358 169.701 43.8301 174.619 55.907 178.413C56.0542 178.464 56.2101 178.485 56.3655 178.474C56.5209 178.464 56.6727 178.423 56.812 178.353C56.9512 178.284 57.0751 178.187 57.1765 178.069C57.2778 177.95 57.3545 177.813 57.402 177.665C57.4495 177.516 57.4669 177.36 57.4531 177.205C57.4394 177.05 57.3948 176.899 57.3219 176.761C57.2491 176.624 57.1495 176.502 57.0289 176.403C56.9084 176.305 56.7693 176.231 56.62 176.187C46.22 172.861 31.02 167.187 17.381 158.955C27.513 123.005 38.02 91.6199 62.709 71.3079C73.922 62.0819 88.669 55.0489 106.542 50.4079C112.989 48.7292 119.532 47.4435 126.135 46.5579C126.165 46.5492 126.195 46.5389 126.224 46.5269C147.352 51.7849 162.446 66.6919 160.846 94.6319C158.986 127.175 121.209 147.299 126.874 187.884C109.752 189.168 91.998 189.053 75.096 183.789Z" fill="#E3DEE6" stroke="#E3DEE6" stroke-width="3.745" stroke-miterlimit="10"/>
<path d="M235.708 100.729C221.926 82.123 203.557 66.06 181.394 59.358C169.823 55.858 157.612 55.01 145.524 55.039C118.276 55.104 89.694 60.132 68.503 77.262C55.546 87.738 46.18 102.129 39.536 117.411C32.892 132.693 28.803 148.943 24.929 165.15" stroke="#E83C65" stroke-width="1.169" stroke-miterlimit="10"/>
<path d="M231.029 110.288C227.246 104.546 221.66 100.238 215.891 96.4959C190.425 79.9719 158.946 72.5958 128.934 77.1538C98.922 81.7118 70.735 98.4228 53.19 123.2C43.95 136.246 37.816 152.189 32.804 167.37" stroke="#E83C65" stroke-width="1.169" stroke-miterlimit="10"/>
<path d="M229.846 119.513C210.169 111.288 189.418 104.202 168.097 104.725C163.493 104.878 158.901 105.267 154.337 105.891C125.813 109.543 97.056 118.214 75.005 136.673C63.725 146.115 52.773 159.073 44.313 172.273" stroke="#E83C65" stroke-width="1.169" stroke-miterlimit="10"/>
<path d="M227.963 134.419L165.517 137.894C160.864 138.153 156.209 138.412 151.572 138.877C120.608 141.984 87.854 156.636 63.916 176.521" stroke="#E83C65" stroke-width="1.169" stroke-miterlimit="10"/>
<path d="M219.803 162.487C205.024 161.88 190.235 163.155 175.523 164.679C141.169 168.239 106.646 173.247 74.246 185.212" stroke="#E83C65" stroke-width="1.169" stroke-miterlimit="10"/>
<path d="M11.862 220.888C11.2482 220.492 10.7422 219.951 10.3893 219.311C10.0364 218.672 9.84766 217.955 9.84 217.225C9.83967 215.766 10.0848 214.317 10.565 212.939C15.065 197.254 19.929 180.589 24.432 164.904" stroke="#E83C65" stroke-width="1.169" stroke-miterlimit="10"/>
<path d="M46.97 222.293C47.6228 221.388 48.0908 220.363 48.347 219.278C48.6032 218.192 48.6426 217.066 48.463 215.965C48.0925 213.77 47.6024 211.597 46.995 209.455C44.614 198.774 48.995 185.408 63.472 176.902" stroke="#E83C65" stroke-width="1.169" stroke-miterlimit="10"/>
<path d="M37.175 223.856C39.193 216.495 36.791 208.69 37.104 201.065C37.473 192.094 42.131 182.522 46.142 174.489" stroke="#E83C65" stroke-width="1.169" stroke-miterlimit="10"/>
<path d="M22.878 223.152C22.678 204.724 29.478 187.023 32.694 168.878" stroke="#E83C65" stroke-width="1.169" stroke-miterlimit="10"/>
<path d="M88.56 210.834C86.467 208.874 86.188 205.698 86.139 202.834C86.064 198.434 86.339 192.776 86.705 188.394" stroke="#E83C65" stroke-width="1.169" stroke-miterlimit="10"/>
<path d="M97.514 212.073C96.3444 209.833 95.7538 207.336 95.796 204.81C95.813 203.844 95.924 202.883 96.002 201.92C96.2263 197.793 96.1956 193.657 95.91 189.534" stroke="#E83C65" stroke-width="1.169" stroke-miterlimit="10"/>
<path d="M108.255 211.968C110.02 205.631 109.047 196.647 108.355 190.105" stroke="#E83C65" stroke-width="1.169" stroke-miterlimit="10"/>
<path d="M150.522 179.5C127.702 182.588 104.798 184.93 81.809 186.527" stroke="#E83C65" stroke-width="1.169" stroke-miterlimit="10"/>
<path d="M53.834 217.632C37.4022 222.349 19.8651 221.437 4.01099 215.042" stroke="#E83C65" stroke-width="1.169" stroke-miterlimit="10"/>
<path d="M52.412 211.887C36.5982 208.165 20.2479 207.289 4.12698 209.3" stroke="#E83C65" stroke-width="1.169" stroke-miterlimit="10"/>
<path d="M50.03 203.341C35.6007 202.001 21.211 200.303 6.86099 198.247" stroke="#E83C65" stroke-width="1.169" stroke-miterlimit="10"/>
<path d="M53.446 195.374C43.4171 196.184 33.3242 195.191 23.646 192.44C19.186 191.171 14.683 189.44 11.414 186.15" stroke="#E83C65" stroke-width="1.169" stroke-miterlimit="10"/>
<path d="M58.095 188.532C42.8762 189.534 27.8248 184.871 15.839 175.439" stroke="#E83C65" stroke-width="1.169" stroke-miterlimit="10"/>
<path d="M62.329 184.417C46.3118 183.003 31.0222 177.084 18.229 167.343" stroke="#E83C65" stroke-width="1.169" stroke-miterlimit="10"/>
<path d="M118.715 206.527C112.263 207.299 105.769 208.073 99.282 207.687C92.795 207.301 86.247 205.687 80.864 202.05" stroke="#E83C65" stroke-width="1.169" stroke-miterlimit="10"/>
<path d="M118.402 197.42C105.81 200.719 92.4724 199.648 80.568 194.384" stroke="#E83C65" stroke-width="1.169" stroke-miterlimit="10"/>
<path d="M88.303 188.315C75.0549 182.713 62.1781 176.27 49.751 169.027C38.989 162.755 28.396 155.727 20.525 146.075" stroke="#E83C65" stroke-width="1.169" stroke-miterlimit="10"/>
<path d="M97.71 189.242C74.8994 174.184 54.3066 156.011 36.53 135.249C33.63 131.86 28.869 127.349 27.73 123.036" stroke="#E83C65" stroke-width="1.169" stroke-miterlimit="10"/>
<path d="M109.587 190.017C101.593 182.801 94.778 174.392 88.105 165.94C70.098 143.132 52.574 119.185 43.505 91.5779" stroke="#E83C65" stroke-width="1.169" stroke-miterlimit="10"/>
<path d="M119.619 189.515C101.2 150 81.293 111.226 59.897 73.1919" stroke="#E83C65" stroke-width="1.169" stroke-miterlimit="10"/>
<path d="M129.314 189.238C127.381 173.426 124.881 157.698 121.814 142.053C118.05 122.866 113.425 103.812 106.952 85.362C103.033 74.5162 98.5588 63.8795 93.546 53.494" stroke="#E83C65" stroke-width="1.169" stroke-miterlimit="10"/>
<path d="M145.225 187.391C147.379 166.744 149.531 145.891 147.02 125.281C145.352 111.599 141.653 98.258 137.966 84.981C134.292 71.746 130.542 58.33 123.492 46.542" stroke="#E83C65" stroke-width="1.169" stroke-miterlimit="10"/>
<path d="M164.368 171.665C173.402 139.459 173.121 105.353 163.56 73.3C162.161 68.2881 160.251 63.4333 157.86 58.812C155.229 53.6905 151.986 48.9072 148.202 44.567" stroke="#E83C65" stroke-width="1.166" stroke-miterlimit="10"/>
<path d="M177.924 48.1C188.899 63.149 192.506 82.278 194.202 100.826C196.402 124.852 195.846 149.389 189.475 172.659" stroke="#E83C65" stroke-width="1.169" stroke-miterlimit="10"/>
<path d="M20.457 161.972C13.463 177.966 8.246 192.459 4.375 209.48C3.989 211.18 3.22 214.788 4.075 216.305C5.195 218.297 7.898 219.594 10.084 220.261C20.513 223.444 31.184 224.942 41.684 223.594C46.814 222.936 50.812 222.789 53.002 219.494C54.453 217.312 53.728 215.672 52.913 213.182C52.098 210.692 50.823 208.327 50.454 205.733C49.613 199.825 53.548 194.409 57.265 189.739C59.265 187.228 61.451 184.584 64.521 183.648C67.861 182.63 71.415 183.869 74.748 184.907C94.557 191.076 115.609 190.294 136.405 188.222" stroke="#270041" stroke-width="2.338" stroke-linejoin="round"/>
<path d="M119.219 190.271C117.967 196.8 118.121 203.521 119.669 209.987C118.561 211.229 116.72 211.417 115.06 211.522C105.678 212.114 96.069 212.683 87.048 210.037C84.841 209.389 82.522 208.415 81.375 206.422C80.6666 204.918 80.3416 203.262 80.429 201.602C80.283 195.931 80.335 192.157 80.519 186.486" stroke="#270041" stroke-width="2.338" stroke-linejoin="round"/>
<path d="M56.261 177.3C42.661 172.951 28.268 166.948 16.384 159.72L16.011 159.494C25.211 126.794 35.733 91.9869 61.966 70.4039C74.696 59.9309 90.292 53.4189 106.246 49.2729C112.74 47.5828 119.33 46.2894 125.981 45.3999" stroke="#270041" stroke-width="2.338" stroke-linecap="round" stroke-linejoin="round"/>
<path d="M267.34 158.456C273.707 160.542 279.82 163.336 285.564 166.787C286.958 167.555 288.165 168.622 289.098 169.911C290.421 172.011 290.284 174.67 290.157 177.146C289.753 185.066 289.921 193.005 290.657 200.902C290.921 203.743 291.289 206.669 292.722 209.135C293.8 210.989 295.422 212.482 296.471 214.356C297.52 216.23 297.825 218.815 296.327 220.356C295.292 221.223 294.014 221.75 292.668 221.863C281.673 223.812 270.404 223.604 259.489 221.251C256.865 220.684 254.063 219.862 252.449 217.716C249.498 213.795 252.134 208.251 251.849 203.351C251.564 198.451 248.26 194.265 244.73 190.851C241.2 187.437 237.211 184.325 234.821 180.035L232.144 156.466L255.187 149.61L267.347 158.461" fill="#270041"/>
<path d="M150.714 188.471C151.006 193.871 152.014 199.161 152.441 204.655C152.888 210.451 152.438 216.281 151.107 221.939C150.775 223.317 150.982 224.771 151.687 226.001C152.392 227.231 153.541 228.145 154.898 228.555C166.02 231.891 168.063 233.255 183.575 232.983C191.286 232.846 204.09 231.137 211.33 228.483C212.704 228.128 213.896 227.276 214.677 226.091C214.976 225.687 215.171 225.217 215.246 224.72C215.321 224.223 215.272 223.716 215.105 223.242C214.363 221.395 212.846 221.258 211.424 220.147C210.002 219.036 209.736 217.03 209.589 215.234C208.802 205.57 208.41 194.912 208.34 185.082C190.094 181.961 164.919 186.988 150.714 188.471Z" fill="#48265E"/>
<path d="M248.808 102.215C248.464 102.192 248.129 102.091 247.828 101.921C247.528 101.752 247.269 101.517 247.071 101.234L246.977 101.002C235.085 76.683 212.077 58.672 186.356 50.241C166.584 43.6719 145.578 41.6747 124.922 44.4C125.863 44.586 125.304 46.3 126.216 46.526C147.346 51.781 162.446 66.688 160.846 94.632C158.946 127.819 119.693 148.088 127.256 190.316C131.735 190.008 146.429 189.125 150.711 188.471C150.711 189.371 150.662 187.58 150.711 188.471C164.911 186.988 190.091 181.961 208.337 185.079C208.337 184.35 208.324 183.615 208.322 182.896L209.098 182.845C211.185 184.287 213.918 184.271 216.452 184.15C223.711 183.801 230.944 183.025 238.112 181.827C239.791 181.635 241.426 181.161 242.949 180.427C249.279 176.952 249.549 165.227 254.803 160.244C257.346 143.491 253.222 116.868 248.808 102.215Z" fill="#9380A0"/>
<path d="M342.883 59.368C341.816 58.5128 340.558 57.9294 339.216 57.668C331.922 55.65 324.567 53.8727 317.15 52.336C312.478 51.369 307.63 50.498 302.969 51.522C300.229 52.122 297.669 53.361 294.951 54.066C291.907 54.855 288.621 54.998 285.904 56.58C284.06 57.7268 282.541 59.3284 281.494 61.231C276.003 70.614 279.242 83.637 272.627 92.265C267.755 98.619 259.134 100.479 251.255 101.905C250.206 102.206 249.1 102.251 248.029 102.038C252.443 116.691 257.343 143.49 254.806 160.238C254.849 160.197 254.887 160.148 254.931 160.108L255.506 160.06C268.894 159.065 283.253 157.69 293.513 149.033C302.168 141.733 306.313 130.54 310.101 119.87C312.955 111.835 315.81 103.801 318.665 95.77L318.81 95.47C321.934 91.518 328.692 92.797 332.81 89.899C334.099 88.9091 335.207 87.7036 336.085 86.336C340.206 80.4426 342.98 73.715 344.211 66.63C344.651 64.1 344.746 61.13 342.883 59.368Z" fill="#48265E"/>
<path d="M310.461 98.27C298.908 115.41 300.172 131.226 294.21 132.521C288.248 133.816 286.694 149.109 268.81 149.627" stroke="#36114E" stroke-width="1.754" stroke-miterlimit="10" stroke-linecap="round"/>
<path d="M208.325 182.9C199.383 180.862 161.713 174.476 151.508 177.878C150.969 182.002 150.841 186.17 151.127 190.32L176.155 190.387L207.548 188.249L208.325 182.9Z" fill="#48265E"/>
<path d="M258.915 159.845L257.015 108.029L247.454 101.659C252.508 174.488 154.298 156.798 151.505 177.874L208.322 182.896L210.828 183.817C213.132 184.66 215.576 185.052 218.028 184.969C235.66 184.38 247.386 184.902 251.553 166.447C253.329 158.576 258.915 159.845 258.915 159.845Z" fill="#48265E"/>
<path d="M156.457 54.5089C156.457 54.5089 174.599 54.0599 181.338 57.5089C188.077 60.9579 200.258 72.0699 205.312 97.7479C205.312 97.7479 190.412 105.733 181.468 108.548C181.468 108.548 168.509 106.513 167.213 105.574" stroke="#57386B" stroke-width="2.338" stroke-miterlimit="10" stroke-linecap="round"/>
<path d="M205.312 97.744L227.99 100.093L235.247 95.709" stroke="#57386B" stroke-width="2.338" stroke-miterlimit="10" stroke-linecap="round"/>
<path d="M181.468 108.547L182.245 132.392L161.122 142.759L150.885 141.463" stroke="#57386B" stroke-width="2.338" stroke-miterlimit="10" stroke-linecap="round"/>
<path d="M308.521 63.4939H315.678" stroke="#280142" stroke-width="2.338" stroke-miterlimit="10" stroke-linecap="round"/>
<path d="M315.917 66.357C317.63 66.357 319.018 64.9687 319.018 63.256C319.018 61.5434 317.63 60.155 315.917 60.155C314.204 60.155 312.816 61.5434 312.816 63.256C312.816 64.9687 314.204 66.357 315.917 66.357Z" fill="#270041"/>
<path d="M174.818 228.629C174.445 223.683 186.54 221.982 187.438 227.979C187.038 224.979 196.992 217.719 200.038 226.649C199.258 225.349 207.27 216.857 209.885 224.64" stroke="#36114E" stroke-width="1.754" stroke-linecap="round" stroke-linejoin="round"/>
<path d="M281.133 122.519C283.419 118.711 285.151 119.255 287.989 115.664C294.21 107.792 287.354 103.857 301.066 97.509" stroke="#36114E" stroke-width="1.754" stroke-miterlimit="10" stroke-linecap="round"/>
<path d="M182.245 132.392L211.941 139.342L233.27 125.44L227.99 100.093" stroke="#57386B" stroke-width="2.338" stroke-miterlimit="10" stroke-linecap="round"/>
<path d="M211.941 139.342L212.322 149.435L202.8 154.386" stroke="#57386B" stroke-width="2.338" stroke-miterlimit="10" stroke-linecap="round"/>
<path d="M161.122 142.759L162.427 156.671L152.397 166.447L143.256 168.225" stroke="#57386B" stroke-width="2.338" stroke-miterlimit="10" stroke-linecap="round"/>
</g>
<defs>
<clipPath id="clip0">
<rect width="345.705" height="281.429" fill="white" transform="translate(0.645996)"/>
</clipPath>
</defs>
</svg>
