<svg width="585" height="350" viewBox="0 0 585 350" fill="none" xmlns="http://www.w3.org/2000/svg">
<path d="M463.689 57.4748C364.062 -8.98771 285.554 112.403 233.77 88.0477C181.986 63.6927 119.915 83.3097 129.168 143.494C129.659 146.159 130.502 148.752 131.677 151.211C138.717 166.783 135.235 185.97 122.071 196.058H464.94C463.067 168.182 546.983 113.043 463.689 57.4748Z" fill="#FADEEC"/>
<path d="M464.94 196.058H122.075C120.873 196.983 119.603 197.821 118.274 198.567C89.8129 214.485 95.1631 262.159 138.661 282.885C243.894 333.029 278.132 277.357 375.139 278.74C448.951 279.79 492.169 227.957 468.349 203.602C466.305 201.565 465.095 198.886 464.94 196.058Z" fill="#C0E3E9"/>
<path d="M315.738 137C315.805 136.897 315.884 136.785 315.955 136.678C315.856 136.768 315.782 136.878 315.738 137Z" fill="#E3DEE6" stroke="#E3DEE6" stroke-width="1.32115" stroke-miterlimit="10"/>
<path d="M474.936 222.76C463.618 225.055 451.88 224.852 440.662 222.167C441.186 221.4 441.667 220.607 442.103 219.794C451.362 219.064 460.197 215.871 467.552 210.597C459.477 212.19 451.2 212.71 442.967 212.14C451.814 198.702 457.555 183.701 459.824 168.091C461.117 159.109 461.26 149.924 463.94 141.21C466.62 132.497 472.441 123.999 481.296 120.295C479.029 117.197 476.76 114.1 474.58 111.26C465.965 114.981 459.889 122.38 456.067 130.557C451.071 132.724 446.022 134.776 440.92 136.712C440.959 135.509 440.952 134.282 440.889 133.039C440.762 130.404 440.386 127.785 439.764 125.211C439.835 125.186 439.902 125.152 439.964 125.112L444.071 121.817C444.245 121.65 444.379 121.451 444.463 121.232C444.548 121.014 444.582 120.781 444.563 120.55C444.544 120.318 444.473 120.093 444.354 119.889C444.234 119.685 444.07 119.507 443.871 119.366C443.701 119.195 443.495 119.061 443.265 118.97C443.035 118.879 442.787 118.834 442.537 118.839C442.287 118.844 442.041 118.897 441.815 118.996C441.589 119.095 441.388 119.238 441.225 119.414L438.943 122.397C438.561 121.253 438.099 120.134 437.558 119.047C436.637 116.958 435.118 115.144 433.166 113.8L449.778 113.721C449.86 112.729 449.885 111.733 449.852 110.739C450.191 110.776 450.533 110.774 450.872 110.733C451.573 110.633 452.267 110.488 452.947 110.299C453.441 110.215 453.909 110.031 454.318 109.76C454.726 109.488 455.065 109.137 455.311 108.729C455.611 108.033 456.165 107.494 456.079 106.748C456.058 106.663 456.056 106.576 456.072 106.49C456.088 106.405 456.122 106.324 456.173 106.251C456.259 106.171 456.367 106.116 456.485 106.091C457.376 105.835 458.295 105.668 459.225 105.595C460.125 105.534 461.566 105.516 461.774 104.697C461.83 104.52 461.81 104.329 461.717 104.165C461.562 103.981 461.34 103.856 461.092 103.814C459.199 103.288 457.172 103.502 455.202 103.372C454.123 103.292 453.037 103.309 451.962 103.423C451.596 103.503 450.162 103.532 448.724 103.702C448.693 103.595 448.667 103.486 448.636 103.379C437.755 102.648 426.841 102.264 415.934 102.372C415.911 102.262 415.865 102.156 415.8 102.061C415.8 102.049 415.812 102.036 415.81 102.025C415.646 101.009 418.745 98.7676 418.92 98.71C420.629 98.1405 422.864 98.2603 423.903 96.877C424.563 95.753 424.751 94.4416 424.431 93.1963C424.687 93.14 424.926 93.0317 425.131 92.8792C425.336 92.7267 425.501 92.5339 425.616 92.3146C425.731 92.0952 425.792 91.855 425.795 91.6111C425.797 91.3672 425.742 91.1258 425.632 90.9044C425.346 90.412 424.795 90.0887 424.513 89.5954C424.006 88.711 424.513 87.6445 424.538 86.643C424.546 86.1779 424.459 85.7155 424.279 85.2811C424.581 85.1657 424.871 85.0261 425.147 84.864C425.869 84.4366 426.516 83.6033 426.126 82.8954C425.982 82.7202 425.877 82.5203 425.817 82.3073C425.79 81.9589 426.193 81.6421 426.075 81.3105C425.94 80.9315 425.354 80.9974 424.934 81.0782C424.197 81.2098 423.437 81.1492 422.735 80.9032C422.034 80.6572 421.42 80.2354 420.961 79.6847C421.091 79.4203 421.306 79.2001 421.577 79.0549C421.847 78.9097 422.16 78.8466 422.471 78.8746C420.591 77.7347 418.095 77.9456 415.981 78.6507C415.327 78.9059 414.648 79.1022 413.953 79.2369C412.326 79.4664 410.518 78.7947 409.087 79.5528L409.225 80.296C408.305 80.4335 407.393 80.6122 406.491 80.832C405.686 81.0281 404.729 81.4443 404.722 82.2172C405.241 82.1535 405.768 82.228 406.244 82.4318C405.035 83.6155 404.273 85.1313 404.071 86.7517C403.929 89.163 404.613 91.5541 406.025 93.5818C406.409 94.1067 406.684 94.6937 406.837 95.3126C406.867 95.5418 406.851 95.7743 406.79 95.9982L406.655 95.8811C406.619 95.8318 406.572 95.7905 406.517 95.7601C406.462 95.7298 406.4 95.7112 406.336 95.7057C406.273 95.7001 406.208 95.7079 406.148 95.7282C406.088 95.7486 406.034 95.7812 405.989 95.8235C404.917 96.4639 403.845 97.1037 402.775 97.7429C402.444 97.7532 402.114 97.7842 401.787 97.8358C400.078 98.1872 398.459 98.8445 397.02 99.7709C391.52 103.015 387.043 107.536 382.786 112.101C378.802 117.907 374.823 123.711 370.849 129.513C371.08 129.667 371.326 129.8 371.561 129.948C370.634 131.486 369.844 133.091 369.201 134.749C369.015 135.155 368.914 135.59 368.901 136.031C368.928 136.366 369.031 136.692 369.204 136.987C369.376 137.282 369.614 137.54 369.901 137.744C370.48 138.148 371.14 138.439 371.843 138.6C372.709 138.851 373.618 138.951 374.523 138.893C374.879 138.894 375.229 138.809 375.538 138.645C375.847 138.481 376.104 138.244 376.283 137.958C376.32 137.875 377.263 136.904 376.872 135.999C376.734 135.679 376.439 135.435 376.304 135.114C375.977 134.336 376.651 133.56 377.021 132.783C377.415 132.95 377.812 133.108 378.211 133.262C378.226 133.442 378.252 133.628 378.289 133.819C377.667 136.349 377.351 138.935 377.346 141.53C377.172 145.958 376.998 150.386 376.823 154.815C373.71 155.409 370.589 155.967 367.46 156.487L366.603 153.714C366.889 153.497 367.152 153.254 367.387 152.988C368.677 151.494 368.287 149.709 367.821 147.842C367.531 146.839 366.992 145.913 366.247 145.139C365.503 144.365 364.574 143.763 363.534 143.382C363.514 143.484 363.504 143.588 363.506 143.691L357.626 124.665C357.929 124.619 358.225 124.545 358.512 124.445C358.939 123.838 359.293 123.188 359.567 122.508C359.683 122.366 359.778 122.21 359.851 122.044C359.913 121.871 359.889 121.807 359.813 121.797C360.028 121.092 360.123 120.359 360.096 119.627C360.073 118.771 359.832 117.933 359.39 117.182C358.949 116.431 358.32 115.789 357.557 115.31C357.289 115.159 357.003 115.037 356.705 114.944C356.722 114.661 356.691 114.378 356.613 114.104L354.568 107.256C354.464 106.907 354.287 106.581 354.048 106.296C353.808 106.011 353.51 105.773 353.171 105.594C352.832 105.416 352.459 105.302 352.072 105.258C351.686 105.214 351.293 105.241 350.918 105.338C350.543 105.434 350.192 105.599 349.885 105.821C349.578 106.044 349.321 106.321 349.13 106.636C348.938 106.951 348.815 107.297 348.767 107.657C348.72 108.016 348.749 108.38 348.853 108.728L350.898 115.577C351.033 116.016 351.284 116.417 351.628 116.742C351.454 117.085 351.328 117.448 351.251 117.821C351.2 117.772 351.151 117.739 351.097 117.689C350.684 118.955 344.584 124.179 340.697 127.072C340.531 127.195 340.344 127.323 340.14 127.453C340.178 127.254 340.209 127.051 340.231 126.848C340.279 126.383 339.874 124.737 340.315 124.295C340.535 124.073 341.135 123.763 341.365 123.552C341.919 123.036 341.575 122.14 341.058 121.592C340.541 121.043 339.851 120.558 340.025 119.796C339.873 118.858 339.513 117.961 338.968 117.159C339.042 117.133 339.114 117.1 339.183 117.062C339.429 116.848 339.607 116.575 339.696 116.274C339.786 115.972 339.783 115.653 339.689 115.352C339.405 114.407 338.793 113.575 337.948 112.986C336.699 112.043 335.211 111.414 333.626 111.158C332.041 110.903 330.412 111.029 328.894 111.526C328.363 111.706 327.85 111.931 327.34 112.157C326.179 112.633 325.079 113.23 324.063 113.937C323.818 113.647 323.543 113.379 323.241 113.139C321.811 111.925 320.053 111.093 318.155 110.734C317.208 110.561 316.233 110.567 315.288 110.751C314.343 110.934 313.448 111.292 312.654 111.803C311.84 112.408 311.119 113.114 310.514 113.903C309.485 115.023 308.686 116.31 308.158 117.699C307.897 118.613 307.763 119.554 307.758 120.499C307.658 123.159 307.97 126.025 309.815 128.059C310.346 128.646 310.988 129.141 311.493 129.745C311.766 130.033 311.972 130.37 312.098 130.735C312.225 131.1 312.269 131.486 312.227 131.867C312.168 132.246 311.952 132.589 311.624 132.822C311.297 133.055 310.885 133.16 310.475 133.114C310.565 133.143 310.215 133.182 309.864 133.222C310.227 133.554 310.689 133.777 311.189 133.863C311.69 133.948 312.207 133.893 312.673 133.703C312.522 133.92 312.311 134.096 312.062 134.212C311.813 134.329 311.535 134.381 311.257 134.365C312.858 135.229 314.644 135.752 316.489 135.897C316.3 136.163 316.122 136.42 315.954 136.67C315.967 136.664 315.975 136.67 315.986 136.67C313.618 139.697 312.821 143.731 312.503 147.54C312.123 152.101 312.177 156.854 310.068 160.988C309.926 161.267 309.776 161.546 309.624 161.835C297.676 162.079 285.732 161.795 273.793 160.982C274.463 160.588 274.946 159.972 275.145 159.259C275.401 157.005 275.645 154.736 275.783 152.468C277.858 151.438 279.93 150.408 282.161 149.402C283.564 148.762 284.907 148.012 286.173 147.161C286.301 147.361 286.424 147.551 286.53 147.718L289.13 145.467L288.801 144.91L289.401 144.538L290.045 144.259C290.506 144.461 290.999 144.592 291.506 144.648C294.106 144.95 294.782 143.473 295.467 141.553C295.794 140.586 295.818 139.551 295.536 138.571C295.254 137.591 294.678 136.706 293.875 136.019C292.251 134.673 290.622 133.867 288.648 134.718C287.308 135.294 286.917 136.407 286.417 137.698C286.326 137.986 286.299 138.289 286.337 138.588L285.399 139.027L285.334 139.021L284.884 138.256L281.223 139.6L281.36 139.809C280.594 140.087 279.853 140.386 279.198 140.601C277.808 141.055 276.425 141.465 275.052 141.872C273.852 137.061 271.098 132.463 266.615 129.861C265.891 129.444 265.09 129.154 264.252 129.006L263.335 127.272C263.155 127.348 262.96 127.416 262.757 127.481C262.443 126.979 262.251 126.418 262.193 125.839C262.074 125.597 261.945 124.521 262.169 124.319C262.224 124.27 262.289 124.226 262.35 124.171C262.392 124.143 262.436 124.117 262.481 124.092C263.623 123.481 267.295 122.183 267.561 120.95C267.569 120.914 267.57 120.878 267.577 120.842C267.584 120.806 267.618 120.772 267.629 120.728C267.648 120.438 267.643 120.148 267.612 119.86C267.612 119.797 267.603 119.733 267.594 119.674C267.439 118.521 266.944 117.43 266.163 116.521C266.084 116.417 266.032 116.355 266.023 116.344C266.371 116.042 266.723 115.879 266.975 115.606C267.11 115.477 267.201 115.314 267.24 115.138C267.278 114.962 267.261 114.779 267.19 114.612C267.047 114.395 266.842 114.218 266.597 114.102L263.78 112.45C263.648 111.394 263.097 110.421 262.235 109.722C262.331 109.559 262.411 109.389 262.477 109.213C262.731 108.547 258.713 106.055 254.8 106.838C250.887 107.621 247.886 108.572 246.536 112.048C245.98 113.475 245.783 115.001 245.96 116.51C246.138 118.018 246.685 119.469 247.56 120.751C248.203 122.914 250.76 125.835 251.275 126.412C251.375 126.909 251.461 127.416 251.53 127.929C251.216 127.891 250.918 127.851 250.658 127.809L249.747 130.191C249.747 130.191 249.847 130.218 250.028 130.26C249.105 130.408 248.26 130.832 247.622 131.468C246.34 132.131 245.158 132.948 244.107 133.899C241.434 136.229 238.8 138.854 237.891 142.153C237.207 145.154 237.648 148.282 239.141 151.017C239.891 152.476 240.779 153.87 241.795 155.183C241.756 156.007 241.91 156.829 242.245 157.593C231.688 156.028 221.218 154.038 210.836 151.623C211.009 151.282 211.154 150.93 211.271 150.569C211.747 148.668 211.839 146.701 211.542 144.769C211.208 141.298 210.697 137.854 210.042 134.445C210.042 134.002 210.034 133.562 209.999 133.127C209.911 131.955 209.586 130.81 209.041 129.75C209.032 129.714 209.025 129.678 209.017 129.642C208.876 129.336 208.681 129.053 208.44 128.806C207.567 127.595 206.221 126.749 204.687 126.447C203.708 124.066 203.257 121.526 203.361 118.979C204.901 118.555 206.978 118.44 208.043 117.939C208.728 117.615 208.933 116.359 208.422 114.316C208.301 113.831 208.122 113.791 208.488 113.243C208.671 112.964 209.231 112.527 209.425 112.26C209.892 111.609 209.154 110.89 208.067 110.25C207.59 109.976 207.188 109.603 206.893 109.16C206.597 108.717 206.417 108.216 206.367 107.697C206.372 107.516 206.341 107.336 206.275 107.166C206.065 106.652 205.776 106.17 205.419 105.732C205.46 105.706 205.5 105.678 205.538 105.648C205.749 105.377 205.875 105.056 205.902 104.723C205.929 104.389 205.856 104.055 205.691 103.757C205.183 102.819 204.356 102.062 203.338 101.606C201.818 100.855 200.117 100.48 198.397 100.514C196.677 100.549 194.995 100.993 193.512 101.804C192.994 102.094 192.506 102.429 192.021 102.764C190.325 103.763 188.918 105.131 187.921 106.75C187.607 107.404 187.376 108.09 187.234 108.793C186.846 110.36 186.749 111.976 186.946 113.573C187.148 115.176 187.837 116.693 188.931 117.946C189.235 118.287 189.584 118.59 189.97 118.85C190.917 119.41 191.99 119.761 193.106 119.878C193.158 119.886 193.213 119.89 193.266 119.897C193.324 120.144 193.353 120.397 193.352 120.65C193.324 121.246 193.182 121.831 192.931 122.379C191.666 121.715 190.219 121.408 188.769 121.494C186.053 113.119 183.342 108.927 183.024 101.305C183.285 101.285 183.434 101.272 183.434 101.272L183.167 97.7243C182.967 97.7317 182.687 97.7308 182.376 97.7243C182.393 95.2076 182.131 92.0908 182.363 89.5211C183.389 88.2985 185.532 86.9013 185.794 85.8933C185.964 85.2142 185.969 84.5082 185.808 83.8272L230.803 68.7474C231.179 68.9826 231.608 69.1341 232.058 69.1902C232.507 69.2463 232.964 69.2054 233.394 69.0707L240.636 66.7807C241.369 66.5371 241.97 66.0353 242.308 65.3838C242.647 64.7323 242.696 63.9833 242.445 63.2985C242.194 62.6137 241.663 62.048 240.967 61.7236C240.271 61.3991 239.466 61.3419 238.725 61.5643L231.483 63.8543C231.002 64.0073 230.572 64.2726 230.234 64.6247C229.896 64.9768 229.661 65.4039 229.553 65.8647L184.151 81.0782C184.034 80.9742 183.921 80.8655 183.794 80.7707C182.188 79.5695 179.887 79.7572 177.876 80.1836C175.865 80.61 173.213 82.7012 173.523 84.5574C174.042 84.4032 174.516 84.2657 174.951 84.1607L148.874 92.9018C147.929 91.154 146.349 89.7727 144.414 89.0017C142.479 88.2306 140.312 88.1195 138.298 88.6878L92.1055 101.716C90.1239 102.276 88.4136 103.459 87.2675 105.062C86.1213 106.665 85.6108 108.588 85.8232 110.502C84.1762 115.116 81.296 123.477 81.296 125.547C81.296 126.939 81.8913 128.274 82.9509 129.259C84.0106 130.243 85.4477 130.796 86.9463 130.796C88.4448 130.796 89.882 130.243 90.9416 129.259C92.0012 128.274 92.5965 126.939 92.5965 125.547C92.5174 124.598 92.3379 123.659 92.0605 122.743C93.3687 123.655 94.9218 124.216 96.55 124.363C98.1782 124.511 99.8186 124.239 101.292 123.579L144.775 104.099C146.408 103.366 147.763 102.189 148.659 100.724C149.555 99.2586 149.95 97.5747 149.791 95.896L173.943 87.8024C174.436 90.9356 174.475 94.116 174.06 97.2589C173.125 97.192 172.505 97.1446 172.505 97.1446L172.194 101.106C172.371 101.185 172.557 101.246 172.749 101.287C172.773 107.107 174.472 115.222 178.901 130.403C180.154 134.615 180.79 138.965 180.793 143.334C173.536 141.006 166.365 138.459 159.278 135.692C158.521 133.475 157.784 131.254 157.066 129.028C151.373 127.332 145.68 125.636 139.848 123.909C143.534 138.388 148.232 152.629 153.91 166.541C153.191 166.945 152.614 167.534 152.25 168.237C151.885 168.94 151.748 169.726 151.855 170.5C152.163 172.707 157.492 178.412 157.492 178.412C157.492 178.412 157.83 177.715 158.277 176.701C158.986 178.28 159.699 179.859 160.432 181.425C160.409 181.766 160.4 181.982 160.4 181.982L160.657 181.902C162.609 186.062 164.647 190.187 166.773 194.277C161.951 193.889 157.128 193.67 152.338 193.66C151.736 191.153 151.844 188.543 152.653 186.086C155.278 178.51 149.553 175.031 144.365 176.425C141.755 177.286 139.596 179.036 138.324 181.322C135.206 178.96 130.801 179.282 127.535 181.652C123.42 184.638 121.578 191.477 123.695 196.367C123.739 196.468 123.795 196.567 123.838 196.667C115.611 198.551 107.757 201.633 100.567 205.796C115.204 207.53 129.202 212.417 141.445 220.068C134.244 220.238 127.072 219.242 120.893 215.95C121.263 218.002 123.354 219.335 125.261 220.426C134.938 225.962 145.003 231.628 156.279 232.946C156.819 233.009 157.36 233.049 157.901 233.092C158.372 233.564 158.857 234.021 159.317 234.507C137.669 229.208 114.824 229.929 93.6136 236.58C135.042 249.174 177.47 261.889 220.794 263.19C228.557 265.775 236.737 267.117 244.983 267.159C247.954 267.161 250.921 266.975 253.865 266.601C262.78 265.333 271.399 262.671 279.356 258.728C284.648 258.015 289.939 257.316 295.237 256.692C292.068 259.802 288.73 262.707 285.811 265.157C285.708 265.231 285.641 265.34 285.625 265.46C285.609 265.58 285.644 265.701 285.724 265.796C285.803 265.892 285.92 265.954 286.049 265.969C286.178 265.984 286.309 265.951 286.411 265.877C292.268 262.361 297.212 259.198 301.578 256.407L302.349 255.915C310.452 255.049 318.6 254.591 326.757 254.543C369.983 254.543 411.581 269.786 449.841 288.477C434.997 268.036 413.278 252.743 388.083 244.989C418.793 245.952 449.09 238.198 474.936 222.76ZM437.92 133.173C437.997 134.682 437.984 136.159 437.903 137.593L432.746 133.234C432.721 132.888 432.678 132.544 432.615 132.202L437.232 127.487C437.595 129.366 437.825 131.266 437.92 133.173ZM423.808 133.791C423.712 131.943 423.742 130.09 423.898 128.245L428.977 132.538C428.964 132.751 428.963 132.97 428.966 133.194L424.241 138.017C424.036 136.68 423.883 135.273 423.808 133.791ZM436.061 138.529C434.772 138.999 433.48 139.464 432.183 139.923L432.038 137.07C432.312 136.614 432.501 136.119 432.597 135.605L436.061 138.529ZM425.656 141.038L424.801 140.639L425.59 140.425C425.59 140.425 425.278 140.333 424.797 140.19L429.308 135.585C429.455 136.147 429.71 136.679 430.06 137.156L430.235 140.607C429.164 140.978 428.09 141.339 427.016 141.699C426.567 141.459 426.104 141.242 425.656 141.031V141.038ZM433.377 220.04C433.233 219.99 433.086 219.947 432.942 219.895C433.191 219.912 433.442 219.917 433.69 219.931C433.586 219.961 433.482 219.998 433.377 220.033V220.04ZM428.977 115.94L429.687 129.907C429.58 130.073 429.489 130.248 429.415 130.428L424.168 125.995C424.428 124.172 424.884 122.378 425.53 120.639C426.471 118.207 427.711 116.552 428.981 115.934L428.977 115.94ZM434.864 120.23C435.659 121.853 436.28 123.544 436.719 125.28L431.912 130.188C431.839 130.061 431.756 129.938 431.666 129.821L430.955 115.854C432.287 116.351 433.689 117.892 434.868 120.223L434.864 120.23ZM426.959 113.839C425.265 114.922 423.81 116.915 422.732 119.707C422.22 121.07 421.82 122.467 421.537 123.887L418.401 120.628C418.221 120.441 418 120.291 417.753 120.188C417.507 120.084 417.239 120.031 416.969 120.03C416.698 120.028 416.43 120.08 416.183 120.181C415.935 120.283 415.713 120.431 415.531 120.617C415.349 120.803 415.211 121.022 415.126 121.261C415.041 121.499 415.011 121.752 415.037 122.002C415.064 122.252 415.147 122.494 415.281 122.713C415.415 122.931 415.596 123.121 415.814 123.27L420.914 126.765C420.961 126.79 421.01 126.812 421.059 126.83C420.785 129.187 420.709 131.56 420.831 133.927C420.92 135.645 421.108 137.356 421.395 139.055L410.224 133.853C409.835 133.619 409.432 133.405 409.018 133.213C410.516 130.467 411.376 127.461 411.543 124.387C411.674 121.759 411.305 119.043 412.225 116.554C412.618 115.594 413.094 114.666 413.65 113.779C414.446 113.87 415.248 113.908 416.05 113.893L426.959 113.839ZM371.465 130.112L371.557 129.959C371.531 130.007 371.506 130.048 371.469 130.105L371.465 130.112ZM394.16 146.674C395.234 146.98 396.316 147.265 397.391 147.547C399.17 148.015 400.951 148.484 402.734 148.955C399.825 149.719 396.905 150.449 393.975 151.145C394.045 149.649 394.113 148.159 394.164 146.667L394.16 146.674ZM346.158 134.756C349.228 131.825 352.353 129.139 354.849 126.967L360.87 146.451C360.37 146.087 360.35 145.327 360.304 144.655C359.878 144.876 359.477 145.134 359.104 145.424C359.065 145.082 359.033 144.766 359.014 144.514L355.257 145.164L355.307 145.555C350.833 145.316 346.402 144.607 342.1 143.44C340.846 142.952 339.677 142.295 338.631 141.489C338.558 141.092 338.467 140.703 338.361 140.321C341.121 138.664 343.731 136.801 346.165 134.749L346.158 134.756ZM335.045 130.018C335.081 129.88 335.1 129.739 335.145 129.602C335.324 129.66 335.507 129.704 335.692 129.734C335.48 129.824 335.267 129.918 335.052 130.011L335.045 130.018ZM319.266 117.104C319.579 116.703 320.022 116.406 320.53 116.256C321.038 116.105 321.585 116.11 322.09 116.268C321.98 116.478 321.869 116.686 321.772 116.901C321.112 118.273 320.71 119.74 320.582 121.238C320.541 121.911 320.582 122.586 320.706 123.25C320.689 123.181 320.654 123.118 320.606 123.064C319.85 122.224 319.26 121.267 318.863 120.237C318.669 119.719 318.605 119.167 318.676 118.623C318.747 118.079 318.951 117.558 319.273 117.098L319.266 117.104ZM317.679 120.965C318.264 121.892 319.044 122.701 319.971 123.344C320.221 123.516 320.717 123.562 320.71 123.281C320.849 124.088 321.135 124.867 321.556 125.585C321.769 125.949 322.03 126.286 322.334 126.589C323.043 127.219 323.893 127.695 324.824 127.982C324.82 128.22 324.792 128.458 324.741 128.691C324.669 128.995 324.563 129.29 324.424 129.573C324.02 129.425 323.581 129.384 323.154 129.452C322.778 129.54 322.427 129.705 322.127 129.934C322.012 129.628 321.884 129.324 321.745 129.027C320.993 127.422 320.097 125.878 319.065 124.413C318.33 123.358 317.481 122.203 317.686 120.958L317.679 120.965ZM338.358 154.45C344.366 155.551 350.489 156.011 356.609 155.82L356.709 156.642L360.635 155.691C360.635 155.691 360.551 155.187 360.422 154.397C360.89 154.584 361.373 154.739 361.867 154.861C362.4 154.977 362.95 155.008 363.495 154.954L364.138 157.037C354.787 158.512 345.382 159.652 335.922 160.459C336.911 158.519 337.728 156.507 338.365 154.443L338.358 154.45Z" fill="#E3DEE6" stroke="#E3DEE6" stroke-width="1.32115" stroke-miterlimit="10"/>
<path d="M84.0302 145.391C84.0302 146.199 84.3757 146.974 84.9909 147.546C85.606 148.117 86.4404 148.438 87.3103 148.438C88.1803 148.438 89.0146 148.117 89.6297 147.546C90.2449 146.974 90.5905 146.199 90.5905 145.391C90.5905 143.708 87.3103 140.524 87.3103 140.524C87.3103 140.524 84.0302 143.707 84.0302 145.391Z" fill="#E3DEE6" stroke="#E3DEE6" stroke-width="1.32115" stroke-miterlimit="10"/>
<path d="M141.555 169.753C141.555 169.753 142.755 164.539 142.18 163.027C142.042 162.667 141.83 162.336 141.555 162.053C141.28 161.77 140.947 161.539 140.576 161.376C140.205 161.212 139.803 161.117 139.393 161.098C138.983 161.078 138.573 161.134 138.186 161.261C137.799 161.389 137.442 161.586 137.137 161.842C136.832 162.098 136.585 162.407 136.408 162.751C136.232 163.096 136.13 163.469 136.109 163.85C136.088 164.231 136.148 164.612 136.285 164.972C136.863 166.484 141.555 169.753 141.555 169.753Z" fill="#E3DEE6" stroke="#E3DEE6" stroke-width="1.32115" stroke-miterlimit="10"/>
<path d="M134.378 170.9C133.649 170.532 132.792 170.448 131.997 170.667C131.201 170.886 130.531 171.39 130.135 172.068C129.739 172.745 129.649 173.541 129.885 174.28C130.121 175.02 130.663 175.642 131.392 176.009C132.91 176.776 138.752 176.296 138.752 176.296C138.752 176.296 135.897 171.666 134.378 170.9Z" fill="#E3DEE6" stroke="#E3DEE6" stroke-width="1.32115" stroke-miterlimit="10"/>
<path d="M92.5956 125.547C92.5956 126.939 92.0003 128.274 90.9407 129.259C89.8811 130.243 88.4439 130.796 86.9454 130.796C85.4469 130.796 84.0097 130.243 82.9501 129.259C81.8905 128.274 81.2952 126.939 81.2952 125.547C81.2952 122.649 86.9444 107.404 86.9444 107.404C86.9444 107.404 92.5956 122.649 92.5956 125.547Z" fill="#80C6D3"/>
<path d="M328.77 132.518C325.521 133.684 322.92 137.078 324.089 140.125C325.054 142.64 328.131 143.934 330.997 144.134C332.456 144.235 343.283 137.5 346.164 134.751C352.604 128.601 359.321 123.51 359.848 122.052C360.098 121.364 358.97 122.4 358.742 121.704C358.496 120.956 357.942 121.171 357.252 120.725C355.169 119.38 353.061 119.651 351.095 117.697C350.682 118.963 344.582 124.187 340.695 127.08C338.074 129.033 330.298 131.969 328.77 132.518Z" fill="#028EA7"/>
<path d="M415.809 102.026C415.645 101.011 418.745 98.7693 418.919 98.7117C420.628 98.1422 422.862 98.262 423.901 96.8787C424.562 95.7551 424.751 94.4434 424.43 93.198C424.685 93.1417 424.924 93.0334 425.129 92.881C425.334 92.7285 425.5 92.5356 425.615 92.3163C425.729 92.097 425.79 91.8567 425.793 91.6128C425.796 91.3689 425.74 91.1276 425.63 90.9061C425.344 90.4137 424.793 90.0905 424.511 89.5971C424.005 88.7127 424.511 87.6462 424.536 86.6447C424.588 84.9066 423.203 83.4359 421.789 82.296C421.002 81.6158 420.103 81.0554 419.128 80.6359C418.202 80.3032 417.227 80.1009 416.237 80.0357C414.983 79.8771 413.709 79.9243 412.473 80.1751C411.06 80.5846 409.788 81.3311 408.782 82.3401C407.776 83.3491 407.073 84.5854 406.742 85.9257C406.118 88.6244 406.377 91.4347 407.484 93.996C408.036 95.4239 407.554 96.1067 406.534 97.6693C406.175 98.2202 405.246 98.8027 404.923 99.3722C404.882 99.4268 404.852 99.4884 404.836 99.5536C404.82 99.6188 404.818 99.6863 404.83 99.7522C404.87 99.8355 404.933 99.9069 405.014 99.9584C407.669 101.96 411.066 102.909 414.468 102.599C415.064 102.541 415.842 102.229 415.809 102.026Z" fill="#E1C4A1"/>
<path d="M422.666 89.7347C423.083 89.7347 423.421 89.4206 423.421 89.0333C423.421 88.6459 423.083 88.3318 422.666 88.3318C422.249 88.3318 421.911 88.6459 421.911 89.0333C421.911 89.4206 422.249 89.7347 422.666 89.7347Z" fill="#B48F6C"/>
<path d="M422.666 89.0333L421.073 89.1029" stroke="#B48F6C" stroke-width="0.23495" stroke-linecap="round" stroke-linejoin="round"/>
<path d="M422.78 95.0569C421.946 94.9751 421.179 94.5949 420.642 93.9969" stroke="#D1AD83" stroke-width="0.23495" stroke-miterlimit="10" stroke-linecap="round"/>
<path d="M420.167 97.6776L414.936 97.1379L415.962 100.274C416.659 98.68 420.167 97.6776 420.167 97.6776Z" fill="#D1AD83"/>
<path d="M446.069 104.335C447.591 103.549 451.335 103.562 451.96 103.425C453.036 103.311 454.121 103.294 455.2 103.374C457.17 103.504 459.2 103.291 461.09 103.817C461.338 103.859 461.56 103.984 461.715 104.168C461.808 104.332 461.829 104.522 461.772 104.7C461.564 105.519 460.126 105.536 459.223 105.597C458.294 105.671 457.375 105.837 456.483 106.094C456.365 106.118 456.257 106.174 456.172 106.253C456.121 106.326 456.085 106.407 456.068 106.492C456.051 106.578 456.052 106.666 456.072 106.75C456.159 107.494 455.606 108.035 455.305 108.732C455.06 109.139 454.721 109.491 454.312 109.763C453.903 110.034 453.435 110.218 452.941 110.302C452.261 110.491 451.568 110.635 450.866 110.736C450.427 110.795 449.98 110.787 449.543 110.713C448.543 110.527 448.955 110.312 447.956 110.527C447.819 110.579 447.668 110.587 447.526 110.549C447.434 110.493 447.364 110.411 447.326 110.315C446.921 109.546 446.665 108.717 446.569 107.866C446.327 106.699 446.16 105.52 446.069 104.335Z" fill="#E1C4A1"/>
<path d="M394.337 140.155C394.014 157.996 392.56 175.803 389.981 193.485C385.108 194.112 380.187 194.353 375.271 194.207L377.344 141.532C377.324 138.646 377.726 135.77 378.539 132.985C381.242 133.314 383.907 133.871 386.5 134.649C388.201 135.111 389.823 135.793 391.319 136.675C392.787 137.587 394.362 138.821 394.337 140.155Z" fill="#19254F"/>
<path d="M401.316 98.6141L405.983 95.827C406.028 95.7847 406.083 95.7522 406.143 95.7318C406.203 95.7114 406.267 95.7037 406.331 95.7092C406.395 95.7147 406.456 95.7333 406.511 95.7636C406.566 95.794 406.613 95.8353 406.649 95.8846L411.665 100.27C411.279 100.766 410.79 101.186 410.225 101.504C409.661 101.821 409.034 102.03 408.381 102.117C407.654 102.185 406.92 102.176 406.195 102.091C405.478 102.121 404.766 101.969 404.134 101.652C403.503 101.334 402.976 100.864 402.61 100.29C402.278 99.9545 402.027 99.557 401.873 99.1241C401.754 98.6819 401.885 98.1477 401.316 98.6141Z" fill="#1697AE"/>
<path d="M412.808 102.414C424.755 102.186 436.709 102.58 448.634 103.381C449.659 106.741 450.045 110.241 449.776 113.724L416.057 113.884C414.169 113.894 412.069 113.826 410.726 112.596C409.481 111.455 409.289 109.656 409.42 108.037C409.616 105.603 410.817 102.452 412.808 102.414Z" fill="#028EA7"/>
<path d="M378.589 132.628C378.509 136.764 381.406 140.555 385.072 142.904C388.739 145.252 393.11 146.416 397.394 147.541C403.594 149.17 409.8 150.8 416.183 152.62L416.26 178.239C416.726 178.173 417.192 178.107 417.667 178.058C421.97 177.431 426.332 177.221 430.682 177.431L430.966 148.724C431.109 147.253 430.859 145.772 430.238 144.412C429.312 142.781 427.428 141.858 425.654 141.031L410.23 133.845C408.221 132.781 406.041 132.023 403.773 131.6C400.389 131.143 396.998 132.189 393.587 132.404C391.087 132.563 388.572 132.272 386.062 132.293C383.539 132.191 381.039 132.785 378.878 134.001C378.8 133.627 378.729 133.251 378.589 132.628Z" fill="#303B61"/>
<path d="M403.622 139.759C405.972 137.809 407.882 135.446 409.243 132.806C410.603 130.166 411.387 127.302 411.549 124.378C411.68 121.75 411.311 119.035 412.231 116.545C412.832 114.927 413.941 113.512 414.632 111.924C415.379 110.205 415.613 108.33 415.309 106.498C415.005 104.666 414.174 102.944 412.904 101.513C411.634 100.083 409.972 98.9978 408.094 98.3717C406.216 97.7457 404.19 97.6022 402.231 97.9564C398.713 98.7416 395.629 100.704 393.571 103.469C391.544 106.217 389.938 109.214 388.801 112.373C387.665 115.529 386.223 118.584 384.493 121.499C383.21 123.475 381.612 125.303 380.724 127.459C379.836 129.615 379.812 132.29 381.484 133.998C382.805 135.111 384.432 135.86 386.184 136.162L399.312 139.587C400.248 139.889 401.236 140.031 402.227 140.006C403.213 139.925 404.222 139.438 403.622 139.759Z" fill="#1697AE"/>
<path d="M414.645 111.354C416.203 108.765 416.192 105.702 415.989 102.743C415.998 102.591 415.974 102.44 415.917 102.298C415.861 102.155 415.773 102.026 415.66 101.917C415.443 101.797 415.195 101.735 414.942 101.739C414.163 101.69 413.414 101.443 412.776 101.024C411.872 100.33 410.897 99.719 409.866 99.1994C409.325 99.008 408.586 99.0043 408.303 99.4781C408.21 99.6579 408.167 99.8566 408.178 100.056C408.255 101.222 408.584 102.362 409.145 103.407C410.093 105.726 411.287 107.951 412.709 110.049C413.034 110.599 413.549 111.03 414.171 111.273C414.275 111.362 414.818 111.258 414.645 111.354Z" fill="#1697AE"/>
<path d="M410.23 133.845C406.061 131.308 399.504 130.603 387.178 132.845C379.398 134.26 378.712 130.562 378.712 130.562C378.712 130.562 375.465 136.301 385.171 140.126C394.878 143.951 407.788 143.368 407.788 143.368L410.973 137.869L410.23 133.845Z" fill="#303B61"/>
<path d="M405.569 130.145C399.244 129.085 392.747 129.304 386.52 130.786C381.677 132.106 379.761 128.928 379.761 128.928" stroke="#62B9C8" stroke-width="0.185914" stroke-miterlimit="10"/>
<path d="M334.985 135.764C334.484 133.728 334.54 131.607 335.147 129.596C336.475 129.93 337.887 129.819 339.135 129.282C339.794 129.016 340.118 127.924 340.23 126.857C340.278 126.392 339.873 124.746 340.314 124.304C340.534 124.082 341.134 123.772 341.363 123.561C341.918 123.045 341.574 122.149 341.057 121.601C340.54 121.053 339.85 120.567 340.024 119.805C339.867 118.796 339.471 117.832 338.863 116.983C338.255 116.135 337.45 115.423 336.509 114.9C335.567 114.377 334.511 114.055 333.419 113.959C332.327 113.863 331.225 113.995 330.194 114.344C328.443 115.008 326.924 116.11 325.806 117.528C324.387 119.026 323.624 120.964 323.668 122.96C323.849 124.911 325.174 126.774 324.747 128.69C324.304 130.68 322.038 132.24 322.347 134.252C322.583 135.798 324.247 136.767 325.814 137.337C327.215 137.836 328.658 138.225 330.129 138.501C330.962 138.7 331.826 138.769 332.683 138.706C333.112 138.671 333.528 138.552 333.903 138.356C334.278 138.16 334.604 137.892 334.859 137.569C335.328 136.901 335.315 135.915 334.985 135.764Z" fill="#E1C4A1"/>
<path d="M329.798 121.87C330.037 121.596 330.234 120.749 330.611 120.783C330.988 120.818 331.338 121.028 331.718 121.084C332.208 121.159 333.027 121.319 333.33 120.954C333.461 120.824 333.544 120.659 333.567 120.482C333.59 120.306 333.551 120.127 333.457 119.972C333.168 119.156 332.133 118.532 332.317 117.69C332.423 117.4 332.63 117.152 332.905 116.985C333.18 116.818 333.508 116.742 333.835 116.769C334.486 116.839 335.124 116.984 335.735 117.203C336.512 117.405 337.324 117.468 338.126 117.389C338.5 117.372 338.862 117.261 339.173 117.069C339.42 116.855 339.597 116.583 339.687 116.281C339.776 115.979 339.774 115.66 339.68 115.36C339.396 114.414 338.783 113.582 337.937 112.993C336.689 112.051 335.201 111.422 333.616 111.166C332.031 110.91 330.402 111.037 328.885 111.533C328.353 111.713 327.841 111.938 327.331 112.165C325.581 112.798 324.024 113.818 322.796 115.138C322.381 115.687 322.036 116.279 321.769 116.903C321.11 118.275 320.708 119.741 320.58 121.239C320.454 122.744 320.792 124.251 321.554 125.583C321.767 125.947 322.028 126.284 322.332 126.587C323.093 127.259 324.009 127.76 325.01 128.054C325.876 128.401 326.821 128.546 327.762 128.474C328.244 128.394 328.714 128.263 329.162 128.081C329.805 127.86 330.419 127.574 330.994 127.228C331.16 127.133 331.302 127.007 331.409 126.856C331.509 126.611 331.512 126.342 331.42 126.095C331.327 125.847 331.143 125.638 330.901 125.504C330.411 125.249 329.937 124.967 329.482 124.66C329.274 124.472 329.114 124.243 329.015 123.989C328.916 123.736 328.88 123.465 328.91 123.196C328.94 122.928 329.035 122.67 329.188 122.441C329.341 122.211 329.548 122.017 329.793 121.873L329.798 121.87Z" fill="#F49727"/>
<path d="M336.762 120.372L338.251 120.172" stroke="#B48F6C" stroke-width="0.189795" stroke-miterlimit="10" stroke-linecap="round"/>
<path d="M338.389 120.644C338.674 120.644 338.904 120.43 338.904 120.165C338.904 119.901 338.674 119.687 338.389 119.687C338.105 119.687 337.874 119.901 337.874 120.165C337.874 120.43 338.105 120.644 338.389 120.644Z" fill="#B48F6C"/>
<path d="M335.93 119.162C336.292 118.863 336.716 118.636 337.175 118.496C337.635 118.355 338.121 118.305 338.603 118.346" stroke="#D1AD83" stroke-width="0.189795" stroke-miterlimit="10" stroke-linecap="round"/>
<path d="M338.898 125.853C338.162 125.771 337.449 125.566 336.791 125.247" stroke="#D1AD83" stroke-width="0.189795" stroke-miterlimit="10" stroke-linecap="round"/>
<path d="M339.447 123.78C339.524 123.589 340.339 123.729 340.464 123.53" stroke="#D1AD83" stroke-width="0.0998362" stroke-miterlimit="10" stroke-linecap="round"/>
<path d="M333.751 128.88C332.874 128.606 332.026 128.259 331.217 127.841L333.349 131.116C333.43 130.363 333.564 129.616 333.751 128.88Z" fill="#D1AD83"/>
<path d="M331.051 120.883C330.843 120.781 330.608 120.736 330.373 120.752C330.138 120.769 329.913 120.846 329.723 120.976C329.179 121.277 328.784 121.764 328.623 122.333C328.537 122.624 328.524 122.93 328.585 123.226C328.646 123.523 328.78 123.802 328.975 124.044C329.28 124.393 329.703 124.637 330.175 124.738C330.613 124.802 331.061 124.737 331.457 124.552" fill="#E1C4A1"/>
<path d="M331.051 120.883C330.843 120.781 330.608 120.736 330.373 120.752C330.138 120.769 329.913 120.846 329.723 120.976C329.179 121.277 328.784 121.764 328.623 122.333C328.537 122.624 328.524 122.93 328.585 123.226C328.646 123.523 328.78 123.802 328.975 124.044C329.28 124.393 329.703 124.637 330.175 124.738C330.613 124.802 331.061 124.737 331.457 124.552" stroke="#D1AD83" stroke-width="0.189795" stroke-miterlimit="10" stroke-linecap="round"/>
<path d="M331.539 123.132C331.445 123.114 331.356 123.076 331.281 123.019C331.205 122.963 331.146 122.891 331.107 122.809C331.069 122.726 331.052 122.635 331.058 122.544C331.064 122.453 331.092 122.365 331.141 122.286C331.011 122.145 330.836 122.046 330.641 122.003C330.543 121.982 330.442 121.981 330.343 121.999C330.245 122.016 330.151 122.052 330.068 122.105C329.935 122.201 329.843 122.338 329.809 122.491C329.774 122.644 329.801 122.804 329.882 122.941" stroke="#D1AD83" stroke-width="0.0948973" stroke-miterlimit="10" stroke-linecap="round"/>
<path d="M204.793 126.708C203.734 124.253 203.244 121.618 203.355 118.975C204.895 118.551 206.972 118.437 208.037 117.935C208.722 117.612 208.927 116.356 208.416 114.312C208.295 113.828 208.116 113.788 208.482 113.24C208.665 112.961 209.225 112.524 209.419 112.257C209.886 111.606 209.149 110.887 208.06 110.247C207.583 109.973 207.182 109.6 206.887 109.157C206.591 108.714 206.411 108.213 206.36 107.694C206.366 107.513 206.335 107.333 206.268 107.163C205.458 105.258 204.351 104.581 202.245 103.877C201.139 103.516 199.962 103.385 198.795 103.492C197.629 103.6 196.502 103.945 195.495 104.501C193.804 105.533 192.454 106.98 191.595 108.682C190.438 110.527 190.067 112.707 190.555 114.793C191.176 116.803 193.369 118.558 193.346 120.646C193.317 123.122 190.295 125.414 192.164 127.751C192.759 128.464 193.6 128.967 194.546 129.175C196.586 129.634 198.677 129.866 200.776 129.866C201.695 129.914 202.616 129.82 203.502 129.588C203.945 129.469 204.355 129.265 204.706 128.987C205.056 128.71 205.339 128.366 205.535 127.979C205.593 127.851 205.619 127.713 205.611 127.574C205.604 127.436 205.563 127.301 205.492 127.179C205.42 127.057 205.321 126.951 205.2 126.869C205.079 126.788 204.94 126.733 204.793 126.708Z" fill="#E1C4A1"/>
<path d="M196.758 112.476C196.948 112.143 196.968 111.215 197.371 111.175C197.774 111.135 198.188 111.292 198.6 111.28C199.131 111.265 200.025 111.28 200.263 110.835C200.372 110.674 200.422 110.485 200.407 110.295C200.392 110.106 200.312 109.926 200.179 109.781C199.694 108.978 198.47 108.522 198.479 107.602C198.525 107.279 198.687 106.979 198.939 106.751C199.191 106.523 199.517 106.381 199.867 106.346C200.567 106.294 201.271 106.326 201.962 106.439C202.823 106.503 203.688 106.414 204.513 106.177C204.902 106.089 205.257 105.903 205.541 105.641C205.753 105.37 205.879 105.05 205.906 104.716C205.933 104.382 205.859 104.048 205.693 103.751C205.186 102.812 204.36 102.056 203.342 101.599C201.823 100.849 200.121 100.473 198.401 100.508C196.681 100.542 194.999 100.986 193.516 101.797C192.998 102.088 192.51 102.422 192.025 102.758C190.329 103.756 188.922 105.124 187.924 106.743C187.611 107.397 187.38 108.083 187.237 108.787C186.85 110.353 186.753 111.97 186.949 113.567C187.152 115.17 187.84 116.686 188.935 117.94C189.239 118.28 189.588 118.584 189.974 118.844C190.921 119.403 191.993 119.755 193.109 119.871C194.095 120.071 195.119 120.041 196.091 119.786C196.58 119.611 197.044 119.382 197.475 119.105C198.1 118.751 198.682 118.334 199.209 117.861C199.362 117.73 199.483 117.569 199.562 117.391C199.762 116.862 199.272 116.311 198.73 116.069C198.159 115.893 197.599 115.688 197.053 115.454C196.793 115.296 196.576 115.086 196.416 114.839C196.257 114.592 196.159 114.315 196.131 114.028C196.103 113.741 196.145 113.452 196.255 113.183C196.364 112.913 196.537 112.67 196.762 112.471L196.758 112.476Z" fill="#391D0C"/>
<path d="M203.731 109.572C204.227 109.193 204.845 108.98 205.487 108.966" stroke="#B48F6C" stroke-width="0.202847" stroke-miterlimit="10" stroke-linecap="round"/>
<path d="M202.593 108.462C202.906 108.078 203.301 107.759 203.753 107.524C204.204 107.289 204.704 107.143 205.219 107.095" stroke="#D1AD83" stroke-width="0.202847" stroke-miterlimit="10" stroke-linecap="round"/>
<path d="M207.193 114.919C206.403 114.974 205.608 114.895 204.848 114.686C204.848 114.686 204.262 115.505 206.386 116.278" stroke="#D1AD83" stroke-width="0.202847" stroke-miterlimit="10" stroke-linecap="round"/>
<path d="M207.505 112.884C207.543 112.668 208.43 112.66 208.517 112.428" stroke="#D1AD83" stroke-width="0.106539" stroke-miterlimit="10" stroke-linecap="round"/>
<path d="M202.456 119.077C201.475 118.959 200.507 118.756 199.566 118.472L202.53 121.502C202.447 120.696 202.423 119.886 202.456 119.077Z" fill="#D1AD83"/>
<path d="M197.851 111.203C197.609 111.136 197.353 111.133 197.11 111.195C196.867 111.257 196.647 111.381 196.477 111.554C195.972 111.973 195.664 112.56 195.622 113.188C195.596 113.51 195.651 113.833 195.78 114.133C195.91 114.432 196.111 114.7 196.37 114.917C196.768 115.224 197.266 115.4 197.784 115.416C198.256 115.398 198.711 115.243 199.084 114.973" fill="#E1C4A1"/>
<path d="M197.851 111.203C197.609 111.136 197.353 111.133 197.11 111.195C196.867 111.257 196.647 111.381 196.477 111.554C195.972 111.973 195.664 112.56 195.622 113.188C195.596 113.51 195.651 113.833 195.78 114.133C195.91 114.432 196.111 114.7 196.37 114.917C196.768 115.224 197.266 115.4 197.784 115.416C198.256 115.398 198.711 115.243 199.084 114.973" stroke="#D1AD83" stroke-width="0.202847" stroke-miterlimit="10" stroke-linecap="round"/>
<path d="M198.861 113.468C198.758 113.468 198.656 113.444 198.565 113.4C198.474 113.355 198.395 113.291 198.336 113.213C198.277 113.132 198.239 113.04 198.225 112.943C198.211 112.846 198.222 112.748 198.256 112.655C198.086 112.532 197.879 112.461 197.664 112.454C197.557 112.451 197.45 112.469 197.35 112.506C197.251 112.544 197.161 112.6 197.086 112.671C196.966 112.797 196.899 112.959 196.897 113.127C196.896 113.295 196.959 113.458 197.076 113.586" stroke="#D1AD83" stroke-width="0.1016" stroke-miterlimit="10" stroke-linecap="round"/>
<path d="M371.467 130.105L372.104 129.052C370.936 130.859 369.962 132.768 369.196 134.751C369.01 135.157 368.908 135.592 368.896 136.033C368.923 136.368 369.026 136.694 369.198 136.989C369.371 137.284 369.608 137.542 369.896 137.746C370.474 138.15 371.135 138.441 371.838 138.602C372.704 138.853 373.613 138.952 374.518 138.894C374.874 138.896 375.224 138.811 375.533 138.646C375.841 138.482 376.098 138.246 376.277 137.96C376.315 137.877 377.258 136.906 376.867 136C376.729 135.681 376.434 135.437 376.299 135.116C375.955 134.296 376.725 133.478 377.076 132.662C377.177 132.481 377.224 132.278 377.212 132.074C377.199 131.87 377.127 131.674 377.004 131.505C376.896 131.404 376.772 131.319 376.636 131.254L372.062 128.768C372.056 128.875 372.282 128.878 371.467 130.105Z" fill="#E1C4A1"/>
<path d="M397.824 116.581C401.924 114.552 405.228 111.369 407.261 107.489C408.042 106.116 408.486 104.599 408.561 103.047C408.593 102.272 408.445 101.5 408.127 100.783C407.81 100.065 407.33 99.4196 406.721 98.8892C406.031 98.3901 405.231 98.0373 404.378 97.8556C403.525 97.674 402.64 97.6678 401.784 97.8375C400.075 98.1892 398.456 98.8464 397.018 99.7727C391.518 103.017 387.04 107.537 382.783 112.103C378.8 117.909 374.821 123.713 370.847 129.515C373.631 131.337 376.664 132.805 379.866 133.881C379.91 133.882 379.953 133.885 379.996 133.89C383.553 128.064 387.91 122.693 392.958 117.911C394.801 117.308 396.778 117.096 397.824 116.581Z" fill="#44ABBE"/>
<path d="M412.137 93.4824C411.812 94.6829 410.993 95.7171 409.856 96.3625C408.719 97.0078 407.354 97.2129 406.056 96.9336C406.351 96.773 406.585 96.5305 406.724 96.2402C406.863 95.9499 406.9 95.6265 406.831 95.3153C406.679 94.6964 406.404 94.1094 406.019 93.5846C404.607 91.5569 403.923 89.1658 404.065 86.7544C404.267 85.134 405.03 83.6182 406.238 82.4345C405.763 82.2307 405.235 82.1563 404.716 82.2199C404.723 81.447 405.68 81.0308 406.485 80.8348C407.387 80.6149 408.299 80.4362 409.219 80.2987L409.082 79.5555C410.512 78.7975 412.319 79.4691 413.947 79.2397C414.642 79.105 415.321 78.9087 415.976 78.6535C418.09 77.953 420.587 77.7374 422.466 78.8773C422.155 78.8493 421.842 78.9124 421.571 79.0576C421.3 79.2029 421.085 79.4231 420.956 79.6874C421.414 80.2381 422.028 80.6598 422.729 80.9058C423.43 81.1518 424.191 81.2124 424.927 81.081C425.348 81.0001 425.934 80.9342 426.069 81.3132C426.187 81.6449 425.783 81.9635 425.811 82.31C425.872 82.5229 425.977 82.7227 426.12 82.8981C426.51 83.606 425.863 84.4393 425.141 84.8667C422.919 86.1822 419.914 85.7307 417.596 86.8966C417.121 87.107 416.725 87.4436 416.458 87.8637C416.258 88.293 416.162 88.7573 416.174 89.2247L416.053 91.6503C415.646 91.7511 415.224 91.7931 414.804 91.7748C414.723 91.1522 414.515 90.5498 414.19 90.0004C414.022 89.7286 413.775 89.5062 413.478 89.3583C413.18 89.2105 412.844 89.1433 412.507 89.1643C412.143 89.2528 411.815 89.4379 411.562 89.6969C411.31 89.9559 411.144 90.2776 411.084 90.6229C410.943 91.143 410.968 91.69 411.155 92.1976C411.342 92.7051 411.683 93.1514 412.137 93.4824Z" fill="#19254F"/>
<path d="M412.782 89.1857C412.537 89.0959 412.27 89.0721 412.011 89.1171C411.752 89.1621 411.512 89.2741 411.318 89.4403C410.752 89.8357 410.377 90.4226 410.274 91.0735C410.219 91.4064 410.245 91.7468 410.353 92.0687C410.46 92.3907 410.644 92.6857 410.892 92.9315C411.279 93.2843 411.78 93.5076 412.318 93.566C412.814 93.5861 413.303 93.4613 413.719 93.2093" fill="#E1C4A1"/>
<path d="M412.782 89.1857C412.537 89.0959 412.27 89.0721 412.011 89.1171C411.752 89.1621 411.512 89.2741 411.318 89.4403C410.752 89.8357 410.377 90.4226 410.274 91.0735C410.219 91.4064 410.245 91.7468 410.353 92.0687C410.46 92.3907 410.644 92.6857 410.892 92.9315C411.279 93.2843 411.78 93.5076 412.318 93.566C412.814 93.5861 413.303 93.4613 413.719 93.2093" stroke="#D1AD83" stroke-width="0.259997" stroke-miterlimit="10" stroke-linecap="round"/>
<path d="M413.622 91.6328C413.515 91.6241 413.412 91.5915 413.321 91.5378C413.23 91.4841 413.154 91.4109 413.1 91.3244C413.047 91.2358 413.016 91.1368 413.01 91.0352C413.005 90.9337 413.025 90.8323 413.068 90.7391C412.903 90.5964 412.693 90.5063 412.468 90.4818C412.357 90.4704 412.244 90.4805 412.137 90.5113C412.03 90.5422 411.93 90.5931 411.845 90.6611C411.709 90.7826 411.624 90.9456 411.605 91.1204C411.587 91.2953 411.637 91.4705 411.745 91.6142" stroke="#D1AD83" stroke-width="0.129822" stroke-miterlimit="10" stroke-linecap="round"/>
<path d="M265.839 145.15C270.148 143.107 274.639 142.102 279.198 140.609C280.917 140.047 283.222 138.912 285.042 139.002C285.868 138.983 286.682 139.189 287.382 139.596C288.082 140.003 288.638 140.593 288.98 141.291C289.366 142.132 289.436 143.068 289.181 143.95C288.926 144.832 288.36 145.609 287.573 146.157C285.918 147.443 284.101 148.537 282.161 149.415C277.777 151.383 274.007 153.463 269.623 155.432C269.034 155.745 268.381 155.94 267.707 156.003C267.114 155.978 266.541 155.803 266.048 155.498C265.554 155.193 265.16 154.768 264.906 154.271C264.415 153.268 264.143 152.186 264.106 151.085C263.916 149.867 263.973 148.627 264.274 147.428C264.557 146.548 265.099 145.759 265.839 145.15Z" fill="#028EA7"/>
<path d="M286.531 147.73C285.05 145.414 281.223 139.608 281.223 139.608L284.884 138.264L289.132 145.479L286.531 147.73Z" fill="#49AEC0"/>
<path d="M287.595 138.008L285.348 139.059L288.777 144.817L291.236 143.755L287.595 138.008Z" fill="#71472A"/>
<path d="M422.623 126.602C422.41 126.819 422.119 126.955 421.805 126.984C421.491 127.013 421.177 126.933 420.923 126.759L415.823 123.265C415.605 123.115 415.423 122.925 415.29 122.707C415.156 122.489 415.073 122.246 415.046 121.996C415.02 121.746 415.05 121.494 415.135 121.255C415.22 121.017 415.358 120.797 415.54 120.611C415.722 120.425 415.944 120.277 416.191 120.176C416.439 120.074 416.707 120.023 416.977 120.024C417.248 120.025 417.515 120.079 417.762 120.182C418.009 120.285 418.229 120.435 418.41 120.622L422.636 125.014C422.846 125.233 422.96 125.517 422.958 125.81C422.955 126.104 422.836 126.386 422.623 126.602Z" fill="#3D1954"/>
<path d="M431.839 152.687C436.556 152.481 439.943 143.714 439.404 133.107C438.865 122.5 434.604 114.07 429.887 114.277C425.17 114.484 421.783 123.25 422.322 133.857C422.861 144.464 427.122 152.894 431.839 152.687Z" stroke="#45245C" stroke-width="1.04846" stroke-miterlimit="10"/>
<path d="M430.726 130.788L429.881 114.177" stroke="#45245C" stroke-width="0.698853" stroke-miterlimit="10"/>
<path d="M429.888 114.305C429.573 114.319 429.263 114.224 429.018 114.038C428.774 113.852 428.612 113.588 428.565 113.298L427.616 107.474C427.576 107.226 427.592 106.972 427.663 106.73C427.735 106.487 427.861 106.262 428.032 106.067C428.204 105.873 428.418 105.714 428.659 105.601C428.901 105.488 429.166 105.424 429.436 105.412C429.706 105.4 429.976 105.441 430.228 105.532C430.48 105.623 430.709 105.763 430.899 105.941C431.09 106.12 431.238 106.333 431.334 106.568C431.43 106.803 431.471 107.054 431.456 107.305L431.102 113.187C431.084 113.48 430.951 113.756 430.726 113.963C430.502 114.169 430.204 114.291 429.888 114.305Z" fill="#593B6D"/>
<path d="M437.873 138.485C438.086 138.269 438.377 138.133 438.691 138.104C439.005 138.076 439.319 138.156 439.574 138.329L444.674 141.824C444.892 141.973 445.073 142.163 445.207 142.382C445.341 142.6 445.423 142.843 445.45 143.093C445.477 143.343 445.446 143.595 445.361 143.834C445.276 144.072 445.138 144.292 444.956 144.478C444.774 144.663 444.552 144.812 444.304 144.913C444.057 145.014 443.789 145.066 443.518 145.065C443.248 145.063 442.981 145.01 442.734 144.906C442.487 144.803 442.267 144.653 442.087 144.465L437.859 140.075C437.65 139.855 437.535 139.571 437.538 139.278C437.54 138.984 437.66 138.702 437.873 138.485Z" fill="#F49727"/>
<path d="M430.936 134.935L431.781 151.547" stroke="#45245C" stroke-width="0.698853" stroke-miterlimit="10"/>
<path d="M424.57 154.939C424.87 154.926 425.164 155.016 425.397 155.193C425.629 155.37 425.782 155.62 425.827 155.896L426.727 161.431C426.765 161.667 426.75 161.908 426.682 162.139C426.614 162.369 426.495 162.584 426.332 162.768C426.169 162.953 425.966 163.104 425.736 163.211C425.506 163.319 425.255 163.38 424.998 163.391C424.741 163.403 424.485 163.364 424.245 163.277C424.005 163.19 423.788 163.058 423.607 162.888C423.426 162.719 423.285 162.516 423.194 162.292C423.103 162.069 423.063 161.83 423.078 161.592L423.414 156.002C423.431 155.723 423.558 155.46 423.772 155.264C423.985 155.068 424.27 154.952 424.57 154.939Z" fill="#F49727"/>
<path d="M430.575 132.645L421.948 125.353" stroke="#45245C" stroke-width="0.698853" stroke-miterlimit="10"/>
<path d="M431.18 133.157L439.493 140.182" stroke="#45245C" stroke-width="0.698853" stroke-miterlimit="10"/>
<path d="M430.588 132.902L422.739 140.917" stroke="#45245C" stroke-width="0.698853" stroke-miterlimit="10"/>
<path d="M431.139 132.339L438.7 124.618" stroke="#45245C" stroke-width="0.698853" stroke-miterlimit="10"/>
<path d="M431.08 137.748C432.127 137.702 432.88 135.755 432.76 133.399C432.64 131.043 431.694 129.17 430.646 129.216C429.598 129.262 428.846 131.209 428.966 133.565C429.086 135.921 430.032 137.794 431.08 137.748Z" fill="#381450"/>
<path d="M209.014 129.642C210.209 134.628 211.054 139.681 211.542 144.768C211.839 146.701 211.747 148.668 211.271 150.569C211.028 151.519 210.536 152.398 209.838 153.127C209.14 153.857 208.258 154.414 207.271 154.75C205.109 155.295 202.904 154.104 201.671 152.397C200.543 150.573 199.809 148.562 199.51 146.477L196.256 131.412C196.054 130.716 196.005 129.989 196.113 129.275C196.291 128.666 196.636 128.109 197.113 127.659C197.591 127.209 198.185 126.881 198.839 126.707C200.098 126.406 201.412 126.352 202.695 126.548C204.129 126.606 205.536 126.932 206.831 127.506C207.769 128.003 208.529 128.746 209.014 129.642Z" fill="#028EA7"/>
<path d="M101.289 123.582L144.771 104.103C146.797 103.195 148.381 101.611 149.204 99.6655C150.028 97.7206 150.031 95.5585 149.213 93.6115C148.395 91.6643 146.816 90.0756 144.792 89.1627C142.768 88.2499 140.448 88.0803 138.295 88.6877L92.1036 101.716C90.9248 102.048 89.8327 102.603 88.8959 103.347C87.9592 104.09 87.198 105.005 86.6602 106.034C86.1224 107.064 85.8197 108.185 85.771 109.329C85.7223 110.472 85.9288 111.613 86.3773 112.679L89.0864 119.129C89.5345 120.194 90.2148 121.161 91.0844 121.971C91.9541 122.78 92.9945 123.414 94.1403 123.832C95.2861 124.25 96.5125 124.444 97.7427 124.401C98.9729 124.358 100.18 124.079 101.289 123.582Z" fill="#917D9E"/>
<path d="M183.211 86.1681C181.411 89.3741 182.85 96.7189 182.189 100.28C180.304 100.094 177.316 99.8422 175.43 99.6518C175.053 99.6478 174.685 99.5387 174.375 99.3387C174.188 99.1192 174.058 98.8624 173.995 98.5883C173.933 98.3142 173.94 98.0305 174.016 97.7594C174.905 88.6811 173.529 87.9342 173.816 85.5661C173.888 84.978 175.174 84.1466 175.632 83.736C176.301 83.1377 177.383 83.3067 178.284 83.5158C180.357 83.9998 180.711 85.9405 183.211 86.1681Z" fill="#E1C4A1"/>
<path d="M240.658 63.7949L130.096 100.845" stroke="#684C7A" stroke-width="1.17898" stroke-miterlimit="10"/>
<path d="M333.147 166.408C335.322 161.005 339.148 155.632 339.008 149.861C338.868 144.089 339.634 138.57 334.718 135.045C329.803 131.519 322.154 131.118 317.574 135.013C313.941 138.102 312.883 142.988 312.503 147.549C312.123 152.111 312.178 156.863 310.068 160.998C309.195 162.708 307.941 164.621 308.782 166.345C309.482 167.779 311.322 168.343 312.97 168.716C318.058 169.866 323.235 170.643 328.453 171.038C330.716 171.351 333.026 171.16 335.193 170.481C337.298 169.665 333.904 166.996 333.147 166.408Z" fill="#49AEC0"/>
<path d="M315.737 137C317.343 134.481 319.353 132.204 321.698 130.248C322.107 129.874 322.609 129.599 323.159 129.446C324.015 129.393 324.866 129.607 325.577 130.053C328.578 131.449 331.897 132.152 335.252 132.103C334.652 133.903 336.252 136.027 335.219 137.646C334.859 138.073 334.407 138.426 333.892 138.682C333.377 138.938 332.81 139.091 332.227 139.132C326.975 140.043 321.548 139.427 316.687 137.367C316.107 137.119 316.699 138.012 316.371 137.504C316.043 136.995 316.125 136.218 315.737 137Z" fill="#49AEC0"/>
<path d="M263.325 128.423C262.732 127.66 262.344 126.777 262.192 125.847C262.074 125.606 261.946 124.529 262.168 124.327C262.39 124.108 262.656 123.93 262.95 123.803C263.952 123.438 264.914 122.986 265.825 122.453C266.638 121.961 267.413 121.617 267.63 120.736C267.722 119.136 267.146 117.565 266.02 116.351C266.369 116.046 266.72 115.879 266.976 115.608C267.11 115.478 267.202 115.316 267.24 115.14C267.278 114.964 267.26 114.781 267.19 114.614C267.046 114.397 266.841 114.22 266.598 114.104L263.782 112.452C263.712 111.845 263.502 111.26 263.168 110.735C262.834 110.21 262.382 109.758 261.843 109.409C260.333 108.272 258.49 107.58 256.553 107.423C254.616 107.266 252.673 107.652 250.973 108.53C244.56 111.484 248.143 118.344 248.143 118.344C248.399 119.233 248.786 120.086 249.292 120.877C250.709 123.53 251.53 126.423 251.705 129.379C251.347 130.116 251.265 130.942 251.471 131.726C251.678 132.511 252.161 133.209 252.844 133.709C254.248 134.677 255.958 135.186 257.706 135.156C259.133 135.261 260.565 135.03 261.869 134.484C262.517 134.205 263.079 133.779 263.505 133.246C263.93 132.713 264.205 132.09 264.306 131.433C264.417 130.247 264.798 130.425 264.013 129.483" fill="#805430"/>
<path d="M253.857 116.279C254.272 117.643 258.464 123.03 251.374 126.524C251.374 126.524 245.143 119.78 248.29 118.554L253.316 115.198L253.857 116.279Z" fill="#391D0C"/>
<path d="M261.279 114.021C261.578 113.764 261.908 113.539 262.262 113.352L261.279 114.021Z" fill="#805430"/>
<path d="M261.279 114.021C261.578 113.764 261.908 113.539 262.262 113.352" stroke="#61391F" stroke-width="0.233539" stroke-miterlimit="10" stroke-linecap="round"/>
<path d="M265.939 115.582C265.65 115.6 265.625 116.091 265.182 116.233L265.939 115.582Z" fill="#805430"/>
<path d="M265.939 115.582C265.65 115.6 265.625 116.091 265.182 116.233" stroke="#61391F" stroke-width="0.0977195" stroke-miterlimit="10" stroke-linecap="round"/>
<path d="M255.022 116.856C254.775 116.759 254.503 116.731 254.239 116.778C253.976 116.824 253.733 116.942 253.541 117.116C253.352 117.297 253.206 117.513 253.113 117.75C253.02 117.986 252.982 118.239 253.001 118.49C253.03 118.92 253.192 119.332 253.468 119.677C253.745 120.023 254.123 120.286 254.557 120.436C254.994 120.565 255.463 120.574 255.905 120.459C256.348 120.345 256.745 120.114 257.047 119.793" fill="#805430"/>
<path d="M255.022 116.856C254.775 116.759 254.503 116.731 254.239 116.778C253.976 116.824 253.733 116.942 253.541 117.116C253.352 117.297 253.206 117.513 253.113 117.75C253.02 117.986 252.982 118.239 253.001 118.49C253.03 118.92 253.192 119.332 253.468 119.677C253.745 120.023 254.123 120.286 254.557 120.436C254.994 120.565 255.463 120.574 255.905 120.459C256.348 120.345 256.745 120.114 257.047 119.793" stroke="#61391F" stroke-width="0.174978" stroke-miterlimit="10" stroke-linecap="round"/>
<path d="M256.365 118.673C256.244 118.693 256.12 118.685 256.003 118.65C255.886 118.615 255.779 118.555 255.692 118.475C255.605 118.391 255.54 118.291 255.502 118.18C255.464 118.069 255.454 117.952 255.473 117.837C255.246 117.724 254.987 117.682 254.732 117.715C254.605 117.732 254.484 117.774 254.376 117.837C254.267 117.9 254.174 117.984 254.101 118.082C253.989 118.253 253.946 118.456 253.982 118.654C254.018 118.853 254.129 119.032 254.295 119.16" fill="#805430"/>
<path d="M256.365 118.673C256.244 118.693 256.12 118.685 256.003 118.65C255.886 118.615 255.779 118.555 255.692 118.475C255.605 118.391 255.54 118.291 255.502 118.18C255.464 118.069 255.454 117.952 255.473 117.837C255.246 117.724 254.987 117.682 254.732 117.715C254.605 117.732 254.484 117.774 254.376 117.837C254.267 117.9 254.174 117.984 254.101 118.082C253.989 118.253 253.946 118.456 253.982 118.654C254.018 118.853 254.129 119.032 254.295 119.16" stroke="#61391F" stroke-width="0.119945" stroke-miterlimit="10" stroke-linecap="round"/>
<path d="M275.145 159.268C275.751 153.931 276.354 148.51 275.353 143.225C274.352 137.94 271.515 132.714 266.616 129.869C263.236 127.906 259.096 129.272 255.161 129.862C252.152 130.314 249.122 129.524 247.32 131.813C245.752 133.8 245.244 136.32 244.777 138.746L242.131 152.503C241.761 154.425 241.431 156.563 242.591 158.192C243.697 159.752 245.816 160.347 247.776 160.762C253.798 162.038 259.956 162.672 266.133 162.652C268.06 162.724 269.987 162.495 271.833 161.974C273.645 161.375 275.04 160.192 275.145 159.268Z" fill="#49AEC0"/>
<path d="M204.502 126.404C203.276 126.201 202.085 126.092 201.179 126.025C196.44 125.218 192.879 121.058 188.768 121.492C185.668 111.939 182.577 107.829 183.036 97.8607C182.682 97.904 182.325 97.9266 181.967 97.9285C178.981 98.3053 175.946 98.1946 173.001 97.6015C173.042 97.9338 172.996 98.2704 172.867 98.5825C172.287 104.628 173.746 112.733 178.902 130.403C180.665 136.11 181.179 142.087 180.412 147.982C190.94 154.461 191.834 155.455 203.955 154.007C207.233 145.814 210.486 139.074 209.996 133.127C209.733 129.938 207.893 126.964 204.502 126.404Z" fill="#49AEC0"/>
<path d="M262.477 109.217C262.731 108.551 258.713 106.058 254.8 106.842C250.887 107.625 247.886 108.576 246.537 112.051C245.765 114.082 245.71 116.288 246.38 118.349C247.05 120.411 248.41 122.22 250.262 123.514C250.294 123.535 250.326 123.555 250.362 123.575C253.04 125.174 250.703 116.584 253.195 115.522C261.324 112.058 262.223 109.882 262.477 109.217Z" fill="#391D0C"/>
<path d="M253.895 116.629C255.575 115.855 256.454 117.941 257.405 119.062L258.449 118.597C258.449 118.597 255.763 114.649 257.716 113.347L255.216 112.849L252.452 114.269L252.735 116.253L253.895 116.629Z" fill="#391D0C"/>
<path d="M455.64 154.273C457.806 145.71 459.593 137.078 461.003 128.379C367.654 170.516 254.41 173.089 158.55 135.412C154.139 133.834 149.85 131.974 145.714 129.848C148.042 137.674 150.648 145.4 153.531 153.026C202.504 175.828 279.721 199.137 455.64 154.273Z" fill="#394468"/>
<path d="M153.531 153.026C158.371 165.84 163.959 178.401 170.271 190.651C248.31 220.186 329.021 214.887 445.828 185.69C449.682 175.383 452.957 164.898 455.64 154.276C279.721 199.137 202.504 175.828 153.531 153.026Z" fill="#243058"/>
<path d="M170.271 190.648C176.36 202.477 183.074 213.997 190.414 225.207C272.982 236.748 357.325 234.47 436.433 210.937C439.658 204.005 443.172 192.79 445.828 185.69C329.021 214.881 248.31 220.183 170.271 190.648Z" fill="#19254F"/>
<path d="M205.442 230.984C184.816 198.999 168.564 164.75 157.063 129.028C151.37 127.332 145.677 125.635 139.844 123.909C149.603 162.341 166.482 198.903 189.726 231.962C194.972 232.837 200.369 232.501 205.442 230.984Z" fill="#555E7D"/>
<path d="M440.511 215.733C450.748 201.416 457.351 185.127 459.822 168.093C461.115 159.111 461.258 149.926 463.939 141.213C466.619 132.5 472.439 124.001 481.295 120.297C479.026 117.2 476.758 114.103 474.578 111.263C464.457 115.635 457.826 125.08 454.257 134.904C450.688 144.728 449.676 155.167 447.587 165.353C443.739 184.046 436.265 201.934 425.531 218.145C429.82 217.788 434.062 217.041 438.195 215.915C438.998 215.747 439.754 215.422 440.413 214.963C441.035 214.468 441.429 213.645 440.511 215.733Z" fill="#555E7D"/>
<path d="M467.551 210.599C426.572 219.047 385.311 194.135 343.454 197.061C325.218 198.335 307.871 204.856 289.781 207.35C257.887 211.748 225.789 203.486 194.107 197.914C162.424 192.343 127.814 189.839 100.564 205.794C123.229 208.479 144.09 218.672 159.312 234.501C137.665 229.203 114.82 229.924 93.6096 236.574C140.297 250.767 188.245 265.13 237.321 263.112C267.284 261.88 296.765 254.537 326.757 254.536C369.983 254.536 411.581 269.779 449.84 288.47C434.996 268.03 413.278 252.736 388.082 244.982C418.792 245.947 449.089 238.194 474.936 222.756C460.934 225.597 446.346 224.599 432.942 219.885C445.327 220.734 457.986 217.645 467.551 210.599Z" fill="#A1D5DE"/>
<path d="M401.619 227.423L383.353 185.912C382.502 183.977 380.896 182.412 378.857 181.529C376.818 180.646 374.495 180.511 372.353 181.151C370.211 181.789 368.407 183.156 367.302 184.976C366.198 186.797 365.873 188.938 366.394 190.971L377.563 234.6C377.848 235.713 378.377 236.759 379.118 237.673C379.859 238.587 380.795 239.348 381.867 239.91C382.94 240.471 384.126 240.821 385.351 240.937C386.576 241.052 387.813 240.931 388.986 240.581L396.086 238.464C397.258 238.114 398.339 237.543 399.262 236.786C400.185 236.029 400.929 235.103 401.449 234.066C401.969 233.03 402.252 231.904 402.281 230.761C402.31 229.618 402.085 228.481 401.619 227.423Z" fill="#917D9E"/>
<path d="M184.429 221.028L221.553 192.362C223.283 191.026 224.407 189.133 224.7 187.06C224.993 184.988 224.433 182.89 223.133 181.184C221.832 179.479 219.887 178.293 217.685 177.862C215.484 177.431 213.189 177.788 211.258 178.861L169.827 201.875C168.77 202.462 167.856 203.246 167.141 204.178C166.427 205.109 165.927 206.167 165.673 207.286C165.42 208.406 165.418 209.562 165.668 210.681C165.918 211.801 166.415 212.861 167.127 213.794L171.434 219.444C172.145 220.377 173.057 221.163 174.111 221.753C175.165 222.343 176.339 222.724 177.559 222.873C178.779 223.022 180.019 222.935 181.202 222.617C182.384 222.3 183.483 221.759 184.429 221.028Z" fill="#917D9E"/>
<path d="M290.582 140.639L206.464 192.496" stroke="#684C7A" stroke-width="1.17898" stroke-miterlimit="10"/>
<path d="M181.834 90.789C181.515 89.3955 185.434 87.2764 185.793 85.8931C186.002 84.9511 185.926 83.9738 185.573 83.0697C185.22 82.1655 184.604 81.37 183.793 80.7715C182.187 79.5703 179.887 79.7579 177.877 80.1844C175.867 80.6108 173.213 82.7011 173.524 84.5582C175.189 84.063 176.434 83.6877 177.21 84.311C177.986 84.9344 177.677 86.1263 178.832 86.209C179.893 86.2852 178.026 87.3601 174.701 87.5505C176.985 91.3455 177.549 91.2573 181.834 90.789Z" fill="#E1C4A1"/>
<path d="M350.946 108.683L378.954 199.319" stroke="#684C7A" stroke-width="1.17898" stroke-miterlimit="10"/>
<path d="M249.747 130.195L250.658 127.812C253.579 128.288 260.276 128.565 263.335 127.28L264.271 129.045C262.066 130.22 259.572 130.846 257.03 130.862C254.581 130.962 252.128 130.738 249.747 130.195Z" fill="#53B2C3"/>
<path d="M258.446 118.589C259.81 118.829 261.217 118.749 262.539 118.356C263.861 117.964 265.056 117.271 266.018 116.341C266.018 116.341 268.046 118.712 267.562 120.958C267.296 122.192 263.623 123.489 262.481 124.101C262.336 124.177 262.201 124.271 262.081 124.379C259.519 123.96 257.223 122.654 255.656 120.724C255.656 120.724 257.531 120.429 257.398 119.052L258.446 118.589Z" fill="#6C4226"/>
<path d="M265.111 118.785C264.242 119.323 263.192 119.547 262.158 119.416L265.111 118.785Z" fill="#805430"/>
<path d="M265.111 118.785C264.242 119.323 263.192 119.547 262.158 119.416" stroke="#61391F" stroke-width="0.233539" stroke-miterlimit="10" stroke-linecap="round"/>
<path d="M357.472 153.849C358.972 153.551 360.385 154.524 361.872 154.856C362.886 155.048 363.938 154.976 364.911 154.647C365.883 154.318 366.738 153.744 367.382 152.991C368.672 151.496 368.282 149.712 367.815 147.844C367.525 146.842 366.986 145.916 366.241 145.141C365.497 144.367 364.567 143.765 363.527 143.385C363.335 144.322 364.14 145.094 363.471 145.817C363.264 146.144 362.951 146.401 362.575 146.55C362.2 146.699 361.784 146.734 361.386 146.648C360.371 146.506 360.364 145.5 360.306 144.647C356.228 146.775 356.289 150.667 357.472 153.849Z" fill="#E1C4A1"/>
<path d="M248.954 159.605C249.885 160.735 249.544 162.34 249.854 163.732C250.1 164.666 250.62 165.518 251.357 166.194C252.093 166.87 253.016 167.343 254.024 167.561C256.03 168.005 257.599 166.911 259.218 165.723C260.069 165.05 260.738 164.202 261.172 163.246C261.606 162.29 261.793 161.252 261.718 160.217C260.724 160.456 260.318 161.463 259.327 161.21C258.336 160.957 257.927 160.727 257.627 159.817C257.327 158.906 258.448 158.548 259.253 158.134C255.445 155.61 251.544 157.245 248.954 159.605Z" fill="#805430"/>
<path d="M330.781 135.031C327.726 132.927 322.835 132.679 320.491 135.461C318.556 137.757 319.067 141.151 320.542 143.724C321.293 145.034 333.461 153.491 337.875 154.354C347.747 156.284 357.576 155.96 359.328 155.562C360.158 155.376 358.47 155.012 359.028 154.41C359.628 153.759 359.091 153.413 359.128 152.56C359.248 149.989 357.747 148.34 358.54 145.513C357.04 145.899 347.24 145.078 342.092 143.437C338.625 142.333 332.22 136.023 330.781 135.031Z" fill="#79C3D0"/>
<path d="M310.475 133.121C310.885 133.167 311.297 133.062 311.624 132.829C311.952 132.596 312.168 132.254 312.227 131.875C312.269 131.493 312.225 131.107 312.098 130.742C311.972 130.377 311.766 130.04 311.493 129.752C310.987 129.148 310.346 128.653 309.815 128.067C307.97 126.032 307.663 123.166 307.758 120.506C307.763 119.561 307.897 118.62 308.158 117.706C308.685 116.317 309.484 115.03 310.514 113.91C311.119 113.122 311.84 112.415 312.654 111.811C313.448 111.3 314.343 110.942 315.288 110.758C316.233 110.574 317.207 110.569 318.155 110.741C320.053 111.101 321.812 111.932 323.242 113.147C323.619 113.399 323.939 113.718 324.181 114.087C324.424 114.455 324.585 114.865 324.654 115.292C324.691 116.154 323.72 117.044 322.876 116.685C322.706 116.599 322.542 116.502 322.386 116.395C321.863 116.143 321.259 116.076 320.687 116.205C320.115 116.335 319.612 116.652 319.273 117.1C318.953 117.56 318.751 118.081 318.682 118.625C318.612 119.169 318.678 119.72 318.873 120.237C319.27 121.267 319.86 122.224 320.616 123.064C320.673 123.121 320.711 123.192 320.725 123.269C320.744 123.561 320.236 123.513 319.984 123.339C319.056 122.696 318.276 121.888 317.691 120.961C317.491 122.205 318.335 123.359 319.077 124.412C320.109 125.877 321.005 127.421 321.757 129.026C322.17 129.797 322.415 130.636 322.477 131.496C322.509 133.679 320.323 135.484 318.004 135.837C315.645 136.045 313.279 135.531 311.263 134.375C311.541 134.391 311.819 134.338 312.068 134.221C312.317 134.105 312.528 133.929 312.679 133.712C312.213 133.902 311.696 133.958 311.196 133.872C310.695 133.786 310.234 133.563 309.871 133.231C310.215 133.189 310.564 133.15 310.475 133.121Z" fill="#F49727"/>
<path d="M438.361 124.993C438.132 124.821 437.977 124.578 437.925 124.308C437.874 124.038 437.929 123.76 438.081 123.526L441.224 119.417C441.386 119.24 441.587 119.098 441.813 118.999C442.039 118.9 442.285 118.846 442.535 118.842C442.785 118.837 443.033 118.882 443.263 118.972C443.493 119.063 443.7 119.198 443.87 119.368C444.069 119.509 444.233 119.688 444.352 119.892C444.472 120.096 444.543 120.321 444.562 120.553C444.581 120.785 444.547 121.017 444.462 121.236C444.377 121.454 444.243 121.654 444.07 121.821L439.963 125.114C439.725 125.277 439.432 125.355 439.137 125.333C438.843 125.31 438.567 125.189 438.361 124.993Z" fill="#593B6D"/>
<path d="M172.506 97.1445C172.506 97.1445 181.079 97.8041 183.166 97.7223L183.433 101.27C183.433 101.27 174.105 102.054 172.195 101.106L172.506 97.1445Z" fill="#6CBDCC"/>
<path d="M249.958 147.651C250.876 145.697 251.99 143.827 253.286 142.068C254.587 140.299 255.369 138.246 255.556 136.111C255.602 133.98 254.413 131.702 252.265 130.954C249.379 129.948 246.355 131.943 244.108 133.903C241.435 136.233 238.8 138.858 237.891 142.157C237.207 145.157 237.648 148.285 239.142 151.021C240.632 153.729 242.451 156.271 244.563 158.597C245.306 159.669 246.355 160.528 247.593 161.078C249.441 161.704 251.493 160.872 253.1 159.822C254.707 158.772 256.2 157.46 258.193 156.775C255 154.108 252.228 151.037 249.958 147.651Z" fill="#79C3D0"/>
<path d="M251.148 149.312C251.448 148.744 250.858 147.948 250.326 147.69C249.794 147.433 250.674 147.981 250.945 146.921C251.216 145.861 248.835 145.249 248.835 145.249L247.555 148.391L250.342 149.831L251.148 149.312Z" fill="#79C3D0"/>
<path d="M258.195 156.775C255.667 158.094 248.552 162.607 248.552 162.607L245.409 160.028L255.836 154.305L258.195 156.775Z" fill="#97D1DB"/>
<path d="M359.023 144.507C359.223 147.195 360.643 155.684 360.643 155.684L356.718 156.636L355.267 145.156L359.023 144.507Z" fill="#97D1DB"/>
<path d="M420.541 138.725C422.293 139.474 425.588 140.419 425.588 140.419L421.628 141.493L420.401 140.419L420.541 138.725Z" fill="#303B61"/>
<path d="M231.481 63.8543L238.724 61.5642C239.092 61.4476 239.482 61.3996 239.871 61.423C240.259 61.4463 240.639 61.5406 240.988 61.7003C241.338 61.86 241.65 62.0821 241.907 62.3538C242.164 62.6256 242.361 62.9417 242.486 63.2842C242.74 63.9757 242.687 64.7325 242.34 65.388C241.992 66.0435 241.379 66.544 240.635 66.7794L233.392 69.0695C232.648 69.3049 231.833 69.256 231.127 68.9333C230.421 68.6106 229.882 68.0407 229.629 67.3489C229.375 66.6573 229.428 65.9005 229.775 65.245C230.122 64.5896 230.736 64.0891 231.48 63.8537L231.481 63.8543Z" fill="#593B6D"/>
<path d="M287.599 139.031L281.252 143.001C279.894 143.85 279.534 145.562 280.448 146.824L280.449 146.825C281.363 148.087 283.206 148.421 284.564 147.571L290.911 143.602C292.27 142.752 292.63 141.04 291.715 139.778L291.714 139.777C290.8 138.516 288.957 138.181 287.599 139.031Z" fill="#593B6D"/>
<path d="M350.893 115.584L348.848 108.735C348.638 108.031 348.737 107.279 349.125 106.643C349.512 106.007 350.155 105.54 350.913 105.345C351.67 105.149 352.481 105.242 353.165 105.601C353.85 105.961 354.352 106.559 354.563 107.263L356.608 114.111C356.712 114.46 356.741 114.824 356.694 115.183C356.646 115.542 356.523 115.889 356.331 116.204C356.14 116.519 355.883 116.796 355.576 117.019C355.269 117.241 354.918 117.406 354.543 117.503C353.785 117.698 352.975 117.606 352.29 117.246C351.606 116.886 351.103 116.289 350.893 115.585L350.893 115.584Z" fill="#593B6D"/>
<path d="M358.509 124.449C359.563 123.036 360.116 121.352 360.093 119.633C360.071 118.778 359.829 117.94 359.388 117.189C358.946 116.438 358.318 115.796 357.555 115.316C356.777 114.86 355.862 114.647 354.944 114.709C354.026 114.772 353.154 115.105 352.455 115.662C351.867 116.275 351.453 117.016 351.251 117.816C351.05 118.616 351.066 119.45 351.299 120.243C351.586 121.758 352.498 123.11 353.841 124.011C354.533 124.406 355.313 124.651 356.121 124.726C356.929 124.802 357.746 124.708 358.509 124.449Z" fill="#E1C4A1"/>
<path d="M291.505 144.658C294.105 144.96 294.782 143.483 295.467 141.563C295.794 140.596 295.818 139.561 295.536 138.581C295.254 137.602 294.678 136.716 293.875 136.029C292.251 134.683 290.623 133.877 288.648 134.729C287.308 135.305 286.917 136.417 286.417 137.708C286.037 138.692 286.873 140.959 287.517 141.777C288.229 142.69 288.907 144.357 291.505 144.658Z" fill="#805430"/>
<path d="M406.134 224.479C396.559 223.906 387.584 220.836 378.556 217.815C349.579 208.117 326.803 213.083 317.354 215.932C300.079 221.134 285.506 234.086 267.39 235.268C259.671 235.772 252.008 234.046 244.495 232.333C236.794 230.577 229.014 228.795 221.937 225.474C215.245 222.333 209.291 217.865 202.33 215.278C187.622 209.811 167.187 203.821 153.211 221.131C155.757 220.175 157.833 219.513 157.833 219.513C167.696 216.049 178.803 219.502 188.034 224.233C197.266 228.963 205.942 235.064 216.186 237.386C203.877 235.412 190.81 232.277 178.352 233.113C165.789 234.001 153.96 238.957 144.928 247.118C157.046 242.341 173.52 243.669 185.281 247.843C197.043 252.016 202.54 255.24 213.972 260.139C226.352 265.443 240.295 267.871 253.802 266.149C273.721 263.61 291.029 252.527 307.167 241.388C304.319 249.359 294.436 258.533 286.143 265.494C310.484 250.878 318.8 242.557 338.533 239.43C354.233 236.942 370.242 240.121 386.104 241.496C401.967 242.871 419.247 242.048 431.837 232.98C424.148 234.993 420.151 235.303 412.174 234.886C430.56 232.17 440.002 227.602 444.262 213.154C440.262 219.496 431.023 221.422 423.902 222.894C417.627 224.194 414.221 224.158 407.516 224.51L406.134 224.479Z" fill="#80C6D3" stroke="#80C6D3" stroke-width="0.345722" stroke-linecap="round" stroke-linejoin="round"/>
<path opacity="0.82" d="M179.823 213.766C169.9 212.773 159.922 218.07 150.045 219.373C140.168 220.675 129.544 220.557 120.89 215.945C121.26 217.997 123.351 219.33 125.258 220.421C134.935 225.957 145 231.624 156.276 232.941C168.809 234.404 181.386 230.313 194.008 230.774C204.825 231.197 215.19 234.926 223.494 241.381C222.584 233.196 202.038 215.99 179.823 213.766Z" fill="#E6F4F6"/>
<path opacity="0.82" d="M277.388 217.083C267.54 218.149 259.026 223.983 249.761 227.264C240.496 230.545 230.185 232.6 220.705 229.901C221.55 231.813 223.891 232.678 225.996 233.345C236.682 236.73 247.775 240.163 259.01 239.135C271.498 237.991 282.711 231.457 295.05 229.323C305.628 227.524 316.551 229.018 326.123 233.572C323.306 225.828 299.435 214.695 277.388 217.083Z" fill="#E6F4F6"/>
<path d="M90.5886 145.391C90.5886 146.199 90.243 146.974 89.6278 147.546C89.0127 148.117 88.1784 148.438 87.3084 148.438C86.4385 148.438 85.6042 148.117 84.9891 147.546C84.3739 146.974 84.0283 146.199 84.0283 145.391C84.0283 143.707 87.3084 140.524 87.3084 140.524C87.3084 140.524 90.5886 143.707 90.5886 145.391Z" fill="#80C6D3"/>
<path d="M151.852 170.5C151.765 169.97 151.794 169.429 151.935 168.909C152.077 168.389 152.329 167.9 152.676 167.472C153.024 167.043 153.46 166.683 153.959 166.414C154.458 166.144 155.01 165.969 155.583 165.9C156.155 165.831 156.737 165.869 157.294 166.012C157.85 166.155 158.371 166.399 158.824 166.731C159.278 167.063 159.655 167.476 159.935 167.945C160.215 168.415 160.391 168.931 160.452 169.464C160.76 171.672 157.487 178.412 157.487 178.412C157.487 178.412 152.16 172.704 151.852 170.5Z" fill="#80C6D3"/>
<path d="M136.29 164.972C136.153 164.612 136.093 164.231 136.114 163.85C136.135 163.469 136.237 163.095 136.413 162.751C136.59 162.406 136.837 162.097 137.142 161.842C137.447 161.586 137.803 161.389 138.19 161.261C138.577 161.133 138.988 161.078 139.398 161.097C139.808 161.117 140.21 161.211 140.581 161.375C141.33 161.706 141.907 162.3 142.185 163.026C142.763 164.539 141.56 169.752 141.56 169.752C141.56 169.752 136.863 166.484 136.29 164.972Z" fill="#80C6D3"/>
<path d="M131.39 176.006C130.661 175.638 130.119 175.016 129.883 174.277C129.647 173.537 129.737 172.741 130.133 172.064C130.529 171.386 131.199 170.883 131.994 170.664C132.79 170.445 133.647 170.528 134.376 170.896C135.894 171.662 138.749 176.284 138.749 176.284C138.749 176.284 132.91 176.772 131.39 176.006Z" fill="#80C6D3"/>
<path opacity="0.82" d="M161.626 175.616C161.865 175.297 162.169 175.024 162.522 174.814C162.875 174.604 163.269 174.461 163.681 174.394C164.094 174.326 164.517 174.335 164.925 174.42C165.334 174.505 165.721 174.664 166.063 174.889C166.405 175.113 166.696 175.399 166.918 175.728C167.141 176.058 167.291 176.425 167.36 176.809C167.429 177.193 167.416 177.585 167.321 177.964C167.225 178.343 167.05 178.701 166.806 179.017C165.794 180.345 160.395 181.979 160.395 181.979C160.395 181.979 160.615 176.945 161.626 175.616Z" fill="#E6F4F6"/>
<path opacity="0.82" d="M397.383 181.535C397.672 180.817 398.251 180.233 398.996 179.905C399.742 179.577 400.596 179.532 401.376 179.779C402.157 180.027 402.803 180.547 403.178 181.229C403.553 181.912 403.626 182.704 403.383 183.436C402.818 184.976 398.138 187.962 398.138 187.962C398.138 187.962 396.818 183.075 397.383 181.535Z" fill="#E6F4F6"/>
<path opacity="0.82" d="M169.829 209.957C161.355 210.64 148.862 197.018 152.651 186.082C155.276 178.506 149.551 175.026 144.362 176.42C140.375 177.493 136.838 182.033 136.844 186.222C136.865 200.803 154.021 218.018 169.829 209.957Z" fill="#E6F4F6"/>
<path d="M174.164 209.737C164.614 214.219 143.163 203.743 142.078 189.328C141.328 179.34 132.887 177.765 127.532 181.65C123.417 184.636 121.575 191.476 123.692 196.365C131.06 213.379 159.766 226.029 174.164 209.737Z" fill="#80C6D3"/>
<path d="M397.483 208.357C390.118 215.834 365.59 213.04 358.954 199.657C354.354 190.386 345.696 191.714 342.1 197.216C339.336 201.443 340.238 208.583 344.157 212.535C357.799 226.287 390.084 228.718 397.483 208.357Z" fill="#80C6D3"/>
<path opacity="0.82" d="M397.779 208.401C390.015 211.815 373.031 202.997 372.478 191.409C372.097 183.378 365.359 181.953 360.977 184.969C357.609 187.291 355.977 192.74 357.57 196.704C363.105 210.499 385.862 221.198 397.779 208.401Z" fill="#E6F4F6"/>
<path opacity="0.82" d="M381.844 216.079C387.902 218.743 401.156 211.863 401.585 202.82C401.885 196.553 407.14 195.44 410.561 197.794C413.19 199.602 414.461 203.858 413.22 206.952C408.901 217.716 391.143 226.064 381.844 216.079Z" fill="#E6F4F6"/>
</svg>
