<svg width="339" height="362" viewBox="0 0 339 362" fill="none" xmlns="http://www.w3.org/2000/svg">
<path d="M1.85691 228.844C-10.5751 148.067 40.1076 -5.10413 133.154 0.130813C247.458 6.56215 139.058 106.916 308.327 191.047C393.676 233.467 285.652 381.411 170.604 359.45C79.3201 342.025 11.1036 288.946 1.85691 228.844Z" fill="#E5E0E8"/>
<path d="M240.959 218.794C237.913 216.886 234.512 215.613 230.962 215.051C230.063 214.934 229.159 214.868 228.252 214.823C226.888 212.042 225.886 209.098 225.271 206.062C225.751 205.993 226.231 205.933 226.711 205.857C231.383 200.407 235.141 194.237 237.841 187.586C238.641 193.113 237.979 198.753 235.919 203.944C242.605 201.259 250.456 204.427 257.309 202.467C265.381 192.196 267.721 178.242 265.802 165.324C263.883 152.407 258.082 140.369 250.997 129.651L250.62 109.494C254.466 105.699 254.153 99.3113 252.169 94.2865C249.517 87.5668 244.471 81.9922 238.654 77.712C235.013 75.0904 231.143 72.8023 227.091 70.8757C207.171 56.4186 170.347 51.2572 149.404 86.0494C146.367 85.124 143.262 84.4352 140.118 83.9893C136.937 81.5872 133.437 79.6399 129.719 78.2034C118.083 73.3015 105.72 70.3494 93.1247 69.4657C93.0313 69.7307 92.9496 70.0003 92.8574 70.2664C92.7407 70.1905 92.6415 70.1077 92.5259 70.033C87.0949 71.3814 82.1209 74.152 78.1155 78.0599C74.6979 91.2824 72.5455 104.8 71.6877 118.43C71.2897 124.752 71.257 131.455 74.3116 137.059L80.4791 144.03C80.9433 144.616 81.5014 145.121 82.1307 145.525C83.3505 146.212 85.0068 146.169 86.3526 146.925C86.3724 147.042 86.3864 147.151 86.4062 147.263C86.5907 147.293 86.7762 147.316 86.9595 147.346C103.535 149.94 120.478 148.835 136.576 144.111C136.706 143.868 136.898 143.662 137.132 143.516C137.349 143.64 137.567 143.762 137.804 143.866C138.256 144.062 138.749 144.143 139.239 144.1C138.69 146.805 139.868 148.302 144.467 148.582C144.46 151.398 144.532 154.213 144.725 157.024C145.346 166.075 147.643 169.12 154.682 174.84C157.257 177.325 161.102 177.832 164.656 178.211C169.584 178.737 174.509 179.269 179.431 179.808C179.581 179.823 179.733 179.808 179.878 179.765C181.436 182.947 181.651 189.027 181.357 194.548C177.863 198.032 174.058 201.188 169.988 203.978C173.274 204.762 176.592 205.412 179.937 205.952C179.732 206.984 179.501 208.009 179.21 209.015C178.065 208.486 176.992 207.941 176.029 207.381C173.851 212.188 172.033 213.619 168.921 216.908C168.879 216.941 168.839 216.967 168.804 217.002C163.435 221.499 159.127 227.1 154.864 232.654C150.878 237.845 146.892 243.037 142.907 248.228C140.356 251.282 138.195 254.641 136.473 258.228C131.186 270.534 136.844 284.428 139.748 297.502C142.372 309.318 142.678 321.509 144.11 332.707C161.416 338.48 179.48 341.66 197.717 342.144C200.715 342.258 203.716 342.138 206.694 341.784C223.827 343.815 241.167 340.482 256.325 332.244C258.754 330.915 260.878 329.294 260.985 328.344C264.579 295.873 260.761 263.01 249.818 232.229C247.976 227.077 245.647 221.627 240.959 218.794Z" fill="#E3DEE6" stroke="#E3DEE6" stroke-width="1.32115" stroke-miterlimit="10"/>
<path d="M147.932 173.705L122.137 199.986V230.972L100.752 252.356V282.474L87.947 295.279H70.2334V298.277H89.1901L103.75 283.717V253.597L125.134 232.212V201.207L150.075 175.8L147.932 173.705Z" fill="#A494AF"/>
<path d="M121.242 235.247H118.244V296.098L109.048 305.294L111.168 307.414L121.242 297.339V235.247Z" fill="#A494AF"/>
<path d="M106.74 181.25H88.8411V184.246H103.743V213.819L122.576 232.652L124.695 230.533L106.74 212.578V181.25Z" fill="#A494AF"/>
<path d="M104.182 212.139L83.7357 232.586H73.2249V235.583H84.9764L106.301 214.258L104.182 212.139Z" fill="#A494AF"/>
<path d="M81.8203 208.496H60.5981V211.493H80.5784L93.3243 224.239V240.94L78.2533 256.011H61.5949V259.008H79.4941L96.3217 242.181V222.997L81.8203 208.496Z" fill="#A494AF"/>
<path d="M108.735 156.494H40.9936V159.492H107.493L124.106 176.106H175.771V173.109H125.348L108.735 156.494Z" fill="#A494AF"/>
<path d="M76.276 156.809L51.2907 181.795V197.365H21.3891V200.362H54.2881V183.036L78.3957 158.929L76.276 156.809Z" fill="#A494AF"/>
<path d="M52.7894 180.917H38.5016V183.914H52.7894V180.917Z" fill="#A494AF"/>
<path d="M109.6 310.464C111.986 310.464 113.92 308.529 113.92 306.144C113.92 303.758 111.986 301.824 109.6 301.824C107.214 301.824 105.28 303.758 105.28 306.144C105.28 308.529 107.214 310.464 109.6 310.464Z" fill="#A494AF"/>
<path d="M70.6314 301.247C73.0172 301.247 74.9513 299.313 74.9513 296.927C74.9513 294.541 73.0172 292.607 70.6314 292.607C68.2456 292.607 66.3116 294.541 66.3116 296.927C66.3116 299.313 68.2456 301.247 70.6314 301.247Z" fill="#A494AF"/>
<path d="M62.0045 261.791C64.3903 261.791 66.3244 259.857 66.3244 257.471C66.3244 255.085 64.3903 253.151 62.0045 253.151C59.6188 253.151 57.6847 255.085 57.6847 257.471C57.6847 259.857 59.6188 261.791 62.0045 261.791Z" fill="#A494AF"/>
<path d="M72.6974 238.6C75.0832 238.6 77.0172 236.666 77.0172 234.281C77.0172 231.895 75.0832 229.961 72.6974 229.961C70.3116 229.961 68.3775 231.895 68.3775 234.281C68.3775 236.666 70.3116 238.6 72.6974 238.6Z" fill="#A494AF"/>
<path d="M60.772 214.213C63.1578 214.213 65.0918 212.279 65.0918 209.893C65.0918 207.507 63.1578 205.573 60.772 205.573C58.3862 205.573 56.4521 207.507 56.4521 209.893C56.4521 212.279 58.3862 214.213 60.772 214.213Z" fill="#A494AF"/>
<path d="M89.0278 187.132C91.4136 187.132 93.3477 185.198 93.3477 182.813C93.3477 180.427 91.4136 178.493 89.0278 178.493C86.642 178.493 84.708 180.427 84.708 182.813C84.708 185.198 86.642 187.132 89.0278 187.132Z" fill="#A494AF"/>
<path d="M37.9775 186.694C40.3633 186.694 42.2973 184.76 42.2973 182.374C42.2973 179.988 40.3633 178.054 37.9775 178.054C35.5917 178.054 33.6576 179.988 33.6576 182.374C33.6576 184.76 35.5917 186.694 37.9775 186.694Z" fill="#A494AF"/>
<path d="M41.1348 162.271C43.5206 162.271 45.4546 160.337 45.4546 157.951C45.4546 155.565 43.5206 153.631 41.1348 153.631C38.749 153.631 36.8149 155.565 36.8149 157.951C36.8149 160.337 38.749 162.271 41.1348 162.271Z" fill="#A494AF"/>
<path d="M22.3614 202.809C24.7471 202.809 26.6812 200.875 26.6812 198.49C26.6812 196.104 24.7471 194.17 22.3614 194.17C19.9756 194.17 18.0415 196.104 18.0415 198.49C18.0415 200.875 19.9756 202.809 22.3614 202.809Z" fill="#A494AF"/>
<path d="M157.451 175.389H154.388V199.888H157.451V175.389Z" fill="#A494AF"/>
<path d="M155.817 206.045C158.203 206.045 160.137 204.111 160.137 201.725C160.137 199.339 158.203 197.405 155.817 197.405C153.431 197.405 151.497 199.339 151.497 201.725C151.497 204.111 153.431 206.045 155.817 206.045Z" fill="#A494AF"/>
<path d="M145.87 148.635C139.052 148.576 138.242 146.474 139.754 142.349L150.395 140.352L145.87 148.635Z" fill="#E1C4A1"/>
<path d="M148.399 87.7699C171.692 46.6024 216.331 58.0609 233.678 76.6464C250.18 94.3355 148.399 87.7699 148.399 87.7699Z" fill="#735983"/>
<path d="M237.754 227.318C231.002 222.219 224.644 210.107 224.857 201.647C225.071 193.187 227.997 185.055 231.053 177.164C234.109 169.274 237.356 161.321 238.277 152.908C238.751 147.268 238.578 141.592 237.76 135.991C235.618 118.32 230.823 100.219 219.108 86.8186C216.98 84.272 214.469 82.0716 211.666 80.2962C205.882 76.8191 198.892 76.1631 192.173 75.59C189.896 75.2447 187.573 75.3558 185.339 75.9169C183.57 76.5982 181.929 77.5737 180.486 78.8022C174.276 83.5489 168.27 88.5442 162.468 93.788C157.94 97.8826 153.465 102.229 150.646 107.645C147.681 113.341 146.742 119.847 146.002 126.226C144.636 136.433 144.212 146.743 144.734 157.028C145.355 166.078 147.652 169.123 154.692 174.844C157.267 177.329 161.111 177.835 164.666 178.215C169.593 178.74 174.519 179.272 179.441 179.812C179.592 179.826 179.743 179.812 179.888 179.768C182.414 184.927 181.415 197.712 180.426 203.372C180.053 206.046 179.402 208.674 178.483 211.213C176.914 215.119 174.141 218.398 171.571 221.76C171.503 221.27 171.865 220.759 172.355 221.961C174.905 225.642 178.17 228.773 181.955 231.166C185.74 233.56 189.968 235.167 194.387 235.893C198.166 236.404 201.988 236.512 205.79 236.215C211.605 236.033 217.369 235.072 222.928 233.359C227.49 231.827 235.59 232.202 237.754 227.318Z" fill="#E1C4A1"/>
<path d="M92.5213 70.0389C87.0925 71.3865 82.1204 74.155 78.1156 78.06C74.6984 91.2827 72.5462 104.8 71.6877 118.43C71.2897 124.752 71.257 131.455 74.3116 137.059L80.4792 144.03C80.9434 144.616 81.5014 145.121 82.1308 145.525C83.5419 146.321 85.5414 146.133 86.963 147.352C88.7512 142.271 93.1282 138.564 95.7393 133.853C98.0632 129.657 98.9048 124.824 99.6564 120.087C100.824 112.711 101.864 105.312 102.564 97.8781C103.037 92.8591 103.346 87.7105 102.067 82.8304C100.633 77.505 97.2184 72.9289 92.5213 70.0389Z" fill="#57386B"/>
<path d="M198.989 124.873C206.417 134.125 205.909 147.51 202.582 158.9C197.214 177.221 185.707 193.139 169.993 203.981C178.035 205.865 186.22 207.08 194.463 207.615C198.481 205.188 201.817 201.781 204.157 197.712C204.269 200.826 203.528 203.911 202.015 206.634C210.246 207.446 218.548 207.185 226.712 205.857C231.384 200.407 235.143 194.237 237.843 187.587C238.643 193.113 237.98 198.753 235.92 203.944C242.606 201.259 250.457 204.427 257.311 202.467C265.382 192.196 267.722 178.242 265.803 165.324C263.884 152.407 258.082 140.369 250.997 129.651C250.793 122.838 250.587 116.024 250.62 109.494C254.466 105.7 254.153 99.3115 252.169 94.2867C249.516 87.567 244.471 81.9924 238.654 77.7123C232.837 73.4321 226.242 70.3332 219.612 67.4653C213.292 64.7317 206.773 62.1487 199.915 61.5382C190.687 60.7212 181.454 63.5482 173.201 67.7595C169.529 69.5594 166.092 71.8058 162.97 74.4476C157.633 79.283 153.846 85.5885 152.084 92.5709C150.322 99.5534 150.665 106.901 153.068 113.689C153.379 114.731 153.949 115.678 154.726 116.439C155.818 117.201 157.108 117.628 158.44 117.671C166.523 118.66 174.681 118.898 182.809 118.38C186.297 118.157 189.88 117.805 193.231 118.805C196.582 119.805 199.69 122.555 198.989 124.873Z" fill="#19254F"/>
<path d="M183.733 220.4C176.738 220.685 174.169 212.515 168.802 217.01C163.435 221.504 159.125 227.107 154.862 232.661C150.876 237.852 146.89 243.044 142.905 248.235C140.354 251.289 138.192 254.648 136.47 258.235C131.184 270.541 136.842 284.435 139.744 297.509C142.368 309.326 142.675 321.516 144.109 332.714C161.414 338.487 179.479 341.667 197.715 342.151C205.311 342.351 213.715 341.76 219.114 336.412C222.944 332.615 224.483 327.135 225.738 321.889C228.176 311.667 230.08 301.325 231.441 290.905C233.775 273.023 234.376 254.176 227.137 237.659C219.898 221.141 198.939 219.781 183.733 220.4Z" fill="#270041"/>
<path d="M237.663 222.498C236.464 218.123 231.668 215.666 227.158 215.19C222.648 214.714 218.104 215.393 213.569 215.514C198.776 215.909 184.104 212.035 176.034 207.388C173.542 212.886 171.522 213.968 167.496 218.465C165.162 221.078 163.644 223.262 163.682 226.77C163.736 231.845 169.357 234.777 174.186 236.329C183.856 239.427 193.798 241.597 203.879 242.812C212.149 243.813 221.004 244.075 228.293 240.041C235.581 236.007 238.883 226.945 237.663 222.498Z" fill="#270041"/>
<path d="M137.808 143.871C139.144 144.483 140.676 143.821 142.071 143.358C144.638 142.508 147.373 142.343 149.999 141.707C152.626 141.071 155.295 139.822 156.372 137.55C158.322 129.708 160.279 121.825 160.963 113.772C161.647 105.719 161.011 97.4205 157.876 89.9784C156.887 89.0164 155.697 88.2861 154.392 87.8401C147.849 85.1911 140.901 83.6857 133.849 83.3895C133.79 83.3895 133.732 83.3813 133.566 83.3591C132.377 89.0353 133.202 94.9087 133.727 100.684C134.657 110.913 134.63 121.207 133.646 131.431C133.295 133.765 133.268 136.137 133.564 138.478C133.762 139.661 134.255 140.775 134.996 141.717C135.738 142.66 136.705 143.4 137.808 143.871Z" fill="#57386B"/>
<path d="M137.808 143.871C141.484 140.571 141.387 136.014 141.907 131.103C142.594 124.644 143.279 118.185 143.965 111.727C144.924 102.679 145.748 92.9348 141.307 85.0176C137.86 82.1047 133.94 79.8036 129.716 78.2139C118.08 73.312 105.716 70.3599 93.1212 69.4761C84.274 94.4071 81.9622 121.189 86.4063 147.267C103.156 149.973 120.299 148.896 136.579 144.116C136.652 143.885 137.575 142.84 137.808 143.871Z" fill="#270041"/>
<path d="M260.983 328.351C264.577 295.88 260.759 263.017 249.816 232.236C247.975 227.077 245.647 221.628 240.959 218.794C237.913 216.886 234.512 215.613 230.962 215.051C226.08 214.444 221.127 214.828 216.397 216.182C209.595 218.115 204.479 223.763 200.729 229.758C195.149 238.699 191.778 248.841 190.895 259.343C189.896 271.375 192.2 283.407 194.494 295.259L202.802 338.198C202.886 339.236 203.321 340.216 204.034 340.975C204.735 341.458 205.558 341.731 206.408 341.761C223.631 343.862 241.08 340.538 256.323 332.251C258.752 330.922 260.876 329.301 260.983 328.351Z" fill="#47265D"/>
<path d="M250.997 129.651L250.62 109.494C250.62 109.494 176.663 115.491 154.434 108.444L152.998 126.353C199.64 135.487 250.997 129.651 250.997 129.651Z" fill="#735983"/>
<path d="M154.557 159.192C160.375 159.527 166.093 157.569 170.484 153.737" stroke="#D1AD83" stroke-width="0.720726" stroke-miterlimit="10" stroke-linecap="round"/>
<path d="M209.561 220.643C202.208 228.265 190.506 236.975 191.051 268.551" stroke="#9C8AA8" stroke-width="0.568326" stroke-miterlimit="10" stroke-linecap="round"/>
<path d="M199.487 221.187C191.049 220.099 180.432 217.919 175.805 214.927" stroke="#5B3D6F" stroke-width="0.568326" stroke-miterlimit="10" stroke-linecap="round"/>
</svg>
