<svg width="400" height="360" viewBox="0 0 400 360" fill="none" xmlns="http://www.w3.org/2000/svg">
<path d="M273.713 306.899C284.41 299.959 294.099 291.578 302.508 281.993H48.1606C99.3797 327.8 206.469 349.647 273.713 306.899Z" fill="#FDEAD4"/>
<path d="M342.058 55.7985C262.713 -30.375 185.451 34.1807 174.61 101.143C163.77 168.105 56.6799 114.686 22.7568 206.146C12.4635 233.898 24.2002 260.57 48.1598 281.993H302.504C355.681 222.384 395.023 113.32 342.058 55.7985Z" fill="#FEF7EE"/>
<path d="M179.171 318.295C201.583 318.295 219.752 315.643 219.752 312.372C219.752 309.101 201.583 306.45 179.171 306.45C156.759 306.45 138.59 309.101 138.59 312.372C138.59 315.643 156.759 318.295 179.171 318.295Z" fill="#F9C688"/>
<path d="M305.397 143.045H285.546C285.562 142.933 285.588 142.822 285.598 142.709C286.005 138.123 281.164 134.625 279.504 130.477C280.166 129.208 280.792 127.921 281.381 126.616C281.925 125.407 282.241 123.62 281.033 123.073C280.124 122.661 279.126 123.381 278.398 124.063C272.399 129.686 267.16 136.068 262.813 143.046H254.149V211.825H305.521V150.82H305.399L305.397 143.045Z" fill="#E3DEE6" stroke="#E3DEE6" stroke-width="1.32115" stroke-miterlimit="10"/>
<path d="M365.4 84.8329C363.381 81.8686 360.21 81.7021 357.144 81.5406C356.401 81.501 355.63 81.4615 354.904 81.3791C347.89 80.5892 342.256 75.6155 336.808 70.8057L335.837 69.9511C319.874 55.9038 301.711 44.5743 282.074 36.4149C281.873 34.3608 281.125 33.1512 279.797 32.6297C277.267 31.6421 274.599 33.8838 270.869 40.1252C270.151 41.3273 269.416 42.6437 268.674 44.0551V28.0411H160.753V56.7171C159.615 59.0141 158.686 61.409 157.977 63.8729C157.505 61.5633 156.389 59.4345 154.757 57.7326C153.126 56.0306 151.047 54.825 148.759 54.255L148.238 55.8532L148.641 56.0215C148.759 56.0679 148.886 56.0886 149.012 56.082C151.191 56.777 153.094 58.1422 154.45 59.983C155.806 61.8238 156.547 64.046 156.565 66.3324C156.316 66.35 156.07 66.3925 155.83 66.4594C155.658 66.5098 155.49 66.5702 155.325 66.6403C154.485 64.2458 152.99 62.1349 151.011 60.547C149.031 58.959 146.646 57.9577 144.127 57.6567C144.016 57.6402 143.902 57.6462 143.793 57.6742C143.684 57.7023 143.582 57.7519 143.493 57.8202C143.404 57.8884 143.329 57.9739 143.273 58.0715C143.217 58.1691 143.182 58.277 143.168 58.3886C143.155 58.5002 143.164 58.6134 143.195 58.7215C143.226 58.8295 143.279 58.9303 143.349 59.0177C143.42 59.1051 143.508 59.1775 143.607 59.2305C143.706 59.2835 143.815 59.3161 143.927 59.3264C146.199 59.5966 148.344 60.5176 150.105 61.9788C151.866 63.4399 153.168 65.3788 153.852 67.5622C153.424 67.9217 153.026 68.3156 152.662 68.7398C151.597 69.8914 150.819 71.2779 150.391 72.7866C150.182 73.5412 150.133 74.3309 150.247 75.1055C150.36 75.8801 150.634 76.6225 151.051 77.2852C151.441 77.8776 151.975 78.3618 152.602 78.6927C153.23 79.0236 153.93 79.1905 154.64 79.1778C154.898 78.9456 155.131 78.6882 155.37 78.4375C156.086 79.5577 157.023 80.52 158.124 81.2655C158.076 83.9387 159.01 86.5366 160.75 88.5668V95.2843H253.056L245.382 114.155C243.834 115.052 243.717 117.326 242.715 118.861C242.405 119.335 242.108 119.823 241.838 120.323C241.554 119.999 241.174 119.775 240.753 119.685C240.096 119.631 239.438 119.771 238.861 120.088L219.914 128.248C217.447 129.309 214.931 130.403 212.946 132.212C211.28 133.881 209.877 135.794 208.785 137.884C208.214 138.863 207.658 139.851 207.103 140.836C206.874 140.602 206.628 140.36 206.357 140.105C204.884 138.669 203.209 137.456 201.385 136.504C199.535 134.053 196.047 133.98 194.78 135.514C194.107 134.538 192.076 133.061 190.004 133.526C189.579 133.621 189.184 133.817 188.851 134.097C188.519 134.378 188.259 134.734 188.094 135.137C187.929 135.539 187.863 135.976 187.903 136.409C187.942 136.842 188.086 137.259 188.321 137.625C188.775 138.32 189.314 138.956 189.926 139.518C189.231 140.278 188.63 141.12 188.139 142.026C187.882 142.702 187.557 143.35 187.171 143.961C185.75 145.643 183.237 146.587 181.535 147.976C181.321 148.12 181.158 148.329 181.071 148.572C180.871 149.382 182.23 149.749 182.527 150.417L182.432 150.378C182.432 150.378 177.301 152.465 176.326 156.254C174.919 161.715 186.594 163.878 189.503 161.631L189.637 161.525C190.002 162.418 190.232 163.361 190.322 164.322C189.487 164.727 188.625 165.075 187.743 165.361L189.509 168.496C188.982 168.758 188.468 169.045 187.972 169.355C184.148 171.75 181.251 175.387 178.921 179.251C177.483 181.645 176.239 184.151 175.203 186.744C170.761 193.936 170.072 208.738 171.457 211.212C165.58 209.983 159.808 208.297 154.193 206.169C151.941 205.314 149.6 204.372 147.211 204.638C143.903 205.007 141.323 207.559 138.985 209.928C130.083 218.955 127.033 223.471 117.081 231.325C116.57 231.644 116.181 232.127 115.979 232.694C115.917 233.336 116.097 233.978 116.484 234.493C116.63 234.745 116.784 234.985 116.936 235.231L114.16 236.698C114.133 236.619 114.107 236.546 114.076 236.465C110.759 233.747 107.634 230.8 104.727 227.648C101.068 223.462 97.2599 227.788 97.2498 227.8L96.698 228.102L109.438 251.381L109.988 251.079L110 251.072L110.538 250.778V250.771C115.208 248.129 118.884 245.472 118.884 245.472C118.513 245.012 118.181 244.589 117.883 244.196L121.595 241.368C122.352 242.187 123.147 242.981 123.982 243.749C135.603 235.385 140.514 230.568 151.623 221.536C158.24 224.687 164.981 227.558 171.846 230.149C173.209 230.727 174.648 231.109 176.119 231.283L185.128 254.592C186.163 257.271 187.394 260.174 189.945 261.49C191.716 262.405 193.807 262.372 195.801 262.319C208.826 261.969 216.991 261.646 230.016 261.292L229.962 258.187L237.301 256.538L237.407 256.769C240.964 259.166 244.348 261.808 247.536 264.676C251.574 268.503 254.96 263.84 254.967 263.829L255.488 263.477L240.636 241.48L240.116 241.832L240.096 241.845L239.592 242.182L239.596 242.189C235.192 245.254 231.779 248.245 231.779 248.245C231.998 248.469 232.2 248.682 232.398 248.889L229.811 249.938C229.841 249.497 229.784 249.054 229.642 248.636C229.5 248.217 229.276 247.83 228.984 247.499C228.157 246.94 227.143 246.731 226.163 246.918C219.77 247.31 218.246 247.675 211.858 248.07C210.053 248.217 208.24 248.232 206.432 248.116C206.306 247.78 206.101 247.478 205.834 247.237C205.567 246.996 205.246 246.823 204.899 246.732C204.551 246.64 204.186 246.634 203.835 246.713C203.485 246.792 203.158 246.954 202.883 247.185C202.883 247.185 203.135 245.809 202.235 245.322C201.672 245.065 201.046 244.978 200.434 245.07C198.316 239.554 197.252 233.69 197.296 227.781C197.296 227.574 197.296 227.361 197.302 227.153C200.524 222.358 200.379 215.297 198.647 213.296C199.006 204.38 199.144 195.159 203.47 187.422C205.218 184.295 207.665 181.356 208.022 177.791C208.1 176.988 208.063 176.178 207.911 175.386C208.173 174.962 208.375 174.503 208.51 174.023C209.454 170.596 210.397 167.169 211.34 163.741C212.781 158.506 214.263 153.177 217.211 148.616C217.782 147.745 218.403 146.906 219.07 146.105L229.5 146.969C229.498 147.18 229.526 147.39 229.584 147.593C229.715 147.954 229.92 148.283 230.187 148.558C230.454 148.834 230.776 149.05 231.132 149.192L230.39 151.017L234.512 152.692L235.567 150.098C235.913 150.029 236.239 149.885 236.524 149.677C237.096 149.173 237.523 148.525 237.76 147.8C238.391 146.288 238.94 144.744 239.407 143.174C239.738 142.307 239.837 141.369 239.694 140.453C239.67 140.357 239.64 140.262 239.603 140.169L243.151 131.443C244.009 131.124 244.867 130.806 245.725 130.491C245.635 130.115 245.527 129.743 245.428 129.369C246.819 129.034 248.085 128.307 249.075 127.274C250.566 125.584 251.641 123.567 252.213 121.386C252.81 119.475 253.177 117.186 251.901 115.644C251.396 115.097 250.774 114.671 250.081 114.398L257.856 95.2767H268.673V93.369C280.281 98.2956 293.473 99.655 307.964 100.697C318.478 101.454 329.138 102.141 339.635 102.745C341.607 102.859 343.69 102.979 345.813 102.979C348.738 103.031 351.658 102.701 354.497 101.997C359.559 100.643 365.37 96.9246 366.499 90.5486C366.896 88.5729 366.501 86.5203 365.4 84.8329ZM235.811 137.691C235.45 137.552 235.065 137.488 234.679 137.504C234.293 137.52 233.914 137.615 233.566 137.784C233.017 138.125 232.584 138.626 232.327 139.22C230.95 138.82 229.544 138.53 228.122 138.352C228.718 137.98 229.321 137.623 229.931 137.279C232.361 135.93 234.869 134.726 237.441 133.673L235.811 137.691ZM277.705 37.9937C277.558 41.5704 275.819 49.9382 271.007 62.2763C270.215 64.3086 269.435 66.1919 268.673 67.9542V54.3745C272.477 45.6382 275.796 40.2455 277.705 37.9937ZM159.835 82.2387C160.135 82.3812 160.441 82.513 160.751 82.6341V85.494C160.251 84.4733 159.941 83.3703 159.835 82.2387ZM365.623 90.3938C364.567 96.3585 359.062 99.8543 354.268 101.138C349.473 102.422 344.274 102.122 339.686 101.858C329.195 101.254 318.544 100.565 308.028 99.8097C293.476 98.7642 280.247 97.4049 268.674 92.4075V78.3248C271.088 73.6325 273.25 68.8147 275.151 63.8922C277.713 57.498 279.766 50.9114 281.291 44.1939C281.811 41.9664 282.093 39.6902 282.132 37.4032C301.528 45.5125 319.471 56.7318 335.254 70.619L336.222 71.4727C341.773 76.3742 347.515 81.4422 354.811 82.2631C355.568 82.3473 356.348 82.3893 357.105 82.4314C360.085 82.5878 362.9 82.7367 364.675 85.3367C365.642 86.8331 365.982 88.649 365.623 90.3938Z" fill="#E3DEE6" stroke="#E3DEE6" stroke-width="1.32115" stroke-miterlimit="10"/>
<path d="M92.3088 135.236C84.5853 135.836 75.3443 140.331 69.3006 145.805C74.0979 140.554 77.8773 134.457 80.446 127.825C79.5569 125.565 77.5145 120.619 74.6992 121.003C69.7086 126.042 65.8922 134.383 64.5211 141.968C64.3756 141.488 64.2012 141.017 63.9988 140.558C62.6535 137.591 60.2424 135.237 57.2434 133.964C57.1615 133.93 57.0735 133.912 56.9846 133.911C56.8957 133.911 56.8076 133.928 56.7253 133.962C56.6431 133.995 56.5682 134.045 56.505 134.107C56.4419 134.17 56.3917 134.244 56.3573 134.326C56.3228 134.408 56.3049 134.496 56.3045 134.585C56.3041 134.674 56.3212 134.762 56.3548 134.844C56.3884 134.926 56.4379 135.001 56.5005 135.065C56.563 135.128 56.6374 135.178 56.7194 135.212C59.0651 136.196 61.0183 137.931 62.2731 140.144C63.5279 142.356 64.0135 144.923 63.6539 147.441C63.3305 147.401 63.0033 147.401 62.6798 147.441C62.4472 147.474 62.2172 147.524 61.9918 147.591C60.9019 145.123 59.1177 143.025 56.8567 141.554C54.5956 140.082 51.9553 139.3 49.2574 139.302C49.0773 139.304 48.9049 139.376 48.7765 139.502C48.648 139.629 48.5735 139.8 48.5685 139.98C48.5688 140.159 48.6396 140.33 48.7656 140.457C48.8917 140.584 49.0627 140.656 49.2415 140.657H49.2532C51.6831 140.655 54.0614 141.357 56.0998 142.68C58.1382 144.002 59.7489 145.888 60.7368 148.108C60.1394 148.445 59.5774 148.841 59.0595 149.29C57.7829 150.307 56.7642 151.611 56.086 153.096C55.7525 153.84 55.5779 154.645 55.5733 155.46C55.5686 156.275 55.7341 157.082 56.0591 157.829C56.7623 159.295 58.3512 160.363 59.4531 160.339C59.7551 160.142 60.042 159.929 60.3296 159.709C60.6496 160.441 61.0599 161.13 61.551 161.759C61.5136 161.8 61.4816 161.846 61.4559 161.896C61.1696 162.559 61.02 163.274 61.0161 163.996C61.0122 164.719 61.1541 165.435 61.4332 166.101C61.4678 166.183 61.5181 166.258 61.5813 166.32C61.6446 166.383 61.7195 166.432 61.8019 166.466C61.8843 166.499 61.9724 166.516 62.0614 166.516C62.1503 166.515 62.2383 166.497 62.3202 166.463C62.4022 166.428 62.4766 166.378 62.5391 166.315C62.6016 166.251 62.651 166.176 62.6846 166.094C62.7181 166.012 62.7351 165.923 62.7346 165.834C62.7341 165.746 62.716 165.658 62.6815 165.576C62.3352 164.719 62.2912 163.769 62.557 162.884C62.8815 163.205 63.2244 163.508 63.5841 163.789C64.1847 164.247 64.8187 164.66 65.4809 165.023C65.3607 166.202 64.9008 167.32 64.1569 168.242C64.1003 168.311 64.0578 168.39 64.0317 168.475C64.0056 168.56 63.9966 168.649 64.0051 168.738C64.0135 168.826 64.0394 168.912 64.0811 168.991C64.1228 169.069 64.1796 169.139 64.2482 169.196C64.3168 169.252 64.3958 169.295 64.4809 169.321C64.5659 169.347 64.6553 169.356 64.7438 169.347C64.8323 169.339 64.9183 169.313 64.9969 169.271C65.0755 169.23 65.145 169.173 65.2016 169.104C66.0092 168.114 66.5463 166.932 66.7603 165.672L66.9285 165.752C66.6959 166.466 66.618 167.221 66.7001 167.967C66.7822 168.713 67.0224 169.433 67.4046 170.078C67.5006 170.226 67.65 170.33 67.8214 170.369C67.9928 170.408 68.1727 170.379 68.3232 170.289C68.4737 170.198 68.583 170.052 68.628 169.882C68.6731 169.712 68.6503 169.531 68.5646 169.378C68.2947 168.915 68.1213 168.403 68.055 167.872C67.9886 167.341 68.0306 166.802 68.1785 166.287C69.1155 166.66 70.0719 166.991 71.025 167.309C71.4366 167.447 71.8499 167.583 72.2649 167.716C72.1213 168.84 71.6672 169.903 70.9535 170.784C70.839 170.923 70.7846 171.102 70.8021 171.282C70.8196 171.461 70.9076 171.626 71.0468 171.74C71.1861 171.855 71.365 171.909 71.5444 171.892C71.7237 171.874 71.8888 171.786 72.0032 171.647C72.8338 170.631 73.3785 169.411 73.5813 168.114C74.6845 168.445 75.8046 168.718 76.9366 168.93C76.9443 169.977 77.2918 170.994 77.9267 171.826C77.9811 171.897 78.0489 171.955 78.1261 172C78.2034 172.044 78.2885 172.072 78.3767 172.083C78.465 172.095 78.5545 172.088 78.6403 172.065C78.7261 172.042 78.8065 172.001 78.8768 171.947C78.9471 171.893 79.006 171.825 79.0501 171.748C79.0942 171.67 79.1227 171.585 79.1339 171.497C79.1451 171.409 79.1388 171.319 79.1154 171.233C79.092 171.148 79.0519 171.067 78.9975 170.997C78.5889 170.456 78.3487 169.807 78.3069 169.13C79.0573 169.222 79.8128 169.265 80.5688 169.26C81.3657 169.25 82.1602 169.171 82.9434 169.024C82.9202 170.393 82.4409 171.715 81.5815 172.781C81.5249 172.85 81.4824 172.929 81.4563 173.014C81.4303 173.099 81.4212 173.188 81.4297 173.277C81.4468 173.455 81.5343 173.62 81.6728 173.734C81.8113 173.849 81.9896 173.903 82.1684 173.886C82.3472 173.869 82.5119 173.782 82.6262 173.643C83.7605 172.251 84.3516 170.494 84.2901 168.699C85.3669 168.384 86.3897 167.908 87.3233 167.286C87.4612 167.192 87.6034 167.105 87.7363 167.004C88.3061 166.577 88.8213 166.081 89.2706 165.529C87.9163 159.912 84.8806 154.56 80.0683 151.298C79.0821 150.634 78.0264 150.08 76.9198 149.645C82.2543 148.57 87.4025 146.719 92.2003 144.151C93.0011 141.864 94.6902 136.786 92.3088 135.236ZM66.1858 149.036L66.2699 148.958C66.2455 148.988 66.2169 149.017 66.1925 149.047L66.1858 149.036Z" fill="#E3DEE6" stroke="#E3DEE6" stroke-width="1.32115" stroke-miterlimit="10"/>
<path d="M305.519 150.816H254.147V211.824H305.519V150.816Z" fill="#DCEFF3"/>
<path d="M263.554 166.868H294.911" stroke="#A9D9E1" stroke-width="1.91982" stroke-linecap="round" stroke-linejoin="round"/>
<path d="M263.554 177.358H294.911" stroke="#A9D9E1" stroke-width="1.91982" stroke-linecap="round" stroke-linejoin="round"/>
<path d="M263.554 187.849H294.911" stroke="#A9D9E1" stroke-width="1.91982" stroke-linecap="round" stroke-linejoin="round"/>
<path d="M263.554 198.339H294.911" stroke="#A9D9E1" stroke-width="1.91982" stroke-linecap="round" stroke-linejoin="round"/>
<path d="M305.397 143.045H254.147V156.05H305.397V143.045Z" fill="#AEDBE3"/>
<path d="M268.673 28.0411H160.751V95.2792H268.673V28.0411Z" fill="#DCEFF3"/>
<path d="M257.551 69.9822H212.123V86.3049H257.551V69.9822Z" fill="#AEDBE3"/>
<path d="M257.551 47.0639H212.123V63.1788H257.551V47.0639Z" fill="#AEDBE3"/>
<path d="M268.416 28.0411H160.751V40.5467H268.416V28.0411Z" fill="#AEDBE3"/>
<path d="M113.305 237.147L120.202 233.496L124.461 239.176L115.941 245.666L113.305 237.147Z" fill="#805430"/>
<path d="M237.552 256.476L229.402 258.308L226.598 251.244L237.223 246.934L237.552 256.476Z" fill="#805430"/>
<path d="M172.613 211.449C166.336 210.202 160.174 208.434 154.191 206.164C151.939 205.31 149.599 204.368 147.21 204.634C143.901 205.003 141.322 207.555 138.983 209.924C130.081 218.951 127.031 223.467 117.079 231.321C116.568 231.64 116.179 232.122 115.977 232.69C115.915 233.332 116.095 233.973 116.482 234.489C118.506 237.93 121.035 241.049 123.983 243.741C135.604 235.378 140.515 230.56 151.624 221.528C158.241 224.679 164.982 227.55 171.846 230.142C173.773 230.868 175.828 231.584 177.849 231.192C178.802 230.977 179.697 230.557 180.471 229.96C181.245 229.363 181.879 228.604 182.329 227.736C183.216 225.984 183.55 224.004 183.285 222.058C182.66 216.633 177.973 212.514 172.613 211.449Z" fill="#028EA7"/>
<path d="M188.941 160.073C191.071 163.876 190.311 166.615 189.854 169.353L198.83 168.897L200.96 159.921L188.941 160.073Z" fill="#805430"/>
<path d="M258.618 87.5011L232.451 151.853" stroke="#454E70" stroke-width="1.86479" stroke-miterlimit="10"/>
<path d="M238.216 139.232C237.58 138.643 236.859 138.152 236.077 137.776C235.684 137.591 235.255 137.496 234.821 137.497C234.386 137.499 233.958 137.596 233.566 137.784C232.749 138.375 232.162 139.229 231.902 140.203L229.967 145.166C229.579 145.914 229.445 146.77 229.588 147.601C229.94 148.81 231.315 149.349 232.518 149.722C233.844 150.133 235.409 150.509 236.524 149.681C237.096 149.177 237.523 148.529 237.76 147.805C238.391 146.293 238.941 144.748 239.407 143.178C239.738 142.312 239.837 141.374 239.694 140.457C239.478 139.555 238.661 138.734 238.216 139.232Z" fill="#805430"/>
<path d="M224.038 138.139C226.847 138.071 229.65 138.438 232.348 139.225C232.746 139.303 233.112 139.5 233.398 139.788C233.543 140.031 233.637 140.301 233.676 140.581C233.715 140.861 233.697 141.146 233.625 141.419L233.126 145.175C233.161 145.48 233.117 145.789 232.999 146.072C232.882 146.356 232.693 146.604 232.452 146.794C232.211 146.984 231.926 147.11 231.623 147.158C231.32 147.207 231.009 147.177 230.721 147.072L217.346 145.965C217.322 143.789 218.156 141.691 219.668 140.126C221.169 138.586 223.297 137.677 224.038 138.139Z" fill="#F7B668"/>
<path d="M173.363 221.627C171.36 214.556 170.819 207.151 171.774 199.864C172.728 192.578 175.158 185.562 178.915 179.246C181.244 175.381 184.141 171.744 187.966 169.349C191.79 166.955 196.656 165.94 200.909 167.446C205.163 168.952 208.474 173.305 208.023 177.792C207.666 181.357 205.219 184.296 203.471 187.423C198.785 195.802 199.013 205.92 198.552 215.51C198.334 220.062 197.832 224.88 195.077 228.511C193.407 230.611 191.109 232.12 188.518 232.818C185.928 233.516 183.182 233.364 180.684 232.387C175.754 230.331 172.566 224.725 173.363 221.627Z" fill="#FAD2A2"/>
<path d="M201.224 247.014C198.584 240.949 197.248 234.398 197.301 227.785C197.318 225.775 197.373 223.51 195.964 222.077C194.366 220.453 191.704 220.718 189.512 221.33C186.604 222.218 183.761 223.309 181.005 224.595L175.958 226.806C175.625 226.914 175.332 227.119 175.117 227.394C175.015 227.643 174.971 227.912 174.988 228.18C175.004 228.448 175.082 228.709 175.214 228.943L185.123 254.583C186.158 257.261 187.389 260.165 189.94 261.481C191.711 262.396 193.802 262.363 195.796 262.31C208.821 261.959 216.986 261.637 230.011 261.283L229.822 250.326C229.804 249.317 229.738 248.18 228.98 247.501C228.154 246.942 227.14 246.733 226.159 246.919C219.766 247.311 218.243 247.676 211.854 248.072C208.089 248.303 204.026 248.46 200.871 246.389C200.971 246.463 201.053 246.557 201.114 246.664C201.174 246.772 201.212 246.891 201.224 247.014Z" fill="#44ABBE"/>
<path d="M278.39 35.3997C299.312 43.6429 318.648 55.4456 335.544 70.2851C341.27 75.3203 347.274 80.9678 354.852 81.8207C358.504 82.2321 362.652 81.5928 365.03 85.0828C366.063 86.6759 366.433 88.6094 366.061 90.4712C365.035 96.2626 359.851 100.105 354.381 101.568C349.614 102.843 344.587 102.585 339.661 102.301C329.101 101.694 318.546 101.011 307.996 100.253C291.516 99.0687 274.366 97.4882 260.471 88.5668C263.221 85.4663 278.902 56.9224 278.39 35.3997Z" stroke="#523367" stroke-width="0.372887" stroke-miterlimit="10"/>
<path d="M262.979 84.7117C286.886 93.8677 312.961 98.3696 338.515 99.8197C347.375 100.324 356.774 100.149 364.145 95.2093" stroke="#523367" stroke-width="0.372887" stroke-miterlimit="10"/>
<path d="M269.369 72.2373C291.428 81.7687 314.564 88.5797 338.269 92.5202C347.665 94.057 357.918 94.9831 366.143 90.1876" stroke="#523367" stroke-width="0.372887" stroke-miterlimit="10"/>
<path d="M273.527 62.0947C302.78 74.6045 334.519 83.7445 366.044 88.0302" stroke="#523367" stroke-width="0.372887" stroke-miterlimit="10"/>
<path d="M276.367 50.0256C276.175 49.9499 306.959 62.5749 321.329 70.3186C335.608 78.0135 349.413 85.6277 365.618 86.3351" stroke="#523367" stroke-width="0.372887" stroke-miterlimit="10"/>
<path d="M278.154 39.5533C299.134 48.6362 318.902 60.2972 337 74.2671C341.638 77.8479 346.433 81.7038 352.206 82.7048C356.957 83.5291 361.789 82.1328 365.314 85.4217" stroke="#523367" stroke-width="0.372887" stroke-miterlimit="10"/>
<path d="M357.809 100.331C360.825 97.9163 361.557 96.2045 362.629 92.4916C363.701 88.7788 362.851 84.5132 359.736 82.2295" stroke="#523367" stroke-width="0.372887" stroke-miterlimit="10"/>
<path d="M351.166 102.207C352.863 101.163 354.311 99.7608 355.409 98.0976C356.506 96.4345 357.226 94.5511 357.518 92.58C358.166 88.5719 357.488 84.9095 354.852 81.8207" stroke="#523367" stroke-width="0.372887" stroke-miterlimit="10"/>
<path d="M345.9 102.706C349.81 95.6401 351.227 87.8257 348.884 80.0938" stroke="#523367" stroke-width="0.372887" stroke-miterlimit="10"/>
<path d="M337.829 102.056C343.647 93.9896 344.359 83.55 340.415 74.4175" stroke="#523367" stroke-width="0.372887" stroke-miterlimit="10"/>
<path d="M326.673 101.649C333.681 91.6722 335.555 79.6176 332.656 67.7749" stroke="#523367" stroke-width="0.372887" stroke-miterlimit="10"/>
<path d="M318.525 101.141C324.979 89.0997 327.399 75.3052 325.43 61.7859" stroke="#523367" stroke-width="0.372887" stroke-miterlimit="10"/>
<path d="M311.155 100.534C319.062 86.9912 321.758 72.2768 318.557 56.9222" stroke="#523367" stroke-width="0.372887" stroke-miterlimit="10"/>
<path d="M299.795 99.7223C310.007 85.4495 312.962 67.8424 309.025 50.7357" stroke="#523367" stroke-width="0.372887" stroke-miterlimit="10"/>
<path d="M285.394 97.6942C297.939 83.0303 302.102 62.2301 296.555 43.7481" stroke="#523367" stroke-width="0.372887" stroke-miterlimit="10"/>
<path d="M271.485 94.2329C285.634 80.1384 294.099 59.2567 289.248 39.8839" stroke="#523367" stroke-width="0.372887" stroke-miterlimit="10"/>
<path d="M278.982 127.222C278.416 132.949 286.107 136.98 285.598 142.708C285.406 144.873 284.042 146.731 282.729 148.463C281.346 150.286 279.802 152.221 277.592 152.812C273.638 153.87 269.555 150.145 265.601 151.214C264.979 151.446 264.337 151.623 263.683 151.743C263.354 151.796 263.017 151.744 262.719 151.594C262.421 151.445 262.179 151.205 262.025 150.909C261.903 150.37 261.994 149.806 262.278 149.332C266.126 140.808 271.834 133.253 278.982 127.222Z" fill="#62B9C8"/>
<path d="M259.351 154.68C268.859 147.247 276.418 137.616 281.381 126.615C281.925 125.406 282.241 123.619 281.033 123.072C280.124 122.661 279.126 123.38 278.398 124.062C269.034 132.838 261.553 143.427 256.411 155.185C257.999 155.832 260.033 154.951 259.351 154.68Z" fill="#2DA1B6"/>
<path d="M274.528 130.643C270.531 135.107 266.945 139.924 263.814 145.033C263.211 145.973 262.597 147.083 262.93 148.145C264.166 148.068 265.123 147.08 265.95 146.158C269.904 141.748 273.923 137.246 276.373 131.853C276.586 131.458 276.703 131.019 276.715 130.57C276.716 130.346 276.644 130.128 276.51 129.948C276.376 129.768 276.188 129.636 275.973 129.572C275.535 129.489 274.056 130.812 274.528 130.643Z" fill="#028EA7"/>
<path d="M158.962 80.9982C158.899 82.4825 159.162 83.9626 159.735 85.3335C160.308 86.7043 161.175 87.9324 162.276 88.9303" stroke="#4C5576" stroke-width="0.705556" stroke-miterlimit="10" stroke-linecap="round"/>
<path d="M165.135 83.1111C165.187 84.5265 165.665 85.8933 166.507 87.0322C167.349 88.1712 168.515 89.0292 169.853 89.4939" stroke="#4C5576" stroke-width="0.705556" stroke-miterlimit="10" stroke-linecap="round"/>
<path d="M174.398 84.3198C174.636 85.5417 175.172 86.6857 175.96 87.6499C176.747 88.6142 177.761 89.3687 178.91 89.8462" stroke="#4C5576" stroke-width="0.705556" stroke-miterlimit="10" stroke-linecap="round"/>
<path d="M179.412 81.6711C179.516 82.2201 179.735 82.7409 180.054 83.1997C180.372 83.6585 180.784 84.0451 181.262 84.3343" stroke="#19254F" stroke-width="0.705556" stroke-miterlimit="10" stroke-linecap="round"/>
<path d="M169.605 82.8428C169.578 83.542 169.717 84.2377 170.012 84.8724C170.306 85.5071 170.747 86.0627 171.299 86.4935" stroke="#19254F" stroke-width="0.705556" stroke-miterlimit="10" stroke-linecap="round"/>
<path d="M161.71 81.4355C161.691 82.0418 161.793 82.6456 162.011 83.2116C162.229 83.7776 162.558 84.2942 162.979 84.7312" stroke="#19254F" stroke-width="0.705556" stroke-miterlimit="10" stroke-linecap="round"/>
<path d="M160.481 68.7593C169.152 67.5417 177.424 64.3371 184.652 59.3955C185.168 57.1244 186.22 52.0875 183.776 50.8704C174.474 52.6847 163.495 60.796 159.53 68.3892C159.856 68.4893 160.173 68.613 160.481 68.7593Z" fill="#97D1DB"/>
<path d="M157.226 68.5026C157.751 65.5816 157.148 62.5702 155.538 60.0769C153.928 57.5836 151.432 55.7944 148.554 55.071L148.96 55.2392" stroke="#19254F" stroke-width="0.705556" stroke-miterlimit="10" stroke-linecap="round"/>
<path d="M155.048 68.8315C154.555 66.1574 153.219 63.7111 151.237 61.8498C149.255 59.9885 146.729 58.8096 144.029 58.4852" stroke="#19254F" stroke-width="0.705556" stroke-miterlimit="10" stroke-linecap="round"/>
<path d="M154.64 79.1726C156.245 77.6908 157.504 75.8735 158.326 73.85C159.149 71.8265 159.515 69.6466 159.4 67.4654C158.974 66.959 158.406 66.592 157.769 66.4121C157.133 66.2321 156.457 66.2474 155.829 66.456C154.578 66.8993 153.48 67.6904 152.663 68.7364C151.598 69.8879 150.82 71.2744 150.392 72.7832C150.183 73.5377 150.134 74.3275 150.248 75.1021C150.361 75.8767 150.635 76.619 151.052 77.2817C151.442 77.8739 151.976 78.3577 152.603 78.6883C153.231 79.0189 153.931 79.1855 154.64 79.1726Z" fill="#19254F"/>
<path d="M172.905 67.5976C168.615 65.557 163.221 65.4947 159.237 67.9114C172.315 67.1081 179.193 74.9569 182.465 81.4027C182.944 80.9141 183.362 80.3686 183.708 79.7785C181.606 74.6406 177.948 69.9974 172.905 67.5976Z" fill="#F49727"/>
<path d="M159.237 67.9114C158.525 68.3367 157.865 68.8415 157.268 69.4162C155.847 70.7965 153.932 73.1711 154.353 75.7888C154.773 78.4065 156.746 80.5674 159.063 81.8502C161.445 83.0228 164.007 83.7887 166.641 84.1163C169.708 84.7903 172.866 84.9498 175.985 84.5882C178.425 84.236 180.692 83.1224 182.462 81.4061C179.193 74.9569 172.315 67.108 159.237 67.9114Z" fill="#F7AF59"/>
<path d="M157.832 71.3609C164.897 66.1875 170.671 59.4511 174.703 51.6778C174.081 49.4294 172.629 44.4977 169.9 44.5809C162.561 50.5776 156.721 62.9132 156.819 71.4821C157.153 71.4174 157.492 71.3769 157.832 71.3609Z" fill="#53B2C3"/>
<path d="M273.079 63.084C278.817 48.3754 281.462 35.6693 278.988 34.7041C276.513 33.7389 269.856 44.8801 264.119 59.5887C258.381 74.2973 255.736 87.0034 258.21 87.9686C260.684 88.9338 267.341 77.7926 273.079 63.084Z" stroke="#454E70" stroke-width="1.86479" stroke-miterlimit="10"/>
<path d="M77.6778 168.133C77.5706 168.704 77.5848 169.291 77.7192 169.856C77.8537 170.421 78.1055 170.952 78.4584 171.413" stroke="#19254F" stroke-width="0.567973" stroke-miterlimit="10" stroke-linecap="round"/>
<path d="M67.7285 165.548C67.4364 166.215 67.307 166.942 67.3509 167.669C67.3948 168.395 67.6107 169.101 67.9808 169.728" stroke="#19254F" stroke-width="0.567973" stroke-miterlimit="10" stroke-linecap="round"/>
<path d="M62.0775 162.166C61.8293 162.747 61.6996 163.371 61.6962 164.002C61.6927 164.634 61.8155 165.259 62.0574 165.842" stroke="#19254F" stroke-width="0.567973" stroke-miterlimit="10" stroke-linecap="round"/>
<path d="M59.7804 157.866C60.2649 160.246 61.622 162.359 63.585 163.79C65.8518 165.37 68.3668 166.559 71.0259 167.31C74.1188 168.344 77.3034 169.297 80.5646 169.263C82.9598 169.273 85.3063 168.587 87.3191 167.289C79.5426 165.12 67.938 158.643 59.7804 157.866Z" fill="#E83C65"/>
<path d="M87.7329 167.007C85.3777 159.857 79.535 150.705 65.9536 149.477C65.1552 149.803 64.3964 150.219 63.6918 150.716C62.0094 151.913 59.6693 154.055 59.6912 156.812C59.6945 157.165 59.7245 157.518 59.7812 157.866C67.9404 158.64 79.5434 165.12 87.3199 167.287C87.457 167.196 87.5992 167.108 87.7329 167.007Z" fill="#EE6988"/>
<path d="M65.1318 150.038C71.8777 143.912 77.117 136.31 80.4409 127.825C79.5526 125.565 77.5103 120.619 74.6941 121.003C67.7537 128.012 63.0558 141.418 64.0955 150.276C64.4346 150.171 64.781 150.092 65.1318 150.038Z" fill="#97D1DB"/>
<path d="M63.791 149.769C64.7906 146.846 64.6432 143.653 63.3786 140.834C62.114 138.016 59.8265 135.782 56.9785 134.586" stroke="#19254F" stroke-width="0.567973" stroke-miterlimit="10" stroke-linecap="round"/>
<path d="M61.922 149.295C61.0777 146.594 59.3921 144.233 57.1112 142.557C54.8302 140.882 52.0734 139.979 49.2432 139.981" stroke="#19254F" stroke-width="0.567973" stroke-miterlimit="10" stroke-linecap="round"/>
<path d="M80.0641 151.301C75.9736 148.525 70.4312 147.619 65.9528 149.478C79.535 150.706 85.3786 159.862 87.7321 167.007C88.3019 166.58 88.8171 166.085 89.2664 165.532C87.9121 159.916 84.873 154.563 80.0641 151.301Z" fill="#EE6988"/>
<path d="M66.0849 150.948C75.1957 150.725 84.1318 148.4 92.1961 144.155C93.0011 141.864 94.6902 136.787 92.3088 135.238C82.474 136.003 70.1535 143.074 65.1461 150.454C65.4708 150.595 65.7846 150.76 66.0849 150.948Z" fill="#53B2C3"/>
<path d="M66.0723 163.084C66.2647 164.061 66.2398 165.068 65.9992 166.034C65.7586 167.001 65.3082 167.902 64.6801 168.674" stroke="#4C5576" stroke-width="0.567973" stroke-miterlimit="10" stroke-linecap="round"/>
<path d="M72.8696 165.624C73.062 166.601 73.0369 167.609 72.7962 168.575C72.5554 169.541 72.1049 170.442 71.4767 171.215" stroke="#4C5576" stroke-width="0.567973" stroke-miterlimit="10" stroke-linecap="round"/>
<path d="M83.4918 167.626C83.6842 168.602 83.6591 169.61 83.4183 170.576C83.1776 171.542 82.7271 172.443 82.0989 173.215" stroke="#4C5576" stroke-width="0.567973" stroke-miterlimit="10" stroke-linecap="round"/>
<path d="M59.454 160.341C61.338 159.069 62.9184 157.397 64.0828 155.444C65.2472 153.492 65.967 151.307 66.1909 149.044C65.8324 148.457 65.3058 147.99 64.6792 147.705C64.0526 147.42 63.355 147.33 62.6765 147.446C61.3192 147.706 60.0643 148.348 59.0595 149.297C57.7827 150.314 56.7639 151.618 56.086 153.103C55.7527 153.847 55.5782 154.652 55.5736 155.467C55.5689 156.282 55.7343 157.089 56.0591 157.836C56.7623 159.296 58.3521 160.365 59.454 160.341Z" fill="#19254F"/>
<path d="M201.834 162.277L200.057 158.962C198.432 160.326 196.642 161.479 194.729 162.395C192.361 163.343 188.454 165.237 187.743 165.355L189.875 169.141L196.979 166.299L201.834 162.277Z" fill="#F7B668"/>
<path d="M200.882 161.542C202.111 159.943 203.589 158.537 204.707 156.86C207.439 152.76 208.862 147.89 206.42 143.78C204.381 140.349 199.198 137.278 195.187 137.77C192.423 138.107 190.729 137.484 188.137 142.017C187.88 142.692 187.556 143.34 187.169 143.951C185.748 145.634 183.236 146.577 181.533 147.967C181.319 148.111 181.157 148.32 181.07 148.562C180.832 149.526 182.803 149.86 182.565 150.822C182.502 151.01 182.396 151.181 182.255 151.321L180.88 152.907C180.485 153.304 180.176 153.779 179.974 154.301C179.604 155.505 180.425 156.696 181.297 157.551C182.947 159.169 184.936 160.402 187.119 161.159L200.882 161.542Z" fill="#805430"/>
<path d="M182.433 150.372C182.433 150.372 177.302 152.459 176.326 156.248C174.92 161.709 186.594 163.872 189.504 161.625C191.543 160.09 193.433 158.367 195.149 156.478C195.354 156.113 192.59 155.341 193.862 153.482C195.134 151.623 195.565 149.791 197.101 150.22C197.466 150.377 197.876 150.398 198.256 150.277C198.635 150.157 198.959 149.903 199.166 149.563L200.061 145.03C200.061 145.03 195.374 147.41 193.344 150.553C191.097 154.036 182.433 150.372 182.433 150.372Z" fill="#232834"/>
<path d="M200.062 145.03C198.579 145.289 190.65 141.381 188.32 137.616C188.084 137.25 187.941 136.833 187.901 136.399C187.861 135.966 187.927 135.53 188.092 135.127C188.257 134.725 188.517 134.368 188.85 134.088C189.182 133.808 189.577 133.612 190.002 133.517C192.074 133.051 194.101 134.526 194.777 135.504C194.777 135.504 199.397 133.53 206.355 140.095C208.794 142.398 209.395 143.594 210.115 147.72C211.058 153.123 207.365 156.535 205.627 158.224C203.888 159.913 203.763 160.627 203.876 162.272C203.876 162.272 203.083 162.576 201.552 161.07C201.589 162.314 201.757 163.549 202.052 164.757C202.052 164.757 196.47 163.305 195.996 156.382C195.996 156.382 198.737 153.18 198.035 150.961C196.853 147.238 200.062 145.03 200.062 145.03Z" fill="#232834"/>
<path d="M193.073 158.465C194.179 157.896 196.921 159.134 197.388 159.156L196.492 156.717C195.808 156.548 195.154 156.274 194.554 155.904L193.073 158.465Z" fill="#232834"/>
<path d="M196.525 150.429C196.843 150.355 197.175 150.374 197.481 150.485C197.788 150.596 198.056 150.793 198.253 151.052C198.548 151.373 198.777 151.749 198.925 152.159C199.074 152.568 199.141 153.003 199.12 153.439C199.094 153.883 198.965 154.316 198.745 154.703C198.525 155.09 198.219 155.421 197.85 155.671C197.335 156.122 196.676 156.374 195.992 156.382C195.254 156.228 194.574 155.872 194.027 155.354" fill="#805430"/>
<path d="M196.525 150.429C196.843 150.355 197.175 150.374 197.481 150.485C197.788 150.596 198.056 150.793 198.253 151.052C198.548 151.373 198.777 151.749 198.925 152.159C199.074 152.568 199.141 153.003 199.12 153.439C199.094 153.883 198.965 154.316 198.745 154.703C198.525 155.09 198.219 155.421 197.85 155.671C197.335 156.122 196.676 156.374 195.992 156.382C195.254 156.228 194.574 155.872 194.027 155.354" stroke="#603C25" stroke-width="0.468489" stroke-miterlimit="10" stroke-linecap="round"/>
<path d="M194.883 153.534C195.019 153.542 195.155 153.518 195.279 153.463C195.404 153.409 195.514 153.326 195.601 153.222C195.688 153.115 195.75 152.989 195.782 152.855C195.814 152.721 195.816 152.581 195.786 152.446C196.021 152.288 196.299 152.208 196.582 152.216C196.721 152.222 196.856 152.257 196.98 152.32C197.104 152.382 197.213 152.47 197.3 152.577C197.435 152.773 197.497 153.01 197.474 153.246C197.452 153.482 197.346 153.703 197.177 153.87" fill="#805430"/>
<path d="M194.883 153.534C195.019 153.542 195.155 153.518 195.279 153.463C195.404 153.409 195.514 153.326 195.601 153.222C195.688 153.115 195.75 152.989 195.782 152.855C195.814 152.721 195.816 152.581 195.786 152.446C196.021 152.288 196.299 152.208 196.582 152.216C196.721 152.222 196.856 152.257 196.98 152.32C197.104 152.382 197.213 152.47 197.3 152.577C197.435 152.773 197.497 153.01 197.474 153.246C197.452 153.482 197.346 153.703 197.177 153.87" stroke="#603C25" stroke-width="0.234245" stroke-miterlimit="10" stroke-linecap="round"/>
<path d="M203.577 143.754C200.909 143.464 196.478 141.598 194.645 139.818" stroke="#404A6D" stroke-width="0.372887" stroke-linecap="round" stroke-linejoin="round"/>
<path d="M206.523 146.765C205.222 147.672 201.242 153.376 201.845 156.27" stroke="#29345B" stroke-width="0.372887" stroke-linecap="round" stroke-linejoin="round"/>
<path d="M188.036 144.761L190.423 146.586" stroke="#603C25" stroke-width="0.468489" stroke-miterlimit="10" stroke-linecap="round"/>
<path d="M188.428 145.85C188.89 145.85 189.265 145.476 189.265 145.014C189.265 144.551 188.89 144.177 188.428 144.177C187.966 144.177 187.591 144.551 187.591 145.014C187.591 145.476 187.966 145.85 188.428 145.85Z" fill="#603C25"/>
<path d="M194.776 135.504C196.061 133.949 199.627 134.041 201.46 136.591L197.821 137.783L194.776 135.504Z" fill="#232834"/>
<path d="M242.991 129.384C244.1 129.573 245.239 129.479 246.303 129.111C247.366 128.742 248.319 128.111 249.073 127.275C250.565 125.584 251.639 123.568 252.212 121.387C252.809 119.476 253.176 117.187 251.9 115.645C250.69 114.183 247.242 113.219 245.534 114.046C243.827 114.874 243.751 117.266 242.715 118.854C241.691 120.245 241.014 121.86 240.739 123.565C240.465 126.297 242.17 129.194 242.991 129.384Z" fill="#805430"/>
<path d="M208.516 174.026L211.346 163.745C212.787 158.509 214.269 153.181 217.217 148.62C220.329 143.802 224.937 140.096 229.934 137.279C234.93 134.462 240.34 132.471 245.724 130.492C245.01 127.533 244.027 124.645 242.787 121.864C242.367 120.917 241.773 119.871 240.753 119.677C240.097 119.623 239.438 119.764 238.861 120.081L219.914 128.24C217.447 129.302 214.931 130.395 212.946 132.205C211.28 133.874 209.877 135.786 208.784 137.876C201.647 150.098 195.45 162.844 190.247 176.005C191.477 177.327 192.998 178.346 194.689 178.979C196.381 179.613 198.196 179.845 199.992 179.657C203.571 179.251 207.607 177.332 208.516 174.026Z" fill="#FAD2A2"/>
<path d="M197.207 227.311C200.554 222.494 200.404 215.242 198.627 213.264C198.627 213.264 183.667 216.713 171.496 211.286C171.074 217.596 172.464 223.895 175.503 229.44L190.463 231.266L197.207 227.311Z" fill="#44ABBE"/>
<path d="M206.469 248.195C206.353 247.846 206.153 247.532 205.887 247.279C205.621 247.026 205.298 246.842 204.944 246.743C204.591 246.644 204.219 246.633 203.86 246.711C203.501 246.789 203.167 246.953 202.887 247.19C202.887 247.19 203.139 245.814 202.239 245.327C200.757 244.528 198.08 245.685 198.08 245.685L201.808 248.841L205.465 250.346L206.469 248.195Z" fill="#44ABBE"/>
<path d="M114.078 236.46C115.508 240.567 115.903 241.772 118.884 245.461C116.021 247.487 113.053 249.36 109.991 251.071L97.2507 227.793C97.2507 227.793 101.064 223.449 104.729 227.64C107.636 230.794 110.76 233.741 114.078 236.46Z" fill="#68708B"/>
<path d="M107.248 245.831C108.502 245.188 109.956 245.051 111.309 245.447C112.661 245.843 113.811 246.743 114.521 247.961" stroke="#19254F" stroke-width="0.263525" stroke-miterlimit="10" stroke-linecap="round"/>
<path d="M105.069 229.01C104.766 231.765 101.097 233.721 101.097 233.721" stroke="#19254F" stroke-width="0.263525" stroke-miterlimit="10" stroke-linecap="round"/>
<path d="M97.2507 227.796L109.991 251.075" stroke="#19254F" stroke-width="0.526698" stroke-miterlimit="10"/>
<path d="M237.406 256.763C235.599 252.81 235.095 251.644 231.783 248.246C234.445 245.962 237.226 243.821 240.116 241.832L254.967 263.823C254.967 263.823 251.574 268.504 247.536 264.671C244.347 261.803 240.963 259.16 237.406 256.763Z" fill="#68708B"/>
<path d="M243.337 246.797C242.148 247.553 240.714 247.825 239.33 247.557C237.946 247.288 236.718 246.5 235.897 245.353" stroke="#19254F" stroke-width="0.263525" stroke-miterlimit="10" stroke-linecap="round"/>
<path d="M247.07 263.343C247.116 260.567 250.586 258.284 250.586 258.284" stroke="#19254F" stroke-width="0.263525" stroke-miterlimit="10" stroke-linecap="round"/>
<path d="M254.967 263.823L240.116 241.832" stroke="#19254F" stroke-width="0.526698" stroke-miterlimit="10"/>
<path d="M178.799 214.328C178.799 220.007 183.211 223.05 188.13 223.456" stroke="#028EA7" stroke-width="0.372887" stroke-miterlimit="10" stroke-linecap="round"/>
<path d="M188.282 215.901L192.908 247.825C193.103 249.171 193.775 250.402 194.802 251.294C195.828 252.186 197.141 252.68 198.501 252.685L228.253 252.843" stroke="#028EA7" stroke-width="0.372887" stroke-miterlimit="10" stroke-linecap="round"/>
<path d="M170.84 220.313L152.862 213.477C151.758 213.057 150.564 212.933 149.397 213.117C148.23 213.301 147.131 213.786 146.21 214.525L121.876 235.217" stroke="#4EB0C1" stroke-width="0.372887" stroke-miterlimit="10" stroke-linecap="round"/>
<path d="M171.496 211.287C170.026 209.005 170.739 193.437 175.45 186.336L178.594 200.434L175.602 209.005L171.496 211.287Z" fill="#FAD2A2"/>
</svg>
