<svg width="502" height="485" viewBox="0 0 502 485" fill="none" xmlns="http://www.w3.org/2000/svg">
<g clip-path="url(#clip0_758_796)">
<path d="M260.217 263.244L249.98 266.024C247.672 262.298 245.157 259.518 242.82 259.311C240.038 259.282 237.257 259.489 234.506 259.784L195.214 187.482C200.126 186.98 205.54 186.033 210.156 184.525C220.304 181.154 213.558 170.479 213.558 170.479C213.558 170.479 216.221 170.627 218.884 168.823C219.446 171.277 220.333 173.643 221.931 175.713C222.375 176.275 222.908 176.807 223.44 177.31C224.683 187.689 231.221 212.648 258.471 207.206L258.412 206.881C260.335 209.365 262.613 211.583 265.217 213.416L272.584 221.342C272.702 227.67 272.791 234.116 272.525 240.09L263.678 244.673L260.217 263.244Z" fill="#E3F3F5"/>
<path d="M345.249 160.277C345.308 160.336 345.338 160.365 345.368 160.424C343.74 165.599 342.231 170.804 340.752 175.979L337.438 187.127C337.468 187.127 337.527 187.127 337.557 187.127C336.847 189.582 336.137 192.036 335.426 194.491L335.249 194.609L345.249 160.277Z" fill="#E3F3F5"/>
<path d="M348.533 418.405V417.193L356.077 392.914L363.326 395.044L351.255 433.812C348.444 434.58 345.604 435.32 342.675 436.029L348.148 418.405H348.533Z" fill="#E3F3F5"/>
<path d="M244.062 164.003L247.376 176.157L244.329 165.836C244.21 165.215 244.121 164.594 244.062 164.003Z" fill="#E3F3F5"/>
<path d="M267.82 75.5842C267.524 75.7025 267.199 75.8208 266.903 75.9391C261.843 78.2161 257.967 82.4448 256.163 87.6198C252.05 88.1816 247.671 89.5124 245.363 90.5178C239.091 93.1792 233.973 99.2413 235.156 105.303C235.837 108.822 238.381 111.927 238.618 115.476C238.973 120.651 234.416 124.968 229.742 128.133C225.067 131.297 220.067 134.431 218.262 139.34C217.996 140.227 217.818 141.144 217.7 142.061C210.481 135.762 199.06 133.633 193.231 137.3C189.415 139.725 182.817 146.437 176.574 153.298L100.891 14.1054L100.832 14.0167C100.832 14.0167 152.431 -30.7544 227.049 39.7142C241.517 53.4057 255.689 64.4654 269.506 73.603L266.784 75.5251C266.784 75.5251 267.169 75.5251 267.82 75.5842Z" fill="#E3F3F5"/>
<path d="M408.003 323.185C408.21 325.847 410.34 327.976 413.062 328.094L444.01 329.218C449.454 329.425 454.069 325.196 454.277 319.725C454.277 319.696 454.277 319.637 454.277 319.607C454.424 314.255 450.253 309.76 444.898 309.464L413.535 307.838C410.606 307.69 408.121 309.937 407.973 312.865C407.973 312.924 407.973 312.983 407.973 313.042L399.659 312.54L404.304 297.665L405.34 298.109L406.287 293.614L395.606 289.858L394.482 293.614L395.044 293.851L394.896 293.791L366.374 385.403L359.096 383.274L384.363 301.864L374.658 298.848L344.361 396.493H342.764C354.865 354.058 366.433 296.926 354.184 267.769C346.048 248.37 336.758 242.455 336.758 242.455C336.758 242.455 335.071 224.713 335.071 222.229C335.071 221.815 333.059 222.229 329.745 223.175C329.361 221.667 329.154 220.425 329.065 219.242C330.189 219.419 331.402 219.419 332.645 219.124C334.243 218.71 336.225 217.675 338.296 216.196C358.001 215.161 380.457 204.752 378.09 195.289C378.386 195.141 378.682 194.993 378.948 194.846C384.57 191.504 390.162 187.127 392.055 180.858C393.949 174.589 390.132 166.368 383.594 166.073C388.564 152.145 390.635 137.388 389.777 122.632C439.039 137.359 477.058 154.747 498.183 234.885C514.131 295.477 482.118 392.737 362.972 430.381L396.641 322.505L408.003 323.185Z" fill="#E3F3F5"/>
<path d="M160.686 171.603C160.686 171.603 116.513 320.879 145.715 334.63C135.182 343.974 122.075 359.174 128.051 368.4C134.058 377.626 153.2 386.527 169.799 378.07L216.25 362.634C216.723 363.817 217.226 364.97 217.759 366.094C224.771 380.731 225.599 390.253 224.209 396.434H196.663C185.48 396.434 176.426 405.483 176.426 416.661V418.376H223.292L223.321 419.352L139.738 438.81C130.152 441.087 122.963 449.071 121.72 458.829L119.738 474.768C90.92 406.222 135.123 312.51 94.9438 275.457C16.4795 203.126 -13.2257 173.288 5.35481 104.239C20.6512 47.1663 100.684 14.1646 100.891 14.0759L176.544 153.327C168.319 162.347 160.686 171.603 160.686 171.603Z" fill="#E3F3F5"/>
<path d="M237.227 485L237.197 484.615L259.506 485H259.535H237.227Z" fill="#452458"/>
<path d="M216.931 263.806C210.836 266.349 197.936 280.691 195.451 283.5C190.895 284.624 188.173 285.304 188.173 285.304C188.735 270.134 181.989 187.482 181.989 187.482C184.119 188.014 189.267 188.074 195.155 187.512L234.446 259.784C228.47 260.435 222.582 261.736 216.931 263.806Z" fill="#E3F3F5"/>
<path d="M176.574 153.298L176.544 153.328L100.891 14.1056L176.574 153.298Z" fill="#E3F3F5"/>
<path d="M234.446 259.784L195.155 187.512L234.446 259.784Z" fill="#E3F3F5"/>
<path d="M356.078 392.914L359.066 383.245L366.345 385.374L363.327 395.044L356.078 392.914Z" fill="#452458"/>
<path d="M223.38 177.31C227.611 181.095 234.89 182.899 240.925 181.775C242.878 185.117 246.103 187.482 250.304 186.95L252.76 195.94C253.914 199.962 255.837 203.658 258.352 206.911L258.411 207.236C231.191 212.648 224.623 187.689 223.38 177.31Z" fill="#19254F"/>
<path d="M264.713 246.093L269.092 260.819L260.216 263.244L263.618 244.673L272.465 240.09C272.435 241.154 272.376 242.219 272.287 243.254C267.672 244.999 264.713 246.093 264.713 246.093Z" fill="#19254F"/>
<path d="M279.36 236.541L272.495 240.09C272.732 234.087 272.673 227.64 272.555 221.342L278.176 227.374C282.88 230.657 288.443 232.431 294.183 232.46C299.922 232.431 305.514 230.657 310.219 227.374L322.497 213.446C322.675 213.328 322.852 213.18 323.03 213.032L321.491 215.398C321.491 215.398 324.746 218.592 329.036 219.213C329.125 220.395 329.361 221.637 329.716 223.146C319.657 226.043 297.496 234.028 281.815 239.765L279.36 236.541Z" fill="#C4A290"/>
<path d="M272.465 240.09L279.329 236.541L281.785 239.765C278.205 241.095 274.951 242.278 272.288 243.254C272.377 242.219 272.436 241.184 272.465 240.09Z" fill="#C4A290"/>
<path d="M118.496 485L119.768 474.798C121.218 478.257 122.875 481.658 124.709 485H118.496Z" fill="#028EA7"/>
<path d="M234.624 484.586L234.683 485H222.493L200.688 452.59C207.996 448.716 215.777 445.552 223.854 443.215L224.772 484.438L234.624 484.586Z" fill="#028EA7"/>
<path d="M179.8 485L168.883 476.631C171.93 473.437 175.155 470.391 178.528 467.553L190.274 485H179.8Z" fill="#028EA7"/>
<path d="M193.35 485L180.509 465.897C186.101 461.372 192.107 457.291 198.439 453.772L219.445 484.97H193.35V485Z" fill="#028EA7"/>
<path d="M139.739 438.839L223.322 419.381L223.47 426.626C189.534 435.379 160.568 456.582 141.662 485H124.709C122.845 481.688 121.218 478.258 119.768 474.798L121.75 458.859C122.963 449.1 130.153 441.116 139.739 438.839Z" fill="#028EA7"/>
<path d="M161.545 485C163.32 482.752 165.184 480.594 167.107 478.464L175.599 485H161.545Z" fill="#028EA7"/>
<path d="M342.705 436.03L339.332 446.882L338.71 446.675L339.923 436.651C340.841 436.444 341.787 436.237 342.705 436.03Z" fill="#452458"/>
<path d="M352.173 391.791L356.078 392.914L348.533 417.193V396.493V396.463H344.332L374.629 298.818L384.333 301.835L359.066 383.245L355.013 382.062L352.173 391.791Z" fill="#452458"/>
<path d="M342.113 418.405H348.148L342.675 436.03C341.758 436.237 340.811 436.444 339.894 436.651L342.113 418.405Z" fill="#452458"/>
<path d="M352.173 391.791L355.013 382.062L359.066 383.245L356.078 392.915L352.173 391.791Z" fill="#452458"/>
<path d="M362.941 430.382H362.971L353.828 459.657L362.941 430.382Z" fill="#5F426F"/>
<path d="M399.659 312.54L407.973 313.042C407.973 313.072 407.973 313.102 407.973 313.161V322.83C407.973 322.949 408.003 323.097 408.003 323.215L396.612 322.535L362.942 430.411H362.913L399.659 312.54Z" fill="#5F426F"/>
<path d="M351.285 433.812L345.457 452.471L351.256 433.812H351.285Z" fill="#5F426F"/>
<path d="M366.374 385.374H366.345L394.866 293.762L395.044 293.821L404.305 297.636L399.66 312.54L389.304 311.919L366.374 385.374Z" fill="#5F426F"/>
<path d="M363.357 395.073L351.286 433.812H351.256L363.327 395.044L363.357 395.073Z" fill="#5F426F"/>
<path d="M363.356 395.073L363.327 395.043L366.344 385.374H366.374L363.356 395.073Z" fill="#5F426F"/>
<path d="M351.284 433.812C355.278 432.747 359.154 431.594 362.971 430.411L353.858 459.687C351.166 457.173 348.355 454.807 345.485 452.501L351.284 433.812Z" fill="#5F426F"/>
<path d="M363.356 395.074L371.285 397.41L374.155 387.681L366.374 385.404L389.304 311.948L399.659 312.569L362.942 430.382C359.125 431.594 355.249 432.718 351.255 433.782L363.356 395.074Z" fill="#5F426F"/>
<path d="M374.155 387.68L371.315 397.409L363.356 395.073L366.374 385.374L374.155 387.68Z" fill="#5F426F"/>
<path d="M184 364.733C189.296 356.542 193.557 349.297 196.93 343.175C201.723 343.382 206.634 343.442 211.575 343.353C212.374 350.066 213.824 356.63 216.25 362.663L169.799 378.099C174.917 375.467 179.829 371.209 184 364.733Z" fill="#101B3A"/>
<path d="M177.729 341.49L166.87 379.075L169.799 378.099C153.201 386.557 134.088 377.656 128.052 368.429C122.076 359.233 135.183 344.033 145.716 334.659C146.189 334.866 146.662 335.073 147.165 335.221C156.16 337.882 166.515 340.041 177.729 341.49Z" fill="#C4A290"/>
<path d="M177.729 341.49C183.912 342.289 190.333 342.88 196.931 343.176C193.558 349.327 189.297 356.542 184.001 364.733C179.829 371.18 174.918 375.468 169.8 378.07L166.87 379.046L177.729 341.49Z" fill="#C4A290"/>
<path d="M338.68 446.675L338.591 447.385C337.97 446.971 337.378 446.498 336.757 446.084L338.68 446.675Z" fill="#452458"/>
<path d="M332.083 485H304.242L325.19 457.735C329.066 460.219 332.794 462.881 336.374 465.779L334.421 481.954L332.083 485Z" fill="#452458"/>
<path d="M295.07 485C305.692 474.117 314.508 463.383 320.84 455.073C321.58 455.517 322.319 455.901 323.059 456.375L301.046 485.029H295.07V485Z" fill="#452458"/>
<path d="M337.527 418.405L331.402 438.129L320.692 418.405H337.527Z" fill="#452458"/>
<path d="M259.506 485L237.168 484.615L231.842 444.221L231.605 441.175C238.647 439.608 245.926 438.632 253.352 438.336L259.506 485Z" fill="#452458"/>
<path d="M287.407 485L295.484 443.836C304.42 446.616 312.911 450.431 320.84 455.074C314.479 463.383 305.662 474.117 295.07 485H287.407Z" fill="#452458"/>
<path d="M330.218 441.944C309.212 429.406 284.714 422.161 258.529 422.161C248.914 422.161 239.505 423.136 230.392 424.999L229.889 418.405H320.662L331.402 438.159L330.218 441.944Z" fill="#452458"/>
<path d="M223.322 419.381L223.292 418.405H227.434L223.322 419.381Z" fill="#452458"/>
<path d="M262.761 485L271.785 438.957C279.063 439.726 286.164 441.175 293.028 443.156L284.833 485H262.761Z" fill="#452458"/>
<path d="M255.926 438.307C256.784 438.277 257.642 438.248 258.5 438.248C262.11 438.248 265.69 438.425 269.211 438.75L261.282 479.174L255.926 438.307Z" fill="#452458"/>
<path d="M331.402 438.129V438.159L320.662 418.405H320.691L331.402 438.129Z" fill="#452458"/>
<path d="M231.487 441.234C231.546 441.234 231.605 441.205 231.665 441.205L231.901 444.251L231.487 441.234Z" fill="#452458"/>
<path d="M229.89 418.405L230.393 425C228.056 425.473 225.748 426.005 223.47 426.597L223.322 419.352L227.464 418.376H229.89V418.405Z" fill="#452458"/>
<path d="M224.771 484.408L223.854 443.186C225.54 442.683 227.256 442.21 229.002 441.796L234.624 484.556L224.771 484.408Z" fill="#452458"/>
<path d="M332.084 439.342L331.64 438.514C334.451 437.952 337.173 437.301 339.924 436.651L338.711 446.675L336.788 446.084C334.687 444.665 332.528 443.304 330.338 442.003C331.462 440.318 332.084 439.342 332.084 439.342Z" fill="#452458"/>
<path d="M331.64 438.514L331.433 438.129L337.557 418.405H342.143L339.954 436.651C337.172 437.301 334.45 437.952 331.64 438.514Z" fill="#452458"/>
<path d="M331.61 438.514L332.083 439.342C332.083 439.342 331.462 440.288 330.308 442.003C330.278 441.973 330.249 441.973 330.219 441.944L331.403 438.129L331.61 438.514Z" fill="#452458"/>
<path d="M331.402 438.159V438.129L331.639 438.514H331.609L331.402 438.159Z" fill="#452458"/>
<path d="M273.737 264.722C273.737 264.722 266.666 266.585 255.6 269.099L255.423 269.129C255.453 269.158 255.482 269.188 255.512 269.217C255.571 269.336 255.689 269.602 255.896 270.164C254.802 270.371 253.677 270.578 252.583 270.814C251.754 269.129 250.896 267.532 249.979 266.053L260.216 263.273L259.95 264.663L269.95 263.747L269.98 263.865L270.483 263.687L298.117 261.174L274.506 265.58C274.033 265.018 273.737 264.722 273.737 264.722Z" fill="#19254F"/>
<path d="M281.519 346.31C303.354 343.294 329.597 335.31 338.947 316.088C347.231 299.055 345.929 289.06 340.959 280.425C332.201 265.58 315.04 257.862 298.117 261.145L294.241 256.058L336.728 242.426C336.728 242.426 346.018 248.34 354.154 267.739C366.403 296.896 354.835 354.028 342.734 396.463H308.768L281.519 346.31ZM310.336 341.963C309.892 341.963 309.478 342.288 309.449 342.762L306.638 391.939C306.608 392.412 306.963 392.796 307.437 392.826C307.466 392.826 307.466 392.826 307.496 392.826C307.94 392.826 308.324 392.471 308.324 392.027L311.135 342.85C311.135 342.377 310.78 341.993 310.336 341.963Z" fill="#19254F"/>
<path d="M247.791 339.775C249.418 339.479 251.045 339.095 252.672 338.769C252.643 338.799 252.643 338.828 252.613 338.858L247.791 339.775Z" fill="#19254F"/>
<path d="M224.979 342.732C232.228 342.17 239.536 341.283 246.784 339.982L243.767 340.544C243.767 340.544 244.773 347.257 247.021 348.676C249.27 350.095 271.016 347.937 271.016 347.937C271.134 347.759 271.253 347.582 271.371 347.404C274.566 347.138 277.969 346.783 281.49 346.31L308.739 396.463H224.18C225.6 390.283 224.772 380.761 217.73 366.123C217.198 364.999 216.695 363.817 216.221 362.663L226.162 359.351L224.979 342.732Z" fill="#19254F"/>
<path d="M281.489 346.31H281.519L308.769 396.463H308.739L281.489 346.31Z" fill="#19254F"/>
<path d="M269.951 263.717L259.95 264.634L260.217 263.244L269.093 260.849L269.951 263.717Z" fill="#19254F"/>
<path d="M294.241 256.058L298.117 261.145L270.483 263.688L294.241 256.058Z" fill="#19254F"/>
<path d="M224.979 342.732L226.192 359.351L216.251 362.663C213.825 356.63 212.375 350.095 211.576 343.353C216.014 343.294 220.482 343.087 224.979 342.732Z" fill="#19254F"/>
<path d="M290.277 250.883L332.705 233.052C331.255 228.527 330.308 225.511 329.716 223.145C333.03 222.199 335.042 221.785 335.042 222.199C335.042 224.683 336.729 242.426 336.729 242.426L292.94 254.343L290.277 250.883Z" fill="#2E395F"/>
<path d="M264.713 246.093C264.713 246.093 267.672 244.999 272.317 243.254C271.903 249.671 271.045 255.408 269.359 259.666L290.276 250.883L292.91 254.343L269.063 260.819L264.713 246.093Z" fill="#2E395F"/>
<path d="M290.277 250.883L281.815 239.765C297.466 234.028 319.656 226.043 329.716 223.145C330.308 225.511 331.254 228.498 332.704 233.052L290.277 250.883Z" fill="#2E395F"/>
<path d="M272.318 243.254C274.98 242.248 278.235 241.065 281.815 239.764L290.277 250.883L269.359 259.666C271.045 255.437 271.903 249.7 272.318 243.254Z" fill="#2E395F"/>
<path d="M292.94 254.343L336.729 242.426L294.242 256.058L292.94 254.343Z" fill="#2E395F"/>
<path d="M269.98 263.836L269.95 263.717L270.483 263.688L269.98 263.836Z" fill="#2E395F"/>
<path d="M269.95 263.717L269.092 260.849L292.939 254.343L294.241 256.058L270.483 263.688L269.95 263.717Z" fill="#2E395F"/>
<path d="M348.148 418.405L348.533 417.193V418.405H348.148Z" fill="#5F426F"/>
<path d="M316.934 411.456L313.206 404.595C316.106 404.329 318.887 404.063 321.55 403.767C336.669 402.052 339.982 403.264 340.426 404.329C340.308 404.713 340.189 405.098 340.101 405.453C340.101 405.453 340.692 404.891 340.426 404.329C341.195 401.786 341.965 399.154 342.734 396.463H344.332L339.598 411.692L316.934 411.456Z" fill="#5F426F"/>
<path d="M215.807 407.138C215.807 407.138 273.442 408.114 313.177 404.595L316.905 411.456L223.115 410.509L223.293 418.405H176.427V416.69C176.427 405.512 185.481 396.463 196.664 396.463H224.21C222.227 405.127 215.807 407.138 215.807 407.138Z" fill="#5F426F"/>
<path d="M313.177 404.595H313.206L316.934 411.456H316.904L313.177 404.595Z" fill="#5F426F"/>
<path d="M348.533 396.493V417.193L348.148 418.405H342.112L342.911 411.722L339.627 411.692L344.331 396.463H348.533V396.493Z" fill="#5F426F"/>
<path d="M320.692 418.405L316.934 411.456L339.627 411.692L337.527 418.405H320.692Z" fill="#5F426F"/>
<path d="M316.905 411.456L320.662 418.405H229.89L229.86 417.843L227.434 418.405H223.292L223.114 410.51L316.905 411.456Z" fill="#5F426F"/>
<path d="M316.931 411.447L320.702 418.385L320.676 418.399L316.905 411.461L316.931 411.447Z" fill="#5F426F"/>
<path d="M229.861 417.843L229.89 418.405H227.434L229.861 417.843Z" fill="#5F426F"/>
<path d="M339.628 411.693L342.912 411.722L342.113 418.405H337.527L339.628 411.693Z" fill="#5F426F"/>
<path d="M340.1 405.453C340.219 405.069 340.337 404.684 340.426 404.329C340.692 404.921 340.1 405.453 340.1 405.453Z" fill="#5F426F"/>
<path d="M321.55 403.767C318.887 404.063 316.076 404.359 313.206 404.595L308.768 396.463H342.734C341.965 399.154 341.195 401.756 340.426 404.329C339.982 403.264 336.639 402.052 321.55 403.767Z" fill="#5F426F"/>
<path d="M313.177 404.595C273.442 408.114 215.807 407.138 215.807 407.138C215.807 407.138 222.227 405.127 224.21 396.463H308.739L313.177 404.595Z" fill="#5F426F"/>
<path d="M308.739 396.463H308.769L313.207 404.595H313.177L308.739 396.463Z" fill="#5F426F"/>
<path d="M293.028 443.156C293.857 443.393 294.685 443.6 295.484 443.866L287.407 485.029H284.803L293.028 443.156Z" fill="#27003D"/>
<path d="M234.978 485L234.949 484.586L237.197 484.615L237.227 485H234.978Z" fill="#27003D"/>
<path d="M234.683 485L234.623 484.586H234.949L234.979 485H234.683Z" fill="#27003D"/>
<path d="M231.872 444.25L237.198 484.615L234.949 484.586L231.872 444.25Z" fill="#27003D"/>
<path d="M234.949 484.586H234.624L229.002 441.826C229.831 441.619 230.659 441.441 231.488 441.264L231.872 444.25L234.949 484.586Z" fill="#27003D"/>
<path d="M262.081 485L261.311 479.144L269.241 438.72C270.099 438.78 270.957 438.868 271.785 438.957L262.761 485H262.081Z" fill="#27003D"/>
<path d="M260.158 485H259.98H259.507L253.382 438.366C254.24 438.336 255.098 438.307 255.927 438.307L261.312 479.145L260.158 485Z" fill="#27003D"/>
<path d="M261.311 479.145L262.08 485H260.157L261.311 479.145Z" fill="#27003D"/>
<path d="M219.416 485L198.41 453.802C199.149 453.388 199.919 452.974 200.658 452.589L222.464 485H219.416Z" fill="#27003D"/>
<path d="M190.274 485L178.528 467.552C179.178 466.991 179.829 466.458 180.51 465.926L193.351 485.029H190.274V485Z" fill="#27003D"/>
<path d="M175.598 485L167.107 478.465C167.699 477.844 168.29 477.223 168.882 476.602L179.8 484.97H175.598V485Z" fill="#27003D"/>
<path d="M350.041 485L353.562 482.634C354.124 483.285 354.657 483.935 355.189 484.615L354.598 485H350.041Z" fill="#27003D"/>
<path d="M334.065 485L334.42 481.954L342.675 471.219C343.296 471.811 343.918 472.402 344.539 472.994L335.308 485.029H334.065V485Z" fill="#27003D"/>
<path d="M334.42 481.954L334.065 485H332.083L334.42 481.954Z" fill="#27003D"/>
<path d="M323.058 456.345C323.798 456.789 324.479 457.262 325.218 457.735L304.271 485H301.075L323.058 456.345Z" fill="#27003D"/>
<path d="M355.191 484.616L357.706 482.93L356.286 480.83L353.593 482.634C350.753 479.263 347.735 476.04 344.54 472.964L346.966 469.8L344.954 468.263L342.705 471.22C340.664 469.327 338.563 467.523 336.403 465.779L338.622 447.385C340.96 449.012 343.238 450.727 345.457 452.472L342.025 463.531L346.877 465.039L351.729 466.547L352.025 465.631L353.889 459.687C362.025 467.228 369.274 475.744 375.428 485.03H355.546C355.398 484.882 355.309 484.734 355.191 484.616Z" fill="#180028"/>
<path d="M200.687 452.59L196.338 446.113L194.237 447.533L198.439 453.802C192.107 457.321 186.101 461.372 180.509 465.926L178.911 463.561L176.811 464.98L178.556 467.582C175.183 470.451 171.958 473.467 168.911 476.661L165.775 474.265L164.236 476.276L167.136 478.494C165.213 480.594 163.349 482.782 161.573 485.029H141.691C160.597 456.582 189.563 435.409 223.499 426.656L223.883 443.245C215.747 445.552 207.995 448.716 200.687 452.59Z" fill="#180028"/>
<path d="M351.699 466.547L346.846 465.039L351.699 466.547Z" fill="#180028"/>
<path d="M353.829 459.657L351.965 465.631L353.829 459.657Z" fill="#180028"/>
<path d="M351.699 466.547L351.965 465.631L351.699 466.547Z" fill="#180028"/>
<path d="M341.995 463.531L346.847 465.039L341.995 463.531L345.457 452.471L341.995 463.531Z" fill="#180028"/>
<path d="M345.456 452.471C348.355 454.748 351.136 457.144 353.829 459.657L351.965 465.631L351.669 466.547L346.817 465.039L341.964 463.531L345.456 452.471Z" fill="#180028"/>
<path d="M329.42 452.234L327.408 450.697L323.059 456.345C322.32 455.901 321.58 455.487 320.84 455.044C325.101 449.455 328.266 444.96 330.13 442.239L329.627 443.836L336.758 446.054C337.379 446.468 337.971 446.912 338.592 447.355L336.373 465.749C332.793 462.88 329.065 460.189 325.189 457.705L329.42 452.234Z" fill="#180028"/>
<path d="M296.963 436.207L294.478 435.704L293.028 443.127C286.164 441.146 279.093 439.697 271.785 438.928L272.318 436.207L269.832 435.704L269.24 438.691C265.72 438.395 262.14 438.188 258.53 438.188C257.672 438.188 256.814 438.248 255.956 438.248L255.453 434.462L252.938 434.788L253.412 438.307C245.985 438.602 238.707 439.578 231.665 441.146L230.423 424.97C239.506 423.107 248.914 422.131 258.56 422.131C284.744 422.131 309.271 429.376 330.249 441.914L330.16 442.24C328.296 444.96 325.13 449.455 320.87 455.044C312.911 450.401 304.449 446.616 295.514 443.807L296.963 436.207Z" fill="#180028"/>
<path d="M231.635 441.205C231.576 441.205 231.517 441.234 231.458 441.234L230.57 434.492L228.055 434.817L228.972 441.796C227.256 442.21 225.54 442.683 223.824 443.186L223.44 426.596C225.718 426.005 228.026 425.473 230.363 425L231.635 441.205Z" fill="#180028"/>
<path d="M336.787 446.084L329.657 443.866L330.16 442.269C330.219 442.181 330.278 442.092 330.337 442.003C332.497 443.304 334.657 444.665 336.787 446.084Z" fill="#180028"/>
<path d="M330.309 442.003C330.249 442.092 330.19 442.181 330.131 442.269L330.22 441.944C330.249 441.974 330.279 441.974 330.309 442.003Z" fill="#180028"/>
<path d="M294.478 435.734L296.963 436.236L295.454 443.866C294.656 443.6 293.827 443.393 292.999 443.156L294.478 435.734Z" fill="#180028"/>
<path d="M228.056 434.847L230.571 434.522L231.458 441.264C230.63 441.441 229.802 441.648 228.973 441.826L228.056 434.847Z" fill="#180028"/>
<path d="M269.832 435.734L272.317 436.236L271.785 438.957C270.927 438.868 270.098 438.809 269.24 438.72L269.832 435.734Z" fill="#180028"/>
<path d="M252.908 434.847L255.423 434.522L255.926 438.307C255.068 438.336 254.21 438.336 253.382 438.366L252.908 434.847Z" fill="#180028"/>
<path d="M194.208 447.533L196.309 446.113L200.658 452.589C199.919 452.974 199.149 453.388 198.41 453.802L194.208 447.533Z" fill="#180028"/>
<path d="M176.781 464.951L178.882 463.531L180.479 465.897C179.829 466.429 179.178 466.991 178.497 467.523L176.781 464.951Z" fill="#180028"/>
<path d="M164.207 476.246L165.746 474.236L168.882 476.631C168.29 477.252 167.698 477.843 167.107 478.494L164.207 476.246Z" fill="#180028"/>
<path d="M356.285 480.801L357.706 482.9L355.191 484.586C354.658 483.935 354.126 483.255 353.563 482.604L356.285 480.801Z" fill="#180028"/>
<path d="M344.953 468.262L346.965 469.8L344.539 472.964C343.918 472.373 343.326 471.781 342.675 471.19L344.953 468.262Z" fill="#180028"/>
<path d="M327.408 450.697L329.419 452.235L325.189 457.735C324.478 457.262 323.768 456.789 323.029 456.345L327.408 450.697Z" fill="#180028"/>
<path d="M413.535 307.838L444.897 309.464C450.252 309.76 454.424 314.255 454.276 319.607C454.276 319.637 454.276 319.696 454.276 319.726C454.069 325.167 449.453 329.425 444.009 329.218L413.062 328.094C410.34 327.976 408.209 325.847 408.002 323.185L439.926 325.078L440.518 314.965L407.973 313.043C407.973 312.983 407.973 312.924 407.973 312.865C408.12 309.938 410.606 307.69 413.535 307.838Z" fill="#452458"/>
<path d="M439.928 325.078L408.004 323.185C408.004 323.067 407.974 322.919 407.974 322.801V313.131C407.974 313.101 407.974 313.072 407.974 313.013L440.52 314.935L439.928 325.078Z" fill="#452458"/>
<path d="M395.044 293.821L394.482 293.585L395.606 289.829L406.287 293.585L405.34 298.08L404.305 297.636L404.571 296.778L395.044 293.821Z" fill="#452458"/>
<path d="M404.571 296.778L404.305 297.635L395.044 293.821L404.571 296.778Z" fill="#452458"/>
<path d="M330.84 205.905L329.894 206.083C332.113 203.037 333.799 199.607 334.864 195.94L335.249 194.58L335.426 194.461C334.539 197.537 333.621 200.583 332.675 203.658C335.278 204.013 337.852 204.19 340.456 204.249L335.841 216.226C336.639 216.226 337.438 216.196 338.237 216.137C336.166 217.586 334.184 218.651 332.586 219.065C331.343 219.36 330.16 219.36 329.006 219.183C328.769 215.93 329.539 213.091 330.84 205.905Z" fill="#19254F"/>
<path d="M323 213.032C325.663 211.08 327.97 208.715 329.894 206.083L330.84 205.905C329.539 213.091 328.769 215.93 329.006 219.212C324.716 218.591 321.461 215.398 321.461 215.398L323 213.032Z" fill="#19254F"/>
<path d="M334.834 194.846L327.171 206.645L317.733 208.508L284.418 215.841C278.885 214.037 273.796 210.962 269.565 206.704C269.121 206.26 268.411 206.26 267.968 206.704C267.524 207.147 267.524 207.857 267.968 208.301C271.577 211.938 275.808 214.777 280.364 216.729L272.465 218.473C272.494 219.419 272.494 220.366 272.524 221.342L265.157 213.416C262.553 211.583 260.275 209.365 258.352 206.881L254.979 186.004L248.529 180.06L247.375 176.127L244.061 163.973C243.943 162.642 243.913 161.341 244.121 160.158C244.919 155.457 247.079 153.18 250.689 149.69C254.298 146.201 256.902 140.819 254.18 136.915C254.358 137.152 263.5 123.608 264.121 122.13C264.654 120.858 265.127 119.557 265.571 118.256C265.867 118.522 266.163 118.788 266.459 119.084C270.394 123.165 272.672 128.103 276.696 131.977C278.145 133.337 279.654 134.579 281.222 135.762C274.506 135.348 267.021 137.152 257.583 139.784C256.517 140.08 255.896 141.203 256.192 142.268C256.429 143.155 257.257 143.746 258.115 143.746C258.293 143.746 258.47 143.717 258.648 143.658C273.441 139.518 281.282 138.246 288.442 141.529C289.004 141.795 289.625 141.736 290.158 141.469C294.832 143.894 299.833 145.728 305.04 146.881C312.91 148.626 321.076 148.744 329.005 150.193C336.875 151.642 340.189 154.037 345.219 160.218L335.248 194.55L334.834 194.846ZM272.406 161.785C270.778 161.785 269.358 162.583 268.5 163.825L259.831 162.495C259.032 162.376 258.263 162.938 258.145 163.737C258.026 164.535 258.588 165.304 259.387 165.452L267.672 166.723C267.76 169.266 269.831 171.277 272.376 171.277C274.98 171.277 277.11 169.148 277.11 166.546C277.11 163.944 275.009 161.785 272.406 161.785ZM286.933 198.779C286.045 197.803 283.767 195.555 281.489 195.94C281.074 195.999 280.779 196.413 280.838 196.827C280.897 197.271 281.311 197.566 281.725 197.478C282.968 197.271 284.625 198.572 285.749 199.843C285.897 200.021 286.104 200.109 286.341 200.109C286.518 200.109 286.726 200.05 286.874 199.902C287.199 199.607 287.229 199.104 286.933 198.779ZM290.661 161.637C290.661 161.075 290.217 160.632 289.655 160.632C289.093 160.632 288.649 161.075 288.649 161.637V189.641C288.649 190.203 289.093 190.647 289.655 190.647C290.217 190.647 290.661 190.203 290.661 189.641V161.637ZM296.164 195.94C293.886 195.585 291.607 197.803 290.72 198.779C290.424 199.104 290.454 199.607 290.779 199.873C290.927 200.021 291.104 200.08 291.312 200.08C291.519 200.08 291.726 199.991 291.903 199.814C293.028 198.542 294.714 197.271 295.927 197.448C296.341 197.537 296.756 197.211 296.815 196.797C296.874 196.413 296.578 195.999 296.164 195.94ZM321.786 165.097C315.336 162.406 308.087 162.731 301.904 165.984C301.253 166.339 300.986 167.137 301.341 167.788C301.578 168.261 302.052 168.498 302.525 168.498C302.732 168.498 302.939 168.438 303.146 168.35C308.62 165.481 315.04 165.186 320.721 167.581C321.401 167.877 322.2 167.551 322.496 166.871C322.792 166.161 322.466 165.393 321.786 165.097Z" fill="#DFC0A7"/>
<path d="M250.305 186.92C250.394 186.92 250.482 186.92 250.571 186.92L248.53 180.06L254.98 186.004L258.353 206.881C255.838 203.628 253.915 199.932 252.761 195.91L250.305 186.92Z" fill="#DFC0A7"/>
<path d="M280.366 216.729C285.159 218.799 290.336 219.893 295.692 219.952C296.313 219.952 296.816 219.449 296.816 218.828C296.816 218.207 296.313 217.704 295.692 217.704C291.786 217.675 287.969 217.024 284.36 215.841L317.675 208.508L327.113 206.645L322.941 213.032C322.764 213.18 322.586 213.328 322.408 213.446L310.13 227.374C305.426 230.657 299.834 232.431 294.094 232.46C288.354 232.431 282.792 230.657 278.087 227.374L272.466 221.342C272.436 220.395 272.436 219.419 272.407 218.473L280.366 216.729Z" fill="#DFC0A7"/>
<path d="M334.835 194.845L335.249 194.579L334.864 195.94C333.829 199.606 332.113 203.037 329.894 206.082L327.172 206.615L334.835 194.845Z" fill="#DFC0A7"/>
<path d="M329.893 206.083C327.97 208.715 325.662 211.051 322.999 213.032L327.171 206.645L329.893 206.083Z" fill="#DFC0A7"/>
<path d="M272.405 171.248C269.861 171.248 267.79 169.237 267.701 166.694L274.98 167.788C275.068 167.788 275.127 167.817 275.216 167.817C275.926 167.817 276.577 167.285 276.666 166.575C276.784 165.777 276.222 165.008 275.423 164.89L268.53 163.855C269.388 162.613 270.808 161.814 272.435 161.814C275.039 161.814 277.169 163.944 277.169 166.546C277.169 169.148 275.009 171.248 272.405 171.248Z" fill="#B27E57"/>
<path d="M267.701 166.694L259.417 165.422C258.618 165.304 258.056 164.535 258.174 163.736C258.293 162.938 259.062 162.376 259.861 162.494L268.53 163.825C267.997 164.594 267.701 165.511 267.701 166.516C267.672 166.575 267.701 166.634 267.701 166.694Z" fill="#B27E57"/>
<path d="M276.637 166.575C276.518 167.315 275.897 167.817 275.187 167.817C275.128 167.817 275.039 167.817 274.95 167.788L267.672 166.694C267.672 166.634 267.642 166.575 267.642 166.516C267.642 165.511 267.968 164.594 268.471 163.825L275.364 164.86C276.222 165.008 276.784 165.747 276.637 166.575Z" fill="#B27E57"/>
<path d="M320.721 167.581C315.011 165.215 308.62 165.481 303.147 168.349C302.94 168.468 302.732 168.497 302.525 168.497C302.052 168.497 301.579 168.231 301.342 167.788C300.987 167.137 301.253 166.309 301.904 165.984C308.088 162.731 315.336 162.406 321.786 165.097C322.467 165.392 322.792 166.161 322.496 166.871C322.201 167.551 321.431 167.876 320.721 167.581Z" fill="#B27E57"/>
<path d="M256.251 100.276L257.76 108.438C258.056 110.035 258.5 111.247 259.032 112.223L247.05 130.232L242.7 158.976L244.061 164.003C244.12 164.594 244.209 165.215 244.298 165.807L244.239 165.659C241.221 166.014 239.534 168.291 238.943 171.248L232.493 165.304L223.114 173.82C223.114 174.589 223.173 175.802 223.35 177.31C222.788 176.807 222.256 176.275 221.842 175.713C220.244 173.643 219.356 171.277 218.794 168.823C221.457 167.019 224.149 163.204 224.149 155.309C224.149 149.868 221.487 145.373 217.67 142.061C217.818 141.144 217.995 140.227 218.232 139.34C220.037 134.431 225.037 131.297 229.712 128.133C234.386 124.969 238.943 120.651 238.588 115.476C238.351 111.928 235.807 108.823 235.126 105.304C233.943 99.2414 239.061 93.1793 245.334 90.5179C247.641 89.542 252.02 88.1817 256.133 87.6199C255.926 88.2113 255.719 88.8027 255.571 89.4237C255.156 93.061 255.393 96.7279 256.251 100.276ZM252.227 99.4484C248.795 100.129 246.487 101.489 245.186 103.588C243.055 107.019 244.268 111.514 245.334 115.476C245.896 117.576 246.428 119.557 246.428 121.095C246.428 124.259 242.523 126.772 238.765 129.227C235.954 131.06 233.025 132.953 231.369 135.289C227.433 140.937 227.67 150.991 227.67 151.435L230.481 151.346C230.481 151.257 230.244 141.765 233.647 136.915C234.978 135.023 237.671 133.278 240.245 131.593C244.653 128.754 249.18 125.797 249.18 121.124C249.18 119.202 248.618 117.043 247.996 114.766C247.05 111.188 246.044 107.462 247.523 105.067C248.381 103.677 250.097 102.731 252.73 102.199L252.227 99.4484Z" fill="#19254F"/>
<path d="M240.956 181.775C234.891 182.899 227.612 181.125 223.411 177.31C223.234 175.802 223.174 174.589 223.174 173.82L232.553 165.304L239.003 171.248C238.323 174.501 239.062 178.581 240.956 181.775Z" fill="#19254F"/>
<path d="M247.05 130.232L259.033 112.223C260.542 114.944 262.938 115.89 265.571 118.285C265.127 119.586 264.684 120.888 264.122 122.159C263.5 123.638 254.358 137.181 254.18 136.945C256.902 140.848 254.299 146.23 250.689 149.72C247.08 153.209 244.92 155.486 244.121 160.188C243.914 161.371 243.943 162.672 244.062 164.003L242.701 158.975L247.05 130.232Z" fill="#19254F"/>
<path d="M267.968 208.3C267.524 207.857 267.524 207.147 267.968 206.704C268.412 206.26 269.122 206.26 269.565 206.704C273.796 210.932 278.856 214.037 284.418 215.841L280.394 216.728C275.808 214.777 271.577 211.938 267.968 208.3Z" fill="#B27E57"/>
<path d="M296.845 218.828C296.845 219.449 296.342 219.952 295.72 219.952C290.365 219.922 285.158 218.798 280.394 216.728L284.418 215.841C288.028 217.024 291.845 217.675 295.75 217.704C296.342 217.704 296.845 218.207 296.845 218.828Z" fill="#B27E57"/>
<path d="M289.655 190.646C289.093 190.646 288.649 190.203 288.649 189.641V161.637C288.649 161.075 289.093 160.631 289.655 160.631C290.217 160.631 290.661 161.075 290.661 161.637V189.641C290.661 190.203 290.217 190.646 289.655 190.646Z" fill="#B27E57"/>
<path d="M288.472 141.588C281.282 138.276 273.471 139.577 258.678 143.717C258.5 143.776 258.323 143.805 258.145 143.805C257.258 143.805 256.459 143.214 256.222 142.327C255.926 141.262 256.547 140.139 257.613 139.843C267.051 137.211 274.536 135.407 281.252 135.821C284.063 137.98 287.081 139.932 290.217 141.558C289.655 141.795 289.034 141.854 288.472 141.588Z" fill="#B27E57"/>
<path d="M377.764 106.723C368.829 97.1713 337.615 74.4901 323.679 74.1648L323.62 76.9741C335.928 77.2402 366.107 98.3838 375.693 108.645C377.971 111.07 379.096 115.092 379.569 119.646C367.793 116.245 355.456 112.785 342.585 108.497C337.911 101.163 331.461 93.8298 322.881 86.7622C310.099 76.2644 299.507 71.74 291.371 70.0544L293.945 69.6404L310.928 66.8607C315.513 65.9144 320.188 65.6187 324.863 65.9735C331.49 67.3042 337.733 70.0544 343.207 74.017C348.089 77.1811 353 80.3157 358 83.5981C363 86.8805 367.971 90.2221 372.942 93.534C378.119 96.432 382.557 100.483 385.93 105.363C388.031 109.532 389.244 114.086 389.451 118.729C389.569 120.03 389.629 121.331 389.717 122.603C387.321 121.893 384.895 121.183 382.439 120.474C381.966 114.885 380.664 109.798 377.764 106.723Z" fill="#19254F"/>
<path d="M320.485 100.365C305.366 94.2438 289.655 86.5257 273.442 76.2053C283.827 77.743 304.419 82.9476 320.485 100.365Z" fill="#19254F"/>
<path d="M336.195 125.116L316.815 115.476L317.111 114.471C310.868 112.755 296.312 102.405 288.649 95.7223L286.814 97.8514C291.016 101.518 299.3 107.847 306.608 112.341L283.826 110.153C276.4 101.844 272.169 93.6227 272.672 88.8322L269.891 88.5365C269.329 93.8002 273.116 101.725 279.802 109.739L267.731 108.586C267.879 107.107 267.968 105.629 267.997 104.121C267.997 100.247 268.234 91.4936 264.713 88.6547C262.967 87.2945 259.683 87.2057 256.251 87.6493C258.086 82.4743 261.932 78.2161 266.991 75.9686C267.287 75.8208 267.613 75.7321 267.908 75.6138C269.003 75.6729 270.956 75.8503 273.53 76.2348C289.743 86.5848 305.454 94.2733 320.573 100.395C320.928 100.779 321.283 101.163 321.638 101.548C327.999 108.822 332.733 117.073 336.195 125.116Z" fill="#19254F"/>
<path d="M345.012 159.981L345.308 159.478V159.508L345.012 159.981Z" fill="#19254F"/>
<path d="M383.535 166.043C390.073 166.339 393.89 174.56 391.996 180.829C390.103 187.098 384.511 191.474 378.889 194.816C378.594 194.964 378.298 195.112 378.031 195.259C377.706 194.017 376.996 192.805 375.783 191.622L355.516 199.104L353.178 199.666L358.977 180.385L335.426 194.491C336.136 192.036 336.847 189.582 337.557 187.127C349.539 188.813 353.622 166.989 343.74 165.895L340.752 175.979C342.231 170.804 343.74 165.599 345.368 160.424C345.308 160.365 345.279 160.336 345.249 160.277L345.368 159.892C345.634 162.406 345.723 163.884 345.723 163.884C348.563 159.153 350.575 153.8 351.61 148.093L358.238 136.058L351.877 132.893C350.812 124.998 347.853 116.718 342.586 108.468C355.457 112.755 367.794 116.245 379.57 119.616C380.813 132.006 376.996 148.507 376.937 148.714L379.659 149.365C379.866 148.448 383.416 133.13 382.41 120.444C384.866 121.154 387.292 121.863 389.689 122.573C390.576 137.359 388.505 152.115 383.535 166.043ZM370.309 172.046L367.498 172.312C368.504 182.751 365.339 188.665 357.173 191.563L358.119 194.224C367.469 190.912 371.434 183.638 370.309 172.046Z" fill="#19254F"/>
<path d="M340.456 204.308C337.852 204.22 335.278 204.072 332.674 203.717C333.621 200.642 334.538 197.596 335.426 194.52L358.977 180.385L353.178 199.666L341.136 202.534L340.456 204.308Z" fill="#19254F"/>
<path d="M351.847 132.894L358.208 136.058L351.581 148.093C352.439 143.273 352.557 138.157 351.847 132.894Z" fill="#19254F"/>
<path d="M329.035 150.252C321.106 148.803 312.94 148.685 305.07 146.94C299.862 145.787 294.862 143.953 290.188 141.529C290.572 141.322 290.927 141.026 291.134 140.582C291.608 139.577 291.164 138.394 290.158 137.921C287.288 136.59 284.329 135.969 281.223 135.792C279.655 134.609 278.146 133.337 276.696 132.007C272.672 128.133 270.394 123.194 266.459 119.113C266.163 118.788 265.867 118.552 265.571 118.285C266.607 115.121 267.317 111.869 267.672 108.557L279.743 109.71C289.122 121.006 304.271 132.568 321.431 137.3L322.171 134.579C306.372 130.203 292.732 120.089 283.797 110.065L306.579 112.253C310.336 114.56 313.827 116.393 316.372 117.103L316.845 115.417L336.225 125.057C342.32 139.192 344.539 152.707 345.308 159.419L345.012 159.922L345.308 159.449C345.337 159.597 345.337 159.715 345.337 159.833L345.219 160.218C340.219 154.096 336.905 151.701 329.035 150.252Z" fill="#19254F"/>
<path d="M264.624 88.6251C268.145 91.4639 267.908 100.217 267.908 104.091C267.908 105.599 267.82 107.078 267.642 108.556L261.843 107.994L259.032 112.223C258.5 111.247 258.056 110.035 257.76 108.438L256.251 100.276C255.393 96.7276 255.156 93.0608 255.6 89.4235C255.748 88.8025 255.955 88.2111 256.162 87.6197C259.594 87.1761 262.879 87.2648 264.624 88.6251Z" fill="#19254F"/>
<path d="M259.033 112.223L261.844 107.995L267.643 108.556C267.288 111.868 266.577 115.121 265.542 118.285C262.938 115.89 260.571 114.944 259.033 112.223Z" fill="#19254F"/>
<path d="M291.134 140.612C290.927 141.055 290.572 141.351 290.187 141.558C287.051 139.932 284.033 137.98 281.222 135.821C284.329 135.999 287.288 136.62 290.158 137.95C291.163 138.394 291.607 139.577 291.134 140.612Z" fill="#19254F"/>
<path d="M286.341 200.109C286.134 200.109 285.927 200.021 285.749 199.843C284.625 198.572 282.968 197.3 281.725 197.477C281.311 197.566 280.897 197.241 280.838 196.827C280.779 196.413 281.074 195.999 281.489 195.94C283.767 195.585 286.045 197.803 286.933 198.779C287.228 199.104 287.199 199.607 286.873 199.873C286.726 200.021 286.518 200.109 286.341 200.109Z" fill="#B27E57"/>
<path d="M295.927 197.477C294.684 197.27 293.028 198.572 291.903 199.843C291.755 200.021 291.548 200.109 291.312 200.109C291.134 200.109 290.927 200.05 290.779 199.902C290.454 199.607 290.424 199.104 290.72 198.808C291.607 197.832 293.886 195.585 296.164 195.969C296.578 196.028 296.874 196.442 296.815 196.856C296.756 197.27 296.341 197.566 295.927 197.477Z" fill="#B27E57"/>
<path d="M340.751 175.979C339.686 179.705 338.621 183.402 337.556 187.128C337.526 187.128 337.467 187.128 337.438 187.128L340.751 175.979Z" fill="#D1AF99"/>
<path d="M343.74 165.895C353.622 166.989 349.539 188.813 337.556 187.127C338.621 183.401 339.686 179.705 340.751 175.979L343.74 165.895Z" fill="#D1AF99"/>
<path d="M247.316 178.936C247.435 178.847 247.553 178.759 247.671 178.67C246.695 174.648 245.038 170.035 244.328 165.807L247.376 176.127L248.411 179.942L247.316 178.936Z" fill="#D1AF99"/>
<path d="M248.412 179.942L250.306 186.921C246.104 187.453 242.909 185.087 240.927 181.746C243.353 181.302 245.572 180.385 247.288 178.936L248.412 179.942Z" fill="#D1AF99"/>
<path d="M247.375 176.156L248.529 180.06L248.411 179.942L247.375 176.156Z" fill="#D1AF99"/>
<path d="M250.305 186.92L248.411 179.941L248.53 180.06L250.571 186.92C250.483 186.95 250.394 186.92 250.305 186.92Z" fill="#D1AF99"/>
<path d="M247.316 178.936L238.973 171.248C239.565 168.291 241.251 166.014 244.269 165.659L244.328 165.807C245.038 170.035 246.725 174.648 247.671 178.67C247.553 178.759 247.435 178.848 247.316 178.936Z" fill="#D1AF99"/>
<path d="M240.955 181.775C239.061 178.581 238.322 174.53 238.972 171.248L247.316 178.936C245.57 180.385 243.381 181.302 240.955 181.775Z" fill="#D1AF99"/>
<path d="M270.719 74.4309C270.305 74.1648 269.891 73.8986 269.477 73.6325L272.199 71.7103C272.199 71.7103 278.915 67.5703 291.341 70.0839L284.388 71.2372C279.743 71.7399 275.157 72.8045 270.719 74.4309Z" fill="#DB4B65"/>
<path d="M267.819 75.5843C267.169 75.5547 266.784 75.5252 266.784 75.5252L269.506 73.603C269.92 73.8692 270.334 74.1353 270.749 74.4015C269.743 74.7859 268.796 75.1703 267.819 75.5843Z" fill="#DB4B65"/>
<path d="M342.586 108.497C335.367 106.102 328 103.411 320.485 100.365C304.419 82.977 283.856 77.7428 273.441 76.2051C272.554 75.6433 271.637 75.0223 270.749 74.4309C275.157 72.834 279.743 71.7399 284.448 71.2371L291.401 70.0839C299.537 71.7399 310.159 76.2938 322.911 86.7917C331.461 93.8001 337.911 101.134 342.586 108.497Z" fill="#DB4B65"/>
<path d="M270.72 74.431C271.607 75.0225 272.525 75.6139 273.412 76.2053C270.838 75.8209 268.885 75.673 267.791 75.5843C268.797 75.1703 269.743 74.7859 270.72 74.431Z" fill="#DB4B65"/>
<path d="M345.308 159.508V159.478L351.581 148.093C350.575 153.8 348.563 159.153 345.693 163.884C345.693 163.884 345.634 162.406 345.338 159.892L345.604 159.005L345.308 159.508Z" fill="#DB4B65"/>
<path d="M321.549 101.518C321.194 101.104 320.839 100.749 320.484 100.365C327.999 103.411 335.367 106.102 342.586 108.497C347.823 116.748 350.811 124.998 351.876 132.923L336.225 125.146C332.733 117.073 327.999 108.822 321.549 101.518Z" fill="#DB4B65"/>
<path d="M336.196 125.116L351.847 132.893C352.558 138.157 352.41 143.273 351.552 148.093L345.279 159.478C344.51 152.765 342.321 139.251 336.196 125.116Z" fill="#DB4B65"/>
<path d="M345.604 159.005L345.338 159.892C345.338 159.774 345.309 159.626 345.309 159.508L345.604 159.005Z" fill="#DB4B65"/>
<path d="M272.613 88.8028C272.11 93.5933 276.341 101.814 283.768 110.124L279.714 109.739C273.057 101.696 269.24 93.7708 269.803 88.5366L272.613 88.8028Z" fill="#0F1830"/>
<path d="M322.172 134.609L321.432 137.329C304.272 132.598 289.123 121.035 279.744 109.739L283.798 110.124C292.733 120.119 306.373 130.262 322.172 134.609Z" fill="#0F1830"/>
<path d="M323.62 76.974L323.679 74.1647C337.585 74.49 368.799 97.1712 377.764 106.723C380.664 109.828 381.995 114.884 382.439 120.473C381.492 120.207 380.545 119.912 379.599 119.645C379.155 115.062 378.001 111.07 375.723 108.645C366.107 98.3836 335.928 77.2401 323.62 76.974Z" fill="#0F1830"/>
<path d="M379.659 149.394L376.937 148.744C376.996 148.507 380.813 132.036 379.57 119.646C380.517 119.912 381.464 120.207 382.411 120.474C383.416 133.16 379.896 148.478 379.659 149.394Z" fill="#0F1830"/>
<path d="M288.619 95.6926C296.312 102.376 310.869 112.726 317.082 114.441L316.786 115.446L311.401 112.755L306.549 112.282C299.271 107.787 290.986 101.429 286.756 97.7922L288.619 95.6926Z" fill="#0F1830"/>
<path d="M316.816 115.476L316.343 117.162C313.798 116.452 310.307 114.619 306.549 112.312L311.402 112.785L316.816 115.476Z" fill="#0F1830"/>
<path d="M247.553 105.067C246.074 107.462 247.08 111.159 248.027 114.766C248.648 117.043 249.21 119.202 249.21 121.124C249.21 125.796 244.654 128.753 240.275 131.592C237.671 133.278 235.009 135.023 233.677 136.915C230.275 141.794 230.482 151.257 230.511 151.346L227.701 151.435C227.701 151.021 227.434 140.937 231.399 135.289C233.056 132.923 235.955 131.06 238.796 129.227C242.553 126.802 246.459 124.259 246.459 121.094C246.459 119.527 245.926 117.546 245.364 115.476C244.299 111.513 243.086 106.989 245.216 103.588C246.518 101.489 248.826 100.128 252.258 99.4482L252.82 102.198C250.127 102.731 248.441 103.647 247.553 105.067Z" fill="#0F1830"/>
<path d="M358.15 194.195L357.203 191.534C365.339 188.665 368.535 182.721 367.529 172.283L370.339 172.017C371.434 183.638 367.469 190.913 358.15 194.195Z" fill="#0F1830"/>
<path d="M350.604 203.954C360.19 202.919 369.51 199.962 378.031 195.26C380.398 204.723 357.971 215.132 338.237 216.167C342.556 213.15 347.379 208.36 350.604 203.954Z" fill="#19254F"/>
<path d="M340.456 204.308C343.858 204.427 347.231 204.338 350.604 203.954C347.379 208.36 342.556 213.15 338.237 216.167C337.438 216.196 336.639 216.226 335.84 216.255L340.456 204.308Z" fill="#19254F"/>
<path d="M353.031 200.168L353.179 199.665L355.516 199.104L375.783 191.622C376.996 192.805 377.706 194.017 378.032 195.259C369.511 199.961 360.191 202.918 350.605 203.953C351.581 202.652 352.41 201.351 353.031 200.168Z" fill="#19254F"/>
<path d="M350.604 203.954C347.231 204.308 343.858 204.397 340.456 204.308L341.136 202.564L353.178 199.695L353.03 200.198C352.409 201.351 351.581 202.652 350.604 203.954Z" fill="#19254F"/>
<path d="M217.522 147.147L217.907 159.744C217.996 162.761 218.144 165.866 218.824 168.823C216.161 170.627 213.499 170.479 213.499 170.479C213.499 170.479 220.244 181.154 210.096 184.525C205.481 186.063 200.066 187.009 195.155 187.482L176.574 153.298C182.817 146.437 189.415 139.724 193.232 137.3C199.031 133.633 210.451 135.762 217.7 142.061C217.434 143.746 217.374 145.461 217.522 147.147ZM199.445 166.22C199.119 166.546 199.119 167.078 199.445 167.403C201.043 169 203.824 169.473 206.25 169.473C207.936 169.473 209.475 169.266 210.333 169.059C210.777 168.971 211.072 168.497 210.984 168.054C210.895 167.61 210.422 167.315 209.978 167.403C207.285 167.995 202.463 168.024 200.628 166.22C200.303 165.895 199.77 165.895 199.445 166.22ZM204.623 154.747C204.149 154.747 203.794 155.131 203.794 155.604C203.794 156.077 204.238 156.462 204.652 156.432L210.214 156.373L205.333 164.417C205.096 164.801 205.214 165.333 205.628 165.57C205.776 165.659 205.924 165.688 206.072 165.688C206.368 165.688 206.634 165.54 206.782 165.274L213.203 154.628L204.623 154.747Z" fill="#DFC0A7"/>
<path d="M181.989 187.482C181.989 187.482 188.735 270.134 188.173 285.304C188.173 285.304 190.895 284.624 195.451 283.5C195.185 283.826 194.978 284.033 194.978 284.033C194.978 284.033 207.375 280.129 214.12 280.662C215.718 280.78 216.754 281.578 217.523 282.672C215.126 291.751 211.724 307.039 210.955 323.451L206.162 324.546C207.286 321.973 207.789 320.583 207.789 320.583L154.178 327.917C152.047 329.336 149 331.702 145.686 334.629C116.484 320.849 160.657 171.602 160.657 171.602C160.657 171.602 168.29 162.347 176.516 153.298L195.096 187.482C189.268 188.074 184.119 188.015 181.989 187.482Z" fill="#DFC0A7"/>
<path d="M195.155 187.512L176.545 153.327L176.574 153.298L195.155 187.512Z" fill="#DFC0A7"/>
<path d="M211.575 343.353C206.634 343.442 201.723 343.383 196.93 343.176C201.604 334.659 204.563 328.331 206.19 324.575L210.983 323.481C210.658 330.046 210.776 336.788 211.575 343.353Z" fill="#DFC0A7"/>
<path d="M207.818 320.583C207.818 320.583 207.315 321.973 206.191 324.546L180.924 330.401L177.729 341.461C166.545 340.012 156.16 337.853 147.165 335.191C146.662 335.044 146.189 334.866 145.716 334.63C149.029 331.702 152.077 329.336 154.207 327.917L207.818 320.583Z" fill="#DFC0A7"/>
<path d="M177.729 341.49L180.924 330.431L206.191 324.575C204.564 328.331 201.605 334.689 196.931 343.176C190.333 342.88 183.913 342.289 177.729 341.49Z" fill="#DFC0A7"/>
<path d="M261.577 309.642L249.358 287.197C254.032 285.216 257.405 283.471 257.405 283.471C256.459 279.922 254.683 275.132 252.553 270.785C253.677 270.578 254.772 270.341 255.867 270.134C256.636 272.234 258.411 278.444 261.192 295.832C261.814 300.445 261.903 305.058 261.577 309.642Z" fill="#DFC0A7"/>
<path d="M228.174 293.022C234.299 293.022 243.027 289.888 249.358 287.197L261.578 309.671C260.838 319.844 257.85 329.809 252.702 338.769C251.074 339.124 249.447 339.479 247.82 339.775L246.814 339.952C239.565 341.283 232.257 342.17 225.008 342.702L223.411 320.553L211.014 323.422C211.783 307.01 215.156 291.692 217.582 282.643C220.038 286.162 220.038 293.022 228.174 293.022Z" fill="#DFC0A7"/>
<path d="M261.578 309.641V309.671L249.358 287.197L261.578 309.641Z" fill="#DFC0A7"/>
<path d="M224.979 342.732C220.481 343.087 215.984 343.294 211.546 343.353C210.777 336.759 210.658 330.016 210.954 323.452L223.351 320.583L224.979 342.732Z" fill="#DFC0A7"/>
<path d="M224.18 155.309C224.18 163.204 221.488 166.99 218.825 168.823C218.174 165.866 217.997 162.761 217.908 159.745L217.523 147.147C217.375 145.432 217.434 143.746 217.701 142.061C221.517 145.373 224.18 149.868 224.18 155.309Z" fill="#DFC0A7"/>
<path d="M274.507 265.55L298.117 261.144C315.04 257.862 332.201 265.58 340.959 280.425C345.929 289.06 347.231 299.055 338.947 316.088C329.597 335.309 303.324 343.294 281.519 346.31L277.199 338.355C300.04 298.286 278.885 270.607 274.507 265.55ZM299.803 311.711C299.714 312.155 300.01 312.599 300.454 312.687C300.513 312.687 300.573 312.717 300.632 312.717C301.016 312.717 301.371 312.451 301.46 312.037C305.336 292.372 301.135 278.532 288.235 268.478C287.88 268.182 287.347 268.271 287.051 268.626C286.755 268.981 286.844 269.513 287.199 269.809C299.537 279.39 303.561 292.727 299.803 311.711Z" fill="#3E486B"/>
<path d="M255.513 269.218C255.483 269.188 255.454 269.159 255.424 269.129L255.602 269.099C255.542 269.099 255.513 269.129 255.454 269.129C255.454 269.129 255.483 269.159 255.513 269.218Z" fill="#3E486B"/>
<path d="M281.49 346.31C277.969 346.783 274.567 347.168 271.372 347.404C273.561 344.329 275.484 341.313 277.171 338.356L281.49 346.31Z" fill="#3E486B"/>
<path d="M277.17 338.385V338.356L281.519 346.31H281.489L277.17 338.385Z" fill="#3E486B"/>
<path d="M234.445 259.784C237.197 259.489 239.978 259.282 242.759 259.311C245.097 259.548 247.612 262.298 249.919 266.024L239.386 268.892L234.445 259.784Z" fill="#C4A290"/>
<path d="M216.93 263.806C222.582 261.736 228.469 260.435 234.446 259.784L239.417 268.892L220.008 274.156C220.008 274.156 219.534 275.516 218.824 277.971C209.267 280.159 200.983 282.14 195.421 283.5C197.936 280.691 210.836 266.349 216.93 263.806Z" fill="#C4A290"/>
<path d="M239.417 268.922L234.446 259.784L239.417 268.892V268.922Z" fill="#C4A290"/>
<path d="M239.417 268.892L249.95 266.024C250.867 267.502 251.725 269.099 252.554 270.785C248.944 271.495 245.275 272.234 241.636 273.003L239.417 268.892Z" fill="#C4A290"/>
<path d="M218.824 278C219.534 275.575 220.008 274.186 220.008 274.186L239.417 268.922L241.636 273.003C233.736 274.659 225.925 276.374 218.824 278Z" fill="#C4A290"/>
<path d="M241.636 273.003L239.417 268.922V268.892L241.636 273.003Z" fill="#C4A290"/>
<path d="M217.522 282.673C216.723 281.578 215.717 280.81 214.12 280.662C207.374 280.129 194.977 284.033 194.977 284.033C194.977 284.033 195.154 283.826 195.45 283.501C200.983 282.14 209.267 280.159 218.854 277.971C218.469 279.272 218.025 280.839 217.522 282.673Z" fill="#C4A290"/>
<path d="M249.358 287.197L241.636 273.003C245.275 272.234 248.943 271.495 252.553 270.785C254.683 275.132 256.458 279.893 257.405 283.471C257.405 283.471 254.032 285.216 249.358 287.197Z" fill="#C4A290"/>
<path d="M241.636 273.003L249.358 287.197C243.027 289.888 234.328 293.022 228.174 293.022C220.038 293.022 220.038 286.162 217.523 282.672C217.996 280.869 218.44 279.272 218.825 278C225.926 276.374 233.737 274.659 241.636 273.003Z" fill="#C4A290"/>
<path d="M249.358 287.197L241.636 273.003L249.358 287.197Z" fill="#C4A290"/>
<path d="M255.896 270.135C255.689 269.602 255.571 269.307 255.512 269.188C255.808 269.454 256.044 269.75 256.311 270.046C256.163 270.105 256.015 270.105 255.896 270.135Z" fill="#596280"/>
<path d="M273.738 264.723C273.738 264.723 274.033 265.019 274.507 265.551L255.601 269.099C266.666 266.615 273.738 264.723 273.738 264.723Z" fill="#596280"/>
<path d="M252.643 338.858C252.672 338.829 252.672 338.799 252.702 338.77C253.087 338.681 253.442 338.622 253.826 338.533C251.548 344.092 249.832 347.552 249.832 347.552C252.88 347.996 261.075 348.232 271.401 347.404C271.283 347.582 271.164 347.759 271.046 347.937C271.046 347.937 249.3 350.095 247.051 348.676C244.802 347.257 243.796 340.544 243.796 340.544L246.814 339.982C247.14 339.923 247.495 339.864 247.82 339.805L252.643 338.858Z" fill="#596280"/>
<path d="M262.376 311.12L261.577 309.641C261.903 305.058 261.843 300.445 261.222 295.832C258.441 278.444 256.666 272.234 255.896 270.134C256.044 270.105 256.163 270.075 256.311 270.045C265.601 279.893 265.453 296.068 262.376 311.12Z" fill="#596280"/>
<path d="M253.796 338.533C253.411 338.622 253.056 338.681 252.671 338.77C257.819 329.809 260.808 319.873 261.547 309.671L262.346 311.12C260.186 321.707 256.606 331.702 253.796 338.533Z" fill="#596280"/>
<path d="M246.784 339.982L247.79 339.804C247.464 339.834 247.109 339.923 246.784 339.982Z" fill="#596280"/>
<path d="M262.375 311.12V311.15L261.577 309.671V309.642L262.375 311.12Z" fill="#596280"/>
<path d="M275.365 266.763C269.477 267.65 262.998 268.774 256.281 270.075C256.015 269.779 255.779 269.484 255.483 269.217C255.453 269.158 255.423 269.129 255.423 269.129C255.483 269.129 255.512 269.099 255.571 269.099L274.477 265.551C278.856 270.607 300.011 298.286 277.17 338.326L272.258 329.277L275.365 266.763Z" fill="#596280"/>
<path d="M249.801 347.552C249.801 347.552 251.547 344.063 253.795 338.533C259.949 337.172 266.044 335.516 272.05 333.506L272.258 329.336L277.169 338.355C275.482 341.312 273.559 344.329 271.37 347.404C261.044 348.232 252.849 347.996 249.801 347.552Z" fill="#596280"/>
<path d="M272.258 329.307L277.169 338.355V338.385L272.258 329.336V329.307Z" fill="#596280"/>
<path d="M256.282 270.075C262.968 268.804 269.477 267.65 275.365 266.763L272.259 329.307L262.377 311.12C265.454 296.069 265.602 279.893 256.282 270.075Z" fill="#596280"/>
<path d="M272.259 329.336L272.052 333.506C266.075 335.517 259.951 337.173 253.797 338.533C256.578 331.702 260.187 321.707 262.347 311.15L272.259 329.336Z" fill="#596280"/>
<path d="M262.377 311.12L272.259 329.307V329.336L262.377 311.15V311.12Z" fill="#596280"/>
<path d="M287.2 269.809C286.845 269.513 286.756 268.981 287.052 268.626C287.348 268.271 287.88 268.183 288.235 268.478C301.165 278.533 305.366 292.372 301.461 312.037C301.372 312.451 301.017 312.717 300.632 312.717C300.573 312.717 300.514 312.717 300.455 312.688C300.011 312.599 299.715 312.155 299.804 311.712C303.561 292.727 299.538 279.39 287.2 269.809Z" fill="#222E56"/>
<path d="M307.466 392.826C307.436 392.826 307.436 392.826 307.407 392.826C306.933 392.796 306.578 392.412 306.608 391.939L309.419 342.762C309.448 342.288 309.863 341.963 310.306 341.963C310.78 341.993 311.135 342.377 311.105 342.85L308.294 392.027C308.294 392.471 307.91 392.826 307.466 392.826Z" fill="#0F1935"/>
<path d="M206.042 165.718C205.894 165.718 205.747 165.688 205.599 165.599C205.214 165.363 205.066 164.831 205.303 164.446L210.185 156.403L204.622 156.462C204.238 156.462 203.764 156.107 203.764 155.634C203.764 155.161 204.149 154.776 204.593 154.776L213.173 154.717L206.753 165.363C206.605 165.57 206.338 165.718 206.042 165.718Z" fill="#CEAC95"/>
<path d="M209.978 167.403C210.421 167.315 210.895 167.581 210.984 168.054C211.072 168.498 210.806 168.971 210.333 169.059C209.475 169.237 207.936 169.473 206.25 169.473C203.824 169.473 201.072 169.03 199.445 167.403C199.119 167.078 199.119 166.546 199.445 166.221C199.77 165.895 200.303 165.895 200.628 166.221C202.463 168.054 207.285 168.024 209.978 167.403Z" fill="#CEAC95"/>
</g>
<defs>
<clipPath id="clip0_758_796">
<rect width="502" height="485" fill="white" transform="matrix(-1 0 0 1 502 0)"/>
</clipPath>
</defs>
</svg>
