<svg width="212" height="381" viewBox="0 0 212 381" fill="none" xmlns="http://www.w3.org/2000/svg">
<g clip-path="url(#clip0)">
<path d="M0.242996 298.532C0.775996 304.392 2.422 310.645 4.299 317.715C16.072 362.062 58.007 379.844 110.241 380.931C157.853 381.923 189.153 362.184 193.077 328.614C194.377 317.514 191.429 307.703 186.89 298.532H0.242996Z" fill="#CFC7D5"/>
<path d="M161.687 245.343C161.331 222.599 189.54 187.036 159.918 150.143C130.296 113.25 80.041 121.127 66.526 199.167C59.931 237.244 -4.433 247.174 0.243 298.532H186.89C177.7 279.963 161.978 264.02 161.687 245.343Z" fill="#E5E0E8"/>
<path d="M208.481 157.672C208.606 157.338 208.631 156.974 208.555 156.625C208.479 156.277 208.304 155.957 208.051 155.705C205.645 153.15 202.561 151.334 199.16 150.469C199.699 150.067 200.261 149.696 200.843 149.358C202.056 148.701 201.585 147.336 200.028 147.22C198.616 147.12 193.766 147.911 191.188 151.327C190.978 151.439 190.774 151.562 190.576 151.695C190.324 151.866 190.118 152.095 189.976 152.364C189.833 152.633 189.759 152.932 189.759 153.236L189.751 197.649L148.627 181.7C181.184 33.9521 162.706 2.01807 162.706 2.01807C141.35 4.80007 81 2.94707 81 2.94707L66.847 27.1001C73.184 50.1001 76.304 107.056 78.119 177.792L43.864 205.15C43.6276 205.339 43.4407 205.582 43.3196 205.859C43.1985 206.137 43.1468 206.439 43.1689 206.741C43.1911 207.043 43.2865 207.334 43.4468 207.591C43.6071 207.847 43.8275 208.061 44.089 208.213L78.046 227.983C72.459 228.7 68.137 233.689 71.34 240.283L71.396 240.247C71.5676 240.47 71.7876 240.651 72.0395 240.777C72.2914 240.903 72.5685 240.969 72.85 240.972C73.0131 240.972 73.1756 240.951 73.333 240.908C74.8277 240.517 76.2767 239.969 77.656 239.273C75.9684 245.426 76.4434 251.971 79.0015 257.816C81.5597 263.66 86.046 268.45 91.711 271.384L96.801 274.039C97.092 276.269 101.714 312.146 101.993 344.139C96.469 339.427 87.504 340.07 84.472 347.639C84.2594 347.925 84.1336 348.266 84.1098 348.621C84.0861 348.977 84.1652 349.331 84.3378 349.643C84.5105 349.955 84.7692 350.21 85.0832 350.378C85.3971 350.547 85.7529 350.621 86.108 350.592C91.9284 350.077 97.7854 350.137 103.594 350.772C103.683 350.786 103.772 350.792 103.862 350.792C104.354 350.792 104.826 350.598 105.174 350.251C105.523 349.904 105.721 349.434 105.724 348.942C105.89 319.8 102.005 285.81 100.816 276.127C101.351 276.451 101.895 276.766 102.458 277.057C102.98 277.328 103.508 277.574 104.039 277.808L104.39 277.991L104.404 277.963C107.615 279.332 111.056 280.082 114.545 280.172C113.032 293.239 109.972 323.01 110.119 348.942C110.122 349.434 110.32 349.904 110.669 350.251C111.018 350.598 111.49 350.792 111.982 350.792C112.108 350.793 112.234 350.779 112.358 350.753C118.087 349.869 123.913 349.812 129.658 350.584C129.901 350.613 130.147 350.594 130.382 350.528C130.618 350.461 130.838 350.349 131.03 350.197C131.222 350.046 131.382 349.858 131.501 349.644C131.62 349.43 131.695 349.195 131.723 348.952C131.748 348.727 131.732 348.499 131.674 348.28H131.68L131.667 348.242C131.66 348.215 131.65 348.189 131.641 348.163C129.05 339.508 119.571 338.652 113.851 343.794C114.091 318.948 116.928 291.842 118.309 280.011C124.254 279.358 129.83 276.809 134.214 272.741C138.598 268.674 141.557 263.303 142.652 257.423C143.748 251.544 142.922 245.468 140.297 240.095C137.672 234.721 133.387 230.335 128.076 227.585C127.452 227.262 126.82 226.974 126.184 226.702L117.328 221.902C111.972 219.13 105.86 218.17 99.9122 219.167C93.964 220.165 88.5 223.065 84.341 227.433C84.2199 227.299 84.0797 227.183 83.925 227.09L48.31 206.363L78.236 182.463C78.3693 187.763 78.4933 193.132 78.608 198.571L88.423 204.439L89.053 195.792C88.853 198.651 88.653 201.527 88.423 204.439L143.207 205.367C144.844 198.476 146.37 191.83 147.807 185.378L190.939 202.1C191.221 202.209 191.525 202.248 191.826 202.214C192.126 202.179 192.414 202.071 192.663 201.901C192.913 201.73 193.117 201.501 193.258 201.233C193.399 200.965 193.473 200.668 193.473 200.365L193.481 157.421C196.75 162.376 203.471 164.134 207.932 158.442C207.975 158.406 208.021 158.376 208.061 158.336C208.239 158.156 208.379 157.941 208.471 157.705L208.492 157.675L208.481 157.672Z" fill="#E3DEE6" stroke="#E3DEE6" stroke-width="3.745" stroke-miterlimit="10"/>
<path d="M143.676 181.781L191.612 200.367L191.621 153.235C191.621 153.235 198.333 148.684 206.739 157.027" stroke="#19254F" stroke-width="4.858" stroke-linecap="round" stroke-linejoin="round"/>
<path d="M192.386 155.329C195.047 162.038 203.496 165.113 208.492 157.677L198.256 152.446L192.692 153.109L192.386 155.329Z" fill="#19254F"/>
<path d="M127.89 227.63L117.331 221.911C114.08 220.206 110.525 219.16 106.869 218.833C103.213 218.506 99.5281 218.905 96.0267 220.007C92.5253 221.109 89.2762 222.893 86.4662 225.254C83.6562 227.616 81.3407 230.51 79.6527 233.769C77.9647 237.029 76.9376 240.59 76.6303 244.248C76.323 247.906 76.7417 251.588 77.8623 255.083C78.9828 258.579 80.7832 261.819 83.1598 264.616C85.5364 267.413 88.4425 269.713 91.711 271.384L104.39 278" fill="#DD7A22"/>
<path d="M81 2.94702L66.847 27.1C73.793 52.308 76.875 118.327 78.608 198.57L88.423 204.438L96.25 97.052C96.25 97.052 88.2 15.65 86.965 15.96C85.73 16.27 81 2.94702 81 2.94702Z" fill="#DD7A22"/>
<path d="M81 2.94707C81 2.94707 141.35 4.80007 162.706 2.01807C162.706 2.01807 183.134 37.3031 143.206 205.368L88.422 204.44C98.107 79.7191 81 2.94707 81 2.94707Z" fill="#F49727"/>
<path d="M82.472 176.7L45.026 206.605L82.992 228.705C82.992 228.705 83.512 236.246 72.85 239.105" stroke="#19254F" stroke-width="4.858" stroke-linecap="round" stroke-linejoin="round"/>
<path d="M81.094 228.016C74.222 226.981 67.571 232.524 71.34 240.283L80.651 234.297L82.794 229.346L81.094 228.016Z" fill="#19254F"/>
<path d="M117.213 273.681C117.213 273.681 111.785 314.463 111.981 348.937C111.981 348.937 119.022 347.47 129.881 348.742" stroke="#19254F" stroke-width="4.858" stroke-linecap="round" stroke-linejoin="round"/>
<path d="M110.965 347.567C115.534 338.585 128.641 337.779 131.683 348.285L122.929 349.185L111.682 349.013L110.965 347.567Z" fill="#19254F"/>
<path d="M105.023 347.966C100.523 339.186 87.323 338.356 84.132 348.599L92.944 349.511L104.283 349.38L105.023 347.966Z" fill="#19254F"/>
<path d="M98.631 273.681C98.631 273.681 104.059 314.463 103.863 348.937C97.918 348.272 91.9211 348.206 85.963 348.742" stroke="#19254F" stroke-width="4.858" stroke-linecap="round" stroke-linejoin="round"/>
<path d="M115.268 280.184C130.653 280.184 143.125 267.712 143.125 252.327C143.125 236.942 130.653 224.47 115.268 224.47C99.883 224.47 87.411 236.942 87.411 252.327C87.411 267.712 99.883 280.184 115.268 280.184Z" fill="#F49727"/>
<path d="M190.46 152.464C192.717 148.073 198.47 147.104 200.028 147.22C201.586 147.336 202.056 148.701 200.843 149.358C199.556 150.167 198.319 151.052 197.137 152.008L190.46 152.464Z" fill="#19254F"/>
<path d="M83.893 179.8C83.4831 179.8 83.0773 179.719 82.6986 179.563C82.32 179.406 81.9759 179.176 81.6861 178.886C81.3963 178.596 81.1664 178.252 81.0096 177.873C80.8527 177.495 80.772 177.089 80.772 176.679C80.772 176.269 80.8527 175.863 81.0096 175.485C81.1664 175.106 81.3963 174.762 81.6861 174.472C81.9759 174.182 82.32 173.953 82.6986 173.796C83.0773 173.639 83.4831 173.558 83.893 173.558C85.617 173.557 85.617 179.8 83.893 179.8Z" fill="#19254F"/>
</g>
<defs>
<clipPath id="clip0">
<rect width="211.226" height="380.967" fill="white"/>
</clipPath>
</defs>
</svg>
