<svg width="183" height="377" viewBox="0 0 183 377" fill="none" xmlns="http://www.w3.org/2000/svg">
<g clip-path="url(#clip0)">
<path d="M164.441 152.939L156.349 120.793C156.336 120.74 156.319 120.688 156.297 120.637C155.214 118.345 153.552 116.375 151.474 114.923C149.396 113.471 146.975 112.587 144.45 112.359C144.265 112.346 144.08 112.385 143.916 112.472L143.75 112.382C143.717 112.464 143.7 112.542 143.669 112.624C143.47 112.801 143.346 113.047 143.323 113.312C143.321 113.401 143.331 113.49 143.353 113.576C143.251 113.949 143.169 114.327 143.109 114.709C152.293 29.6141 152.209 2.13208 152.209 2.13208C132.051 4.76108 75.083 3.00808 75.083 3.00808L61.729 25.8081C61.929 27.3591 62.129 29.0391 62.324 30.8311C54.452 30.3461 47.833 30.2791 48.86 34.0941C50.46 40.0401 60.639 32.3821 62.349 31.0451C62.666 33.8831 62.989 37.0171 63.317 40.4281C51.445 48.4111 46.344 57.8181 54.356 60.8221C59.49 62.7481 62.51 56.8011 64.237 50.5661C66.916 81.6591 69.885 129.492 72.775 186.566L62.741 260.683C57.884 256.515 50.035 257.44 48.907 265.354H48.958C48.9343 265.4 48.9143 265.449 48.898 265.498C48.871 265.632 48.8708 265.771 48.8973 265.905C48.9238 266.04 48.9766 266.168 49.0526 266.282C49.1285 266.396 49.2262 266.494 49.34 266.57C49.4539 266.646 49.5816 266.699 49.716 266.726C50.868 266.961 52.0404 267.081 53.216 267.084C55.38 267.113 57.5229 266.656 59.487 265.747C61.4512 264.838 63.1867 263.501 64.566 261.833C64.6698 261.692 64.7365 261.527 64.76 261.353L74.6 188.708L82.1 193.193L133.809 194.069C135.316 182.025 136.702 170.664 137.967 159.985L163.659 154.213C163.795 154.183 163.924 154.125 164.037 154.044C164.151 153.963 164.247 153.86 164.32 153.742C164.393 153.623 164.441 153.491 164.463 153.353C164.484 153.215 164.477 153.074 164.443 152.939H164.441ZM138.225 157.787C140.05 142.362 141.638 128.312 143.018 115.557C142.657 120.994 147.51 124.341 152.692 123.895C153.447 123.82 154.166 123.536 154.77 123.076L162.154 152.41L138.225 157.787Z" fill="#E3DEE6" stroke="#E3DEE6" stroke-width="3.745" stroke-miterlimit="10"/>
<path d="M119.528 215.044C118.939 214.739 118.342 214.467 117.742 214.21L114.167 212.274C114.344 211.202 114.226 210.386 113.567 210.174C112.098 209.805 110.595 209.592 109.081 209.539C102.879 206.454 95.7094 205.942 89.1315 208.114C82.5536 210.286 77.0988 214.966 73.9524 221.138C70.8061 227.309 70.2225 234.473 72.3287 241.072C74.4348 247.671 79.0603 253.172 85.2 256.38L90.775 259.288C91.383 264.039 95.421 296.632 95.622 325.646C90.456 320.338 81.205 320.866 78.74 329.173H78.774C78.7468 329.271 78.7343 329.372 78.737 329.473C78.7607 329.748 78.8913 330.003 79.1007 330.182C79.3102 330.362 79.5817 330.452 79.857 330.434C85.4033 329.943 90.9845 330.003 96.519 330.612C96.5693 330.619 96.6201 330.623 96.671 330.623C96.9468 330.623 97.2113 330.514 97.4068 330.319C97.6022 330.125 97.7127 329.861 97.714 329.585C97.714 329.312 97.714 329.036 97.714 328.762L97.764 328.662C97.748 328.63 97.73 328.601 97.714 328.57C97.778 300.821 94.058 268.795 93.028 260.477C94.9173 261.687 96.9283 262.695 99.028 263.485L99.092 263.326C99.124 263.337 99.156 263.345 99.192 263.356C98.782 268.073 98.533 271.184 98.533 271.184C100.596 272.958 105.333 277 105.333 277L106.213 276.512C104.803 290.755 103.195 311.192 103.299 329.585C103.301 329.861 103.412 330.125 103.607 330.319C103.803 330.514 104.067 330.623 104.343 330.623C104.415 330.623 104.486 330.616 104.556 330.601C110.038 329.743 115.616 329.686 121.115 330.431C121.251 330.447 121.389 330.436 121.521 330.399C121.653 330.361 121.776 330.298 121.884 330.213C121.991 330.128 122.081 330.023 122.148 329.903C122.215 329.783 122.257 329.651 122.273 329.515C122.294 329.302 122.246 329.088 122.137 328.903L122.337 328.881C119.953 320.271 110.572 319.768 105.394 325.368C105.533 307.568 107.105 288.462 108.437 275.28L112.826 272.847C113.034 271.387 113.214 268.179 113.326 264.013C118.575 262.812 123.328 260.027 126.943 256.036C130.558 252.046 132.86 247.041 133.538 241.699C134.217 236.358 133.238 230.936 130.735 226.169C128.232 221.401 124.326 217.517 119.544 215.042L119.528 215.044Z" fill="#E3DEE6" stroke="#E3DEE6" stroke-width="3.745" stroke-miterlimit="10"/>
<path d="M0.229004 298.846C0.729004 304.378 2.286 310.279 4.058 316.953C15.17 358.811 54.751 375.595 104.058 376.621C148.998 377.557 178.541 358.926 182.245 327.24C183.469 316.764 180.689 307.503 176.405 298.846H0.229004Z" fill="#CFC7D5"/>
<path d="M152.612 248.642C152.277 227.175 178.903 193.608 150.943 158.782C122.983 123.956 75.549 131.394 62.792 205.054C56.567 241 -4.184 250.371 0.229004 298.846H176.4C167.728 281.32 152.888 266.271 152.612 248.642Z" fill="#E5E0E8"/>
<path d="M137.49 159.245L163.461 153.409L155.369 121.264C154.354 119.152 152.81 117.338 150.887 115.998C148.965 114.658 146.729 113.837 144.396 113.615" stroke="#19254F" stroke-width="2.088" stroke-linecap="round" stroke-linejoin="round"/>
<path d="M119.383 215.3L109.416 209.9C106.35 208.312 103.001 207.344 99.5599 207.05C96.1193 206.757 92.6546 207.144 89.3636 208.189C86.0725 209.235 83.0196 210.918 80.3791 213.143C77.7387 215.369 75.5624 218.092 73.9745 221.159C72.3866 224.225 71.4183 227.574 71.1247 231.015C70.8311 234.455 71.2181 237.92 72.2636 241.211C73.309 244.502 74.9925 247.555 77.2178 250.195C79.4431 252.836 82.1666 255.012 85.233 256.6L97.2 262.837" fill="#DE7A08"/>
<path d="M75.119 3.22412L61.765 26.0241C65.029 51.8741 69.02 111.732 72.865 187.871L82.129 193.409L89.518 92.0471C89.518 92.0471 81.923 15.2141 80.754 15.5061C79.585 15.7981 75.119 3.22412 75.119 3.22412Z" fill="#DE7A08"/>
<path d="M76.513 167.225L63.754 261.43C63.754 261.43 59.099 267.748 49.954 265.919" stroke="#19254F" stroke-width="2.088" stroke-linecap="round" stroke-linejoin="round"/>
<path d="M63.048 261.123C58.218 256.685 50.088 257.509 48.939 265.569L59.384 265.803L63.675 263.062L63.048 261.123Z" fill="#19254F"/>
<path d="M109.3 258.763C109.3 258.763 104.177 297.256 104.362 329.796C109.953 328.909 115.645 328.847 121.254 329.611" stroke="#19254F" stroke-width="2.088" stroke-linecap="round" stroke-linejoin="round"/>
<path d="M103.407 328.5C107.623 320.01 119.616 319.2 122.358 329.1L114.346 329.988L104.057 329.869L103.407 328.5Z" fill="#19254F"/>
<path d="M97.8 328.88C93.665 320.58 81.638 319.739 78.774 329.388L86.805 330.288L97.132 330.212L97.8 328.88Z" fill="#19254F"/>
<path d="M91.765 258.763C91.765 258.763 96.888 297.256 96.7 329.8C91.0894 329.172 85.43 329.111 79.807 329.615" stroke="#19254F" stroke-width="2.088" stroke-linecap="round" stroke-linejoin="round"/>
<path d="M107.469 264.9C121.99 264.9 133.762 253.128 133.762 238.607C133.762 224.086 121.99 212.314 107.469 212.314C92.9478 212.314 81.176 224.086 81.176 238.607C81.176 253.128 92.9478 264.9 107.469 264.9Z" fill="#F49727"/>
<path d="M77.855 170.15C77.0737 170.15 76.3243 169.84 75.7719 169.287C75.2194 168.735 74.909 167.985 74.909 167.204C74.909 166.423 75.2194 165.673 75.7719 165.121C76.3243 164.568 77.0737 164.258 77.855 164.258C79.482 164.258 79.482 170.15 77.855 170.15Z" fill="#19254F"/>
<path d="M75.119 3.22417C75.119 3.22417 132.087 4.97617 152.244 2.34717C152.244 2.34717 152.377 46.1092 133.844 194.284L82.135 193.408C80.548 73.1562 75.119 3.22417 75.119 3.22417Z" fill="#F49727"/>
<path d="M66.381 38.7231C52.393 47.0491 45.726 57.7881 54.391 61.0381C64.383 64.7851 66.381 38.7231 66.381 38.7231Z" fill="#028EA7"/>
<path d="M62.634 31.0621C54.641 30.5621 47.856 30.4501 48.896 34.3101C50.644 40.8001 62.634 31.0621 62.634 31.0621Z" fill="#028EA7"/>
<path d="M152.725 124.11C146.594 124.638 140.896 119.87 143.782 112.597L153.32 117.77L155.775 122.454L155.175 123.002C154.502 123.629 153.641 124.019 152.725 124.11Z" fill="#19254F"/>
<path d="M149.051 106.3C154.039 107.63 156.035 109.958 157.365 112.619" stroke="#CFC7D5" stroke-miterlimit="10" stroke-linecap="round"/>
<path d="M153.707 101.311C158.695 102.641 160.69 104.969 162.02 107.629" stroke="#CFC7D5" stroke-miterlimit="10" stroke-linecap="round"/>
<path d="M99.059 263.7C96.9022 262.892 94.8395 261.853 92.907 260.6L103.05 220.141L100.833 213.158L105.533 211.426L107.708 242.532L99.059 263.7Z" fill="#DE7A08"/>
<path d="M110.11 218.363C114.146 226.763 113.761 266.656 112.847 273.063L105.356 277.216C105.356 277.216 100.623 273.175 98.556 271.401C98.556 271.401 102.42 223.13 104.777 218.281L110.11 218.363Z" fill="#593B6D"/>
<path d="M108.668 219.788C109.476 222.808 109.963 225.904 110.123 229.025" stroke="#45245C" stroke-width="0.75" stroke-miterlimit="10" stroke-linecap="round"/>
<path d="M107.15 219.693C106.526 221.527 106.075 223.415 105.802 225.332" stroke="#45245C" stroke-width="0.75" stroke-miterlimit="10" stroke-linecap="round"/>
<path d="M101.7 211.936C101.625 211.544 101.7 211.137 101.911 210.798C102.122 210.458 102.454 210.211 102.839 210.105C106.412 209.487 110.072 209.584 113.607 210.388C115.694 211.069 112.335 217.859 111.318 219.578C110.301 221.297 105.162 220.478 104.018 219.842C103.14 219.357 102.132 214.335 101.7 211.936Z" fill="#705782"/>
<path d="M109.936 220.278C110.416 218.902 110.817 217.5 111.136 216.078" stroke="#523367" stroke-width="0.75" stroke-miterlimit="10" stroke-linecap="round"/>
<path d="M105.425 220.4C104.699 218.467 104.191 216.459 103.909 214.414" stroke="#523367" stroke-width="0.75" stroke-miterlimit="10" stroke-linecap="round"/>
</g>
<defs>
<clipPath id="clip0">
<rect width="182.531" height="376.655" fill="white"/>
</clipPath>
</defs>
</svg>
