<svg width="386" height="395" viewBox="0 0 386 395" fill="none" xmlns="http://www.w3.org/2000/svg">
<path d="M257.7 379.2C328.5 361.5 280 271.6 308.9 232.9C337.8 194.2 396.4 162.3 347 106.2C299.9 52.6 243.5 114.4 198.2 128.5C152.9 142.6 85.1 147.3 83.2 236.4C81.5 314.6 152.1 318.1 177.2 332.3C202.3 346.5 203.4 392.7 257.7 379.2Z" fill="#FDEDF1"/>
<path d="M356.8 45.3C341.9 33.9 322.6 30.4 304.7 35.8C308.3 38.5 311.3 41.1 313.8 43.7C311.3 41.1 308.2 38.5 304.7 35.8C292.8 39.4 282.3 46.6 274.8 56.6C270.2 24.4 240.6 1.99997 208.6 6.59997C185.2 9.89997 166.1 27.1 160.2 50.1C147.5 99.4 183.8 155.3 210 187.6C217.2 196.6 224.8 205.1 232.9 213.2H232.8H232.7C232.5 213.1 232.3 213.3 232.2 213.5C232.2 213.6 232.2 213.7 232.2 213.8C230.8 215.2 228.7 215.7 226.8 215C225.4 214.3 224.1 213.4 222.9 212.4C220.4 210.8 217.3 210.2 214.3 211C214.1 211 214 211.2 214 211.4C214 211.6 214.2 211.7 214.4 211.7C217.1 211 220.1 211.5 222.4 213C223.6 214 224.9 214.9 226.4 215.7C227.1 216 227.8 216.1 228.5 216.1C230.1 216.1 231.7 215.4 232.8 214.2L233.4 214.3C230.4 215.9 225.8 218.6 224.5 220.4C222.8 222.7 228.1 222.5 231.9 222.7L224.2 252.4C223.8 252.3 223.5 252.2 223.1 252.3C221.1 252.4 219.5 254.1 219.5 256.2L219.7 259.8C219.7 260.7 220.1 261.4 220.6 262L214 280.8L196.4 293.5L196.2 293.3L195.1 289.7C197.8 288.7 198.8 288.6 199.1 287.4C199.6 285.5 198 284.3 198.7 283.7C199.2 283.3 199.3 282.7 198.9 282.2C198.9 282.1 198.8 282.1 198.8 282.1C197.3 280.9 195.9 280.3 196.1 279.3C196.2 278.5 195.3 277.2 194 276.2C193.9 275.9 193.7 275.5 193.5 275.3C192.2 272.4 189.4 270.5 186.3 270.4C183.4 270.2 178.6 272.2 174.5 270.8C172.6 270.1 170.6 270.2 168.8 270.9C174.3 272.6 172.8 272.7 174.3 274.4C170.6 275.4 168 278.7 166.2 282C164.3 285.3 162.8 289 160.1 291.7C156.8 294.9 152.3 296.3 147.8 295.5C153.9 298.7 160.8 300 167.6 299.3C166.2 302.2 163.7 304.3 160.7 305.2C163.3 306.7 166.5 307 169.3 305.8C174.4 304 178.4 300.1 183.3 297.9L181.1 301.9C183.6 300.2 186.5 296.7 188.2 293.1C188.5 293.7 188.8 294.4 189 295C188.6 295.2 188.2 295.4 187.9 295.7L186.1 297.6C185.8 298 185.6 298.5 185.8 299V299.1L175.5 317.3L167.7 327.7C166.6 327.6 165.5 328 164.8 328.9L163.8 330.1C162.6 331.5 162.8 333.6 164.2 334.8C165.6 336 167.7 335.8 168.9 334.4L169.9 333.2C170.6 332.4 170.8 331.4 170.6 330.4L179.6 320.4L187.3 306.9C189.8 335.5 155.8 343.7 155.8 343.7L161.7 349.8C158.7 350.2 155.2 350.4 152.8 350.5C152.9 350.1 152.9 349.7 153 349.3C151.4 349 149.8 348.9 148.3 348.7H148.2H148.1L147.3 362.6H147.4C148.5 363.1 149.9 362.7 150.4 361.6C150.5 361.5 150.5 361.3 150.6 361.2C151.2 359.3 151.9 357.4 152.7 355.6C152.7 355.2 152.6 354.8 152.6 354.4L165.6 353.7L172.8 361.1C167.1 366.9 161.7 371.6 159.4 373.6C159.3 373.3 159.1 373 159 372.7C157.5 373.4 156.1 374.1 154.8 374.9L154.7 375L154.6 375.1L161.7 387.1L161.8 387C163 386.8 163.8 385.7 163.7 384.4C163.7 384.2 163.6 384.1 163.6 384C163 382.1 162.6 380.1 162.3 378.1C162.1 377.9 162 377.7 161.8 377.4C164.6 374.9 170.2 370 176.2 364.4L183 371.4C211.1 338.9 208.7 319.7 202.5 297.9L220.1 284.7L225 262.9C225.5 262.7 226 262.3 226.4 261.8C227.6 263.1 228.5 264.7 228.8 266.4C228.8 267.7 229.2 268.9 230 270C230.8 270.9 232.1 271 233.3 271.2C233.7 271.2 234 271.3 234.4 271.4C237.4 272 239.7 274.8 239.7 277.9C239.7 278.1 239.8 278.2 240 278.2C240.2 278.2 240.3 278 240.3 277.9C240.2 274.5 237.8 271.5 234.5 270.8C234.1 270.7 233.7 270.7 233.3 270.6C232.2 270.5 231.1 270.3 230.5 269.7C229.9 268.7 229.5 267.6 229.5 266.4C229.1 264.4 228.2 262.7 226.8 261.3C227.1 260.7 227.3 260.1 227.3 259.4L227.1 255.8C227 254.4 226.2 253.2 224.9 252.6L232.6 222.7C233.1 222.7 233.5 222.8 233.9 222.8C237.3 223.2 242.6 225.7 241.7 225C240.9 224.4 238.6 218.1 237.3 215.3L238.7 215.7H238.8C239 215.7 239.1 215.6 239.2 215.4C239.3 215.2 239.1 215 238.9 214.9L237.5 214.5C239.4 213.7 241.3 212.8 243.2 211.8C272.2 202.6 362.1 169.4 378.2 107.1C384.1 84.1 375.7 59.7 356.8 45.3ZM236.5 213.9L236.4 213.8C236.7 213.7 237.1 213.6 237.5 213.5C237.2 213.6 236.9 213.8 236.5 213.9Z" fill="#E3DEE6" stroke="#E3DEE6" stroke-width="3.7" stroke-miterlimit="10" stroke-linejoin="round"/>
<path d="M248.4 250.5H0V249.2C0 240.6 6.8 233.5 15.4 233.3C13.7 229.6 13.4 225.5 14.4 221.6C15.6 217.2 18.4 213.5 22.4 211.3C25 209.8 27.9 209.1 30.8 209C31.3 209 31.8 209 32.2 209.1C32 207.9 31.8 206.6 31.9 205.4C31.9 200 34 194.9 37.8 191.1C41.6 187.3 46.6 185.2 52 185.2H52.1C54.5 185.2 56.8 185.6 59.1 186.5C63.9 175.4 76.6 170.1 87.9 174.5C95.9 177.7 101.3 185 102.1 193.4C104.9 190.8 108.5 189.1 112.4 188.8C117 188.4 121.4 189.9 125 192.8C128.8 196.1 131.1 200.8 131.1 205.9C131.1 206.3 131.1 206.7 131.1 207.1C133.2 204.8 135.8 203.1 138.9 202.3C143.2 201.1 147.7 201.6 151.5 203.8C156.7 206.7 160 212.2 160 218.2C160 219.4 159.9 220.6 159.6 221.7C163.8 222.2 167.4 224.8 169.2 228.6C174.1 222 183 219.7 190.5 223.1C191.3 215 198.2 208.6 206.5 208.9C211.9 209 216.9 211.9 219.7 216.6C223 214.3 226.9 213.4 230.9 213.9C235.2 214.5 239.1 216.7 241.7 220.1C243.9 223 245.1 226.5 245.1 230.1C245.1 230.5 245.1 230.9 245.1 231.3C250.9 234.6 253.2 241.9 250.2 248C249.8 248.7 249.4 249.4 248.9 250.1L248.4 250.5ZM1.7 248.8H247.6C247.9 248.3 248.2 247.8 248.5 247.3C251.2 241.9 249 235.3 243.6 232.6L243 232.3L243.1 231.7C243.2 231.2 243.2 230.7 243.2 230.2C243.2 227 242.1 223.8 240.2 221.3C237.8 218.2 234.4 216.2 230.5 215.7C226.6 215.2 222.8 216.2 219.7 218.6L218.9 219.2L218.4 218.3C216 213.7 211.3 210.8 206.2 210.7C202.4 210.6 198.9 212 196.2 214.6C193.5 217.2 191.9 220.7 191.9 224.5V225.9L190.7 225.2C183.3 221.2 174 223.6 169.6 230.8L168.7 232.3L168.1 230.6C166.6 226.3 162.8 223.5 158.4 223.3L157.3 223.2L157.6 222.2C158 220.9 158.2 219.5 158.2 218.2C158.1 212.8 155.2 207.9 150.5 205.3C147 203.3 143 202.9 139.2 204C135.4 205.1 132.2 207.6 130.3 211.1L126.7 217.6L128.7 210.4C129.1 209 129.3 207.5 129.3 205.9C129.3 201.3 127.3 197 123.8 194.1C117.3 188.5 107.5 189.3 101.9 195.9L100.4 197.7V195.4C100.4 186.8 95.2 179.2 87.2 176C76.5 171.8 64.5 177.1 60.3 187.8L60 188.6L59.2 188.3C56.9 187.3 54.6 186.9 52.1 186.9C52.1 186.9 52.1 186.9 52 186.9C47.1 186.9 42.5 188.8 39 192.3C35.5 195.8 33.6 200.4 33.6 205.4C33.6 206.9 33.8 208.4 34.1 209.9L34.4 211.1L33.1 210.9C32.3 210.8 31.5 210.7 30.7 210.7C28.1 210.7 25.4 211.4 23.1 212.7C19.5 214.7 17 218 15.9 222C14.8 226 15.3 230.1 17.4 233.7L18.1 235H15.7C8.2 235 1.9 241.1 1.7 248.8Z" fill="#E5DCE2"/>
<path d="M223.1 257.7L238.4 198.6" stroke="#19254F" stroke-width="0.65" stroke-miterlimit="10"/>
<path d="M356.8 45.2999C341.9 33.8999 322.6 30.3999 304.7 35.7999C381 92.7999 210.3 127 209.9 187.6C217.4 197 225.5 206 234 214.5C234 214.5 358.8 181.6 378.1 107.1C384.1 84.0999 375.7 59.6999 356.8 45.2999Z" fill="#DB3561"/>
<path d="M304.7 35.8C292.8 39.4 282.3 46.6 274.8 56.6C270.2 24.4 240.6 1.99997 208.6 6.59997C185.2 9.89997 166.1 27.1 160.2 50.1C147.5 99.4 183.8 155.3 210 187.6C210.3 126.9 381 92.8 304.7 35.8Z" fill="#ED3B63"/>
<path d="M225 260.4C227.1 261.8 228.5 264 229 266.5C229 267.7 229.4 268.9 230.1 269.9C231.1 271 232.8 270.9 234.3 271.1C237.5 271.8 239.8 274.6 239.9 277.9" stroke="#19254F" stroke-width="0.65" stroke-miterlimit="10" stroke-linecap="round"/>
<path d="M186.9 296.9L175.4 317.1L165.9 329.7L168.8 332.1L179.5 320.2L189.1 303.2L186.9 296.9Z" fill="#D8A97D"/>
<path d="M177.7 334.5C172.1 339.5 169.6 346.8 166.9 348.5C164.2 350.1 149.6 350.6 149.6 350.6L151.1 354.5L172 353.4L188.8 343L187.2 338.6L177.7 334.5Z" fill="#D8A97D"/>
<path d="M195.6 341.6C190.5 352.9 167 372.5 161.3 377.9L158.3 374.6C158.3 374.6 184.2 352.9 190.2 338.6L195.6 341.6Z" fill="#E8BA8B"/>
<path d="M186 291C187.1 291.1 187.6 291.2 187.6 291.2L186.9 290.2L186 291Z" fill="#332720"/>
<path d="M192.4 274.1C193.3 274.6 193.9 275.5 194.2 276.6L192.3 275.6L192.4 274.1Z" fill="#028EA7"/>
<path d="M195 289.8C197.7 288.8 198.7 288.7 199 287.5C199.5 285.6 197.9 284.4 198.6 283.8C199.1 283.4 199.2 282.8 198.8 282.3C198.8 282.2 198.7 282.2 198.7 282.2C197.2 281 195.8 280.4 196 279.4C196.2 277.8 192.8 274.6 189.7 274.7C185.3 274.9 181.1 277.7 180.5 280.6C180 284.3 181.8 288 185.1 289.8C188.1 291.6 189 295.3 189.4 296.8C190.6 297.4 191.9 297.5 193.2 297.3C194.5 297 195.7 296.3 196.7 295.4L195 289.8Z" fill="#E8BA8B"/>
<path d="M193.1 275.6C192 277.5 190.3 279 188.3 279.9C186.9 280.4 189 282.2 188.6 282.8C187.8 283.8 187.9 285.3 188.9 286.1C189.1 286.3 189.3 286.4 189.6 286.5C190.1 288.3 188.5 290.3 187 291.4C185.5 292.5 177.2 287.9 178.6 282.1C180.7 273.3 187.2 273.6 189.7 273.6C193.6 273.7 193.1 275.6 193.1 275.6Z" fill="#028EA7"/>
<path d="M193.8 281.3C194 281.1 194.3 280.9 194.6 280.7" stroke="#C48D5F" stroke-width="0.21" stroke-miterlimit="10" stroke-linecap="round"/>
<path d="M189 283.1C188.6 282.8 188.1 282.8 187.7 283.1C187.3 283.4 187.1 283.8 187 284.2C186.9 285 187.2 285.8 187.9 286.2C188.6 286.6 189.4 286.5 190.1 286.1" fill="#E8BA8B"/>
<path d="M189 283.1C188.6 282.8 188.1 282.8 187.7 283.1C187.3 283.4 187.1 283.8 187 284.2C186.9 285 187.2 285.8 187.9 286.2C188.6 286.6 189.4 286.5 190.1 286.1" stroke="#C48D5F" stroke-width="0.2" stroke-miterlimit="10" stroke-linecap="round"/>
<path d="M189.8 285C189.6 285 189.4 284.9 189.3 284.7C189.2 284.5 189.2 284.3 189.3 284.1C189.1 284 188.9 283.9 188.7 283.9C188.3 283.8 187.9 284.1 187.9 284.5C187.9 284.7 187.9 284.9 188.1 285.1" stroke="#C48D5F" stroke-width="0.2" stroke-miterlimit="10" stroke-linecap="round"/>
<path d="M194.5 278.4C193.6 278.5 192.7 279 192 279.6" stroke="#C48D5F" stroke-width="0.21" stroke-miterlimit="10" stroke-linecap="round"/>
<path d="M198.3 283.1C198 283.1 197.9 283.6 197.4 283.7" stroke="#C48D5F" stroke-width="0.12" stroke-miterlimit="10" stroke-linecap="round"/>
<path d="M202.2 296.9C208.5 319.1 211.5 338.4 182.9 371.4L155.8 343.5C155.8 343.5 196 333.9 185.8 298.8C185.7 298.3 185.8 297.8 186.1 297.4L187.9 295.5C188.4 294.9 189.2 294.6 190 294.5H199.8L202.2 296.9Z" fill="#F49727"/>
<path d="M223 252.2C225 252.1 226.8 253.7 226.9 255.8L227.1 259.4C227.2 261.5 225.6 263.2 223.5 263.3C221.5 263.4 219.7 261.8 219.6 259.7L219.4 256.1C219.4 254.1 221 252.3 223 252.2Z" fill="#E8BA8B"/>
<path d="M169.4 328.3C170.8 329.5 171 331.6 169.8 333.1L168.8 334.3C167.6 335.7 165.5 335.9 164.1 334.7C162.7 333.5 162.5 331.4 163.7 330L164.7 328.8C165.9 327.3 168 327.1 169.4 328.3Z" fill="#D8A97D"/>
<path d="M193.6 275.5C192.4 272.5 189.5 270.4 186.2 270.3C183.3 270.1 178.5 272.1 174.4 270.7C172.5 270 170.5 270.1 168.7 270.8C174.2 272.5 172.7 272.6 174.2 274.3C170.5 275.3 167.9 278.6 166.1 281.9C164.2 285.2 162.7 288.9 160 291.6C156.7 294.8 152.2 296.2 147.7 295.4C153.8 298.6 160.7 299.9 167.5 299.2C166.1 302.1 163.6 304.2 160.6 305.1C163.2 306.6 166.4 306.9 169.2 305.7C174.3 303.9 178.3 300 183.2 297.8L181 301.8C184.9 299.2 189.8 292 189.6 287.4L181.8 284L184.6 276.2L193.6 275.5Z" fill="#028EA7"/>
<path d="M198.3 285C197.4 285.4 196.4 285.5 195.4 285.5C196 286.1 196.7 286.5 197.5 286.7C198.5 286.7 198.3 285 198.3 285Z" fill="#C48D5F"/>
<path d="M236.6 214.2C237.7 216.1 240.6 224.3 241.5 225C242.4 225.7 237.1 223.2 233.7 222.8C230.3 222.4 222.4 223.1 224.4 220.4C226.4 217.7 236 212.9 236 212.9L236.6 214.2Z" fill="#ED3B63"/>
<path d="M236.5 214.4C256.6 205.7 274.4 192.7 288.8 176.1" stroke="#CE2955" stroke-width="0.8" stroke-miterlimit="10" stroke-linecap="round"/>
<path d="M234.4 213.8C229.3 200.9 226.9 196.3 223.9 177.4" stroke="#CE2955" stroke-width="0.8" stroke-miterlimit="10" stroke-linecap="round"/>
<path d="M235.5 213.8C240.1 207.8 246.2 197.7 247.6 195.4" stroke="#CE2955" stroke-width="0.8" stroke-miterlimit="10" stroke-linecap="round"/>
<path d="M232.4 213.6L238.6 215.2" stroke="#19254F" stroke-width="0.8" stroke-miterlimit="10" stroke-linecap="round"/>
<path d="M232.9 213.5C231.4 215.4 228.9 216.1 226.6 215.3C225.2 214.6 223.9 213.7 222.7 212.7C220.2 211.1 217.3 210.6 214.4 211.3" stroke="#19254F" stroke-width="0.7" stroke-miterlimit="10" stroke-linecap="round"/>
<path d="M180.3 276.9C172.8 277.9 167.8 293 162.5 294.1" stroke="#037F8C" stroke-width="0.32" stroke-miterlimit="10" stroke-linecap="round"/>
<path d="M191 274.7C188.6 272.7 184.3 272 180 273" stroke="#037F8C" stroke-width="0.32" stroke-miterlimit="10" stroke-linecap="round"/>
<path d="M183.3 283.7C182.1 289.7 178.9 295 174.4 299" stroke="#037F8C" stroke-width="0.32" stroke-miterlimit="10" stroke-linecap="round"/>
<path d="M184 279.1C181.6 279.2 177.6 282.6 176 286.7" stroke="#037F8C" stroke-width="0.32" stroke-miterlimit="10" stroke-linecap="round"/>
<path d="M189.4 294.5C191.7 294.6 194 294.2 196.2 293.3L197.3 294.4L195.5 297L191 296.2L189.4 294.5Z" fill="#F49727"/>
<path d="M200 299.7L220 284.7L225.3 261.2L221.2 260.2L214 280.7L194.7 294.6C193.3 295.6 192.8 297.6 193.7 299.1C194.6 300.7 196.5 301.3 198.2 300.6L200 299.7Z" fill="#E8BA8B"/>
<path d="M323.6 365.8H229.8L229.7 365C229.6 363.9 229.5 362.8 229.5 361.7C229.5 347.5 240 335.5 253.9 333.6C257.5 324.4 265.2 317.8 274.8 315.9C290 312.7 305 322.5 308.5 337.6C311.8 337.6 315.1 338.6 317.9 340.3C326.4 345.6 329 356.8 323.8 365.3L323.6 365.8ZM231.3 364H322.6C324.7 360.4 325.3 356.1 324.4 352C323.4 347.7 320.8 344.1 317.1 341.8C314.5 340.2 311.5 339.3 308.5 339.3H307.2L307.1 338.6C304.1 324 289.8 314.5 275.3 317.5C266.1 319.4 258.7 325.8 255.4 334.6L255.2 335.1L254.7 335.2C241.3 336.8 231.3 348.1 231.3 361.7C231.2 362.5 231.3 363.3 231.3 364Z" fill="#E5DCE2"/>
<path d="M162.2 378C160.8 376.4 159.7 374.6 159 372.6C157.5 373.3 156.1 374 154.7 374.9L161.8 386.9C163 386.7 163.8 385.6 163.7 384.3C163.7 384.1 163.6 384 163.6 383.9C163 382 162.5 380 162.2 378Z" fill="#A999B1"/>
<path d="M156.3 377.3C157.5 376.5 157.9 375 157.2 373.8" stroke="#27003D" stroke-width="0.12" stroke-miterlimit="10" stroke-linecap="round"/>
<path d="M163.1 383.3C162.1 383.1 161.1 383.2 160.3 383.8" stroke="#27003D" stroke-width="0.12" stroke-miterlimit="10" stroke-linecap="round"/>
<path d="M161.8 386.9L154.7 374.9" stroke="#27003D" stroke-width="0.24" stroke-miterlimit="10"/>
<path d="M152.6 355.5C152.4 353.4 152.5 351.3 153 349.2C151.4 348.9 149.8 348.7 148.1 348.6L147.3 362.5C148.4 363 149.8 362.6 150.3 361.5C150.4 361.4 150.4 361.2 150.5 361.1C151.1 359.2 151.8 357.3 152.6 355.5Z" fill="#A999B1"/>
<path d="M148.1 351.5C149.5 351.5 150.6 350.5 150.7 349.1" stroke="#27003D" stroke-width="0.12" stroke-miterlimit="10" stroke-linecap="round"/>
<path d="M150.5 360.3C149.8 359.2 147.9 359.1 147.9 359.1" stroke="#27003D" stroke-width="0.12" stroke-miterlimit="10" stroke-linecap="round"/>
<path d="M147.3 362.6L148.1 348.7" stroke="#27003D" stroke-width="0.24" stroke-miterlimit="10"/>
<path d="M191.1 296.3C190.6 298.8 190.1 302.8 194.1 303.5" stroke="#E0821B" stroke-width="0.45" stroke-miterlimit="10"/>
<path d="M191.1 315.4C191.1 320.5 183.8 336.3 175.7 339.8" stroke="#E0821B" stroke-width="0.45" stroke-miterlimit="10"/>
<path d="M194.5 289.8L191.9 290.5L195 291.7L194.5 289.8Z" fill="#D8A97D"/>
</svg>
