<svg width="78" height="32" viewBox="0 0 78 32" fill="none" xmlns="http://www.w3.org/2000/svg">
<path d="M22.5236 23.6218C22.3255 23.6218 22.0833 23.7968 21.0263 23.7968C14.1758 23.7968 15.7563 16.1427 10.4483 14.7589C15.3416 13.6655 19.814 8.74383 19.814 7.36732C19.814 6.20706 18.9332 5.35418 18.1014 5.35418C17.8041 5.35418 13.6828 13.2707 8.25859 13.8878C9.31309 11.1773 10.3419 8.92243 10.3419 7.8703C10.3419 6.16333 8.86658 5.26671 7.98579 5.26671C7.89772 5.26671 7.85368 5.28858 7.85368 5.35418C7.85368 10.3645 3.60144 17.4306 3.60144 20.3185C3.60144 22.2866 4.96788 23.2938 5.8034 23.2938C5.93552 23.2938 5.97956 23.2501 5.97956 23.1189C5.97956 20.5675 6.81386 17.7501 7.75337 15.1987C13.0748 16.1707 11.3903 25.4807 18.8659 25.4807C21.4214 25.4807 22.6766 24.103 22.6766 23.7531C22.6778 23.6656 22.6117 23.6218 22.5236 23.6218Z" fill="white"/>
<path d="M74.1793 16.4465C72.7529 17.8279 71.0134 18.8314 69.8512 19.1849C71.0244 15.8791 72.567 12.193 72.567 12.0703C72.567 11.7423 71.0476 10.9331 70.8274 10.9331C70.7736 10.9331 70.6072 11.2223 70.3773 11.6876C69.8573 11.26 69.0928 10.8238 68.2976 10.8238C65.6063 10.8238 62.46 14.4115 62.46 17.7149C62.46 20.1447 63.7603 21.1057 65.0815 21.1057C66.0528 21.1057 66.9165 20.4533 67.6052 19.6381C67.7948 20.4885 68.4346 21.1057 69.0463 21.1057C70.3919 21.1057 74.3995 17.8023 74.3995 16.6652C74.4013 16.636 74.3968 16.6068 74.3864 16.5794C74.376 16.5521 74.3598 16.5273 74.339 16.5066C74.3182 16.4859 74.2932 16.4699 74.2657 16.4595C74.2381 16.4491 74.2087 16.4447 74.1793 16.4465ZM65.7862 19.5531C65.2968 19.5531 64.7953 19.0051 64.7953 17.8679C64.7953 15.1951 67.1086 12.4858 68.8481 12.0484C69.3778 12.0484 69.68 12.4129 69.8635 12.7956C69.1943 14.2876 68.3502 16.3541 67.889 17.7574C67.1697 18.9432 66.3489 19.5531 65.7862 19.5531Z" fill="white"/>
<path d="M60.9846 10.9344C60.9614 10.9344 60.7962 11.2697 60.5467 11.8127C60.0304 11.3499 59.201 10.825 58.319 10.825C55.9372 10.825 53.1542 13.6364 52.5878 16.6372C49.6225 19.0671 48.031 19.5531 46.8859 19.5531C46.1715 19.5531 45.1195 19.2117 45.084 17.5375C45.5823 17.8279 46.1531 17.9728 46.7306 17.9554C48.8897 17.9554 51.7535 16.376 51.7535 13.1868C51.7535 12.2015 49.5515 10.8238 48.5594 10.8238C46.5483 10.8238 43.3628 13.7056 42.8245 16.8207C41.611 17.8145 40.2421 18.801 39.4409 19.1752C40.2323 16.6457 42.0857 12.2404 43.2821 9.33429C48.4579 9.00748 53.7805 8.61992 54.3751 8.45712C54.6197 8.39151 54.8375 8.17282 54.8375 8.01974C54.8375 7.9104 54.7934 7.86666 54.6173 7.86666C54.3726 7.86666 49.1124 7.96143 43.8313 7.98815C44.1653 7.15836 44.3745 6.60313 44.3745 6.4865C44.3745 6.20099 42.8979 5.34811 42.6337 5.34811C42.5774 5.34811 42.1052 6.42576 41.452 7.99544C39.973 7.99544 38.5503 7.99544 37.3037 7.97357C32.3469 7.97357 31.0257 7.57994 30.6061 7.57994C30.518 7.57994 30.452 7.64554 30.452 7.77676C30.452 8.97954 31.8184 9.8555 33.2497 9.8555C34.0167 9.864 37.1814 9.7012 40.8403 9.48252C39.847 11.9124 38.6494 14.9339 37.8114 17.1366C36.7728 17.9311 35.64 18.7063 34.8216 19.0805C35.8969 16.0626 37.0383 12.9742 37.0383 12.6911C37.0383 11.9476 35.8052 10.8104 35.2987 10.8104C34.7715 10.8104 33.0087 11.7824 31.4 12.9025C31.5774 12.4008 31.6863 12.0812 31.6863 12.0521C31.6838 11.7848 30.1669 10.9344 29.9467 10.9344C29.7571 10.9344 28.8347 13.2512 27.4781 16.8158C26.2548 17.8704 24.9507 18.7597 24.0234 19.1412C25.073 15.8609 26.7527 12.1942 26.7527 12.0715C26.7527 11.7872 25.2333 10.9344 25.0131 10.9344C24.9629 10.9344 24.8039 11.2296 24.5825 11.7046C24.0626 11.2721 23.2895 10.825 22.4796 10.825C19.814 10.825 16.642 14.3483 16.642 17.7161C16.642 20.1459 17.9424 21.1069 19.2635 21.1069C20.3021 21.1069 21.2208 20.361 21.9267 19.468C22.0319 20.4023 22.5763 21.1069 23.2283 21.1069C24.2069 21.1069 25.6125 19.909 26.7894 18.6334L26.2682 20.0135C26.2682 20.4728 27.4585 21.1069 28.1032 21.1069C28.3479 21.1215 29.8586 17.1767 30.8397 14.4953C31.6655 13.8162 33.2032 12.6839 34.073 12.6839C34.2491 12.6839 34.5354 12.8163 34.5354 13.0787C34.5354 13.8441 32.7946 18.1972 32.3982 19.1157C32.3982 20.3853 33.3671 21.1069 33.9629 21.1069C34.7054 21.1069 35.9862 20.0415 37.1753 18.8788L37.0896 19.1218C37.0896 20.3914 38.0597 21.113 38.6543 21.113C39.6415 21.113 41.3774 19.3951 42.7597 17.885C42.8453 19.7681 44.4063 21.113 46.0333 21.113C48.7148 21.113 51.0721 19.1023 52.4899 17.6262C52.4899 17.659 52.4899 17.6906 52.4899 17.7222C52.4899 20.152 53.8123 21.113 55.1115 21.113C55.7794 21.113 56.3997 20.8032 56.9465 20.3452C55.6008 24.1358 53.6802 26.7138 51.1712 26.7138C49.5405 26.7138 48.8579 25.7067 48.8579 24.985C48.8579 23.826 50.047 23.0606 51.3694 23.0606C51.4795 23.0606 51.5676 23.0168 51.5676 22.9512C51.5676 22.6669 49.3203 21.9878 45.2063 21.9878C40.0513 21.9878 35.492 22.7763 31.219 24.2633C30.7786 24.4164 29.8085 25.313 29.8085 26.4733C29.8085 26.9763 30.1168 27.5667 30.2489 27.5667C30.381 27.5667 32.5401 25.8391 36.593 24.5695C40.541 23.2935 44.6928 22.7547 48.8383 22.9804C48.1704 23.2829 47.3214 23.9718 47.3214 25.3568C47.3214 26.7138 48.4444 28.3103 51.1541 28.3103C55.7574 28.3103 57.5642 25.2037 58.8854 21.7496C59.524 20.0876 62.7401 12.1894 62.7401 12.08C62.7242 11.7848 61.2489 10.9344 60.9846 10.9344ZM19.9682 19.5603C19.4788 19.5603 18.9773 19.0124 18.9773 17.8752C18.9773 15.2024 21.2906 12.4931 23.0301 12.0557C23.5879 12.0557 23.8938 12.4554 24.0748 12.8649C23.5537 14.0968 22.9261 15.7005 22.4845 16.9956C21.6845 18.6844 20.6422 19.5531 19.9682 19.5531V19.5603ZM49.0891 12.0484C51.2263 12.4202 48.4775 16.9082 46.3134 16.9082C45.9648 16.9082 45.5122 16.794 45.2638 16.4027C45.7947 14.7395 47.412 12.8369 49.0891 12.0484ZM54.8167 17.868C54.8167 15.1951 57.13 12.4858 58.8695 12.0484C59.5118 12.0484 59.8213 12.5782 59.9901 13.0435C59.4163 14.3337 58.6921 16.0055 58.0854 17.4524C57.3269 18.8399 56.4168 19.5531 55.8076 19.5531C55.3231 19.5531 54.8167 19.0051 54.8167 17.868Z" fill="white"/>
</svg>
