<svg xmlns="http://www.w3.org/2000/svg" viewBox="0 0 512.37 492.28"><defs><style>.cls-1{fill:#a291ad;}</style></defs><g id="Layer_10" data-name="Layer 10"><path class="cls-1" d="M310.41,371.81l13.51.43,23.7.76,0-.6c.15-4.81.07-9.29,0-12.33h4.59l-.11-.69q-2.83-18.15-5.68-36.18l-5.65-36c-1.55-10-3.16-20.27-2.66-30.43.1-2,.28-4,.45-5.92a73.79,73.79,0,0,0,.43-12c-.44-6.26-2.52-11.5-5.78-14.71.06-.24.13-.48.18-.73l2,2.15c4,4.36,8.23,8.86,12.79,13.43l.46.46.43-.5c4.63-5.46,8.71-9.84,12.66-14.06,1.53-1.65,3.08-3.31,4.68-5.05l3.56,2.74c-.36.35-.73.7-1.11,1l-.12.11-.05.16a96.3,96.3,0,0,1-4.77,12.71,5.49,5.49,0,0,0-.36,4.67,7,7,0,0,0,3.94,3.44l.4.13,20.19-25.69-.47-.37a107,107,0,0,0-9.22-6.45l-.54-.33-.3.55c-.36.67-.74,1.32-1.13,2l-3-2.59,1.06-1.23.4-.47-5.29-4.23a11.74,11.74,0,0,0,1.47-.89,10.06,10.06,0,0,0,1.49-1.29c6.19-4.69,7.84-10.17,5-16.69v0l-.06-.14c-.12-.28-.24-.56-.39-.84l-.05-.1q-.25-.53-.54-1.05l-.13-.23-.16,0a15.68,15.68,0,0,0-5.4-4.61,24.21,24.21,0,0,0-9.18-3.19c-4.46-.38-7.7-.57-10.44-.7a39.87,39.87,0,0,0,2.47-5.59,27.94,27.94,0,0,0,1.5-7.54l.8.14V163h.06l-.12-.82c0-.27-.07-.53-.1-.8-.07-.58-.13-1.16-.17-1.74-.11-1.68-.11-3.29-.08-4.88a7.39,7.39,0,0,0,2.42-10,13.63,13.63,0,0,0-1.76-2.08,16.1,16.1,0,0,1-1.37-1.54,15.2,15.2,0,0,1-1.66-3.21c-.31-.74-.63-1.49-1-2.22-1.45-2.69-5.05-6.08-7.81-8.45-16.91-14.51-34.24-23.53-51.52-26.79a28.22,28.22,0,0,0-8.12-.43l.34-.49-3.33-.87-1.35-1.83c.13-.38.27-.44.76-.62A7.38,7.38,0,0,0,284.52,94a4.33,4.33,0,0,0,1.38-3.79A2.62,2.62,0,0,1,287,87.55c2.87-2.53,1.21-7.75.77-9a4.6,4.6,0,0,0,.11-3.85c-1.22-2.79-5.07-4.28-6.24-4.68A5.2,5.2,0,0,0,279,67.13a9.28,9.28,0,0,0-7.61-.58,9.53,9.53,0,0,1-5.32.57,29.8,29.8,0,0,0-4.91-.11c-3.23.22-4.25,1.19-5.15,2.06a4.64,4.64,0,0,1-2.31,1.38,3.56,3.56,0,0,0-2.5,2.24c-.75,1.92-.28,4.77,1.16,7.2a13.35,13.35,0,0,0-.35,6.39v.09c-1,1-5,5.52-3.69,9,.48,1.26,2.12,1.54,3.11,1.59a14.24,14.24,0,0,0,0,4.4c.67,3.17,3.91,5.17,6.66,5.27a21.9,21.9,0,0,0,5.13-1.22l1.34-.41c.22.42.48.89.76,1.39a20.1,20.1,0,0,1,2.2,4.77l-1.81,2.36,2.45,2.06a15.29,15.29,0,0,0-.15,3.33,7.51,7.51,0,0,1-1.12,0,20,20,0,0,1-7.28-1.82c-.58-.24-1.24-.46-1.94-.7a19.49,19.49,0,0,1-4.68-2c-1.89-1.28-13.93-6.6-19-8.85.11-.44.23-.89.34-1.34l.13-.54L226.4,101l-1.8,4.9c-7-3-13.75-5.73-17.88-7.38L204,97.39a.59.59,0,0,0-.61.1,3.13,3.13,0,0,0-1.08,2.24,2.36,2.36,0,0,0,.31,1.12c-1.8-.19-2.89-.2-3-.2a.61.61,0,0,0-.52.31,3.25,3.25,0,0,0-.21,2.68,2.85,2.85,0,0,0,1.51,1.42,9.63,9.63,0,0,0-3.25,5.12.76.76,0,0,0,0,.15.77.77,0,0,0,.42.65,4.84,4.84,0,0,0,2.81.54,6.46,6.46,0,0,0-.95,4.26,2.65,2.65,0,0,0,0,.27l-11.65-5.77a.46.46,0,0,0-.23-.06l-14.84-.78a.58.58,0,0,0-.61.45l-7.63,28.43a.59.59,0,0,0,.3.69l6.24,3.17-32,7.19a.59.59,0,0,0-.47.58l-.16,29.33a.59.59,0,0,0,.41.57L151.06,184l-6,5.35,0,0c-.29.24-.58.48-.86.73a34.1,34.1,0,0,0,13.6,58.26L124.62,312.2,92.19,327v40.25l96.27,12.1.17,0,60.19-26.77V312.36l-42.34-5.23L180.2,247a33.93,33.93,0,0,0,9.58-6.05c.71-.63,1.37-1.29,2-2l.08.09,5.33-4.77a33.88,33.88,0,0,0,11.3-23.54c0-.28,0-.56,0-.84l15.76,24.62h0l.32.51.5-.33a106.86,106.86,0,0,0,9.14-6.58l.49-.4-.43-.47h0l1.09-1,11.8,13.18,34.9-38,1.49,1.34,1.64,1.46c-1.58,7.69-2.21,15.06,2.66,22.37a4,4,0,0,0-.17.64,21,21,0,0,0-.34,5.54,22.29,22.29,0,0,0-.28,2.59l-5.23,116.15v.14l.55,1.22a36.63,36.63,0,0,1-7.68,2.88,6.42,6.42,0,0,0-4.23,2.94c-2,3.23-.89,7.67-.84,7.85l.11.44.45,0h0l12.73.4,24.48.79,0-.6c.2-6.22,0-11.88-.12-14.59h2.55c.34,2.12.67,4.23,1,6.35l.08.51h6.59c-.84.28-1.7.54-2.57.74a6.44,6.44,0,0,0-4.24,2.94c-2,3.23-.89,7.67-.84,7.85l.11.44.45,0Zm4.79-10.08a35,35,0,0,0,5.62-1.89c4.52,0,8.51.07,12.42.11,4.36.05,8.54.09,13.17.11q0,.84.06,1.83a10.51,10.51,0,0,0-9.9,9.55l-17.09-.54a8.35,8.35,0,0,0-7.39-7.27A5.41,5.41,0,0,1,315.2,361.73ZM311,352.35l-.09-.6c-.24-1.46-.49-2.91-.75-4.37,0-.2-.06-.4-.1-.6s-.07-.4-.1-.6c-2.55-14.56-5.75-29.17-8.86-43.4-4.85-22.14-9.87-45-12.4-67.55,0-.67-.05-1.28-.08-1.84l0-.62a22.77,22.77,0,0,1,.08-3.87c.06-.46.13-1,.23-1.48,0-.14.06-.26.09-.37h.19c6.63-.08,13.94-.06,21,0,4.85,0,9.81,0,14.48,0l7.68,60.07L325,285.83l-.2,1.19.45.07,7.26,1.25.32,2.46-4.47,2.27.26.5.29.57,4.08-2.07,7.69,60.16.07.61.08.56,1.19-.15,0-.3-.08-.61-7.77-60.85,5.67-2.88q2.73,17.44,5.45,34.77,2.77,17.72,5.56,35.49h-4.42c-4.61,0-8.77-.06-13.11-.11-3.17,0-6.39-.07-9.9-.09h-2.8c-2.66,0-5.5,0-8.61,0-.28-1.88-.58-3.77-.88-5.66C311,352.75,311,352.55,311,352.35Zm-4.72,14.55-8.63-.28a2.62,2.62,0,0,1,0-.28,9.09,9.09,0,0,1,8.42-8.42h.22C306.32,360.48,306.34,363.6,306.25,366.9ZM297,367Zm-24.95-8.43.4,0a8.16,8.16,0,0,1,7.49,7.49h0l-9.23-.3c-.21-1.13-.59-4.23.79-6.5A4.89,4.89,0,0,1,272.05,358.54Zm34.2-1.83a10.28,10.28,0,0,0-9.83,9.87l-15.27-.48a9.37,9.37,0,0,0-7.72-8.62,5.83,5.83,0,0,1,1.56-.61,40.08,40.08,0,0,0,9.76-3.92h21.36C306.15,353.88,306.21,355.16,306.25,356.71Zm.4-5H283.22l-.17-.38.18-4h25.69c.25,1.46.5,2.91.74,4.37h-3ZM282.89,200.49,287,196c-.27,1.3-.56,2.58-.85,3.86-.22,1-.44,2-.65,2.95l-1.13-1Zm-1.71.09-34,37L236.25,225.4l-7.11-7.94-1-1.08,3.71-3.24c9.74-8.52,19.64-17.18,29.35-26,1,1,2.05,2,2.45,2.31a3.65,3.65,0,0,0,2.44.78,8.24,8.24,0,0,0,2.35-.38c2.57-.76,9.1-5.8,10.3-9.62a3.06,3.06,0,0,0-.4-3,18.81,18.81,0,0,0-2.19-1.94,15.4,15.4,0,0,0,1.73,0c2-.22,2.49-1.22,3.08-2.49l.12-.27a1,1,0,0,0,0-.9,1,1,0,0,0-.71-.52l-1.8-.29.79-.76c1-.94,1.93-1.87,2.88-2.81l.89-.86c.29-.28.56-.57.85-.85,1-1,1.91-1.93,2.86-2.89l1.49-1.5-.05,0c.72-.74,1.43-1.49,2.15-2.24l.5-.52a4.44,4.44,0,0,0,.75.46c.26.13.53.24.76.34l.31.13s0,.06,0,.08a31.75,31.75,0,0,0-.25,3.81v0c0,.21,0,.41,0,.62s0,.42,0,.62,0,.53.07.79c.63,5.57,4.3,9,10.77,9.86v.18c0,.22,0,.43,0,.6s0,.25,0,.37l-.21.23-8.13,8.86-.7.76-.7.76L289,192.11l-.74.8-.76.83L282,199.69l-.4.44ZM207.33,208c0,.88,0,1.76,0,2.64a32.71,32.71,0,0,1-10.9,22.72l-.75.67a34.08,34.08,0,0,0-10.18-47.24l9.85-3.4a34,34,0,0,1,3.63,3.48,32.63,32.63,0,0,1,8.35,20.21l0,.68V208Zm-2,99.56.28.64L213,325l-24.22,7.59L179.48,305l-.22-.63-.21-.63L160.63,249a34.12,34.12,0,0,0,18.45-1.58l26,59.52Zm41.18,5.69-58.71,26.3.22,38.52L93.39,366.22V327.8l30.33-13.87-2.15,4.12a.61.61,0,0,0,.4.87l66.3,15h0l.13,0a.57.57,0,0,0,.18,0L214,326a.59.59,0,0,0,.37-.32.6.6,0,0,0,0-.49L207,308.41Zm1.06,38.55-58.36,26v-.14l-.2-37.3,58-26,.6-.27ZM126.39,311.38,159,248.71l0,0,.22,0L167,271.6l10.77,32,.21.63.22.63,9.33,27.72L123,317.92l2.5-4.81.45-.86Zm52.77-65.26-.56.21a33.14,33.14,0,0,1-15,1.92q-1-.1-2-.27c-.56-.09-1.12-.2-1.68-.32A32.9,32.9,0,0,1,145,191l.87-.74a32.67,32.67,0,0,1,8.47-5.13l18,6.08a.48.48,0,0,0,.2,0,.65.65,0,0,0,.19,0L184,187.34a32.53,32.53,0,0,1,7.53,6.21,33,33,0,0,1-.56,44.54c-.63.67-1.29,1.33-2,1.95a32.63,32.63,0,0,1-9.26,5.85Zm8.22-134.71,10.47,5.19h-.06l-11.89-.71-10.32-5.09h0Zm15.47-1.68a.6.6,0,0,0-.92-.76c-.23.23-.39.41-.53.57a2.21,2.21,0,0,1-1,.73,3.34,3.34,0,0,1-2-.19,8.85,8.85,0,0,1,3.6-4.74.61.61,0,0,0,.23-.62.62.62,0,0,0-.48-.47,2.36,2.36,0,0,1-1.78-1.09,1.8,1.8,0,0,1,0-1.3,39.54,39.54,0,0,1,4.06.4.62.62,0,0,0,.65-.37.61.61,0,0,0-.21-.71l-.16-.11a1.93,1.93,0,0,1-.89-1.36,1.68,1.68,0,0,1,.42-1l2.39,1c4.13,1.65,10.93,4.36,17.91,7.4l-3.89,10.61a9.51,9.51,0,0,0-4.67.08,10.25,10.25,0,0,1-5.06.53c-.7,0-1.6-.12-2.8-.18-2.73-.14-4.27-.32-5.05-.44.57-1.34,1-1.66,3.09-2,2-.35,5.7-1.91,6.11-3.77a1.68,1.68,0,0,0-.83-1.78c-2.78-1.91-6.41,2-8.34,4.44-1,1.3-1.73,1.63-2.09,1.67,0-.16,0-.31,0-.45C200.5,114.33,200.42,113.45,202.85,109.73Zm30.06-5.34c0,.2-.11.39-.16.59s-.11.39-.16.59l-.16.58a109.39,109.39,0,0,1-5.31,15.23c-.08.18-.15.37-.23.55l-.24.56c-.07.15-.12.3-.19.45l-2.06-.69c-1.31-.44-2.65-.89-4-1.37l.66-1.79.2-.57.21-.56,3.8-10.37.21-.56.24-.67,1.42-3.88Zm26.18,13.78a21.11,21.11,0,0,0,7.61,1.9,14.21,14.21,0,0,0,1.94,0l.64,0-.08-.64a12.7,12.7,0,0,1,0-2.9l2.59,2.18,12.06-17.24a26.09,26.09,0,0,1,8.84.28c17.07,3.22,34.21,12.15,51,26.52,2.68,2.31,6.17,5.59,7.53,8.11.36.67.67,1.41,1,2.12a16.69,16.69,0,0,0,1.8,3.45,15.77,15.77,0,0,0,1.48,1.66,13.41,13.41,0,0,1,1.61,1.9,6.18,6.18,0,0,1-2.28,8.42l-.32.18v.82h-1.54l-12.08-.09h-1.54l-11-.08h-2.16c0-.1,0-.19,0-.29l0-.19-.06-.53c-.48-4.14-.88-7.71-7.49-11.77a14.12,14.12,0,0,0-3.38-1.5c-.36-.11-.72-.2-1.08-.28s-.79-.15-1.19-.21a16.92,16.92,0,0,0-8.57,1.05l-.07,0h0a11.58,11.58,0,0,0-2.21,1.17,5.53,5.53,0,0,0-1.44,1.1l-.26.31c-.21.21-.41.42-.59.63l-.39.46c-.13.16-.24.32-.36.48l-.34.49,0,0a13.7,13.7,0,0,0-2.13-.85,11.15,11.15,0,0,0-1.27-.3c-1.38-.46-2.67-.89-3.94-1.26l-.71-.2-.21-.06-.48-.13-.32-.08-1.13-.26a24.19,24.19,0,0,0-6.82-.52l-.4,0a10.56,10.56,0,0,1-2.7,0,16,16,0,0,1-3.07-1c-.22-.09-.43-.19-.61-.28a4.5,4.5,0,0,1-.63-.38,1,1,0,0,1-.25-.26l-.25-.49-.77.31-14.36-1.32L228.2,122a112.57,112.57,0,0,0,5.36-15.32c5.19,2.27,16.92,7.47,18.69,8.66a20.57,20.57,0,0,0,5,2.19C257.89,117.73,258.53,117.94,259.09,118.17Zm8.2-4.86,2.69-3.49.37-.48,3.54-4.61,1.82-2.36,2.53-3.3.38-.49.69-.89.11-.15.06.09,0,0,.78,1,.11.15.67.9,2.05.54h0l-.49.7-.51.73-10.6,15.15-2.15-1.81-.53-.44-.51-.44-.86-.72Zm-2-9.32-.22-.45-.48.14c-.61.17-1.22.36-1.83.55a21.57,21.57,0,0,1-4.74,1.17c-2.24-.08-5-1.76-5.53-4.32a15.5,15.5,0,0,1,.17-4.64l.14-.76-.76,0c-.76,0-2.38-.09-2.65-.81-1-2.59,2.28-6.59,3.62-7.91l.21-.21-.09-.68a12,12,0,0,1,.35-6,15.6,15.6,0,0,1,3.36-3.28,5,5,0,0,1,4.46-.15A1.21,1.21,0,0,1,262,78c-.32,2.54,3.25,4,5.61,5a14.23,14.23,0,0,1,1.5.68,2.3,2.3,0,0,1,.58,1,.58.58,0,0,0,.16.57l0,0c.06.2.11.41.17.61l.1-.49a.53.53,0,0,0,.37,0,.57.57,0,0,0,.18-.12A1.7,1.7,0,0,1,271,85a1.93,1.93,0,0,1,1.68-.11,2.92,2.92,0,0,1,1.55,1.78,3.78,3.78,0,0,1-.68,3.53,3.59,3.59,0,0,1-.39.39l0,0a2.7,2.7,0,0,1-.53.35,3.72,3.72,0,0,1-3.42,0L269,91a.58.58,0,0,0-.64.29.59.59,0,0,0,.24.81,4.86,4.86,0,0,0,5-.28,3.72,3.72,0,0,1,1,2,15.59,15.59,0,0,0,.76,2.16,3.09,3.09,0,0,0,1.85,1.83,2.8,2.8,0,0,0,.5.12l-.45.58-.11.11h0L268.36,110a29.3,29.3,0,0,0-2.06-4.18C265.93,105.1,265.58,104.49,265.33,104Zm-13-30.86A2.38,2.38,0,0,1,254,71.61a5.79,5.79,0,0,0,2.84-1.68c.83-.79,1.61-1.53,4.4-1.72a28.69,28.69,0,0,1,4.72.11,10.63,10.63,0,0,0,5.91-.67,8,8,0,0,1,6.56.53,3.85,3.85,0,0,1,2.18,2.44l.07.37.35.1c.05,0,4.63,1.39,5.82,4.12a3.46,3.46,0,0,1-.2,3.07l-.12.24.1.25c0,.06,2.2,5.63-.35,7.88a3.75,3.75,0,0,0-1.55,3.64,3.16,3.16,0,0,1-1.06,2.89,6.75,6.75,0,0,1-2.32,1.76c-.19.08-.37.15-.53.2l-.34.13a1.86,1.86,0,0,0-.8.56l-.15-.19-.06-.09-.83,1.07a2,2,0,0,1-1.06,0,2,2,0,0,1-1.13-1.17,15.94,15.94,0,0,1-.7-2A4.8,4.8,0,0,0,274.45,91a5,5,0,0,0,.91-4.69,4.09,4.09,0,0,0-2.23-2.5,3.16,3.16,0,0,0-2.54.06,2.48,2.48,0,0,0-.89-1.19,14.18,14.18,0,0,0-1.68-.78c-1.9-.8-5.09-2.13-4.88-3.77A2.43,2.43,0,0,0,262,75.67a4.87,4.87,0,0,0-2.6-.64,6.84,6.84,0,0,0-2.1.33,5,5,0,0,0-1,.46,8.64,8.64,0,0,0-.78.57,17.4,17.4,0,0,0-2.4,2.38c0-.08-.07-.17-.11-.25A7.25,7.25,0,0,1,252.29,73.13ZM377.35,215.25c.33-.53.65-1.07.95-1.62,1.27.8,4.59,3,8.11,5.68l-3.32,4.21-.26-.26a5,5,0,0,1-1.36-3,5.46,5.46,0,0,1,.66-3.08,5.72,5.72,0,0,1,.37-.58l-.47-.37h0l-.48-.37a6.51,6.51,0,0,0-1.28,4.5,6.17,6.17,0,0,0,2.07,4.17L367.5,243.36a5.54,5.54,0,0,1-2.84-2.61,4.38,4.38,0,0,1,.34-3.67c.23-.47.46-1,.68-1.47l.17.57a3.59,3.59,0,0,1,1.31-.12,7.22,7.22,0,0,1,2.58.81,11.37,11.37,0,0,1,1.82,1.16l.76-.94c-.14-.11-3.36-2.69-6.33-2.17a109.52,109.52,0,0,0,3.8-10.57l1.14-1.08.43-.43.69-.71a42.25,42.25,0,0,0,4.93-6.3l0-.07C377.13,215.59,377.24,215.43,377.35,215.25ZM365.68,235.6Zm5.14-13.93-3.59-2.77c1.74-1.92,3.54-3.93,5.44-6.12l3.12,2.71A39.82,39.82,0,0,1,370.82,221.67Zm-5.36-2.62c-1.57,1.71-3.1,3.35-4.61,5-3.83,4.11-7.8,8.35-12.28,13.61-4.37-4.39-8.4-8.73-12.3-12.93l-2.64-2.84c-.19-.2-.37-.4-.56-.59l-.53-.57q-2.82-3-5.65-5.94a13.59,13.59,0,0,0,3.9-.65.78.78,0,0,0,0,.16l.09.69.67-.19c.31-.09.59-.17.85-.26l.41-.13.17,0,.59-.19a3.24,3.24,0,0,1,1.77-.1,8.13,8.13,0,0,1,.85.26c1,.32,2.2.73,3.13-.12a3.25,3.25,0,0,0,.35-.39l.15-.2c.69-.74,2.07-.4,3.28-.11l.19.05c6,1.44,12.35-1.36,17-3.4l7.27-3.21.88-.39,4.76,3.8-.65.76C370,214,367.71,216.6,365.46,219.05ZM216.4,208.44Zm98.37-29.75a18.59,18.59,0,0,1-2.65.83,11.28,11.28,0,0,1-7.47-1.24,5,5,0,0,0,.05-1.56c0-.05,0-.1,0-.15l0-.23c0-.12,0-.25,0-.38v0c0-.18,0-.36,0-.57v-.46l-.07-.81L304,174l-.74-.11c-.32-.05-.64-.1-.94-.17l-.77-.16-.42-.12q-5.81-1.62-7.09-6.79a12.89,12.89,0,0,1-.34-2.51c0-.2,0-.41,0-.62s0-.2,0-.31,0-.2,0-.31a22.71,22.71,0,0,1,.24-3.5l0,0,.12-.26-.09-.26s0,0,0-.08a1.48,1.48,0,0,0-.82-.6l-.22-.09a7.57,7.57,0,0,1-1.14-.57.85.85,0,0,1-.4-.44h0c0-.19.16-.45.28-.59a12.72,12.72,0,0,1,1.17-1.11l.77-.63.22-.18.12-.09.08-.07.3-.24.5-.41c.36-.3.72-.61,1.06-.93.12-.1.23-.21.34-.32a9.18,9.18,0,0,0,1.61-2v0a5.09,5.09,0,0,0,.5-1.27l0-.12a6.92,6.92,0,0,1,.48-1.41l.21-.45c.09-.18.18-.35.29-.53s.2-.34.31-.5h0l.26-.37.35-.48.39-.46c.2-.21.4-.43.62-.63.68.06,1.62.18,2.67.36l.82.14.84.18a13.18,13.18,0,0,1,5.06,1.93,39.31,39.31,0,0,0-.29,5.2c0,.21,0,.42,0,.64s0,.43,0,.65c0,.43.06.86.1,1.29a.6.6,0,0,0,0,.7.53.53,0,0,0,.25.2.57.57,0,0,0,.58,0,1.59,1.59,0,0,1,1.05-.22,1.85,1.85,0,0,1,.89.32,1.59,1.59,0,0,1,.13.13,1.28,1.28,0,0,1,.29.28,2.58,2.58,0,0,1,.36.6,3.22,3.22,0,0,1,.23.82.8.8,0,0,1,0,.15,3.59,3.59,0,0,1-1.39,3.11,3,3,0,0,1-.44.28,2.44,2.44,0,0,1-.34.14,4.61,4.61,0,0,1-.53.15,5.61,5.61,0,0,1-.59.06,3.08,3.08,0,0,1-.61-.06,3.43,3.43,0,0,1-1.72-.78.75.75,0,0,0-.15-.09.6.6,0,0,0-.7.15,1,1,0,0,0-.1.17.59.59,0,0,0,.16.67,4.71,4.71,0,0,0,2.69,1.11c.08.4.17.8.28,1.19.05.19.11.39.17.58s.14.38.22.57a7.48,7.48,0,0,0,1,1.79c.12.16.24.31.38.47s.27.29.41.44a19.5,19.5,0,0,0,4.78,3.31l.53.28-2.14,4.43c-.1.21-.2.4-.29.6l-.29.59-.14.29Zm-26.9-17.94h0Zm-.43-.42,0,0c-.89.92-1.8,1.83-2.71,2.74l-5.29,1c-.64-3.45-1.47-7.65-1.85-8.18a2.5,2.5,0,0,1,.5-3.13c.85-.68,1.62-1.44,1.55-2.41-.07-.82-.73-1.57-2.1-2.36-1.1-.63-1.72-3.14-2-5.7a20.87,20.87,0,0,0,2.72.82,11.7,11.7,0,0,0,3,.05l.4,0a24,24,0,0,1,7.79.79,20.53,20.53,0,0,1,.6,3.66c.26,2.42.56,5.11,1.92,6.88a11.76,11.76,0,0,0-1.24,1.18,1.85,1.85,0,0,0-.55,1.66s0,0,0,0C289.31,158.39,288.38,159.37,287.44,160.33ZM279.69,168l-1.17-2.43,0,0h0l.59-.12.59-.11,3.59-.69-1.64,1.62-.88.86-.89.87-.14.13Zm11.36-23.58.7.21,2.6.84v.15c.2,0,.41,0,.61.06l.22.07v0a7.18,7.18,0,0,1,1.17.3l-.67,5.36c-.39.4-.82.79-1.26,1.17l-.5.41-.5.41-.22.18-.26.21c-1.13-1.51-1.41-4-1.65-6.24l-.09-.75a20.63,20.63,0,0,0-.38-2.41Zm7,2.26a9.17,9.17,0,0,0-.82,2.17v0l.31-2.43Zm6.76-4.64a14.67,14.67,0,0,1,5.59-1.12h.17c.4,0,.82,0,1.24,0s.82.09,1.25.15a13.39,13.39,0,0,1,3.21.94,13.62,13.62,0,0,1,1.66.84c.59.36,1.11.72,1.59,1.07,3.8,2.73,4.68,5.21,5.11,8,.08.58.15,1.17.22,1.78l.05.38,0,.35a2.09,2.09,0,0,1,0,.25c0,.2,0,.4,0,.6,0,0,0,.11,0,.16s0,.19,0,.28,0,.41,0,.62,0,.31,0,.48V157c0,.22-.05.44-.07.67a18.44,18.44,0,0,1-.33,1.9,17.43,17.43,0,0,1-.9,2.76c-.17.4-.37.81-.57,1.2v0c-.1.19-.2.37-.31.55s-.21.38-.33.57l-.13.23-1.45,2.22-.38.58L319,170.06h0l-.07,0-.53-.28a17.48,17.48,0,0,1-4.41-3.08c-.14-.15-.28-.3-.4-.45s-.26-.32-.38-.48a7.06,7.06,0,0,1-.76-1.39,5.54,5.54,0,0,1-.21-.57c-.06-.18-.12-.37-.17-.56s-.12-.5-.17-.75a4,4,0,0,0,1.21-.4l.09-.05a5.7,5.7,0,0,0,.65-.44,4.56,4.56,0,0,0,.5-.48,4.75,4.75,0,0,0,1.25-3.6,4,4,0,0,0-1.54-2.85,3.05,3.05,0,0,0-2.29-.51l0-.38c0-.21,0-.42,0-.64s0-.42,0-.63a35.21,35.21,0,0,1,.32-5.76l0-.31-.22-.21a11.17,11.17,0,0,0-4.69-2.16l-.84-.21-.84-.18c-1-.21-2-.35-2.77-.45.69-.41,1.52-.83,2.13-1.14Zm49.68,17.4.2,2.07,0,.19h0l-.62-.11-16.95-3-.76-.13-.75-.14-8.9-1.56-.32,0-.18,0h0c0-.21,0-.41,0-.62s0-.15,0-.22h1.18l10.79.08h1.63l13.47.1h.87l.15,1.54ZM204.05,114.76c1.13-1.39,3.53-4,5.39-4a1.7,1.7,0,0,1,1,.29c.39.27.35.46.33.54-.2.93-2.94,2.45-5.14,2.84A11.48,11.48,0,0,0,204.05,114.76ZM201.66,117l-.33.8a.62.62,0,0,0,0,.48.61.61,0,0,0,.38.32,34.13,34.13,0,0,0,6,.61c1.19.06,2.07.13,2.77.18s1.35.1,1.86.1a12.47,12.47,0,0,0,3.62-.67,8.21,8.21,0,0,1,3.92-.1l-1,2.84.57.2c1.58.57,3.11,1.08,4.61,1.58l2.56.87.52.18.23-.5c.13-.28.25-.57.38-.86l30.4,16.61,15,1.43.13-.05a4.67,4.67,0,0,0,1.06.72c.25,2.76.91,6.29,2.68,7.31,1.27.73,1.48,1.2,1.5,1.41,0,.42-.61,1-1.1,1.39a3.67,3.67,0,0,0-.74,4.74,74,74,0,0,1,1.66,7.72l-1.56.3,2.09,4.33-1.71,1.66-.83-.14a19.08,19.08,0,0,0-6.11.44h0c-1.27.42-3.39,1.11-6.75,5.28l-.31.39c-3.05,3.78-5.06,6.27-3.47,8.7a8.05,8.05,0,0,0,.78,1c-9.7,8.81-19.58,17.46-29.31,26l-4.17,3.64-.21-.47-.07-.16-.13-.1a97.71,97.71,0,0,1-10.44-8.68,5.56,5.56,0,0,0-4.28-1.89,6.08,6.08,0,0,0-3.37,1.44,33.82,33.82,0,0,0-8.59-19.91,32.67,32.67,0,0,0-3.21-3.13l9.76-3.37a.6.6,0,0,0,.4-.57l-.27-29.18a.63.63,0,0,0-.47-.58l-12.25-2.81a.65.65,0,0,0,.34-.4l7.21-28.55a.57.57,0,0,0,0-.34A2.33,2.33,0,0,0,201.66,117ZM274.32,174l-.62-.06-1.43-.12.86.66.49.38.28.21.2.15a36.12,36.12,0,0,1,3.34,2.82,1.88,1.88,0,0,1,.19,1.86c-1,3.31-7.16,8.14-9.49,8.83-1.19.35-2.78.6-3.66-.16-.58-.5-1.53-1.39-2.35-2.22l-.42-.42c-.15-.15-.29-.3-.41-.44a8.77,8.77,0,0,1-.67-.8c-1.06-1.63.35-3.52,3.4-7.3l.31-.39c3.14-3.89,5.05-4.51,6.19-4.89h0a18.5,18.5,0,0,1,5.5-.4h.05l.69.12.73.12,2.41.39,0,.05c-.56,1.2-.76,1.65-2.12,1.79a18.59,18.59,0,0,1-2.48-.1l-.8-.06Zm-46.16,44.52-.36-.72.51.56Zm-54.93-35.27V182l0-6v-1.2l.12-17.11,31.91-7.06.27,28-10,3.46-.68.24-.67.23L184.14,186l-.75.26-.77.27-9.44,3.25Zm5.92-38.89.15-.58.15-.59,6.76-26,13.8.82-6.92,27.37-5.47-.25-3.36-.16-3.36-.16-1.84-.09Zm145.7,69.21-.94-.08a13.74,13.74,0,0,1-4.18-1.05c-3.42-1.54-5.44-4.67-7.54-8.29a4.13,4.13,0,0,1-.76-2.14c0-.08,0-.16,0-.24a1.63,1.63,0,0,1,.18-.43,2.09,2.09,0,0,1,.4-.45,5,5,0,0,1,3-.9h.24c.53,0,1.06.08,1.59.14A10.2,10.2,0,0,0,321,200l.88-.27-.6-.69a3.09,3.09,0,0,1-.56-3.07l.15-.41h0a3.91,3.91,0,0,1,3-1.93l.22,2.13,0,.1c0,.05,0,.11,0,.08a5.93,5.93,0,0,0,2.61,3.69c.11.38.24.76.37,1.16l.44,1.3a44.36,44.36,0,0,1,1.44,4.86,35.12,35.12,0,0,1,1.53,6,13.27,13.27,0,0,1-4.88.68H325ZM368,205.41l-.62.27-.3.14L359.79,209c-5.78,2.56-11,4.58-16.2,3.33l-.19-.05c-1.46-.35-3.28-.79-4.44.47l-.22.27a2.52,2.52,0,0,1-.21.25c-.38.34-1,.18-1.93-.14a9.81,9.81,0,0,0-1-.29,3.94,3.94,0,0,0-.94-.11,5,5,0,0,0-1.21.17l-.59.17-.13.05-.29.09-.15,0-.4.13c0-.13-.05-.26-.07-.4-.06-.36-.12-.73-.19-1.09a35.48,35.48,0,0,0-1.43-5.35,43.08,43.08,0,0,0-1.45-4.92l-.44-1.3a15.79,15.79,0,0,1-.47-1.55c0-.11-.05-.21-.06-.31A5.58,5.58,0,0,0,330,198l.34-.17.22-.12.22-.12-.15-.47a2.19,2.19,0,0,1,.21-1.68,3.07,3.07,0,0,1,.61-.83,4.61,4.61,0,0,1,2.59-1l.27,0H336a4.84,4.84,0,0,0,3.21-1,5,5,0,0,0,.69-.78c.11-.14.21-.27.33-.4a7.54,7.54,0,0,1,3.24-1.82c.89-.31,1.77-.62,2.66-.91l.29-.09.39-.13.68-.22.42-.14,1.29-.41-.36-.21h0l-.59-.34L348,187a4.4,4.4,0,0,0-1.35-.5,4.28,4.28,0,0,1,1.74-.8c1.87-.51,3.79-.93,5.69-1.26l1.31-.23-.81-.65a3.31,3.31,0,0,1,2.07-.85l4.46-.77a23.49,23.49,0,0,1,7.08-.5,10.73,10.73,0,0,1,6.46,3.36c.19.22.37.45.55.68l.13.18.24.05.08,0c.14.25.25.5.38.75l.09.18c.13.27.25.52.36.78l0,.05a15,15,0,0,1,1.13,3.88,10.68,10.68,0,0,1,.07,2.39c-.3,3.33-2.25,6.31-5.92,9.1a10,10,0,0,1-1.39,1.21,12.77,12.77,0,0,1-1.8,1Zm.37-25.15a24.42,24.42,0,0,0-7.45.51l-4.46.76a4.06,4.06,0,0,0-3,1.51,1.73,1.73,0,0,0-.14.32c-1.76.32-3.53.72-5.26,1.19-.6.16-2.27.62-2.84,1.91l-.35-.28c2-2.86,4-5.78,5.73-8.86,2.86.14,6.22.32,11,.72a20.76,20.76,0,0,1,7.29,2.32Zm-18.74-3.59-.34.59c-1.73,3-3.73,5.88-5.7,8.69l-.32.46,1.72,1.38-1.94.67a8.57,8.57,0,0,0-3.74,2.15c-.13.15-.25.31-.38.47a4.64,4.64,0,0,1-.53.61,4.54,4.54,0,0,1-3.06.66l-.86,0h-.24a5.05,5.05,0,0,0-.52.05,5.83,5.83,0,0,0-.67.11,5.27,5.27,0,0,0-2.39,1.16.08.08,0,0,0,0,0,4.14,4.14,0,0,0-.53.58,4,4,0,0,0-.49.87,3.48,3.48,0,0,0-.23,1.77,4.4,4.4,0,0,1-2.12.32l-.58-.06-.08.57s0,0,0,0a4.71,4.71,0,0,1-1.2-2.2l0-.13-.23-2.13a1.08,1.08,0,0,0-.42-.76,1,1,0,0,0-.8-.23,4.86,4.86,0,0,0-4.28,3.2l0,.08a4.27,4.27,0,0,0,.28,3.34,12.07,12.07,0,0,1-2.86-.09c-.55-.06-1.11-.11-1.66-.13a6.08,6.08,0,0,0-4.13,1.21,7,7,0,0,1-1.85-4.1c-.09-1.87.87-3.67,1.72-5.27a103.15,103.15,0,0,0,5.57-13.08c.12-.24.24-.48.36-.75s.19-.39.29-.59l.29-.6,2.06-4.26c.12-.23.22-.45.32-.66.69-1,2.32-3.49,3.35-5.1.13-.2.29-.46.45-.75s.21-.38.32-.59.2-.37.3-.58a18.08,18.08,0,0,0,1.7-5.74l8.33,1.46.76.13.77.14L354,162.81a26.27,26.27,0,0,1-1.44,7.36,40.21,40.21,0,0,1-2.65,5.92ZM173.08,110.91l12,5.89-6.76,26.1-.15.58-.15.58-.08.28-1.05-.54-2.21-1.12-1.77-.91-7.1-3.61ZM178,145.74a.72.72,0,0,0,.25.07l9.19.43,15.73,3.62h-.07l-30.31,6.71L142,150h0l30.79-6.9Zm-38.31,5,32.5,7-.12,17.17v1.21l0,5.74V183l-.05,6.81-15.84-5.35-.92-.31-.89-.3-.91-.31-.66-.23-.66-.22-12.54-4.24Zm12.65,33.75.33.11-1,.47ZM225,233.38l-2.89-4.52.34-.17a5,5,0,0,1,3.33-.27,5.41,5.41,0,0,1,2.68,1.64,4.33,4.33,0,0,1,.43.53l1-.64a6.43,6.43,0,0,0-3.82-2.69,6.1,6.1,0,0,0-4.62.58l-12.89-20.16s0-.08,0-.13a5.52,5.52,0,0,1,3.36-1.77,4.34,4.34,0,0,1,3.35,1.53c.37.38.76.75,1.16,1.13l-.59,0a3.5,3.5,0,0,1-.32,1.27,7.11,7.11,0,0,1-1.6,2.16,11.8,11.8,0,0,1-1.7,1.35l.31.51h0l.32.51c.16-.09,3.65-2.28,4.14-5.25a109.73,109.73,0,0,0,8.73,7.07c.49,1.15,1,2.28,1.61,3.38.1.18.21.36.31.55l.3.55a41.87,41.87,0,0,0,4.73,6.66c.12.14.23.29.36.43-.43.34-1.14.89-2,1.57l-.49.36C229,230.64,227.08,232,225,233.38Zm3.8-13.78.35-.37,5.47,6.1-1.08,1A40.05,40.05,0,0,1,228.76,219.6Zm57.63-15.18c0-.23.09-.46.14-.68.25-1.19.52-2.39.79-3.6.43-1.92.87-3.87,1.24-5.83l4.91-5.35.69-.75.69-.76,8.62-9.39c0,.13,0,.25-.07.39l-.09.41.35.23a12.8,12.8,0,0,0,6.45,1.85,10.66,10.66,0,0,0,2.27-.25,18.69,18.69,0,0,0,2.05-.61,90.59,90.59,0,0,1-4.4,10c-.88,1.64-2,3.69-1.86,5.89a8.29,8.29,0,0,0,2.3,5,2.16,2.16,0,0,0-.2.52,4.58,4.58,0,0,0,.88,3.24c1.7,2.94,4,7,8.08,8.79a16,16,0,0,0,5.68,1.24h.3c2.4,2.45,4.77,5,7.15,7.5q-.08.48-.18.93c-.05.22-.09.44-.15.65v0a.52.52,0,0,0-.09.2,1.06,1.06,0,0,1-.21.29c-.78.81-3.11,1.39-4.22,1.45a.35.35,0,0,0-.05-.08.59.59,0,0,0-1,.09c-5.15,0-10.77,0-16.23,0-6.68,0-13.57,0-19.92,0h-1.42c-.11-.15-.19-.31-.29-.47-4.12-6.55-3.68-13.28-2.3-20.29C286.29,204.87,286.34,204.64,286.39,204.42Zm51,46.28c-.18,2-.36,4-.46,6-.51,10.28,1.11,20.65,2.68,30.68.05.34.11.68.16,1l-6.17-1.06L325.87,227h1a17.63,17.63,0,0,1,2.39,7.14.6.6,0,0,0,.6.54h.06a.6.6,0,0,0,.53-.66,18.73,18.73,0,0,0-2.24-7.1l.6-.1a.51.51,0,0,0,.2.12,9.16,9.16,0,0,1,1.34.64,9.72,9.72,0,0,1,3.92,4.16,8.2,8.2,0,0,1,.56,1.37.6.6,0,0,0,.57.42.55.55,0,0,0,.18,0,.61.61,0,0,0,.4-.75,10.91,10.91,0,0,0-5.38-6.42,5.49,5.49,0,0,0,2-1.19c2.92,3,4.78,7.89,5.2,13.71A75.07,75.07,0,0,1,337.36,250.7Zm-54.07,95.48,4.77-106c2.68,21,7.33,42.25,11.84,62.84,3.1,14.15,6.27,28.67,8.81,43.14Zm50.44-57.62,2.62.45-2.41,1.22Zm12.73,83.2-8.69-.28a9.32,9.32,0,0,1,8.72-8.4C346.54,365.59,346.55,368.59,346.46,371.76Zm-28.2-.9-7.34-.24a10.83,10.83,0,0,1,.46-5.83A7.15,7.15,0,0,1,318.26,370.86Z"/><path class="cls-1" d="M327.64,355.5l1.35,0h2l1.79,0,11.64.17h1.2l1.83,0,2.54,0,0-1.2-4.42-.06h-1.2c-3.63-.05-8.61-.13-13.64-.19H329.5c-7.5-.1-14.87-.19-17.79-.19v1.2c2.53,0,8.42.07,14.83.15Z"/><path class="cls-1" d="M325.28,239.05h.41l-.05-1.2a10.53,10.53,0,0,1-10.89-10l-1.19,0a11.73,11.73,0,0,0,11.72,11.17Z"/><path class="cls-1" d="M291.77,225a.4.4,0,0,0,.16.13.56.56,0,0,0,.68,0,.1.1,0,0,0,0-.05.47.47,0,0,0,.1-.1.36.36,0,0,1,0,.1,1.46,1.46,0,0,1,.05.2.63.63,0,0,0,.35.38.59.59,0,0,0,.23.05.47.47,0,0,0,.17,0,.26.26,0,0,0,.09,0A.58.58,0,0,0,294,225s0-.06,0-.09a3.19,3.19,0,0,1-.12-.51,21.44,21.44,0,0,1-.17-4.59.6.6,0,0,0-.54-.65.6.6,0,0,0-.65.55,23.92,23.92,0,0,0,.09,4.32,12.09,12.09,0,0,1-2.52-6,.6.6,0,0,0-1.19.19,13.11,13.11,0,0,0,2.6,6.33C291.57,224.68,291.66,224.82,291.77,225Z"/><polygon class="cls-1" points="370.54 208.38 346.24 233.31 346.67 233.72 347.1 234.14 371.4 209.22 370.97 208.8 370.54 208.38"/><polygon class="cls-1" points="229.85 215.61 247.85 236.09 248.3 235.69 248.75 235.29 230.75 214.81 229.85 215.61"/><path class="cls-1" d="M257.85,97.68a6.44,6.44,0,0,1-3.49.83.36.36,0,0,0-.4.35.38.38,0,0,0,.35.4h.39a7.14,7.14,0,0,0,3.53-.94.38.38,0,0,0,.13-.52A.36.36,0,0,0,257.85,97.68Z"/><path class="cls-1" d="M259.11,86l-1.25,0a1,1,0,0,0-.92-.87,1.33,1.33,0,0,0,0,2.57,1.06,1.06,0,0,0,.93-1l1.27,0a.38.38,0,0,0,.36-.39A.39.39,0,0,0,259.11,86Z"/><path class="cls-1" d="M269.23,89.41h.07a1.72,1.72,0,0,0,1.27-1,1.31,1.31,0,0,0,.09-.28,1.88,1.88,0,0,0-.06-1.1,2.61,2.61,0,0,1,.27-.19,1.6,1.6,0,0,1,.52-.23h0a1.35,1.35,0,0,1,1,.19,1.26,1.26,0,0,1,.34,1.59.37.37,0,1,0,.64.39,2,2,0,0,0-.54-2.59,2.06,2.06,0,0,0-1.63-.31h0a2.3,2.3,0,0,0-.57.21,3,3,0,0,0-.52.35,2.29,2.29,0,0,0-.27.27l0,0-.15.17.08.15.05.09a1.08,1.08,0,0,1,.07,1,1.1,1.1,0,0,1-.42.46.85.85,0,0,1-.31.13.37.37,0,0,0-.29.44A.36.36,0,0,0,269.23,89.41Z"/><path class="cls-1" d="M254.91,95.84a.34.34,0,0,0,.22-.07.38.38,0,0,0,.08-.53,2.74,2.74,0,0,0-2.34-.69.38.38,0,0,0-.33.41.37.37,0,0,0,.41.34,2.16,2.16,0,0,1,1.66.39A.36.36,0,0,0,254.91,95.84Z"/><path class="cls-1" d="M254.37,75.7a.61.61,0,0,0,.62-.57,2.81,2.81,0,0,1,3.79-2.53l.11,0a5.1,5.1,0,0,1,.57.29l.32.19.3.19a4.08,4.08,0,0,0,1.39.57,5,5,0,0,0,2.08-.17c.3-.07.6-.14.9-.18a3.9,3.9,0,0,1,4.16,3.38.6.6,0,0,0,.6.54h.05a.6.6,0,0,0,.55-.65,5.12,5.12,0,0,0-5.51-4.46,9.18,9.18,0,0,0-1,.2,4.94,4.94,0,0,1-1.38.18.75.75,0,0,1-.21,0,2.79,2.79,0,0,1-.82-.32l-.46-.28L260.2,72a6.82,6.82,0,0,0-.85-.45,4.08,4.08,0,0,0-3.7.33,4.12,4.12,0,0,0-1.86,3.23A.6.6,0,0,0,254.37,75.7Z"/><path class="cls-1" d="M263.8,70.3l1.95.41,1.83.39,1.85.4c.2,0,.41.09.61.15a2.2,2.2,0,0,1,.86.4,2,2,0,0,1,.62,1.5,7.33,7.33,0,0,1-.33,2,.61.61,0,0,0,.43.73l.15,0a.6.6,0,0,0,.58-.45,8.4,8.4,0,0,0,.37-2.32,3.59,3.59,0,0,0-.48-1.69,2.38,2.38,0,0,0-.54-.67s0,0,0,0a3.5,3.5,0,0,0-1.45-.68l-.54-.13-5.63-1.2a.61.61,0,0,0-.71.47A.6.6,0,0,0,263.8,70.3Z"/><path class="cls-1" d="M275.15,69.28a2.93,2.93,0,0,1,1.73,2.38c0,.13,0,.26,0,.39a2.93,2.93,0,0,1-.11.59,2.86,2.86,0,0,1-1.17,1.67.59.59,0,0,0-.17.83.57.57,0,0,0,.5.27.58.58,0,0,0,.33-.1,4,4,0,0,0,1.33-1.49,3.53,3.53,0,0,0,.25-.56,4.24,4.24,0,0,0,.17-.61,4,4,0,0,0,.06-1.1,4.15,4.15,0,0,0-2.46-3.38.6.6,0,1,0-.47,1.11Z"/><path class="cls-1" d="M277.69,95.34a.6.6,0,0,0,.49.24.58.58,0,0,0,.35-.11l1.89-1.4.37-.28c.22-.15.44-.32.67-.5a7.47,7.47,0,0,0,1.07-1,4,4,0,0,0,.64-1,4.75,4.75,0,0,0,.28-2.4,13,13,0,0,0-.35-1.74l0-.11a.58.58,0,0,0-.52-.45h-.21a.61.61,0,0,0-.43.73,15,15,0,0,1,.33,1.55,3.69,3.69,0,0,1-.17,1.94,3.38,3.38,0,0,1-.6.87,9.21,9.21,0,0,1-1.39,1.19l-2.26,1.67A.6.6,0,0,0,277.69,95.34Z"/><path class="cls-1" d="M290.87,140.54a.6.6,0,0,0,.09.34.52.52,0,0,0,.21.18.6.6,0,0,0,.29.08.58.58,0,0,0,.33-.1q.61-.4,1.26-.78l.16-.09.58-.33a26.58,26.58,0,0,1,17.08-2.78c.49.09,1,.19,1.46.3a.6.6,0,0,0,.72-.44.59.59,0,0,0-.45-.72A27.61,27.61,0,0,0,291.12,140,.6.6,0,0,0,290.87,140.54Z"/><path class="cls-1" d="M276.29,117.34a19.62,19.62,0,0,1,21-4c.28.11.56.21.83.34l.5-1.09a20.89,20.89,0,0,0-23.84,4.53l.86.83Z"/><polygon class="cls-1" points="286.72 179.36 287.14 178.94 288.74 177.37 289.81 176.31 290.64 175.5 294.57 171.62 294.15 171.19 293.73 170.76 288.02 176.39 285.85 178.53 277.93 186.34 276.47 187.78 272.23 191.96 271.42 192.75 241.18 222.56 242.02 223.42 271.44 194.42 272.75 193.14 273.26 192.63 278.64 187.33 280.04 185.95 281.38 184.62 286.3 179.78 286.72 179.36"/><path class="cls-1" d="M203.32,108.38a.38.38,0,0,0,.3-.15l.32-.43a16,16,0,0,1,1.82-2.09c1.5-1.35,6.07-1.42,8.61-1.38l.94,0h.12a.38.38,0,0,0,.38-.37.38.38,0,0,0-.37-.38h-.11c-2.44-.06-8.14-.19-10.08,1.55a19.25,19.25,0,0,0-2.24,2.64.38.38,0,0,0,.08.52A.39.39,0,0,0,203.32,108.38Z"/><path class="cls-1" d="M203.63,104a.29.29,0,0,0,.16,0c.37-.17.72-.32,1.07-.45a9.9,9.9,0,0,1,6-.58c.3.07.61.16.92.26a.38.38,0,0,0,.48-.24.38.38,0,0,0-.24-.47,10.91,10.91,0,0,0-8.52.8.39.39,0,0,0-.19.5A.38.38,0,0,0,203.63,104Z"/><path class="cls-1" d="M298.87,162.2a10.49,10.49,0,0,1-1,.55,4.24,4.24,0,0,1-2.52.46.38.38,0,0,0-.44.3.39.39,0,0,0,.1.33.4.4,0,0,0,.2.11,3.91,3.91,0,0,0,.68.06,6.47,6.47,0,0,0,3.39-1.18.37.37,0,0,0-.39-.63Z"/><path class="cls-1" d="M305.09,149.7a1.09,1.09,0,0,0-.08-.15,3.9,3.9,0,0,0-.25-.36,5.78,5.78,0,0,0-2.35-1.89,4.12,4.12,0,0,0-.67-.24l-.2-.07a4.85,4.85,0,0,0-.55-.09,1,1,0,0,0-.17,0h-.06a.6.6,0,0,0-.58.32.52.52,0,0,0-.07.22.65.65,0,0,0,0,.24.62.62,0,0,0,.44.39l.08,0a5.58,5.58,0,0,1,.69.13,4.71,4.71,0,0,1,.81.32,4.6,4.6,0,0,1,1.1.76l.08.09c.12.12.23.24.34.37a4,4,0,0,1,.34.5l.11.19c0,.08.09.16.12.24a.6.6,0,0,0,.55.35A.64.64,0,0,0,305,151h0a.63.63,0,0,0,.3-.8A5.05,5.05,0,0,0,305.09,149.7Z"/><path class="cls-1" d="M302.78,152.38l-.59-.3c-.3-.15-.62-.31-.93-.44a.29.29,0,0,0,0-.09,1.3,1.3,0,0,0,0-.65,1.09,1.09,0,0,0-.11-.27.88.88,0,0,0-.24-.23.89.89,0,0,0-.8-.13l0,0a1.45,1.45,0,0,0-.87.86s0,.09,0,.14a1.2,1.2,0,0,0,0,.65,1.11,1.11,0,0,0,.22.4l.12.1a1,1,0,0,0,1,.15.85.85,0,0,0,.32-.24c.31.13.65.3,1,.45l.62.31a.45.45,0,0,0,.16,0,.37.37,0,0,0,.15-.71Zm-2.9-2,0,0S299.81,150.37,299.88,150.39Z"/><path class="cls-1" d="M296.48,158.06l.1,0a.37.37,0,0,0,.36-.27,5.82,5.82,0,0,1,2.33-3.13.38.38,0,0,0,.11-.52.38.38,0,0,0-.52-.11,6.57,6.57,0,0,0-2.63,3.55A.37.37,0,0,0,296.48,158.06Z"/><path class="cls-1" d="M295,158a.56.56,0,0,0,0-.12h0a1.85,1.85,0,0,0-2-.9.38.38,0,1,0,.16.74,1.07,1.07,0,0,1,1.11.47l0,.06a.39.39,0,0,0,.33.19.37.37,0,0,0,.18,0,.35.35,0,0,0,.17-.21A.36.36,0,0,0,295,158Z"/><polygon class="cls-1" points="217.24 402.44 215.13 402.33 214.2 419.03 223.62 419.56 223.72 417.75 216.41 417.34 217.24 402.44"/><path class="cls-1" d="M239.47,405.18l1.73-2.29L240,402l-1.56,2.08a6.55,6.55,0,0,0-4.5-1.56,7.15,7.15,0,0,0-2.89.61,6.29,6.29,0,0,0-2.24,1.72,7.68,7.68,0,0,0-1.44,2.72,11.6,11.6,0,0,0-.49,3.61,11.79,11.79,0,0,0,.47,3.33,8.76,8.76,0,0,0,1.25,2.63l-1.77,2.34,1.19.9,1.61-2.13a6.35,6.35,0,0,0,4.48,1.61,6.68,6.68,0,0,0,2.88-.64,6.36,6.36,0,0,0,2.26-1.77,8,8,0,0,0,1.45-2.77,11.79,11.79,0,0,0,.49-3.64,11.45,11.45,0,0,0-.47-3.29A8.4,8.4,0,0,0,239.47,405.18Zm-10.14,8.27a11.56,11.56,0,0,1-.24-2.28,10.27,10.27,0,0,1,.33-2.81,6.4,6.4,0,0,1,1-2.12,4.63,4.63,0,0,1,1.54-1.36,4.37,4.37,0,0,1,2-.49,4.3,4.3,0,0,1,3.26,1.35L230,415.32A7.33,7.33,0,0,1,229.33,413.45Zm9.33.47a6.83,6.83,0,0,1-1,2.18,4.49,4.49,0,0,1-1.54,1.41,4.23,4.23,0,0,1-2,.5,4.12,4.12,0,0,1-3.23-1.4l7.23-9.61a8,8,0,0,1,.64,1.83,11.09,11.09,0,0,1,.24,2.25A10.4,10.4,0,0,1,238.66,413.92Z"/><polygon class="cls-1" points="255.2 402.02 245.57 402.53 246.47 419.24 248.59 419.13 248.18 411.64 254.55 411.3 254.45 409.51 248.09 409.86 247.78 404.2 255.3 403.8 255.2 402.02"/><polygon class="cls-1" points="269.41 400.85 257.21 401.88 257.36 403.66 262.39 403.24 263.65 418.13 265.78 417.95 264.53 403.06 269.56 402.63 269.41 400.85"/><polygon class="cls-1" points="288.99 398.58 289.86 405.54 282.14 406.51 281.27 399.55 279.17 399.82 281.26 416.42 283.36 416.15 282.37 408.33 290.09 407.36 291.08 415.18 293.2 414.91 291.11 398.31 288.99 398.58"/><path class="cls-1" d="M303.65,405.56c-.14,1-.26,2-.36,2.87s-.23,1.82-.38,2.84l-.11,0c-.47-.92-.88-1.79-1.24-2.59s-.76-1.68-1.22-2.63l-4-8.51-2.25.35,7.85,15.71,2.45-.38,2.68-17.34-2.14.33Z"/><polygon class="cls-1" points="314.79 409.67 313.71 403.69 319.95 402.56 319.63 400.78 313.38 401.91 312.44 396.75 319.85 395.4 319.53 393.64 310.04 395.37 313.03 411.83 322.77 410.06 322.45 408.28 314.79 409.67"/><path class="cls-1" d="M335.37,398.35a4.64,4.64,0,0,0,.35-3.28,5.08,5.08,0,0,0-.88-2.06,3.92,3.92,0,0,0-1.49-1.17,5,5,0,0,0-2-.4,10.52,10.52,0,0,0-2.36.26l-5.11,1.08,3.48,16.37,2.07-.44L328,401.8l3-.63,5.41,6.07,2.34-.5L333,400.49A5.21,5.21,0,0,0,335.37,398.35Zm-5,1.17-2.74.58-1.3-6.09,2.75-.58a5.74,5.74,0,0,1,3.08,0,2.56,2.56,0,0,1,1.51,2.06,2.9,2.9,0,0,1-.52,2.6A4.91,4.91,0,0,1,330.35,399.52Z"/><path class="cls-1" d="M341.9,388.75l-1.46,17.6,2.1-.52.33-5.34,5.92-1.47,2.76,4.57,2.21-.55-9.53-14.87Zm4.58,6.46,1.38,2.28L343,398.7l.15-2.66c.08-1,.13-2,.17-2.92s.07-1.95.09-2.95l.1,0c.49.87,1,1.73,1.47,2.56S346,394.37,346.48,395.21Z"/><path class="cls-1" d="M362.48,383.09l2.46,8.29c.25.85.53,1.7.85,2.56l.91,2.48-.1,0-2.72-2.81-8.79-8.35-2.1.62,4.76,16,1.93-.57L357.19,393c-.25-.85-.53-1.68-.83-2.51l-.92-2.42.09,0,2.72,2.78,8.82,8.37,2.1-.62-4.76-16Z"/><path class="cls-1" d="M379.8,379.35a7.7,7.7,0,0,0-6.27,0l-3.93,1.44,5.77,15.7,4-1.47a9.1,9.1,0,0,0,2.94-1.7,6.52,6.52,0,0,0,1.73-2.4,7.15,7.15,0,0,0,.5-3,11.66,11.66,0,0,0-.75-3.52A8.65,8.65,0,0,0,379.8,379.35Zm2.28,11a5.44,5.44,0,0,1-3.52,3.17l-1.8.65-4.57-12.45,1.79-.66a5.52,5.52,0,0,1,4.71.07,7.14,7.14,0,0,1,3.06,4.07A7.55,7.55,0,0,1,382.08,390.34Z"/><path class="cls-1" d="M397.39,377.74a4.62,4.62,0,0,0-.42-3.27,5.13,5.13,0,0,0-1.32-1.8,3.81,3.81,0,0,0-1.72-.79,5,5,0,0,0-2,.06,11.59,11.59,0,0,0-2.24.79L384.94,375l7.14,15.13,1.91-.9-3-6.39,2.74-1.29,6.66,4.66,2.17-1-7-4.78A5.18,5.18,0,0,0,397.39,377.74Zm-2.24.29a4.84,4.84,0,0,1-2.38,2l-2.53,1.19-2.66-5.63,2.54-1.19a5.64,5.64,0,0,1,3-.69,2.56,2.56,0,0,1,1.94,1.66A2.87,2.87,0,0,1,395.15,378Z"/><polygon class="cls-1" points="414.81 375.31 408.32 379.61 404.97 374.55 410.27 371.04 409.27 369.53 403.97 373.04 401.07 368.65 407.35 364.5 406.36 363.01 398.32 368.33 407.56 382.29 415.81 376.82 414.81 375.31"/></g></svg>