<svg width="305" height="326" viewBox="0 0 305 326" fill="none" xmlns="http://www.w3.org/2000/svg">
<g clip-path="url(#clip0)">
<path d="M304.557 221.925H34.0517C9.78257 149.852 52.8301 105.92 89.7265 97.6832C176.793 78.248 165.504 144.128 258.141 171.661C312.795 187.906 304.557 221.925 304.557 221.925Z" fill="#F7EBF2"/>
<path opacity="0.21" d="M304.501 221.926H33.5267C33.5267 221.926 -8.81782 292.047 35.333 317.218C94.1072 350.729 140.215 276.719 177.52 288.291C234.071 305.831 256.684 311.87 285.683 286.72C309.675 265.907 304.501 221.926 304.501 221.926Z" fill="#ED3B63"/>
<path d="M271.583 139.267C268.945 137.228 266.205 135.325 263.372 133.565L261.681 132.541L260.743 134.281C260.678 134.402 260.611 134.522 260.545 134.639L260.032 134.196C260.069 134.153 260.103 134.11 260.141 134.066L261.39 132.596L256.966 129.064C257.458 128.697 257.92 128.29 258.347 127.849C264.477 123.119 266.03 117.351 262.965 110.712C262.827 110.408 262.679 110.107 262.555 109.887L262.445 109.663C262.36 109.482 262.274 109.301 262.166 109.115L261.672 108.371L261.545 108.343C260.158 106.603 258.419 105.173 256.443 104.146C253.718 102.529 250.691 101.483 247.548 101.073C244.51 100.82 242.09 100.658 240.003 100.542C240.531 99.4181 241 98.268 241.409 97.0958C242.061 95.2256 242.506 93.2896 242.736 91.3226L243.747 91.4797L243.234 86.2632C243.179 85.1926 243.174 84.139 243.183 83.123C244.589 82.0474 245.596 80.5344 246.044 78.8234C246.342 77.7871 246.421 76.7002 246.275 75.6319C246.13 74.5636 245.763 73.5373 245.198 72.6183C244.677 71.8544 244.08 71.1455 243.415 70.5026C243.011 70.1055 242.633 69.6828 242.283 69.2373C241.726 68.4064 241.267 67.5143 240.915 66.5787C240.608 65.8598 240.3 65.1392 239.931 64.4511C237.918 61.3632 235.405 58.6313 232.494 56.3676C216.875 42.9856 200.838 34.6682 184.833 31.6493C183.078 31.3111 181.296 31.1345 179.509 31.1216L175.233 30.01L175.139 29.8854C176.194 29.3778 177.136 28.6649 177.91 27.7885C178.513 27.2255 178.974 26.5281 179.256 25.7533C179.537 24.9785 179.631 24.1481 179.53 23.3301C179.484 22.6625 179.477 22.56 180.124 21.988C183.078 19.3874 181.976 14.7276 181.365 12.851C181.863 11.5308 181.827 10.069 181.264 8.77507C179.963 6.50346 177.859 4.7985 175.365 3.99396C174.737 2.79242 173.745 1.81952 172.53 1.21409C171.302 0.537139 169.941 0.134489 168.541 0.0339581C167.142 -0.066573 165.737 0.137411 164.424 0.631816C163.088 1.18255 161.619 1.33036 160.199 1.05699C158.644 0.891801 157.077 0.856959 155.516 0.952833C154.489 0.930766 153.468 1.11789 152.516 1.50278C151.564 1.88767 150.701 2.46225 149.979 3.19142C149.579 3.6544 149.045 3.98151 148.451 4.12715C147.731 4.30921 147.066 4.66218 146.513 5.156C145.959 5.64982 145.533 6.26987 145.271 6.96337C144.906 8.15795 144.792 9.41517 144.936 10.6559C145.081 11.8966 145.482 13.094 146.113 14.1726C145.671 15.907 145.585 17.7128 145.86 19.4813C144.411 21.1035 141.339 25.0991 142.644 28.574C142.872 29.1128 143.23 29.5866 143.687 29.9529C144.144 30.3192 144.685 30.5665 145.261 30.6726C145.154 31.727 145.193 32.791 145.376 33.8349C145.818 35.4616 146.767 36.9057 148.085 37.9586C149.404 39.0114 151.024 39.6184 152.71 39.6918C154.467 39.5425 156.195 39.1482 157.842 38.5204L158.025 38.4658L158.208 38.7936C158.858 39.8905 159.429 41.0317 159.919 42.2087L157.888 44.8451L159.382 46.1002L159.306 48.2004C157.692 47.9786 156.122 47.5128 154.648 46.819C154.099 46.5937 153.466 46.3802 152.796 46.1548C151.413 45.7537 150.086 45.1799 148.846 44.4473C147.204 43.3374 138.313 39.3691 132.24 36.7036L132.31 36.4321L132.723 34.7467L123.075 31.5895L121.481 35.9386C115.21 33.2373 109.263 30.8365 105.932 29.4926L102.956 28.2837L102.087 29.0162C101.302 29.6902 100.791 30.6282 100.652 31.6527C99.894 31.6168 99.439 31.6237 99.3996 31.6271L98.3374 31.651L97.8122 32.5713C97.5032 33.122 97.32 33.7341 97.2756 34.3638C97.2313 34.9934 97.3269 35.6251 97.5557 36.2135C97.7011 36.5384 97.8949 36.8394 98.1304 37.1066C97.0437 38.3103 96.2752 39.7659 95.8947 41.3413L95.8417 41.5701V41.804C95.8534 42.1455 95.951 42.4786 96.1256 42.7726C96.3002 43.0665 96.5461 43.3118 96.8407 43.4859C97.327 43.7664 97.8555 43.9665 98.4058 44.0784C98.3784 44.1655 98.3493 44.2492 98.3237 44.338L89.0149 39.7584L72.8281 38.879L65.0006 68.708L67.9239 70.1577L41.6774 75.6987L41.6312 106.402L52.0262 109.88L48.3399 113.188C48.2168 113.29 48.0953 113.396 47.9756 113.504C43.743 117.293 40.5804 122.125 38.8035 127.516C37.0266 132.908 36.6976 138.67 37.8493 144.228C39.0011 149.786 41.5933 154.945 45.3672 159.19C49.141 163.435 53.9645 166.618 59.3558 168.42L29.9738 224.769L0 238.449V277.163L89.5965 288.403L145.702 263.496V224.762L107.576 220.061L84.0133 166.75C86.6716 165.446 89.1379 163.784 91.343 161.81C91.5243 161.649 91.7022 161.485 91.8784 161.32L98.1065 155.748C103.542 150.881 107.178 144.33 108.43 137.15L121.478 157.512L123.794 156.021C126.588 154.21 129.287 152.259 131.883 150.175L132.396 149.755L142.849 161.409L174.817 126.623L176.129 127.791C174.905 133.994 174.22 141.041 178.569 147.94L178.55 148.037C178.213 149.749 178.098 151.497 178.208 153.238C178.078 154.029 177.994 154.828 177.958 155.629L173.417 256.286C173.259 256.572 173.169 256.89 173.155 257.216C173.14 257.541 173.201 257.866 173.333 258.165L173.162 261.954L173.264 262.179C171.479 263.017 169.616 263.68 167.702 264.156C166.736 264.358 165.822 264.752 165.014 265.316C164.206 265.88 163.521 266.602 163.001 267.438C161.744 269.871 161.395 272.671 162.016 275.337L161.952 277.402L198.544 278.57C198.604 279.082 198.681 279.497 198.738 279.765L198.673 281.834L235.85 283.02L235.942 280.275C236.046 276.676 236.016 273.334 235.942 270.759H240.307L239.965 268.596C238.242 257.586 236.52 246.612 234.798 235.676C233.073 224.722 231.35 213.749 229.627 202.758C228.215 193.748 226.755 184.428 227.208 175.287C227.297 173.503 227.458 171.72 227.617 169.939C228.048 166.238 228.18 162.508 228.012 158.786C227.867 156.615 227.471 154.468 226.833 152.388C229.172 154.872 231.592 157.396 234.148 159.945L235.588 161.385L236.907 159.833C241.122 154.872 244.84 150.894 248.434 147.048C249.58 145.824 250.724 144.598 251.889 143.339L252.931 144.142L252.686 144.362L252.538 144.874C251.376 148.76 249.947 152.561 248.261 156.25C247.808 157.06 247.54 157.96 247.477 158.885C247.414 159.81 247.557 160.738 247.895 161.602C248.719 163.327 250.174 164.672 251.961 165.358L253.552 166.611L273.736 140.98L271.583 139.267ZM99.8067 109.081L107.807 106.404V75.6133L96.6286 73.3064L102.513 50.8847C103.404 50.9991 104.755 51.1272 106.752 51.2262C107.826 51.2808 108.621 51.3406 109.252 51.3867C111.092 51.6393 112.965 51.4443 114.712 50.8181C115.162 50.6917 115.626 50.6201 116.093 50.6047L115.275 52.8245L117.051 53.4631C118.505 53.9873 119.916 54.4586 121.291 54.9179C122.078 55.1809 122.855 55.4404 123.623 55.7034L125.236 56.2566L125.656 55.338L152.556 70.0228L166.379 71.1942C166.79 75.0003 167.787 77.3157 169.414 78.2497C169.559 78.3334 169.679 78.4085 169.78 78.4751C169.73 78.5195 169.67 78.5673 169.609 78.6185C168.758 79.3287 168.187 80.3178 167.999 81.4091C167.811 82.5005 168.018 83.6229 168.583 84.5761C168.67 84.8511 168.978 85.9644 169.735 89.9583L167.921 90.2998L170.149 94.9392L169.753 95.3217L169.65 95.3046C167.568 95.1045 165.468 95.2575 163.437 95.7571C161.756 96.3035 159.708 97.2051 156.648 100.999L156.368 101.341C153.444 104.957 151.135 107.816 153.118 110.836C144.3 118.821 135.283 126.699 126.549 134.318L124.539 136.076C121.324 133.755 118.275 131.214 115.412 128.472C114.831 127.826 114.123 127.305 113.333 126.942C112.543 126.579 111.687 126.38 110.818 126.358H110.672C109.944 126.381 109.227 126.535 108.554 126.814C107.612 120.546 104.856 114.69 100.624 109.966C100.361 109.663 100.087 109.371 99.8067 109.081ZM199.278 272.694C199.304 270.09 199.265 267.725 199.212 265.843C199.371 266.868 199.525 267.888 199.673 268.905L199.908 270.508H200.79C200.35 270.939 199.97 271.428 199.66 271.96C199.519 272.197 199.391 272.442 199.278 272.694Z" fill="#E3DEE6"/>
<path d="M1.87817 275.51L89.3109 286.476L143.816 262.275V226.418L54.8862 215.452L1.87817 239.653V275.51Z" fill="#F49727"/>
<path d="M1.87817 239.653L89.3109 250.286L143.816 226.418" fill="#F49727"/>
<path d="M39.1013 222.511L23.1693 232.328L77.0617 243.225L95.7477 243.128L96.1411 235.273L39.1013 222.511Z" fill="#E88821"/>
<path d="M195.905 259.141L195.999 263.291L182.965 263.197L181.926 257.917L195.905 259.141Z" fill="#A35E38"/>
<path d="M179.917 260.629C185.557 261.987 191.407 262.256 197.149 261.421C197.149 261.421 197.586 268.28 197.332 276.213L163.901 275.146C163.901 275.146 161.961 267.418 168.131 265.971C172.326 264.846 176.307 263.041 179.917 260.629Z" fill="#27003D"/>
<path d="M163.901 275.146L197.332 276.213" stroke="#ED3B63" stroke-width="0.508" stroke-miterlimit="10"/>
<path d="M188.356 275.45C188.356 274.361 188.571 273.282 188.989 272.276C189.406 271.269 190.019 270.355 190.79 269.584C191.562 268.814 192.478 268.203 193.486 267.786C194.494 267.369 195.575 267.155 196.666 267.155" stroke="#ED3B63" stroke-width="0.254" stroke-miterlimit="10" stroke-linecap="round"/>
<path d="M165.365 269.067C167.061 269.067 168.687 269.74 169.886 270.937C171.085 272.134 171.759 273.757 171.759 275.45" stroke="#ED3B63" stroke-width="0.254" stroke-miterlimit="10" stroke-linecap="round"/>
<path d="M132.329 146.433L128.239 150.287L122.263 144.572L126.565 140.028L132.329 146.433Z" fill="#734E35"/>
<path d="M123.672 137.766C125.359 141.799 127.737 145.508 130.697 148.727C128.042 150.86 125.275 152.851 122.408 154.691L106.834 130.384C106.834 130.384 110.272 125.945 114.078 129.788C117.086 132.667 120.292 135.333 123.672 137.766Z" fill="#27003D"/>
<path d="M119.396 149.475C120.574 148.776 121.976 148.556 123.313 148.859C124.649 149.161 125.819 149.964 126.58 151.102" stroke="#ED3B63" stroke-width="0.254" stroke-miterlimit="10" stroke-linecap="round"/>
<path d="M114.759 131.201C114.629 133.886 111.185 135.999 111.185 135.999" stroke="#ED3B63" stroke-width="0.254" stroke-miterlimit="10" stroke-linecap="round"/>
<path d="M106.834 130.384L122.408 154.691" stroke="#ED3B63" stroke-width="0.508" stroke-miterlimit="10"/>
<path d="M257.189 134.206L261.438 137.882L256.339 144.388L251.378 140.57L257.189 134.206Z" fill="#734E35"/>
<path d="M254.358 145.397C257.616 142.479 260.341 139.016 262.411 135.165C265.303 136.965 268.098 138.918 270.782 141.014L252.914 163.698C252.914 163.698 247.587 161.919 249.965 157.068C251.699 153.284 253.167 149.385 254.358 145.397Z" fill="#27003D"/>
<path d="M266.831 145.564C265.783 144.684 265.113 143.435 264.959 142.077C264.805 140.718 265.179 139.352 266.003 138.259" stroke="#ED3B63" stroke-width="0.254" stroke-miterlimit="10" stroke-linecap="round"/>
<path d="M251.077 155.962C253.66 155.2 256.79 157.746 256.79 157.746" stroke="#ED3B63" stroke-width="0.254" stroke-miterlimit="10" stroke-linecap="round"/>
<path d="M252.914 163.698L270.774 141.014" stroke="#ED3B63" stroke-width="0.508" stroke-miterlimit="10"/>
<path d="M168.056 67.3077C168.056 67.3077 167.939 75.2393 170.351 76.6258C172.763 78.0123 172.18 78.9532 170.786 80.0767C170.282 80.513 169.95 81.1132 169.847 81.7709C169.745 82.4285 169.879 83.1012 170.226 83.6694C170.674 84.2926 172.344 93.8361 172.344 93.8361L188.514 89.4289L181.843 69.6505L168.056 67.3077Z" fill="#79B8BF"/>
<path d="M181.006 70.7553C183.415 72.3108 181.69 79.7557 184.831 82.3529L195.883 76.9793L184.831 68.9163L181.006 70.7553Z" fill="#79B8BF"/>
<path d="M172.505 95.5061L178.03 90.2742L170.662 91.688L172.505 95.5061Z" fill="#79B8BF"/>
<path d="M190.223 74.7168L188.38 73.8152L187.665 79.5253L189.773 77.8724L190.223 74.7168Z" fill="#F7EBF2"/>
<path d="M232.129 263.175L232.223 267.322L219.189 267.228L218.151 261.948L232.129 263.175Z" fill="#A35E38"/>
<path d="M216.639 265.06C222.279 266.418 228.128 266.688 233.871 265.854C233.871 265.854 234.307 272.713 234.054 280.644L200.621 279.579C200.621 279.579 198.681 271.851 204.853 270.404C209.048 269.278 213.029 267.472 216.639 265.06Z" fill="#340056"/>
<path d="M200.621 279.579L234.054 280.644" stroke="#ED3B63" stroke-width="0.508" stroke-miterlimit="10"/>
<path d="M161.311 44.7307L161.171 48.6922L163.721 49.3991L164.571 45.7211L161.311 44.7307Z" fill="#229FB3"/>
<path d="M180.907 148.821L180.117 153.27C179.973 154.079 179.882 154.897 179.845 155.717L175.069 261.595L175.42 262.384H208.327L186.021 158.815L180.907 148.821Z" fill="#028EA7"/>
<path d="M200.7 257.309H175.339" stroke="#01686D" stroke-width="0.346" stroke-linecap="round" stroke-linejoin="round"/>
<path d="M180.202 155.659C184.448 193.338 196.049 230.948 201.534 268.64C216.917 268.64 225.169 268.881 238.121 268.881C234.674 246.864 231.229 225.062 227.783 203.045C226.336 193.802 224.883 184.479 225.343 175.192C225.614 169.76 226.541 164.359 226.149 158.916C225.757 153.472 223.83 147.77 219.82 144.81C210.561 145.351 192.013 145.906 182.753 146.447C181.307 146.531 180.683 146.99 180.406 148.394C180.019 150.796 179.95 153.239 180.202 155.659Z" fill="#0BA5B5"/>
<path d="M166.07 116.521L166.205 117.25C172.311 121.194 178.064 127.507 184.595 132.469C184.615 123.919 185.266 115.381 186.541 106.926C180.897 106.622 175.58 109.279 170.565 111.868C169.287 112.448 168.103 113.218 167.055 114.151C166.534 114.623 166.126 115.205 165.86 115.855C165.593 116.505 165.476 117.206 165.516 117.907C165.724 117.75 165.935 117.598 166.07 116.521Z" fill="#D1721C"/>
<path d="M220.831 145.573C223.234 137.291 217.793 121.754 217.988 109.679C218.033 106.981 217.759 103.689 215.008 102.439C213.846 102.01 212.608 101.82 211.37 101.88L187.108 101.452C184.403 101.404 181.395 101.452 179.48 103.101C177.116 105.131 180.837 104.529 181.02 107.479C181.92 122.227 172.052 135.107 180.627 147.624C191.82 147.485 204.995 147.666 216.091 147.589C217.049 147.589 220.219 146.946 220.77 145.66C220.771 145.641 220.778 145.623 220.789 145.608C220.799 145.593 220.814 145.581 220.831 145.573Z" fill="#E88821"/>
<path d="M181.714 86.101C164.012 104.291 143.857 121.695 124.733 138.396L142.865 158.617L206.548 89.3351C198.572 86.603 190.126 85.503 181.714 86.101Z" fill="#EAA357"/>
<path d="M150.153 137.628L149.893 137.887L150.153 137.628Z" fill="#F49727"/>
<path d="M180.014 87.7282C185.922 81.7655 191.304 75.13 198.714 71.1822C206.124 67.2343 215.268 65.6378 222.969 68.9931C226.517 70.5384 229.909 73.6974 229.693 77.5564C229.512 80.7666 226.956 83.2647 224.562 85.4111C221.95 87.7658 219.131 90.2229 215.657 90.7864C210.71 91.589 205.132 88.4334 200.895 91.1057C199.284 92.3449 197.962 93.9178 197.019 95.7161C196.067 97.524 194.541 98.9654 192.681 99.8142C192.195 99.9919 191.678 100.068 191.162 100.038C190.645 100.008 190.141 99.8727 189.679 99.6401C189.217 99.4075 188.808 99.0827 188.478 98.6859C188.147 98.289 187.901 97.8286 187.756 97.3331C184.511 94.6796 181.764 92.3608 180.014 87.7282Z" fill="#EAA357"/>
<path d="M228.907 101.812C234.399 102.27 237.909 102.154 247.397 102.946C250.285 103.333 253.064 104.302 255.565 105.794C258.186 107.078 260.272 109.239 261.462 111.9C262.026 113.234 262.197 114.702 261.953 116.129C261.709 117.557 261.06 118.885 260.085 119.956C258.572 121.3 256.635 122.071 254.611 122.137C252.605 122.193 250.597 122.092 248.607 121.833C240.69 121.164 232.333 122.202 225.119 118.875C223.446 118.244 222.047 117.047 221.166 115.493C219.851 112.67 221.618 109.423 223.462 106.911C225.262 104.46 227.194 102.108 229.25 99.8671C229.671 99.3107 230.256 98.9008 230.923 98.6957C231.607 98.554 228.871 101.838 228.907 101.812Z" fill="#E88821"/>
<path d="M211.423 89.4751C206.907 97.9752 205.255 106.195 200.737 114.695C199.75 116.217 199.186 117.974 199.105 119.786C199.239 122.654 201.671 124.801 203.874 126.653C215.352 136.327 224.059 147.215 235.487 158.62C243.982 148.621 250.17 142.911 258.718 132.855L231.349 111.016C234.778 106.583 237.571 101.695 239.649 96.493C241.476 91.1997 241.72 85.114 239.014 80.2185C236.308 75.323 231.072 72.3023 225.754 70.5231" fill="#F8B96E"/>
<path d="M216.117 122.813C216.117 122.813 220.193 135.036 220.328 135.304C218.32 136.262 216.086 136.645 213.873 136.41C212.157 136.353 210.467 135.984 208.885 135.321C205.484 133.784 203.517 130.567 201.755 127.536C201.198 126.804 200.932 125.891 201.011 124.975C201.353 123.479 203.396 122.864 205.094 122.926C206.766 123.216 208.474 123.223 210.149 122.948C209.683 122.409 209.402 121.736 209.345 121.026C209.289 120.317 209.46 119.608 209.834 119.002L209.858 118.966C210.099 118.635 210.428 118.379 210.808 118.225C211.188 118.072 211.603 118.027 212.007 118.097C212.411 118.166 212.787 118.347 213.093 118.619C213.399 118.891 213.623 119.243 213.739 119.635C213.89 120.302 214.179 120.93 214.589 121.477C214.998 122.025 215.519 122.48 216.117 122.813Z" fill="#A35E38"/>
<path d="M236.727 265.01C236.727 265.01 208.093 264.571 201.788 264.571" stroke="#01686D" stroke-width="0.346" stroke-linecap="round" stroke-linejoin="round"/>
<path d="M214.861 156.484C212.19 156.579 209.59 155.619 207.622 153.814C205.655 152.008 204.479 149.501 204.35 146.836" stroke="#19254F" stroke-width="0.508" stroke-miterlimit="10" stroke-linecap="round"/>
<path d="M215.71 147.26C217.157 149.464 218.057 151.981 218.335 154.602" stroke="#01686D" stroke-width="0.508" stroke-miterlimit="10" stroke-linecap="round"/>
<path d="M217.752 147.574C219.087 148.075 220.29 148.874 221.268 149.91C222.246 150.945 222.974 152.191 223.397 153.55" stroke="#01686D" stroke-width="0.508" stroke-miterlimit="10" stroke-linecap="round"/>
<path d="M177.464 70.4718C167.137 68.988 165.355 62.4327 162.601 51.1937C160.936 44.396 166.838 30.1637 184.506 33.4968C194.482 35.3751 211.348 40.706 231.293 57.7951C233.997 59.9454 236.361 62.4904 238.306 65.3441C239.015 67.0719 239.848 68.7467 240.797 70.3557C241.652 71.5186 242.849 72.4048 243.638 73.6325C244.047 74.3374 244.312 75.1161 244.418 75.9238C244.524 76.7315 244.468 77.5521 244.255 78.3383C244.041 79.1245 243.673 79.8606 243.173 80.5043C242.673 81.1479 242.05 81.6862 241.34 82.0882C241.236 84.4835 241.343 86.8833 241.66 89.2599C229.986 87.3975 218.4 85.0787 206.902 82.3034C203.181 81.5627 199.577 80.322 196.189 78.6151C193.1 76.8939 189.484 73.6888 185.95 73.5505C183.199 73.4378 187.79 71.9574 177.464 70.4718Z" fill="#99D2DC"/>
<path d="M239.57 82.5869L211.331 82.2454" stroke="#01686D" stroke-width="0.346" stroke-miterlimit="10" stroke-linecap="round"/>
<path d="M205.092 104.841L210.003 95.6017L218.698 99.9798L209.059 106.445L205.092 104.841Z" fill="#F8B96E"/>
<path d="M194.735 100.639C194.878 101.751 194.878 102.876 194.735 103.987C196.998 105.349 199.68 105.84 202.28 105.371C205.063 104.636 207.692 103.412 210.044 101.756L210.197 101.535C209.761 101.403 209.362 101.172 209.031 100.861C208.7 100.549 208.445 100.166 208.287 99.7398C208.128 99.3139 208.071 98.8572 208.118 98.4053C208.166 97.9535 208.318 97.5188 208.561 97.1351C210.429 93.2966 209.839 93.8276 212.827 87.689C215.576 82.0422 212.998 77.3413 210.674 74.3497C208.349 71.3581 206.081 69.9852 199.545 69.5686C197.213 69.4203 194.901 70.0774 192.997 71.4297C191.093 72.7819 189.713 74.7469 189.088 76.9947C188.531 79.6875 184.718 81.6289 183.083 83.4919C181.447 85.3548 185.339 85.8517 185.106 86.2581C184.86 87.4891 184.759 88.7448 184.807 89.9993C184.742 93.773 185.934 99.3652 194.713 100.379" fill="#A35E38"/>
<path d="M201.302 82.259C201.065 79.794 201.117 77.3099 201.456 74.8568C199.189 72.6882 192.058 72.1247 192.058 72.1247C193.009 71.3245 194.076 70.6728 195.222 70.1918C197.232 69.3673 199.404 69.0109 201.572 69.1497C203.741 69.2884 205.849 69.9187 207.737 70.9926C213.895 74.7595 213.915 77.9389 214.396 81.9772C214.709 85.4441 213.843 88.9151 211.94 91.8314C210.723 93.7234 208.587 96.9233 208.587 96.9233C202.152 93.7524 201.762 91.4899 201.187 88.483L201.16 86.9633L202.648 86.3622L204.187 83.5328" fill="#3A2419"/>
<path d="M186.769 90.3083C188.007 90.4211 189.244 90.0753 190.243 89.3367" stroke="#683823" stroke-width="0.381" stroke-miterlimit="10" stroke-linecap="round"/>
<path d="M191.742 75.6081C192.543 75.697 193.307 75.991 193.961 76.4616C194.614 76.9322 195.135 77.5634 195.472 78.2941" stroke="#683823" stroke-width="0.381" stroke-miterlimit="10" stroke-linecap="round"/>
<path d="M191.581 78.5297L191.17 78.1472C190.988 78.2106 190.823 78.3137 190.686 78.449C190.549 78.5843 190.444 78.7483 190.378 78.9293C190.315 79.1127 190.3 79.3096 190.336 79.5003C190.372 79.691 190.458 79.8691 190.583 80.017C190.712 80.1587 190.882 80.2571 191.069 80.2984C191.257 80.3397 191.452 80.3219 191.629 80.2475C191.818 80.1503 191.976 80.0025 192.085 79.8206C192.216 79.6274 192.291 79.4017 192.301 79.1686C192.311 78.9355 192.256 78.7043 192.142 78.5007C192.081 78.405 192 78.3232 191.905 78.2606C191.811 78.1981 191.704 78.1561 191.592 78.1374C191.479 78.1187 191.365 78.1238 191.255 78.1522C191.145 78.1807 191.042 78.2319 190.953 78.3026C190.919 78.2616 190.883 78.2189 191.581 78.5297Z" fill="#683823"/>
<path d="M193.153 80.0494C192.61 79.8058 192.042 79.6242 191.459 79.5081" stroke="#683823" stroke-width="0.381" stroke-miterlimit="10" stroke-linecap="round"/>
<path d="M190.243 81.9106C189.156 82.6287 188.355 83.704 187.978 84.9501" stroke="#683823" stroke-width="0.207" stroke-miterlimit="10" stroke-linecap="round"/>
<path d="M186.186 85.2916C186.047 85.0471 185.835 84.8524 185.579 84.735C185.323 84.6176 185.037 84.5836 184.761 84.6376" stroke="#683823" stroke-width="0.207" stroke-miterlimit="10" stroke-linecap="round"/>
<path d="M198.7 87.9109C199.253 88.3843 199.933 88.6862 200.655 88.7797C201.378 88.8731 202.112 88.7539 202.768 88.4369C203.414 88.0868 203.944 87.5571 204.294 86.9121C204.644 86.2671 204.799 85.5345 204.74 84.8032C204.709 84.3746 204.588 83.9573 204.385 83.5786C204.181 83.1999 203.9 82.8684 203.56 82.6056C203.216 82.3537 202.804 82.2094 202.378 82.1909C201.952 82.1723 201.53 82.2804 201.165 82.5014" fill="#A35E38"/>
<path d="M198.7 87.9109C199.253 88.3843 199.933 88.6862 200.655 88.7797C201.378 88.8731 202.112 88.7539 202.768 88.4369C203.414 88.0868 203.944 87.5571 204.294 86.9121C204.644 86.2671 204.799 85.5345 204.74 84.8032C204.709 84.3746 204.588 83.9573 204.385 83.5786C204.181 83.1999 203.9 82.8684 203.56 82.6056C203.216 82.3537 202.804 82.2094 202.378 82.1909C201.952 82.1723 201.53 82.2804 201.165 82.5014" stroke="#683823" stroke-width="0.381" stroke-miterlimit="10" stroke-linecap="round"/>
<path d="M199.501 85.8687C199.696 85.874 199.889 85.8326 200.065 85.7479C200.24 85.6633 200.393 85.5378 200.51 85.382C200.626 85.2218 200.704 85.0369 200.737 84.8416C200.77 84.6464 200.757 84.4462 200.7 84.2568C201.029 84.0158 201.426 83.8855 201.834 83.8845C202.037 83.8859 202.237 83.9288 202.423 84.0108C202.609 84.0927 202.776 84.2119 202.913 84.3609C203.133 84.6254 203.25 84.9602 203.242 85.3038C203.234 85.6473 203.102 85.9765 202.87 86.2307" fill="#A35E38"/>
<path d="M199.501 85.8687C199.696 85.874 199.889 85.8326 200.065 85.7479C200.24 85.6633 200.393 85.5378 200.51 85.382C200.626 85.2218 200.704 85.0369 200.737 84.8416C200.77 84.6464 200.757 84.4462 200.7 84.2568C201.029 84.0158 201.426 83.8855 201.834 83.8845C202.037 83.8859 202.237 83.9288 202.423 84.0108C202.609 84.0927 202.776 84.2119 202.913 84.3609C203.133 84.6254 203.25 84.9602 203.242 85.3038C203.234 85.6473 203.102 85.9765 202.87 86.2307" stroke="#683823" stroke-width="0.207" stroke-miterlimit="10" stroke-linecap="round"/>
<path d="M184.029 145.952C182.646 144.247 181.763 142.193 181.478 140.018" stroke="#D8770E" stroke-width="0.346" stroke-miterlimit="10" stroke-linecap="round"/>
<path d="M185.067 146.377C184.741 144.78 184.646 143.145 184.785 141.521" stroke="#D8770E" stroke-width="0.346" stroke-miterlimit="10" stroke-linecap="round"/>
<path d="M178.314 125.846C179.017 123.299 179.868 120.796 180.864 118.35" stroke="#D8770E" stroke-width="0.346" stroke-miterlimit="10" stroke-linecap="round"/>
<path d="M199.068 253.276L191.136 217.541" stroke="#01686D" stroke-width="0.508" stroke-miterlimit="10" stroke-linecap="round"/>
<path d="M204.454 106.115L208.587 96.9216L213.382 100.951L209.697 106.043L204.454 106.115Z" fill="#F8B96E"/>
<path d="M255.909 131.525L233.713 154.251" stroke="#F49727" stroke-width="0.508" stroke-miterlimit="10" stroke-linecap="round"/>
<path d="M127.449 137.372L143.884 156.042" stroke="#D8770E" stroke-width="0.346" stroke-miterlimit="10" stroke-linecap="round"/>
<path d="M151.27 10.1462C146.742 13.4196 147.524 17.6269 147.835 20.12C147.835 20.12 143.195 24.6979 144.4 27.9115C144.869 29.158 147.367 29.0026 147.367 29.0026C147.086 30.4656 147.033 31.9631 147.211 33.4422C147.563 34.6616 148.291 35.7397 149.29 36.5243C150.289 37.309 151.51 37.7605 152.78 37.8152C154.159 37.8664 158.163 36.333 160.917 35.6978C163.962 34.9977 170.315 34.144 173.906 26.8186C177.496 19.4933 175.616 10.7678 170.627 7.80689C166.33 5.26095 161.104 5.62636 155.798 7.02825C154.867 7.20335 153.983 7.57128 153.203 8.10832C152.423 8.64535 151.765 9.33957 151.27 10.1462Z" fill="#734E35"/>
<path d="M148.16 13.9642C146.287 11.0051 145.962 6.71915 148.928 5.9388C151.894 5.15846 150.957 3.13502 155.641 2.82254C160.324 2.51006 161.886 3.75827 165.163 2.35468C168.44 0.951078 173.437 2.82254 173.906 5.47264C173.906 5.47264 181.867 7.80856 179.369 12.7963C179.369 12.7963 181.555 18.2502 178.9 20.5878C176.246 22.9254 179.058 23.8594 176.559 26.5095C174.06 29.1596 173.126 27.9114 172.657 29.4704C172.356 29.6632 172.018 29.7885 171.664 29.8375C171.31 29.8865 170.95 29.8582 170.608 29.7544C170.266 29.6506 169.951 29.4738 169.685 29.2364C169.418 28.9989 169.207 28.7065 169.065 28.3793C167.972 25.8863 168.596 25.263 166.41 23.704C164.224 22.1451 164.383 17.7823 163.134 17.0037C161.886 16.225 156.578 14.8214 156.889 12.3284C157.201 9.83541 153.143 9.68002 151.426 10.7694C150.179 11.6599 149.077 12.7376 148.16 13.9642Z" fill="#49301F"/>
<path d="M149.397 31.3317C150.579 31.3962 151.753 31.1168 152.779 30.5274" stroke="#49301F" stroke-width="0.381" stroke-miterlimit="10" stroke-linecap="round"/>
<path d="M151.778 21.1325C152.274 21.1325 152.676 20.6096 152.676 19.9646C152.676 19.3195 152.274 18.7966 151.778 18.7966C151.282 18.7966 150.88 19.3195 150.88 19.9646C150.88 20.6096 151.282 21.1325 151.778 21.1325Z" fill="#49301F"/>
<path d="M151.778 19.9646L153.768 19.886" stroke="#49301F" stroke-width="0.381" stroke-miterlimit="10" stroke-linecap="round"/>
<path d="M158.762 35.8208C159.47 37.5181 162.354 41.6264 161.925 43.223L172.359 31.441L168.913 29.7915L158.762 35.8208Z" fill="#734E35"/>
<path d="M176.602 32.3033L165.209 48.5505L160.475 44.5617L172.312 29.2007L174.137 31.6629L176.602 32.3033Z" fill="#71C0CE"/>
<path d="M162.673 24.6227C163.348 24.9719 164.11 25.1168 164.867 25.0398C165.624 24.9627 166.341 24.6671 166.932 24.189C167.505 23.6802 167.918 23.016 168.121 22.2772C168.323 21.5385 168.306 20.7569 168.071 20.0277C167.938 19.5989 167.716 19.203 167.419 18.866C167.121 18.5291 166.756 18.2587 166.347 18.0726C165.938 17.8989 165.486 17.85 165.05 17.9321C164.613 18.0141 164.21 18.2234 163.892 18.5336" fill="#734E35"/>
<path d="M162.673 24.6227C163.348 24.9719 164.11 25.1168 164.867 25.0398C165.624 24.9627 166.341 24.6671 166.932 24.189C167.505 23.6802 167.918 23.016 168.121 22.2772C168.323 21.5385 168.306 20.7569 168.071 20.0277C167.938 19.5989 167.716 19.203 167.419 18.866C167.121 18.5291 166.756 18.2587 166.347 18.0726C165.938 17.8989 165.486 17.85 165.05 17.9321C164.613 18.0141 164.21 18.2234 163.892 18.5336" stroke="#49301F" stroke-width="0.381" stroke-miterlimit="10" stroke-linecap="round"/>
<path d="M163.001 22.3551C163.201 22.3141 163.388 22.2259 163.547 22.0978C163.705 21.9698 163.831 21.8056 163.913 21.6191C163.994 21.4277 164.03 21.2199 164.016 21.0124C164.003 20.8048 163.941 20.6033 163.836 20.4239C164.113 20.1004 164.485 19.8726 164.9 19.7733C165.107 19.7269 165.321 19.7234 165.53 19.7631C165.739 19.8027 165.937 19.8847 166.112 20.0038C166.397 20.2205 166.594 20.532 166.667 20.8815C166.741 21.231 166.686 21.5952 166.513 21.9077" stroke="#49301F" stroke-width="0.207" stroke-miterlimit="10" stroke-linecap="round"/>
<path d="M148.095 27.7236C148.417 27.6653 148.748 27.6794 149.064 27.7648C149.379 27.8501 149.672 28.0046 149.92 28.2171" stroke="#49301F" stroke-width="0.207" stroke-miterlimit="10" stroke-linecap="round"/>
<path d="M149.45 9.65273C149.47 9.14949 149.611 8.65847 149.862 8.22159C150.113 7.78471 150.466 7.41494 150.891 7.14384C151.317 6.87274 151.801 6.70836 152.304 6.66475C152.806 6.62113 153.312 6.69956 153.778 6.89334C154.486 7.33668 155.238 7.70577 156.022 7.99471C156.882 8.01308 157.74 7.90315 158.567 7.66857C159.621 7.58438 160.667 7.90793 161.489 8.57224C162.31 9.23656 162.844 10.1908 162.98 11.2373" stroke="#332013" stroke-width="0.508" stroke-miterlimit="10" stroke-linecap="round"/>
<path d="M165.32 10.1837C165.518 9.54913 165.626 8.88975 165.639 8.2252C165.643 7.89233 165.577 7.56229 165.446 7.25619C165.315 6.9501 165.121 6.6747 164.877 6.44765C164.407 6.1165 163.863 5.90491 163.292 5.83123L158.16 4.7384" stroke="#332013" stroke-width="0.346" stroke-miterlimit="10" stroke-linecap="round"/>
<path d="M169.123 9.39145C169.595 9.07123 169.974 8.63191 170.221 8.11814C170.468 7.60438 170.574 7.0345 170.529 6.46644C170.47 5.89953 170.262 5.35825 169.926 4.89759C169.59 4.43693 169.138 4.07331 168.615 3.84366" stroke="#332013" stroke-width="0.346" stroke-miterlimit="10" stroke-linecap="round"/>
<path d="M171.167 27.7765L173.233 26.2534C174.073 25.7393 174.761 25.0123 175.228 24.1463C175.572 22.9891 175.53 21.7519 175.11 20.6202" stroke="#332013" stroke-width="0.346" stroke-miterlimit="10" stroke-linecap="round"/>
<path d="M123.301 51.9246L153.109 68.1872L188.373 71.1805L177.748 48.5505C177.748 48.5505 162.974 50.4766 160.745 50.2478C158.392 50.1151 156.087 49.5392 153.949 48.5505C151.813 47.9178 149.749 47.0634 147.791 46.0011C145.649 44.5548 128.395 37.0741 128.395 37.0741L122.02 50.2221L123.301 51.9246Z" fill="#99D2DC"/>
<path d="M168.979 69.5806C169.234 70.0065 169.582 70.3698 169.997 70.6437C170.411 70.9177 170.882 71.0953 171.374 71.1635C172.359 71.2921 173.357 71.2979 174.344 71.1805C179.029 70.8837 183.728 71.496 188.18 72.9837" stroke="#01686D" stroke-width="0.508" stroke-miterlimit="10" stroke-linecap="round"/>
<path d="M193.965 105.331C196.75 107.016 200.086 107.542 203.255 106.796" stroke="#D8770E" stroke-width="0.346" stroke-miterlimit="10" stroke-linecap="round"/>
<path d="M215.918 121.577C216.824 121.667 217.737 121.48 218.534 121.041C218.399 120.526 218.413 119.983 218.575 119.475C218.737 118.968 219.04 118.517 219.449 118.175C220.283 117.503 221.318 117.128 222.389 117.108C223.816 117.028 225.439 117.294 226.512 116.35C226.828 116.024 227.123 115.678 227.396 115.315C228.291 114.459 229.386 113.838 230.581 113.51C231.93 113.03 233.287 112.575 234.652 112.144C234.091 111.817 233.445 111.666 232.796 111.709C232.988 110.695 234.146 110.225 235.145 109.957C236.875 109.491 238.623 109.105 240.389 108.799C240.259 108.695 240.314 108.487 240.403 108.347C240.693 108.008 241.051 107.733 241.453 107.539C241.855 107.345 242.293 107.236 242.74 107.22L246.812 106.518C248.987 106.03 251.223 105.877 253.444 106.064C255.837 106.384 258.042 107.532 259.674 109.308C261.294 111.102 262.138 113.462 262.023 115.874C261.815 117.771 261.249 119.611 260.357 121.298C259.378 123.789 257.774 125.986 255.699 127.68C254.711 128.331 253.661 128.881 252.563 129.322L245.923 132.254C241.121 134.373 235.882 136.538 230.776 135.316C229.51 135.012 227.961 134.581 227.08 135.539C226.929 135.7 226.814 135.893 226.65 136.041C225.833 136.786 224.584 136.026 223.506 135.78C222.254 135.493 221.507 135.968 219.776 136.463C219.481 134.136 218.94 131.846 218.159 129.633C217.809 128.134 217.372 126.657 216.849 125.209L216.447 124.027C216.11 123.253 215.93 122.42 215.918 121.577Z" fill="#E88821"/>
<path d="M222.061 134.646C222.333 130.229 221.098 125.849 218.556 122.222" stroke="#D8770E" stroke-width="0.346" stroke-miterlimit="10" stroke-linecap="round"/>
<path d="M252.563 129.312C260.066 125.303 265.923 119.646 260.538 110.027L247.692 107.104L246.747 117.759L252.563 129.312Z" fill="#E88821"/>
<path d="M233.433 112.819C234.358 112.737 235.244 112.408 235.998 111.866C236.423 111.503 236.881 111.182 237.367 110.906C237.611 110.772 237.89 110.713 238.168 110.737C238.446 110.761 238.711 110.867 238.929 111.041" stroke="#D8770E" stroke-width="0.346" stroke-miterlimit="10" stroke-linecap="round"/>
<path d="M62.1098 167.195L80.6059 163.68L113.633 238.41L88.5308 245.882" fill="#F49727"/>
<path d="M88.5309 245.882L62.1098 167.195L28.6414 231.377L88.5309 245.882Z" fill="#F49727"/>
<path d="M213.821 202.29L226.016 204.386L217.23 208.835" stroke="#01686D" stroke-width="0.346" stroke-linecap="round" stroke-linejoin="round"/>
<path d="M214.076 147.414L228.903 263.279" stroke="#19254F" stroke-width="0.508" stroke-miterlimit="10" stroke-linecap="round"/>
<path d="M225 279.896C225 277.696 225.875 275.586 227.434 274.031C228.992 272.475 231.106 271.601 233.309 271.601" stroke="#ED3B63" stroke-width="0.254" stroke-miterlimit="10" stroke-linecap="round"/>
<path d="M202.015 273.514C203.711 273.514 205.336 274.187 206.535 275.384C207.734 276.581 208.407 278.204 208.407 279.896" stroke="#ED3B63" stroke-width="0.254" stroke-miterlimit="10" stroke-linecap="round"/>
<path d="M183.295 69.3056C186.091 67.4606 189.234 66.2048 192.533 65.6152C195.832 65.0256 199.217 65.1147 202.48 65.8769" stroke="#01686D" stroke-width="0.508" stroke-miterlimit="10" stroke-linecap="round"/>
<path d="M168.468 48.3456C171.135 45.5608 174.607 43.6768 178.398 42.9566C182.19 42.2363 186.112 42.7156 189.617 44.3277" stroke="#01686D" stroke-width="0.508" stroke-miterlimit="10" stroke-linecap="round"/>
<path d="M185.76 97.2461L137.767 144.468" stroke="#D8770E" stroke-width="0.346" stroke-miterlimit="10" stroke-linecap="round"/>
<path d="M230.802 90.865L215.557 116.586L218.411 119.434" stroke="#F49727" stroke-width="0.346" stroke-miterlimit="10" stroke-linecap="round"/>
<path d="M237.588 135.338L243.98 141.13" stroke="#F49727" stroke-width="0.346" stroke-miterlimit="10" stroke-linecap="round"/>
<path d="M214.476 82.7166L241.029 82.913L241.423 86.8403L241.653 89.2616L214.377 84.4839L214.476 82.7166Z" fill="#79B8BF"/>
<path d="M203.069 100.192C200.504 100.449 197.925 100.548 195.347 100.487V103.818C197.019 103.68 198.669 103.351 200.265 102.837C201.358 102.138 202.309 101.241 203.069 100.192Z" fill="#915131"/>
<path d="M173.524 32.3954L167.649 40.4738" stroke="#01686D" stroke-width="0.346" stroke-miterlimit="10" stroke-linecap="round"/>
<path d="M89.1842 245.095L112.395 237.83L80.3339 164.593L63.0249 167.539L89.1842 245.095Z" fill="#E88821"/>
<path d="M49.9923 114.217L56.0014 108.842C58.9783 106.062 62.4813 103.904 66.3049 102.493C70.1285 101.083 74.1958 100.448 78.2682 100.628C82.3406 100.807 86.3361 101.796 90.0204 103.538C93.7047 105.279 97.0036 107.737 99.7237 110.768C102.444 113.798 104.53 117.341 105.861 121.187C107.191 125.034 107.739 129.106 107.471 133.167C107.204 137.227 106.127 141.194 104.304 144.833C102.481 148.473 99.9483 151.712 96.8543 154.362L91.9895 158.714" fill="#E88821"/>
<path d="M69.655 168.215C86.5606 168.215 100.265 154.534 100.265 137.658C100.265 120.783 86.5606 107.102 69.655 107.102C52.7495 107.102 39.0449 120.783 39.0449 137.658C39.0449 154.534 52.7495 168.215 69.655 168.215Z" fill="#F49727"/>
<path d="M74.7747 115.518L43.5111 105.055V77.0459L74.7747 83.7429V115.518Z" fill="#F49727"/>
<path d="M105.931 105.055L74.6652 115.518V83.7429L105.931 77.0459V105.055Z" fill="#F49727"/>
<path d="M43.6188 77.1586L74.7747 84.0912L106.038 77.1586L74.5626 70.675L43.6188 77.1586Z" fill="#F49727"/>
<path d="M75.2194 114.786L75.2844 84.2227L105.181 77.8091L105.378 104.577L75.2194 114.786Z" fill="#E88821"/>
<path d="M98.4776 76.286L79.5471 80.9493L67.8931 74.3719L80.7273 71.7713L98.4776 76.286Z" fill="#E88821"/>
<path d="M94.3005 74.7885L80.0157 74.0645L87.0666 47.181L101.351 47.9067L94.3005 74.7885Z" fill="#ED3B63"/>
<path d="M80.0158 74.0645L67.2089 67.7074L74.2598 40.8256L87.0666 47.181L80.0158 74.0645Z" fill="#ED3B63"/>
<path d="M74.2598 40.8256L88.5309 41.5991L101.351 47.9067L87.0667 47.181L74.2598 40.8256Z" fill="#ED3B63"/>
<path d="M87.5456 47.8982L100.395 48.4873L93.9704 74.1431L80.8574 73.6189L87.5456 47.8982Z" fill="#D3335E"/>
<path d="M123.015 38.6382C114.394 34.8645 105.679 31.4956 103.19 30.4779C102.932 30.677 102.727 30.9368 102.594 31.2342C102.461 31.5316 102.404 31.8573 102.427 32.1822C102.451 32.5071 102.555 32.821 102.73 33.096C102.905 33.371 103.145 33.5984 103.43 33.7581C105.593 35.4195 113.122 37.9159 113.122 37.9159" fill="#734E35"/>
<path d="M127.82 41.2815C127.82 41.2815 109.579 30.2422 104.281 37.5249C98.8779 44.9578 99.7793 45.1969 99.8546 47.4559C99.8546 47.4559 100.889 48.2329 102.728 45.8611C104.567 43.4893 107.543 40.5165 109.594 41.9338C111.645 43.351 107.49 45.5555 104.985 46.0028C102.479 46.4502 102.248 46.9573 101.504 48.8083C103.265 49.1448 105.054 49.3259 106.847 49.3496C111.466 49.5852 111.035 49.9029 114.203 49.0081C116.148 48.4927 118.214 48.6996 120.018 49.5904L127.82 41.2815Z" fill="#734E35"/>
<path d="M111.669 38.826C109.978 38.6311 108.27 38.6214 106.577 38.797C104.85 38.9915 103.229 39.7281 101.948 40.9007C101.264 41.5837 101.264 41.8227 100.395 42.2104C99.9451 42.3343 99.4733 42.358 99.0131 42.2798C98.5528 42.2016 98.1154 42.0234 97.7318 41.7579C98.2382 40.0342 99.2291 38.4917 100.587 37.3131C101.945 36.1346 103.613 35.3696 105.393 35.1087C108.864 34.5316 112.383 35.6261 111.669 38.826Z" fill="#734E35"/>
<path d="M112.986 36.386C108.673 34.6466 104.091 33.6645 99.4423 33.4832C99.4423 33.4832 97.9901 36.0223 101.29 36.7463C104.589 37.4703 110.638 39.0532 110.638 39.0532C110.638 39.0532 120.251 39.2854 112.986 36.386Z" fill="#734E35"/>
<path d="M124.235 53.9395C126.881 48.1651 128.975 42.154 130.489 35.9864L124.214 33.9271L117.685 51.7077C119.967 52.5291 122.133 53.2155 124.235 53.9395Z" fill="#71C0CE"/>
<path d="M113.874 35.9727C111.851 35.9266 106.498 35.7798 104.808 37.2961C103.918 38.2006 103.11 39.1817 102.393 40.2279" stroke="#49301F" stroke-width="0.173" stroke-miterlimit="10" stroke-linecap="round"/>
<path d="M103.098 35.6722C104.24 35.0551 105.495 34.6731 106.788 34.5491C108.08 34.425 109.385 34.5613 110.624 34.9499" stroke="#49301F" stroke-width="0.173" stroke-miterlimit="10" stroke-linecap="round"/>
<path d="M89.7744 250.984L143.273 227.62L143.078 261.783L89.9711 285.934L89.7744 250.984Z" fill="#E88821"/>
<path d="M164.041 97.533C165.785 97.1307 167.581 97.0034 169.364 97.1556L173.103 97.7686C173.158 97.7788 173.21 97.8014 173.255 97.8345C173.299 97.8677 173.336 97.9107 173.361 97.9601C173.387 98.0095 173.401 98.064 173.402 98.1196C173.403 98.1752 173.392 98.2304 173.369 98.2809C172.768 99.5649 172.539 100.311 170.881 100.485C169.787 100.488 168.694 100.431 167.606 100.315C168.767 101.182 169.878 102.116 170.931 103.111C173.338 106.098 164.944 112.906 162.163 113.724C161.548 113.998 160.876 114.117 160.204 114.072C159.532 114.028 158.882 113.819 158.309 113.466C157.005 112.351 155.796 111.129 154.696 109.812C153.419 107.864 155.225 105.748 158.117 102.166C161.092 98.4772 162.927 97.8932 164.041 97.533Z" fill="#A35E38"/>
<path d="M214.256 121.097L213.727 119.823L213.486 117.513C213.48 117.452 213.462 117.392 213.433 117.338C213.404 117.284 213.365 117.236 213.317 117.197C213.269 117.158 213.214 117.129 213.155 117.111C213.096 117.094 213.034 117.088 212.973 117.095C212.217 117.137 211.49 117.397 210.879 117.842C210.267 118.288 209.798 118.901 209.528 119.606L212.395 121.579L214.256 121.097Z" fill="#A35E38"/>
</g>
<defs>
<clipPath id="clip0">
<rect width="305" height="326" fill="white"/>
</clipPath>
</defs>
</svg>
