<svg xmlns="http://www.w3.org/2000/svg" viewBox="0 0 401.42 397.19"><defs><style>.cls-1{fill:#a291ad;}</style></defs><g id="ferdige"><path class="cls-1" d="M263.06,303.58c-7.28-9.93-18.58-15.49-28.78-14.15-1.21.16-2.48.41-3.71.64-4.44.85-9,1.73-12.13-1l-1.2-1.07c.12-.16.24-.3.35-.46,6.82-2.65,11-3.48,16.86-2.1a71.84,71.84,0,0,1,10.14,3.5,74.9,74.9,0,0,0,9.78,3.43,39.19,39.19,0,0,0,9.6,1.16,50.76,50.76,0,0,0,26.11-7.7c9.22-5.6,17.72-14.11,26-26a161.3,161.3,0,0,0,25.37-59.4c3.45-17-2.54-23.19-6.42-25.37a13.6,13.6,0,0,0-3.1-1.25c0-.71.07-1.43.1-2.19.95-10.67-.49-22.67-1.44-28.89l.15,0c-.73-5.92-2-13.68-4-17.06a7.72,7.72,0,0,0-.57-.83l-.12.09a2.3,2.3,0,0,0-.31-.36l.1-.11a9.87,9.87,0,0,0-1.25-1.16l-.09.11c-1.42-1.42-3.35-3.37-7.32-3.17-6.08-1.54-14.6-2-21.46-2.35-2.16-.12-4-.21-5.59-.34l-1-.35c-.76-.27-2-.8-2.55-1.08-2.17-1.09-2.68-2.09-3.08-3.27a30,30,0,0,1,0-5.78c.78-.5,1.61-1.06,2.48-1.67,4.38-2.75,9.88-11.82,11.09-21,.9-6.78-.69-12.61-4.61-16.84C280.18,54.24,267,51.72,252.28,59.8c-4.72,1.82-7,1.43-9.43,1l-1.3-.22.08.78a5.62,5.62,0,0,0,1.42,3,17.69,17.69,0,0,1-6.13.66h-.61v.61c0,.06.12,5.44,5,6.94a12.75,12.75,0,0,0,.23,2.83c-1.52,4.25-2,8.84-1.12,11.45,1,3.08.55,4.13-2,10l-.7,1.61a3.21,3.21,0,0,0,0,2.92,4,4,0,0,0,2.83,1.89,1,1,0,0,1,.7.48c0,1.33.18,5,1.61,7.69.21.38.39.73.55,1,1,2,1.64,3,4.21,3,.41,0,.87,0,1.39-.07a31.08,31.08,0,0,0,5.59-.7l1.73-.3a2.73,2.73,0,0,1,2.79,1.28c.08,1.91-1.83,3.24-3.46,4l-.64.29-.44.17-.15-.2-.26-.3-.38.13s-2.16.7-3.11,1a6.12,6.12,0,0,1-1,.24c-7.4,1.21-20.78,5.09-27.32,17.42-1.76,3.32-1.89,7.93-.42,14.07-3.72,4.32-7.13,8.51-10.42,12.55-3.68,4.53-7.16,8.8-10.72,12.81l-.4.46.47.39c13.06,11.1,19,16.45,27.36,25.52a16.14,16.14,0,0,1-12.21,2.46c-6.51-1.36-12-5.87-17.29-10.24s-11.78-9.69-20-11.17c-9.65-1.74-20.48,2.77-26.3,11l-.12.21c-10.33,11.1-25.24,28-36.51,47.11l-.34.57c-5.93,1.07-11.89,2.05-17.82,2.71a172.67,172.67,0,0,1-3.94-26.45c-.18-2.66-.28-5.31-.31-7.93a.62.62,0,0,0,.35-.2c5.8-7.2,14.92-10.55,23.74-13.79,2.38-.88,4.84-1.78,7.19-2.75a94.3,94.3,0,0,0,43.48-36.42.6.6,0,0,0,0-.67.6.6,0,0,0-.62-.24c-30.48,6.77-57.92,26-73.8,51.63-.1-.51-.2-1-.31-1.5,0-1.9.09-3.79.2-5.67a.57.57,0,0,0,.14-.28c2.23-13.31,11.49-26.28,25.41-35.59,12.61-8.43,27.27-13.25,41.44-17.91a.61.61,0,0,0,.13-1.09c-15.78-9.73-36.71-3.21-48.39,7.87a61.89,61.89,0,0,0-15.57,24.82,112,112,0,0,1,8.7-24.37l.09,0c-.11.27-.23.54-.34.82a.6.6,0,0,0,1,.57c11-14.92,17.82-20.18,30.43-23.43,12.3-3.17,24-2.49,37.73-.5a5.63,5.63,0,0,0,4-.42,3.29,3.29,0,0,0,1.38-2.14,4.58,4.58,0,0,0-.73-3.39,9.39,9.39,0,0,0-4.63-3,53.7,53.7,0,0,0-40.74,1.46,52.89,52.89,0,0,0-16.29,11.67,88.39,88.39,0,0,1,6.19-6.77c7.06-2.94,11.81-8.83,14.59-13.39,3.56-5.82,5.83-12.37,8-18.71l.28-.82c2.47-7.12,4.81-13.47,8.57-19.09a.6.6,0,0,0-.06-.74.59.59,0,0,0-.73-.11c-19.37,10.7-32.24,31.43-32.78,52.79a.52.52,0,0,0,.13.36c-1.36,1.39-2.67,2.82-3.95,4.3-1.12-2-.53-4.38,0-6,4-11.45,8.1-23.3,8.32-35.74.25-13.89-5-26.21-14.11-32.94a.59.59,0,0,0-.91.7c2,5,.35,10.48-1.19,15.82-.23.79-.46,1.58-.67,2.36-5.24,19-8.42,40.6,7.7,56.78a96.81,96.81,0,0,0-10.2,14.9c.79-11.59,1.26-23.46-1.64-34.95A63.06,63.06,0,0,0,75.58,78.07a.6.6,0,0,0-.75.14.59.59,0,0,0,0,.77c7.07,8.34,9.52,19.6,10.75,27.34.51,3.24.92,6.57,1.31,9.78a137.12,137.12,0,0,0,3.46,20c4.22,15.23,10.72,19.11,14,20.09A113.35,113.35,0,0,0,96,179.05c-.32-23.89-10-48-27.95-69a.6.6,0,0,0-1,.66c4.6,9.12,4.71,19.23,4.82,29.92.08,7.82.17,15.9,2.2,23.48,3,11.33,10.2,20.69,19.73,25.87a133.23,133.23,0,0,0-1.44,14.71C89.54,196.06,84.69,190,80,184.15a110.29,110.29,0,0,1-7.23-9.71c-6.17-9.6-14.18-24.12-12.66-39.19a.6.6,0,0,0-.34-.61.63.63,0,0,0-.69.13c-7.16,7.31-10.16,18.89-7.82,30.23,2,9.49,7.51,19,16.06,27.45,7.3,7.24,16,13.07,25,18.86,0,3.06.11,6.16.32,9.28a173.41,173.41,0,0,0,3.94,26.51c-11.12,1.15-22.12,1.07-32.56-1.93l-1.16-.33.43,1.12c11.09,28.88,36.27,49.79,67.37,55.93a118.8,118.8,0,0,0,23.1,2.19c17.85,0,37.39-3.63,59.07-10.93a59.07,59.07,0,0,0,.81,12.66c1.32,6.77,4.48,12.38,8.91,15.79,7,5.41,16.31,5.34,25.29,5.27h1.41c8.47-.05,19,.82,24.55,8.06l1.58,2-.51-2.53C272.64,323.78,269.72,312.67,263.06,303.58ZM122.73,130.35c.82-19.85,12.46-39,30-49.67-3.09,5.2-5.2,10.94-7.39,17.29l-.29.82c-2.17,6.28-4.41,12.77-7.9,18.48-2.62,4.29-7,9.79-13.51,12.68a.58.58,0,0,0-.56.14l-.17.17Zm-36-24.21C85.63,99,83.48,89,77.73,80.78a62,62,0,0,1,26.13,36.3c3.07,12.19,2.3,24.89,1.41,37.23-.13.25-.26.5-.38.75-6.32-1.55-11-10.83-13.38-19.32A136.42,136.42,0,0,1,88.08,116C87.69,112.73,87.28,109.4,86.76,106.14Zm69.11,16.66A52.12,52.12,0,0,1,174,126.05a8.28,8.28,0,0,1,4.06,2.59,3.33,3.33,0,0,1,.54,2.47,2,2,0,0,1-.85,1.36,4.63,4.63,0,0,1-3.13.25c-13.9-2-25.71-2.7-38.2.52-11.7,3-18.52,7.69-28,19.8a53.78,53.78,0,0,1,25.76-25.57A52.21,52.21,0,0,1,155.87,122.8ZM111,78c1.41-4.88,2.87-9.9,1.75-14.69,7.84,6.72,12.34,18,12.11,30.76-.22,12.25-4.31,24-8.26,35.37a10.89,10.89,0,0,0-.7,4.57c-13.59-15.52-10.5-35.76-5.57-53.66C110.53,79.6,110.75,78.82,111,78ZM69.82,114.09C87.27,135.81,96,160.68,94.7,185c-.25,1.25-.47,2.51-.68,3.78C85,183.7,78.16,174.69,75.25,163.83c-2-7.43-2.08-15.44-2.16-23.18C73,131.69,72.9,122.47,69.82,114.09Zm73.57,30.46A31.78,31.78,0,0,1,159,148.46c-13.85,4.56-28.09,9.37-40.47,17.64-11.59,7.76-20,18-24,29,2.28-15.48,8.77-28.87,18.65-38.24C120.72,149.73,132.11,144.55,143.39,144.55Zm-84.64-7.67c-.81,14.8,7,28.82,13,38.21A110.15,110.15,0,0,0,79,184.9c5.53,6.89,10.77,13.43,13.22,23.88,0,.37,0,.73,0,1.1-8.71-5.61-17.07-11.3-24.12-18.28C59.75,183.3,54.31,174,52.4,164.75,50.28,154.44,52.71,143.94,58.75,136.88ZM166.41,160a93.17,93.17,0,0,1-42.12,34.72c-2.33,1-4.78,1.86-7.15,2.73-7.19,2.64-14.58,5.35-20.32,10.16C112.51,184.24,138.07,166.69,166.41,160Zm81.35,165.66c-8.78.07-17.86.14-24.55-5-4.19-3.24-7.2-8.59-8.46-15.07a58.66,58.66,0,0,1-.78-12.84l1.53-.52a12.64,12.64,0,0,0,6.85,6.87,34.21,34.21,0,0,0,10.06,2.15l2.13.25c1.15.14,2.35.33,3.58.56,6.72,1.3,14.28,4.18,18.43,10.45.2.31.41.61.59.93a.61.61,0,0,0,.53.3.51.51,0,0,0,.29-.08.59.59,0,0,0,.23-.81c-4.85-8.42-15.13-11.44-23.07-12.49l-.43-.06-2.15-.24c-3.29-.37-6.69-.74-9.71-2.06a11.27,11.27,0,0,1-6.27-6.38v-.19c0-.55,0-1.09-.06-1.63a1.62,1.62,0,0,1,0-.22,10.75,10.75,0,0,0,1.31.49c3.53,3,8.35,2.08,13,1.19,1.27-.24,2.46-.47,3.64-.63,9.77-1.27,20.63,4.09,27.65,13.67,6.07,8.28,9,18.34,11.07,28.17-6-5.9-15.38-6.8-23.31-6.8h-2.09Zm-93.93-129.1c5.64-7.54,15.73-11.65,24.76-10,7.92,1.42,14.33,6.69,19.47,10.92,5.41,4.46,11,9.06,17.8,10.48a17.18,17.18,0,0,0,13.72-3.09l.49-.4-.43-.47c-8.56-9.3-14.43-14.65-27.44-25.7,3.43-3.9,6.79-8,10.34-12.39,3.35-4.11,6.81-8.37,10.6-12.75l.29-.34,1.73-2c1.73,1.31,3.37,2.53,4.94,3.7l1.17.88-.22-1.45c-.12-.77-.21-1.52-.26-2.25a22.73,22.73,0,0,1,.29-6.17c1.08-5.65,5.49-11.26,11-12.75a10.92,10.92,0,0,1,4-.31c4.09.45,7.87,3.29,10.12,7.6.17.33.33.66.48,1,.06.12.11.25.16.37s.2.47.29.72.11.3.17.45.17.47.25.72l.15.49c0,.14.09.28.13.43l-.06,0a7.71,7.71,0,0,0-1.07.43l-.2.12a5.19,5.19,0,0,0-.94.64,6.37,6.37,0,0,0-.74.73c0-.09,0-.17-.07-.26s-.09-.31-.13-.46c-.09-.33-.19-.65-.29-1-.05-.16-.1-.32-.16-.47-.1-.31-.21-.6-.33-.88l-.15-.38c-.17-.39-.34-.77-.53-1.14-1.72-3.29-4.5-5.45-7.45-5.77-5.39-.58-10.27,5-11.29,10.29-.67,3.5-.33,7.28,1.11,12.26l.05.19.17.12c8.06,5.94,14.41,10.37,22.65,15.77l1.12.75-.35-2.32.14,0c.5.15,1,.29,1.55.42a9.84,9.84,0,0,0,1.14.21l.36,0,.39,0,.64,4.08.22.15,2.41,1.55-10.93,12.75-1,1.13-1,1.22-1,1.19-14.58,17c-1.69-1.92-3.26-3.69-4.73-5.33l-.39-.43-.45.37a17.35,17.35,0,0,1-4.22,2.6c-.61.27-1.24.51-1.9.73l-.24.07c-.52.15-1,.29-1.56.41a21.34,21.34,0,0,1-8.85.14c-7.62-1.59-13.81-6.69-19.28-11.19-5.94-4.89-11.38-9-17.9-10.2a22.62,22.62,0,0,0-19.75,6.78,21.43,21.43,0,0,0-1.53,1.76l-.07.09-1.42-1-1.38-1Zm99.93-75.46h0a1.45,1.45,0,0,0,.15.21h0l.2.23c2.28,2.58,4.85,5.16,8.14,6.55.47.19.95.36,1.43.5.15.05.31.08.46.12.34.09.68.17,1,.23s.39.06.59.09.62.08.94.1.44,0,.66,0c.42,0,.85,0,1.29,0h.38c3.41-.22,7.34-1.72,11.7-4.44,1.34-.84,2.72-1.8,4.09-2.84.36-.27.75-.59,1.15-.91,1.22-1,2.48-2.08,3.07-2.6h0l.75.26.15,0c1.59.13,3.49.23,5.7.35a156.56,156.56,0,0,1,18.24,1.68l-.15,0-.63.18-.38.12-.68.23-.38.13-.77.3-.33.13-1.15.48c-11.46,5.09-10.71,26.92-9.22,39.54-.08.56-.11,1.09-.14,1.55s-.05.73-.07,1l-.37-.29-.26-.21-.1-.08-.23-.17-.11-.08-.35-.22-.08,0a2.75,2.75,0,0,0-.3-.14l-.13-.06-.3-.09-.12,0a2.34,2.34,0,0,0-.38,0h0a2.27,2.27,0,0,0-.35,0,.9.9,0,0,0-.16,0,2,2,0,0,0-.52.24,4.41,4.41,0,0,0-1.14,1.08c-3-2-5.79-3.65-9-5.52l-1.86-1.1-.67-.39-1.25-.75c-.32-.18-.65-.38-1-.58l-1.07-.64-1.06-.66c-.34-.2-.67-.4-1-.62v-1.41l-9-3.89.06,2.73-.84-.49a12.06,12.06,0,0,0-2.84-4.85,7.32,7.32,0,0,0-.66-.59l-.28-.2c-.15-.1-.3-.21-.47-.31l-.37-.2c-.15-.07-.29-.15-.44-.21a3.34,3.34,0,0,0-.44-.17l-.43-.16-.47-.12-.44-.1-.49-.08-.45,0c-.16,0-.33,0-.49,0h-.48l-.45,0-.22,0c-.05-.18-.11-.34-.16-.5s-.11-.36-.17-.53-.17-.51-.26-.76l-.17-.48c-.1-.26-.21-.52-.32-.77s-.1-.25-.16-.38c-.16-.37-.34-.73-.52-1.07-2.43-4.67-6.56-7.75-11.05-8.24-8-.86-14.91,6.55-16.33,14a24.55,24.55,0,0,0-.23,7.41l-4.24-3.18-.45-.33-.36.41c-.56.62-1.09,1.24-1.63,1.86-1.17-5.37-1-9.53.51-12.38,6.3-11.88,19.28-15.63,26.45-16.81a5.89,5.89,0,0,0,1.17-.29C251.8,121.75,253.08,121.33,253.76,121.11Zm70,3.14a12.37,12.37,0,0,0,1.22,1.13h0a1,1,0,0,1,.16.2h0c1,1.49,2.85,7.89,4.28,17.26h0c.94,6.16,2.38,18.08,1.43,28.64-.06.65-.14,1.32-.22,2,0,.13,0,.25,0,.38h0a33.94,33.94,0,0,0-8.18-.05,184.62,184.62,0,0,0-38.83,7.73l-2.41.76-.77.25h0l-.28-.23-.25-.2-.55-.46-.43-.37-.68-.62-.23-.21h0l.26-25,.88.53.77.47,1.33.81.68.4,1.48.88.39.23,1.77,1c3.35,2,6.25,3.67,9.42,5.81l.5.34.34-.52a3.91,3.91,0,0,1,1.12-1.21c.58-.37,1.2.08,2,.75.57.46,1.21,1,1.81.54s.52-1,.58-2.07c0-.46.07-1,.15-1.53v-.16c-1.45-12.28-2.28-33.59,8.51-38.38a21.56,21.56,0,0,1,7.21-2c3.51-.19,5.12,1.42,6.57,2.87ZM289.45,284.78c-11.2,6.81-23.88,9.14-34.79,6.4A77.22,77.22,0,0,1,245,287.8a72.08,72.08,0,0,0-10.31-3.56,24.45,24.45,0,0,0-5.6-.69,28,28,0,0,0-9.82,2l-.66.59c.12-.17.25-.33.38-.49A360.33,360.33,0,0,1,317.1,199c.93-.56,1.85-1.14,2.79-1.68a.61.61,0,0,0,.21-.83.6.6,0,0,0-.82-.21,361.45,361.45,0,0,0-99.5,86.51,10.18,10.18,0,0,0-.61-4.75c-1.42-3.81-4.68-6.45-7.61-8.37l-.85-.56-.18-.11-.91-.55-1.09-.67a33.06,33.06,0,0,1-7.56-5.57,17.7,17.7,0,0,1-4.39-9.91c0-.28-.06-.57-.08-.85s0-.54-.06-.81a25.91,25.91,0,0,1,2-11.17c3.24-7.62,9.38-13.53,15.54-18.78q5.13-4.38,10.54-8.39c.56-.13,1.11-.28,1.66-.45a19.66,19.66,0,0,0,6.08-3.18c1.49,1.67,3.08,3.46,4.8,5.41l.45.52,17.34-20.22a195.6,195.6,0,0,1,25.57-10.59A183.17,183.17,0,0,1,322.47,175a31.51,31.51,0,0,1,8.4.12l.95.19,0-.3a12.38,12.38,0,0,1,2.59,1.06c3.59,2,9.12,7.84,5.82,24.08a160,160,0,0,1-25.18,59C306.91,270.87,298.53,279.26,289.45,284.78Zm-22.17-106-2.76-1.77-.54-3.46.25-.07.38-.11a4.12,4.12,0,0,0,.58-.23,2.59,2.59,0,0,0,.33-.17,3.36,3.36,0,0,0,.54-.39l.25-.19a5.14,5.14,0,0,0,.68-.78l2.82,1.44.05,2.46,5.89,4.38.05,0c.41.46.85.9,1.31,1.33l.3.29c.34.32.69.63,1,.94l.43.36.09.08-.33.12c-1.76.6-3.52,1.23-5.26,1.88l-.06,0c-5.59,2.1-11.11,4.45-16.5,7.05l0,0,1-1.11,10-11.71Zm-14.68-9.63,0,0-.44-.31-1.94-1.32-.72-.5-1.78-1.23-.57-.4c-1.6-1.11-3.2-2.25-4.83-3.42l-.42-.31c-.74-.52-1.48-1.06-2.23-1.61l-.3-.22c-.88-.63-1.76-1.28-2.68-1.95a31.31,31.31,0,0,1-1.32-7.67c0-.45,0-.89,0-1.32a18.52,18.52,0,0,1,.29-2.51c.92-4.84,5.29-9.85,10-9.33,2.55.28,5,2.2,6.51,5.14q.28.54.54,1.14c.05.13.1.27.15.39.11.29.22.57.32.87s.12.39.18.59.17.53.25.82l.18.71c.06.25.12.48.18.74h0a60.16,60.16,0,0,1-.67,1.3c-.12.28-.22.57-.32.85s-.19.47-.26.71-.17.62-.25.93-.13.48-.19.73-.12.66-.18,1-.09.49-.13.74-.09.7-.13,1.05-.07.47-.09.71-.06.72-.09,1.07,0,.45-.05.67c0,.38-.05.74-.06,1.11,0,.19,0,.39,0,.58,0,.54,0,1.07-.06,1.57s0,.92,0,1.36c0,.12,0,.24,0,.36,0,.31,0,.61,0,.9,0,.14,0,.28,0,.42s0,.51,0,.75,0,.28,0,.42,0,.45,0,.66l0,.39c0,.22.06.42.1.63s0,.22,0,.33.11.46.17.68l.06.2a7,7,0,0,0,.31.8l.09.16a5.3,5.3,0,0,0,.33.57.25.25,0,0,0,0,.07Zm4.68,3.13.64.23,0,.22-.69-.45Zm1.36-.8c-6.11-2-6.3-4.05-6-11,.15-4,.36-9.39,2.46-12.63a7.15,7.15,0,0,1,1.31-1.53,5.28,5.28,0,0,1,2.36-1.11,6.31,6.31,0,0,1,.76-.1h.77l.26,0,.54.05.23,0a6.08,6.08,0,0,1,.74.16l0,0a5.3,5.3,0,0,1,.67.23l.22.1.46.22.22.13c.15.08.28.18.42.27l.18.13a5.8,5.8,0,0,1,.52.47,10.93,10.93,0,0,1,2.63,4.58l.06.24,1.89,1.1.43,18.81-3.23-1.64-.28.49a4.32,4.32,0,0,1-.57.79,3.85,3.85,0,0,1-.63.53,3.45,3.45,0,0,1-1.09.48l-.29,0c-.14,0-.27.05-.42.06a6.89,6.89,0,0,1-2.08-.23C260.29,172,259.47,171.78,258.64,171.52Zm18.09,7.64-.22-.16h0l-5.45-4.08,0-1.23h0l-.47-20.36-.06-2.72,6.51,2.82ZM158.17,238.33a62.42,62.42,0,0,1-.84-38.7,21.43,21.43,0,0,1,20.44-8.53c6.23,1.12,11.54,5.17,17.35,9.94,5.57,4.59,11.89,9.79,19.79,11.44a21.94,21.94,0,0,0,7,.27q-4.44,3.38-8.69,7c-6.27,5.35-12.53,11.38-15.86,19.22a27.12,27.12,0,0,0-2.13,10.69,50.87,50.87,0,0,0-14.16-7.5,72.1,72.1,0,0,0-22.74-3.44Zm59.91,46.19a4.9,4.9,0,0,1-1.82,2.12h0a52.84,52.84,0,0,0-3.77-14.89,15.35,15.35,0,0,1,5.55,6.69A8,8,0,0,1,218.08,284.52Zm-65-87,1.88,1.33,1.07.76a63.49,63.49,0,0,0,.7,38.3c-11.09.18-22.41,2.12-34,4.27l-5.21,1C128.65,224.67,143,208.37,153.12,197.54Zm-31.23,46.77.62-.12c17.46-3.23,39.2-7.26,58.16-.89a50.2,50.2,0,0,1,14.61,7.93A19.14,19.14,0,0,0,200.09,263a33.91,33.91,0,0,0,7.82,5.78c.73.44,1.45.87,2.16,1.32l.54.35a51.46,51.46,0,0,1,4.21,14.41c-8.46-9.84-22.73-15.9-40-16.78-9-.46-18,.31-26.82,1.05-2.16.18-4.35.37-6.55.54-5,.38-10.12.68-15.16.64-13.36-.07-31.59-2.82-43.18-15.4l-.6-.66a.6.6,0,0,0-.85-.06.61.61,0,0,0-.06.85c11.85,13.49,30.84,16.4,44.68,16.47,6.26.07,12.59-.41,18.78-.93l3-.25c8.73-.74,17.76-1.51,26.65-1,17.73.91,32.25,7.35,40.31,17.77l.08.13h0l.24.61.17.45a1,1,0,0,0,0,.17l-.37-.09v0c0,.16,0,.31,0,.47a1.48,1.48,0,0,0,0,.21c0,.65.08,1.3.09,2l-.16.05-1.16.39-.61.21-.61.2c-31.4,10.62-58.25,13.53-82,8.85-30.3-6-54.9-26.15-66.05-54.07,10.32,2.75,21.11,2.78,32,1.64l1.2-.14C106,247.25,114,245.77,121.89,244.31Zm115.68-178a16.05,16.05,0,0,0,6.85-1.08l1-.4-.89-.64A4.31,4.31,0,0,1,243,62.06c2.37.4,4.92.7,9.77-1.17C258,58,274,49.29,291.61,68.35c4.63,5,4.9,11.4,4.3,15.87-1.15,8.67-6.48,17.55-10.57,20.11-.55.39-1.08.76-1.6,1.1l.08-.46-.62-.08-1.16-.18c-4.74-.86-10.62-3.49-12-8.06a6.57,6.57,0,0,0,4.66-3.11,6.66,6.66,0,0,0-.58-7.28,5.48,5.48,0,0,0-3.93-2.14,4,4,0,0,0-3.84,2.28.5.5,0,0,0,.92.39,3,3,0,0,1,2.87-1.67,4.5,4.5,0,0,1,3.2,1.76A5.7,5.7,0,0,1,273.8,93a5.56,5.56,0,0,1-4.8,2.69,4.24,4.24,0,0,1-.71,0,.51.51,0,0,0-.56.43.5.5,0,0,0,.42.56c.21,0,.42,0,.63,0,1.41,5.26,7.88,8.23,13.05,9.17l.61.1c0,.2-.06.4-.08.6h0l-.15,1.25,0,0a31.53,31.53,0,0,0,.05,5.13l0,.14c.46,1.37,1.09,2.72,3.7,4,.41.2,1.1.51,1.76.78l-1,.84c-.55.47-1.1.94-1.66,1.39l-1,.81c-1.34,1-2.69,2-4,2.77-4.19,2.62-7.93,4.05-11.13,4.26h-.36a13.36,13.36,0,0,1-5.87-1c-.38-.16-.74-.33-1.1-.52l-.37-.22-.67-.4-.42-.29c-.19-.13-.39-.26-.57-.4l-.43-.34-.53-.42c-.14-.12-.28-.24-.41-.37s-.34-.29-.5-.45-.27-.25-.4-.38l-.49-.48-.36-.38-.51-.53c-.1-.11-.2-.23-.31-.34l-.27-.3.12,0c.23-.09.46-.2.69-.31,2.88-1.39,4.31-3.23,4.13-5.33l-.07-.24a4.15,4.15,0,0,0-1.38-1.47l.16,0,.55-.16c.32-.09.64-.18.94-.28l.55-.2.8-.33.52-.25.71-.38.46-.28a7.17,7.17,0,0,0,.63-.45l.4-.3c.2-.17.39-.34.57-.52s.22-.21.32-.32.36-.42.53-.64.16-.19.23-.29a9,9,0,0,0,.62-1c2.29-4.49.12-9.7-.6-11.19-1.31-2.7-1.15-7.29-1-9.31,0-.61.09-1,.09-1l.1-.8-4.26.75s0,0,0-.06a9.32,9.32,0,0,0,.45-.83c0-.06,0-.11.07-.17a8.93,8.93,0,0,0,.37-1s0-.1,0-.15c.11-.35.21-.7.29-1.07v0c.08-.37.15-.74.2-1.11a.59.59,0,0,1,0-.13c0-.36.07-.71.09-1.06a1.09,1.09,0,0,0,0-.18c0-.34,0-.67,0-1,0,0,0-.11,0-.16a8.75,8.75,0,0,0-.08-.92s0-.07,0-.11c0-.29-.11-.58-.18-.83a2.88,2.88,0,0,0-.64-1.17l.63-.54-1.68,0c-4.41.13-12.14-1.43-15.9-3.65a6.83,6.83,0,0,1-1.06-.72l-.57-.49-.35.67c-.16.31-.32.62-.47.94,0-.28,0-.58,0-.89l0-.51-.5-.11A6,6,0,0,1,237.57,66.27Zm11.4,48c-3.14.3-3.39-.19-4.44-2.26-.17-.33-.35-.69-.56-1.08-1.28-2.36-1.45-5.87-1.47-7,1.18-.21,2.3-.37,3.37-.53,4.64-.67,8.3-1.2,11.57-4.15.24-.22.46-.46.68-.7l.19-.24c.14-.18.28-.35.4-.53l.2-.3a5.64,5.64,0,0,0,.31-.53l.18-.32.27-.55c0-.11.09-.21.14-.32l.24-.62c0-.09.07-.18.1-.26a18.63,18.63,0,0,0,.49-1.8c0-.08,0-.15.05-.22q.06-.34.12-.66a2.51,2.51,0,0,0,0-.27l.09-.58,0-.27.06-.54a1.64,1.64,0,0,1,0-.23l0-.55a.86.86,0,0,0,0-.16c0-.45,0-.85,0-1.17V88l3-.54h0c0,.06,0,.13,0,.19s0,.16,0,.25,0,.14,0,.22,0,.21,0,.32,0,.17,0,.25,0,.26,0,.39a2.26,2.26,0,0,1,0,.26c0,.16,0,.34,0,.51V91c0,.19,0,.38,0,.58s0,.18,0,.28l0,.54c0,.1,0,.19,0,.29l.06.6a2,2,0,0,0,0,.23c0,.28.07.55.11.82a.68.68,0,0,0,0,.14l.12.67.06.26c0,.18.09.36.13.53s0,.19.08.28.1.34.16.51.06.16.08.23a7.37,7.37,0,0,0,.3.7c.46,1,2.7,6,.61,10.12-1.34,2.63-4.21,4.35-8.52,5.12l-2.69.48c-2.47.44-4.32.73-5.65.86Zm-10.14-13.4a2,2,0,0,1,0-1.88l.69-1.6c2.62-6,3.16-7.3,2-10.81-.63-1.94-.54-6.16,1.16-10.83a24.37,24.37,0,0,1,1-2.35c.18.12.38.25.62.39,3.9,2.3,11.41,3.81,16,3.81h.45c.19,0,.41.31.56.81.66,2.16-.05,7.23-1.94,8.61l-1.27.93,1.56.16h.18s0,.08,0,.13v.11c0,.11,0,.23,0,.36v.13c0,.17,0,.35,0,.53v0c0,.21,0,.44,0,.67a.49.49,0,0,0,0,.12l-.06.59,0,.24c0,.17,0,.35-.07.52s0,.19,0,.29-.07.35-.1.52l-.06.3c0,.19-.09.39-.13.59l-.06.24c-.08.27-.16.55-.25.83a1.21,1.21,0,0,1-.05.14c-.08.22-.16.45-.25.67l-.12.27a5.05,5.05,0,0,1-.24.53l-.16.29c-.09.16-.18.32-.28.48s-.11.19-.18.28-.23.31-.35.47l-.17.22a7.23,7.23,0,0,1-.61.63c-3,2.7-6.49,3.21-10.93,3.86l-1.83.27-.76.12-1.11.18a2.23,2.23,0,0,0-1.2-.61A2.8,2.8,0,0,1,238.83,100.82Z"/><path class="cls-1" d="M243.85,82.8a.83.83,0,0,0,.4-.11,13.71,13.71,0,0,1,8-.46.8.8,0,1,0,.54-1.51c-2.57-.92-7.51-.44-9.31.57a.81.81,0,0,0,.39,1.51Z"/><path class="cls-1" d="M254.49,103.4a.79.79,0,0,0-1.13-.05,10.13,10.13,0,0,1-6.66,2.92.81.81,0,0,0,0,1.61h0a11.76,11.76,0,0,0,7.67-3.34A.79.79,0,0,0,254.49,103.4Z"/><path class="cls-1" d="M250.35,88a14.26,14.26,0,0,0-3.31-.39h0a.8.8,0,1,0,0,1.6,13.34,13.34,0,0,1,2.94.35.55.55,0,0,0,.18,0,.78.78,0,0,0,.78-.61A.79.79,0,0,0,250.35,88Z"/><path class="cls-1" d="M241.28,100.77c.17-.11.45,0,.9.17a4.19,4.19,0,0,0,1.5.35,2.3,2.3,0,0,0,.75-.12.44.44,0,0,0,.29-.55.43.43,0,0,0-.55-.28,2.46,2.46,0,0,1-1.67-.22,1.79,1.79,0,0,0-1.69-.09.44.44,0,0,0,.47.74Z"/><path class="cls-1" d="M266.74,134.73c.55,0,1.1,0,1.65-.08,5.68-.57,14.12-3.08,22.07-11.8a.77.77,0,1,0-1.13-1c-7.62,8.37-15.67,10.77-21.09,11.31-7.69.77-13.1-4.48-16.29-9a.76.76,0,0,0-1.06-.19.77.77,0,0,0-.19,1.07C255.2,131.39,260.72,134.73,266.74,134.73Z"/><path class="cls-1" d="M267.5,93.18a.59.59,0,0,0,.25-.07l0,0a2.47,2.47,0,0,0,1.17-1.94,2.6,2.6,0,0,0-.64-1.85,2.47,2.47,0,0,1,.88-1,1.92,1.92,0,0,1,1.5-.25,1.84,1.84,0,0,1,1.24,2,.5.5,0,0,0,1,.19A2.81,2.81,0,0,0,271,87.11a2.89,2.89,0,0,0-2.3.36,3.67,3.67,0,0,0-1.42,1.76l-.13.33.28.24a1.58,1.58,0,0,1,.56,1.28,1.47,1.47,0,0,1-.6,1.09.7.7,0,0,1-.1.08.5.5,0,0,0,.26.93Z"/><path class="cls-1" d="M263.09,72.93a20.41,20.41,0,0,0,3-.19.49.49,0,0,0,.41-.57.5.5,0,0,0-.57-.42c-5.74.89-18.94-1.54-22-4.62a.5.5,0,0,0-.71,0,.49.49,0,0,0,0,.7C246.3,70.92,256.62,72.93,263.09,72.93Z"/><path class="cls-1" d="M284.67,94.68a.51.51,0,0,0,.33.13.5.5,0,0,0,.34-.87c-6.62-6-7.29-14.64-6.64-18.8a.51.51,0,0,0-.42-.57.51.51,0,0,0-.57.42C277.52,76.19,276.13,86.93,284.67,94.68Z"/><path class="cls-1" d="M292.26,86.1a.5.5,0,0,0,.44.55h.06a.5.5,0,0,0,.49-.44c.57-4.81,0-12.11-3.54-16.87a.49.49,0,0,0-.7-.11.5.5,0,0,0-.1.7C292,74.18,292.84,81.11,292.26,86.1Z"/><path class="cls-1" d="M254.53,62.58c8.79-3.47,16.87-2.77,20.6,1.77a.48.48,0,0,0,.7.07.5.5,0,0,0,.07-.7c-4-4.88-12.54-5.7-21.74-2.07a.5.5,0,0,0,.37.93Z"/><path class="cls-1" d="M251.32,65.9c4.3,2,13.57,2.62,19.29,2.62h1.32a.49.49,0,0,0,.49-.51.51.51,0,0,0-.5-.49h0c-5.82.13-15.92-.58-20.18-2.52a.5.5,0,1,0-.41.91Z"/><path class="cls-1" d="M297.88,309.27a4.32,4.32,0,0,0-1.29-.87,5.19,5.19,0,0,0-1.5-.41,11.41,11.41,0,0,0-1.66-.07l-2.82.08c-.4,0-.79,0-1.19,0a5.39,5.39,0,0,1-1.14-.15,2.62,2.62,0,0,1-1-.43,2.25,2.25,0,0,1-.72-.91,2.31,2.31,0,0,1,0-2.17,4,4,0,0,1,1.93-1.68,5.52,5.52,0,0,1,2.28-.55,6.53,6.53,0,0,1,2.21.37l.5-1.89a7.69,7.69,0,0,0-2.83-.48,7.25,7.25,0,0,0-3,.71,6.93,6.93,0,0,0-1.93,1.29,5.55,5.55,0,0,0-1.22,1.68,4.71,4.71,0,0,0-.43,1.91,4.18,4.18,0,0,0,.41,1.92,4.29,4.29,0,0,0,1.05,1.46,4.55,4.55,0,0,0,1.34.84,5,5,0,0,0,1.48.35,12.38,12.38,0,0,0,1.47.06l2.85-.07,1.33,0a4.47,4.47,0,0,1,1.14.17,2.43,2.43,0,0,1,.93.48,2.79,2.79,0,0,1,.71,1,2.67,2.67,0,0,1,0,2.37,4.33,4.33,0,0,1-2.21,1.93,6.23,6.23,0,0,1-2.75.58,7.47,7.47,0,0,1-2.78-.53l-.58,2.05a8.7,8.7,0,0,0,6.94-.25,7.67,7.67,0,0,0,2.18-1.45,5.76,5.76,0,0,0,1.3-1.83,4.78,4.78,0,0,0,0-4.05A5.12,5.12,0,0,0,297.88,309.27Z"/><polygon class="cls-1" points="306.84 289.35 304.7 290.85 303.75 302.71 303.69 302.75 298.42 295.27 296.53 296.6 307.03 311.52 308.92 310.2 305.59 305.46 306.04 300.63 315.95 305.25 318.07 303.76 306.18 298.32 306.84 289.35"/><path class="cls-1" d="M312.23,284.29l8.21,17.43,1.7-1.64-2.59-5.22,4.79-4.61,5.1,2.81,1.78-1.72-17.11-8.86Zm2.25.46,2.8,1.61c.91.53,1.85,1,2.79,1.54l2.55,1.41-3.95,3.8-1.3-2.6q-.71-1.45-1.44-2.85c-.48-.94-1-1.88-1.53-2.84Z"/><path class="cls-1" d="M332.47,278.44a10,10,0,0,0,1.42-2.36,6.24,6.24,0,0,0,.51-2.32,4.67,4.67,0,0,0-.53-2.17,6.7,6.7,0,0,0-3.95-3.11,4.3,4.3,0,0,0-2.17.07,5.79,5.79,0,0,0-2,1.13,13,13,0,0,0-1.95,2l-3.23,4.08,14.32,11.32,1.43-1.81-5.67-4.49Zm-9.05-3.31,1.63-2.06a6.8,6.8,0,0,1,2.83-2.35,3,3,0,0,1,2.9.75,3.39,3.39,0,0,1,1.52,2.67,5.69,5.69,0,0,1-1.49,3.35l-1.69,2.14Z"/><path class="cls-1" d="M338.46,248.78l7.22,7.31,2.24,2.22c.69.67,1.42,1.41,2.2,2.23l-.05.09c-1.11-.21-2.14-.43-3.07-.65s-2-.46-3.08-.7l-10-2.19-1.19,2.17,18.81,3.68,1.3-2.36-13.2-13.87Z"/><polygon class="cls-1" points="356.79 247.97 350.7 245.38 353.41 239 351.59 238.23 348.88 244.61 343.6 242.37 346.82 234.81 345.02 234.05 340.91 243.73 357.7 250.87 361.93 240.94 360.11 240.16 356.79 247.97"/><path class="cls-1" d="M358.12,221.51a5,5,0,0,0-2.93-2.08,5.45,5.45,0,0,0-2.43-.26,4.15,4.15,0,0,0-1.9.78,5.58,5.58,0,0,0-1.45,1.68,12.09,12.09,0,0,0-1,2.38l-1.7,5.44,17.42,5.45.69-2.2-7.36-2.3,1-3.16,8.67-1.9.78-2.49-9,2.05A5.62,5.62,0,0,0,358.12,221.51Zm-1.57,5.4-.91,2.92-6.48-2,.91-2.92a6.22,6.22,0,0,1,1.67-2.91,2.75,2.75,0,0,1,2.76-.34,3.16,3.16,0,0,1,2.2,1.88A5.3,5.3,0,0,1,356.55,226.91Z"/><path class="cls-1" d="M369.1,206a7.82,7.82,0,0,0-2.51-2.2,12.85,12.85,0,0,0-3.68-1.33c-2.86-.58-5.19-.32-7,.8s-3,3.06-3.58,5.82l-.93,4.47,17.88,3.69.94-4.58a9.9,9.9,0,0,0,.13-3.69A7.2,7.2,0,0,0,369.1,206Zm-.81,6.56-.42,2.05-14.17-2.93.43-2a6,6,0,0,1,2.76-4.33,7.85,7.85,0,0,1,5.53-.49,8.2,8.2,0,0,1,5,2.66A5.9,5.9,0,0,1,368.29,212.56Z"/><rect class="cls-1" x="362.68" y="186.77" width="2.31" height="18.25" transform="translate(121.79 530.81) rotate(-82.44)"/></g></svg>