<svg width="347" height="326" viewBox="0 0 347 326" fill="none" xmlns="http://www.w3.org/2000/svg">
<g clip-path="url(#clip0)">
<path d="M10.1203 234.926C41.2989 320.826 185.098 349.249 259.486 306.057C360.864 247.189 378.036 47.6972 285.648 36.2468C188.604 24.2234 186.72 144.169 122.13 122.912C57.5405 101.655 -29.9384 124.551 10.1203 234.926Z" fill="#E5E0E8"/>
<path d="M316.929 130.512C315.61 129.791 314.186 129.281 312.71 129.001C312.777 127.98 312.826 126.887 312.863 125.742C313.719 116.158 312.795 104.572 311.327 94.9645C310.337 86.8865 308.927 80.0221 307.192 77.0357C307.03 76.7576 306.847 76.4914 306.647 76.2391C306.562 76.1078 306.459 75.9894 306.34 75.8874L306.325 75.8756C305.951 75.4584 305.539 75.0769 305.095 74.7358C303.554 73.1811 301.673 71.2437 297.574 71.4693C289.055 69.2838 277.365 69.2303 270.46 68.6893C270.535 68.5909 270.574 68.5364 270.574 68.5364L268.344 67.4929L268.354 67.465H268.275L268.237 67.4469L268.222 67.4618L265.251 67.2705C262.67 65.9703 261.452 64.4252 260.993 63.0577C260.787 60.8381 260.807 58.6032 261.055 56.3879C261.781 55.9259 262.766 55.2759 263.976 54.4194C270.964 50.0356 282.5 27.6566 270.778 14.9938C253.086 -4.13043 236.996 2.21437 228.494 6.87727C225.045 8.42311 221.18 8.78038 217.507 7.89304C217.715 9.30826 218.474 10.5837 219.619 11.4407C217.14 12.4255 215.385 12.5752 211.834 12.5506C211.834 12.5506 211.902 18.2325 217.18 19.5006C217.098 20.69 217.179 21.8852 217.422 23.0525C215.697 27.786 215.361 32.5687 216.173 35.0525C217.425 38.8771 216.693 40.003 213.301 47.8725C212.248 50.3178 214.149 51.8394 215.867 52.1387C216.143 52.181 216.403 52.2898 216.627 52.4556C216.85 52.6214 217.03 52.8393 217.151 53.0904C217.151 54.1596 217.257 58.3435 218.798 61.1972C220.518 64.3718 220.418 65.5159 224.771 65.0999C227.381 64.9667 229.976 64.6133 232.527 64.0435C233.26 63.9192 234.014 64.0277 234.682 64.3538C235.35 64.6798 235.899 65.207 236.252 65.8612C236.455 68.2777 234.292 69.9243 232.197 70.9315L231.405 71.0085L231.491 71.2523C231.154 71.3955 230.826 71.526 230.52 71.6372L230.215 71.2907L226.735 72.237L226.781 72.3097C220.091 73.3137 204.169 77.0924 196.924 90.7518C194.952 94.4673 195.138 99.6937 196.603 105.665C188.082 115.528 181.063 124.819 173.786 133.029C187.584 144.743 194.101 150.589 203.571 160.878C201.573 162.375 199.281 163.432 196.846 163.98C194.41 164.528 191.886 164.553 189.439 164.056C182.333 162.572 176.409 157.696 170.68 152.982C165.12 148.409 158.206 142.717 149.567 141.165C139.468 139.347 128.167 144.077 122.08 152.658L122.137 152.699C108.434 167.408 94.0418 184.363 82.9475 203.208C73.2248 205.132 63.3809 206.382 53.486 206.95C52.8167 202.378 52.3237 197.856 52.0201 193.359C51.8654 191.059 51.7624 188.772 51.7111 186.498C59.8468 178.21 72.2135 175.226 83.14 170.744C102.146 162.896 118.273 149.386 129.331 132.05C97.5136 139.107 68.7514 158.949 51.7047 185.564C51.6009 179.75 51.8426 173.934 52.4285 168.148C56.7503 155.162 66.6493 144.197 78.1467 136.504C91.6189 127.498 107.221 122.332 122.612 117.271C106.854 107.55 85.0913 112.86 71.6575 125.6C63.9111 133.139 58.1481 142.477 54.8813 152.781C57.4757 140.661 61.9787 129.031 68.2221 118.324C66.6799 121.03 65.3352 123.845 64.1986 126.745C76.1836 110.467 83.4757 104.962 97.0859 101.45C110.696 97.9391 123.775 98.8843 137.684 100.904C138.947 101.242 140.289 101.116 141.466 100.548C143.035 99.5237 143.057 97.0741 141.98 95.5419C140.766 94.0991 139.147 93.0536 137.333 92.5406C125.313 88.0409 112.115 87.7947 99.936 91.8431C87.7571 95.8915 77.3327 103.99 70.399 114.79C74.34 108.658 78.9613 102.991 84.175 97.8963C84.2911 97.7787 84.376 97.6339 84.422 97.4751C90.2033 94.6159 94.864 89.6344 98.2513 84.0894C102.179 77.6601 104.6 70.4482 107.065 63.3293C109.53 56.2104 112.113 49.0326 116.303 42.7691C96.4529 53.7437 82.6267 74.8994 81.6291 97.5638C79.7131 99.4884 77.8765 101.499 76.1194 103.595C75.0587 101.313 75.68 98.7592 76.2894 97.0067C80.5813 84.6625 84.9202 72.0627 85.1544 58.9957C85.3885 45.9287 80.8261 32.0768 70.3317 24.2929C72.8166 30.6013 70.1606 37.6015 68.36 44.1366C62.8952 63.9762 59.4202 86.6523 75.9868 103.757C71.5624 109.077 67.6827 114.827 64.406 120.921C65.2732 108.333 65.7757 95.5921 62.7038 83.3912C60.4987 74.8278 56.6054 66.7911 51.2522 59.7528C45.8991 52.7145 39.194 46.8164 31.5305 42.4045C38.4633 50.5809 41.4839 61.3619 43.1637 71.9505C44.8434 82.539 45.3877 93.3478 48.2532 103.679C50.9038 113.234 55.9089 122.604 62.49 124.643C58.3059 133.209 55.1425 142.236 53.0647 151.539C53.2443 123.369 41.1749 97.3617 23.3177 76.4883C32.0426 93.7884 25.8539 114.988 30.8665 133.705C33.8999 145.03 41.192 155.144 51.3165 160.784C50.3861 166.834 49.8415 172.938 49.686 179.057C45.3962 164.171 35.6 156.673 28.2629 145.234C20.1047 132.51 13.1141 117.948 14.6324 102.913C6.66879 111.039 4.13472 123.512 6.43036 134.655C8.72599 145.799 15.3413 155.682 23.4311 163.687C31.168 171.347 40.2543 177.48 49.6485 183.525C49.6599 186.819 49.7765 190.143 49.9982 193.496C50.2997 197.969 50.783 202.473 51.448 207.009C43.282 207.311 35.1174 206.371 27.2332 204.222C40.0896 237.72 68.5642 257.658 98.7934 263.622C128.197 269.424 159.288 263.535 187.56 253.892C187.249 258.945 187.518 264.017 188.362 269.008C189.595 275.339 192.54 281.566 197.647 285.505C205.371 291.464 216.044 291.056 225.799 290.997C235.555 290.938 246.606 292.141 252.567 299.863C250.229 288.33 247.088 276.618 240.131 267.127C233.175 257.637 221.628 250.725 209.961 252.256C203.973 253.043 197.023 255.693 192.513 251.675C192.545 251.752 192.064 251.574 191.324 251.267L191.367 251.213C191.476 251.189 191.579 251.145 191.673 251.085C191.804 250.996 191.911 250.876 191.984 250.736C192.058 250.597 192.096 250.441 192.095 250.283C192.613 249.61 193.142 248.945 193.666 248.276C198.858 246.375 204.497 246.061 209.868 247.373C217.192 249.098 223.875 252.951 231.169 254.785C243.893 257.981 257.652 254.678 268.858 247.87C280.065 241.063 288.971 231.004 296.444 220.231C309.647 201.185 318.84 179.656 323.468 156.949C325.411 147.403 325.413 135.285 316.929 130.512ZM191.038 248.448C190.521 247.731 189.979 247.032 189.412 246.349C188.748 241.447 187.438 236.654 185.516 232.095C188.617 234.223 191.475 236.835 192.775 240.323C193.404 242.071 193.525 243.961 193.126 245.776C192.427 246.664 191.731 247.554 191.038 248.446V248.448ZM148.696 146.037C155.51 147.262 161.261 151.638 167.538 156.804C173.443 161.662 180.133 167.168 188.432 168.902C189.907 169.206 191.409 169.357 192.915 169.354C195.37 169.352 197.809 168.969 200.147 168.219C195.772 171.414 191.524 174.77 187.404 178.286C180.66 184.043 174.09 190.445 170.617 198.602C169.128 202.11 168.37 205.885 168.388 209.697C163.595 205.912 158.191 202.972 152.41 201.002C144.208 198.381 135.625 197.152 127.018 197.367C122.268 183.86 121.96 169.188 126.14 155.495C131.166 148.44 140.44 144.552 148.701 146.035L148.696 146.037Z" fill="#E3DEE6" stroke="#E3DEE6" stroke-width="3.745" stroke-linejoin="round"/>
<path d="M268.028 68.4445C277.158 69.6302 302.255 68.5332 307.192 77.0357C312.13 85.5382 314.463 125.448 311.855 135.459C311.855 135.459 228.06 175.095 223.397 162.203C218.734 149.311 188.563 106.522 196.928 90.7507C206.231 73.2154 229.842 71.9622 229.842 71.9622" fill="#F49727"/>
<path d="M122.287 152.545C102.591 173.672 81.4335 199.441 70.6899 228.805C70.6899 228.805 83.5816 245.636 83.2234 256.02C83.2234 256.02 116.168 221.642 133.357 210.899C133.357 210.899 116.527 186.117 126.193 155.321L122.287 152.545Z" fill="#97D1DB"/>
<path d="M268.354 67.4618L264.778 67.2319L267.504 69.9424L268.354 67.4618Z" fill="#F49727"/>
<path d="M231.41 71.0074L234.623 70.6941L231.786 72.0766L231.41 71.0074Z" fill="#F7B361"/>
<path d="M264.185 54.2665C261.298 56.313 259.625 57.2604 259.625 57.2604L260.22 53.1503L264.185 54.2697" fill="#F49727"/>
<path d="M218.65 14.4795C217.844 15.9652 217.35 17.5994 217.197 19.2824C217.045 20.9654 217.236 22.6619 217.761 24.2683L221.534 18.333L218.65 14.4795Z" fill="#F49727"/>
<path d="M236.62 66.7968C236.424 65.8994 235.89 65.1123 235.128 64.5992C234.366 64.0861 233.435 63.8867 232.53 64.0425C225.73 65.2069 223.314 65.9874 220.769 63.2502C216.492 58.6525 218.94 52.6723 215.877 52.1377C214.155 51.8383 212.253 50.32 213.311 47.8715C216.702 40.002 217.435 38.8761 216.184 35.0514C214.566 30.1084 217.485 16.1004 226.853 11.4065C239.847 4.89601 256.47 6.00266 262.672 13.3761C269.36 21.3343 271.381 34.9413 264.141 47.0567C258.248 56.9139 261.789 68.9075 263.261 74.182C260.748 77.7179 257.156 80.344 253.024 81.6665C248.764 82.8986 244.26 83.0193 239.94 82.0173L236.62 66.7968Z" fill="#EEB685"/>
<path d="M218.804 19.7454C222.53 22.9863 234.752 25.3225 239.409 24.419C244.065 23.5155 241.034 32.156 243.341 33.1942C252.216 37.1909 246.442 45.3524 246.442 45.3524C247.816 51.1561 255.53 54.4911 261.603 55.17C267.675 55.849 283.975 29.2444 270.777 14.9863C250.557 -6.85695 232.437 4.54315 225.334 8.69176C214.203 15.183 218.804 19.7454 218.804 19.7454Z" fill="#F49727"/>
<path d="M225.993 37.2733C224.898 37.0146 223.778 36.8811 222.653 36.8755" stroke="#CB885C" stroke-width="1.605" stroke-miterlimit="10" stroke-linecap="round"/>
<path d="M219.246 30.0036C220.921 29.0595 225.897 28.527 228.492 29.4487" stroke="#CB885C" stroke-width="1.605" stroke-miterlimit="10" stroke-linecap="round"/>
<path d="M215.681 50.5745C216.508 50.0399 217.644 51.4299 219.162 50.9519" stroke="#CB885C" stroke-width="0.878" stroke-miterlimit="10" stroke-linecap="round"/>
<path d="M228.726 6.88263C218.796 12.0812 218.327 12.5987 211.832 12.5495C211.832 12.5495 211.894 19.3712 218.805 19.7412L228.919 12.834L228.726 6.88263Z" fill="#F49727"/>
<path d="M231.465 5.59528C223.734 9.26914 220.727 8.42659 217.503 7.89305C217.659 9.03696 218.189 10.0973 219.009 10.9094C219.83 11.7215 220.896 12.2398 222.041 12.3838L232.092 8.92592L231.465 5.59528Z" fill="#F49727"/>
<path d="M237.405 24.619C239.782 24.7002 239.246 33.7074 236.286 35.8598C236.286 35.8598 241.703 36.435 244.636 32.3078L245.544 26.5938L242.122 20.6639L237.405 24.619Z" fill="#F49727"/>
<path d="M242.563 34.7756C242.884 34.1077 243.396 33.5503 244.035 33.174C244.673 32.7976 245.409 32.6193 246.149 32.6617C246.896 32.7215 247.621 32.9386 248.278 33.2989C248.935 33.6592 249.508 34.1544 249.96 34.752C250.74 35.7646 251.21 36.9821 251.312 38.2566C251.415 39.5312 251.145 40.8079 250.535 41.9319C249.88 43.0171 248.923 43.8876 247.781 44.4367C246.639 44.9858 245.361 45.1896 244.105 45.023" fill="#EEB685"/>
<path d="M242.563 34.7756C242.884 34.1077 243.396 33.5503 244.035 33.174C244.673 32.7976 245.409 32.6193 246.149 32.6617C246.896 32.7215 247.621 32.9386 248.278 33.2989C248.935 33.6592 249.508 34.1544 249.96 34.752C250.74 35.7646 251.21 36.9821 251.312 38.2566C251.415 39.5312 251.145 40.8079 250.535 41.9319C249.88 43.0171 248.923 43.8876 247.781 44.4367C246.639 44.9858 245.361 45.1896 244.105 45.023" stroke="#CB885C" stroke-width="0.878" stroke-miterlimit="10" stroke-linecap="round"/>
<path d="M243.329 41.2786C243.619 41.1014 243.862 40.8573 244.038 40.5669C244.213 40.2765 244.317 39.9482 244.34 39.6096C244.357 39.2659 244.294 38.9231 244.156 38.6078C244.018 38.2925 243.81 38.0132 243.547 37.7919C243.797 37.1277 244.252 36.5601 244.846 36.1709C245.144 35.981 245.479 35.8544 245.828 35.7993C246.178 35.7441 246.535 35.7614 246.877 35.8502C247.447 36.0284 247.933 36.4057 248.247 36.913C248.561 37.4203 248.682 38.0238 248.588 38.613" stroke="#CB885C" stroke-width="0.878" stroke-miterlimit="10" stroke-linecap="round"/>
<path d="M260.848 62.5306C261.256 64.5001 263.2 66.9957 268.707 68.5845L259.345 75.6222L250.976 71.6158L260.848 62.5306Z" fill="#EEB685"/>
<path d="M236.254 65.704C236.846 70.3883 228.54 72.236 228.54 72.236L236.773 80.3621L245.301 80.8582L248.602 73.5447L236.254 65.704Z" fill="#EEB685"/>
<path d="M230.22 71.2897C234.505 76.2081 238.744 80.2883 246.16 79.8039C256.392 79.1357 268.237 67.4394 268.237 67.4394L270.574 68.5332C270.574 68.5332 261.527 80.9876 248.014 83.0651C234.501 85.1426 226.736 72.2359 226.736 72.2359L230.22 71.2897Z" fill="#F49727"/>
<path d="M217.16 52.8295C224.017 51.5956 229.092 51.7325 233.343 47.8929C237.594 44.0533 237.048 35.8929 237.048 35.8929L241.645 35.0696C241.645 35.0696 240.754 42.4751 242.674 46.4526C244.594 50.4301 247.543 61.1962 233.76 63.6672C219.976 66.1382 221.294 65.7832 218.811 61.1994C217.02 57.904 217.16 52.8295 217.16 52.8295Z" fill="#D8A178"/>
<path d="M222.327 56.8198C225.204 56.6762 227.93 55.4851 229.991 53.471" stroke="#CB885C" stroke-width="1.605" stroke-miterlimit="10" stroke-linecap="round"/>
<path d="M242.597 19.5722C236.425 20.5345 222.13 18.0261 218.646 14.4795" stroke="#E77A00" stroke-width="1.157" stroke-miterlimit="10" stroke-linecap="round"/>
<path d="M255.626 22.5896C254.94 26.9734 255.489 36.4414 262.896 43.1615" stroke="#E77A00" stroke-width="1.157" stroke-miterlimit="10" stroke-linecap="round"/>
<path d="M267.496 16.7869C271.198 21.8122 271.751 29.608 271.185 34.4441" stroke="#E77A00" stroke-width="0.579" stroke-miterlimit="10" stroke-linecap="round"/>
<path d="M252.746 10.7992C248.357 5.45307 239.167 5.17614 230.117 8.74201" stroke="#E77A00" stroke-width="1.157" stroke-miterlimit="10" stroke-linecap="round"/>
<path d="M248.905 15.0462C242.185 15.1841 231.626 14.3608 227.1 12.3036" stroke="#E77A00" stroke-width="0.579" stroke-miterlimit="10" stroke-linecap="round"/>
<path d="M49.8121 188.612C57.8239 178.668 71.3335 175.585 83.1485 170.739C102.15 162.891 118.275 149.382 129.331 132.05C96.3096 139.38 66.568 160.469 49.8121 188.612Z" fill="#028EA7"/>
<path d="M50.7006 174.981C53.3822 159.003 64.6786 145.511 78.1466 136.504C91.6146 127.497 107.221 122.333 122.612 117.271C106.854 107.55 85.0913 112.86 71.6575 125.6C58.2237 138.34 51.7378 156.787 50.7006 174.981Z" fill="#028EA7"/>
<path d="M64.1985 126.745C76.1835 110.467 83.4757 104.962 97.0859 101.45C110.696 97.9391 123.775 98.8843 137.684 100.904C138.947 101.243 140.289 101.116 141.466 100.548C143.034 99.5237 143.057 97.0741 141.98 95.5419C140.766 94.0991 139.147 93.0536 137.333 92.5406C123.329 87.3983 107.867 87.9507 94.2663 94.0792C80.856 100.201 70.0483 111.803 64.1985 126.745Z" fill="#028EA7"/>
<path d="M50.9124 184.343C47.6234 165.795 36.4211 157.954 28.2629 145.234C20.1047 132.515 13.1141 117.948 14.6324 102.913C6.66879 111.039 4.13472 123.512 6.43036 134.655C8.72599 145.799 15.3413 155.682 23.4311 163.687C31.5209 171.692 41.0658 178.026 50.9124 184.343Z" fill="#028EA7"/>
<path d="M52.5055 161.436C55.9816 129.477 43.2492 99.7868 23.3156 76.4883C32.0405 93.7884 25.8518 114.988 30.8644 133.705C34.0175 145.473 41.7576 155.946 52.5055 161.436Z" fill="#028EA7"/>
<path d="M64.1162 125.006C65.1235 111.106 66.1082 96.9137 62.7038 83.3944C60.4991 74.8305 56.6059 66.7932 51.2527 59.7543C45.8996 52.7154 39.1943 46.8167 31.5305 42.4045C38.4633 50.5809 41.4839 61.3619 43.1637 71.9505C44.8434 82.539 45.3876 93.3489 48.2532 103.679C51.1187 114.009 56.7311 124.137 64.1162 125.006Z" fill="#028EA7"/>
<path d="M76.2894 97.0067C80.5813 84.6625 84.9202 72.0627 85.1544 58.9957C85.3886 45.9287 80.8262 32.0768 70.3317 24.2928C72.8166 30.6013 70.1606 37.6015 68.36 44.1366C62.8428 64.1643 59.3422 87.0875 76.4498 104.25C74.9155 101.813 75.6222 98.9271 76.2894 97.0067Z" fill="#028EA7"/>
<path d="M81.5821 98.6758C88.6946 96.1931 94.3294 90.5165 98.2556 84.0873C102.182 77.658 104.605 70.4461 107.069 63.3271C109.534 56.2082 112.113 49.0326 116.303 42.7691C96.1289 53.9233 82.1659 75.5944 81.5821 98.6758Z" fill="#028EA7"/>
<path d="M58.0922 233.136C54.3712 220.178 51.9981 206.869 51.0107 193.423C48.6584 158.55 58.4162 121.532 83.4671 97.1575" stroke="#19254F" stroke-width="1.908" stroke-miterlimit="10" stroke-linecap="round"/>
<path d="M189.94 253.066C189.771 241.589 186.081 230.441 179.37 221.13C172.659 211.819 163.25 204.793 152.415 201.004C132.728 194.387 110.987 198.025 89.9092 201.93C68.8315 205.835 47.1733 209.949 27.2322 204.222C40.0896 237.72 68.5642 257.658 98.7934 263.622C129.023 269.586 161.039 263.196 189.94 253.066Z" fill="#5F4272"/>
<path d="M192.513 251.669C197.025 255.688 203.97 253.038 209.961 252.251C221.628 250.72 233.175 257.631 240.131 267.122C247.088 276.612 250.229 288.325 252.567 299.857C246.606 292.135 235.554 290.933 225.799 290.991C216.045 291.05 205.371 291.459 197.647 285.501C192.54 281.561 189.595 275.334 188.362 269.003C187.128 262.672 187.432 256.154 187.741 249.711C189.285 250.473 190.88 251.127 192.513 251.669Z" fill="#5F4272"/>
<path d="M189.909 251.462C189.829 255.846 193.36 259.604 197.378 261.355C201.397 263.105 205.883 263.325 210.234 263.864C219.812 265.052 230.066 268.59 234.878 276.957" stroke="#19254F" stroke-width="1.834" stroke-miterlimit="10" stroke-linecap="round"/>
<path d="M191.133 250.26C181.602 235.803 163.239 229.64 145.945 228.755C128.652 227.87 111.401 231.234 94.0878 231.145C76.7748 231.055 58.2227 226.761 46.7958 213.746" stroke="#19254F" stroke-width="1.834" stroke-miterlimit="10" stroke-linecap="round"/>
<path d="M281.508 124.293C281.508 124.293 272.82 81.1618 289.635 73.7018C301.594 68.3974 303.682 73.858 306.336 75.8873C308.99 77.9167 315.389 109.757 312.423 129.425L267.769 144.272C258.264 138.97 253.628 135.597 249.247 127.831L248.934 103.326C264.235 113.472 270.011 115.188 281.508 124.293Z" fill="#F6A646"/>
<path d="M188.775 251.29C192.838 249.788 194.286 244.374 192.775 240.321C191.265 236.267 187.655 233.39 183.992 231.089C180.328 228.788 176.373 226.787 173.445 223.604C167.442 217.082 167.151 206.762 170.623 198.604C174.095 190.445 180.664 184.042 187.41 178.288C219.863 150.586 260.738 132.486 303.248 128.8C307.9 128.397 312.861 128.226 316.934 130.516C325.418 135.289 325.416 147.41 323.479 156.948C318.851 179.655 309.657 201.184 296.455 220.23C288.976 231.003 280.071 241.059 268.869 247.869C257.667 254.679 243.899 257.981 231.18 254.785C223.881 252.95 217.203 249.097 209.879 247.372C202.554 245.648 193.715 246.671 188.775 251.29Z" fill="#5F4272"/>
<path d="M199.169 102.728C189.455 113.687 181.791 124.006 173.794 133.028C191.457 148.023 197.183 153.401 212.461 170.794L243.943 134.074C225.059 121.966 216.715 115.928 199.169 102.728Z" fill="#E83C65"/>
<path d="M209.128 157.524C206.099 164.923 196.599 168.076 188.943 166.478C181.288 164.879 175.066 159.788 169.115 154.892C163.165 149.996 156.846 144.987 149.138 143.597C139.943 141.945 129.665 146.25 124.107 154.086" stroke="#E83C65" stroke-width="4.629" stroke-miterlimit="10"/>
<path d="M210.458 117.936C208.301 111.627 206.115 104.977 207.394 98.2823C208.673 91.5879 214.749 85.0667 221.463 85.7991C225.604 86.2503 228.964 89.3211 230.854 92.9511C232.743 96.5812 233.402 100.747 234.035 104.835L238.59 134.222L235.849 134.082" stroke="#E83C65" stroke-width="4.629" stroke-miterlimit="10"/>
<path d="M242.065 99.0554C239.689 96.5769 234.922 96.0391 232.21 98.3636C228.512 101.533 228.175 108.191 227.958 113.961C227.652 122.039 227.802 124.678 237.617 127.119C247.431 129.56 244.788 115.241 245.412 108.276C245.541 106.59 245.309 104.895 244.732 103.305C244.154 101.715 243.245 100.267 242.065 99.0554Z" fill="#EEB685"/>
<path d="M190.164 251.152C220.326 211.647 257.883 178.386 300.744 153.22" stroke="#19254F" stroke-width="1.834" stroke-miterlimit="10" stroke-linecap="round"/>
<path d="M280.886 112.899C279.637 115.396 280.262 118.362 279.637 118.831C279.013 119.299 277.296 116.333 275.574 117.426C273.853 118.519 272.921 121.64 272.921 121.64L281.041 126.169L287.909 121.798L280.886 112.899Z" fill="#F6A646"/>
<path d="M244.963 104.188L250.674 107.526L249.251 127.832L241.451 123.858L244.963 104.188Z" fill="#EEB685"/>
<path d="M247.066 102.389L255.339 105.98L255.027 135.167L247.691 129.705L247.066 102.389Z" fill="#F7B76A"/>
<path d="M281.405 119.559C283.278 121.12 285.776 124.397 286.088 125.958" stroke="#F49727" stroke-width="0.896" stroke-miterlimit="10" stroke-linecap="round"/>
<path d="M273.913 120.496C275.005 123.148 274.381 129.08 274.069 130.012" stroke="#F49727" stroke-width="0.896" stroke-miterlimit="10" stroke-linecap="round"/>
<path d="M250.079 106.26L253.466 107.696" stroke="#F6A646" stroke-width="0.896" stroke-miterlimit="10" stroke-linecap="round"/>
<path d="M249.719 109.569L252.997 111.13" stroke="#F6A646" stroke-width="0.896" stroke-miterlimit="10" stroke-linecap="round"/>
<path d="M250.031 112.379L252.841 113.316" stroke="#F6A646" stroke-width="0.896" stroke-miterlimit="10" stroke-linecap="round"/>
<path d="M249.719 115.656L253.31 116.671" stroke="#F6A646" stroke-width="0.896" stroke-miterlimit="10" stroke-linecap="round"/>
<path d="M249.875 119.559L253.076 120.652" stroke="#F6A646" stroke-width="0.896" stroke-miterlimit="10" stroke-linecap="round"/>
<path d="M253.544 124.397L249.563 123.148" stroke="#F6A646" stroke-width="0.896" stroke-miterlimit="10" stroke-linecap="round"/>
<path d="M253.31 128.69L249.797 127.051" stroke="#F6A646" stroke-width="0.896" stroke-miterlimit="10" stroke-linecap="round"/>
<path d="M253.622 131.733L249.563 129.315" stroke="#F6A646" stroke-width="0.896" stroke-miterlimit="10" stroke-linecap="round"/>
<path d="M227.237 75.496C231.96 82.2183 238.137 86.2151 245.405 85.4891C252.672 84.763 261.031 81.3094 268.483 73.1352" stroke="#F8BA70" stroke-width="1.533" stroke-miterlimit="10" stroke-linecap="round"/>
</g>
<defs>
<clipPath id="clip0">
<rect width="346.135" height="326" fill="white"/>
</clipPath>
</defs>
</svg>
