<svg width="304" height="326" viewBox="0 0 304 326" fill="none" xmlns="http://www.w3.org/2000/svg">
<g clip-path="url(#clip0)">
<path d="M279.81 46.0882C256.31 13.8411 193.419 8.28557 167.598 27.2209C72.9592 96.6226 30.2014 35.5695 2.70817 139.977C-7.28327 177.92 10.6188 237.209 77.5058 265.815C83.0896 268.213 89.1002 269.46 95.1773 269.479C119.765 269.518 137.595 277.226 175.761 315.659C175.761 315.659 204.089 337.939 237.331 317.092C285.216 287.061 240.929 197.026 274.553 167.347C306.179 139.432 317.201 97.3998 279.81 46.0882Z" fill="#EAEBEF"/>
<path d="M236.393 211.248C259.116 200.316 224.66 83.7609 224.66 83.7609C224.66 83.7609 206.194 61.3375 199.158 56.9382C192.122 52.5389 174.977 58.6969 174.977 71.0079C174.977 83.3189 183.331 82.879 183.331 82.879C183.331 82.879 178.055 91.2336 185.973 93.8712C193.891 96.5088 204.88 96.9497 207.957 96.0699C207.957 96.0699 202.681 160.703 203.121 172.575C203.121 172.575 200.978 172.035 197.365 171.153C195.105 168.605 185.344 157.804 180.697 155.867C175.421 153.669 164.868 151.911 160.471 152.35C158.642 152.533 156.667 154.692 154.852 157.623L146.859 155.45L144.199 140.921L136.034 136.692C135.082 130.341 134.582 123.93 134.536 117.508C136.425 116.141 138.104 114.507 139.521 112.656L139.488 112.859C160.802 117.127 165.919 97.5583 166.873 89.4475C167.26 89.097 167.617 88.7154 167.941 88.3065C170.67 84.7657 170.903 80.1591 171.038 75.8299C171.141 72.5469 171.243 69.2641 171.342 65.9817C171.537 63.9254 171.335 61.8509 170.749 59.8704C169.341 56.0218 165.314 53.5783 161.78 51.1012C158.245 48.6242 154.689 45.2551 154.956 41.2114C155.141 38.4235 157.142 35.9962 157.667 33.2459C158.59 28.4036 154.59 23.6649 149.683 21.5862C147.062 20.5367 144.325 19.8034 141.53 19.4017C140.347 15.2026 136.883 11.8396 132.953 9.85124L128.685 6.86214C128.685 6.86214 123.782 3.8456 114.718 5.41534L111.798 4.93883L98.524 2.77778C94.9212 2.19052 91.2575 1.60124 87.6375 2.0747C82.4213 2.75746 77.7629 5.57587 73.3117 8.37396C69.4028 10.8327 65.5179 13.3284 61.6571 15.8609C57.7444 18.4274 53.8572 21.0314 49.973 23.6354C46.1121 26.2192 42.1202 28.9451 39.8129 32.9756C38.0105 36.1253 37.4019 39.8113 37.0554 43.4243C35.8606 55.983 37.4394 68.6508 41.6803 80.532C36.5697 80.8114 33.6071 87.2224 35.0833 92.1237C36.5596 97.0249 40.9345 100.449 45.3267 103.079C45.5452 103.21 45.7789 103.332 46.0024 103.46C44.0638 110.882 61.6439 119.048 77.0923 119.87C78.4213 120.882 79.9151 121.658 81.5079 122.162C86.1541 123.323 90.2201 119.258 90.2201 119.258L89.0355 117.451C89.1665 117.546 89.2885 117.654 89.4216 117.746L92.9939 121.799C92.8843 122.561 92.7323 123.316 92.5387 124.061C89.9336 123.312 88.3619 122.999 88.3619 123.333C88.3619 125.312 87.0411 139.162 87.0411 139.162C87.0411 139.162 79.7898 143.778 73.4093 158.947C63.1415 183.379 64.4684 228.269 74.5848 261.905C74.5848 261.905 78.2261 266.539 103.051 267.532C134.005 268.77 175.128 311.617 175.128 311.617C175.128 311.617 166.842 263.371 180.032 235.891C180.455 235.011 180.849 234.112 181.215 233.195L217.734 245.311C230.662 251.743 245.486 244.83 250.161 237.65C254.837 230.47 244.641 218.562 236.393 211.248ZM79.3143 103.023C78.7413 101.073 78.177 99.1219 77.6216 97.1712C77.6552 97.1712 77.6877 97.1712 77.7232 97.1621L75.2269 88.7292C74.0412 84.5737 72.8311 80.4172 71.5296 76.2617C71.5601 76.2231 71.5896 76.1886 71.6201 76.151L79.4758 103.118L79.3143 103.023ZM148.098 88.6215L150.565 79.5678C150.507 80.0657 150.426 80.5737 150.328 81.0918L148.098 88.6215Z" fill="#E3DEE6" stroke="#E3DEE6" stroke-width="3.745" stroke-miterlimit="10"/>
<path d="M167.065 86.752C167.065 91.3881 163.892 117.74 139.491 112.863L142.173 96.269L159.742 80.1632L167.065 86.752Z" fill="#19254F"/>
<path d="M131.888 134.544L144.199 140.92L147.057 156.528L117.222 153.792L131.888 134.544Z" fill="#19254F"/>
<path d="M91.6365 110.599C93.5882 121.336 94.0749 119.628 90.1724 131.833L139.709 152.575C136.781 145.254 134.307 128.023 134.551 116.066L101.885 112.555L91.6365 110.599Z" fill="#CA9F8C"/>
<path d="M219.823 246.003L173.437 230.615L175.635 200.277L208.831 207.971L219.823 246.003Z" fill="#0D1B3C"/>
<path d="M229.716 205.992C236.751 210.609 256.317 228.196 250.161 237.65C244.005 247.104 220.263 256.116 206.413 234.792C192.563 213.468 187.727 200.277 187.727 200.277L229.716 205.992Z" fill="#CA9F8C"/>
<path d="M76.0742 265.05C65.9619 231.414 63.1415 183.379 73.4093 158.947C79.7847 143.778 87.04 139.161 87.04 139.161L178.278 164.002C178.278 164.002 193.227 208.41 180.036 235.891C166.846 263.372 175.769 315.659 175.769 315.659C175.769 315.659 136.495 271.584 105.543 270.345C80.7042 269.352 76.0742 265.05 76.0742 265.05Z" fill="#19254F"/>
<path d="M87.04 139.161C87.04 139.161 88.3608 125.311 88.3608 123.332C88.3608 121.354 143.321 142.019 143.321 142.019L139.217 156.015L87.04 139.161Z" fill="#2E395F"/>
<path d="M65.5342 107.355C68.4379 112.873 76.8596 121.004 81.5058 122.165C86.152 123.326 90.2181 119.261 90.2181 119.261L79.7634 103.289L60.892 91.9631L65.5342 107.355Z" fill="#19254F"/>
<path d="M71.3315 75.1624L79.742 104.037C81.3076 109.578 84.7224 114.415 89.4185 117.745L99.031 128.652C102.699 131.226 107.068 132.614 111.549 132.628C116.031 132.614 120.4 131.226 124.069 128.652L134.229 117.745C138.923 114.415 142.336 109.578 143.9 104.039L151.767 75.1644L148.381 52.6903L136.724 35.2809L97.9662 39.0331L61.4 57.24L71.7125 75.9427" fill="#E4BFA2"/>
<path d="M128.563 84.7423C130.61 84.7423 132.27 83.0829 132.27 81.0359C132.27 78.9889 130.61 77.3295 128.563 77.3295C126.516 77.3295 124.857 78.9889 124.857 81.0359C124.857 83.0829 126.516 84.7423 128.563 84.7423Z" fill="#5A3C6D"/>
<path d="M126.376 80.8947L138.541 79.0385" stroke="#5A3C6D" stroke-width="2.275" stroke-miterlimit="10" stroke-linecap="round"/>
<path d="M90.3715 80.8958C92.7083 79.9241 95.2301 79.4781 97.7584 79.5892C100.287 79.7004 102.76 80.366 105.002 81.5389" stroke="#5A3C6D" stroke-width="2.071" stroke-miterlimit="10" stroke-linecap="round"/>
<path d="M149.691 21.5892C154.599 23.6679 158.599 28.4066 157.675 33.2489C157.15 35.9993 155.149 38.4306 154.964 41.2144C154.697 45.2582 158.253 48.6313 161.788 51.1043C165.323 53.5772 169.349 56.0248 170.757 59.8735C171.344 61.854 171.545 63.9285 171.351 65.9848L171.046 75.8329C170.911 80.1622 170.678 84.7738 167.949 88.3095C163.898 93.5633 152.867 95.191 147.777 90.7155C148.895 85.9961 151.252 80.467 150.552 76.2719C149.942 72.5898 148.164 70.8128 145.418 68.0849C142.672 65.3569 140.556 61.2187 142.684 58.0802C142.555 58.2702 135.403 47.6813 134.912 46.5332C132.998 42.0646 131.999 37.2577 131.973 32.3965C131.964 29.3718 131.77 22.5107 134.53 20.2917C137.653 17.7731 146.392 20.1932 149.691 21.5892Z" fill="#19254F"/>
<path d="M108.351 122.61C116.27 122.558 123.846 119.371 129.42 113.745" stroke="#CA9F8C" stroke-width="1.719" stroke-miterlimit="10" stroke-linecap="round"/>
<path d="M115.064 77.2188V99.1148" stroke="#CA9F8C" stroke-width="1.552" stroke-miterlimit="10" stroke-linecap="round"/>
<path d="M139.705 61.6718C128.427 58.5222 121.612 57.2146 115.321 60.0991" stroke="#88593B" stroke-width="3.105" stroke-miterlimit="10" stroke-linecap="round"/>
<path d="M103.023 65.7206C96.8628 67.079 90.4904 67.1755 84.2877 68.3226C78.0849 69.4697 75.49 71.3513 71.5266 76.2587C75.0613 87.5364 77.9163 98.8192 81.451 110.092C70.0717 112.147 55.2379 109.019 45.3227 103.081C40.9315 100.452 36.5565 97.0289 35.0854 92.1267C33.6142 87.2244 36.5718 80.8144 41.6823 80.535C37.4414 68.6538 35.8626 55.986 37.0574 43.4273C37.4039 39.8144 38.0125 36.1303 39.8149 32.9787C42.1202 28.9481 46.1141 26.2222 49.975 23.6385C53.8622 21.0344 57.7495 18.4304 61.6591 15.864C65.5199 13.3314 69.4048 10.8357 73.3138 8.377C77.7669 5.57586 82.4253 2.75744 87.6395 2.07773C91.2595 1.60427 94.9233 2.19356 98.526 2.78183L111.804 4.94491L119.26 6.16413C123.947 6.92918 128.719 7.72065 132.958 9.86037C137.196 12.0001 140.899 15.7441 141.775 20.4116C142.302 23.2189 141.784 26.1064 141.267 28.9156L140.092 35.284C139.142 40.4301 136.368 40.4555 133.302 43.6407C130.356 46.7009 128.451 50.6908 125.289 53.7175C119.099 59.6721 111.4 63.8226 103.023 65.7206Z" fill="#19254F"/>
<path d="M121.357 104.642C120.024 104.439 118.487 105.77 117.667 106.692" stroke="#CA9F8C" stroke-width="1.214" stroke-miterlimit="10" stroke-linecap="round"/>
<path d="M110.081 104.642C111.413 104.439 112.951 105.77 113.771 106.692" stroke="#CA9F8C" stroke-width="1.214" stroke-miterlimit="10" stroke-linecap="round"/>
<path d="M72.7996 80.5371C65.0546 81.3977 68.2814 98.6099 77.7212 97.158L72.7996 80.5371Z" fill="#D7AC95"/>
<path d="M150.543 80.3745C158.288 81.2351 155.061 98.4473 145.621 96.9954L150.543 80.3745Z" fill="#D7AC95"/>
<path d="M71.2634 78.9816C61.8237 63.2476 63.9207 39.3846 89.0954 18.6682C114.27 -2.04826 128.691 6.86824 128.691 6.86824L132.959 9.85734C132.959 9.85734 107.715 10.277 90.145 30.207C72.5751 50.1371 71.2634 78.9816 71.2634 78.9816Z" fill="#E83C65"/>
<path d="M129.483 20.1333C130.459 29.4054 112.646 50.8798 89.9509 57.2247" stroke="#0C1832" stroke-width="2.167" stroke-miterlimit="10"/>
<path d="M88.4868 9.88376C78.2373 10.1276 54.0847 27.4536 47.0021 35.0188C39.9195 42.584 45.7829 67.4732 45.7829 67.4732" stroke="#0C1832" stroke-width="2.167" stroke-miterlimit="10"/>
<path d="M116.55 26.4772C110.937 31.3541 99.224 39.8987 93.8554 41.3628" stroke="#0C1832" stroke-width="2.167" stroke-miterlimit="10"/>
<path d="M144.125 29.6502C153.885 31.602 147.782 40.3874 147.782 45.5111C147.782 50.6349 156.81 53.0763 159.739 57.2247C162.667 61.3731 162.423 69.1821 162.423 69.1821" stroke="#0C1832" stroke-width="2.167" stroke-miterlimit="10"/>
<path d="M61.8877 101.638C54.3235 98.9533 52.3707 93.096 53.1033 85.5318" stroke="#0C1832" stroke-width="2.167" stroke-miterlimit="10"/>
<path d="M47.7347 100.661C39.1941 108.958 61.1562 119.695 78.9699 119.939L74.8215 109.202L63.5966 106.517L47.7347 100.661Z" fill="#19254F"/>
<path d="M137.601 210.389C171.456 221.82 210.149 219.183 235.211 211.71C260.273 204.237 224.66 83.7609 224.66 83.7609C224.66 83.7609 206.194 61.3376 199.158 56.9382C192.122 52.5389 174.977 58.6969 174.977 71.0079C174.977 83.3189 183.331 82.88 183.331 82.88C183.331 82.88 178.055 91.2337 185.973 93.8712C193.891 96.5088 204.88 96.9497 207.957 96.0699C207.957 96.0699 202.681 160.703 203.121 172.575C203.121 172.575 161.351 162.023 134.97 158.066L137.601 210.389Z" fill="#E4BFA2"/>
<path d="M117.222 153.792C110.76 152.538 104.069 153.315 98.0671 156.017C92.0653 158.719 87.0476 163.214 83.7035 168.883C79.8132 175.62 78.7992 183.447 85.2813 196.759C97.5923 222.041 147.276 222.481 154.97 221.381C154.97 221.381 132.767 176.974 150.574 160.046L117.222 153.792Z" fill="#3E486B"/>
<path d="M197.84 171.698C197.84 171.698 185.968 158.067 180.692 155.869C175.416 153.672 164.863 151.907 160.467 152.351C156.071 152.795 150.794 164.663 149.035 171.258C149.035 171.258 163.545 178.732 171.895 178.732C180.246 178.732 177.611 169.499 182.887 169.059C188.164 168.619 197.84 171.698 197.84 171.698Z" fill="#CA9F8C"/>
<path d="M150.574 160.046C141.854 158.067 136.284 156.602 136.284 156.602C136.284 156.602 110.49 182.763 138.409 221.674C138.409 221.674 155.41 223.36 157.169 222.26C158.928 221.161 159.697 215.885 159.697 215.885L152.883 214.564C152.883 214.564 143.319 199.614 146.177 180.928C149.035 162.242 150.574 160.046 150.574 160.046Z" fill="#596280"/>
<path d="M125.292 160.046C117.378 166.201 111.662 175.654 115.179 193.462" stroke="#222E56" stroke-width="1.301" stroke-miterlimit="10" stroke-linecap="round"/>
<path d="M107.705 217.644L109.903 256.116" stroke="#0C1937" stroke-width="1.301" stroke-miterlimit="10" stroke-linecap="round"/>
<path d="M190.301 71.2254L184.784 71.1837L189.185 78.497" stroke="#D4A991" stroke-width="1.301" stroke-miterlimit="10" stroke-linecap="round"/>
<path d="M185.968 81.1233C187.947 81.5622 192.124 81.7827 193.883 80.024" stroke="#D4A991" stroke-width="1.301" stroke-miterlimit="10" stroke-linecap="round"/>
</g>
<defs>
<clipPath id="clip0">
<rect width="303.283" height="326" fill="white" transform="translate(0.134613)"/>
</clipPath>
</defs>
</svg>
