<svg width="308" height="326" viewBox="0 0 308 326" fill="none" xmlns="http://www.w3.org/2000/svg">
<g clip-path="url(#clip0)">
<path d="M12.9938 228.53C44.6663 271.381 82.7927 281.528 135.509 273.767C193.371 265.246 250.108 229.506 288.432 159.244C346.213 53.3106 264.748 -21.9057 186.981 5.77374C98.5725 37.2424 206.752 92.7674 39.3555 117.811C-8.22948 124.93 -6.7957 201.756 12.9938 228.53Z" fill="#E7F4F7"/>
<path d="M111.427 244.545L110.8 244.466L111.427 244.545Z" fill="#DEF0F4" stroke="#E3DEE6" stroke-width="3.745" stroke-miterlimit="10"/>
<path d="M111.731 244.585L111.573 244.565L111.731 244.585Z" fill="#DEF0F4" stroke="#E3DEE6" stroke-width="3.745" stroke-miterlimit="10"/>
<path d="M111.577 244.565L111.427 244.545L111.577 244.565Z" fill="#DEF0F4" stroke="#E3DEE6" stroke-width="3.745" stroke-miterlimit="10"/>
<path d="M111.836 244.598H111.807H111.836Z" fill="#DEF0F4" stroke="#E3DEE6" stroke-width="3.745" stroke-miterlimit="10"/>
<path d="M111.811 244.594L111.736 244.585L111.811 244.594Z" fill="#DEF0F4" stroke="#E3DEE6" stroke-width="3.745" stroke-miterlimit="10"/>
<path d="M206.796 186.005L206.997 185.958L206.796 186.005Z" fill="#DEF0F4" stroke="#E3DEE6" stroke-width="3.745" stroke-miterlimit="10"/>
<path d="M206.997 185.958L207.332 185.88L206.997 185.958Z" fill="#DEF0F4" stroke="#E3DEE6" stroke-width="3.745" stroke-miterlimit="10"/>
<path d="M278.39 132.801C280.071 120.888 276.927 108.202 269.211 98.9759C265.738 94.975 261.688 91.5154 257.193 88.7117C255.09 87.3553 252.92 86.1063 250.691 84.9695L242.015 76.2864L240.851 75.1212L235.284 69.5565H255.499C257.087 67.1099 257.931 64.2549 257.928 61.3381C257.926 58.4212 257.077 55.5678 255.484 53.124C253.892 50.6803 251.624 48.7513 248.956 47.571C246.289 46.3908 243.336 46.0101 240.457 46.4751C240.014 45.3368 239.506 44.2255 238.933 43.1468H268.644C270.127 41.2353 270.988 38.9152 271.112 36.4991C271.236 34.083 270.617 31.687 269.337 29.6338C268.057 27.5807 266.179 25.9691 263.955 25.0161C261.732 24.0632 259.269 23.8146 256.9 24.304C254.871 21.1095 251.999 18.5376 248.601 16.8724C245.202 15.2071 241.41 14.5131 237.642 14.8671C233.874 15.221 230.277 16.6091 227.249 18.8781C224.22 21.1472 221.877 24.2089 220.478 27.7254C213.911 25.6824 206.853 25.8591 200.396 28.2283C193.94 30.5975 188.443 35.0273 184.755 40.8331C182.357 40.3383 179.883 40.337 177.484 40.8294C175.086 41.3217 172.812 42.2973 170.803 43.6968C168.794 45.0963 167.09 46.8903 165.797 48.9695C164.503 51.0486 163.647 53.3695 163.279 55.7904C158.512 56.952 153.86 58.5424 149.38 60.5421C137.413 65.854 126.718 73.6739 116.747 82.1594C116.623 82.2639 116.501 82.3747 116.376 82.4802L92.989 69.522C91.9336 68.9388 90.7135 68.7255 89.5229 68.916C88.3323 69.1065 87.2396 69.6899 86.4189 70.5733L80.4623 67.8374L78.1633 56.3245L65.994 54.8938C65.8523 54.8763 65.7085 54.8869 65.5709 54.9252C65.4333 54.9635 65.3046 55.0286 65.1923 55.1168C65.0799 55.205 64.9862 55.3146 64.9164 55.4392C64.8466 55.5638 64.8021 55.701 64.7856 55.8428C64.769 55.9847 64.7807 56.1284 64.82 56.2658C64.8592 56.4031 64.9253 56.5313 65.0143 56.643C65.1033 56.7547 65.2135 56.8477 65.3386 56.9166C65.4637 56.9855 65.6012 57.0289 65.7432 57.0445L76.346 58.287L78.2908 67.9837L69.6694 72.8253L61.8213 65.5875C61.7174 65.4874 61.5945 65.409 61.4599 65.3569C61.3253 65.3049 61.1817 65.2803 61.0374 65.2845C60.8932 65.2887 60.7512 65.3217 60.6199 65.3815C60.4886 65.4414 60.3705 65.5268 60.2727 65.6329C60.1748 65.739 60.0991 65.8635 60.0501 65.9992C60.001 66.1349 59.9795 66.2791 59.9869 66.4232C59.9943 66.5673 60.0304 66.7085 60.0931 66.8385C60.1558 66.9685 60.2438 67.0846 60.352 67.1801L69.3569 75.4849L79.5176 69.7791L85.2872 72.4313C84.8516 73.6378 84.8594 74.9599 85.3094 76.1612C85.7593 77.3624 86.6219 78.3643 87.743 78.9878L106.658 89.4725C95.1821 94.0375 84.7361 100.853 75.9353 109.518C65.3869 102.648 51.7525 102.025 51.7525 102.025C51.7525 102.025 45.2117 123.266 54.8719 136.992C55.1833 137.434 55.5073 137.862 55.8438 138.277C55.7393 138.508 55.6233 138.733 55.5219 138.966C54.8322 140.551 54.1958 142.158 53.598 143.779C52.9459 143.801 52.2917 143.84 51.6355 143.914C34.9601 145.816 23.4335 164.814 23.4335 164.814C23.4335 164.814 34.3613 176.025 47.7323 178.504C47.8238 186.168 48.8018 193.797 50.6469 201.236C47.4784 199.393 43.2398 197.715 38.9239 198.348C30.2606 199.62 24.5705 209.722 24.5705 209.722C24.5705 209.722 32.9244 217.762 41.5876 216.49C46.5326 215.759 50.5037 212.163 53.0065 209.204C53.6262 211.013 54.2825 212.811 55.0109 214.58C60.2527 227.318 68.3537 239.124 79.5239 247.185C89.5801 254.44 102.269 258.39 114.532 257.018C115.401 259.479 116.718 261.758 118.416 263.74C124.64 270.484 132.072 276.003 140.328 280.01C141.781 292.823 133.662 309.521 139.277 318.093C145.025 326.872 179.766 324.124 194.901 321.215C193.981 310.817 195.767 300.358 200.085 290.855C209.377 294.434 218.581 297.163 227.963 298.095C229.658 298.384 231.398 298.246 233.027 297.694C234.242 297.094 235.323 296.255 236.207 295.227C245.714 285.23 251.186 272.068 251.569 258.278C251.649 254.865 252.091 251.019 255.392 250.142C256.669 249.802 258.171 250.12 259.217 249.314C260.92 248.002 261.203 244.194 259.987 242.417C254.915 235.013 248.455 228.162 243.382 220.757C244.346 218.655 245.068 216.449 245.535 214.184C245.535 214.382 245.541 214.58 245.535 214.778C254.23 207.348 256.94 196.246 254.975 188.186C254.883 187.81 254.775 187.442 254.662 187.073C265.52 180.664 274.217 170.707 277.941 158.701C280.358 150.634 280.448 142.049 278.201 133.934C278.265 133.56 278.336 133.182 278.39 132.801ZM244.606 82.173C243.748 81.8247 242.884 81.4903 242.015 81.1698V79.5834L244.606 82.173ZM239.686 80.3505C239.492 80.2867 239.298 80.2272 239.105 80.1645L239.686 79.5834V80.3505ZM239.203 76.7713L236.583 79.3901C230.749 77.7152 224.751 76.6746 218.694 76.2864V69.5565H231.988L239.203 76.7713ZM210.218 103.959L209.95 104.943L202.695 97.6393V90.5133C209.572 90.8682 216.413 91.7471 223.157 93.1426V103.64C222.688 103.885 222.284 104.238 221.979 104.67C221.673 105.102 221.474 105.6 221.399 106.124C221.359 106.099 221.318 106.078 221.274 106.061C221.164 106.031 221.048 106.022 220.934 106.037C220.82 106.051 220.709 106.088 220.61 106.145C220.51 106.202 220.422 106.278 220.352 106.369C220.282 106.46 220.23 106.565 220.2 106.676L219.273 110.08L210.218 103.959ZM173.405 85.725V79.5949L183.444 69.5565H200.366V71.4616L193.504 78.3221C186.514 79.9164 179.759 82.4045 173.405 85.725ZM200.367 74.7575V77.0315C199.457 77.1653 198.549 77.3178 197.643 77.4798L200.367 74.7575ZM202.696 72.4272V69.5565H216.365V76.1704C211.801 75.9989 207.231 76.1844 202.696 76.7253V72.4272ZM159.788 146.186C159.628 146.324 159.474 146.467 159.32 146.611L158.845 146.314C159.159 146.269 159.472 146.225 159.787 146.186H159.788ZM183.763 150.501C183.285 149.635 182.725 148.817 182.091 148.057C183.683 148.554 185.246 149.137 186.774 149.804L183.763 150.501ZM135.116 141.984C132.953 142.998 130.868 144.171 128.877 145.491C119.566 151.676 112.046 157.705 106.27 165.32L105.927 162.314C108.81 159.284 121.016 145.476 119.338 130.755C118.607 124.325 115.326 118.665 111.578 114.132C117.101 110.92 123.165 108.88 128.877 107.026L141.427 128.07C139.287 129.669 137.586 131.783 136.483 134.216C135.379 136.648 134.908 139.32 135.115 141.984H135.116ZM96.3853 185.375C95.2982 184.671 94.3613 183.759 93.6285 182.691C94.8291 182.361 96.0829 182.271 97.3185 182.425C97.1471 182.93 96.9663 183.418 96.8033 183.935C96.6622 184.383 96.5222 184.869 96.3853 185.375ZM108.333 184.201C109.009 184.354 109.692 184.515 110.409 184.682C109.2 187.033 108.352 189.552 107.893 192.155C106.884 191.644 105.916 191.144 105.008 190.658C106.035 188.467 107.144 186.315 108.333 184.201ZM160.369 214.699C161.182 214.868 161.983 215.024 162.772 215.166C161.582 216.285 160.384 217.402 159.179 218.52C159.67 217.277 160.067 216 160.369 214.699ZM166.057 212.07C164.531 211.838 162.823 211.528 160.929 211.129C160.961 210.74 161.006 210.352 161.021 209.959C160.832 210.168 160.635 210.364 160.444 210.569C161.045 209.454 161.57 208.3 162.018 207.115C162.344 206.228 162.619 205.339 162.854 204.44C165.23 205.699 167.541 207.075 169.779 208.565C168.55 209.718 167.309 210.886 166.057 212.07ZM112.343 181.446C111.643 181.27 110.946 181.101 110.253 180.938C111.089 179.572 111.96 178.228 112.865 176.904L114.7 178.436C113.847 179.384 113.059 180.39 112.342 181.446H112.343ZM98.5903 178.981C96.8224 178.818 95.0405 178.898 93.2941 179.218C95.4625 173.869 94.6213 167.624 94.2054 165.395L96.1501 162.95L103.579 169.152C101.614 172.266 99.9435 175.557 98.5892 178.981H98.5903ZM83.2024 157.325C80.7329 155.009 78.0738 152.903 75.2529 151.031C75.3919 150.637 75.5288 150.243 75.6709 149.853C79.012 150.747 82.4236 151.353 85.8682 151.665L89.3575 156.622L83.2024 157.325ZM86.9738 150.889C87.2445 149.872 87.7053 147.979 88.1087 145.513C93.2533 154.541 102.024 160.77 104.591 162.467L105.097 166.907C104.838 167.274 104.592 167.653 104.34 168.028L91.3932 157.224L91.4162 157.207L86.9738 150.889ZM93.1813 244.798C84.6654 237.637 79.0024 227.511 75.7691 216.867C72.5359 206.222 71.5891 195.019 71.2756 183.898C71.1627 179.871 71.1449 175.824 71.3456 171.798C75.9884 168.052 80.0361 163.624 83.3507 158.664L90.0943 157.895L95.1156 162.083L93.152 164.552C90.3754 164.671 81.5439 165.5 76.9866 171.232C71.5368 178.084 74.2946 189.346 74.2946 189.346C74.2946 189.346 84.5452 189.477 90.3001 183.793C91.0463 185.447 92.9409 187.256 95.5169 189.104C93.4874 199.257 92.7841 214.831 98.4962 220.187C100.233 221.815 102.62 223.217 102.467 222.956C97.5369 214.214 99.6269 203.359 103.531 193.958C104.785 194.629 106.085 195.29 107.398 195.943C107.172 200.363 107.99 204.773 109.786 208.818C111.582 212.862 114.306 216.427 117.736 219.222C121.167 222.018 125.208 223.966 129.531 224.909C133.855 225.852 138.34 225.763 142.623 224.65C138.229 227.117 133.536 229.011 128.66 230.284C116.149 233.493 102.547 233.11 91.7318 226.049C90.8634 225.533 89.926 224.544 88.6333 223.78C90.855 234.593 100.954 242.721 111.833 244.598L113.161 251.816C113.344 253.025 113.617 254.219 113.976 255.388C106.358 253.406 99.2614 249.792 93.1771 244.798H93.1813ZM221.657 107.985C221.891 108.504 222.254 108.956 222.711 109.296C223.168 109.636 223.704 109.854 224.269 109.93C224.834 110.006 225.408 109.936 225.939 109.728C226.469 109.52 226.938 109.18 227.3 108.74C227.663 108.301 227.908 107.776 228.011 107.216C228.115 106.656 228.074 106.078 227.893 105.538C227.711 104.998 227.395 104.513 226.974 104.129C226.553 103.745 226.041 103.474 225.487 103.343V93.7821L225.583 93.686C230.379 94.7909 235.092 96.2249 239.691 97.9779V110.953C238.952 111.226 238.332 111.751 237.94 112.435C237.549 113.119 237.41 113.919 237.549 114.695C237.688 115.471 238.095 116.173 238.7 116.679C239.304 117.185 240.067 117.462 240.856 117.462C241.644 117.462 242.407 117.185 243.011 116.679C243.616 116.173 244.023 115.471 244.162 114.695C244.301 113.919 244.162 113.119 243.771 112.435C243.379 111.751 242.759 111.226 242.02 110.953V98.9163C242.563 99.1399 243.111 99.3395 243.65 99.5736C246.881 100.956 249.997 102.59 252.971 104.462C252.735 104.924 252.61 105.436 252.607 105.955C252.606 106.61 252.796 107.252 253.156 107.8C253.515 108.348 254.028 108.779 254.63 109.038C255.232 109.298 255.897 109.375 256.542 109.261C257.187 109.146 257.785 108.845 258.261 108.394C260.134 110.006 261.826 111.816 263.307 113.794C266.239 118.73 268.284 124.142 269.351 129.783C269.824 134.473 269.398 139.21 268.097 143.74C265.267 153.544 258.644 162.011 250.443 168.081C254.542 168.088 258.51 166.639 261.64 163.994C265.317 160.556 268.522 156.645 271.171 152.365C270.871 155.253 270.144 158.08 269.015 160.755C266.089 167.522 260.36 172.649 254.434 177.034C253.304 177.87 252.149 178.678 250.979 179.471C249.297 177.061 247.306 174.882 245.056 172.991C244.96 171.838 244.725 170.7 244.358 169.602C243.082 166.215 241.013 163.183 238.324 160.761C233.446 156.155 227.43 152.931 220.893 151.421L220.666 151.114L220.396 151.314C217.185 150.596 213.896 150.291 210.608 150.404L211.328 145.583L207.721 145.045L206.929 150.348C204.639 150.331 202.383 150.907 200.381 152.02L197.207 147.735L194.275 149.906L197.466 154.216C195.834 155.825 194.646 157.828 194.017 160.032L188.739 159.244L188.201 162.851L193.504 163.643C193.487 165.933 194.063 168.189 195.176 170.191L190.892 173.366L193.061 176.292L197.371 173.102C198.981 174.732 200.984 175.917 203.187 176.545L202.399 181.823L206.007 182.361L206.798 177.058C209.089 177.073 211.344 176.495 213.346 175.38L216.521 179.665L219.452 177.494L216.262 173.185C217.891 171.575 219.077 169.572 219.704 167.369L224.982 168.156L225.52 164.55L220.218 163.758C220.226 162.374 220.019 160.997 219.603 159.677C222.739 161.558 225.62 163.832 227.175 167.075C228.006 168.807 228.401 170.716 228.327 172.636C228.252 174.556 227.709 176.429 226.746 178.092C225.783 179.754 224.428 181.156 222.799 182.176C221.171 183.196 219.318 183.803 217.402 183.943C223.442 185.077 227.82 186.287 232.264 186.049C234.152 185.946 236.009 185.527 237.759 184.809C237.997 185.227 238.236 185.637 238.464 186.063C236.703 186.704 234.896 187.212 233.058 187.581C224.103 189.341 214.849 187.487 205.731 187.476L205.35 186.336L206.798 186.001L205.35 186.336L205.01 185.311L199.91 187.012C199.215 186.003 198.389 185.089 197.455 184.295L199.893 179.417L193.551 176.248L191.08 181.194C189.907 180.958 188.709 180.874 187.515 180.945L185.764 175.696L179.038 177.939L180.773 183.14C179.747 183.794 178.811 184.581 177.99 185.478L173.142 183.055L169.971 189.397L174.683 191.752C174.39 192.995 174.268 194.273 174.321 195.549L169.42 197.185L171.663 203.909L174.121 203.09C173.454 204.022 172.834 204.985 172.26 205.977C169.476 204.023 166.56 202.264 163.533 200.714C164.235 194.896 163.104 189.004 160.297 183.859C157.491 178.715 153.149 174.574 147.878 172.015C142.606 169.456 136.667 168.605 130.889 169.582C125.111 170.559 119.781 173.314 115.644 177.464L113.649 175.799C120.178 166.33 128.794 158.487 138.834 152.875C142.762 150.756 146.916 149.084 151.216 147.889L149.858 150.067L155.066 153.316C154.649 154.613 154.403 155.959 154.335 157.32L148.422 158.691L150.215 166.425L155.963 165.092C156.596 166.375 157.403 167.565 158.361 168.627L155.299 173.539L162.035 177.74L165.006 172.977C166.428 173.458 167.912 173.731 169.411 173.788L170.66 179.176L178.393 177.383L177.163 172.078C178.53 171.381 179.786 170.486 180.892 169.423L185.506 172.3L189.707 165.563L185.045 162.655C185.484 161.21 185.711 159.708 185.718 158.197L191.142 156.943L189.349 149.21L188.738 149.352C187.435 147.036 185.47 145.162 183.095 143.969L184.262 142.098L177.526 137.897L175.766 140.718C173.699 139.969 171.59 139.338 169.451 138.829L168.901 136.461L166.34 137.054C165.557 133.8 163.766 130.877 161.221 128.704C158.677 126.53 155.51 125.217 152.174 124.952L139.132 103.084C142.264 101.644 145.303 100.01 148.232 98.1911C153.015 95.2159 157.959 90.832 157.741 85.2046C157.574 84.0074 157.523 82.7969 157.589 81.5899C157.945 79.317 159.927 77.669 161.918 76.5153C167.162 73.4774 173.317 72.3289 179.139 70.566L171.076 78.6293V87.0062C168.159 88.6591 165.352 90.4998 162.674 92.5166C165.461 92.1383 168.261 91.8039 171.076 91.5134V92.2689C170.338 92.5487 169.722 93.079 169.336 93.767C168.95 94.455 168.818 95.2569 168.964 96.0324C169.109 96.8078 169.523 97.5073 170.132 98.0086C170.742 98.5098 171.508 98.7807 172.297 98.774C173.086 98.7673 173.847 98.4833 174.448 97.9718C175.048 97.4603 175.45 96.7538 175.582 95.976C175.714 95.1982 175.569 94.3986 175.171 93.7173C174.773 93.036 174.149 92.5162 173.406 92.2491V91.272C177.487 90.8804 181.58 90.6 185.685 90.4307V92.6012C184.952 92.9042 184.349 93.4555 183.981 94.1586C183.614 94.8617 183.505 95.6717 183.675 96.4466C183.845 97.2216 184.282 97.9121 184.91 98.3972C185.538 98.8823 186.316 99.1309 187.109 99.0997C187.901 99.0684 188.658 98.7591 189.245 98.2261C189.833 97.6931 190.214 96.9703 190.323 96.1843C190.431 95.3984 190.259 94.5995 189.837 93.9275C189.415 93.2556 188.77 92.7535 188.016 92.5093V90.3377C192.141 90.2165 196.258 90.2388 200.367 90.4046V97.6362L183.838 114.166V124.984C183.145 125.35 182.603 125.948 182.306 126.673C182.009 127.397 181.975 128.203 182.212 128.95C182.448 129.697 182.939 130.337 183.599 130.759C184.259 131.181 185.047 131.357 185.824 131.258C186.601 131.159 187.318 130.79 187.851 130.216C188.384 129.641 188.698 128.898 188.739 128.116C188.78 127.334 188.545 126.562 188.075 125.935C187.606 125.308 186.93 124.866 186.168 124.686V115.128L201.53 99.7659L208.644 106.93V107.183L202.327 105.463" fill="#DEF0F4"/>
<path d="M221.657 107.985C221.891 108.504 222.254 108.956 222.711 109.296C223.168 109.636 223.704 109.854 224.269 109.93C224.834 110.006 225.408 109.936 225.939 109.728C226.469 109.52 226.938 109.18 227.3 108.74C227.663 108.301 227.908 107.776 228.011 107.216C228.115 106.656 228.074 106.078 227.893 105.538C227.711 104.998 227.395 104.513 226.974 104.129C226.553 103.745 226.041 103.474 225.487 103.343V93.7821L225.583 93.686C230.379 94.7909 235.092 96.2249 239.691 97.9779V110.953C238.952 111.226 238.332 111.751 237.94 112.435C237.549 113.119 237.41 113.919 237.549 114.695C237.688 115.471 238.095 116.173 238.7 116.679C239.304 117.185 240.067 117.462 240.856 117.462C241.644 117.462 242.407 117.185 243.011 116.679C243.616 116.173 244.023 115.471 244.162 114.695C244.301 113.919 244.162 113.119 243.771 112.435C243.379 111.751 242.759 111.226 242.02 110.953V98.9163C242.563 99.1399 243.111 99.3395 243.65 99.5736C246.881 100.956 249.997 102.59 252.971 104.462C252.735 104.924 252.61 105.436 252.607 105.955C252.606 106.61 252.796 107.252 253.156 107.8C253.515 108.348 254.028 108.779 254.63 109.038C255.232 109.298 255.897 109.375 256.542 109.261C257.187 109.146 257.785 108.845 258.261 108.394C260.134 110.006 261.826 111.816 263.307 113.794C266.239 118.73 268.284 124.142 269.351 129.783C269.824 134.473 269.398 139.21 268.097 143.74C265.267 153.544 258.644 162.011 250.443 168.081C254.542 168.088 258.51 166.639 261.64 163.994C265.317 160.556 268.522 156.645 271.171 152.365C270.871 155.253 270.144 158.08 269.015 160.755C266.089 167.522 260.36 172.649 254.434 177.034C253.304 177.87 252.149 178.678 250.979 179.471C249.297 177.061 247.306 174.882 245.056 172.991C244.96 171.838 244.725 170.7 244.358 169.602C243.082 166.215 241.013 163.183 238.324 160.761C233.446 156.155 227.43 152.931 220.893 151.421L220.666 151.114L220.396 151.314C217.185 150.596 213.896 150.291 210.608 150.404L211.328 145.583L207.721 145.045L206.929 150.348C204.639 150.331 202.383 150.907 200.381 152.02L197.207 147.735L194.275 149.906L197.466 154.216C195.834 155.825 194.646 157.828 194.017 160.032L188.739 159.244L188.201 162.851L193.504 163.643C193.487 165.933 194.063 168.189 195.176 170.191L190.892 173.366L193.061 176.292L197.371 173.102C198.981 174.732 200.984 175.917 203.187 176.545L202.399 181.823L206.007 182.361L206.798 177.058C209.089 177.073 211.344 176.495 213.346 175.38L216.521 179.665L219.452 177.494L216.262 173.185C217.891 171.575 219.077 169.572 219.704 167.369L224.982 168.156L225.52 164.55L220.218 163.758C220.226 162.374 220.019 160.997 219.603 159.677C222.739 161.558 225.62 163.832 227.175 167.075C228.006 168.807 228.401 170.716 228.327 172.636C228.252 174.556 227.709 176.429 226.746 178.092C225.783 179.754 224.428 181.156 222.799 182.176C221.171 183.196 219.318 183.803 217.402 183.943C223.442 185.077 227.82 186.287 232.264 186.049C234.152 185.946 236.009 185.527 237.759 184.809C237.997 185.227 238.236 185.637 238.464 186.063C236.703 186.704 234.896 187.212 233.058 187.581C224.103 189.341 214.849 187.487 205.731 187.476L205.35 186.336L206.798 186.001L205.35 186.336L205.01 185.311L199.91 187.012C199.215 186.003 198.389 185.089 197.455 184.295L199.893 179.417L193.551 176.248L191.08 181.194C189.907 180.958 188.709 180.874 187.515 180.945L185.764 175.696L179.038 177.939L180.773 183.14C179.747 183.794 178.811 184.581 177.99 185.478L173.142 183.055L169.971 189.397L174.683 191.752C174.39 192.995 174.268 194.273 174.321 195.549L169.42 197.185L171.663 203.909L174.121 203.09C173.454 204.022 172.834 204.985 172.26 205.977C169.476 204.023 166.56 202.264 163.533 200.714C164.235 194.896 163.104 189.004 160.297 183.859C157.491 178.715 153.149 174.574 147.878 172.015C142.606 169.456 136.667 168.605 130.889 169.582C125.111 170.559 119.781 173.314 115.644 177.464L113.649 175.799C120.178 166.33 128.794 158.487 138.834 152.875C142.762 150.756 146.916 149.084 151.216 147.889L149.858 150.067L155.066 153.316C154.649 154.613 154.403 155.959 154.335 157.32L148.422 158.691L150.215 166.425L155.963 165.092C156.596 166.375 157.403 167.565 158.361 168.627L155.299 173.539L162.035 177.74L165.006 172.977C166.428 173.458 167.912 173.731 169.411 173.788L170.66 179.176L178.393 177.383L177.163 172.078C178.53 171.381 179.786 170.486 180.892 169.423L185.506 172.3L189.707 165.563L185.045 162.655C185.484 161.21 185.711 159.708 185.718 158.197L191.142 156.943L189.349 149.21L188.738 149.352C187.435 147.036 185.47 145.162 183.095 143.969L184.262 142.098L177.526 137.897L175.766 140.718C173.699 139.969 171.59 139.338 169.451 138.829L168.901 136.461L166.34 137.054C165.557 133.8 163.766 130.877 161.221 128.704C158.677 126.53 155.51 125.217 152.174 124.952L139.132 103.084C142.264 101.644 145.303 100.01 148.232 98.1911C153.015 95.2159 157.959 90.832 157.741 85.2046C157.574 84.0074 157.523 82.7969 157.589 81.5899C157.945 79.317 159.927 77.669 161.918 76.5153C167.162 73.4774 173.317 72.3289 179.139 70.566L171.076 78.6293V87.0062C168.159 88.6591 165.352 90.4998 162.674 92.5166C165.461 92.1383 168.261 91.8039 171.076 91.5134V92.2689C170.338 92.5487 169.722 93.079 169.336 93.767C168.95 94.455 168.818 95.2569 168.964 96.0324C169.109 96.8078 169.523 97.5073 170.132 98.0086C170.742 98.5098 171.508 98.7807 172.297 98.774C173.086 98.7673 173.847 98.4833 174.448 97.9718C175.048 97.4603 175.45 96.7538 175.582 95.976C175.714 95.1982 175.569 94.3986 175.171 93.7173C174.773 93.036 174.149 92.5162 173.406 92.2491V91.272C177.487 90.8804 181.58 90.6 185.685 90.4308V92.6013C184.952 92.9042 184.349 93.4555 183.981 94.1586C183.614 94.8617 183.505 95.6717 183.675 96.4467C183.845 97.2216 184.282 97.9121 184.91 98.3972C185.538 98.8823 186.316 99.1309 187.109 99.0997C187.901 99.0684 188.658 98.7591 189.245 98.2261C189.833 97.6931 190.214 96.9703 190.323 96.1843C190.431 95.3984 190.259 94.5995 189.837 93.9275C189.415 93.2556 188.77 92.7535 188.016 92.5093V90.3377C192.141 90.2165 196.258 90.2388 200.367 90.4046V97.6362L183.838 114.166V124.984C183.145 125.35 182.603 125.948 182.306 126.673C182.009 127.397 181.975 128.203 182.212 128.95C182.448 129.697 182.939 130.337 183.599 130.759C184.259 131.181 185.047 131.357 185.824 131.258C186.601 131.159 187.318 130.79 187.851 130.216C188.384 129.641 188.698 128.898 188.739 128.116C188.78 127.334 188.545 126.562 188.075 125.935C187.606 125.308 186.931 124.866 186.168 124.686V115.128L201.53 99.7659L208.644 106.93V107.183L202.327 105.463M278.39 132.801C280.071 120.888 276.927 108.202 269.211 98.9759C265.738 94.975 261.688 91.5154 257.193 88.7117C255.09 87.3553 252.92 86.1063 250.691 84.9695L242.015 76.2864L240.851 75.1212L235.284 69.5565H255.499C257.087 67.1099 257.931 64.2549 257.928 61.3381C257.926 58.4212 257.077 55.5678 255.484 53.124C253.892 50.6803 251.624 48.7513 248.956 47.571C246.289 46.3908 243.336 46.0101 240.457 46.4751C240.014 45.3368 239.506 44.2255 238.933 43.1468H268.644C270.127 41.2353 270.988 38.9152 271.112 36.4991C271.236 34.083 270.617 31.687 269.337 29.6338C268.057 27.5807 266.179 25.9691 263.955 25.0161C261.732 24.0632 259.269 23.8146 256.9 24.304C254.871 21.1095 251.999 18.5376 248.601 16.8724C245.202 15.2071 241.41 14.5131 237.642 14.8671C233.874 15.221 230.277 16.6091 227.249 18.8781C224.22 21.1472 221.877 24.2089 220.478 27.7254C213.911 25.6824 206.853 25.8591 200.396 28.2283C193.94 30.5975 188.443 35.0273 184.755 40.8331C182.357 40.3383 179.883 40.337 177.484 40.8294C175.086 41.3217 172.812 42.2973 170.803 43.6968C168.794 45.0963 167.09 46.8903 165.797 48.9695C164.503 51.0486 163.647 53.3695 163.279 55.7904C158.512 56.952 153.86 58.5424 149.38 60.5421C137.413 65.854 126.718 73.6739 116.747 82.1594C116.623 82.2639 116.501 82.3747 116.376 82.4802L92.989 69.522C91.9336 68.9388 90.7135 68.7255 89.5229 68.916C88.3323 69.1065 87.2396 69.6899 86.4189 70.5733L80.4623 67.8374L78.1633 56.3245L65.994 54.8938C65.8523 54.8763 65.7085 54.8869 65.5709 54.9252C65.4333 54.9635 65.3046 55.0286 65.1923 55.1168C65.0799 55.205 64.9862 55.3146 64.9164 55.4392C64.8466 55.5638 64.8021 55.701 64.7856 55.8428C64.769 55.9847 64.7807 56.1284 64.82 56.2658C64.8592 56.4031 64.9253 56.5313 65.0143 56.643C65.1033 56.7547 65.2135 56.8477 65.3386 56.9166C65.4637 56.9855 65.6012 57.0289 65.7432 57.0445L76.346 58.287L78.2908 67.9837L69.6694 72.8253L61.8213 65.5875C61.7174 65.4874 61.5945 65.409 61.4599 65.3569C61.3253 65.3049 61.1817 65.2803 61.0374 65.2845C60.8932 65.2887 60.7512 65.3217 60.6199 65.3815C60.4886 65.4414 60.3705 65.5268 60.2727 65.6329C60.1748 65.739 60.0991 65.8635 60.0501 65.9992C60.001 66.1349 59.9795 66.2791 59.9869 66.4232C59.9943 66.5673 60.0304 66.7085 60.0931 66.8385C60.1558 66.9685 60.2438 67.0846 60.352 67.1801L69.3569 75.4849L79.5176 69.7791L85.2872 72.4313C84.8516 73.6378 84.8594 74.9599 85.3094 76.1612C85.7593 77.3624 86.6219 78.3643 87.743 78.9878L106.658 89.4725C95.1821 94.0375 84.7361 100.853 75.9353 109.518C65.3869 102.648 51.7525 102.025 51.7525 102.025C51.7525 102.025 45.2117 123.266 54.8719 136.992C55.1833 137.434 55.5073 137.862 55.8438 138.277C55.7393 138.508 55.6233 138.733 55.5219 138.966C54.8322 140.551 54.1958 142.158 53.598 143.779C52.9459 143.801 52.2917 143.84 51.6355 143.914C34.9601 145.816 23.4335 164.814 23.4335 164.814C23.4335 164.814 34.3613 176.025 47.7323 178.504C47.8238 186.168 48.8018 193.797 50.6469 201.236C47.4784 199.393 43.2398 197.715 38.9239 198.348C30.2606 199.62 24.5705 209.722 24.5705 209.722C24.5705 209.722 32.9244 217.762 41.5876 216.49C46.5326 215.759 50.5037 212.163 53.0065 209.205C53.6262 211.013 54.2825 212.811 55.0109 214.58C60.2527 227.318 68.3537 239.124 79.5239 247.185C89.5801 254.44 102.269 258.39 114.532 257.018C115.401 259.479 116.718 261.758 118.416 263.74C124.64 270.484 132.072 276.003 140.328 280.01C141.781 292.823 133.662 309.521 139.277 318.093C145.025 326.872 179.766 324.124 194.901 321.215C193.981 310.817 195.767 300.358 200.085 290.855C209.377 294.434 218.581 297.163 227.963 298.095C229.658 298.384 231.398 298.246 233.027 297.694C234.242 297.094 235.323 296.255 236.207 295.227C245.714 285.23 251.186 272.068 251.569 258.278C251.649 254.865 252.091 251.019 255.392 250.142C256.669 249.802 258.171 250.12 259.217 249.314C260.92 248.002 261.203 244.194 259.987 242.417C254.915 235.013 248.455 228.162 243.382 220.757C244.346 218.655 245.068 216.449 245.535 214.184C245.535 214.382 245.541 214.58 245.535 214.778C254.23 207.347 256.94 196.246 254.975 188.186C254.883 187.81 254.775 187.442 254.662 187.073C265.52 180.664 274.217 170.707 277.941 158.701C280.358 150.634 280.448 142.049 278.201 133.934C278.265 133.56 278.336 133.182 278.39 132.801ZM244.606 82.173C243.748 81.8247 242.884 81.4903 242.015 81.1698V79.5834L244.606 82.173ZM239.686 80.3505C239.492 80.2867 239.298 80.2272 239.105 80.1645L239.686 79.5834V80.3505ZM239.203 76.7713L236.583 79.3901C230.749 77.7152 224.751 76.6746 218.694 76.2864V69.5565H231.988L239.203 76.7713ZM210.218 103.959L209.95 104.943L202.695 97.6393V90.5133C209.572 90.8682 216.413 91.7471 223.157 93.1426V103.64C222.688 103.885 222.284 104.238 221.979 104.67C221.673 105.102 221.474 105.6 221.399 106.124C221.359 106.099 221.318 106.078 221.274 106.061C221.164 106.031 221.048 106.022 220.934 106.037C220.82 106.051 220.709 106.088 220.61 106.145C220.51 106.202 220.422 106.278 220.352 106.369C220.282 106.46 220.23 106.565 220.2 106.676L219.273 110.08L210.218 103.959ZM173.405 85.725V79.5949L183.444 69.5565H200.366V71.4616L193.504 78.3221C186.514 79.9164 179.759 82.4045 173.405 85.725V85.725ZM200.367 74.7576V77.0315C199.457 77.1653 198.549 77.3178 197.643 77.4798L200.367 74.7576ZM202.696 72.4272V69.5565H216.365V76.1704C211.801 75.9989 207.231 76.1844 202.696 76.7253V72.4272ZM159.788 146.186C159.628 146.324 159.474 146.467 159.32 146.611L158.845 146.314C159.159 146.269 159.472 146.225 159.787 146.186H159.788ZM183.763 150.501C183.285 149.635 182.725 148.817 182.091 148.057C183.683 148.554 185.246 149.137 186.774 149.804L183.763 150.501ZM135.116 141.984C132.953 142.998 130.868 144.171 128.877 145.491C119.566 151.676 112.046 157.705 106.27 165.32L105.927 162.314C108.81 159.284 121.016 145.476 119.338 130.755C118.607 124.325 115.326 118.665 111.578 114.132C117.101 110.92 123.165 108.88 128.877 107.026L141.427 128.07C139.287 129.669 137.586 131.783 136.483 134.216C135.379 136.648 134.908 139.32 135.115 141.984H135.116ZM96.3853 185.375C95.2982 184.671 94.3613 183.759 93.6285 182.691C94.8291 182.361 96.0829 182.271 97.3185 182.425C97.1471 182.93 96.9663 183.418 96.8033 183.935C96.6622 184.383 96.5222 184.869 96.3853 185.375ZM108.333 184.201C109.009 184.354 109.692 184.515 110.409 184.682C109.2 187.033 108.352 189.552 107.893 192.155C106.884 191.644 105.916 191.144 105.008 190.658C106.035 188.467 107.144 186.315 108.333 184.201V184.201ZM160.369 214.699C161.182 214.869 161.983 215.024 162.772 215.166C161.582 216.285 160.384 217.402 159.179 218.52C159.67 217.277 160.067 216 160.369 214.699V214.699ZM166.057 212.07C164.531 211.838 162.823 211.528 160.929 211.129C160.961 210.74 161.006 210.352 161.021 209.959C160.832 210.168 160.635 210.364 160.444 210.569C161.045 209.454 161.57 208.3 162.018 207.116C162.344 206.228 162.619 205.339 162.854 204.44C165.23 205.699 167.541 207.075 169.779 208.565C168.55 209.718 167.309 210.886 166.057 212.07V212.07ZM112.343 181.446C111.643 181.27 110.946 181.101 110.253 180.938C111.089 179.572 111.96 178.228 112.865 176.904L114.7 178.436C113.847 179.384 113.059 180.39 112.342 181.446H112.343ZM98.5903 178.981C96.8224 178.818 95.0405 178.898 93.2941 179.218C95.4625 173.869 94.6213 167.624 94.2054 165.395L96.1501 162.95L103.579 169.152C101.614 172.266 99.9435 175.557 98.5892 178.981H98.5903ZM83.2024 157.325C80.7329 155.009 78.0738 152.903 75.2529 151.031C75.3919 150.637 75.5288 150.243 75.6709 149.853C79.012 150.747 82.4236 151.353 85.8682 151.665L89.3575 156.622L83.2024 157.325ZM86.9738 150.889C87.2445 149.872 87.7053 147.979 88.1087 145.513C93.2534 154.541 102.024 160.77 104.591 162.467L105.097 166.907C104.838 167.274 104.592 167.653 104.34 168.028L91.3932 157.224L91.4162 157.207L86.9738 150.889ZM93.1812 244.798C84.6654 237.637 79.0024 227.511 75.7691 216.867C72.5358 206.222 71.5891 195.019 71.2756 183.898C71.1627 179.871 71.1449 175.824 71.3456 171.798C75.9884 168.052 80.0361 163.624 83.3507 158.664L90.0943 157.895L95.1156 162.082L93.152 164.552C90.3754 164.671 81.5439 165.5 76.9866 171.232C71.5368 178.084 74.2946 189.346 74.2946 189.346C74.2946 189.346 84.5452 189.477 90.3001 183.793C91.0463 185.447 92.9409 187.256 95.5169 189.104C93.4874 199.257 92.7841 214.831 98.4962 220.187C100.233 221.815 102.62 223.217 102.467 222.956C97.5369 214.214 99.6269 203.359 103.531 193.958C104.785 194.629 106.085 195.29 107.398 195.943C107.172 200.363 107.99 204.773 109.786 208.818C111.582 212.862 114.306 216.427 117.736 219.222C121.167 222.018 125.208 223.966 129.531 224.909C133.855 225.852 138.34 225.763 142.623 224.65C138.229 227.117 133.536 229.011 128.66 230.284C116.149 233.493 102.547 233.11 91.7318 226.049C90.8634 225.533 89.926 224.544 88.6333 223.78C90.855 234.593 100.954 242.721 111.833 244.598L113.161 251.816C113.344 253.025 113.617 254.219 113.976 255.388C106.358 253.406 99.2614 249.792 93.1771 244.798H93.1812Z" stroke="#E3DEE6" stroke-width="3.745" stroke-miterlimit="10"/>
<path d="M199.889 179.419L193.548 176.25L190.18 182.987L196.522 186.157L199.889 179.419Z" fill="#19254F"/>
<path d="M207.249 192.04L205.006 185.315L197.86 187.698L200.103 194.423L207.249 192.04Z" fill="#19254F"/>
<path d="M203.528 206.168L206.697 199.827L199.96 196.459L196.79 202.801L203.528 206.168Z" fill="#19254F"/>
<path d="M190.907 213.528L197.632 211.285L195.249 204.139L188.524 206.382L190.907 213.528Z" fill="#19254F"/>
<path d="M176.778 209.807L183.12 212.976L186.487 206.239L180.146 203.069L176.778 209.807Z" fill="#19254F"/>
<path d="M169.419 197.187L171.662 203.912L178.808 201.529L176.565 194.804L169.419 197.187Z" fill="#19254F"/>
<path d="M173.139 183.057L169.97 189.398L176.707 192.766L179.877 186.424L173.139 183.057Z" fill="#19254F"/>
<path d="M185.761 175.698L179.036 177.941L181.419 185.087L188.144 182.844L185.761 175.698Z" fill="#19254F"/>
<path d="M188.334 208.975C196.084 208.975 202.366 202.692 202.366 194.943C202.366 187.194 196.084 180.912 188.334 180.912C180.585 180.912 174.303 187.194 174.303 194.943C174.303 202.692 180.585 208.975 188.334 208.975Z" fill="#19254F"/>
<path d="M188.334 201.258C191.822 201.258 194.65 198.431 194.65 194.943C194.65 191.455 191.822 188.628 188.334 188.628C184.847 188.628 182.019 191.455 182.019 194.943C182.019 198.431 184.847 201.258 188.334 201.258Z" fill="#6E547F"/>
<path d="M131.621 258.851L154.469 257.094L169.406 237.761L176.876 207.884L198.05 188.032C176.875 192.944 141.266 248.364 111.836 244.598L113.164 251.816L120.633 259.285L131.617 258.846" fill="#F49727"/>
<path d="M261.636 163.991C270.425 155.775 276.709 144.714 278.39 132.801C280.071 120.888 276.927 108.202 269.211 98.9758C265.739 94.9747 261.688 91.515 257.193 88.7117C229.099 70.5053 189.544 72.215 162.668 92.5166C189.855 88.8277 218.472 88.6615 243.64 99.5736C251.402 102.939 258.946 107.516 263.809 114.445C269.67 122.798 270.92 133.934 268.093 143.737C265.267 153.54 258.641 162.008 250.44 168.078C254.538 168.084 258.506 166.636 261.636 163.991Z" fill="#50B1C2"/>
<path d="M118.588 256.385C105.115 259.253 90.6941 255.248 79.5239 247.189C68.3537 239.13 60.2527 227.323 55.0109 214.584C50.0954 202.571 47.6097 189.703 47.6974 176.723C47.7851 163.744 50.4445 150.91 55.5219 138.965C65.855 115.222 86.4419 96.0592 111.012 87.8861C102.286 101.246 93.9741 114.866 86.0751 128.746C80.7842 138.04 75.6249 147.586 73.1733 157.995C71.1805 166.448 71.0321 175.223 71.2745 183.902C71.588 195.024 72.5358 206.226 75.7681 216.871C79.0003 227.515 84.6654 237.637 93.1771 244.798C100.493 250.808 109.253 254.802 118.588 256.385Z" fill="#028EA7"/>
<path d="M208.923 37.8067C208.913 36.3728 209.216 34.954 209.811 33.6493C210.406 32.3445 211.278 31.185 212.367 30.2519C213.455 29.3187 214.734 28.6341 216.115 28.246C217.495 27.8578 218.944 27.7754 220.359 28.0044C221.717 24.4441 224.038 21.3315 227.063 19.0143C230.088 16.6971 233.697 15.2666 237.488 14.8827C241.279 14.4988 245.102 15.1766 248.53 16.8403C251.958 18.5041 254.856 21.0882 256.9 24.304C259.27 23.8109 261.735 24.0569 263.961 25.009C266.186 25.961 268.066 27.5731 269.347 29.6276C270.627 31.6821 271.247 34.08 271.121 36.4977C270.995 38.9153 270.131 41.2361 268.644 43.1468H210.491C209.467 41.5539 208.923 39.7002 208.923 37.8067Z" fill="#533468"/>
<path d="M180.287 60.1126H224.192L240.851 76.7713V114.607" stroke="#19254F" stroke-width="2.23" stroke-miterlimit="10"/>
<path d="M224.322 106.859V93.3004L240.851 76.7713L255.83 91.7506V105.826" stroke="#19254F" stroke-width="2.23" stroke-miterlimit="10"/>
<path d="M224.708 109.958C226.563 109.958 228.066 108.455 228.066 106.6C228.066 104.746 226.563 103.243 224.708 103.243C222.854 103.243 221.351 104.746 221.351 106.6C221.351 108.455 222.854 109.958 224.708 109.958Z" fill="#19254F"/>
<path d="M185.001 128.207V114.648L201.53 98.119L209.806 106.453V113.966" stroke="#19254F" stroke-width="2.23" stroke-miterlimit="10"/>
<path d="M185.389 131.307C187.243 131.307 188.746 129.803 188.746 127.949C188.746 126.095 187.243 124.591 185.389 124.591C183.534 124.591 182.031 126.095 182.031 127.949C182.031 129.803 183.534 131.307 185.389 131.307Z" fill="#19254F"/>
<path d="M209.658 118.109C211.512 118.109 213.016 116.606 213.016 114.751C213.016 112.897 211.512 111.394 209.658 111.394C207.804 111.394 206.3 112.897 206.3 114.751C206.3 116.606 207.804 118.109 209.658 118.109Z" fill="#19254F"/>
<path d="M217.482 86.2402C219.337 86.2402 220.84 84.7369 220.84 82.8825C220.84 81.0282 219.337 79.5249 217.482 79.5249C215.628 79.5249 214.125 81.0282 214.125 82.8825C214.125 84.7369 215.628 86.2402 217.482 86.2402Z" fill="#19254F"/>
<path d="M186.996 99.0501C188.85 99.0501 190.353 97.5468 190.353 95.6924C190.353 93.838 188.85 92.3348 186.996 92.3348C185.141 92.3348 183.638 93.838 183.638 95.6924C183.638 97.5468 185.141 99.0501 186.996 99.0501Z" fill="#19254F"/>
<path d="M172.271 98.7543C174.126 98.7543 175.629 97.251 175.629 95.3967C175.629 93.5423 174.126 92.039 172.271 92.039C170.417 92.039 168.914 93.5423 168.914 95.3967C168.914 97.251 170.417 98.7543 172.271 98.7543Z" fill="#19254F"/>
<path d="M240.851 117.448C242.705 117.448 244.208 115.944 244.208 114.09C244.208 112.236 242.705 110.732 240.851 110.732C238.996 110.732 237.493 112.236 237.493 114.09C237.493 115.944 238.996 117.448 240.851 117.448Z" fill="#19254F"/>
<path d="M255.959 109.313C257.813 109.313 259.316 107.81 259.316 105.956C259.316 104.101 257.813 102.598 255.959 102.598C254.104 102.598 252.601 104.101 252.601 105.956C252.601 107.81 254.104 109.313 255.959 109.313Z" fill="#19254F"/>
<path d="M201.53 98.119V58.2421" stroke="#19254F" stroke-width="2.23" stroke-miterlimit="10"/>
<path d="M201.876 71.5984L186.849 86.6258V95.1824" stroke="#19254F" stroke-width="2.23" stroke-miterlimit="10"/>
<path d="M184.971 66.3807L172.24 79.1122V95.1825" stroke="#19254F" stroke-width="2.23" stroke-miterlimit="10"/>
<path d="M217.529 63.8768V81.825" stroke="#19254F" stroke-width="2.23" stroke-miterlimit="10"/>
<path d="M257.888 61.4168C257.903 59.2311 257.441 57.0684 256.535 55.0794C255.628 53.0904 254.299 51.323 252.64 49.9004C250.98 48.4778 249.031 47.4341 246.927 46.8422C244.822 46.2502 242.615 46.1243 240.457 46.473C238.387 41.0462 234.85 36.3016 230.239 32.7694C225.628 29.2373 220.126 27.0567 214.348 26.4712C208.569 25.8858 202.742 26.9186 197.516 29.4542C192.291 31.9898 187.873 35.9284 184.757 40.8299C182.133 40.2888 179.421 40.3386 176.818 40.9757C174.216 41.6128 171.787 42.8212 169.71 44.5132C167.632 46.2053 165.957 48.3386 164.806 50.7583C163.655 53.1781 163.057 55.8237 163.055 58.5033C163.054 62.5074 164.391 66.397 166.855 69.5533H255.501C257.06 67.126 257.889 64.3017 257.888 61.4168Z" fill="#6E547F"/>
<path d="M129.993 106.662C136.394 104.589 142.518 101.744 148.232 98.191C153.014 95.2159 157.959 90.832 157.741 85.2046C157.574 84.0074 157.523 82.7969 157.589 81.5899C157.944 79.3169 159.927 77.669 161.918 76.5152C170.564 71.5075 181.691 71.6444 189.704 65.6763C192.467 63.6197 194.825 59.7197 192.826 56.917C191.691 55.3275 189.586 54.8123 187.66 54.5134C174.719 52.5206 161.351 55.2293 149.382 60.5411C137.414 65.8529 126.718 73.6738 116.747 82.1594C108.38 89.2791 100.391 96.9788 94.1322 106.009C87.8736 115.039 83.3873 125.507 82.6025 136.469C82.5241 137.57 82.5785 138.879 83.495 139.5C84.8357 140.401 86.5088 139.018 87.5235 137.761C93.2596 130.655 99.1379 123.58 106.213 117.81C113.287 112.041 122.057 109.231 129.993 106.662Z" fill="#A8D8E1"/>
<path d="M88.0576 72.5149L79.5751 68.616" stroke="#411F58" stroke-width="2.072" stroke-miterlimit="10" stroke-linecap="round"/>
<path d="M61.0814 66.3838L69.5074 74.1545L79.502 68.5428L77.2531 57.3036L65.8687 55.9691" stroke="#411F58" stroke-width="2.072" stroke-miterlimit="10" stroke-linecap="round"/>
<path d="M127.898 94.8157L149.76 131.476" stroke="#543568" stroke-width="10.361" stroke-miterlimit="10" stroke-linecap="round"/>
<path d="M90.3618 74.2528L127.695 94.9452" stroke="#6E537F" stroke-width="10.361" stroke-miterlimit="10" stroke-linecap="round"/>
<path d="M90.3618 75.6375C91.1265 75.6375 91.7465 75.0175 91.7465 74.2528C91.7465 73.4881 91.1265 72.8682 90.3618 72.8682C89.5971 72.8682 88.9772 73.4881 88.9772 74.2528C88.9772 75.0175 89.5971 75.6375 90.3618 75.6375Z" fill="#7A628A" stroke="#35114E" stroke-width="1.369" stroke-miterlimit="10"/>
<path d="M127.695 96.3298C128.46 96.3298 129.08 95.7099 129.08 94.9452C129.08 94.1805 128.46 93.5605 127.695 93.5605C126.93 93.5605 126.31 94.1805 126.31 94.9452C126.31 95.7099 126.93 96.3298 127.695 96.3298Z" fill="#7A628A" stroke="#35114E" stroke-width="1.369" stroke-miterlimit="10"/>
<path d="M135.125 142.227C134.933 140.151 135.151 138.058 135.767 136.067C136.384 134.075 137.386 132.225 138.718 130.621C140.05 129.017 141.684 127.691 143.528 126.719C145.372 125.747 147.39 125.147 149.466 124.955C151.541 124.762 153.635 124.98 155.626 125.597C157.617 126.213 159.468 127.216 161.072 128.547C162.676 129.879 164.002 131.513 164.974 133.358C165.946 135.202 166.546 137.219 166.738 139.295" fill="#9F88A8"/>
<path d="M102.47 222.96C97.1189 213.472 100.032 201.489 104.56 191.584C111.859 175.637 123.404 161.217 138.832 152.876C154.26 144.535 173.782 142.959 189.354 151.025C188.509 147.309 185.019 144.84 181.594 143.167C164.62 134.873 144.609 135.037 128.872 145.491C113.135 155.944 102.473 165.915 96.7991 183.935C93.9933 192.848 91.6733 213.799 98.49 220.191C100.236 221.819 102.618 223.222 102.47 222.96Z" fill="#F7B15D"/>
<path d="M135.565 225.563C151.133 225.563 163.754 212.943 163.754 197.375C163.754 181.807 151.133 169.187 135.565 169.187C119.997 169.187 107.377 181.807 107.377 197.375C107.377 212.943 119.997 225.563 135.565 225.563Z" fill="#533468"/>
<path d="M175.811 212.947C177.167 209.264 159.459 199.353 136.259 190.811C113.059 182.269 93.1518 178.331 91.7956 182.014C90.4394 185.698 108.147 195.608 131.348 204.15C154.548 212.692 174.455 216.631 175.811 212.947Z" stroke="#7C648C" stroke-width="3.45" stroke-miterlimit="10"/>
<path d="M109.113 187.635C111.696 180.62 116.96 174.917 123.747 171.783C127.108 170.231 130.742 169.356 134.44 169.209C138.139 169.061 141.831 169.643 145.305 170.922C148.778 172.201 151.966 174.152 154.686 176.663C157.406 179.174 159.605 182.196 161.157 185.557C162.709 188.918 163.584 192.551 163.731 196.25C163.879 199.949 163.297 203.641 162.018 207.114" fill="#533468"/>
<path d="M139.275 318.098C133.527 309.319 142.185 292.012 140.209 279.089L135.571 258.261L155.079 253.444L172.419 225.508L184.465 198.775L204.216 192.755L240.823 187.457L244.192 197.62C245.619 201.335 246.283 205.298 246.144 209.275C246.005 213.251 245.066 217.159 243.383 220.764C248.456 228.169 254.916 235.021 259.988 242.425C261.204 244.201 260.921 248.006 259.218 249.322C258.173 250.127 256.67 249.81 255.393 250.149C252.094 251.026 251.65 254.872 251.57 258.285C251.187 272.076 245.715 285.237 236.208 295.235C235.324 296.262 234.243 297.101 233.028 297.701C231.399 298.253 229.659 298.391 227.964 298.102C218.58 297.17 209.378 294.445 200.086 290.862C195.768 300.366 193.982 310.824 194.902 321.222C179.762 324.128 145.026 326.882 139.275 318.098Z" fill="#EEB581"/>
<path d="M158.28 257.555C154.613 266.45 148.939 274.376 141.701 280.714C132.911 276.626 125.002 270.861 118.42 263.744C114.052 258.846 113.174 251.816 113.174 251.816L155.079 253.444L158.28 257.555Z" fill="#F49727"/>
<path d="M91.7391 226.049C102.554 233.11 116.156 233.493 128.667 230.284C141.178 227.074 152.29 219.476 161.021 209.958C160.624 221.121 152.579 230.72 143.237 236.842C134.004 242.893 122.719 246.475 111.84 244.598C100.961 242.721 90.8624 234.593 88.6365 223.78C89.9333 224.544 90.8707 225.533 91.7391 226.049Z" fill="#B0DCE4"/>
<path d="M254.971 188.193C253.005 180.132 246.962 173.509 239.833 169.266C239.994 170.128 239.116 170.792 238.353 171.225L231 175.405C240.587 186.261 245.768 200.309 245.526 214.789C254.226 207.355 256.936 196.255 254.971 188.193Z" fill="#F49727"/>
<path d="M207.691 223.188C210.377 225.397 213.659 226.758 217.12 227.097C220.582 227.436 224.065 226.737 227.129 225.091V225.881" stroke="#C98E5D" stroke-width="2.581" stroke-miterlimit="10" stroke-linecap="round"/>
<path d="M241.13 270.973C238.05 272.932 233.919 272.51 230.672 270.848C227.425 269.187 224.862 266.467 222.371 263.802" stroke="#C98E5D" stroke-width="2.581" stroke-miterlimit="10" stroke-linecap="round"/>
<path d="M182.031 209.108C187.465 201.166 197.398 197.52 206.946 196.285C216.495 195.05 226.24 195.732 235.729 194.104C254.774 190.837 272.218 177.168 277.941 158.713C283.663 140.258 276.043 117.944 259.175 108.518C266.554 116.036 269.229 126.929 270.637 137.369C271.695 145.214 272.152 153.492 269.011 160.757C266.085 167.524 260.356 172.651 254.43 177.036C247.989 181.801 240.919 186.043 233.056 187.59C221.574 189.847 209.598 186.148 198.048 188.042C192.052 189.086 186.405 191.584 181.598 195.318C176.792 199.051 172.975 203.906 170.48 209.456C166.914 217.607 166.405 226.834 162.904 235.012C155.811 251.557 135.538 261.156 118.246 256.155C127.924 260.589 138.664 262.175 149.21 260.728C156.212 259.754 163.143 256.844 167.498 251.281C181.029 233.998 174.255 220.473 182.031 209.108Z" fill="#028EA7"/>
<path d="M217.405 183.947C219.321 183.807 221.174 183.2 222.803 182.18C224.431 181.161 225.786 179.758 226.749 178.096C227.712 176.433 228.255 174.56 228.33 172.64C228.404 170.72 228.009 168.811 227.178 167.079C225.088 162.711 220.587 160.09 216.292 157.846C211.743 155.325 206.95 153.274 201.987 151.724C208.31 150.004 214.969 149.93 221.329 151.511C227.688 153.092 233.538 156.274 238.32 160.755C241.009 163.178 243.078 166.21 244.354 169.597C244.978 171.293 245.233 173.103 245.101 174.905C244.97 176.707 244.454 178.461 243.59 180.047C241.31 183.869 236.71 185.818 232.267 186.057C227.824 186.297 223.444 185.081 217.405 183.947Z" fill="#F49727"/>
<path d="M245.901 124.397H245.668C245.63 125.67 245.107 126.881 244.206 127.782C243.305 128.683 242.094 129.206 240.821 129.244V129.478C242.094 129.516 243.305 130.039 244.206 130.94C245.107 131.841 245.63 133.052 245.668 134.326H245.901C245.94 133.052 246.463 131.841 247.364 130.94C248.265 130.04 249.476 129.516 250.749 129.478V129.244C249.476 129.205 248.265 128.683 247.364 127.782C246.463 126.881 245.94 125.67 245.901 124.397Z" fill="#B0DCE4"/>
<path d="M20.9485 181.953H20.7155C20.6772 183.227 20.1542 184.437 19.2534 185.338C18.3526 186.239 17.142 186.762 15.8687 186.8V187.034C17.142 187.073 18.3526 187.596 19.2534 188.496C20.1542 189.397 20.6772 190.608 20.7155 191.881H20.9485C20.9873 190.608 21.5105 189.397 22.4114 188.497C23.3123 187.596 24.523 187.073 25.7963 187.034V186.8C24.523 186.762 23.3123 186.239 22.4114 185.338C21.5105 184.437 20.9873 183.227 20.9485 181.953Z" fill="#B0DCE4"/>
<path d="M47.2799 223.254H46.9601C46.9076 224.997 46.1918 226.654 44.9587 227.887C43.7256 229.12 42.0683 229.836 40.3253 229.889V230.209C42.0683 230.262 43.7256 230.978 44.9587 232.211C46.1918 233.444 46.9076 235.101 46.9601 236.844H47.2799C47.3323 235.101 48.0484 233.444 49.2817 232.21C50.515 230.977 52.1725 230.262 53.9157 230.209V229.889C52.1726 229.836 50.5152 229.12 49.2819 227.887C48.0487 226.654 47.3326 224.997 47.2799 223.254Z" fill="#B0DCE4"/>
<path d="M57.3256 239.51H57.0894C57.0506 240.798 56.5216 242.022 55.6105 242.933C54.6995 243.844 53.475 244.373 52.1873 244.411V244.648C53.475 244.687 54.6995 245.216 55.6105 246.127C56.5216 247.037 57.0506 248.262 57.0894 249.549H57.3256C57.3644 248.262 57.8933 247.038 58.8041 246.127C59.715 245.216 60.9392 244.687 62.2268 244.648V244.411C60.9392 244.372 59.715 243.843 58.8041 242.933C57.8933 242.022 57.3644 240.798 57.3256 239.51Z" fill="#B0DCE4"/>
<path d="M35.5767 237.313H35.3405C35.3011 238.601 34.772 239.825 33.861 240.736C32.9501 241.647 31.7259 242.175 30.4383 242.215V242.451C31.7266 242.49 32.9513 243.019 33.8624 243.931C34.7735 244.843 35.3022 246.068 35.3405 247.356H35.5756C35.6147 246.068 36.1437 244.844 37.0547 243.933C37.9657 243.022 39.19 242.493 40.4778 242.454V242.218C39.1899 242.178 37.9655 241.649 37.0547 240.737C36.1438 239.826 35.6152 238.601 35.5767 237.313Z" fill="#B0DCE4"/>
<path d="M159.201 106.237H158.966C158.927 107.51 158.404 108.721 157.503 109.622C156.602 110.522 155.392 111.046 154.118 111.084V111.318C155.392 111.356 156.602 111.88 157.503 112.78C158.404 113.681 158.927 114.892 158.966 116.165H159.199C159.238 114.892 159.76 113.681 160.661 112.78C161.562 111.879 162.773 111.356 164.046 111.318V111.086C162.773 111.046 161.563 110.523 160.662 109.622C159.762 108.721 159.239 107.51 159.201 106.237Z" fill="#B0DCE4"/>
<path d="M129.915 127.91H129.682C129.643 129.184 129.12 130.394 128.219 131.295C127.318 132.196 126.107 132.719 124.834 132.757V132.991C126.107 133.03 127.318 133.553 128.219 134.453C129.12 135.354 129.643 136.565 129.682 137.838H129.915C129.953 136.565 130.476 135.354 131.377 134.453C132.278 133.552 133.488 133.03 134.762 132.991V132.757C133.488 132.719 132.278 132.196 131.377 131.295C130.476 130.394 129.953 129.184 129.915 127.91Z" fill="#B0DCE4"/>
<path d="M83.7771 203.922H83.5441C83.5058 205.195 82.9828 206.406 82.082 207.307C81.1813 208.207 79.9706 208.73 78.6973 208.769V209.004C79.9706 209.042 81.1813 209.565 82.082 210.466C82.9828 211.367 83.5058 212.577 83.5441 213.851H83.7771C83.8159 212.577 84.3392 211.367 85.2401 210.466C86.141 209.565 87.3516 209.042 88.625 209.004V208.77C87.3514 208.731 86.1406 208.208 85.2397 207.307C84.3388 206.406 83.8157 205.195 83.7771 203.922Z" fill="#B0DCE4"/>
<path d="M176.922 102.869H176.689C176.65 104.142 176.127 105.353 175.226 106.253C174.325 107.154 173.114 107.677 171.841 107.715V107.949C173.114 107.988 174.325 108.511 175.226 109.411C176.127 110.312 176.65 111.523 176.689 112.796H176.922C176.96 111.523 177.484 110.312 178.385 109.411C179.285 108.511 180.496 107.988 181.77 107.949V107.715C180.496 107.677 179.285 107.154 178.385 106.253C177.484 105.353 176.96 104.142 176.922 102.869Z" fill="#B0DCE4"/>
<path d="M253.979 140.973H253.796C253.765 141.979 253.351 142.935 252.64 143.647C251.928 144.358 250.971 144.772 249.966 144.802V144.987C250.971 145.017 251.928 145.431 252.64 146.142C253.351 146.854 253.765 147.81 253.796 148.816H253.979C254.01 147.81 254.423 146.854 255.134 146.142C255.846 145.43 256.802 145.017 257.808 144.987V144.802C256.802 144.772 255.846 144.359 255.134 143.647C254.423 142.936 254.01 141.979 253.979 140.973Z" fill="#B0DCE4"/>
<path d="M235.796 138.457H235.566C235.528 139.73 235.005 140.941 234.104 141.841C233.203 142.742 231.993 143.265 230.719 143.303V143.538C231.993 143.576 233.203 144.099 234.104 145C235.005 145.901 235.528 147.111 235.566 148.384H235.799C235.838 147.111 236.362 145.901 237.262 145C238.163 144.099 239.374 143.576 240.647 143.538V143.303C239.373 143.266 238.162 142.743 237.26 141.842C236.359 140.941 235.835 139.731 235.796 138.457Z" fill="#B0DCE4"/>
<path d="M285.047 88.3292H284.814C284.775 89.6025 284.252 90.8132 283.352 91.714C282.451 92.6148 281.24 93.1377 279.967 93.176V93.4101C281.24 93.4484 282.451 93.9713 283.352 94.8721C284.252 95.7729 284.775 96.9836 284.814 98.2569H285.047C285.086 96.9836 285.609 95.773 286.51 94.8723C287.411 93.9716 288.621 93.4486 289.895 93.4101V93.176C288.621 93.1375 287.411 92.6145 286.51 91.7138C285.609 90.8131 285.086 89.6026 285.047 88.3292Z" fill="#B0DCE4"/>
<path d="M289.88 104.884H289.647C289.607 106.157 289.084 107.367 288.183 108.267C287.282 109.166 286.072 109.689 284.799 109.727V109.961C286.072 109.999 287.283 110.522 288.184 111.423C289.085 112.324 289.608 113.534 289.647 114.808H289.88C289.919 113.534 290.442 112.324 291.343 111.423C292.244 110.522 293.454 109.999 294.728 109.961V109.727C293.455 109.689 292.245 109.166 291.344 108.267C290.443 107.367 289.92 106.157 289.88 104.884Z" fill="#B0DCE4"/>
<path d="M296.58 81.1583H296.422C296.397 82.0195 296.044 82.8387 295.435 83.4483C294.827 84.0579 294.008 84.4118 293.147 84.4375V84.5964C294.007 84.6223 294.824 84.9755 295.433 85.5837C296.041 86.192 296.395 87.0095 296.421 87.8694H296.579C296.604 87.0093 296.958 86.1915 297.566 85.5831C298.175 84.9748 298.993 84.6218 299.853 84.5964V84.4375C298.992 84.4117 298.173 84.0578 297.565 83.4481C296.956 82.8385 296.604 82.0193 296.58 81.1583Z" fill="#B0DCE4"/>
<path d="M168.91 136.456L161.176 138.248L163.081 146.466L170.815 144.673L168.91 136.456Z" fill="#6E547F"/>
<path d="M184.269 142.091L177.533 137.89L173.069 145.047L179.806 149.249L184.269 142.091Z" fill="#6E547F"/>
<path d="M191.146 156.94L189.354 149.206L181.136 151.111L182.929 158.845L191.146 156.94Z" fill="#6E547F"/>
<path d="M185.51 172.3L189.711 165.564L182.553 161.1L178.352 167.837L185.51 172.3Z" fill="#6E547F"/>
<path d="M170.662 179.177L178.396 177.384L176.491 169.166L168.757 170.959L170.662 179.177Z" fill="#6E547F"/>
<path d="M155.301 173.539L162.037 177.74L166.501 170.583L159.765 166.381L155.301 173.539Z" fill="#6E547F"/>
<path d="M148.425 158.692L150.218 166.426L158.436 164.521L156.643 156.787L148.425 158.692Z" fill="#6E547F"/>
<path d="M154.062 143.331L149.861 150.068L157.019 154.531L161.22 147.795L154.062 143.331Z" fill="#6E547F"/>
<path d="M170.021 173.814C178.699 173.814 185.734 166.779 185.734 158.101C185.734 149.423 178.699 142.388 170.021 142.388C161.343 142.388 154.309 149.423 154.309 158.101C154.309 166.779 161.343 173.814 170.021 173.814Z" fill="#19254F"/>
<path d="M170.022 165.173C173.927 165.173 177.093 162.007 177.093 158.101C177.093 154.195 173.927 151.029 170.022 151.029C166.116 151.029 162.95 154.195 162.95 158.101C162.95 162.007 166.116 165.173 170.022 165.173Z" fill="#6E547F"/>
<path d="M170.021 162.219C172.296 162.219 174.14 160.376 174.14 158.101C174.14 155.826 172.296 153.983 170.021 153.983C167.747 153.983 165.903 155.826 165.903 158.101C165.903 160.376 167.747 162.219 170.021 162.219Z" fill="#19254F"/>
<path d="M197.203 147.732L194.272 149.902L199.335 156.741L202.266 154.571L197.203 147.732Z" fill="#6E547F"/>
<path d="M211.255 145.654L207.648 145.115L206.389 153.531L209.996 154.07L211.255 145.654Z" fill="#6E547F"/>
<path d="M222.831 154.04L220.661 151.108L213.821 156.172L215.991 159.103L222.831 154.04Z" fill="#6E547F"/>
<path d="M224.985 168.16L225.524 164.553L217.107 163.297L216.569 166.904L224.985 168.16Z" fill="#6E547F"/>
<path d="M216.523 179.669L219.455 177.499L214.392 170.659L211.46 172.829L216.523 179.669Z" fill="#6E547F"/>
<path d="M202.402 181.822L206.009 182.361L207.265 173.944L203.658 173.406L202.402 181.822Z" fill="#6E547F"/>
<path d="M190.895 173.361L193.065 176.293L199.905 171.23L197.735 168.298L190.895 173.361Z" fill="#6E547F"/>
<path d="M188.741 159.24L188.202 162.847L196.619 164.103L197.157 160.496L188.741 159.24Z" fill="#6E547F"/>
<path d="M206.863 177.072C214.248 177.072 220.235 171.085 220.235 163.7C220.235 156.315 214.248 150.328 206.863 150.328C199.477 150.328 193.491 156.315 193.491 163.7C193.491 171.085 199.477 177.072 206.863 177.072Z" fill="#19254F"/>
<path d="M206.863 172.537C211.743 172.537 215.699 168.581 215.699 163.7C215.699 158.82 211.743 154.864 206.863 154.864C201.982 154.864 198.026 158.82 198.026 163.7C198.026 168.581 201.982 172.537 206.863 172.537Z" fill="#6E547F"/>
<path d="M264.624 63.464L273.773 58.2682L278.605 66.7757L283.436 75.2832L292.586 70.0874L287.753 61.5799" stroke="#BBAFC3" stroke-width="1.384" stroke-miterlimit="10"/>
<path d="M264.624 65.6628C265.838 65.6628 266.823 64.6784 266.823 63.464C266.823 62.2497 265.838 61.2653 264.624 61.2653C263.41 61.2653 262.425 62.2497 262.425 63.464C262.425 64.6784 263.41 65.6628 264.624 65.6628Z" fill="#6E547F"/>
<path d="M273.773 60.4669C274.987 60.4669 275.972 59.4825 275.972 58.2682C275.972 57.0539 274.987 56.0695 273.773 56.0695C272.559 56.0695 271.574 57.0539 271.574 58.2682C271.574 59.4825 272.559 60.4669 273.773 60.4669Z" fill="#6E547F"/>
<path d="M282.922 55.271C284.137 55.271 285.121 54.2866 285.121 53.0723C285.121 51.858 284.137 50.8736 282.922 50.8736C281.708 50.8736 280.724 51.858 280.724 53.0723C280.724 54.2866 281.708 55.271 282.922 55.271Z" fill="#6E547F"/>
<path d="M269.456 74.1703C270.67 74.1703 271.655 73.1859 271.655 71.9716C271.655 70.7572 270.67 69.7728 269.456 69.7728C268.242 69.7728 267.257 70.7572 267.257 71.9716C267.257 73.1859 268.242 74.1703 269.456 74.1703Z" fill="#6E547F"/>
<path d="M278.605 68.9744C279.82 68.9744 280.804 67.99 280.804 66.7757C280.804 65.5614 279.82 64.577 278.605 64.577C277.391 64.577 276.407 65.5614 276.407 66.7757C276.407 67.99 277.391 68.9744 278.605 68.9744Z" fill="#6E547F"/>
<path d="M287.753 63.7785C288.968 63.7785 289.952 62.7941 289.952 61.5798C289.952 60.3655 288.968 59.3811 287.753 59.3811C286.539 59.3811 285.555 60.3655 285.555 61.5798C285.555 62.7941 286.539 63.7785 287.753 63.7785Z" fill="#6E547F"/>
<path d="M274.287 82.6777C275.502 82.6777 276.486 81.6933 276.486 80.479C276.486 79.2647 275.502 78.2803 274.287 78.2803C273.073 78.2803 272.089 79.2647 272.089 80.479C272.089 81.6933 273.073 82.6777 274.287 82.6777Z" fill="#6E547F"/>
<path d="M283.436 77.4819C284.651 77.4819 285.635 76.4975 285.635 75.2832C285.635 74.0689 284.651 73.0845 283.436 73.0845C282.222 73.0845 281.238 74.0689 281.238 75.2832C281.238 76.4975 282.222 77.4819 283.436 77.4819Z" fill="#6E547F"/>
<path d="M292.586 72.286C293.8 72.286 294.784 71.3017 294.784 70.0873C294.784 68.873 293.8 67.8886 292.586 67.8886C291.371 67.8886 290.387 68.873 290.387 70.0873C290.387 71.3017 291.371 72.286 292.586 72.286Z" fill="#6E547F"/>
<path d="M24.5706 209.727C24.5706 209.727 30.2607 199.625 38.9239 198.353C47.5871 197.081 55.942 205.122 55.942 205.122C55.942 205.122 50.2509 215.224 41.5876 216.496C32.9244 217.767 24.5706 209.727 24.5706 209.727Z" fill="#6E547F"/>
<path d="M59.261 204.634L29.9304 208.94" stroke="#270041" stroke-width="1.29" stroke-miterlimit="10"/>
<path d="M34.4783 203.152L40.1486 207.37" stroke="#270041" stroke-width="1.29" stroke-miterlimit="10"/>
<path d="M45.7227 206.691L40.4349 213.798" stroke="#270041" stroke-width="1.29" stroke-miterlimit="10"/>
<path d="M51.2781 205.875L45.451 201.54" stroke="#270041" stroke-width="1.29" stroke-miterlimit="10"/>
<path d="M23.4335 164.818C23.4335 164.818 38.9427 180.738 55.6201 178.836C72.2976 176.934 83.8221 157.936 83.8221 157.936C83.8221 157.936 68.3129 142.016 51.6355 143.918C34.958 145.82 23.4335 164.818 23.4335 164.818Z" fill="#6E547F"/>
<path d="M90.9501 157.119L27.9438 164.304" stroke="#270041" stroke-width="1.29" stroke-miterlimit="10"/>
<path d="M40.5217 173.777L49.9332 161.943" stroke="#270041" stroke-width="1.29" stroke-miterlimit="10"/>
<path d="M61.8317 160.292L46.9987 148.496" stroke="#270041" stroke-width="1.29" stroke-miterlimit="10"/>
<path d="M73.7637 158.932L64.0952 171.09" stroke="#270041" stroke-width="1.29" stroke-miterlimit="10"/>
<path d="M74.2925 189.35C74.2925 189.35 85.886 189.502 91.3368 182.648C96.7876 175.795 94.0288 164.534 94.0288 164.534C94.0288 164.534 82.4343 164.383 76.9845 171.236C71.5347 178.089 74.2925 189.35 74.2925 189.35Z" fill="#6E547F"/>
<path d="M96.1167 161.908L77.6648 185.111" stroke="#270041" stroke-width="1.29" stroke-miterlimit="10"/>
<path d="M84.9538 184.084L84.1533 177.062" stroke="#270041" stroke-width="1.29" stroke-miterlimit="10"/>
<path d="M87.5402 172.583L78.738 173.586" stroke="#270041" stroke-width="1.29" stroke-miterlimit="10"/>
<path d="M51.7525 102.025C51.7525 102.025 45.2118 123.266 54.8719 136.992C64.5321 150.717 86.7346 151.726 86.7346 151.726C86.7346 151.726 93.2753 130.485 83.6204 116.76C73.9655 103.035 51.7525 102.025 51.7525 102.025Z" fill="#533468"/>
<path d="M90.8655 157.595L54.3651 105.738" stroke="#270041" stroke-width="1.29" stroke-miterlimit="10"/>
<path d="M52.0786 121.317L66.9743 123.906" stroke="#270041" stroke-width="1.29" stroke-miterlimit="10"/>
<path d="M74.1264 133.559L77.3712 114.887" stroke="#270041" stroke-width="1.29" stroke-miterlimit="10"/>
<path d="M81.0381 143.379L65.7338 140.719" stroke="#270041" stroke-width="1.29" stroke-miterlimit="10"/>
<path d="M89.8644 156.826L115.3 178.059" stroke="#270041" stroke-width="1.29" stroke-miterlimit="10"/>
<path d="M98.4325 102.551C98.4325 102.551 82.5127 118.06 84.4146 134.737C86.3166 151.415 105.315 162.939 105.315 162.939C105.315 162.939 121.235 147.43 119.333 130.753C117.431 114.075 98.4325 102.551 98.4325 102.551Z" fill="#6E547F"/>
<path d="M106.132 170.067L98.9467 107.061" stroke="#270041" stroke-width="1.29" stroke-miterlimit="10"/>
<path d="M89.4735 119.639L101.307 129.05" stroke="#270041" stroke-width="1.29" stroke-miterlimit="10"/>
<path d="M102.958 140.949L114.755 126.116" stroke="#270041" stroke-width="1.29" stroke-miterlimit="10"/>
<path d="M104.319 152.881L92.1613 143.212" stroke="#270041" stroke-width="1.29" stroke-miterlimit="10"/>
<path d="M203.698 131.243L202.425 135.92" stroke="#36114E" stroke-width="1.675" stroke-miterlimit="10" stroke-linecap="round"/>
<path d="M208.689 132.601L207.417 137.279" stroke="#36114E" stroke-width="1.675" stroke-miterlimit="10" stroke-linecap="round"/>
<path d="M213.68 133.96L212.406 138.637" stroke="#36114E" stroke-width="1.675" stroke-miterlimit="10" stroke-linecap="round"/>
<path d="M211.062 104.188L209.789 108.866" stroke="#36114E" stroke-width="1.675" stroke-miterlimit="10" stroke-linecap="round"/>
<path d="M216.053 105.547L214.78 110.224" stroke="#36114E" stroke-width="1.675" stroke-miterlimit="10" stroke-linecap="round"/>
<path d="M221.044 106.905L219.771 111.583" stroke="#36114E" stroke-width="1.675" stroke-miterlimit="10" stroke-linecap="round"/>
<path d="M221.564 129.45L226.241 130.722" stroke="#36114E" stroke-width="1.675" stroke-miterlimit="10" stroke-linecap="round"/>
<path d="M222.922 124.459L227.6 125.732" stroke="#36114E" stroke-width="1.675" stroke-miterlimit="10" stroke-linecap="round"/>
<path d="M224.281 119.468L228.958 120.74" stroke="#36114E" stroke-width="1.675" stroke-miterlimit="10" stroke-linecap="round"/>
<path d="M194.51 122.085L199.188 123.358" stroke="#36114E" stroke-width="1.675" stroke-miterlimit="10" stroke-linecap="round"/>
<path d="M195.869 117.094L200.547 118.367" stroke="#36114E" stroke-width="1.675" stroke-miterlimit="10" stroke-linecap="round"/>
<path d="M197.228 112.103L201.904 113.376" stroke="#36114E" stroke-width="1.675" stroke-miterlimit="10" stroke-linecap="round"/>
<path d="M227.912 112.529L202.306 105.551L195.513 130.476L221.118 137.455L227.912 112.529Z" fill="#9C8AA8"/>
<path d="M221.2 115.929L206.435 111.91L202.441 126.584L217.206 130.603L221.2 115.929Z" fill="#6E547F"/>
<path d="M254.168 248.053C252.108 247.531 248.998 251.502 247.355 250.097" stroke="#C98E5D" stroke-width="1.29" stroke-miterlimit="10" stroke-linecap="round"/>
<path d="M126.504 175.422L145.396 180.915" stroke="#270041" stroke-width="1.29" stroke-miterlimit="10"/>
<path d="M157.918 203.761L137.487 197.391" stroke="#270041" stroke-width="1.29" stroke-miterlimit="10"/>
<path d="M153.304 191.678L136.609 186.846" stroke="#270041" stroke-width="1.29" stroke-miterlimit="10"/>
<path d="M115.52 206.836L131.116 213.208" stroke="#270041" stroke-width="1.29" stroke-miterlimit="10"/>
<path d="M121.671 188.384L115.52 186.406" stroke="#270041" stroke-width="1.29" stroke-miterlimit="10"/>
<path d="M137.268 223.093L129.799 220.017" stroke="#270041" stroke-width="1.29" stroke-miterlimit="10"/>
</g>
<defs>
<clipPath id="clip0">
<rect width="307.935" height="326" fill="white" transform="translate(0.0188599)"/>
</clipPath>
</defs>
</svg>
