<svg xmlns="http://www.w3.org/2000/svg" viewBox="0 0 401.42 397.19"><defs><style>.cls-1{fill:#a291ad;}</style></defs><g id="ferdige"><path class="cls-1" d="M275.51,248.32h.6v-1.78l-.89.5a15,15,0,0,1-2.08,1,16.4,16.4,0,0,1-15.06-2.09c-.27-.2-.53-.4-.78-.62l-.79.91a17.14,17.14,0,0,0,11.11,4,16.79,16.79,0,0,0,7.75-1.84Z"/><path class="cls-1" d="M288.18,291.2c-2.93,1.6-6.54.88-9-.38a26.6,26.6,0,0,1-6.94-5.72l-.84-.9-.44.41-.44.41c2.29,2.45,4.87,5.21,8.11,6.87a13,13,0,0,0,5.76,1.43,8.91,8.91,0,0,0,4.84-1.34l-.64-1Z"/><path class="cls-1" d="M298.55,271.18c.94-.57,2-1.23,2.68-1.06l.29-1.16c-1.16-.29-2.4.47-3.6,1.2s-2.16,1.32-2.67.88l-.39.46h0l-.39.45a1.75,1.75,0,0,0,1.17.44A6.27,6.27,0,0,0,298.55,271.18Z"/><path class="cls-1" d="M325.15,159.34c1.68-11.89-1.65-24.16-8.92-32.84a50.86,50.86,0,0,0-11.63-9.94,72.38,72.38,0,0,0-9.23-5l-6.74-6.73h0l-5.45-5.46H303l.18-.27a15.07,15.07,0,0,0-12.7-23.2,13.31,13.31,0,0,0-1.82.13c-.26-.66-.55-1.3-.85-1.93h27.73l.18-.23a11.76,11.76,0,0,0,2.52-7.3A11.94,11.94,0,0,0,306.29,54.6a11.21,11.21,0,0,0-2,.17A20.26,20.26,0,0,0,268.78,58a30.39,30.39,0,0,0-34.11,12.58,18.25,18.25,0,0,0-3.21-.29,17.89,17.89,0,0,0-17.59,14.79,79.3,79.3,0,0,0-13,4.48c-9.92,4.41-19.89,11-31.37,20.78l0,0-22-12.2A5.79,5.79,0,0,0,140,99.79l-5.22-2.4-2.18-10.93-11.33-1.32-.07.59h0l-.07.6,10.46,1.22,2,9.9-8.8,5L117,95.26l-.41.44-.41.44,8.39,7.73,9.64-5.41,5.15,2.37a5.77,5.77,0,0,0,2.45,7.45l17,9.43a89.56,89.56,0,0,0-28.09,18.49c-9.93-6.31-22.35-7-23-7l-.46,0-.14.45c-.26.84-6.24,20.76,3.07,34,.23.33.47.64.72,1l-.16.34q-.92,2.1-1.71,4.26-.77,0-1.53.12c-16.06,1.83-27,19.54-27.43,20.29l-.24.4.32.33c.51.52,10.59,10.72,23.15,13.21a96.7,96.7,0,0,0,2.45,20,17.4,17.4,0,0,0-10.43-2.18c-8.48,1.24-13.94,10.78-14.17,11.18l-.23.41.34.32c.31.3,7.13,6.78,14.86,6.78a13.78,13.78,0,0,0,1.92-.14c4.5-.66,8.14-3.66,10.61-6.38.5,1.41,1,2.8,1.6,4.18,5.51,13.39,13.69,24.27,23.66,31.46A50.8,50.8,0,0,0,163.2,279c1.4,0,2.79-.07,4.16-.2A20.44,20.44,0,0,0,171,285a70.61,70.61,0,0,0,20.83,15.54c.5,5-.48,10.61-1.45,16.07-1.4,7.9-2.73,15.37.52,20.33,3,4.53,13.09,6,24.07,6a177.32,177.32,0,0,0,29.78-2.72l.53-.1-.05-.54a57,57,0,0,1,4.68-28.23c10,3.82,18.4,6,26.3,6.76a10.35,10.35,0,0,0,5.14-.43,10.07,10.07,0,0,0,3.24-2.5,54.07,54.07,0,0,0,14.86-35.76c.08-3.32.53-6.5,3.22-7.22A8.23,8.23,0,0,1,304,272a4.51,4.51,0,0,0,2.58-.72c2-1.52,2.16-5.53.87-7.41-2.44-3.57-5.26-7-8-10.41s-5.35-6.62-7.72-10a30.78,30.78,0,0,0,1.77-5.21c8.9-7.61,11-18.56,9.22-26-.05-.21-.12-.41-.18-.62,10.52-6.35,18.68-16.08,22.15-27.28a43.08,43.08,0,0,0,.29-23.9C325,160,325.1,159.67,325.15,159.34ZM301.56,212.4h0c1.66,6.78-.13,16.55-7.64,23.76l-.2.19c0-.95,0-1.9-.09-2.86A55.36,55.36,0,0,0,290.12,217l.27-.08.57-.18a54.07,54.07,0,0,0,10.52-4.64C301.51,212.22,301.54,212.31,301.56,212.4Zm-11.05,30.78-.15.31.2.28c2.44,3.56,5.25,7,8,10.4s5.5,6.8,7.92,10.32c1,1.53.7,4.77-.61,5.79a3.7,3.7,0,0,1-1.93.48,7.92,7.92,0,0,0-1.52.2c-3.93,1.05-4.05,6-4.1,8.36a52.89,52.89,0,0,1-14.53,34.95,9,9,0,0,1-2.85,2.22,9.28,9.28,0,0,1-4.55.34c-7.93-.78-16.36-3-26.52-6.89l-.53-.2-.23.51A58.32,58.32,0,0,0,244,339.07a174,174,0,0,1-28.82,2.59h-.52c-12.41-.05-20.49-2-22.74-5.42-3-4.56-1.71-11.8-.34-19.47.93-5.25,1.89-10.66,1.54-15.62.12.06.23.13.36.18l.35.18.3-.26a60.4,60.4,0,0,0,15.58-21.4,23.35,23.35,0,0,0,9.19-6.86c7.51-9.59,8.57-18,9.51-25.43.58-4.62,1.1-8.72,3-12.56l1.95,1,1.8-3.6a13.62,13.62,0,0,0,3.18.37c.4,0,.8,0,1.2-.05l1.27,3.81,6.44-2.15L246,230.49a13.63,13.63,0,0,0,3.23-2.88l3.7,1.85,3-6.07-3.83-1.91c0-.07,0-.13,0-.19,1.42-.3,2.81-.53,4.11-.7,4.11-.53,8.35-.69,12.45-.85a113.87,113.87,0,0,0,15.12-1.24,51.91,51.91,0,0,0,5.12-1.14,54.11,54.11,0,0,1,3.56,19.74A29.09,29.09,0,0,1,290.51,243.18Zm-98.83,55.88a68.83,68.83,0,0,1-19.76-14.9,19.1,19.1,0,0,1-3.32-5.53c1.05-.14,2.09-.3,3.12-.52A54.51,54.51,0,0,0,188,282.45l.62.05.63.05c1.5.12,3,.21,4.51.21a53.79,53.79,0,0,0,7.29-.5,34.47,34.47,0,0,0,7.1-1.76,59.19,59.19,0,0,1-14.47,19.58l-.68-.35-.63-.33Zm-57.07-30.83c-9.79-7.06-17.83-17.76-23.25-30.94-.65-1.58-1.24-3.17-1.8-4.78a27.69,27.69,0,0,0,2.5-3.5l2.9-.42-.18-1.19-2.89.42a30.26,30.26,0,0,0-4.73-3.47,94.88,94.88,0,0,1-2.66-20.62,27.25,27.25,0,0,0,4.16.33,24,24,0,0,0,2.79-.16,30.2,30.2,0,0,0,14.33-6c-.14,3.58-.11,7.07,0,10.31.25,9,1,20.64,4.33,31.7,3.43,11.29,9.25,20.63,16.85,27a52.89,52.89,0,0,0,19.81,10.17l.7.19.7.18.14,0h-.12l-.62.06-.62.06C156.09,278.58,144.32,275.23,134.61,268.23ZM82.44,232.75c1.14-1.82,6.1-9.15,13-10.17,3.88-.57,7.72.91,10.65,2.59.24.13.47.27.69.41s.54.33.79.5a27.54,27.54,0,0,1,2.69,2l-2.08.3-.61.09-.31.05-.35-.27L102,224.55l-.71,1,4.33,3.23L96.81,230l-5.3-3.95-.72,1,4.34,3.22-8.42,1.24.18,1.19,13.73-2-4.25,5.71.48.36.49.36,5-6.68,5.09-.74.58-.09.63-.09,1.89-.28c-.34.51-.8,1.16-1.38,1.89l-.46.58-.44.52c-2.34,2.7-5.94,5.87-10.34,6.52C90.92,239.77,84.05,234.17,82.44,232.75ZM81.35,189.8c1.73-2.65,12.12-17.7,26.29-19.32l1-.08.63,0,.66,0a29.12,29.12,0,0,1,10.52,2,44.9,44.9,0,0,0,4.94,2.24c1.46.76,2.82,1.58,4.08,2.4l.52.34.51.35a58.86,58.86,0,0,1,6.57,5.2l-8.33,1-.63.07-.62.07-9.79,1.12-9.93-7.9-.54-.42-.47-.38-3.21-2.56-.38.47-.37.47,3.6,2.87.49.38.53.43,8.6,6.83-10.26,1.17-.67.08-.58.06L84.83,188.8,85,190l19.32-2.21.41,0-.49.6-7.74,9.74.47.38.47.37,6.51-8.19.63-.8.81-1,1-1.29,20.81-2.37h.06l-.08.1L119,195.52l.47.37.47.38,6.77-8.51.75-.95.81-1,.65-.82,8.23-.94a57.82,57.82,0,0,1-10,11.18l-.65.53-.62.49c-4.09,3.18-9,5.84-14.54,6.47a24.74,24.74,0,0,1-6.83-.22l-.67-.12-.53-.11C92.36,200,83.19,191.58,81.35,189.8Zm30.41-24.2a27.29,27.29,0,0,0,4.65,4.23,27.91,27.91,0,0,0-6.08-.69C110.78,168,111.25,166.77,111.76,165.6Zm18.09-28.52.51.33.51.34a25.48,25.48,0,0,1,6.81,6.5,23.79,23.79,0,0,1,2.2,3.89l.12.27a32.35,32.35,0,0,0-1.58,6.54,24.66,24.66,0,0,0-.23,3.34c0,.3,0,.6,0,.9v.3c0,.36,0,.73.08,1.09,0,.2,0,.4.05.59a25.52,25.52,0,0,0,.84,4.14l.18.57c.06.19.12.38.19.58a30.17,30.17,0,0,0,2.28,5.08c-.32,1.91-.67,3.45-.92,4.43l-6.11-8.68-.39-.56-.4-.56L129.69,160l3.1-17.82-.59-.1-.59-.1-2.89,16.63-7.14-10.13-.36-.52-.36-.51L110.67,133l-.49.35-.49.34,10.42,14.8.36.51.37.52.28.41-.51-.09-.65-.11-.65-.12-11.21-2-.1.6-.11.59,10.67,1.85.64.11.66.12,2.24.39,11.31,16.07.4.57.38.53-.59-.1-.61-.11-11.82-2-.11.59-.1.59,11.5,2,.62.11.61.1,1.47.26,4.77,6.77a58.52,58.52,0,0,1-8.56-1.52l-.58-.16-.59-.15c-1.38-.39-2.83-.85-4.29-1.4a42.6,42.6,0,0,1-5-2.25,28.57,28.57,0,0,1-8.6-6.79l-.43-.52-.41-.55-.3-.4c-8.21-11.67-3.87-29.43-3-32.48C110.48,130.62,121.16,131.72,129.85,137.08Zm10.63-35.75c.05-.1.08-.22.14-.32a1.53,1.53,0,0,1,.14-.21,4.57,4.57,0,0,1,6.09-1.58l21.63,12,.56.31.55.31,9.81,5.43.89.49,1.23.69,1,.58a4.58,4.58,0,0,1-2.22,8.59,4.67,4.67,0,0,1-2.22-.57l-.68-.38-1-.58-1-.54-12-6.66-.53-.29-.5-.28h0l-.52-.29-.21-.12-.35-.19-.34-.19-.69-.38-17.85-9.89A4.58,4.58,0,0,1,140.48,101.33Zm73.2-15,.62-.16.64-.16a63.42,63.42,0,0,1,14.47-1.75,54.41,54.41,0,0,1,8.23.62c1.72.27,3.59.72,4.55,2.06a3.26,3.26,0,0,1,.59,2.11,4.71,4.71,0,0,1-.23,1.2,9.26,9.26,0,0,1-3.22,4.24,24.47,24.47,0,0,1-5,2.82c-.64.28-1.3.53-2,.77l-.79.28-.94.32c-.64.21-1.29.41-1.94.6-1.17.35-2.33.67-3.49,1-4.23,1.15-8.59,2.34-12.43,4.56-2.63,1.53-4.12,3.31-4.43,5.29a9,9,0,0,0,0,2.44c0,.37.08.75.1,1.13.16,4.16-2.81,8.16-8.82,11.9a81.11,81.11,0,0,1-8.15,4.42l-6-10.11A5.77,5.77,0,0,0,182,117.3h0L170.57,111c11.26-9.55,21.05-16,30.78-20.34A76.54,76.54,0,0,1,213.68,86.38Zm17.78-14.89a16.79,16.79,0,0,1,3.38.35l.4.08.22-.35a29.12,29.12,0,0,1,30.08-13.11c.62.12,1.24.25,1.85.4s1.4.39,2.09.62a29.65,29.65,0,0,1,16.33,13.38c.11.2.2.4.31.6s.21.4.31.6a28.22,28.22,0,0,1,1.27,2.8l.17.45.48-.07a13.85,13.85,0,0,1,14,20.89H235.53a25,25,0,0,0,4.52-2.63,10,10,0,0,0,3.76-5.2,6.22,6.22,0,0,0,.18-1.2,4.55,4.55,0,0,0-.82-2.81c-1.22-1.7-3.38-2.24-5.34-2.54a60.82,60.82,0,0,0-22.69,1A16.7,16.7,0,0,1,231.46,71.49Zm72-15.74.22.35.4-.08a10.54,10.54,0,0,1,2.18-.22A10.74,10.74,0,0,1,317,66.53a10.56,10.56,0,0,1-2.09,6.33H287.16a30.83,30.83,0,0,0-17.22-14.49,19.05,19.05,0,0,1,33.55-2.62ZM234.21,230.84c.51-.6,1-1.17,1.61-1.71a30.86,30.86,0,0,1,12.67-6.92c.8-.24,1.59-.45,2.38-.63a12.47,12.47,0,0,1-1,2.87,12.24,12.24,0,0,1-1.74,2.61,12.74,12.74,0,0,1-5.67,3.83,13.22,13.22,0,0,1-3.26.62,12.33,12.33,0,0,1-3.43-.25A14,14,0,0,1,234.21,230.84Zm81.14-74.23a34.89,34.89,0,0,1-1.22,12.94c-2.52,8.72-8.44,16.88-16.68,23l-1.37,1,1.71.06h.53a17.25,17.25,0,0,0,10.57-4.05l0,0a55.22,55.22,0,0,0,7.67-8.86,25.3,25.3,0,0,1-1.57,5.08c-2.9,6.72-8.88,11.72-13.76,15.34-.95.7-1.89,1.37-2.8,2a32.82,32.82,0,0,0-5.24-5.69,14.6,14.6,0,0,0-.67-3.14,21.94,21.94,0,0,0-5.93-8.7,37.29,37.29,0,0,0-26.85-10.09l.6-4-3.45-.51-.67,4.47a13.3,13.3,0,0,0-6.72,1.72l-2.67-3.62-2.81,2.08,2.69,3.64a13.3,13.3,0,0,0-3.52,6l-4.46-.67-.52,3.46,4.49.66a13.24,13.24,0,0,0,1.71,6.72l-3.62,2.68,2.08,2.8,3.63-2.69a13.33,13.33,0,0,0,6,3.52l-.67,4.46,3.46.52.66-4.48h.17a13.39,13.39,0,0,0,6.55-1.72l2.68,3.61,2.8-2.07-2.69-3.64a13.25,13.25,0,0,0,3.53-6l4.45.66.4-2.65a11.57,11.57,0,0,1,1.16,1.88,10.69,10.69,0,0,1-8.85,15.28l-4.6.34,4.53.85c1.27.24,2.46.48,3.6.71,4.12.83,7.38,1.49,10.76,1.31a17,17,0,0,0,5-1,.54.54,0,0,0,.07.13,35.52,35.52,0,0,1-4.43,1.19c-5.59,1.09-11.43.69-17.09.3a84.46,84.46,0,0,0-13.78-.2,13.58,13.58,0,0,0-2.81-3.21l2.06-4.12-6.07-3L241.28,205a14.11,14.11,0,0,0-3.88-.27l-1.48-4.44-6.44,2.15,1.47,4.39a14.1,14.1,0,0,0-3,2.55l-4.09-2-3,6.07,3.95,2a13.89,13.89,0,0,0-.38,4.11l-4.1,1.36,2.15,6.44,1.4-.47c-.58.85-1.11,1.72-1.61,2.61l-.45.42c-2-1.41-4.43-2.81-6.72-4.07A27.58,27.58,0,0,0,176.32,196a27.7,27.7,0,0,0-8,5.61l-.94-.79A71.69,71.69,0,0,1,191.3,179a57,57,0,0,1,11.09-4.54l-.83,1.33,4.47,2.78a15.55,15.55,0,0,0-.78,4.3L200.19,184l1.72,7.4,4.9-1.13a15.57,15.57,0,0,0,2.56,3.77l-2.6,4.17,6.45,4,2.51-4a15.38,15.38,0,0,0,4.69.85l1.05,4.55,7.4-1.71-1-4.48a15.52,15.52,0,0,0,3.95-2.82l3.9,2.43,4-6.44-3.95-2.46a15.33,15.33,0,0,0,.73-4.73l4.59-1.07L240,177.7l.24.12-.28-1.26c-.63-2.77-2.69-5.11-6.26-7.14l.8-1.27-6.45-4-1.35,2.18a56,56,0,0,0-6.53-2l-.37-1.59-1.87.43a15.78,15.78,0,0,0-13.79-12l-12-20.09a80.42,80.42,0,0,0,8.17-4.43c6.41-4,9.56-8.35,9.38-13,0-.4,0-.81-.1-1.21a8.51,8.51,0,0,1,0-2.13c.25-1.6,1.55-3.09,3.85-4.43,3.7-2.14,8-3.31,12.14-4.44,1.39-.38,2.8-.77,4.19-1.19l-7.35,7.35v6.84a74.92,74.92,0,0,0-8.92,5.76l-1.83,1.38,2.28-.31c2.89-.39,5.7-.71,8.47-1h0a3.24,3.24,0,1,0,1.2,0v-.13c4.4-.44,8.67-.75,12.78-.91v1.36a3.22,3.22,0,1,0,1.2,0v-1.35q6.66-.21,12.85,0v6.54l-15.64,15.64-.18.17v9.93a3.22,3.22,0,1,0,1.2-.14v-9.29L251,126.92l7.28,7.33-6.94-1.89-1.95,7.15-2.35-.64a.6.6,0,0,0-.32,1.16l2.36.64-1,3.62-2.35-.64a.59.59,0,0,0-.74.42.59.59,0,0,0,.42.73l2.36.64-1,3.62-2.35-.64a.6.6,0,0,0-.74.42.61.61,0,0,0,.42.74l2.36.64-2,7.15,7.47,2-.72,2.68a.6.6,0,0,0,.42.74l.15,0a.6.6,0,0,0,.58-.44l.73-2.68,3.62,1-.73,2.68a.6.6,0,0,0,.42.74l.16,0a.6.6,0,0,0,.58-.44L258,161l3.62,1-.73,2.68a.6.6,0,0,0,.42.74l.16,0A.62.62,0,0,0,262,165l.72-2.68,7.48,2,1.94-7.15,2.36.64a.41.41,0,0,0,.16,0,.59.59,0,0,0,.57-.45.59.59,0,0,0-.42-.73l-2.35-.64,1-3.62,2.36.64.16,0a.6.6,0,0,0,.15-1.18l-2.35-.64,1-3.62,2.36.64a.41.41,0,0,0,.16,0,.59.59,0,0,0,.57-.44.6.6,0,0,0-.42-.74l-2.35-.64,1.95-7.14-7.48-2,.6-2.2a3.2,3.2,0,1,0,3.29-4.12v-8.72a102.73,102.73,0,0,1,14.62,4.5V138.2a3.22,3.22,0,1,0,1.19,0V127.26c.62.25,1.24.49,1.84.75A62.06,62.06,0,0,1,300,132.7a3.43,3.43,0,0,0-.13.86,3.22,3.22,0,0,0,3.21,3.22,3.15,3.15,0,0,0,1.74-.52,31.94,31.94,0,0,1,4.65,4.92A46.56,46.56,0,0,1,315.35,156.61Zm1.19,7.09a58.45,58.45,0,0,1,.51,14.11,53.45,53.45,0,0,1-8.92,10.83,16.83,16.83,0,0,1-8.47,3.71,45.42,45.42,0,0,0,15.62-22.46,37,37,0,0,0,1.23-6.43Zm-48.37,26.92a12.43,12.43,0,0,1-.36,1.63,12.22,12.22,0,0,1-3.06,5.17,11.31,11.31,0,0,1-1.38,1.2,11.84,11.84,0,0,1-1.41.89,12.2,12.2,0,0,1-14.44-2,12.13,12.13,0,0,1-3.09-12.06,12,12,0,0,1,3-5.17,10.77,10.77,0,0,1,1.38-1.21,12.22,12.22,0,0,1,1.4-.89l.6-.31a9.28,9.28,0,0,1,.86-.37,12,12,0,0,1,4.36-.83h0a12.5,12.5,0,0,1,1.82.14H258a13.42,13.42,0,0,1,1.55.36,12,12,0,0,1,5.17,3.06,11.31,11.31,0,0,1,1.2,1.38,10.43,10.43,0,0,1,.89,1.41c.12.21.24.42.34.64a7.82,7.82,0,0,1,.38.9c.11.28.2.57.28.85a12,12,0,0,1,.5,3.42A11.27,11.27,0,0,1,268.17,190.62Zm-2.49-11.16a13.34,13.34,0,0,0-3.95-2.8,36.78,36.78,0,0,1,6.71.76Zm3.58,6.82a19.53,19.53,0,0,1,3.86,3.23l-3.63-.54A12.7,12.7,0,0,0,269.26,186.28Zm16.94,22.45-.26-.46-.49.2a15.45,15.45,0,0,1-5.06,1.14c-3.25.18-6.43-.47-10.46-1.29l-.72-.14a11.86,11.86,0,0,0,6.88-16.38c-1.52-3.18-4.25-5.39-7.27-7.22a13.82,13.82,0,0,0-1-2.33l3.61-2.67-1.31-1.77a35.5,35.5,0,0,1,15.72,8.63,20.81,20.81,0,0,1,5.62,8.22,13.43,13.43,0,0,1,.64,3.1l0,.25.19.16a31.7,31.7,0,0,1,5.2,5.6,53.08,53.08,0,0,1-10.84,5.73C286.48,209.24,286.35,209,286.2,208.73Zm-38.66,2.79h0a34.62,34.62,0,0,0-5.74,1.5c-.14-.08-.29-.17-.44-.24a6.63,6.63,0,0,0-9.6,5.71,37.45,37.45,0,0,0-3.61,3.16c-.58.58-1.13,1.18-1.67,1.79-.09-.22-.18-.44-.26-.66a12.66,12.66,0,0,1-.65-3.67,12.5,12.5,0,0,1,.31-3.17,12.8,12.8,0,0,1,1-2.95,12.58,12.58,0,0,1,2.12-3.05,13,13,0,0,1,8.76-4l.61,0a12.1,12.1,0,0,1,2.32.24,12.56,12.56,0,0,1,3.4,1.12,12.8,12.8,0,0,1,2.71,1.84,12.39,12.39,0,0,1,2,2.14h0a.76.76,0,0,0,.08.11l-.57.08h0l-.44.06h0a1.66,1.66,0,0,0-.22,0h-.1Zm-14,4.77a5.51,5.51,0,0,1,4.88-3,5.51,5.51,0,0,1,1.87.34,36.46,36.46,0,0,0-7.18,3.91A5.14,5.14,0,0,1,233.51,216.29Zm-60.22,60.88c-.61-.14-1.21-.29-1.81-.46l-.06.16c-1.22-.21-2.46-.47-3.7-.78A25,25,0,0,1,167,273l-1-5.66,1,0c8.1,0,16.67-2.75,24.68-8a44,44,0,0,0,11.65-10.88c4.22-3.64,8.37-7.51,12.4-11.31,1.11.17,2.17.32,3.15.43-.7,2.38-1.27,4.8-1.82,7.17a72.2,72.2,0,0,1-3.54,12c-6.18,14.41-23.34,23.3-38.73,20.64l.17,0ZM127,196.92a56.3,56.3,0,0,0,11.71-13l5.66-.65,4.85,4.05L147.85,189c-1.84,0-11.57.45-16.49,6.64-5.34,6.71-2.8,17.4-2.69,17.85l.11.45h.57c1.19,0,11-.2,16.26-6.18a12,12,0,0,0,3.67,3.8c-2.05,9.26-3.46,25.94,2.72,31.73,0,0,3.11,2.79,4.3,2.79a.45.45,0,0,0,.29-.08l.4-.35-.25-.45c-5-8.81-2.1-20,1.47-28.21.73.38,1.47.77,2.24,1.15a27.57,27.57,0,0,0,26.33,30.42,55.4,55.4,0,0,1-9.54,3.45c-13.32,3.41-25.7,2-34.86-4h0a9.08,9.08,0,0,1-1.11-.83,15.45,15.45,0,0,0-1.86-1.34l-1.16-.69.27,1.32c2.07,10.06,11.4,18.45,22.69,20.4a35.32,35.32,0,0,0,3.58.41l1.09,5.9a20.85,20.85,0,0,0,.51,2.51A51.62,51.62,0,0,1,147.71,266c-7.41-6.24-13.11-15.38-16.47-26.45s-4-22.51-4.28-31.39C126.87,204.62,126.83,200.81,127,196.92Zm3.9-20.61a56.11,56.11,0,0,0,9.92,1.64l2.91,4.14-5.16.58a56.68,56.68,0,0,0-7.7-6.25Zm9.54-10.94-.18-.6a24.39,24.39,0,0,1-.75-3.73c-.09-.82-.13-1.63-.14-2.44,0-.43,0-.85,0-1.27s.05-.94.1-1.4a29.5,29.5,0,0,1,1.19-5.72l.3-.94c.1-.29.2-.57.31-.86,3.24-8.82,9.6-15.76,11.12-17.34l1.3.89.49.35.49.35a57.32,57.32,0,0,1,9.28,8.58l.39.46.39.47c3.4,4.21,6.32,9.38,7,15.19,1.51,13.27-9.19,26-12.37,29.39l-2.21-19.36,11.26-14.16-.94-.75L157,165.7l-1.81-15.85-.08-.76-.09-.74-1.55-13.66,0-.13-.6.06h-.05l-.54.06.08.68.11,1,1.49,13.06.08.76.09.77.4,3.48-2.13-1.7-.48-.37-.47-.38-5.63-4.48-.48-.38-.48-.38-.68-.54-.74.94.82.65.47.38.48.38,5.42,4.31.47.38.47.37,3.15,2.5L157.07,177l-10.35-8.22-.37.47-.37.47,11.28,9,.94,8.23c-2.78-1.9-10.44-7.59-15.09-15.58-.16-.29-.33-.58-.49-.88s-.33-.62-.49-.94a28.69,28.69,0,0,1-1.47-3.52Zm21.26-46.06.53.29.53.3,13.81,7.65,4,6.7a83.63,83.63,0,0,0-15.48,6.35,56.32,56.32,0,0,0-9.74-9l-.49-.35c-.17-.12-.33-.24-.49-.34-1-.67-1.59-1.06-1.72-1.14l-.39-.24-.34.33c-.08.08-.41.41-.91.94a104.89,104.89,0,0,1,10.47-11.64Zm29,11.76.31.52,11.62,19.5a13.47,13.47,0,0,0-1.55.06,15.62,15.62,0,0,0-7.46,2.7l-11.29-18.92-.31-.53-.32-.53-3.19-5.36a5.75,5.75,0,0,0,7.56-5.2l4.32,7.24Zm33.37,66.46a14.5,14.5,0,0,1-7.73-.36A14.56,14.56,0,0,1,210,193a15,15,0,0,1-2-3,15.13,15.13,0,0,1-1.22-3.3,14.54,14.54,0,0,1,4.35-13.92l.2-.18a9.86,9.86,0,0,1,.87-.7,12.24,12.24,0,0,1,1-.7l.64-.38a14.29,14.29,0,0,1,7-1.81h.39a14.34,14.34,0,0,1,3.41.51,14.54,14.54,0,0,1,5.72,3.08c.28.25.56.51.82.79l.1.09c.26.28.51.57.76.87a15.64,15.64,0,0,1,1.34,2,14.52,14.52,0,0,1,1.52,3.87,14.64,14.64,0,0,1-.21,7.29,14.52,14.52,0,0,1-4,6.48,13.88,13.88,0,0,1-3.18,2.26A14.56,14.56,0,0,1,224.12,197.53Zm13.73-22.23a45.65,45.65,0,0,0-5.1-2c-.28-.33-.58-.64-.89-.94l1.2-1.93a12.15,12.15,0,0,1,5.12,4.78Zm-12.53-6.81a15.58,15.58,0,0,0-4.35-.65l-.51-2.2a55,55,0,0,1,5.59,1.69Zm-9-4.93-1.68.39-1.69.4-.53.12.34,1.46.86,3.71a16,16,0,0,0-2.74,1.83l-1.51.2-3.75-2.34-2.25,3.61a57.72,57.72,0,0,0-12.61,5,73,73,0,0,0-24.3,22.12l-6.23-5.2h.12l-.41-3.54c5.57-7.54,12.89-13.42,21.91-19.41a44.94,44.94,0,0,1,6.79-3.73l-.79.07.24,0c0-.15,0-.3,0-.45s0-.42,0-.63a14.59,14.59,0,0,1,5.3-11.53c.16-.13.32-.24.48-.36s.32-.25.49-.36a14.36,14.36,0,0,1,9.13-2.57l.73,0c.26,0,.51.08.77.12a14.62,14.62,0,0,1,11.84,11Zm-15.7,86.5a42.47,42.47,0,0,1-3.44,3.56,47.76,47.76,0,0,1-6.15,4.77,52.56,52.56,0,0,1-5.08,2.95,47.05,47.05,0,0,1-8.84,3.44,37.41,37.41,0,0,1-12.53,1.32c-1.07-.08-2.12-.2-3.16-.38-10.23-1.76-18.78-9-21.34-17.92l.44.35a10.46,10.46,0,0,0,1.25.92c9.44,6.16,22.15,7.63,35.8,4.13a56.63,56.63,0,0,0,12-4.62c.45-.23.9-.48,1.35-.73s.94-.52,1.4-.79a70.84,70.84,0,0,0,14.78-11.66l.58-.59c0,.24-.07.47-.1.7a24.32,24.32,0,0,1-1,4.16c-.13.42-.29.83-.45,1.25s-.34.84-.52,1.26a30.63,30.63,0,0,1-3.16,5.51C201.87,248.49,201.25,249.28,200.59,250.06Zm-39-31.3a232.49,232.49,0,0,0,22,9.33c7.45,2.75,15.2,5.21,22.06,7a68.15,68.15,0,0,1-16.51,12.34,26.39,26.39,0,0,1-27.58-28.64Zm46.73,18.94c.15-.63.26-1.27.36-1.91l.92.22C209.22,236.59,208.79,237.16,208.34,237.7Zm-.72,2.61a26.92,26.92,0,0,0,3.25-4c1.16.26,2.29.48,3.36.67-2.84,2.67-5.73,5.37-8.65,8A29.42,29.42,0,0,0,207.62,240.31Zm5-10.15a26.64,26.64,0,0,1-2.32,4.77l-1.46-.33c0-.47.08-.94.1-1.41l.06-1.63-1.1,1.2c-.41.45-.83.88-1.24,1.31a225.09,225.09,0,0,1-22.61-7.1,228.42,228.42,0,0,1-22.3-9.48,26.34,26.34,0,0,1,15.07-20.39,26.37,26.37,0,0,1,35.8,33.06Zm-48.37-23.34-.71-.17q1.48-2.49,3.11-4.83l.81.67A27.9,27.9,0,0,0,164.26,206.82Zm-6.63,8.53-1.22-.68a64,64,0,0,1-5.79-3.59c.24-1,.49-1.9.75-2.72s.54-1.63.83-2.43a80.39,80.39,0,0,1,9.49,1.54c-1.43,2.5-2.78,5.1-4,7.79A.36.36,0,0,1,157.63,215.35Zm-12.54-8.77c-4.37,5.49-13.21,6.11-15.35,6.18-.42-2.11-1.81-10.86,2.56-16.35,3.95-5,11.55-5.95,14.55-6.14l-5.14,6.47-8.27.95.13,1.19,7.08-.81L132,208.94l.94.74,5.3-6.66.61,5.38.59-.07.6-.07-.75-6.57L147.79,191c.46,2.79,1.16,9.71-2.06,14.66l-.15.21C145.42,206.12,145.27,206.36,145.09,206.58Zm3.7-16.81,1.37-1.73,6.68,5.58a58.55,58.55,0,0,0-5.47,11,15.39,15.39,0,0,0-3.76.15C150.52,198.81,149.13,191.34,148.79,189.77Zm10.78-1.46c1.89-1.9,15.12-15.83,13.38-31.08-.69-6.06-3.64-11.38-7.08-15.69a85.32,85.32,0,0,1,15.34-6.23l11.49,19.25a15.87,15.87,0,0,0-2.26,2.23,15.66,15.66,0,0,0-3.6,10.87,46.51,46.51,0,0,0-5.69,3.24c-8.72,5.79-15.88,11.5-21.44,18.67Zm-.58,5.54-.54-.45.42-.63Zm6.75,7.19c-1.19,1.72-2.34,3.5-3.42,5.34a83.93,83.93,0,0,0-9.69-1.63,56.45,56.45,0,0,1,5.15-10.35Zm-8.59,15.41c-4.73,10.87-5.54,20.33-2.36,27.57a19.2,19.2,0,0,1-2-1.58c-5.36-5-4.6-20.38-2.49-30.1,1.5,1,3.32,2.17,5.49,3.38Zm-10.6-9.83c.06-.09.12-.17.17-.26.42-.35,1.68-.63,4.24-.51-.25.71-.51,1.42-.74,2.15s-.42,1.45-.64,2.31C147.22,208.48,146.4,207.25,146.55,206.62Zm12.22,9.14q1.9-4.17,4.15-8l.72.17a27.78,27.78,0,0,0-3,9c-.66-.33-1.3-.66-1.92-1A1,1,0,0,1,158.77,215.76Zm58.07,18.73-1.52,1.44c-1.17-.2-2.43-.44-3.77-.73a27.74,27.74,0,0,0,2.21-4.63,28,28,0,0,0,1-3.54c2.53,1.39,4.52,2.62,6.07,3.67Zm17.77-58.44c-.19-.35-.39-.7-.61-1,.64.23,1.27.48,1.89.73Zm-76.23,12.4.29,2.51c-.4.54-.77,1.1-1.15,1.66l-11.94-10,0,0-.47-.67v0h0l-3.29-4.67c.17-.6.56-2.06,1-4.1C148.23,181.8,156.77,187.44,158.38,188.45Zm58.44,47.72.85-.81,3-2.84c-.56,1.29-1,2.62-1.46,3.95C218.48,236.4,217.67,236.29,216.82,236.17Zm55.4-105A3.17,3.17,0,0,0,270,134a.46.46,0,0,0-.16-.07.6.6,0,0,0-.74.42l-.73,2.68-3.61-1,.72-2.68a.6.6,0,0,0-1.15-.31l-.73,2.68-3.62-1,.73-2.68a.59.59,0,0,0-.42-.73.6.6,0,0,0-.74.42l-.45,1.64-7.49-7.54v-6.49A126.35,126.35,0,0,1,272.22,122Zm1.52,15.62-.15.58-1,3.61-.16.58-.15.58-1,3.62-.16.58-.15.58-1.63,6L263,161.16l-.58-.16-.58-.15-3.62-1-.58-.16-.57-.15-3.62-1-.58-.16-.58-.15L246,156.53l1.63-6,.16-.57.16-.58,1-3.62.16-.58.16-.58,1-3.62.16-.58.16-.58,1.63-6,6.14,1.67.18.05.58.16.44.12.13,0,3.62,1,.58.16.58.16,3.62,1,.58.16.58.16,6.31,1.72-1.63,6Zm-37.38-28.69q-6.18.24-12.78.89v-3.79a78.82,78.82,0,0,1,19.84-7.41l-7.06,7.06Zm-14,1c-2.07.22-4.17.45-6.3.72,2-1.43,4.14-2.74,6.3-4Zm28-1q-3.36-.15-6.86-.15c-2,0-4,0-6,.11v-2.71l8-8c1.6-.32,3.21-.59,4.82-.81ZM288,125.48A103.65,103.65,0,0,0,274,121.15l11.95-12c.71.22,1.41.45,2.12.69Zm-15.45-4.64a127.34,127.34,0,0,0-21-2.71V106.3a83.23,83.23,0,0,1,14.11-.58v2.61a3.2,3.2,0,1,0,1.2,0v-2.55a80.66,80.66,0,0,1,17.69,3Zm-22.18-15.58c-1.11.16-2.22.33-3.32.53l3.32-3.32Zm0-4.49L245,106.2a80.69,80.69,0,0,0-21.4,7.61v-5.68l8.67-8.68.35-.12h17.81Zm52,29.67a3.22,3.22,0,0,0-1.82,1.18,64,64,0,0,0-9-4.71l-2.32-1V110.31c1.84.67,3.66,1.4,5.43,2.21l7.71,7.7ZM288,108.62l-1.17-.37,1.17-1.16Zm-22.32-4.08a85.35,85.35,0,0,0-14.11.57v-3.84l.15-.16-.15-.15V99.33h14.11Zm-105.33,14a100.22,100.22,0,0,0-12.65,14.69,69.44,69.44,0,0,0-7.26,13.33,24.92,24.92,0,0,0-1.82-3,26.79,26.79,0,0,0-6.89-6.68,88,88,0,0,1,28.41-18.42Zm141.28,92.06-.53.3a53.12,53.12,0,0,1-10.56,4.68l-.57.18-.33.1-.25.07-.33.1-.58.16a49.47,49.47,0,0,1-4.89,1.09,115.76,115.76,0,0,1-15,1.23c-4.12.15-8.39.31-12.56.85-1.2.16-2.47.37-3.78.63l-.61.12-.62.14-.92.22-1,.25a41.65,41.65,0,0,0-5.47,1.88q-.7.3-1.38.63c-.83.39-1.65.82-2.45,1.29-.42.25-.84.51-1.25.78a25.38,25.38,0,0,0-4,3.23,21.71,21.71,0,0,0-1.66,1.79c-.13.16-.25.33-.37.49s-.25.33-.37.5-.3.38-.44.58a21.19,21.19,0,0,0-1.48,2.54c-2,4.06-2.56,8.39-3.13,12.94-.92,7.27-2,15.51-9.27,24.84a21.76,21.76,0,0,1-7.81,6.09l-.56.27-.76.32a32.23,32.23,0,0,1-8,2.14,52.59,52.59,0,0,1-11.9.27l-.63-.07-.63-.08A52.84,52.84,0,0,1,177.42,279c15.11,1.26,31.17-7.7,37.18-21.72a72.91,72.91,0,0,0,3.61-12.21c.56-2.43,1.14-4.91,1.87-7.34l.36-1.15c.42-1.28.88-2.53,1.41-3.75.16-.36.34-.72.51-1.07s.35-.74.54-1.1l.28-.48c.34-.62.7-1.23,1.09-1.83s1-1.47,1.52-2.18l0-.05.36-.48.42-.51.42-.49c.5-.59,1-1.16,1.55-1.71a34.63,34.63,0,0,1,3.29-3l.53-.43c.18-.15.38-.28.57-.42a35.36,35.36,0,0,1,6.52-3.85c.7-.32,1.41-.62,2.13-.89l.68-.23.66-.23.1,0a33.64,33.64,0,0,1,3.8-1l.93-.18.17,0,1.62-.21.64-.07.64,0a87.32,87.32,0,0,1,13,.24,107.43,107.43,0,0,0,10.79.39,40.74,40.74,0,0,0,6.61-.71c.91-.17,1.81-.39,2.72-.65.68-.19,1.37-.4,2.06-.63l.57-.21.57-.21a54.65,54.65,0,0,0,11-5.81l.49-.34.5-.33c.92-.64,1.86-1.31,2.83-2,5-3.7,11.13-8.84,14.14-15.82a28.49,28.49,0,0,0,2.08-8c.06-.48.11-.95.14-1.43s.07-.89.09-1.34a66.28,66.28,0,0,0-.71-11.91c-.3-2.26-.68-4.67-1.2-7.13a47.51,47.51,0,0,0-6.08-15.94c-.38-.6-.78-1.2-1.21-1.78a39.91,39.91,0,0,1,14.53,21.66c.12.46.25.92.36,1.38s.21.94.31,1.41a41.57,41.57,0,0,1-.89,20.73c-3.35,10.82-11.2,20.24-21.35,26.44Zm22.48-53.08c-3.17-9.3-9.34-17.4-17.69-22.07l-.59-.33a3.18,3.18,0,0,0-2.3-4.76V119.72L298,114.11c2.05,1.06,4.06,2.2,6,3.46a49.87,49.87,0,0,1,11.36,9.7C322,135.3,325.27,146.52,324.15,157.56ZM289.23,109v-2l3.16,3.15C291.35,109.82,290.3,109.42,289.23,109Zm-1.44-3.4-2.21,2.2a81.07,81.07,0,0,0-18.66-3.24V99.33h14.56Z"/><path class="cls-1" d="M144.75,104.55a1.33,1.33,0,1,0-1.44-1.2A1.33,1.33,0,0,0,144.75,104.55Z"/><path class="cls-1" d="M180.48,124.35a1.33,1.33,0,1,0-1.45-1.2A1.32,1.32,0,0,0,180.48,124.35Z"/><path class="cls-1" d="M298.11,155.85a4.79,4.79,0,0,1-4.64-4.64h-.22a4.79,4.79,0,0,1-4.64,4.64v.22a4.79,4.79,0,0,1,4.64,4.64h.22a4.79,4.79,0,0,1,4.64-4.64Z"/><path class="cls-1" d="M78,215.79h.23a4.79,4.79,0,0,1,4.64-4.64v-.22a4.79,4.79,0,0,1-4.64-4.64H78a4.79,4.79,0,0,1-4.64,4.64v.22A4.79,4.79,0,0,1,78,215.79Z"/><path class="cls-1" d="M103.1,258.82h.3a6.55,6.55,0,0,1,6.35-6.35v-.31a6.56,6.56,0,0,1-6.35-6.35h-.3a6.56,6.56,0,0,1-6.35,6.35v.31A6.55,6.55,0,0,1,103.1,258.82Z"/><path class="cls-1" d="M167.06,325.58h-.23a4.84,4.84,0,0,1-4.69,4.69v.22a4.85,4.85,0,0,1,4.69,4.69h.23a4.84,4.84,0,0,1,4.69-4.69v-.22A4.83,4.83,0,0,1,167.06,325.58Z"/><path class="cls-1" d="M83,291.69h-.23a4.84,4.84,0,0,1-4.69,4.69v.22a4.85,4.85,0,0,1,4.69,4.69H83a4.84,4.84,0,0,1,4.69-4.69v-.22A4.83,4.83,0,0,1,83,291.69Z"/><path class="cls-1" d="M210.5,133.83h-.22a4.79,4.79,0,0,1-4.64,4.64v.23a4.78,4.78,0,0,1,4.64,4.63h.22a4.78,4.78,0,0,1,4.64-4.63v-.23A4.79,4.79,0,0,1,210.5,133.83Z"/><path class="cls-1" d="M182.25,164.08h.22a4.79,4.79,0,0,1,4.64-4.64v-.23a4.78,4.78,0,0,1-4.64-4.63h-.22a4.78,4.78,0,0,1-4.64,4.63v.23A4.79,4.79,0,0,1,182.25,164.08Z"/><path class="cls-1" d="M138.11,236.81h.22a4.79,4.79,0,0,1,4.64-4.64V232a4.79,4.79,0,0,1-4.64-4.64h-.22a4.79,4.79,0,0,1-4.64,4.64v.22A4.79,4.79,0,0,1,138.11,236.81Z"/><path class="cls-1" d="M227.46,130.61h-.22a4.79,4.79,0,0,1-4.64,4.64v.22a4.79,4.79,0,0,1,4.64,4.64h.22a4.79,4.79,0,0,1,4.64-4.64v-.22A4.79,4.79,0,0,1,227.46,130.61Z"/><path class="cls-1" d="M301.2,167.07H301a3.77,3.77,0,0,1-3.66,3.66v.18a3.78,3.78,0,0,1,3.66,3.66h.18a3.78,3.78,0,0,1,3.66-3.66v-.18A3.77,3.77,0,0,1,301.2,167.07Z"/><path class="cls-1" d="M283.8,164.67h-.22a4.78,4.78,0,0,1-4.64,4.63v.23a4.79,4.79,0,0,1,4.64,4.64h.22a4.78,4.78,0,0,1,4.64-4.64v-.23A4.77,4.77,0,0,1,283.8,164.67Z"/><path class="cls-1" d="M330.93,126.2a4.79,4.79,0,0,1,4.64-4.64v-.22a4.79,4.79,0,0,1-4.64-4.64h-.23a4.78,4.78,0,0,1-4.63,4.64v.22a4.78,4.78,0,0,1,4.63,4.64Z"/><path class="cls-1" d="M335.55,132.54h-.22a4.79,4.79,0,0,1-4.64,4.64v.22a4.79,4.79,0,0,1,4.64,4.64h.22a4.79,4.79,0,0,1,4.64-4.64v-.22A4.79,4.79,0,0,1,335.55,132.54Z"/><path class="cls-1" d="M342,109.84h-.15a3.22,3.22,0,0,1-3.13,3.13v.15a3.23,3.23,0,0,1,3.13,3.13H342a3.24,3.24,0,0,1,3.14-3.13V113A3.23,3.23,0,0,1,342,109.84Z"/><path class="cls-1" d="M224.76,177.21a7.37,7.37,0,1,0-3.92,13.62,7.4,7.4,0,0,0,1.68-.19,7.37,7.37,0,0,0,2.24-13.43Zm-7.17,11.49a6.19,6.19,0,0,1,3.28-11.41,6.17,6.17,0,1,1-3.28,11.41Z"/><path class="cls-1" d="M318.1,88.4l-5.27,3a2.09,2.09,0,1,0,.6,1l5.26-3a2.09,2.09,0,0,0,1.92.53l2.64,4.65a2.09,2.09,0,0,0,2,3.49l2.64,4.66a2.1,2.1,0,1,0,3.56,1l5.26-3a2.1,2.1,0,1,0,1-3.55L335,92.55a2.1,2.1,0,1,0-1,.59l2.64,4.65a2.09,2.09,0,0,0-.53,1.92l-5.27,3a2.1,2.1,0,0,0-1.91-.53l-2.64-4.65a2.09,2.09,0,0,0-2-3.49l-2.64-4.65a2.1,2.1,0,1,0-3.55-1Z"/><path class="cls-1" d="M329.93,84.79a2.1,2.1,0,1,0-2.87-.79A2.1,2.1,0,0,0,329.93,84.79Z"/><path class="cls-1" d="M315,99.22a2.1,2.1,0,1,0,2.87.79A2.1,2.1,0,0,0,315,99.22Z"/><path class="cls-1" d="M319.59,107.36a2.1,2.1,0,1,0,2.87.79A2.1,2.1,0,0,0,319.59,107.36Z"/><path class="cls-1" d="M259.53,139.68l-1.2-.32-.94-.26-2.11-.57-4.13,15.2,15.28,4.16,4.14-15.2-9.11-2.48Zm9.57,3.85-3.51,12.88-13-3.53,3-10.87.45-1.65.09-.36.13,0,2.08.57,1.2.33,2.43.66Z"/><path class="cls-1" d="M67.92,244.59l-7.72,2.16-2.37.69-2.35.66,0-.07c.57-.68,1.1-1.3,1.61-1.85s1.06-1.16,1.64-1.84l5.3-6-1-1.64-9.64,11.45,1.12,1.78,14.47-3.76Z"/><rect class="cls-1" x="58.4" y="252.26" width="14.25" height="1.8" transform="translate(-142.78 95.07) rotate(-38.29)"/><path class="cls-1" d="M78.84,257.78a5.9,5.9,0,0,0-2.72-3.15,4.33,4.33,0,0,0-1.55-.47,3.65,3.65,0,0,0-1.51.16,3.26,3.26,0,0,0-1.32.79,3.42,3.42,0,0,0-.82,1.14,3.49,3.49,0,0,0-.28,1.2,4.26,4.26,0,0,0,.11,1.18,7.92,7.92,0,0,0,.33,1.1l.77,2.09c.11.35.22.68.31,1a3.78,3.78,0,0,1,.17.88,2,2,0,0,1-.13.81,2.12,2.12,0,0,1-.54.78,2.07,2.07,0,0,1-1.76.59,3.36,3.36,0,0,1-2-1.14,4.88,4.88,0,0,1-1.12-1.89,5.84,5.84,0,0,1-.3-2.18l-1.66.08a6.66,6.66,0,0,0,.41,2.67,6.8,6.8,0,0,0,1.51,2.4,5.93,5.93,0,0,0,1.63,1.24,4.5,4.5,0,0,0,1.67.5,4,4,0,0,0,1.61-.19,3.83,3.83,0,0,0,1.38-.85,4,4,0,0,0,.83-1.12,3.23,3.23,0,0,0,.33-1.17,3.92,3.92,0,0,0-.08-1.22,9.65,9.65,0,0,0-.36-1.24L73,259.7a9.18,9.18,0,0,1-.31-.88,4.44,4.44,0,0,1-.18-.88,2.28,2.28,0,0,1,.07-.83,1.76,1.76,0,0,1,.5-.76,1.82,1.82,0,0,1,1.61-.53,3.09,3.09,0,0,1,1.72,1,4.23,4.23,0,0,1,1,1.54,5.23,5.23,0,0,1,.29,1.73L79.2,260A5.79,5.79,0,0,0,78.84,257.78Z"/><polygon class="cls-1" points="87.09 264.96 78.27 276.16 84.59 281.13 85.54 279.92 80.64 276.06 88.5 266.08 87.09 264.96"/><rect class="cls-1" x="85.68" y="277.25" width="14.25" height="1.8" transform="translate(-188.83 196.53) rotate(-55.39)"/><path class="cls-1" d="M107.9,281.4a6.54,6.54,0,0,0-3.37-4.14l-3.06-1.83-7.3,12.24,3.13,1.87a7.63,7.63,0,0,0,2.69,1,5.46,5.46,0,0,0,2.52-.14,6.2,6.2,0,0,0,2.26-1.28,10,10,0,0,0,1.92-2.38A7.32,7.32,0,0,0,107.9,281.4Zm-2.81,4.41a6.41,6.41,0,0,1-3.23,3,4.62,4.62,0,0,1-4-.63l-1.4-.84,5.79-9.7,1.4.84a4.7,4.7,0,0,1,2.48,3.15A6.13,6.13,0,0,1,105.09,285.81Z"/><polygon class="cls-1" points="114.56 284.59 120.3 287.44 120.97 286.08 113.62 282.43 107.28 295.19 114.83 298.94 115.51 297.56 109.58 294.61 111.88 289.98 116.72 292.38 117.41 291 112.57 288.6 114.56 284.59"/><path class="cls-1" d="M132.37,290.9l-2.78,6.82c-.28.7-.55,1.41-.79,2.15s-.48,1.45-.72,2.13l-.08,0-.31-3.32-1.4-10.22-1.73-.71-5.37,13.2,1.59.65,2.81-6.9c.28-.7.54-1.4.78-2.11s.46-1.41.68-2.11l.08,0,.32,3.29L126.86,304l1.73.7L134,291.55Z"/><path class="cls-1" d="M142.3,294.09a5.51,5.51,0,0,0-1.79-.28,4.5,4.5,0,0,0-1.59.32,3.79,3.79,0,0,0-1.26.87,3.51,3.51,0,0,0-.78,1.32,3.47,3.47,0,0,0-.17,1.39,3.55,3.55,0,0,0,.32,1.19,4.11,4.11,0,0,0,.67,1,8.84,8.84,0,0,0,.81.81l1.67,1.47.75.72a3.51,3.51,0,0,1,.56.7,1.88,1.88,0,0,1,.28.77,2.14,2.14,0,0,1-.11.94,2.06,2.06,0,0,1-1.26,1.36,3.43,3.43,0,0,1-2.29-.07,4.83,4.83,0,0,1-1.88-1.12,5.82,5.82,0,0,1-1.31-1.78l-1.42.87a6.78,6.78,0,0,0,4.11,3.54,6.24,6.24,0,0,0,2,.32,4.65,4.65,0,0,0,1.71-.36,4,4,0,0,0,1.32-.94,3.82,3.82,0,0,0,.8-1.4,4,4,0,0,0,.21-1.39,3.29,3.29,0,0,0-.27-1.18,4.55,4.55,0,0,0-.65-1,9.86,9.86,0,0,0-.91-.92l-1.66-1.45c-.24-.2-.47-.4-.69-.62a4.24,4.24,0,0,1-.58-.69,2.31,2.31,0,0,1-.33-.76,2,2,0,0,1,1.23-2.14,3.14,3.14,0,0,1,2,.06,4.35,4.35,0,0,1,1.6.89,4.91,4.91,0,0,1,1.07,1.39l1.29-.82a6,6,0,0,0-1.37-1.78A5.72,5.72,0,0,0,142.3,294.09Z"/><polygon class="cls-1" points="159.61 299.01 157.63 298.53 150.19 304.09 150.13 304.08 151.8 297.13 150.05 296.71 146.71 310.56 148.47 310.98 149.52 306.59 152.59 304.35 154.99 312.55 156.95 313.02 154.01 303.25 159.61 299.01"/><path class="cls-1" d="M167.69,310.34l.68,4.5,1.91.29-2.62-14.81-2-.31-6.91,13.36,1.82.28,2-4.09Zm-3.47-4.19c.38-.75.74-1.5,1.09-2.25s.69-1.5,1-2.29l.09,0c.1.85.21,1.68.32,2.49s.23,1.64.37,2.47l.34,2.24-4.23-.64Z"/><path class="cls-1" d="M182.85,302.51a4.52,4.52,0,0,0-1.65-.78,10,10,0,0,0-2.17-.31l-4.05-.18-.63,14.23,1.8.08.25-5.64,2.34.1a7.79,7.79,0,0,0,2.15-.17,4.82,4.82,0,0,0,1.69-.74,3.65,3.65,0,0,0,1.14-1.32,4.74,4.74,0,0,0,.47-1.94,4.51,4.51,0,0,0-.31-2A3.36,3.36,0,0,0,182.85,302.51ZM181.38,308a4.51,4.51,0,0,1-2.79.58l-2.13-.09.25-5.67,2,.09a5.43,5.43,0,0,1,2.78.72,2.32,2.32,0,0,1,.85,2.18A2.64,2.64,0,0,1,181.38,308Z"/></g></svg>