<svg xmlns="http://www.w3.org/2000/svg" viewBox="0 0 483.86 450.12"><defs><style>.cls-1{font-size:22.63px;font-family:SourceSansPro-Regular, Source Sans Pro;}.cls-1,.cls-2{fill:#a291ad;}</style></defs><g id="ferdige"><text class="cls-1" transform="translate(147.99 390.78) rotate(0.7)">V</text><text class="cls-1" transform="translate(160.79 390.94) rotate(0.58)">Æ</text><text class="cls-1" transform="translate(180.51 391.13) rotate(0.45)">R</text><text class="cls-1" transform="translate(194.52 391.24) rotate(0.38)"> </text><text class="cls-1" transform="matrix(1, 0.01, -0.01, 1, 200.16, 391.28)">N</text><text class="cls-1" transform="translate(215.94 391.36) rotate(0.21)">Y</text><text class="cls-1" transform="matrix(1, 0, 0, 1, 227.47, 391.4)">S</text><text class="cls-1" transform="translate(240.67 391.43) rotate(0.07)">G</text><text class="cls-1" transform="matrix(1, 0, 0, 1, 255.77, 391.45)">J</text><text class="cls-1" transform="translate(267.78 391.46) rotate(-0.01)">E</text><text class="cls-1" transform="translate(280.82 391.45) rotate(-0.02)">R</text><text class="cls-1" transform="translate(294.83 391.45)">R</text><text class="cls-1" transform="translate(308.83 391.45) rotate(0.02)">I</text><text class="cls-1" transform="translate(315.92 391.45) rotate(0.06)">G</text><path class="cls-2" d="M266.75,277.93a1.24,1.24,0,1,0,1.24,1.24A1.23,1.23,0,0,0,266.75,277.93Z"/><path class="cls-2" d="M166,129.7a1.23,1.23,0,0,0-1.56.54,1.14,1.14,0,0,0,.55,1.62,1.16,1.16,0,0,0,1.59-.61A1.22,1.22,0,0,0,166,129.7Z"/><path class="cls-2" d="M171.53,134a1.17,1.17,0,0,0,1.43-.89,1.18,1.18,0,0,0-2.3-.56A1.18,1.18,0,0,0,171.53,134Z"/><path class="cls-2" d="M178.13,135.28a1.19,1.19,0,1,0-1-1.37A1.2,1.2,0,0,0,178.13,135.28Z"/><path class="cls-2" d="M184.76,136.16a1.19,1.19,0,1,0-1-1.32A1.18,1.18,0,0,0,184.76,136.16Z"/><path class="cls-2" d="M191.4,136.79a1.19,1.19,0,1,0-1.08-1.29A1.19,1.19,0,0,0,191.4,136.79Z"/><path class="cls-2" d="M198.05,137.23a1.2,1.2,0,1,0-1.12-1.26A1.2,1.2,0,0,0,198.05,137.23Z"/><path class="cls-2" d="M204.71,137.5a1.2,1.2,0,1,0-1.15-1.23A1.19,1.19,0,0,0,204.71,137.5Z"/><path class="cls-2" d="M224.61,135.11a1.2,1.2,0,1,0,1.22,1.16A1.2,1.2,0,0,0,224.61,135.11Z"/><path class="cls-2" d="M231.21,134.84a1.2,1.2,0,1,0,1.24,1.13A1.19,1.19,0,0,0,231.21,134.84Z"/><path class="cls-2" d="M237.8,134.41a1.19,1.19,0,1,0,1.27,1.09A1.19,1.19,0,0,0,237.8,134.41Z"/><path class="cls-2" d="M244.36,133.79a1.19,1.19,0,0,0-1,1.31,1.18,1.18,0,1,0,2.35-.26A1.2,1.2,0,0,0,244.36,133.79Z"/><path class="cls-2" d="M251.26,135.28a1.2,1.2,0,1,0-1.36-1A1.19,1.19,0,0,0,251.26,135.28Z"/><path class="cls-2" d="M257.86,134a1.18,1.18,0,0,0,.87-1.45,1.19,1.19,0,0,0-2.31.56A1.18,1.18,0,0,0,257.86,134Z"/><path class="cls-2" d="M264.38,131.86a1.15,1.15,0,0,0,.55-1.62,1.24,1.24,0,0,0-1.56-.54,1.22,1.22,0,0,0-.58,1.55A1.16,1.16,0,0,0,264.38,131.86Z"/><path class="cls-2" d="M154.4,226.07A1.22,1.22,0,0,0,153,227a1.21,1.21,0,0,0,2.37.5A1.21,1.21,0,0,0,154.4,226.07Z"/><path class="cls-2" d="M161,227.22a1.21,1.21,0,0,0-1.37,1,1.18,1.18,0,0,0,1,1.36,1.2,1.2,0,0,0,1.38-1A1.22,1.22,0,0,0,161,227.22Z"/><path class="cls-2" d="M167.71,228.06a1.2,1.2,0,1,0,1.08,1.32A1.2,1.2,0,0,0,167.71,228.06Z"/><path class="cls-2" d="M175.55,230a1.21,1.21,0,0,0-2.42-.21,1.21,1.21,0,0,0,2.42.21Z"/><path class="cls-2" d="M181,231.59a1.2,1.2,0,1,0,.15-2.39,1.2,1.2,0,1,0-.15,2.39Z"/><path class="cls-2" d="M187.84,232a1.2,1.2,0,1,0,.11-2.39,1.2,1.2,0,1,0-.11,2.39Z"/><path class="cls-2" d="M194.64,232.25a1.19,1.19,0,1,0-1.17-1.23A1.19,1.19,0,0,0,194.64,232.25Z"/><path class="cls-2" d="M201.44,232.45a1.2,1.2,0,1,0-1.18-1.22A1.21,1.21,0,0,0,201.44,232.45Z"/><path class="cls-2" d="M221.83,230.17a1.21,1.21,0,0,0-1.2,1.21,1.19,1.19,0,0,0,1.22,1.18,1.2,1.2,0,1,0,0-2.39Z"/><path class="cls-2" d="M228.6,230.06a1.2,1.2,0,1,0,1.24,1.17A1.2,1.2,0,0,0,228.6,230.06Z"/><path class="cls-2" d="M235.38,229.87a1.19,1.19,0,1,0,1.25,1.15A1.2,1.2,0,0,0,235.38,229.87Z"/><path class="cls-2" d="M242.14,229.58a1.2,1.2,0,1,0,.12,2.39,1.2,1.2,0,1,0-.12-2.39Z"/><path class="cls-2" d="M248.91,229.2a1.2,1.2,0,1,0,1.28,1.12A1.21,1.21,0,0,0,248.91,229.2Z"/><path class="cls-2" d="M255.65,228.71a1.19,1.19,0,1,0,.2,2.38,1.19,1.19,0,1,0-.2-2.38Z"/><path class="cls-2" d="M262.38,228.06a1.2,1.2,0,1,0,1.34,1.06A1.21,1.21,0,0,0,262.38,228.06Z"/><path class="cls-2" d="M269.08,227.22a1.21,1.21,0,0,0-1,1.35,1.21,1.21,0,0,0,2.4-.35A1.21,1.21,0,0,0,269.08,227.22Z"/><path class="cls-2" d="M275.7,226.07a1.2,1.2,0,1,0,1.43.91A1.22,1.22,0,0,0,275.7,226.07Z"/><path class="cls-2" d="M282.91,226.54a1.19,1.19,0,0,0,.69-1.59,1.25,1.25,0,0,0-1.55-.64,1.22,1.22,0,0,0-.71,1.52A1.18,1.18,0,0,0,282.91,226.54Z"/><path class="cls-2" d="M211.21,95.73A1.18,1.18,0,1,0,210,94.55,1.18,1.18,0,0,0,211.21,95.73Z"/><path class="cls-2" d="M211.21,102.34a1.18,1.18,0,1,0-1.19-1.18A1.18,1.18,0,0,0,211.21,102.34Z"/><path class="cls-2" d="M211.21,109a1.18,1.18,0,1,0-1.19-1.18A1.18,1.18,0,0,0,211.21,109Z"/><path class="cls-2" d="M211.21,115.56a1.18,1.18,0,1,0-1.19-1.18A1.18,1.18,0,0,0,211.21,115.56Z"/><path class="cls-2" d="M211.21,122.17A1.18,1.18,0,1,0,210,121,1.18,1.18,0,0,0,211.21,122.17Z"/><path class="cls-2" d="M211.21,128.78A1.18,1.18,0,1,0,210,127.6,1.18,1.18,0,0,0,211.21,128.78Z"/><path class="cls-2" d="M211.21,135.39a1.18,1.18,0,1,0-1.19-1.18A1.18,1.18,0,0,0,211.21,135.39Z"/><path class="cls-2" d="M211.21,208.1a1.18,1.18,0,1,0-1.19-1.18A1.18,1.18,0,0,0,211.21,208.1Z"/><path class="cls-2" d="M211.21,214.71a1.18,1.18,0,1,0-1.19-1.18A1.18,1.18,0,0,0,211.21,214.71Z"/><path class="cls-2" d="M211.21,221.32a1.18,1.18,0,1,0-1.19-1.18A1.18,1.18,0,0,0,211.21,221.32Z"/><path class="cls-2" d="M211.21,227.93a1.18,1.18,0,1,0-1.19-1.18A1.18,1.18,0,0,0,211.21,227.93Z"/><path class="cls-2" d="M211.21,234.54a1.18,1.18,0,1,0-1.19-1.18A1.18,1.18,0,0,0,211.21,234.54Z"/><path class="cls-2" d="M211.21,241.15A1.18,1.18,0,1,0,210,240,1.18,1.18,0,0,0,211.21,241.15Z"/><path class="cls-2" d="M211.21,247.76a1.18,1.18,0,1,0-1.19-1.18A1.18,1.18,0,0,0,211.21,247.76Z"/><path class="cls-2" d="M215.51,196.78a24.44,24.44,0,0,0,0-48.87h-1.2c-.71,0-1.41.06-2.11.14s-1.18.16-1.77.26a24.45,24.45,0,0,0,3.88,48.47l.6,0Zm-1.2-47.67h1.2a23.24,23.24,0,0,1,0,46.47l-.6,0-.6,0a23.24,23.24,0,0,1,0-46.47Z"/><path class="cls-2" d="M256.24,283.24l-.57-2.42-1.83.42a4.94,4.94,0,0,0-.77-1l1-1.62L252,277.27,250.92,279a4.85,4.85,0,0,0-1.21-.19l-.45-1.94-2.42.56.46,2a4.9,4.9,0,0,0-1,.7L244.61,279l-1.32,2.11,1.71,1.06a4.32,4.32,0,0,0-.22,1.19l-1.94.45.56,2.43,1.88-.44a5,5,0,0,0,.72,1.05l-1,1.62,2.11,1.31,1-1.55a5,5,0,0,0,1.33.25l.4,1.75,2.43-.56-.4-1.74a4.87,4.87,0,0,0,1.12-.8l1.51.95,1.32-2.11-1.54-1a4.69,4.69,0,0,0,.21-1.34Zm-5.8,3.93a3.65,3.65,0,0,1-2.77-.46,3.61,3.61,0,0,1-1.62-2.28,3.66,3.66,0,0,1,2.74-4.39,3.29,3.29,0,0,1,.82-.1,3.67,3.67,0,0,1,3.57,2.84h0a3.66,3.66,0,0,1-2.74,4.39Z"/><path class="cls-2" d="M249.32,282.35a1.29,1.29,0,1,0,1.55,1A1.3,1.3,0,0,0,249.32,282.35Z"/><path class="cls-2" d="M269.16,257.31a.69.69,0,1,0-.69-.69A.69.69,0,0,0,269.16,257.31Z"/><path class="cls-2" d="M269.16,260.12a.69.69,0,1,0-.69-.69A.69.69,0,0,0,269.16,260.12Z"/><path class="cls-2" d="M269.85,262.24a.69.69,0,1,0-.69.69A.69.69,0,0,0,269.85,262.24Z"/><path class="cls-2" d="M461.91,361.55a.66.66,0,0,0-.12-.3l-19.57-23.64a.9.9,0,0,0-.19-.15.57.57,0,0,0-.22-.07h-.1l-.13,0a.5.5,0,0,0-.19.1h0c-3.07,2.57-5.73,5.14-7.33,6.74-.08-.92-.19-1.83-.34-2.74a.59.59,0,0,0-.31-.43.63.63,0,0,0-.52,0,31.11,31.11,0,0,1-11,2.47c-2,.08-4.61-.22-5.58-2.06a6.36,6.36,0,0,1-.42-3.16l.48-15.67c.07-2.32.15-4.94-.9-7.27h0c-.18-.53-.36-1-.53-1.48l0-.13c0-.09,0-.19,0-.29a7,7,0,0,0-2.16-4.25,21.71,21.71,0,0,0-3-3.73l-.06,0c-.84-1-1.73-1.86-2.65-2.76-8.37-8.17-17.69-16.19-29.14-19.51A56.91,56.91,0,0,0,361,281.25c-1.48,0-2.8.07-4,.17l-.18,0a40.11,40.11,0,0,0-5.23.22,4.36,4.36,0,0,1-1.32-2.75,7.51,7.51,0,0,1,.9-3.29c.15-.34.29-.68.43-1,2.66-6.78-.76-15.41-7.48-18.85-6.39-3.27-15.11-1.65-20.29,3.78a12.76,12.76,0,0,0-1.52,1.92c-.47-1.1-1-2.17-1.53-3.19a28.16,28.16,0,0,0-7-8.57l4.65.54h.07a.57.57,0,0,0,.22,0l19.58-7.51a.64.64,0,0,0,.34-.33.59.59,0,0,0,0-.47,129,129,0,0,0-6.09-11.78.6.6,0,0,0-.39-.27.54.54,0,0,0-.46.09L329.93,231l-.49-5.65c1.54-.28,3.08-.57,4.61-.89a.6.6,0,0,0,.47-.56l1.1-25.75A67.07,67.07,0,0,1,337,185.33a66,66,0,0,1,3.5-9.89c.65-1.59,1.33-3.23,1.93-4.87,3.67-9.93,4.15-19.51,1.53-27.22.21-.06.43-.1.65-.15a2.23,2.23,0,0,0,1-.44,2.26,2.26,0,0,0,.45-2.16c-1.51-8.32-3.08-16.92-6.12-25a84.7,84.7,0,0,0-4.8-10.46c-4.55-8.47-9.28-14-14.88-17.52l-.49-.31a11.82,11.82,0,0,0-3.72-1.8l-1.51-2.81a9,9,0,0,0,2-.5.61.61,0,0,0,.09-1.07,13.08,13.08,0,0,1-2.11-2c1.63-.08,2.13-.74,2.23-.9a.6.6,0,0,0-.06-.71c-1.16-1.32-1.54-1.92-1.14-4.66l0-.23c.43-2.93,1.34-9-3.6-13.58-3.82-3.53-5.36-4.14-9.47-4.69-2.65-.36-9.47,0-9.77,1.13a.69.69,0,0,0,.38.76l.12.05a10.94,10.94,0,0,1-6,0,.6.6,0,0,0-.59.09.61.61,0,0,0-.22.56,3.19,3.19,0,0,0,1.26,2.25,27.31,27.31,0,0,1-4.85.81.59.59,0,0,0-.55.58,3.18,3.18,0,0,0,1.07,2.56,21.09,21.09,0,0,1-2.29-.21.57.57,0,0,0-.55.2.6.6,0,0,0-.12.57q.72,2.25,4.25,3a13.76,13.76,0,0,0,1.56.25,15.47,15.47,0,0,0-.27,1.68A2.3,2.3,0,0,0,284,67.08c-.91,0-1.7.64-2.25,1.89a12.5,12.5,0,0,0-.35,8.91h0a2.72,2.72,0,0,0,2,1.76h.17a2,2,0,0,0,.55-.09c-.08.29-.17.58-.24.87a1.94,1.94,0,0,0,0,1.28c.39.91,1.38.91,2.09.9a1.08,1.08,0,0,1,.18,0c-.86,1.71-2.76,6.2-1.2,9.88.81,1.92,2.58,3,5,3l.64,0A17.72,17.72,0,0,0,299.28,92l.67,1.2c-.88.39-1.77.79-2.64,1.15-10.64,4.41-22.6,4.34-33.66,3.74a2.89,2.89,0,0,0,.79-2V86.18a2.88,2.88,0,0,0-2.88-2.88H243c-14.59-22.17-27.49-34.69-27.64-34.83a.59.59,0,0,0-.83,0c-.18.17-17.81,17.27-35.19,47A260.1,260.1,0,0,0,149,173.72c-19.14-8.28-48.87-19.71-74.88-23.52a.58.58,0,0,0-.64.38c-.12.31-8.7,23.43-14.18,36.45-1.23.25-5.39,1.37-6,5.42-.39,2.72-.48,4.67,0,6a2,2,0,0,1,0,.29c-1.87,8.77-.92,15.57.62,24.23l.06.36c.18,1.11.41,2.49,1.61,3.08a4.21,4.21,0,0,0,1.4.28A154.26,154.26,0,0,1,56.43,251l-.21,1.92c-.55,5-1.12,10.07.08,15a.61.61,0,0,0,.58.46h0l1.32-.07a812.55,812.55,0,0,1-3.16,81.23.58.58,0,0,0,.17.48.56.56,0,0,0,.47.17c.67,0,1.37-.06,2.08-.07-.26,2.24-.66,6.38-.75,10.92h0a.29.29,0,0,0,0,.09.32.32,0,0,0,0,.14.83.83,0,0,0,.09.16l0,0h0a.59.59,0,0,0,.19.13.59.59,0,0,0,.23.05l12.23.17c0,.32,0,.63,0,1h0s0,.05,0,.08a.8.8,0,0,0,0,.15.4.4,0,0,0,.1.15l0,.05h0a.69.69,0,0,0,.2.13.56.56,0,0,0,.23.05l31.93.43h0a.52.52,0,0,0,.21,0s0,0,0,0a.25.25,0,0,0,.12-.08l0,0a.38.38,0,0,0,.09-.13l0-.05h0a7.9,7.9,0,0,0-.18-5.86,6.17,6.17,0,0,0-4.3-3,85.19,85.19,0,0,1-9.12-2.83,2.73,2.73,0,0,0,1.16-.59,3.86,3.86,0,0,0,1-2c2.28-8.57,2.85-17.54,3.4-26.21l3.57-56.57c0-.12,0-.25,0-.37h.21a3.87,3.87,0,0,0,2.8-1,3.63,3.63,0,0,0,.71-2.27c.34-4.84.3-9.79.26-14.58,0-7.32-.11-14.84,1.17-22.09l12.09,7.49,2.1,1.6a9,9,0,0,0,3.58,1.91l9.52,4.11a.52.52,0,0,0,.24.05.61.61,0,0,0,.54-.33c.06-.12,1.59-3.2,4.06-7.89l2.29-.78a4.37,4.37,0,0,0,2.65-2.42,6.3,6.3,0,0,0,.39-1.3l3.11-.41q.24,8.08,1,16.3c-17.92-3.16-30.44,1.47-37.16,13.83-15.17,27.84,4.55,84.79,21,102.09a.61.61,0,0,0,.44.19h17.09a.61.61,0,0,0,.5-.26.62.62,0,0,0,.06-.56c-11.36-28-10-45.6-4.9-52.71,3-4.25,7.94-6.27,14.55-6q1.53,4.95,3.25,9.92a.59.59,0,0,0,.56.41h13l10,20.44a.59.59,0,0,0,.53.33h20.51v29.82a.6.6,0,0,0,.6.6h19.05a.6.6,0,0,0,.6-.6V332.07h15.32a21.48,21.48,0,0,1-1.67,3.95.61.61,0,0,0,.25.81.6.6,0,0,0,.28.08.6.6,0,0,0,.53-.32,22.76,22.76,0,0,0,1.87-4.52h6.9a.59.59,0,0,0,.56-.39l7.51-20.38h12.58a.59.59,0,0,0,.56-.41q1.72-5,3.26-9.93c6.09,0,10.65,2,13.52,6,5.08,7.11,6.46,24.7-4.89,52.71a.59.59,0,0,0,.06.56.61.61,0,0,0,.49.26h12.15a1.27,1.27,0,0,0-.06.18,1.24,1.24,0,0,0,.19,1.12,1.3,1.3,0,0,0,1,.52h9.31a5.49,5.49,0,0,0,3.24,1.07h3.4a7.61,7.61,0,0,0,1.9-.24l3.25-.83h2.75a4.76,4.76,0,0,0,3.77-1.86l3.25-4.23a9.5,9.5,0,0,0,2.67,1,.6.6,0,0,0,.2,0,2.77,2.77,0,0,0,1.51-1.53l19-35.95,1-2c1.18.53,2.37,1,3.51,1.47l17.94,7.26c1.07.43,2.27.93,3.55,1.48l-16.2,15.74c-1.51,1.47-3.07,3-4.46,4.63-2.54,3-3.59,5.72-3.23,8.29.42,2.93,2.89,5.55,6.28,6.69a18.69,18.69,0,0,0,6,.82c1.07,0,2.12-.05,3.12-.09l24.47-1.1a1.86,1.86,0,0,0,1.17-.35,1.89,1.89,0,0,0,.58-1.31c.13-1,.25-2.16.37-3.31a8.24,8.24,0,0,0,3.3,2,14.84,14.84,0,0,0,4.52.6c.92,0,1.81,0,2.67-.09l5.08-.27c1.87,1.11,3.83,2.36,5.52,3.6a6.43,6.43,0,0,0,3.79,1.4,5,5,0,0,0,1.09-.12,7.65,7.65,0,0,0,4.41-3.53v0a.62.62,0,0,0,.06-.3s0-.05,0-.07a.58.58,0,0,0-.13-.3l-1.2-1.36,9.36-.49a.62.62,0,0,0,.55-.45c.11-.41.2-.82.29-1.24l6.55-1.6.06.11a.61.61,0,0,0,.23.22,106.12,106.12,0,0,1,12.47,7.91,6.32,6.32,0,0,0,3.89,1.51,5.09,5.09,0,0,0,.95-.09,7.51,7.51,0,0,0,4.5-3.4h0a.7.7,0,0,0,.07-.31S461.91,361.57,461.91,361.55Zm-4.8,2.61a4.78,4.78,0,0,1-3.87-1.19l-.7-.53a.61.61,0,0,0,.24-.52,3.93,3.93,0,0,1,.12-1.23,7.87,7.87,0,0,1,1.67-3,12.15,12.15,0,0,1,1.47-1.47s0,0,0,0l4.53,5.47A6.08,6.08,0,0,1,457.11,364.16ZM440.75,355l0-.06-.09-.14c-.1-.19-.21-.37-.31-.54-.38-.66-.73-1.25-1.06-1.79s-.79-1.25-1.2-1.81a24.55,24.55,0,0,0-3.86-4.05h0c0-.27,0-.53,0-.8.64-.65,1.61-1.62,2.82-2.77a7.16,7.16,0,0,0,5.22,2.24,6.52,6.52,0,0,0,3.8-1.23l7.75,9.36,1.53,1.84h0c-.16.13-3.76,3.1-3.7,6.46a112.64,112.64,0,0,0-10.34-6.43C441,355.19,440.86,355.09,440.75,355Zm-7.28.94a40.5,40.5,0,0,0,.76-7.69,22.71,22.71,0,0,1,4.88,6.3Zm-1.58,1.62c0,.07,0,.13,0,.19l-.92,0-3.19.17-2.64.13-.6,0-2.52.13-18-20.56a.62.62,0,0,0-.19-.14.86.86,0,0,0-.23-.06h0a.52.52,0,0,0-.34.1l-.06,0h0a114.1,114.1,0,0,0-8.68,8.63h0l-.15.08a1.64,1.64,0,0,0-.53-.26c-.08-.62-.17-1.23-.27-1.84-.06-.35-.11-.7-.16-1.06a79.41,79.41,0,0,0,9.41-8c6-4.91,11.46-10.37,12.3-17.13a24,24,0,0,1,.14,4.46l-.48,15.67a7.39,7.39,0,0,0,.56,3.76c1.26,2.39,4.33,2.79,6.68,2.7a32.46,32.46,0,0,0,10.72-2.27c.14,1,.23,1.94.3,2.92l0,.32,0,.48c0,.07,0,.14,0,.21h0c0,.27,0,.53,0,.8h0a40,40,0,0,1-.83,9.08L432,357Zm-8.9,3.68a6.1,6.1,0,0,1-3.4,2.59,4.8,4.8,0,0,1-3.9-1.08l-.72-.51a.58.58,0,0,0,.23-.53,4,4,0,0,1,.09-1.24,5.46,5.46,0,0,1,.19-.66c.08-.21.16-.42.26-.62s.22-.42.34-.62a11.22,11.22,0,0,1,.79-1.13A12.15,12.15,0,0,1,418.3,356s0,0,0,0l2.15,2.45.5.57.51.58Zm-12.3-1.78-.93-.56c-2.9-1.71-5.53-3.08-6.51-3.59l-.27-.13,0-.05-.19-.32-.34-.53c-.51-.83-1-1.54-1.41-2.19a20.17,20.17,0,0,0-1.89-2.4,31.66,31.66,0,0,0-3.38-3.08l.3-.33c.62-.66,1.6-1.7,2.84-3a7.15,7.15,0,0,0,5.08,2.09,6.54,6.54,0,0,0,4-1.32L417.52,355h0a12.8,12.8,0,0,0-2.83,3.64c-.1.2-.19.4-.28.61s-.14.41-.2.61a5.12,5.12,0,0,0-.2,1.7c-.79-.53-1.6-1.05-2.41-1.56Zm-13.14-.72a7.31,7.31,0,0,1-2.51-1.41l6.82-1.68.07.11.12.19a.56.56,0,0,0,.24.22s2.36,1.19,5.28,2.85l-3.26.17A18.93,18.93,0,0,1,397.55,358.78Zm-5.37,2.85a1,1,0,0,1-.46.08l-24.47,1.1c-2.91.13-5.92.27-8.7-.66-3-1-5.11-3.25-5.47-5.73-.32-2.21.65-4.61,2.95-7.34,1.36-1.61,2.9-3.1,4.4-4.57L377,328.44l.46-.46.47-.45,1.85-1.8.07-.08a50.1,50.1,0,0,1,15.68-14.42,20.59,20.59,0,0,1,3.26,5.75,3.9,3.9,0,0,1,.16.89,1.25,1.25,0,0,1-.28,1l-.53.5L397,320.47,386,331l-.48.45-.47.45L361.21,354.8a.6.6,0,0,0-.14.65.58.58,0,0,0,.54.38l25.2.61.6,0h1.2a.6.6,0,0,0,0-1.19l-.53,0h-.6l-.6,0-23.82-.57,23.19-22.25.47-.45.48-.45L396.1,323l.92-.89,1-.95,1.46-1.4a2.65,2.65,0,0,0,.58-2.51,8,8,0,0,0-.19-.78c-.07-.22-.15-.45-.24-.68a23.72,23.72,0,0,0-3.05-5.15A34.27,34.27,0,0,1,409,306.55h.05a20.29,20.29,0,0,1,2.68,3.42.65.65,0,0,0,.16.17,3.22,3.22,0,0,1,.85,1,6.91,6.91,0,0,1,.71,1.72c.08.29.16.58.22.9a.77.77,0,0,1,0,.15s0,0,0,.06l0,.23,0,.11c.14.36.27.73.41,1.13l-.05.05h0a.6.6,0,0,0-.2.47,13,13,0,0,1-.42,3.76,18.93,18.93,0,0,1-3.79,7.15,54,54,0,0,1-7.8,7.57l-.58.54a78.48,78.48,0,0,1-8.2,6.95l-.57.42-.56.38a50.55,50.55,0,0,1-8,4.56.59.59,0,0,0-.34.71.61.61,0,0,0,.65.43c3.06-.36,5.22-.63,8.1-1l.2,0,.35-.05a1,1,0,0,1,.25,0,.63.63,0,0,1,.31.09s0,.05,0,.06a1.12,1.12,0,0,1,.1.63c0,.12,0,.24,0,.3-.24,1.95-.45,4.2-.66,6.37,0,.24-.05.48-.07.72s-.08.75-.11,1.12v.1c0,.21,0,.42-.07.64l-.06.63c-.11,1.09-.23,2.16-.35,3.15C392.31,361.24,392.27,361.56,392.18,361.63ZM329,356a18.62,18.62,0,0,1-1.86-.77l-.57-.25-.56-.26-.9-.41c-2.29-1.06-5.2-2.39-7.71-3.36l-.59-.22-.59-.21-.65-.23,5-9.68c1.86-3.63,3.79-7.38,5.4-11.23,1.78-4.28,3.21-8.77,4.59-13.11,1-3.15,2-6.37,3.2-9.53l4.67-1.43a17.47,17.47,0,0,0,4.33,7.27,25.17,25.17,0,0,0,7,4.63l-1,1.94-19,35.95A2.08,2.08,0,0,1,329,356Zm-9.64,5.1h-2.82l-.15,0L313,362a6.16,6.16,0,0,1-1.6.21H308a4.35,4.35,0,0,1-2.67-.94.54.54,0,0,0-.37-.13h-9.51l-.08-.1c.05-.17.11-.34.18-.52a4,4,0,0,1,.28-.6,3.85,3.85,0,0,1,.39-.6,3.05,3.05,0,0,1,2.53-1.24c.42,0,.9,0,1.4-.09l.88-.11.89-.14a82.75,82.75,0,0,0,8.46-2.05l4.13-1.69a2.86,2.86,0,0,0,1.19-.91l.87-1.11c2.53,1,5.59,2.36,8,3.46l.65.3-3.08,4A3.58,3.58,0,0,1,319.33,361.12Zm-31.85-54.85c-3.05-4.28-7.79-6.47-14.12-6.53q.93-3,1.78-6a13.57,13.57,0,0,0,1.61,2.58,4.28,4.28,0,0,0,1.65,1.39,5.07,5.07,0,0,0,1.41.26l.33,0a14.71,14.71,0,0,1,2.35.54c.55.16,1.11.32,1.67.43a5.81,5.81,0,0,0,4.21-.49c1.24.35,2.49.65,3.74.92,0,.71,0,1.41-.07,2.13a.61.61,0,0,0,.45.61l27.69,6.95c.5.12,1,.25,1.52.34-.23,1-.47,2.06-.73,3.1-4.35,17.36-12,34.43-19.67,44.1a17,17,0,0,1-2.52.25,4.4,4.4,0,0,0-3.95,2.44H283.05C290.44,340.77,295.39,317.35,287.48,306.27ZM271.71,301q-1.41,4.56-3,9.13H231a12.21,12.21,0,0,1-.08-2.19c0-.2,0-.4,0-.6s.06-.4.09-.6.05-.52.1-.79c1-5,4.26-9.19,8.3-10.6l0,0a.58.58,0,0,0,.43.18h28.57a.63.63,0,0,0,.57-.41c0-.07.09-.26.18-.54s.17-.53.28-.9c.7-2.2,2.09-6.67,3.55-12l2,1.93-1.39,1.45a.59.59,0,0,0,0,.85l1.88,1.79c0,.13-.06.25-.1.38a3.59,3.59,0,0,0-1.15,1.93,3.82,3.82,0,0,0,.12,1.85c-.73,2.63-1.5,5.27-2.31,7.9-.06.21-.13.41-.19.61S271.78,300.77,271.71,301Zm-29.82,29.9c1.22-6.14-2.08-10.31-7.44-14.32a9,9,0,0,1-3.29-5.25H255.3l-7.21,19.57Zm-18.06,1.2v29.22H206V249.06h17.85v83Zm-62.75-22c-1.11-3.22-2.15-6.44-3.15-9.65-.09-.3-.19-.6-.28-.91s-.19-.6-.28-.9a279.5,279.5,0,0,1-10.62-51.38c-.05-.42-.08-.83-.13-1.25l-.12-1.24q-.83-8.45-1.07-16.77a2.93,2.93,0,0,0,1.35-.28,4.15,4.15,0,0,0,1.43-1.25,1.12,1.12,0,0,0,.55-.64,1,1,0,0,0,0-.24,21.79,21.79,0,0,0,1.72-4.49l.2-.66c.2-.66.38-1.3.53-1.92,11.14,4,35.61,5.82,61,5.82h2.09v23.53h-8.93a.6.6,0,0,0-.6.6V310.1h-43.7Zm-19.77-3.83c-7.9,11.08-2.95,34.5,4.43,53H129.8c-8.37-8.93-17.18-27.68-22-46.79-5.6-22.33-5.12-41.91,1.31-53.72s18.69-16.35,36.24-13.17a281.17,281.17,0,0,0,11.07,54.13C149.61,299.57,144.53,301.77,141.31,306.27Zm0-79a13.61,13.61,0,0,0-.38-3.72c-.07-.29-.14-.58-.22-.87s-.17-.54-.25-.81c-.18-.54-.37-1.06-.57-1.54a7,7,0,0,0-.39-.77l1.18-1.06a.61.61,0,0,0,.19-.35,9.08,9.08,0,0,1,.33-1.38,4.25,4.25,0,0,1,2.32-2.65,5.77,5.77,0,0,1,.77-.2l.42-.08.18,0,.19,0,.42-.09.43-.12.18-.06a3,3,0,0,0,1.5-1.64c.09-.17.18-.36.29-.54l.06,0c1.29.3,2.13,1.88,2.4,3.43a7,7,0,0,1,0,2.14,10.56,10.56,0,0,1-.22,1.18c-.15.64-.34,1.31-.55,2l-.2.66a26.85,26.85,0,0,1-1.27,3.59,5.67,5.67,0,0,1-1.32,1.94,2.8,2.8,0,0,1-.53.37,2,2,0,0,1-.85.15h-.51l-.09,0-.6.07Zm-1.42,1.35a4,4,0,0,1-.22.69,3.13,3.13,0,0,1-1.93,1.77l-1.1.37-.84.29-.84.28-9.61,3.26a7.78,7.78,0,0,1-3.49.62h-.1a7.48,7.48,0,0,1-3.14-1.7l-2.15-1.63-10.79-8.21-1.41-1.07-.51-.4-.53-.42A32.7,32.7,0,0,1,97.52,217a15.31,15.31,0,0,1-3.12-7.23,10.2,10.2,0,0,1,0-2.7A8.7,8.7,0,0,1,97,202a7.5,7.5,0,0,1,2.17-1.44q.33-.13.66-.24c.21-.06.43-.11.64-.15a4.85,4.85,0,0,1,.53-.08h0l.61,0h.3a7.17,7.17,0,0,1,.81.08,8.25,8.25,0,0,1,1.51.41,9.65,9.65,0,0,1,1.1.48c.35.18.7.39,1,.6s.66.44,1,.68l.48.38.48.39c.5.42,1,.85,1.42,1.29q.24.23.45.45t.39.39l.06.06c1.59,1.64,3.13,3.34,4.63,5.08l.29.34.1.12a1.63,1.63,0,0,1,.17.2c.08.08.15.17.22.25.43.51.86,1,1.28,1.55l.55.68.48.6c.74.94,1.47,1.9,2.18,2.87l.36.49.34.47q2,2.7,3.74,5.5a.6.6,0,0,0,.75.22,103.31,103.31,0,0,1,10.37-3.87,3.05,3.05,0,0,1,1.57-.19,1,1,0,0,1,.24.08,1.06,1.06,0,0,1,.31.29,3.63,3.63,0,0,1,.46.85,19,19,0,0,1,.86,2.55l0,.08c.07.27.13.54.19.81s.11.54.15.82c0,0,0,.09,0,.14a9.65,9.65,0,0,1,0,2.84A3.51,3.51,0,0,1,139.85,228.62Zm-15.75,8.29c.57-.15,1.11-.33,1.6-.49l8.42-2.86c-1.59,3.05-2.72,5.29-3.22,6.29ZM103.91,224.8a1.43,1.43,0,0,1,0-.22l1,.73.77.59Zm-1.34.58c-1.39,7.5-1.33,15.24-1.28,22.78,0,4.77.08,9.7-.25,14.49a1.89,1.89,0,0,1-2.39,2.16h-.07l-.6,0-.6,0-20.95,1.17-.72,0-.81.05-1.7.1-.6,0-.61,0L59.43,267l-.6,0-.6,0-.87.05c-1-4.57-.47-9.4,0-14.09.07-.64.15-1.28.21-1.92a155.82,155.82,0,0,0,.62-24.44l0-.6,0-.59c-.07-1.15-.15-2.3-.25-3.45l-.21-2.3a59.71,59.71,0,0,1-.28-11.88A24.28,24.28,0,0,1,60.08,199c.1-.18.2-.36.31-.52l.07-.12c.1-.12.19-.24.28-.37s.18-.22.26-.34a1.94,1.94,0,0,1,.14-.2l0,0h0l0,0a2.51,2.51,0,0,0,.27-.37c.12-.14.25-.27.37-.39l1.42-.25.59-.1.61-.11a90.21,90.21,0,0,1,12-1.14.53.53,0,0,0,.36-.15.69.69,0,0,0,.16-.18l.29-.58,1.15-2.33.15.09.52.3.54.28a15.75,15.75,0,0,0,5,1.45,26.59,26.59,0,0,0,8.89-.71l.61-.16h0l0,.13.11.77.12.83.14,1v0a.62.62,0,0,0,.49.69l.71.13,1.23.22a29.47,29.47,0,0,1,3,.76l.56.21.56.22a9.79,9.79,0,0,1,.92.45l.56.33-.51,0a9.07,9.07,0,0,0-1,0l-.12,0c-.22,0-.44.06-.65.11s-.43.1-.65.16a9.53,9.53,0,0,0-6.26,7.71,11,11,0,0,0-.08,2.23c0,.23,0,.46,0,.69s.06.48.1.72a16.29,16.29,0,0,0,3.26,7.19,34.85,34.85,0,0,0,6.33,6c0,.12-.06.24-.08.36s-.09.42-.13.63Zm-5.28,40.94-3.57,56.57c-.5,7.89-1,16-2.85,23.85l-12.39-.07,3.67-39,.16.05.18,0a.6.6,0,0,0,.17-1.18h0l-.38-.12-.58-.18-.59-.18L77.54,305l-.59-.18-.59-.18-1.53-.47L76.4,304l.61-.08.6-.09,3.74-.5.62-.09.61-.08,1-.14.25,0a.6.6,0,0,0,.52-.67.62.62,0,0,0-.68-.52l-1,.14,3.3-35a.78.78,0,0,0,0-.16l11.34-.63C97.3,266.16,97.3,266.24,97.29,266.32Zm-6.93,82.54a2.74,2.74,0,0,1-.66,1.39,2.88,2.88,0,0,1-1.75.47l-1.17.06-1.47.06-1.43.07-1.36,0c-1,0-2,.05-3,.07l-1.76,0h-1.8c-1,0-2,0-3,0l-1,0-.61,0-.6,0c-.91,0-1.82,0-2.72-.09a1.91,1.91,0,0,1-1.2-.3.65.65,0,0,1-.17-.26,1.84,1.84,0,0,1-.1-.6v-.07a4.84,4.84,0,0,1,0-.53V349c0-.19,0-.39.06-.58l.06-.63,5.21,0h1.21l17.5.1C90.5,348.25,90.44,348.55,90.36,348.86Zm11.58,13.73-30.88-.42c0-.12,0-.24,0-.36s0-.41,0-.6,0-.4,0-.6h0c.15-3.47.44-6.53.65-8.41,1.58,0,3.17.06,4.75.06.92,0,1.84,0,2.76,0l1.86,0,1.91-.05c1.18,0,2.36-.09,3.54-.16a97,97,0,0,0,11.61,3.76,5,5,0,0,1,3.51,2.37A6.43,6.43,0,0,1,101.94,362.59ZM81.47,302.08l-3.78.51-.61.08-.61.09-4.51.61a.62.62,0,0,0-.52.55.6.6,0,0,0,.43.62l4.41,1.35.59.18.59.18L81,307.32l-3.7,39.35-4,0H72.06l-5.28,0c2.72-26.22,4.85-52.82,6.35-79.16l2.73-.15.68,0,.66,0,7.59-.42Zm-22-33.87,12.48-.7C70.41,294,68.27,320.66,65.53,347a.65.65,0,0,0,0,.2.25.25,0,0,0,0,.07c-.05.41-.09.83-.13,1.24,0,.13,0,.25,0,.37a1.37,1.37,0,0,1,0,.19L64,349l-2.11-.08c-1.07,0-2.14-.06-3.19-.06h-.71c-.54,0-1.08,0-1.61,0C58.71,322.19,59.75,295.06,59.44,268.21Zm4.47,82,1.44,0a2.08,2.08,0,0,0,.59,1.18,2.9,2.9,0,0,0,2,.62c.87,0,1.75.06,2.63.09-.21,1.92-.5,5-.64,8.43l-11.64-.16c.11-4.35.5-8.26.74-10.34C60.61,350.09,62.27,350.15,63.91,350.22ZM56.17,225.3c-.65-.32-.81-1.27-1-2.19l-.06-.38c-1.47-8.28-2.39-14.83-.77-23a2.4,2.4,0,0,0,.26.18,3.21,3.21,0,0,0,1.54.32,8.46,8.46,0,0,0,2.15-.32,26.66,26.66,0,0,0-2.09,7.86,60.51,60.51,0,0,0,.29,12.12c.07.76.14,1.53.2,2.29.1,1.11.17,2.23.24,3.34A2.34,2.34,0,0,1,56.17,225.3Zm-1.64-32.68c.39-2.7,2.77-3.8,4.2-4.22h0L57.28,192l-.25.6-.25.59-.3.75a.57.57,0,0,0,0,.54s0,0,0,.05a.6.6,0,0,0,.41.24h.14a2.74,2.74,0,0,0,2.21-1.31,4.68,4.68,0,0,0,.29-.55l.07-.11a2.19,2.19,0,0,1,.24-.43,2.23,2.23,0,0,1,1.15-.84,12.24,12.24,0,0,1,0,1.26c0,.22,0,.44,0,.66s0,.43,0,.65a5.61,5.61,0,0,1-.7,2.43c0,.07-.09.16-.14.22L60,197l-.3.41-.27.35-.11.12a4.51,4.51,0,0,1-.42.44,1,1,0,0,1-.25.17,5.41,5.41,0,0,1-3.46.33,1.57,1.57,0,0,1-.59-.56,5,5,0,0,1-.39-2.8c0-.75.13-1.66.29-2.77Zm19.91-41.16a198.38,198.38,0,0,1,22.17,4.76,13.7,13.7,0,0,0-5,.21c-.39,0-.78-.07-1.18-.09-3.14-1-7.91-1.62-9.44-.82a.6.6,0,0,0-.32.61.62.62,0,0,0,.47.51,14,14,0,0,1,2,.66l-1.29.34c-2.1.54-3.62.94-4.26,1.63a17.33,17.33,0,0,0-1.79,2.89A15.09,15.09,0,0,1,74.79,164a.67.67,0,0,0-.21.89.63.63,0,0,0,.7.3,15.38,15.38,0,0,0-1.32,7,19.54,19.54,0,0,0,5.23,12.71v0c.79,1.65.47,4-.24,6l-.52-.33a.57.57,0,0,0-.49-.08.62.62,0,0,0-.38.31L76,193.94a90.46,90.46,0,0,0-12.12,1.21l-.63.11-.65.11-.54.1c0-.2.08-.39.11-.59s.08-.49.1-.73,0-.48.05-.71a18,18,0,0,0-.1-2.72.6.6,0,0,0-.6-.52,3.46,3.46,0,0,0-2.92,1.9,1.86,1.86,0,0,1-.11.19,2.55,2.55,0,0,1-.19.37,2,2,0,0,1-.25.35l.15-.36.24-.58,1.76-4.28v0C65.4,175.72,73.14,155,74.44,151.46ZM180.31,96.09c15.82-27,31.84-43.58,34.6-46.35,2.29,2.3,13.73,14.12,26.62,33.56h-.93a2.87,2.87,0,0,0-2.85,2.6h-6.34a2.83,2.83,0,0,0-2.6,1.71h-3.36a.6.6,0,0,0-.6.6v2.3h-8.13V91.9h8.13V94a.6.6,0,0,0,.6.6h3.36a2.83,2.83,0,0,0,2.6,1.71h6.34a2.87,2.87,0,0,0,2.85,2.6h4.31a5.29,5.29,0,0,0-.94,3.14c-.1,1.84-.14,3.69-.12,5.51a5.07,5.07,0,0,0,1.45,4.09h-1.93A2.27,2.27,0,0,0,241.1,114v6.79a2.27,2.27,0,0,0,2.27,2.27h14.47c-6.21,3.57-21.6,6-40.94,6.12h-1.39V57a.6.6,0,1,0-1.2,0v72.14c-24.53-.08-43.35-3.89-45.19-9.27a.6.6,0,1,0-1.14.39c2.38,6.93,24.55,10,46.33,10.08v10.72c-.67,0-1.32.05-2,.1a1.28,1.28,0,0,0,.06-.34,1.19,1.19,0,0,0-2.38,0,1.13,1.13,0,0,0,.17.58,31.3,31.3,0,0,0,4.12,62.23v19.5c-26.09.07-51.91-1.88-62.83-5.78a8.43,8.43,0,0,0,0-2.79c-.32-1.83-1.34-3.68-2.95-4.27,6.94-11.43,14.69-22.56,20.49-26.3a.61.61,0,0,0,.27-.54.59.59,0,0,0-.33-.5c-.19-.1-7.53-3.81-18.85-8.74A259.12,259.12,0,0,1,180.31,96.09ZM261.56,84.5a1.69,1.69,0,0,1,1.69,1.68v9.88a1.69,1.69,0,0,1-1.69,1.68H255.5l-.12,0a4.76,4.76,0,0,0-3.23-.28l-.53,0-.73-.06c-.24,0-.47,0-.71,0a9.94,9.94,0,0,0-3,.28,4.22,4.22,0,0,0-.6.2h-6a1.7,1.7,0,0,1-1.66-1.4,2.64,2.64,0,0,1,0-.28V86.18a2.64,2.64,0,0,1,0-.28,1.7,1.7,0,0,1,1.66-1.4h21Zm37.89,10.18,1.05-.46,0,0,.17-.08.07,0,.27-.12,0,0,.51-.22,0,0,.43-.19a38.13,38.13,0,0,1,5.46-2,15.86,15.86,0,0,1,1.76-.39c.3,0,.59-.09.89-.12l.51,0c.33,0,.65,0,1,0h.42a10,10,0,0,1,2.62.47l.2,0a3.71,3.71,0,0,1,2.69,1.21,6.81,6.81,0,0,1,1.65,2.88.6.6,0,0,0-.1.35c0,.25,0,.48,0,.72a13.05,13.05,0,0,1-.44,4.41,8,8,0,0,1-3.29,4.25,48.45,48.45,0,0,1-4.43,2.61l-.29.16-.31.17-.59.33-.24.13s0,0,0,0l-.34.15c-1.16.48-2.33.9-3.49,1.33l-5.65,2.06-.57.2-.56.21-1.31.47-.91.33-.91.34-3.8,1.38a8.15,8.15,0,0,1-6.34.19l-.5-.12c-6.49-1.56-13.28-1.63-19.85-1.7-1.56,0-3.13,0-4.69-.07h-.06l-.46,0-.18,0a2.82,2.82,0,0,1-.52-.1,2,2,0,0,1-.37-.14,1,1,0,0,1-.26-.18.68.68,0,0,1-.17-.21,1.3,1.3,0,0,1-.13-.46,4,4,0,0,1,0-.6v-.27l0-.44,0-.62v-.12l.46-8.79,0-.61,0-.61.07-1.26c12.37.77,26.3,1.55,38.63-3.56Zm-8.89-.45c-2.28.16-3.8-.58-4.49-2.2-1.2-2.84.05-6.41.88-8.27.21-.47.4-.83.51-1l.09,0,.59-.17c2.73-.84,10.42-3.6,10.06-8.15a13,13,0,0,1,.19-3.15c0-.2.07-.4.11-.6s.08-.4.13-.6a30.35,30.35,0,0,1,1.89-5.5.6.6,0,0,0-1-.67c-.77.83-6.88,2.23-11.86,2-.21,0-.42,0-.62,0a6,6,0,0,1-.61-.06,13.42,13.42,0,0,1-1.62-.24,5.59,5.59,0,0,1-2.78-1.29,13.6,13.6,0,0,0,3.8-.11.61.61,0,0,0,.47-.62.6.6,0,0,0-.53-.56c-.09,0-2-.26-2.33-1.84,1.61-.16,5.29-.64,6.23-1.68a.61.61,0,0,0,.09-.67.62.62,0,0,0-.6-.33,1.42,1.42,0,0,1-1.32-.75,12.76,12.76,0,0,0,6.67-.54.72.72,0,0,0,.6-.62.77.77,0,0,0-.31-.69,28,28,0,0,1,7.49-.29c3.8.51,5.17,1,8.81,4.38,4.48,4.13,3.67,9.59,3.23,12.53l0,.23c-.39,2.63-.12,3.7,1,5.09a4.59,4.59,0,0,1-1.84.11l-.28,0a.59.59,0,0,0-.32.05.6.6,0,0,0-.22.93,1.22,1.22,0,0,1,.18.21l.6.68c.45.5,1,1.12,1.58,1.63a11,11,0,0,1-1.45.2l-.6,0-.61,0a9.94,9.94,0,0,1-5.35-2,.6.6,0,0,0-.55-.07c-1.39.49-2.94,1.09-3.64,2a.54.54,0,0,0-.11.26c-.33,2-.77,4-1.25,5.82a4,4,0,0,1-.76,1.37l-.24.29c-.14.17-.29.33-.45.49l-.29.28-.19.17-.34.29-.47.37A16.54,16.54,0,0,1,290.56,94.23ZM286,81.41c-.53,0-.91,0-1-.18a1,1,0,0,1,0-.52c.22-.93.54-1.86.85-2.77.07-.21.15-.43.22-.65.05.16.11.34.19.53a2.74,2.74,0,0,0,2.07,1.76,1.81,1.81,0,0,0,.4,0A2.94,2.94,0,0,0,291,78.5,5.6,5.6,0,0,0,292,76.08a12.47,12.47,0,0,0,0-4.87h5.09a14.32,14.32,0,0,0-.18,3.25c.28,3.53-6.69,6.22-9.78,7.07A3.55,3.55,0,0,0,286,81.41Zm-2.48-3c-.57-.06-1-.82-1-1a11.31,11.31,0,0,1,.32-8c.12-.28.55-1.18,1.09-1.18h0c.55,0,.93,1,1,1.27a11.35,11.35,0,0,1,0,7.37,3.56,3.56,0,0,1-.6,1.14A1.06,1.06,0,0,1,283.5,78.45Zm5.72-10.17c.52,0,1,.71,1.21,1.38a11.08,11.08,0,0,1,.43,6.17,4.36,4.36,0,0,1-.81,1.91,1.61,1.61,0,0,1-1.47.66,1.55,1.55,0,0,1-1.17-1,3.29,3.29,0,0,1-.28-1.38v-.1a14.52,14.52,0,0,1,.88-6.2c.15-.42.59-1.4,1.21-1.41Zm2.34,1c-.49-1.32-1.3-2.09-2.22-2.15a32.48,32.48,0,0,0,9.43-1.53A30.1,30.1,0,0,0,297.4,70h-5.59C291.74,69.75,291.65,69.49,291.56,69.24Zm-5,6.69ZM289,67.1a2.66,2.66,0,0,0-2,1.76,13.35,13.35,0,0,1,.29-1.79C287.9,67.1,288.46,67.11,289,67.1Zm30.09,21.21.49.31c5.41,3.37,10,8.79,14.45,17.06A83.16,83.16,0,0,1,338.81,116c3,8,4.56,16.55,6.06,24.82,0,.21.16.85-.06,1a1.42,1.42,0,0,1-.48.17l-.79.18-.59.13-.6.13c-9.78,2.23-19.71,4.11-29.63,5.6l-.6.1-.61.09-.46.07a125.69,125.69,0,0,0-5.27-21.44c-.08-.23-.16-.46-.25-.69s-.16-.45-.24-.68c-.64-1.8-1.3-3.59-2-5.36-.3-.75-.62-1.5-.93-2.25-.63-1.52-1.27-3-1.85-4.6l5.65-2.06c1.42-.51,2.85-1,4.26-1.65l.66-.28.62-.3a22.16,22.16,0,0,0,3.82-2.28c.24-.18.46-.37.69-.57a12,12,0,0,0,1.88-1.63c.38.6.78,1.31,1.19,2.12a118.64,118.64,0,0,1,8.64,25.8c.25,1.26.43,2.43.54,3.45a.6.6,0,0,0,.6.54h.06a.6.6,0,0,0,.53-.66c-.88-8.44-6.9-26.42-10.77-32.25a8,8,0,0,0,1-2.12,10.16,10.16,0,0,0,.88-3.7,8.28,8.28,0,0,0-2.3-6A4.86,4.86,0,0,0,315,90.21h0a9,9,0,0,0-1-.26c-.29-.07-.59-.12-.88-.16H313l1.67-1.39,1-.8.67-.55a.49.49,0,0,0,.14-.18A14.81,14.81,0,0,1,319.13,88.31ZM339.38,175a67.91,67.91,0,0,0-3.56,10.07,69.21,69.21,0,0,0-1.4,13l-1.08,25.28c-1.33.28-2.66.52-4,.77l-.6.11-.59.11c-1.4.25-2.82.46-4.23.68l-.6.09-.6.1-2.69.34-.6.07-.59.08c-2.28.27-4.56.51-6.84.69l-1.2-19.88a121,121,0,0,1,.46-15.84c.25-3.31.5-6.73.57-10.11a66.8,66.8,0,0,1,.87-9,40,40,0,0,0,.63-8.25c0-.32,0-.64-.06-1s-.07-.95-.09-1.41c0-1,0-2,0-3,0-.47,0-.93,0-1.41a31.34,31.34,0,0,0-.15-3.14c0-.44-.1-.88-.17-1.34v-.06a15.92,15.92,0,0,1-.2-2.65c3.42-.51,6.83-1.07,10.25-1.67a7.28,7.28,0,0,0,1.56,5.11,9.11,9.11,0,0,0,6.38,3.37h.07a.61.61,0,0,0,.6-.53.61.61,0,0,0-.53-.67c-.25,0-.49-.08-.73-.12a7.73,7.73,0,0,1-4.84-2.8,6.18,6.18,0,0,1-1.34-3.93,4.73,4.73,0,0,1,0-.53s0-.08,0-.12c6.26-1.13,12.5-2.39,18.67-3.8,2.59,7.47,2.12,16.82-1.47,26.54C340.7,171.77,340,173.4,339.38,175Zm-10.6,56.68a18.86,18.86,0,0,1-5.57,2.21l-.59.15-.07,0-.53.13-.18.05-.11,0-.33.08,0-.18-.1-.64-.17-1.11-.19-1.2-.09-.57v0l-.09-.6-.17-1.09-.35-2.21c.82-.1,1.64-.19,2.46-.31l.6-.09.6-.09c1.47-.22,2.93-.45,4.38-.7Zm2.93-.43c.84,1.44,3.2,5.61,5.44,10.52L318.3,249l-4.74-.54-2-.31-1.58-.24-1.79-.28-1.94-.3-.54-.08v-.49a1.09,1.09,0,0,0,0-.18c0-.15,0-.31,0-.48a.49.49,0,0,1,0-.12c0-.2.06-.42.1-.64a5.58,5.58,0,0,1,1.33-2.73,5.24,5.24,0,0,1,4.2-1.4,23,23,0,0,0,2.72,0l1,0a.57.57,0,0,0,.37-.16c.83-.75,1.59-1.47,2.29-2.13l.73-.7.93-.91,1-1,.52-.53,0,0,.28-.07.27-.07.44-.11.55-.14.6-.15.59-.16.79-.21a18.91,18.91,0,0,0,4.92-2.11l.57-.34Zm-10.22,31.6a6.61,6.61,0,0,0-.54,2.52,12,12,0,0,0,.11,1.48c.12,1.1.23,2.14-.34,2.83a12.34,12.34,0,0,0-1,1.82,14.32,14.32,0,0,1-.84,1.53,3.47,3.47,0,0,0-.34,4,2.43,2.43,0,0,0,1.74,1.1c.63.16.76.24.82.49a7.51,7.51,0,0,1,.08,1.79,8.36,8.36,0,0,0,.09,2.05,5.54,5.54,0,0,0,3.56,3.85c0,1.27-.1,2.57-.19,3.88a18.93,18.93,0,0,1-5.73,1.17h0a18.09,18.09,0,0,1-6.24-1.54c-.94-.35-1.9-.72-2.88-1-5.51-1.63-10.82-3-16.72-4.36a.57.57,0,0,0-.5.12.59.59,0,0,0-.23.46c0,.65,0,1.27,0,1.9a6.23,6.23,0,0,1-1.44-.77,12.58,12.58,0,0,0-2.86-1.33l-.33-.12a5.85,5.85,0,0,0-2-1.28,4.35,4.35,0,0,0-3.07,0,1.48,1.48,0,0,0-.61.52l-.17.09-3.28-3.12a270.66,270.66,0,0,0,6-35.47,58.41,58.41,0,0,1,7.25-.78.44.44,0,0,1,0,.09.79.79,0,0,0,.06.22l.11.22a.61.61,0,0,0,.44.32l8.23,1.29,4,.72v0a.53.53,0,0,0,0,.12l.07.24a.58.58,0,0,0,.48.42l6,.92a26.25,26.25,0,0,1,8.58,9.52A35.58,35.58,0,0,1,321.49,262.83Zm22-6.05c6.2,3.17,9.36,11.11,6.91,17.34-.13.33-.27.65-.41,1a8.46,8.46,0,0,0-1,3.83,5.26,5.26,0,0,0,1.1,2.87,45.84,45.84,0,0,0-14,4.55l-.06,0,0-.06a2.8,2.8,0,0,0-1-1.19,2.09,2.09,0,0,0-1-.24,5.7,5.7,0,0,0-.84.08l-1,.19a16.93,16.93,0,0,1-5.33.43,4.7,4.7,0,0,1-.63-.13,5.53,5.53,0,0,1-.66-.2c-.21-.08-.42-.17-.62-.27a4.2,4.2,0,0,1-2.43-2.79,7.72,7.72,0,0,1-.07-1.75,7.78,7.78,0,0,0-.1-2.09,1.91,1.91,0,0,0-1.7-1.4c-.5-.13-.82-.22-1-.52a2.28,2.28,0,0,1,.23-2.68,13.49,13.49,0,0,0,1-1.72,14.09,14.09,0,0,1,.89-1.6c.89-1.09.74-2.49.6-3.73a13,13,0,0,1-.1-1.34,3.52,3.52,0,0,1,0-.56,4.72,4.72,0,0,1,.27-1.14,5.91,5.91,0,0,1,.34-.84,11.13,11.13,0,0,1,1.83-2.51C329.45,255.26,337.57,253.74,343.5,256.78Zm-29.37,94.13a.58.58,0,0,0,.38.34c.28.08.59.18.9.29l-.62.8a1.77,1.77,0,0,1-.71.53L310,354.54c-.05,0-3.59,1.07-7,1.75,7.75-10.34,15.65-28.2,19.9-46.74h.27a12.83,12.83,0,0,0,3.78-.76l5.27-1.61c-1,2.91-2,5.85-2.92,8.73-1.37,4.31-2.78,8.77-4.55,13-1.59,3.81-3.51,7.54-5.36,11.15l-5.29,10.32A.61.61,0,0,0,314.13,350.91Zm-45.67-58.08-.28.91c-.08.23-.14.45-.19.6H240.47l.84-22.81,5.5.1,0,1a.57.57,0,0,0,.17.43.61.61,0,0,0,.41.19l2.61.06,0,.79a.62.62,0,0,0,.59.62h0a.59.59,0,0,0,.6-.59l0-.8.85,0,0,.8a.6.6,0,0,0,.59.61h0a.59.59,0,0,0,.6-.58l0-.8.85,0,0,.8a.6.6,0,0,0,.59.61h0a.6.6,0,0,0,.6-.59l0-.8,2.61.06h0a.6.6,0,0,0,.6-.58l.06-2.47h.67a.6.6,0,0,0,.6-.58.62.62,0,0,0-.59-.62h-.66l0-.85h.67a.6.6,0,0,0,0-1.19l-.66,0,0-.85.66,0h0a.61.61,0,0,0,.6-.59.6.6,0,0,0-.59-.61l-.66,0,.06-2.47a.59.59,0,0,0-.17-.42.57.57,0,0,0-.42-.19h-.28v-7.25h7.47v7.57a.64.64,0,0,0,.18.43l2.65,2.64.43.43.43.44.92.92h-6.09a.6.6,0,0,0-.6.6v2.86l-.46.48.46.87v14.31a.6.6,0,0,0,.6.6h6.39c-.58,2-1.09,3.65-1.49,4.95C268.65,292.25,268.55,292.56,268.46,292.83Zm-13.17-20.58-1.17,0-.88,0-1.17,0-.88,0-1.17,0-2-.05v-.44l0-.6v-.83l0-.6V269l0-.85v-.6l0-.6,0-.85v-1.19l0-1.87,2,0,1.17,0,.88,0,1.16,0h.89l1.16,0,1.17,0h.86l0,1.86v1.2l0,.85v.6l0,.6,0,.85v1.2l0,1.36,0,.51Zm1.37-10.2-1.12,0v-.79a.6.6,0,0,0-.58-.62h0a.61.61,0,0,0-.6.59v.8l-.85,0v-.8a.59.59,0,0,0-.58-.61h0a.59.59,0,0,0-.6.58l0,.8-.85,0,0-.8a.61.61,0,0,0-.59-.61h0a.59.59,0,0,0-.6.59l0,.79-2.61,0h0a.59.59,0,0,0-.6.58L247,264.9l-.65,0h0a.61.61,0,0,0-.6.59.6.6,0,0,0,.59.61l.66,0,0,.85-.66,0h0a.59.59,0,0,0-.6.59.59.59,0,0,0,.58.61l.66,0,0,.85-.66,0h0a.6.6,0,0,0,0,1.2l.65,0v.23l-5.44-.1.52-15.51h14.74Zm9.64,10.2.23-.23a1.43,1.43,0,0,0,.22,0,1.23,1.23,0,0,0,0-2.46h0a1.23,1.23,0,0,0-1.23,1.24,1.19,1.19,0,0,0,.09.47l-.54-.25-.56-.25-.06,0v-2.32h6.69l1.41,1.4a.56.56,0,0,0,.42.18h.09l1.55-.22c-.46,2-1.21,5.12-2,8.42Zm.23-17.23,8.87-.16h.74l.73,0h0c-.23,1.94-.93,7.64-1.74,12.42,0,.2-.07.4-.1.6l-.12.69h0l-1.73.24-.34-.34-.6-.6-.6-.6-1.93-1.93-.43-.43-.44-.43-2.31-2.32Zm-.25,30.75h-1.83V274.2l.34-.36.81.77a1,1,0,0,0-.08.39,1.23,1.23,0,0,0,1.23,1.23,1.22,1.22,0,0,0,.46-.09l4.73,4.51c-.46,1.79-.94,3.55-1.39,5.12Zm11.91-31.54a.36.36,0,0,0,0-.11s0-.07,0-.1a1,1,0,0,0-.08-.14.21.21,0,0,0,0-.06h0a.41.41,0,0,0-.11-.07.46.46,0,0,0-.19-.08h0l-.1,0H241.34a.55.55,0,0,0-.41.17s0,0,0,0a.91.91,0,0,0-.11.16.38.38,0,0,0,0,.1l0,.13-1.46,39.9c-4.55,1.45-8.29,6-9.36,11.59-.06.35-.09.68-.13,1s-.07.4-.08.6,0,.4,0,.6a14.39,14.39,0,0,0,.08,2.19H225V248.46a.6.6,0,0,0-.6-.6h-8.92V224.32c3.87,0,7.75-.08,11.59-.19,25.05-.71,53.13-3.54,57.29-9.33.06,2.13.1,4.27.1,6.43q0,11.47-1.14,23.19l-.06.62-.06.62a272,272,0,0,1-6.11,35.73l-.58.62-2.89-2.76C275.88,270.84,278.08,260.91,278.19,254.23Zm-63.88-51.8a30.09,30.09,0,0,1,0-60.17l.6,0,.6,0a30.09,30.09,0,0,1,0,60.17l-.6,0Zm1.2,1.2a31.29,31.29,0,0,0,0-62.57V130.34h1.4c19.3-.15,42.65-2.81,44.92-9.79a.6.6,0,0,0-.39-.76.6.6,0,0,0-.75.39l-.06.12v-3c11.78,25.06,22.5,58.09,23.73,96.62l-.05,0a.61.61,0,0,0-.83.17c-3,4.52-25.09,8-56.41,8.91-3.82.11-7.69.17-11.56.19ZM229.86,94a1.83,1.83,0,0,1-.09-.52V88.73a1.83,1.83,0,0,1,.09-.52,1.75,1.75,0,0,1,.36-.6,1.65,1.65,0,0,1,1.19-.51h6.31v8h-6.31A1.63,1.63,0,0,1,229.86,94Zm-3.81-.6V88.81h2.52v4.62Zm66.18,196.69c0,2.73,0,5.36-.09,8-1.24-.27-2.48-.57-3.72-.92a.45.45,0,0,0-.16,0,.6.6,0,0,0-.36.12,4.49,4.49,0,0,1-3.5.46c-.53-.11-1-.26-1.58-.42a16,16,0,0,0-2.55-.57l-.36,0a4.17,4.17,0,0,1-1.06-.19,3.12,3.12,0,0,1-1.16-1,12.6,12.6,0,0,1-2-3.53,1.59,1.59,0,0,1-.07-.2,3.35,3.35,0,0,1-.21-1.46c0-.05,0-.09,0-.13a2.67,2.67,0,0,1,.13-.4,3.42,3.42,0,0,1,.92-1.12l.06-.05c.15-.13.31-.25.48-.37l.34-.24.17-.11c1.28-.87,2.63-1.67,4-2.42l.55-.3.53-.29,0,0a.57.57,0,0,0,.26-.31,2.77,2.77,0,0,1,2.28-.07,4.63,4.63,0,0,1,1.68,1.1.57.57,0,0,0,.21.13l.45.17a12,12,0,0,1,2.59,1.17,6.73,6.73,0,0,0,2.12,1.06C292.24,288.82,292.24,289.47,292.23,290.12Zm-15.69-6.38.84-.87,0,0,.62-.65.12.11,2.49,2.38c-1.24.69-2.47,1.43-3.65,2.22l-.28.18,0,0-.28-.27-.5-.47-1-.92,1-1ZM257.89,99.94h0a5.93,5.93,0,0,0-.53-.81l-.18-.19h.78ZM246,99.5a3.41,3.41,0,0,1,.6-.46l.22-.1.38-.16a7.7,7.7,0,0,1,2.42-.34c.42,0,.84,0,1.25.06l.74.07.5.05a.46.46,0,0,0,.2,0h0a3.66,3.66,0,0,1,2.85.34l.15.09a4.6,4.6,0,0,1,.6.43l.2.19.23.24a2.2,2.2,0,0,1,.17.25,1.33,1.33,0,0,1,.14.19,5.8,5.8,0,0,1,.33.66,8.22,8.22,0,0,1,.49,2.77,22,22,0,0,1-.23,4c-.05.32-.1.64-.16,1s-.13.63-.21.94c0,.11-.05.22-.08.33l-.15.61c0,.13-.07.26-.1.39l0,.07c0,.06,0,.13-.06.18a.51.51,0,0,1-.12.18,1.09,1.09,0,0,1-.42.15l-.21,0h0a21.87,21.87,0,0,1-6.66,0l-.13,0c-.35-.05-.71-.09-1.05-.17a5.48,5.48,0,0,1-.67-.17,3.92,3.92,0,0,1-.6-.23l-.26-.11a2.3,2.3,0,0,1-.34-.25,4.09,4.09,0,0,1-1-3.14c0-1.8,0-3.62.12-5.43a4,4,0,0,1,.73-2.53Zm2.81,13.38a22.76,22.76,0,0,0,3.51.27,23.5,23.5,0,0,0,3.46-.27h1.57a2.88,2.88,0,0,0,.19.45,2.47,2.47,0,0,0,1.75,1.16l.13,0v6.23a1.08,1.08,0,0,1-1.08,1.07h-15a1.07,1.07,0,0,1-1.07-1.07V114a1.07,1.07,0,0,1,1.07-1.07Zm62.84,39.32a29.79,29.79,0,0,1,.29,5.67,41.32,41.32,0,0,0,.11,4.52c0,.27,0,.52.05.79-.4,1.95-.88,4.1-1.4,6.45a225.49,225.49,0,0,0-5.26,30.82c-2,23.13-1.71,33.44-1.71,33.54a.6.6,0,0,0,.23.45.58.58,0,0,0,.37.13h.12l.41-.08c-.81.78-1.76,1.69-2.81,2.64l-.82,0a21.5,21.5,0,0,1-2.6,0,6.38,6.38,0,0,0-5.13,1.78,7.41,7.41,0,0,0-1.8,4.5,62.17,62.17,0,0,0-7.14.75q1.1-11.61,1.11-23a240.85,240.85,0,0,0-14.4-81.3l20.61-2.34c2.13-.24,4.78-.54,6.82-2a14.15,14.15,0,0,0,2.81-3c1.13-1.48,2.27-3,3.39-4.48a124.19,124.19,0,0,1,5,21,.6.6,0,0,0,.6.51h.08l.83-.13A17.14,17.14,0,0,0,311.67,152.2Zm-2.06,54.37,1.23,20.48a.62.62,0,0,0,.2.42.64.64,0,0,0,.4.15h0c2.52-.18,5-.45,7.54-.75l0,.13.11.69.25,1.64.15.93-6.8,1.39-5.23,1.07-1.06.22-1.52.31c0-2.68,0-13,1.72-32.69a214.16,214.16,0,0,1,4.74-28.49,65.72,65.72,0,0,0-.77,8.45c-.07,3.36-.32,6.76-.56,10.05A118.29,118.29,0,0,0,309.61,206.57Zm10.64,28.18c-.11.1-.74.74-1.72,1.72s-2.22,2.14-3.65,3.45l-.81,0a21.29,21.29,0,0,1-2.61,0,6.37,6.37,0,0,0-5.12,1.78,6.55,6.55,0,0,0-1.61,3.19c-.05.21-.09.42-.12.62s-.05.41-.07.6,0,.1,0,.14l-2.57-.46-.59-.11-.13,0-.47-.09h0l-6.35-1-1.51-.23v-.36c0-.18,0-.39,0-.62a6.13,6.13,0,0,1,1.47-3.64,5.24,5.24,0,0,1,4.2-1.4h.2l1.18,0c.47,0,.84,0,1.34-.06l1-.05a.61.61,0,0,0,.38-.15c1.77-1.62,3.31-3.12,4.33-4.13l12.68-2.59.45,2.86Zm-19.67-102.9a12.74,12.74,0,0,1-2.57,2.76c-1.78,1.28-4.15,1.55-6.24,1.79l-20.11,2.28a4.13,4.13,0,0,1,.07-.61.5.5,0,0,0,.11-.27.76.76,0,0,0-.09-.53l-2.51-8.94a2.83,2.83,0,0,1-.09-2,2.59,2.59,0,0,1,1.79-.9,50.28,50.28,0,0,1,6.75-.7c4.45-.27,9.05-.55,12.83-3.07a21.88,21.88,0,0,0,6.08-6.93l2.76-1c.58,1.57,1.22,3.12,1.86,4.65q.48,1.13.93,2.25c.82,2,1.58,4,2.29,6.09C303.17,128.45,301.87,130.16,300.58,131.85Zm-10.72-11.2c-3.51,2.35-7.75,2.6-12.24,2.87a53.42,53.42,0,0,0-6.91.72,3.59,3.59,0,0,0-2.6,1.48,3.86,3.86,0,0,0,0,2.93l2.52,9c0,.08,0,.17-.05.25-3.08-8.38-6.43-16.16-9.84-23.27,1.53,0,3.06.06,4.6.07,6.5.07,13.22.14,19.58,1.67l.49.12a14.79,14.79,0,0,0,3.51.57c.25,0,.51,0,.77,0a12.66,12.66,0,0,0,2.76-.77l2.31-.83A18.23,18.23,0,0,1,289.86,120.65Zm36.23,166c.16,0,.33.08.49.1a17.69,17.69,0,0,0,5.72-.44c.34-.06.67-.13,1-.18a1.8,1.8,0,0,1,1.06,0,1.51,1.51,0,0,1,.47.6l-8.9,3C326,288.71,326.05,287.69,326.09,286.67ZM312.55,82.83a26,26,0,0,1-5.36,3.33c-1.23.49-2.75,1.17-4.23,1.83l-.47.21c0-.09.07-.18.1-.26.47-1.79.92-3.83,1.24-5.76a8,8,0,0,1,2.71-1.4,11.12,11.12,0,0,0,6,2ZM300.34,91.1c.18-.16.34-.32.5-.49a8.36,8.36,0,0,0,.58-.62l2-.9,2.82-1.25,1.36-.57a13.93,13.93,0,0,0,1.86-.92,31.39,31.39,0,0,0,3.41-2.28l.5-.38.22-.17,1,1.82.33.6.26.49-.15.12,0,0-.5.42-3.23,2.68a20.73,20.73,0,0,0-7.12,1.66q-.69.27-1.38.57c-.47.19-.93.4-1.4.6l-.06,0-.24.11-.6-1.07-.22-.4ZM118.54,212.33a3,3,0,0,0-1.5-2.06,45.11,45.11,0,0,0,4.83-6.25,6.58,6.58,0,0,1,2.35,1.23l-2.23,1a.6.6,0,0,0,.24,1.14.53.53,0,0,0,.25,0L125,206.2a3.61,3.61,0,0,1,.51,1.74c.1,2.55-1.8,5.65-4.1,8.14Q120,214.18,118.54,212.33ZM110.38,199l1.66.82-1.68,3.4c-.46-.44-.94-.87-1.43-1.28Zm3,.81a.61.61,0,0,0-.27-.81l-2.74-1.34a.6.6,0,0,0-.81.27l-1.6,3.25a14.58,14.58,0,0,0-2.94-1.68,9.36,9.36,0,0,0-1.29-1.23c-.23-.18-.47-.34-.71-.5s-.44-.26-.66-.37-.43-.22-.65-.32l-.4-.18c.08-.29.17-.57.25-.85l.42-1.3c.14-.4.29-.8.44-1.2.43-1.13.91-2.24,1.43-3.3,6.41-13,18.61-18.24,21.37-19.29a42.32,42.32,0,0,1,1.29,16.64l-5.26-.15a4.42,4.42,0,1,0-6.34,4.44,4.35,4.35,0,0,0,1.94.46,4.44,4.44,0,0,0,4-2.47h0a4.47,4.47,0,0,0,.37-1.23l5.14.14A37.5,37.5,0,0,1,123,199.69h0c-.56,1.12-1.18,2.23-1.86,3.32-.22.36-.45.72-.69,1.07s-.52.76-.79,1.14q-1.23,1.72-2.69,3.39c-.21.25-.43.49-.66.74l-.1.12-.47-.54c-1.35-1.55-2.75-3.08-4.19-4.55l-.24-.25Zm-13.2-3.33a29.3,29.3,0,0,0-3-.77c-.42-.09-.85-.16-1.27-.23l-.24,0-.26-1.78a5.19,5.19,0,0,1,.45-.37c1.5-1.07,3.27-.9,5.25.45C100.75,194.66,100.45,195.58,100.18,196.51Zm16.66-7.95,3.16.09a3.32,3.32,0,0,1-.25.73,3.22,3.22,0,1,1-3.93-4.47,3.11,3.11,0,0,1,1-.17,3.23,3.23,0,0,1,3,2.18,3.13,3.13,0,0,1,.12.53l-3.15-.09h0a.6.6,0,0,0,0,1.2ZM77,163.84a.58.58,0,0,0-.5-.28l.45-.82a18.2,18.2,0,0,1,1.62-2.66c.4-.43,2.07-.86,3.68-1.28.89-.23,1.84-.47,2.8-.76a.6.6,0,0,0,.14-1.09,11.18,11.18,0,0,0-1.13-.6,24.32,24.32,0,0,1,6.12,1.16,1,1,0,0,0,.17,0c.43,0,.86.05,1.28.1a.67.67,0,0,0,.2,0,12.28,12.28,0,0,1,3.77-.31l-.34.42a.61.61,0,0,0-.11.52.57.57,0,0,0,.34.4c5,2.17,8.05,7.2,8.05,13.45a17.22,17.22,0,0,1-5.9,13.27c-.18.16-.36.33-.55.48l0,0-.22.19a8.84,8.84,0,0,1-1,.73c-.78.5-1.77,1.09-2.5,1.51a.6.6,0,0,0-.67-.29,12.4,12.4,0,0,1-3.26.41l-.38,0-.26,0a.61.61,0,0,0-.47.18,14.1,14.1,0,0,1-2.32,1.79,6.57,6.57,0,0,0-.53-2.5.59.59,0,0,0-.33-.33l-.44-.19a.57.57,0,0,0-.25-.06.78.78,0,0,0-.21,0,.63.63,0,0,0-.34.32,2.34,2.34,0,0,1-1.5.93,5.37,5.37,0,0,0-1.18-3.23c-.15-.21-.32-.42-.49-.63a2.52,2.52,0,0,0-.21-.25l-.36-.4a18.32,18.32,0,0,1-4.92-11.95A14,14,0,0,1,77,164.46.6.6,0,0,0,77,163.84Zm4.09,25.36a.58.58,0,0,0,.16.5.6.6,0,0,0,.5.19,5.06,5.06,0,0,0,2.73-1.13,3.8,3.8,0,0,1,.08,2.52.62.62,0,0,0,.15.67.64.64,0,0,0,.41.16.54.54,0,0,0,.27-.07,16.29,16.29,0,0,0,3.52-2.45l.44,0a12.78,12.78,0,0,0,3.05-.3.56.56,0,0,0,.34.41.6.6,0,0,0,.54,0l1.37-.79a16.66,16.66,0,0,0-1,3.08,25.71,25.71,0,0,1-9,.81A14.13,14.13,0,0,1,80,191.45a12.25,12.25,0,0,0,.83-4.29A3.63,3.63,0,0,1,81.06,189.2Zm68.84-13.78c8.94,3.9,15.36,7,17.64,8.15-6,4.42-13.65,15.5-20.42,26.72l-.07.06a10.88,10.88,0,0,0-.55,1,.3.3,0,0,1,0,.08l-.39.65a.92.92,0,0,1-.42.35l-.15,0a3.89,3.89,0,0,1-.61.16l-.43.08-.17,0a7.91,7.91,0,0,0-1.23.31,5.42,5.42,0,0,0-3,3.37,10.35,10.35,0,0,0-.35,1.38l-1,.93-.07-.06a3.48,3.48,0,0,0-2.77,0,101.3,101.3,0,0,0-10,3.72q-1.74-2.7-3.62-5.29c2.56-2.74,4.7-6.22,4.58-9.16a5,5,0,0,0-.6-2.19l5.6-2.5,6.56,3.42a.6.6,0,0,0,.56-1.07L132,202a.59.59,0,0,0-.52,0l-6.09,2.73a7,7,0,0,0-2.9-1.74c.54-.91,1-1.82,1.5-2.75a38.33,38.33,0,0,0,3.53-11.37l2.07.06,10.26,4.92a.62.62,0,0,0,.26.06.58.58,0,0,0,.54-.34.59.59,0,0,0-.28-.8l-10.37-5a.7.7,0,0,0-.25-.05l-2.07-.06a43.27,43.27,0,0,0,.29-6h6.74l6.7,3.5,2.69,1.4a.55.55,0,0,0,.28.07.61.61,0,0,0,.53-.32.6.6,0,0,0-.26-.81l-9.52-5a.64.64,0,0,0-.28-.06H128a39.62,39.62,0,0,0-1.8-10.46.61.61,0,0,0-.74-.37c-.15.05-15.2,5-22.65,20.11-.45.92-.87,1.88-1.26,2.86-2.86-1.86-5-1.24-6.33-.32h0a.57.57,0,0,0-.27-.42h0a13,13,0,0,1,1.69-4.15,10.31,10.31,0,0,0,1-.74l.21-.18a18.35,18.35,0,0,0,6.89-14.68c0-6.45-3-11.71-8.06-14.22l.54-.69a.57.57,0,0,0,.08-.6.61.61,0,0,0-.27-.28c19.2,5.21,38.2,12.72,51.77,18.61l.52.22ZM204.78,311.3v19.57H184.65L175,311.3Zm20.25,0h4.9a10.14,10.14,0,0,0,3.81,6.21c5.14,3.86,8.14,7.66,6.92,13.36H225Zm125.2,4.85a23.76,23.76,0,0,1-6.68-4.4,16.16,16.16,0,0,1-4.19-7.33.6.6,0,0,0-.29-.37.59.59,0,0,0-.29-.07.47.47,0,0,0-.17,0l-4.37,1.34-.74.23-.73.22-6.13,1.88a11.5,11.5,0,0,1-3.42.69h-.05l-.61,0-.59-.09c-.5-.09-1-.21-1.49-.34l-27.22-6.83c0-.49,0-1,0-1.45,0-.2,0-.41,0-.61s0-.42,0-.63c.06-2.75.08-5.45.09-8.26,0-.56,0-1.14,0-1.71,0-.2,0-.4,0-.61v-.6c0-.48,0-.95,0-1.43,5.58,1.28,10.66,2.61,15.92,4.17.94.28,1.88.64,2.8,1a19,19,0,0,0,6.66,1.62h0a19.25,19.25,0,0,0,5.64-1.08l.64-.2.68-.23h0l9.59-3.18.58-.19.28-.09.28-.14h0a44.53,44.53,0,0,1,14.51-4.53l.79-.09.87-.08c1.27-.1,2.58-.15,3.95-.13l.12,0H357c1.21-.1,2.53-.16,4-.17a56.65,56.65,0,0,1,16.57,1.9c11.19,3.25,20.37,11.16,28.63,19.22.63.62,1.25,1.24,1.85,1.88a34.22,34.22,0,0,0-8.84,2.56c-5.34,2.3-13.19,7.1-20.29,16.9L376.71,327c-1.46-.62-2.82-1.19-4-1.68l-17.95-7.26c-1.1-.45-2.26-.92-3.41-1.43l-.55-.25Zm56.92,27.07-.13.1a5.82,5.82,0,0,1-6.93-.45,4,4,0,0,1-.36-.35c1.1-1.1,2.36-2.3,3.71-3.52Zm-13.1,13.07c.05-.48.1-1,.14-1.44.21-2.16.43-4.4.67-6.33a4.27,4.27,0,0,0,0-1,23.25,23.25,0,0,1,6.33,7.13l-7.1,1.74-.06,0Zm-1.78-11.77c.09.55.18,1.09.25,1.62-1.77.25-3.27.44-4.84.64q2.26-1.23,4.51-2.76C392.22,344.18,392.25,344.35,392.27,344.52Zm45.59-2.27c1.14-1.06,2.43-2.23,3.82-3.41l3.58,4.33-.13.09a5.81,5.81,0,0,1-6.91-.65Q438,342.43,437.86,342.25Z"/><path class="cls-2" d="M332.38,275.44a4.2,4.2,0,0,0,4.52-.79,4.24,4.24,0,0,0,.91-4.55,3.52,3.52,0,0,0-2.06-2,2.6,2.6,0,0,0-2.82.76.5.5,0,0,0,.07.7.52.52,0,0,0,.26.1.5.5,0,0,0,.45-.17,1.62,1.62,0,0,1,1.73-.44,2.49,2.49,0,0,1,1.44,1.44,3.23,3.23,0,0,1-.68,3.44,3.13,3.13,0,0,1-3.42.59.58.58,0,0,0-.14,0,.5.5,0,0,0-.52.29A.5.5,0,0,0,332.38,275.44Z"/><path class="cls-2" d="M325.34,279l-.63.15a4.22,4.22,0,0,1-.84.09.6.6,0,1,0,0,1.2,6.84,6.84,0,0,0,.89-.08l.64-.13.66-.19a6.76,6.76,0,0,0,1.55-.7.6.6,0,1,0-.66-1,4.81,4.81,0,0,1-1,.46C325.78,278.88,325.57,279,325.34,279Z"/><path class="cls-2" d="M321.69,275.63a2.76,2.76,0,0,1-.66-.07.49.49,0,0,0-.68.18.51.51,0,0,0,.18.69,2.59,2.59,0,0,0,1.13.2,3.32,3.32,0,0,1,.57,0,.51.51,0,0,0,.47.32h.06a.51.51,0,0,0,.44-.56C323.1,275.67,322.25,275.64,321.69,275.63Z"/><path class="cls-2" d="M352.54,301.88a.61.61,0,0,0,.61-.22.6.6,0,0,0,.1-.23.59.59,0,0,0-.33-.67s-.07,0-.12-.05c-1.91-.43-7.09,1.08-11.92,2.63a.6.6,0,0,0,.18,1.17l.19,0C343.58,303.73,350.68,301.45,352.54,301.88Z"/><path class="cls-2" d="M381.57,347.67,372.66,349a.5.5,0,0,0-.42.57.49.49,0,0,0,.56.42h0l5.93-.88L373.28,352l-.11.06a.5.5,0,0,0-.22.67.51.51,0,0,0,.45.27.68.68,0,0,0,.23-.05l8.25-4.3a.5.5,0,0,0-.31-.93Z"/><path class="cls-2" d="M323.91,268.63a1.09,1.09,0,0,0-.26-.05.85.85,0,0,0-.38.09.92.92,0,0,0-.56.85.94.94,0,0,0,.93.94h0a1,1,0,0,0,.6-.23.86.86,0,0,0,.13-.14l.5,0a5.51,5.51,0,0,1,.91.17l.14,0a.5.5,0,0,0,.48-.37.49.49,0,0,0-.34-.61,6.91,6.91,0,0,0-1.41-.24h-.18A.9.9,0,0,0,323.91,268.63Z"/><path class="cls-2" d="M241.42,85.82a1.08,1.08,0,1,0,1.08,1.07A1.08,1.08,0,0,0,241.42,85.82Z"/><path class="cls-2" d="M300.22,72.49a.6.6,0,0,0,.43.08.59.59,0,0,0,.4-.26,1.49,1.49,0,0,1,1.49-.4,3.34,3.34,0,0,1,2.17,1.39,2.88,2.88,0,0,1,.35,2.52L305,76a2.62,2.62,0,0,1-.95,1.54,4.74,4.74,0,0,1-2.11.37.57.57,0,0,0-.29,0,.59.59,0,0,0-.46.4.6.6,0,0,0,.39.76,2.13,2.13,0,0,0,.61.07,5.75,5.75,0,0,0,2.53-.6,3.64,3.64,0,0,0,1.41-2.13l.07-.2a4.07,4.07,0,0,0-.48-3.59,4.55,4.55,0,0,0-3-1.9l-.19,0a2.83,2.83,0,0,0-2.13.53,2,2,0,0,0-.39.43A.6.6,0,0,0,300.22,72.49Z"/><path class="cls-2" d="M329.69,157.6a.6.6,0,0,0-.82.22,50.52,50.52,0,0,0-5,13.76q-.22,1-.42,2c-.14.72-.27,1.43-.39,2.15-3.36,19.56-.7,42.4-.22,46.16,0,.32.07.51.07.53v0a.59.59,0,0,0,.43.47h.06l.1,0h.09a.57.57,0,0,0,.42-.28s0,0,0,0a.57.57,0,0,0,.08-.36,2.66,2.66,0,0,1,0-.3l0-.13c-.06-.45-.16-1.25-.28-2.34,0-.47-.1-1-.16-1.57-.13-1.31-.28-2.87-.41-4.65a172.17,172.17,0,0,1,.34-32.55c.11-.88.22-1.75.35-2.62s.24-1.58.38-2.36a56.79,56.79,0,0,1,5-16.07q.31-.63.66-1.23A.6.6,0,0,0,329.69,157.6Z"/><path class="cls-2" d="M302.92,60.17a.6.6,0,0,0-.83-.21,15.15,15.15,0,0,1-2.67,1.24,26.43,26.43,0,0,1-5.7,1.38,11.88,11.88,0,0,1-2.63.06.6.6,0,1,0-.15,1.19,10,10,0,0,0,1.13.06A24.59,24.59,0,0,0,302.71,61,.59.59,0,0,0,302.92,60.17Z"/><path class="cls-2" d="M309.88,74.28a.6.6,0,0,0,.45-.21.59.59,0,0,0-.06-.84,3.66,3.66,0,0,1-.64-.78c-1.42-2.18-1.92-6.71-1.85-9.35a7.41,7.41,0,0,1,.2-1.71.58.58,0,0,0-.12-.57l-.13-.11-.14-.08a.6.6,0,0,0-.75.39c-.65,2-.24,10.62,2.64,13.11A.62.62,0,0,0,309.88,74.28Z"/><path class="cls-2" d="M295.17,80.43a.6.6,0,0,0-.74.42,2.63,2.63,0,0,1-.74,1,8.18,8.18,0,0,1-2.36,1.55,7.85,7.85,0,0,1-1.86.56.6.6,0,0,0,.09,1.19h.1c2.64-.42,5.46-2.31,5.92-4A.6.6,0,0,0,295.17,80.43Z"/><path class="cls-2" d="M328.33,243.36a.6.6,0,0,0,.54.36.54.54,0,0,0,.25-.06.59.59,0,0,0,.3-.79,4.71,4.71,0,0,1-.22-.59,5.71,5.71,0,0,1,2.46-6.36,4.83,4.83,0,0,1,.59-.32.6.6,0,1,0-.5-1.09A6.9,6.9,0,0,0,328.33,243.36Z"/></g></svg>