<svg width="404" height="326" viewBox="0 0 404 326" fill="none" xmlns="http://www.w3.org/2000/svg">
<g clip-path="url(#clip0)">
<path d="M330.973 122.595C290.353 54.899 201.777 7.47392 117.273 39.6655C38.2939 69.753 8.28918 147.417 1.51763 203.078C-1.88328 231.039 2.6913 255.772 13.995 276.041H378.151C387.849 234.895 360.399 171.639 330.973 122.595Z" fill="#FEF6EC"/>
<path d="M13.995 276.04C25.1969 296.122 42.9966 311.816 66.2056 321.923C66.2056 321.923 109.832 339.975 178.28 300.11C213.839 279.399 289.603 337.719 349.025 311.392C365.397 304.138 374.456 291.687 378.148 276.04H13.995Z" fill="#FDE9D2"/>
<path d="M400.358 277.405L383.101 256.554L382.798 256.804L382.495 257.05C379.314 259.744 376.689 262.365 375.564 263.519C375.489 262.342 375.354 261.17 375.161 260.006C372.026 261.34 368.675 262.092 365.271 262.226C363.229 262.305 360.815 261.941 359.862 260.134C359.458 259.17 359.308 258.119 359.429 257.081L359.856 243.261C360.08 241.154 359.818 239.024 359.088 237.034C358.923 236.556 358.764 236.114 358.604 235.691C358.582 235.556 358.575 235.426 358.548 235.288C358.409 233.944 357.774 232.701 356.767 231.802C356.024 230.613 355.149 229.511 354.16 228.518H354.139C353.382 227.657 352.575 226.837 351.778 226.058C344.385 218.838 336.223 211.853 326.299 208.977C321.486 207.691 316.51 207.118 311.531 207.276C310.341 207.29 309.142 207.334 307.951 207.433C307.901 207.424 307.852 207.417 307.801 207.412C306.198 207.378 304.595 207.454 303.002 207.638C302.149 206.876 301.617 205.818 301.512 204.679C301.439 203.266 302.203 201.972 302.723 200.657C305.018 194.815 301.967 187.556 296.38 184.699C290.792 181.842 283.444 183.379 279.112 187.92C277.753 189.171 276.918 190.89 276.775 192.732C276.775 194.153 277.357 195.772 276.454 196.869C276.335 197.029 276.228 197.198 276.135 197.374C274.205 188.157 269.751 180.791 261.797 177.163L265.065 177.644L282.697 170.882L282.415 170.148L282.392 170.158C280.836 166.748 279.107 163.421 277.211 160.188C276.92 160.39 276.645 160.567 276.383 160.74L275.995 156.246C277.509 155.976 279.015 155.689 280.516 155.373C280.841 147.804 281.164 140.236 281.487 132.667C281.529 128.849 281.937 125.044 282.705 121.304C283.787 116.779 285.906 112.583 287.519 108.222C290.375 100.493 291.476 91.5703 288.67 84.0065C289.051 83.9187 289.436 83.84 289.817 83.7512C290.052 83.7153 290.275 83.6228 290.467 83.4818C290.62 83.2842 290.721 83.0513 290.761 82.8044C290.801 82.5575 290.778 82.3046 290.694 82.0689C289.343 74.6374 287.978 67.1594 285.324 60.0881C284.129 56.9426 282.723 53.8812 281.116 50.9249C277.921 45.0091 273.903 39.2568 268.18 35.6924C267.052 34.8312 265.764 34.2031 264.391 33.8446L262.776 30.8292C262.776 30.8292 262.582 30.9907 262.255 31.249C262.189 30.9937 262.133 30.7343 262.087 30.472C263.06 30.4699 264.026 30.2992 264.941 29.9674C263.915 29.1417 262.98 28.2101 262.15 27.1881C264.406 27.4707 264.874 26.7047 264.874 26.7047C263.723 25.3928 263.37 24.7126 263.746 22.1735C264.122 19.6345 265.035 14.3908 260.768 10.452C257.508 7.44365 256.227 6.92998 252.703 6.45466C249.263 5.99044 244.19 6.89163 244.705 7.11062C246.243 7.76557 245.674 7.87053 245.674 7.87053C243.566 8.66963 241.253 8.75331 239.093 8.10869C239.413 10.2199 241.111 10.0604 241.111 10.0604C240.249 11.0181 235.447 11.4127 235.447 11.4127C235.382 13.7479 238.006 14.0366 238.006 14.0366C236.595 14.2376 235.162 14.2233 233.755 13.9942C234.282 15.6412 236.431 16.3758 239.027 16.5767C238.745 17.6218 238.607 18.7004 238.616 19.7828C238.625 20.6295 238.717 21.4752 238.678 22.3199C238.562 24.641 237.427 26.7733 236.89 29.0359C236.802 29.2948 236.8 29.5748 236.883 29.8352C237.234 30.6425 238.598 30.0925 239.28 30.4548L239.19 30.479C239.19 30.479 236.215 35.534 237.829 39.3486C239.596 43.5185 246.467 41.254 250.123 38.2769L251.306 40.378C250.339 40.8119 249.38 41.2459 248.432 41.6384C237.75 46.0657 225.744 45.436 214.2 44.7134H216.697C217.233 44.7134 217.746 44.5008 218.125 44.1222C218.503 43.7437 218.716 43.2304 218.716 42.695V33.995C218.716 33.4597 218.503 32.9463 218.125 32.5678C217.746 32.1893 217.233 31.9766 216.697 31.9766H203.25C190.636 13.0617 179.785 2.62384 179.785 2.62384C179.785 2.62384 136.03 44.7063 122.097 113.065C105.619 105.735 77.2681 94.3849 52.503 90.7529C52.503 90.7529 44.7677 111.622 39.8763 123.185C39.8238 123.191 35.3077 123.767 34.7648 127.565C34.3833 130.238 34.3864 131.775 34.8264 132.689C34.8133 132.835 34.7924 132.981 34.7638 133.125C33.1663 140.647 33.9292 146.507 35.3118 154.291C35.4894 155.291 35.5863 156.492 36.4976 156.941C36.9817 157.109 37.4934 157.183 38.0053 157.159C38.4296 164.5 38.2571 171.862 37.4896 179.175C36.9729 184.086 36.1948 189.11 37.3654 193.908L39.081 193.808C39.3775 217.925 38.4476 242.041 36.2947 266.064C37.0869 266.011 37.9175 265.995 38.7621 265.993C38.5603 267.694 38.1566 271.492 38.0497 275.782H38.0446V276.147V276.173L38.0396 276.566L49.3534 276.72C49.3474 276.916 49.3423 277.114 49.3373 277.311L49.3272 278.097L77.4901 278.481L77.4952 278.088C77.4952 278.076 79.6689 272.352 73.9227 270.999C70.4324 270.107 67.0021 268.995 63.6524 267.669C64.0359 267.649 64.4193 267.638 64.8018 267.615C65.4683 267.646 66.1259 267.453 66.6708 267.068C67.0542 266.653 67.3096 266.135 67.4065 265.578C69.4036 258.093 69.9012 250.302 70.3886 242.569C71.4388 225.938 72.489 209.307 73.5392 192.676C73.5554 192.408 73.5715 192.137 73.5867 191.876L74.2396 191.84C74.6194 191.866 75.0008 191.818 75.3617 191.696C75.7227 191.575 76.0561 191.384 76.3427 191.133C76.6845 190.637 76.8588 190.045 76.8402 189.443C77.6042 178.393 76.1762 167.079 78.2601 156.277L89.5901 163.303L91.4642 164.728C92.3221 165.494 93.3519 166.043 94.4664 166.327L102.906 169.976C102.906 169.976 104.305 167.15 106.584 162.818L108.82 162.06C109.496 161.814 110.084 161.374 110.51 160.795C110.937 160.217 111.184 159.525 111.219 158.806L115.054 158.302H115.078C115.535 158.358 115.998 158.295 116.424 158.12C117.061 157.747 117.58 157.202 117.92 156.547C117.981 163.013 118.322 169.386 118.944 175.665C59.3018 164.475 83.5149 254.843 104.503 276.907H119.579C111.505 256.996 103.974 223.102 128.964 224.409C129.918 227.495 130.913 230.529 131.948 233.511H143.781L152.778 251.835H171.398V278.662H188.184V251.845H202.342C201.958 253.234 201.411 254.573 200.713 255.834C200.641 255.969 200.625 256.127 200.669 256.274C200.713 256.42 200.814 256.543 200.949 256.616C201.084 256.688 201.242 256.704 201.388 256.66C201.535 256.616 201.658 256.515 201.73 256.38C202.521 254.951 203.126 253.427 203.531 251.845H209.417L216.167 233.521H227.633C228.668 230.538 229.664 227.5 230.62 224.409C254.5 223.978 247.077 257.254 239.105 276.917H253.215C253.215 276.933 253.203 276.951 253.198 276.967C253.172 277.057 253.168 277.151 253.185 277.243C253.202 277.335 253.24 277.421 253.297 277.495C253.353 277.569 253.426 277.63 253.51 277.671C253.593 277.712 253.685 277.733 253.778 277.732H262.172C262.933 278.336 263.875 278.666 264.846 278.672H267.848C268.37 278.672 268.89 278.607 269.396 278.478L272.323 277.732H274.817C275.378 277.732 275.932 277.603 276.436 277.355C276.939 277.107 277.379 276.746 277.721 276.3L280.849 272.233C281.654 272.668 282.506 273.008 283.388 273.249C283.856 273.033 284.221 272.641 284.403 272.159C285.23 270.59 286.058 269.023 286.887 267.456L301.162 240.448C301.55 239.716 301.938 238.98 302.315 238.238C303.478 238.769 304.666 239.259 305.847 239.735L321.677 246.137C322.827 246.602 324.134 247.146 325.546 247.752L310.702 262.176C309.352 263.488 307.999 264.8 306.786 266.241C305.143 268.189 303.701 270.613 304.061 273.135C304.437 275.758 306.732 277.768 309.24 278.609C311.801 279.294 314.467 279.502 317.104 279.222L338.685 278.254C338.824 278.278 338.966 278.269 339.101 278.228C339.235 278.186 339.358 278.114 339.459 278.016C339.561 277.918 339.638 277.798 339.684 277.665C339.73 277.532 339.744 277.39 339.726 277.251C339.863 276.148 339.989 274.946 340.111 273.719L340.555 273.61C341.376 274.563 342.447 275.267 343.646 275.644C345.656 276.157 347.741 276.3 349.802 276.068L354.449 275.826C356.146 276.835 357.941 277.967 359.495 279.108C364.075 282.466 366.907 277.291 366.907 277.291L367.201 277.032L365.629 275.24L374.474 274.778C374.597 274.317 374.7 273.851 374.803 273.385L381.273 271.794L381.529 272.234C385.377 274.315 389.076 276.661 392.598 279.257C397.079 282.746 400.058 277.658 400.058 277.658L400.358 277.405ZM287.056 210.557C287.481 210.435 287.935 210.462 288.343 210.633C288.646 210.845 288.884 211.137 289.029 211.477L289.283 211.946L280.393 214.887C279.302 215.267 278.192 215.591 277.068 215.859C277.254 213.347 277.327 210.878 277.289 208.467C277.697 209.194 278.272 209.813 278.968 210.271C279.664 210.73 280.46 211.015 281.288 211.103C283.228 211.221 285.173 211.037 287.056 210.557ZM265.144 176.715L265.185 176.772L265.165 176.779L265.144 176.715ZM261.417 92.1284C261.96 95.3577 261.479 97.8917 261.772 101.157C261.795 101.42 261.81 101.676 261.825 101.931C260.233 109.728 257.124 121.233 255.943 134.817C254.151 155.429 254.438 164.341 254.438 164.341L256.558 163.907C255.671 164.79 254.27 166.154 252.639 167.641C251.557 167.73 250.47 167.752 249.384 167.708C243.763 167.477 243.763 172.759 243.805 173.674L243.717 173.66L243.602 174.437L246.315 174.841C244.415 174.972 242.524 175.203 240.648 175.53C241.319 168.679 241.683 161.705 241.683 154.617C241.631 129.315 237.041 104.227 228.133 80.5441L243.397 78.8143C245.407 78.5863 247.514 78.3219 249.156 77.1411C250.068 76.4142 250.869 75.5569 251.531 74.597C252.735 73.0227 253.939 71.4353 255.103 69.8216C257.3 76.1912 258.906 82.7491 259.901 89.4127C260.352 89.3471 260.801 89.2694 261.251 89.2028C261.202 90.1811 261.258 91.1618 261.417 92.1284ZM237.399 60.0942C238.695 60.511 240.055 60.6998 241.416 60.6523C242.212 60.5307 242.992 60.3153 243.737 60.0104L247.253 58.7298C245.939 61.1191 244.131 63.2012 241.949 64.8373C237.078 68.0858 230.618 66.9495 224.873 68.0788C224.324 68.1584 223.8 68.3624 223.342 68.6752C221.817 65.1902 220.248 61.8296 218.637 58.5936C224.94 58.6662 231.283 58.6208 237.4 60.0942H237.399ZM213.952 46.7852C213.668 46.7166 213.383 46.655 213.097 46.5985C212.953 46.2951 212.773 46.0099 212.562 45.7488C212.336 45.4741 212.072 45.2329 211.778 45.0323V44.7184H214.059C214.024 45.408 213.988 46.097 213.952 46.7852ZM118.182 143.787C117.928 143.67 117.654 143.601 117.375 143.585C117.67 143.095 117.968 142.605 118.268 142.116C118.23 142.669 118.207 143.23 118.178 143.787H118.182ZM280.131 249.02C278.725 252.389 277.057 255.641 275.388 258.888L270.716 267.992C271.179 268.125 271.691 268.3 272.23 268.496L271.221 269.782C271.002 270.064 270.713 270.282 270.382 270.417L266.749 271.903C266.749 271.903 259.887 273.972 256.689 273.972H256.68C263.993 264.543 271.275 247.734 274.913 230.586L275.696 230.782C277.566 231.412 279.602 231.335 281.42 230.566L287.076 228.832C284.601 235.496 282.873 242.451 280.131 249.02ZM339.96 264.481C339.879 264.474 339.797 264.474 339.716 264.481C336.982 264.864 335.062 265.105 332.095 265.458C334.685 264.273 337.157 262.845 339.477 261.194C339.631 262.29 339.844 263.385 339.96 264.481Z" fill="#E3DEE6" stroke="#E3DEE6" stroke-width="3.745" stroke-miterlimit="10"/>
<path d="M235.997 27.6988C236.218 27.7074 236.439 27.6647 236.641 27.574C236.844 27.4834 237.022 27.3471 237.163 27.176C237.449 26.826 237.664 26.424 237.797 25.9922C238.572 23.775 238.579 21.3615 237.816 19.14C237.578 18.4537 237.131 17.6948 236.426 17.6706C235.72 17.6464 235.233 18.3609 234.946 19.0219C233.933 21.394 233.827 24.0562 234.651 26.5009C234.757 26.7969 234.937 27.0615 235.172 27.2707C235.407 27.4799 235.69 27.627 235.997 27.6988Z" fill="#E3DEE6" stroke="#E3DEE6" stroke-width="3.745" stroke-miterlimit="10"/>
<path d="M225.241 79.4461L222.956 71.3061C222.663 70.611 222.655 69.8285 222.933 69.1273C223.164 68.8263 223.456 68.5773 223.79 68.3967C224.123 68.216 224.491 68.1077 224.87 68.0788C230.615 66.9495 237.075 68.0858 241.946 64.8373C246.67 61.6877 248.286 55.4116 252.511 51.6172C252.874 51.2397 253.336 50.9736 253.845 50.8502C254.546 50.8208 255.236 51.0367 255.796 51.4607C257.499 52.48 259.163 53.5588 260.79 54.6971C261.303 54.9891 261.719 55.4248 261.987 55.9505C262.168 56.6407 262.093 57.3729 261.776 58.0123C259.514 64.1279 255.494 69.4089 251.532 74.5879C250.87 75.5479 250.07 76.4051 249.157 77.1321C247.516 78.3128 245.408 78.5772 243.399 78.8053L225.095 80.8791C224.969 79.9941 225.299 79.0535 225.241 79.4461Z" fill="#E83C65"/>
<path d="M209.418 251.845H152.767L142.301 230.532H217.269L209.418 251.845Z" fill="#9DA2B4"/>
<path d="M119.029 175.691C59.2625 164.388 83.4917 254.841 104.497 276.917H119.573C111.499 256.995 103.958 223.074 128.995 224.42L137.611 202.882L119.029 175.691Z" fill="#596280"/>
<path d="M239.643 175.691C299.41 164.388 275.18 254.841 254.181 276.917H239.105C247.178 256.995 254.72 223.074 229.682 224.42L221.067 202.882L239.643 175.691Z" fill="#596280"/>
<path d="M241.685 154.61C241.685 62.1509 179.785 2.62384 179.785 2.62384C179.785 2.62384 117.885 62.1509 117.885 154.61C117.885 183.147 123.783 210.014 131.937 233.521H227.633C235.787 210.009 241.685 183.147 241.685 154.61Z" fill="#C5C8D3"/>
<path d="M201.786 219.626H226.984C226.984 219.626 234.882 195.556 235.069 183.71H203.102L201.786 219.626Z" fill="#3A4468"/>
<path d="M202.914 218.498C195.016 220.617 190.056 234.125 196.709 239.108C203.007 243.827 205.374 248.369 201.222 256.107" stroke="#694E7B" stroke-width="1.144" stroke-miterlimit="10" stroke-linecap="round"/>
<path d="M233.388 195.73H222.948V212.061H229.259C231.093 205.77 233.388 195.73 233.388 195.73Z" fill="#19254F"/>
<path d="M224.669 198.483C225.271 198.483 225.759 197.995 225.759 197.393C225.759 196.791 225.271 196.303 224.669 196.303C224.067 196.303 223.579 196.791 223.579 197.393C223.579 197.995 224.067 198.483 224.669 198.483Z" fill="#606885"/>
<path d="M224.669 202.161C225.271 202.161 225.759 201.673 225.759 201.072C225.759 200.47 225.271 199.982 224.669 199.982C224.067 199.982 223.579 200.47 223.579 201.072C223.579 201.673 224.067 202.161 224.669 202.161Z" fill="#606885"/>
<path d="M224.669 205.84C225.271 205.84 225.759 205.352 225.759 204.75C225.759 204.148 225.271 203.66 224.669 203.66C224.067 203.66 223.579 204.148 223.579 204.75C223.579 205.352 224.067 205.84 224.669 205.84Z" fill="#606885"/>
<path d="M179.785 180.136V9.76776" stroke="#8B91A6" stroke-width="1.716" stroke-miterlimit="10" stroke-linecap="round"/>
<path d="M138.898 65.3853C142.829 76.8505 217.109 76.5951 220.665 65.6416" stroke="#8B91A6" stroke-width="1.716" stroke-miterlimit="10" stroke-linecap="round"/>
<path d="M137.179 75.2509C137.123 75.3794 137.042 75.4954 136.941 75.592C136.84 75.6887 136.72 75.764 136.589 75.8135C136.458 75.863 136.319 75.8857 136.179 75.8802C136.039 75.8747 135.902 75.8412 135.775 75.7816C135.648 75.722 135.535 75.6375 135.442 75.5332C135.348 75.429 135.277 75.307 135.232 75.1746C135.186 75.0421 135.168 74.9019 135.178 74.7623C135.188 74.6227 135.226 74.4865 135.289 74.3618C135.419 74.1268 135.632 73.9481 135.885 73.8601C136.139 73.7722 136.416 73.7812 136.664 73.8855C136.905 74.0069 137.093 74.2148 137.188 74.4677C137.283 74.7207 137.28 75.0003 137.179 75.2509Z" fill="#8B91A6"/>
<path d="M142.791 76.8838C142.759 77.0172 142.701 77.143 142.62 77.2539C142.539 77.3649 142.437 77.4589 142.32 77.5305C142.203 77.6022 142.074 77.65 141.938 77.6715C141.803 77.6929 141.664 77.6874 141.531 77.6553C141.397 77.6233 141.272 77.5652 141.161 77.4845C141.05 77.4039 140.956 77.3021 140.884 77.1851C140.812 77.0681 140.764 76.9382 140.743 76.8027C140.722 76.6672 140.727 76.5288 140.759 76.3954C140.824 76.126 140.993 75.8934 141.229 75.7487C141.466 75.604 141.75 75.5591 142.019 75.6239C142.289 75.6886 142.521 75.8578 142.666 76.0941C142.811 76.3303 142.855 76.6144 142.791 76.8838Z" fill="#8B91A6"/>
<path d="M148.547 77.9253C148.514 78.1291 148.422 78.3186 148.281 78.4699C148.141 78.6211 147.958 78.7274 147.758 78.7752C147.557 78.8229 147.346 78.8101 147.153 78.7384C146.959 78.6666 146.791 78.539 146.67 78.3718C146.549 78.2047 146.48 78.0053 146.472 77.799C146.464 77.5927 146.518 77.3887 146.626 77.2127C146.734 77.0368 146.891 76.8968 147.079 76.8104C147.266 76.724 147.475 76.6951 147.679 76.7274C147.953 76.7713 148.198 76.9221 148.361 77.1467C148.524 77.3713 148.591 77.6514 148.547 77.9253Z" fill="#8B91A6"/>
<path d="M154.352 78.6529C154.328 78.8579 154.244 79.0512 154.11 79.2085C153.977 79.3658 153.8 79.48 153.601 79.5367C153.403 79.5934 153.192 79.5901 152.996 79.5272C152.799 79.4642 152.626 79.3445 152.497 79.183C152.369 79.0216 152.291 78.8257 152.273 78.6201C152.256 78.4145 152.3 78.2083 152.4 78.0277C152.5 77.847 152.651 77.6999 152.834 77.605C153.017 77.5101 153.224 77.4716 153.429 77.4943C153.705 77.5258 153.957 77.6654 154.13 77.8827C154.303 78.0999 154.383 78.3769 154.352 78.6529Z" fill="#8B91A6"/>
<path d="M160.18 79.1695C160.163 79.3754 160.085 79.5716 159.956 79.7332C159.828 79.8949 159.654 80.0149 159.457 80.078C159.261 80.1412 159.05 80.1446 158.851 80.0879C158.652 80.0313 158.475 79.917 158.341 79.7596C158.207 79.6022 158.123 79.4087 158.099 79.2035C158.075 78.9983 158.113 78.7907 158.207 78.6067C158.301 78.4228 158.447 78.2708 158.628 78.17C158.808 78.0692 159.014 78.024 159.22 78.0403C159.357 78.0514 159.491 78.0894 159.613 78.1521C159.736 78.2149 159.845 78.3012 159.934 78.406C160.023 78.5109 160.091 78.6323 160.133 78.7633C160.175 78.8943 160.191 79.0324 160.18 79.1695Z" fill="#8B91A6"/>
<path d="M166.023 79.5228C166.011 79.7287 165.938 79.9265 165.814 80.0912C165.689 80.2558 165.519 80.38 165.324 80.4479C165.129 80.5159 164.919 80.5247 164.719 80.4732C164.519 80.4216 164.339 80.3121 164.202 80.1583C164.064 80.0046 163.975 79.8135 163.946 79.6093C163.917 79.405 163.949 79.1967 164.038 79.0107C164.127 78.8246 164.269 78.6691 164.447 78.5637C164.624 78.4584 164.829 78.4079 165.035 78.4187C165.172 78.4262 165.307 78.4607 165.431 78.5203C165.555 78.5798 165.666 78.6633 165.758 78.7658C165.85 78.8684 165.92 78.988 165.966 79.1179C166.011 79.2478 166.031 79.3854 166.023 79.5228Z" fill="#8B91A6"/>
<path d="M171.866 79.7438C171.858 79.9501 171.79 80.1494 171.669 80.3167C171.548 80.484 171.38 80.6117 171.187 80.6837C170.993 80.7558 170.783 80.7689 170.582 80.7214C170.381 80.6739 170.199 80.568 170.058 80.417C169.917 80.266 169.825 80.0767 169.791 79.873C169.758 79.6693 169.786 79.4603 169.871 79.2725C169.957 79.0846 170.096 78.9262 170.271 78.8174C170.447 78.7086 170.65 78.6541 170.857 78.661C171.134 78.671 171.396 78.7906 171.585 78.9936C171.775 79.1967 171.875 79.4665 171.866 79.7438Z" fill="#8B91A6"/>
<path d="M189.415 79.6802C189.42 79.8864 189.364 80.0895 189.254 80.2638C189.143 80.438 188.984 80.5757 188.795 80.6595C188.607 80.7432 188.398 80.7693 188.194 80.7343C187.991 80.6994 187.803 80.605 187.653 80.4631C187.503 80.3213 187.399 80.1382 187.353 79.9371C187.307 79.736 187.322 79.5258 187.395 79.333C187.469 79.1402 187.598 78.9735 187.766 78.8539C187.934 78.7343 188.133 78.6672 188.34 78.6609C188.477 78.6572 188.614 78.6805 188.743 78.7297C188.871 78.7789 188.989 78.853 189.089 78.9476C189.189 79.0423 189.269 79.1557 189.325 79.2814C189.381 79.4071 189.412 79.5426 189.415 79.6802Z" fill="#8B91A6"/>
<path d="M195.261 79.4148C195.27 79.6209 195.219 79.8252 195.112 80.002C195.006 80.1788 194.85 80.3201 194.663 80.4082C194.477 80.4963 194.268 80.5272 194.064 80.497C193.86 80.4668 193.67 80.3768 193.517 80.2384C193.364 80.1 193.255 79.9194 193.204 79.7194C193.154 79.5194 193.164 79.3089 193.233 79.1145C193.302 78.9201 193.427 78.7504 193.592 78.627C193.757 78.5035 193.956 78.4318 194.162 78.4208C194.299 78.4138 194.436 78.434 194.566 78.4803C194.696 78.5265 194.815 78.5978 194.917 78.6901C195.019 78.7824 195.102 78.8939 195.161 79.0183C195.22 79.1426 195.254 79.2774 195.261 79.4148Z" fill="#8B91A6"/>
<path d="M201.097 79.0061C201.112 79.2118 201.065 79.4173 200.963 79.5968C200.862 79.7762 200.709 79.9215 200.525 80.0143C200.341 80.1071 200.133 80.1433 199.928 80.1183C199.723 80.0933 199.531 80.0082 199.374 79.8738C199.218 79.7394 199.105 79.5616 199.049 79.363C198.993 79.1643 198.998 78.9537 199.062 78.7576C199.126 78.5614 199.246 78.3887 199.408 78.261C199.571 78.1334 199.767 78.0566 199.972 78.0403C200.11 78.0297 200.248 78.0463 200.379 78.0891C200.509 78.1319 200.63 78.2002 200.735 78.2899C200.839 78.3796 200.925 78.489 200.987 78.6119C201.049 78.7348 201.086 78.8688 201.097 79.0061Z" fill="#8B91A6"/>
<path d="M206.918 78.4207C206.94 78.626 206.9 78.8331 206.805 79.016C206.709 79.199 206.562 79.3495 206.381 79.4486C206.199 79.5477 205.993 79.5909 205.788 79.5728C205.582 79.5548 205.386 79.4762 205.225 79.347C205.064 79.2178 204.945 79.0439 204.883 78.8471C204.821 78.6503 204.818 78.4394 204.876 78.2412C204.933 78.043 205.048 77.8663 205.206 77.7333C205.364 77.6004 205.558 77.5172 205.763 77.4943C205.9 77.4792 206.038 77.4912 206.17 77.5296C206.302 77.5679 206.425 77.632 206.532 77.7181C206.64 77.8041 206.729 77.9105 206.795 78.031C206.861 78.1516 206.903 78.2841 206.918 78.4207Z" fill="#8B91A6"/>
<path d="M212.71 77.5972C212.742 77.8012 212.713 78.0101 212.626 78.1975C212.539 78.3849 212.399 78.5424 212.223 78.6501C212.047 78.7578 211.843 78.8108 211.636 78.8025C211.43 78.7943 211.231 78.725 211.064 78.6036C210.897 78.4821 210.77 78.3139 210.698 78.1201C210.627 77.9264 210.614 77.7158 210.663 77.515C210.711 77.3143 210.817 77.1323 210.969 76.9921C211.121 76.8519 211.31 76.7598 211.514 76.7273C211.65 76.7059 211.788 76.7114 211.922 76.7435C212.056 76.7757 212.181 76.8338 212.292 76.9146C212.404 76.9953 212.498 77.0972 212.569 77.2144C212.641 77.3315 212.689 77.4616 212.71 77.5972Z" fill="#8B91A6"/>
<path d="M218.434 76.3944C218.47 76.5291 218.479 76.6698 218.46 76.808C218.441 76.9462 218.394 77.0791 218.323 77.199C218.251 77.3189 218.157 77.4233 218.044 77.506C217.932 77.5888 217.804 77.6482 217.668 77.6808C217.533 77.7134 217.392 77.7185 217.254 77.6958C217.117 77.6732 216.985 77.6232 216.867 77.5488C216.749 77.4745 216.647 77.3772 216.567 77.2628C216.487 77.1484 216.431 77.0192 216.402 76.8828C216.345 76.6161 216.394 76.3377 216.54 76.1069C216.685 75.8762 216.915 75.7114 217.18 75.6477C217.445 75.5839 217.725 75.6263 217.959 75.7658C218.193 75.9053 218.364 76.1309 218.434 76.3944Z" fill="#8B91A6"/>
<path d="M223.903 74.3618C223.968 74.4867 224.008 74.6235 224.019 74.764C224.031 74.9045 224.013 75.0459 223.968 75.1796C223.924 75.3132 223.852 75.4364 223.758 75.5418C223.665 75.6471 223.551 75.7324 223.423 75.7924C223.296 75.8525 223.157 75.8861 223.016 75.8912C222.875 75.8964 222.735 75.873 222.603 75.8224C222.472 75.7718 222.352 75.6951 222.251 75.5968C222.149 75.4986 222.069 75.381 222.015 75.2509C221.913 75.0004 221.91 74.7209 222.005 74.468C222.1 74.215 222.287 74.0071 222.528 73.8855C222.776 73.7812 223.053 73.7722 223.307 73.8601C223.561 73.9481 223.773 74.1268 223.903 74.3618Z" fill="#8B91A6"/>
<path d="M119.064 148.944C127.197 159.964 233.845 159.053 240.711 148.54" stroke="#8B91A6" stroke-width="1.716" stroke-miterlimit="10" stroke-linecap="round"/>
<path d="M121.446 158.673C121.395 158.804 121.319 158.923 121.222 159.025C121.124 159.126 121.008 159.207 120.88 159.264C120.751 159.32 120.613 159.351 120.473 159.354C120.332 159.357 120.193 159.333 120.062 159.282C119.931 159.231 119.812 159.155 119.71 159.058C119.609 158.961 119.528 158.844 119.471 158.716C119.415 158.587 119.384 158.449 119.381 158.309C119.378 158.168 119.403 158.029 119.454 157.898C119.564 157.645 119.768 157.445 120.023 157.339C120.278 157.234 120.564 157.23 120.821 157.331C121.078 157.431 121.287 157.626 121.403 157.876C121.52 158.127 121.535 158.412 121.446 158.673Z" fill="#8B91A6"/>
<path d="M127.252 160.124C127.187 160.395 127.02 160.63 126.784 160.779C126.549 160.928 126.265 160.979 125.993 160.922C125.72 160.865 125.481 160.704 125.325 160.473C125.17 160.242 125.11 159.959 125.159 159.685C125.224 159.415 125.392 159.18 125.627 159.031C125.863 158.882 126.147 158.831 126.419 158.888C126.692 158.945 126.931 159.106 127.087 159.337C127.242 159.568 127.302 159.85 127.252 160.124Z" fill="#8B91A6"/>
<path d="M133.163 161.089C133.137 161.3 133.048 161.498 132.909 161.658C132.769 161.819 132.585 161.934 132.38 161.989C132.175 162.044 131.958 162.037 131.757 161.969C131.556 161.9 131.38 161.773 131.251 161.604C131.122 161.435 131.047 161.232 131.034 161.02C131.021 160.808 131.072 160.597 131.18 160.414C131.287 160.231 131.447 160.084 131.639 159.992C131.83 159.9 132.045 159.867 132.255 159.897C132.393 159.916 132.526 159.961 132.646 160.031C132.766 160.101 132.872 160.194 132.956 160.305C133.041 160.416 133.102 160.542 133.138 160.676C133.173 160.811 133.182 160.951 133.163 161.089Z" fill="#8B91A6"/>
<path d="M139.109 161.801C139.09 162.012 139.008 162.213 138.874 162.378C138.74 162.543 138.56 162.664 138.357 162.726C138.154 162.788 137.937 162.789 137.734 162.727C137.531 162.666 137.35 162.545 137.216 162.381C137.082 162.217 136.999 162.016 136.979 161.804C136.959 161.593 137.002 161.38 137.103 161.194C137.205 161.007 137.359 160.855 137.547 160.756C137.735 160.657 137.948 160.617 138.16 160.64C138.298 160.654 138.433 160.695 138.556 160.76C138.678 160.826 138.787 160.915 138.875 161.023C138.964 161.131 139.03 161.255 139.07 161.389C139.11 161.522 139.123 161.662 139.109 161.801Z" fill="#8B91A6"/>
<path d="M145.074 162.345C145.06 162.556 144.984 162.759 144.854 162.928C144.724 163.096 144.548 163.221 144.346 163.289C144.145 163.356 143.928 163.362 143.723 163.306C143.518 163.249 143.335 163.133 143.197 162.972C143.058 162.812 142.97 162.613 142.945 162.402C142.92 162.191 142.957 161.978 143.054 161.789C143.15 161.599 143.301 161.443 143.486 161.34C143.672 161.236 143.884 161.191 144.096 161.208C144.234 161.218 144.37 161.256 144.494 161.319C144.619 161.381 144.73 161.468 144.821 161.573C144.912 161.679 144.981 161.801 145.024 161.934C145.068 162.066 145.085 162.206 145.074 162.345Z" fill="#8B91A6"/>
<path d="M151.049 162.764C151.039 162.976 150.966 163.181 150.839 163.351C150.713 163.522 150.538 163.651 150.338 163.722C150.138 163.793 149.921 163.803 149.716 163.75C149.51 163.698 149.324 163.585 149.183 163.427C149.041 163.269 148.95 163.072 148.921 162.862C148.891 162.651 148.925 162.437 149.018 162.246C149.111 162.055 149.259 161.896 149.442 161.789C149.626 161.682 149.837 161.633 150.049 161.646C150.329 161.662 150.592 161.789 150.78 161.998C150.968 162.208 151.064 162.484 151.049 162.764Z" fill="#8B91A6"/>
<path d="M157.029 163.082C157.022 163.294 156.952 163.5 156.828 163.672C156.704 163.845 156.532 163.976 156.333 164.05C156.134 164.124 155.918 164.137 155.711 164.088C155.505 164.039 155.317 163.929 155.174 163.773C155.03 163.617 154.935 163.421 154.903 163.212C154.87 163.002 154.901 162.787 154.991 162.595C155.081 162.402 155.226 162.241 155.408 162.132C155.589 162.022 155.8 161.969 156.012 161.979C156.151 161.985 156.288 162.018 156.414 162.076C156.541 162.134 156.655 162.217 156.749 162.32C156.844 162.422 156.917 162.542 156.965 162.673C157.013 162.804 157.035 162.943 157.029 163.082Z" fill="#8B91A6"/>
<path d="M163.014 163.318C163.011 163.531 162.944 163.737 162.822 163.911C162.7 164.085 162.53 164.219 162.332 164.296C162.134 164.373 161.918 164.389 161.711 164.342C161.503 164.296 161.315 164.189 161.169 164.035C161.023 163.881 160.926 163.686 160.89 163.477C160.855 163.268 160.882 163.053 160.97 162.859C161.057 162.666 161.2 162.502 161.38 162.39C161.56 162.278 161.77 162.222 161.982 162.23C162.121 162.233 162.259 162.264 162.386 162.321C162.513 162.378 162.628 162.459 162.724 162.56C162.82 162.661 162.895 162.78 162.945 162.91C162.995 163.04 163.018 163.179 163.014 163.318Z" fill="#8B91A6"/>
<path d="M169.001 163.477C169 163.689 168.935 163.896 168.816 164.072C168.696 164.247 168.528 164.384 168.331 164.463C168.134 164.542 167.917 164.561 167.71 164.517C167.502 164.473 167.312 164.368 167.164 164.216C167.016 164.064 166.917 163.871 166.879 163.662C166.841 163.453 166.866 163.238 166.951 163.043C167.035 162.848 167.176 162.683 167.355 162.569C167.534 162.455 167.743 162.396 167.955 162.401C168.095 162.403 168.232 162.432 168.36 162.488C168.488 162.543 168.604 162.622 168.701 162.722C168.798 162.822 168.875 162.94 168.926 163.07C168.977 163.199 169.003 163.338 169.001 163.477Z" fill="#8B91A6"/>
<path d="M186.968 163.542C186.974 163.755 186.917 163.964 186.803 164.143C186.69 164.323 186.525 164.464 186.331 164.55C186.137 164.636 185.921 164.662 185.712 164.625C185.503 164.588 185.31 164.49 185.157 164.342C185.004 164.195 184.898 164.006 184.853 163.798C184.808 163.591 184.826 163.374 184.905 163.177C184.983 162.98 185.118 162.81 185.293 162.69C185.468 162.57 185.675 162.504 185.887 162.502C186.027 162.499 186.165 162.524 186.295 162.575C186.425 162.626 186.543 162.702 186.643 162.798C186.744 162.895 186.824 163.01 186.88 163.138C186.936 163.266 186.966 163.403 186.968 163.542Z" fill="#8B91A6"/>
<path d="M192.957 163.429C192.965 163.642 192.91 163.851 192.798 164.032C192.687 164.213 192.524 164.356 192.331 164.444C192.138 164.532 191.923 164.561 191.713 164.526C191.504 164.491 191.309 164.395 191.155 164.25C191 164.104 190.892 163.916 190.845 163.709C190.798 163.502 190.813 163.286 190.889 163.087C190.965 162.889 191.098 162.718 191.272 162.596C191.445 162.474 191.651 162.406 191.864 162.401C192.003 162.397 192.142 162.42 192.272 162.469C192.402 162.519 192.522 162.593 192.623 162.689C192.725 162.784 192.806 162.899 192.864 163.026C192.921 163.153 192.952 163.29 192.957 163.429Z" fill="#8B91A6"/>
<path d="M198.943 163.244C198.955 163.456 198.903 163.667 198.795 163.85C198.686 164.032 198.526 164.179 198.334 164.27C198.142 164.361 197.927 164.393 197.717 164.362C197.507 164.33 197.311 164.237 197.154 164.094C196.997 163.95 196.886 163.763 196.836 163.557C196.785 163.35 196.798 163.134 196.871 162.934C196.945 162.735 197.076 162.562 197.248 162.437C197.42 162.312 197.626 162.242 197.838 162.235C198.118 162.222 198.392 162.322 198.599 162.511C198.806 162.7 198.93 162.963 198.943 163.244Z" fill="#8B91A6"/>
<path d="M204.926 162.981C204.94 163.193 204.891 163.404 204.784 163.588C204.677 163.772 204.518 163.919 204.328 164.012C204.137 164.105 203.923 164.139 203.712 164.11C203.502 164.081 203.305 163.99 203.147 163.849C202.988 163.707 202.875 163.522 202.823 163.316C202.77 163.111 202.78 162.894 202.851 162.694C202.921 162.494 203.05 162.319 203.221 162.192C203.391 162.066 203.595 161.992 203.807 161.982C203.946 161.974 204.086 161.994 204.217 162.04C204.349 162.085 204.47 162.157 204.574 162.25C204.678 162.342 204.763 162.455 204.823 162.58C204.884 162.706 204.919 162.842 204.926 162.981Z" fill="#8B91A6"/>
<path d="M210.906 162.627C210.923 162.839 210.877 163.051 210.773 163.236C210.669 163.421 210.513 163.571 210.324 163.668C210.134 163.764 209.921 163.801 209.71 163.776C209.499 163.75 209.301 163.662 209.14 163.523C208.98 163.384 208.864 163.201 208.808 162.996C208.752 162.791 208.758 162.574 208.825 162.373C208.893 162.172 209.019 161.995 209.187 161.866C209.356 161.736 209.559 161.66 209.77 161.646C210.051 161.626 210.328 161.718 210.541 161.902C210.754 162.086 210.885 162.347 210.906 162.627Z" fill="#8B91A6"/>
<path d="M216.877 162.166C216.899 162.377 216.857 162.59 216.757 162.778C216.657 162.965 216.503 163.118 216.316 163.218C216.128 163.318 215.916 163.36 215.704 163.338C215.493 163.317 215.293 163.233 215.129 163.097C214.966 162.962 214.847 162.78 214.787 162.577C214.727 162.373 214.729 162.156 214.792 161.953C214.856 161.751 214.979 161.572 215.145 161.439C215.31 161.306 215.512 161.226 215.724 161.208C215.862 161.195 216.002 161.21 216.135 161.251C216.268 161.292 216.392 161.359 216.499 161.448C216.606 161.537 216.695 161.646 216.76 161.769C216.824 161.892 216.864 162.027 216.877 162.166Z" fill="#8B91A6"/>
<path d="M222.839 161.569C222.866 161.779 222.83 161.993 222.734 162.183C222.639 162.373 222.49 162.53 222.305 162.635C222.12 162.739 221.908 162.786 221.696 162.77C221.484 162.754 221.282 162.675 221.115 162.543C220.949 162.412 220.825 162.234 220.76 162.031C220.695 161.829 220.691 161.612 220.75 161.408C220.809 161.204 220.927 161.022 221.089 160.885C221.252 160.748 221.451 160.663 221.663 160.64C221.801 160.624 221.941 160.635 222.075 160.672C222.209 160.71 222.334 160.774 222.443 160.86C222.553 160.946 222.644 161.053 222.712 161.175C222.78 161.296 222.823 161.43 222.839 161.569Z" fill="#8B91A6"/>
<path d="M228.773 160.78C228.808 160.99 228.78 161.205 228.692 161.398C228.604 161.592 228.46 161.755 228.279 161.866C228.099 161.978 227.889 162.033 227.677 162.025C227.464 162.016 227.259 161.945 227.088 161.82C226.916 161.695 226.786 161.521 226.713 161.322C226.64 161.122 226.628 160.906 226.679 160.699C226.73 160.493 226.841 160.307 226.999 160.164C227.156 160.021 227.352 159.928 227.562 159.897C227.7 159.875 227.84 159.881 227.976 159.913C228.111 159.946 228.239 160.005 228.351 160.087C228.464 160.169 228.559 160.273 228.631 160.392C228.704 160.511 228.752 160.643 228.773 160.78Z" fill="#8B91A6"/>
<path d="M234.661 159.685C234.719 159.963 234.664 160.252 234.509 160.49C234.354 160.728 234.111 160.894 233.833 160.952C233.555 161.01 233.266 160.956 233.029 160.8C232.791 160.645 232.625 160.402 232.567 160.124C232.508 159.847 232.563 159.557 232.718 159.32C232.873 159.082 233.116 158.916 233.394 158.858C233.672 158.8 233.961 158.854 234.199 159.009C234.436 159.164 234.602 159.408 234.661 159.685Z" fill="#8B91A6"/>
<path d="M240.367 157.898C240.422 158.03 240.451 158.172 240.451 158.315C240.451 158.458 240.423 158.6 240.367 158.731C240.311 158.863 240.23 158.983 240.127 159.082C240.024 159.182 239.903 159.26 239.769 159.312C239.636 159.364 239.493 159.389 239.35 159.384C239.207 159.38 239.066 159.347 238.936 159.288C238.806 159.228 238.689 159.143 238.592 159.038C238.496 158.932 238.421 158.808 238.373 158.673C238.288 158.413 238.305 158.129 238.422 157.881C238.539 157.633 238.747 157.44 239.002 157.34C239.258 157.241 239.542 157.243 239.796 157.347C240.05 157.451 240.254 157.648 240.367 157.898Z" fill="#8B91A6"/>
<path d="M176.525 43.9303C177.107 43.9303 177.578 43.464 177.578 42.8888C177.578 42.3136 177.107 41.8474 176.525 41.8474C175.944 41.8474 175.473 42.3136 175.473 42.8888C175.473 43.464 175.944 43.9303 176.525 43.9303Z" fill="#8B91A6"/>
<path d="M176.525 49.7603C177.107 49.7603 177.578 49.294 177.578 48.7188C177.578 48.1436 177.107 47.6773 176.525 47.6773C175.944 47.6773 175.473 48.1436 175.473 48.7188C175.473 49.294 175.944 49.7603 176.525 49.7603Z" fill="#8B91A6"/>
<path d="M176.525 55.5903C177.107 55.5903 177.578 55.124 177.578 54.5488C177.578 53.9736 177.107 53.5073 176.525 53.5073C175.944 53.5073 175.473 53.9736 175.473 54.5488C175.473 55.124 175.944 55.5903 176.525 55.5903Z" fill="#8B91A6"/>
<path d="M176.525 61.4192C177.107 61.4192 177.578 60.953 177.578 60.3778C177.578 59.8026 177.107 59.3363 176.525 59.3363C175.944 59.3363 175.473 59.8026 175.473 60.3778C175.473 60.953 175.944 61.4192 176.525 61.4192Z" fill="#8B91A6"/>
<path d="M176.525 67.2493C177.107 67.2493 177.578 66.783 177.578 66.2078C177.578 65.6326 177.107 65.1663 176.525 65.1663C175.944 65.1663 175.473 65.6326 175.473 66.2078C175.473 66.783 175.944 67.2493 176.525 67.2493Z" fill="#8B91A6"/>
<path d="M176.525 73.0792C177.107 73.0792 177.578 72.6129 177.578 72.0378C177.578 71.4626 177.107 70.9963 176.525 70.9963C175.944 70.9963 175.473 71.4626 175.473 72.0378C175.473 72.6129 175.944 73.0792 176.525 73.0792Z" fill="#8B91A6"/>
<path d="M176.525 78.9092C177.107 78.9092 177.578 78.443 177.578 77.8678C177.578 77.2926 177.107 76.8263 176.525 76.8263C175.944 76.8263 175.473 77.2926 175.473 77.8678C175.473 78.443 175.944 78.9092 176.525 78.9092Z" fill="#8B91A6"/>
<path d="M176.525 84.7392C177.107 84.7392 177.578 84.2729 177.578 83.6977C177.578 83.1225 177.107 82.6562 176.525 82.6562C175.944 82.6562 175.473 83.1225 175.473 83.6977C175.473 84.2729 175.944 84.7392 176.525 84.7392Z" fill="#8B91A6"/>
<path d="M176.525 90.5682C177.107 90.5682 177.578 90.1019 177.578 89.5267C177.578 88.9515 177.107 88.4852 176.525 88.4852C175.944 88.4852 175.473 88.9515 175.473 89.5267C175.473 90.1019 175.944 90.5682 176.525 90.5682Z" fill="#8B91A6"/>
<path d="M176.525 96.3982C177.107 96.3982 177.578 95.9319 177.578 95.3567C177.578 94.7815 177.107 94.3152 176.525 94.3152C175.944 94.3152 175.473 94.7815 175.473 95.3567C175.473 95.9319 175.944 96.3982 176.525 96.3982Z" fill="#8B91A6"/>
<path d="M176.525 102.228C177.107 102.228 177.578 101.762 177.578 101.187C177.578 100.611 177.107 100.145 176.525 100.145C175.944 100.145 175.473 100.611 175.473 101.187C175.473 101.762 175.944 102.228 176.525 102.228Z" fill="#8B91A6"/>
<path d="M176.525 108.058C177.107 108.058 177.578 107.592 177.578 107.017C177.578 106.441 177.107 105.975 176.525 105.975C175.944 105.975 175.473 106.441 175.473 107.017C175.473 107.592 175.944 108.058 176.525 108.058Z" fill="#8B91A6"/>
<path d="M176.525 113.888C177.107 113.888 177.578 113.422 177.578 112.847C177.578 112.272 177.107 111.805 176.525 111.805C175.944 111.805 175.473 112.272 175.473 112.847C175.473 113.422 175.944 113.888 176.525 113.888Z" fill="#8B91A6"/>
<path d="M176.525 119.718C177.107 119.718 177.578 119.252 177.578 118.677C177.578 118.101 177.107 117.635 176.525 117.635C175.944 117.635 175.473 118.101 175.473 118.677C175.473 119.252 175.944 119.718 176.525 119.718Z" fill="#8B91A6"/>
<path d="M176.525 125.547C177.107 125.547 177.578 125.081 177.578 124.506C177.578 123.93 177.107 123.464 176.525 123.464C175.944 123.464 175.473 123.93 175.473 124.506C175.473 125.081 175.944 125.547 176.525 125.547Z" fill="#8B91A6"/>
<path d="M176.525 131.377C177.107 131.377 177.578 130.911 177.578 130.336C177.578 129.76 177.107 129.294 176.525 129.294C175.944 129.294 175.473 129.76 175.473 130.336C175.473 130.911 175.944 131.377 176.525 131.377Z" fill="#8B91A6"/>
<path d="M176.525 137.207C177.107 137.207 177.578 136.741 177.578 136.166C177.578 135.59 177.107 135.124 176.525 135.124C175.944 135.124 175.473 135.59 175.473 136.166C175.473 136.741 175.944 137.207 176.525 137.207Z" fill="#8B91A6"/>
<path d="M176.525 143.037C177.107 143.037 177.578 142.571 177.578 141.996C177.578 141.42 177.107 140.954 176.525 140.954C175.944 140.954 175.473 141.42 175.473 141.996C175.473 142.571 175.944 143.037 176.525 143.037Z" fill="#8B91A6"/>
<path d="M176.525 148.867C177.107 148.867 177.578 148.401 177.578 147.826C177.578 147.25 177.107 146.784 176.525 146.784C175.944 146.784 175.473 147.25 175.473 147.826C175.473 148.401 175.944 148.867 176.525 148.867Z" fill="#8B91A6"/>
<path d="M176.525 154.697C177.107 154.697 177.578 154.231 177.578 153.656C177.578 153.08 177.107 152.614 176.525 152.614C175.944 152.614 175.473 153.08 175.473 153.656C175.473 154.231 175.944 154.697 176.525 154.697Z" fill="#8B91A6"/>
<path d="M176.525 160.526C177.107 160.526 177.578 160.06 177.578 159.485C177.578 158.909 177.107 158.443 176.525 158.443C175.944 158.443 175.473 158.909 175.473 159.485C175.473 160.06 175.944 160.526 176.525 160.526Z" fill="#8B91A6"/>
<path d="M176.525 166.356C177.107 166.356 177.578 165.89 177.578 165.315C177.578 164.739 177.107 164.273 176.525 164.273C175.944 164.273 175.473 164.739 175.473 165.315C175.473 165.89 175.944 166.356 176.525 166.356Z" fill="#8B91A6"/>
<path d="M176.525 172.186C177.107 172.186 177.578 171.72 177.578 171.145C177.578 170.569 177.107 170.103 176.525 170.103C175.944 170.103 175.473 170.569 175.473 171.145C175.473 171.72 175.944 172.186 176.525 172.186Z" fill="#8B91A6"/>
<path d="M176.525 178.016C177.107 178.016 177.578 177.55 177.578 176.975C177.578 176.399 177.107 175.933 176.525 175.933C175.944 175.933 175.473 176.399 175.473 176.975C175.473 177.55 175.944 178.016 176.525 178.016Z" fill="#8B91A6"/>
<path d="M176.525 183.846C177.107 183.846 177.578 183.38 177.578 182.805C177.578 182.229 177.107 181.763 176.525 181.763C175.944 181.763 175.473 182.229 175.473 182.805C175.473 183.38 175.944 183.846 176.525 183.846Z" fill="#8B91A6"/>
<path d="M176.525 189.675C177.107 189.675 177.578 189.209 177.578 188.634C177.578 188.058 177.107 187.592 176.525 187.592C175.944 187.592 175.473 188.058 175.473 188.634C175.473 189.209 175.944 189.675 176.525 189.675Z" fill="#8B91A6"/>
<path d="M176.525 195.505C177.107 195.505 177.578 195.039 177.578 194.463C177.578 193.888 177.107 193.422 176.525 193.422C175.944 193.422 175.473 193.888 175.473 194.463C175.473 195.039 175.944 195.505 176.525 195.505Z" fill="#8B91A6"/>
<path d="M176.525 201.335C177.107 201.335 177.578 200.869 177.578 200.293C177.578 199.718 177.107 199.252 176.525 199.252C175.944 199.252 175.473 199.718 175.473 200.293C175.473 200.869 175.944 201.335 176.525 201.335Z" fill="#8B91A6"/>
<path d="M176.525 207.165C177.107 207.165 177.578 206.699 177.578 206.123C177.578 205.548 177.107 205.082 176.525 205.082C175.944 205.082 175.473 205.548 175.473 206.123C175.473 206.699 175.944 207.165 176.525 207.165Z" fill="#8B91A6"/>
<path d="M176.525 212.995C177.107 212.995 177.578 212.529 177.578 211.953C177.578 211.378 177.107 210.912 176.525 210.912C175.944 210.912 175.473 211.378 175.473 211.953C175.473 212.529 175.944 212.995 176.525 212.995Z" fill="#8B91A6"/>
<path d="M176.525 218.825C177.107 218.825 177.578 218.359 177.578 217.783C177.578 217.208 177.107 216.742 176.525 216.742C175.944 216.742 175.473 217.208 175.473 217.783C175.473 218.359 175.944 218.825 176.525 218.825Z" fill="#8B91A6"/>
<path d="M176.525 224.654C177.107 224.654 177.578 224.188 177.578 223.612C177.578 223.037 177.107 222.571 176.525 222.571C175.944 222.571 175.473 223.037 175.473 223.612C175.473 224.188 175.944 224.654 176.525 224.654Z" fill="#8B91A6"/>
<path d="M179.785 138.579C194.74 138.579 206.863 126.455 206.863 111.5C206.863 96.5456 194.74 84.4223 179.785 84.4223C164.83 84.4223 152.707 96.5456 152.707 111.5C152.707 126.455 164.83 138.579 179.785 138.579Z" fill="#646C89"/>
<path d="M179.785 132.537C191.403 132.537 200.821 123.118 200.821 111.5C200.821 99.8825 191.403 90.4642 179.785 90.4642C168.167 90.4642 158.749 99.8825 158.749 111.5C158.749 123.118 168.167 132.537 179.785 132.537Z" fill="#3E486B"/>
<path d="M188.184 178.633H171.386V278.673H188.184V178.633Z" fill="#596280"/>
<path d="M383.371 271.276L368.077 275.037L368.579 267.766L374.972 264.144L383.371 271.276Z" fill="#CE8A56"/>
<path d="M381.527 272.232C379.298 268.397 378.672 267.265 374.967 264.144C377.442 261.56 380.053 259.11 382.789 256.804L400.046 277.656C400.046 277.656 397.067 282.744 392.586 279.255C389.067 276.66 385.372 274.313 381.527 272.232Z" fill="#68708B"/>
<path d="M386.558 261.526C385.426 262.412 383.997 262.831 382.565 262.696C381.133 262.561 379.808 261.882 378.861 260.799" stroke="#19254F" stroke-width="0.389" stroke-miterlimit="10" stroke-linecap="round"/>
<path d="M391.991 277.952C391.763 275.135 395.058 272.466 395.058 272.466" stroke="#19254F" stroke-width="0.389" stroke-miterlimit="10" stroke-linecap="round"/>
<path d="M400.056 277.656L382.794 256.804" stroke="#19254F" stroke-width="0.778" stroke-miterlimit="10"/>
<path d="M211.778 41.6667H203.521V56.9879H211.778V41.6667Z" fill="#270041"/>
<path d="M190.121 35.7832H184.849V40.9149H190.121V35.7832Z" fill="#654A78"/>
<path d="M186.69 37.8076H177.152V39.0378H186.69V37.8076Z" fill="#654A78"/>
<path d="M190.101 34.2745H196.792V42.4236H190.101C189.578 42.4236 189.077 42.2159 188.707 41.8463C188.337 41.4767 188.13 40.9754 188.13 40.4527V36.2444C188.13 35.7219 188.338 35.2208 188.707 34.8514C189.077 34.482 189.578 34.2745 190.101 34.2745Z" fill="#43215A"/>
<path d="M216.694 31.9786H198.211C197.098 31.9786 196.195 32.8814 196.195 33.995V42.7021C196.195 43.8157 197.098 44.7184 198.211 44.7184H216.694C217.808 44.7184 218.711 43.8157 218.711 42.7021V33.995C218.711 32.8814 217.808 31.9786 216.694 31.9786Z" fill="#270041"/>
<path d="M198.935 35.5713C199.46 35.5713 199.886 35.1457 199.886 34.6207C199.886 34.0956 199.46 33.67 198.935 33.67C198.41 33.67 197.984 34.0956 197.984 34.6207C197.984 35.1457 198.41 35.5713 198.935 35.5713Z" fill="#654A78"/>
<path d="M213.872 57.0071H200.656C199.839 57.0071 199.177 57.6691 199.177 58.4856V64.469C199.177 65.2855 199.839 65.9474 200.656 65.9474H213.872C214.688 65.9474 215.35 65.2855 215.35 64.469V58.4856C215.35 57.6691 214.688 57.0071 213.872 57.0071Z" fill="#43215A"/>
<path d="M238.319 208.61L227.923 198.7L226.587 200.101L236.982 210.012L238.319 208.61Z" fill="#269EB3"/>
<path d="M248.772 216.742L238.376 206.831L234.903 210.475L245.299 220.385L248.772 216.742Z" fill="#E83C65"/>
<path d="M224.955 197.885L226.362 200.593L228.418 198.437L225.646 197.16L224.955 197.885Z" fill="#269EB3"/>
<path d="M49.7187 265.077C45.1563 265.775 43.8302 266.005 38.8863 265.043C38.4076 268.735 38.126 272.449 38.0426 276.171L66.2046 276.556C66.2046 276.556 68.3844 270.82 62.6331 269.466C58.2315 268.305 53.9162 266.839 49.7187 265.077Z" fill="#270041"/>
<path d="M44.3247 276.141C44.303 274.645 43.7095 273.214 42.666 272.143C41.6226 271.071 40.2083 270.439 38.7137 270.377" fill="#270041"/>
<path d="M44.3247 276.141C44.303 274.645 43.7095 273.214 42.666 272.143C41.6226 271.071 40.2083 270.439 38.7137 270.377" stroke="#19254F" stroke-width="0.389" stroke-miterlimit="10" stroke-linecap="round"/>
<path d="M61.1829 269.825C58.7498 271.479 58.7377 275.891 58.7377 275.891L61.1829 269.825Z" fill="#270041"/>
<path d="M61.1829 269.825C58.7498 271.479 58.7377 275.891 58.7377 275.891" stroke="#19254F" stroke-width="0.389" stroke-miterlimit="10" stroke-linecap="round"/>
<path d="M66.2046 276.556L38.0426 276.171" stroke="#19254F" stroke-width="0.778" stroke-miterlimit="10"/>
<path d="M61.0013 266.608C56.4388 267.305 55.1128 267.536 50.1688 266.574C49.6908 270.266 49.4091 273.981 49.3252 277.703L77.4881 278.086C77.4881 278.086 79.6679 272.352 73.9157 270.997C69.514 269.836 65.1987 268.37 61.0013 266.608Z" fill="#715782"/>
<path d="M55.6073 277.673C55.5856 276.177 54.9921 274.746 53.9486 273.675C52.9051 272.603 51.4909 271.971 49.9963 271.909" stroke="#19254F" stroke-width="0.389" stroke-miterlimit="10" stroke-linecap="round"/>
<path d="M72.4655 271.356C70.0324 273.01 70.0203 277.421 70.0203 277.421" stroke="#19254F" stroke-width="0.389" stroke-miterlimit="10" stroke-linecap="round"/>
<path d="M77.4881 278.086L49.3252 277.703" stroke="#19254F" stroke-width="0.778" stroke-miterlimit="10"/>
<path d="M43.812 133.816C41.0298 139.972 42.8584 146.921 42.0016 153.626C41.9578 154.589 41.6966 155.53 41.2377 156.377C40.7099 157.185 37.3574 157.37 36.4945 156.945C35.5863 156.496 35.4854 155.295 35.3088 154.295C33.9262 146.511 33.1633 140.651 34.7608 133.129C34.9848 132.075 34.8415 128.579 35.7437 127.988C36.3658 127.652 37.0773 127.518 37.7792 127.605C39.5446 127.559 41.2567 128.212 42.5435 129.421C43.92 130.942 44.0018 133.197 44.0098 135.248C44.1542 134.997 44.2944 134.754 43.812 133.816Z" fill="#EE7F06"/>
<path d="M94.4594 166.333L102.899 169.982C102.899 169.982 123.961 127.359 136 119.586C136 119.586 90.1169 96.2741 52.5081 90.7529C52.5081 90.7529 39.2193 126.607 36.4622 130.367L94.4594 166.333Z" fill="#D4ECF0"/>
<path d="M84.5846 145.801L76.4426 141.79L76.4477 137.986L87.2216 143.293L84.5846 145.801Z" fill="#ACDAE2" stroke="#5AB5C6" stroke-width="0.572" stroke-miterlimit="10"/>
<path d="M76.9856 128.457C69.1968 122.603 66.2752 137.316 67.7294 141.979L69.8961 143.047C70.1464 139.616 71.4644 134.204 74.9672 136.17L77.7303 133.684L76.9856 128.457Z" fill="#D4ECF0" stroke="#35A5B9" stroke-width="0.572" stroke-miterlimit="10"/>
<path d="M94.5401 137.105C103.93 139.711 94.0436 150.996 89.463 152.682L87.2963 151.615C89.8676 149.323 93.3513 144.982 89.6587 143.402L89.9453 139.698L94.5401 137.105Z" fill="#D4ECF0" stroke="#35A5B9" stroke-width="0.572" stroke-miterlimit="10"/>
<path d="M96.1053 134.111C99.9787 125.908 100.644 116.554 97.9703 107.886C89.4687 111.048 82.4571 117.275 78.3136 125.344C76.4463 129.229 75.2406 133.398 74.7462 137.68L88.4992 144.455C91.5925 141.454 94.1632 137.958 96.1053 134.111Z" fill="#D4ECF0" stroke="#35A5B9" stroke-width="0.572" stroke-miterlimit="10"/>
<path d="M86.7159 133.775L84.3015 132.586L77.2187 146.964L79.6331 148.153L86.7159 133.775Z" stroke="#5AB5C6" stroke-width="0.572" stroke-miterlimit="10"/>
<path d="M90.2612 127.871C92.6573 127.871 94.5997 125.929 94.5997 123.533C94.5997 121.137 92.6573 119.194 90.2612 119.194C87.8652 119.194 85.9228 121.137 85.9228 123.533C85.9228 125.929 87.8652 127.871 90.2612 127.871Z" stroke="#5AB5C6" stroke-width="0.572" stroke-miterlimit="10"/>
<path d="M90.2612 126.903C92.1228 126.903 93.6319 125.394 93.6319 123.533C93.6319 121.671 92.1228 120.162 90.2612 120.162C88.3997 120.162 86.8906 121.671 86.8906 123.533C86.8906 125.394 88.3997 126.903 90.2612 126.903Z" stroke="#5AB5C6" stroke-width="0.572" stroke-miterlimit="10"/>
<path d="M281.61 271.244L277.727 276.3C277.385 276.746 276.946 277.107 276.442 277.355C275.938 277.603 275.384 277.732 274.823 277.732H253.781C253.688 277.733 253.596 277.712 253.513 277.671C253.429 277.629 253.356 277.569 253.3 277.495C253.243 277.421 253.205 277.335 253.188 277.243C253.171 277.151 253.175 277.057 253.201 276.967C253.363 276.148 253.795 275.407 254.429 274.864C255.062 274.32 255.861 274.006 256.695 273.971C259.892 273.971 266.755 271.902 266.755 271.902L270.388 270.416C270.719 270.281 271.008 270.062 271.227 269.781L273.901 266.355L281.61 271.244Z" fill="#CE8A56"/>
<path d="M267.435 158.699C263.085 161.636 262.227 161.699 257.567 162.89C257.567 162.89 254.524 166.038 250.941 169.153L255.633 175.578L272.778 169.027C271.181 165.492 269.397 162.045 267.435 158.699Z" fill="#270041"/>
<path d="M249.385 167.706C243.23 167.454 243.814 173.82 243.814 173.82L255.608 175.954L252.883 167.628C251.72 167.721 250.552 167.748 249.385 167.706Z" fill="#270041"/>
<path d="M267.243 171.301C266.706 169.988 266.693 168.52 267.206 167.198C267.719 165.876 268.72 164.801 270.001 164.194" stroke="#19254F" stroke-width="0.354" stroke-miterlimit="10" stroke-linecap="round"/>
<path d="M250.021 168.445C252.326 170.463 251.778 175.028 251.778 175.028" stroke="#19254F" stroke-width="0.389" stroke-miterlimit="10" stroke-linecap="round"/>
<path d="M243.66 174.047L255.243 175.75L272.778 169.027" stroke="#19254F" stroke-width="0.778" stroke-miterlimit="10"/>
<path d="M262.336 92.3201C264.593 96.8331 257.823 113.193 255.943 134.817C254.151 155.429 254.438 164.341 254.438 164.341L270.989 160.956L272.491 123.725L269.858 95.8935L262.336 92.3201Z" fill="#270041"/>
<path d="M267.601 156.067L269.293 166.974L276.628 163.589L275.688 152.682L267.601 156.067Z" fill="#EED2AA"/>
<path d="M254.183 213.473C252.89 212.016 251.696 213.171 249.36 211.5C248.285 210.732 246.408 210.309 245.242 209.684C245.057 213.248 245.076 216.819 245.297 220.381C245.285 220.69 245.373 220.996 245.548 221.251C245.717 221.447 245.818 220.884 246.065 220.961C248.618 221.764 251.227 222.371 253.871 222.778C254.396 219.936 254.532 217.036 254.275 214.157C254.254 213.912 253.922 213.621 254.183 213.473Z" fill="#CE8A56"/>
<path d="M242.204 209.542C240.591 210.376 239.03 211.306 237.529 212.327C236.625 212.805 235.939 213.612 235.611 214.58C235.526 215.215 235.614 215.86 235.868 216.448C236.293 217.626 236.907 218.726 237.684 219.708C238 220.162 238.428 220.526 238.926 220.765C239.377 220.903 239.845 220.98 240.317 220.992C241.544 221.124 242.705 221.604 243.913 221.853C244.507 222.023 245.131 222.064 245.742 221.975C246.354 221.885 246.939 221.667 247.46 221.335C248.184 220.7 248.674 219.842 248.853 218.897C249.161 217.628 249.205 216.309 248.981 215.023C248.757 213.736 248.269 212.51 247.55 211.421C246.929 210.402 245.996 209.612 244.89 209.166C243.766 208.777 242.396 208.976 242.204 209.542Z" fill="#CE8A56"/>
<path d="M45.8163 190.41L39.0629 191.412C39.4487 216.328 38.5257 241.248 36.2978 266.067C40.8077 265.759 46.3511 266.464 50.8611 266.156C54.255 245.771 55.357 224.175 56.2198 203.53C56.3641 200.069 56.4217 196.397 54.6748 193.408C52.9279 190.419 49.1506 189.915 45.8163 190.41Z" fill="#008CA7"/>
<path d="M73.6573 190.197L51.3879 189.717C50.0107 215.031 47.9988 240.298 45.352 265.52C45.2736 265.831 45.2658 266.156 45.3292 266.47C45.3926 266.784 45.5256 267.081 45.7184 267.337C46.1226 267.633 46.6185 267.776 47.1181 267.741C53.0086 268.004 58.9088 267.96 64.7948 267.608C65.4613 267.639 66.1191 267.447 66.6637 267.061C67.0471 266.646 67.3025 266.128 67.3994 265.571C69.3966 258.086 69.8941 250.295 70.3815 242.562L73.5322 192.669C73.5968 191.642 73.6533 190.552 73.6573 190.197Z" fill="#00A4B6"/>
<path d="M286.493 79.6237C291.871 87.9352 290.951 98.9483 287.52 108.234C285.905 112.595 283.786 116.792 282.706 121.316C281.938 125.056 281.53 128.861 281.488 132.679L280.517 155.385C273.977 156.76 267.353 157.7 260.688 158.201L259.599 140.137C259.138 132.467 260.346 124.88 260.502 117.2C260.644 110.183 262.245 106.436 261.772 101.154C261.479 97.8887 261.96 95.3587 261.417 92.1253C260.874 88.8919 261.381 85.1156 263.998 83.1437C265.085 82.411 266.292 81.8754 267.564 81.5613C272.338 80.1166 277.207 79.0078 282.136 78.2431C283.717 77.9989 285.75 78.4773 286.493 79.6237Z" fill="#3D1A54"/>
<path d="M305.751 209.668C303.799 208.502 301.635 206.961 301.517 204.689C301.444 203.277 302.208 201.982 302.728 200.667C305.023 194.826 301.972 187.566 296.385 184.709C290.797 181.852 283.449 183.389 279.117 187.93C277.758 189.181 276.924 190.9 276.78 192.742C276.78 194.163 277.362 195.782 276.459 196.879C276.087 197.331 275.178 199.363 274.814 199.82C274.468 200.223 274.258 200.724 274.213 201.253C274.169 201.781 274.291 202.311 274.563 202.766C275.116 203.775 276.626 203.194 276.872 204.313C277.119 205.432 276.795 206.591 277.027 207.7C277.422 209.599 279.372 210.836 281.292 211.104C283.232 211.222 285.177 211.038 287.06 210.558C287.485 210.436 287.939 210.463 288.347 210.634C288.65 210.846 288.887 211.138 289.033 211.478L292.779 218.391C293.364 219.473 294.129 220.682 295.35 220.83C295.938 220.86 296.524 220.742 297.055 220.486C299.402 219.537 301.518 218.097 303.261 216.261C305.1 214.317 306.517 211.359 305.751 209.668Z" fill="#CE8A56"/>
<path d="M270.718 267.992L275.39 258.888C277.057 255.64 278.725 252.389 280.133 249.02C283.317 241.39 285.122 233.239 288.352 225.628C289.822 222.161 292.027 218.463 295.7 217.632C298.93 216.906 302.369 218.843 304.031 221.707C305.574 224.675 305.934 228.117 305.04 231.341C304.139 234.528 302.839 237.588 301.17 240.448L286.895 267.456L284.411 272.159C284.229 272.641 283.864 273.033 283.396 273.249C282.901 273.395 274.928 269.21 270.718 267.992Z" fill="#028EA7"/>
<path d="M289.553 211.858L280.393 214.885C278.483 215.629 276.468 216.068 274.421 216.185C271.557 216.196 268.938 214.735 266.194 213.919C261.117 212.406 256.462 211.211 251.481 210.084C251.424 215.244 251.471 219.755 251.279 224.652L275.701 230.783C277.571 231.412 279.608 231.335 281.426 230.567L297.233 225.723C299.416 225.053 301.68 224.339 303.356 222.788C304.398 221.795 305.144 220.534 305.514 219.144C305.883 217.753 305.86 216.288 305.448 214.909C304.588 212.174 310.673 207.485 307.806 207.424C301.448 207.365 295.175 208.889 289.553 211.858Z" fill="#269EB3"/>
<path d="M321.678 246.137L305.847 239.734C302.254 238.281 298.558 236.762 295.805 234.032C294.034 232.223 292.738 230.004 292.035 227.571C291.332 225.139 291.242 222.571 291.775 220.095C292.355 217.631 293.507 215.339 295.139 213.403C296.771 211.468 298.836 209.944 301.166 208.956C304.484 207.739 308.004 207.172 311.536 207.285C316.516 207.127 321.491 207.7 326.304 208.986C336.228 211.862 344.39 218.847 351.783 226.067C355.013 229.222 358.397 233.055 358.071 237.559C357.906 239.078 357.472 240.555 356.789 241.922C355.477 244.792 353.75 247.453 351.662 249.819C349.195 252.613 345.718 255.121 342.044 254.495C341.077 254.293 340.135 253.985 339.236 253.575C332.604 250.84 326.055 247.908 321.678 246.137Z" fill="#269EB3"/>
<path d="M354.049 234.101C356.098 233.591 358.212 235.121 359.095 237.04C359.825 239.03 360.087 241.16 359.863 243.267L359.436 257.087C359.316 258.125 359.465 259.177 359.869 260.14C360.822 261.947 363.236 262.311 365.278 262.232C368.682 262.099 372.033 261.346 375.168 260.012C375.981 264.927 375.745 269.958 374.474 274.774L349.802 276.061C347.741 276.293 345.656 276.15 343.646 275.637C342.645 275.368 341.733 274.837 341.006 274.097C340.278 273.358 339.761 272.438 339.509 271.432C339.24 269.873 339.845 268.31 339.999 266.735C340.236 264.303 339.394 261.891 339.31 259.453C339.355 257.026 339.776 254.621 340.558 252.322L342.29 246.228C343.147 243.214 344.044 240.116 345.967 237.642C347.891 235.167 351.114 233.435 354.156 234.187C354.482 234.269 354.867 234.475 354.049 234.101Z" fill="#F49727"/>
<path d="M263.619 34.0222C262.363 32.2826 261.751 30.16 261.889 28.0187C261.889 25.8833 262.234 23.7519 262.091 21.6215C261.754 16.4162 259.818 11.4037 255.123 9.51751C251.201 7.94118 244.866 8.691 241.81 11.6842C240.765 12.7551 239.944 14.023 239.395 15.4143C238.845 16.8056 238.578 18.2923 238.609 19.7879C238.618 20.6346 238.709 21.4802 238.671 22.3249C238.555 24.646 237.42 26.7784 236.883 29.041C236.795 29.2998 236.793 29.5799 236.876 29.8402C237.295 30.803 239.169 29.816 239.587 30.7788C239.655 30.9779 239.675 31.1901 239.646 31.3984L239.509 33.6186C239.432 34.2069 239.478 34.8048 239.644 35.3745C240.106 36.6239 241.561 37.0982 242.846 37.2576C245.275 37.5586 247.74 37.3174 250.064 36.5512C250.852 36.2909 251.192 41.3821 251.989 41.6142C253.391 42.023 253.986 43.9353 255.387 44.3541C256.034 44.5459 257.22 38.9571 257.868 38.7664C258.911 38.4576 259.942 38.1053 260.96 37.7098C261.784 37.4458 262.541 37.0065 263.18 36.422C263.785 35.7923 264.231 34.7509 263.619 34.0222Z" fill="#EED2AA"/>
<path d="M248.472 48.1829C248.335 53.7606 250.883 58.9962 252.988 64.1632C256.29 72.2728 258.611 80.748 259.901 89.4086C269.948 87.9595 279.92 86.077 289.817 83.7613C290.053 83.7256 290.276 83.6331 290.468 83.4919C290.621 83.2943 290.722 83.0614 290.762 82.8145C290.802 82.5676 290.779 82.3147 290.695 82.079C289.344 74.6475 287.979 67.1695 285.325 60.0982C284.13 56.9527 282.724 53.8913 281.117 50.9349C277.921 45.0091 273.903 39.2568 268.18 35.6924C265.447 33.9889 264.53 33.2109 260.519 34.214C258.747 34.6452 257.076 35.4186 255.601 36.4907C253.646 38.3157 251.807 40.2611 250.095 42.3156C248.514 44.2139 246.996 46.9205 248.472 48.1829Z" fill="#EC597C"/>
<path d="M215.929 47.3675C214.39 46.8191 212.788 46.4625 211.161 46.3058C210.761 49.0743 210.577 51.8698 210.611 54.6668C210.618 55.1876 210.789 55.8779 211.309 55.8839C211.509 55.8604 211.702 55.7973 211.878 55.6982C212.551 55.5055 213.27 55.5522 213.913 55.8304C214.553 56.1085 215.255 56.213 215.949 56.1332C216.627 55.9818 217.224 55.2471 216.924 54.8213C217.31 52.2926 216.965 49.7065 215.929 47.3675Z" fill="#EED2AA"/>
<path d="M208.44 44.4379C206.321 44.1806 203.735 44.0716 202.486 45.4945C201.946 46.2334 201.672 47.1341 201.711 48.0487C201.62 49.6553 201.584 51.2626 201.601 52.8705C201.614 54.1259 201.773 55.564 203.014 56.3017C203.487 56.5561 203.998 56.7317 204.528 56.8215C206.877 57.3169 209.297 57.3748 211.667 56.992C211.952 56.9684 212.227 56.8745 212.467 56.7185C212.652 56.5477 212.779 56.3227 212.829 56.0757C213.472 53.9356 213.759 51.7047 213.68 49.4716C213.727 48.1398 213.332 46.8298 212.559 45.7448C212.068 45.157 211.42 44.7217 210.69 44.4902C209.961 44.2586 209.18 44.2405 208.44 44.4379Z" fill="#EED2AA"/>
<path d="M41.4375 130.78C51.7847 128.73 62.438 128.776 72.7672 130.915C74.7702 131.204 76.6824 131.941 78.3621 133.069C81.1242 135.195 82.0274 139.041 81.6984 142.511C81.3694 145.982 80.0282 149.261 79.0967 152.619C75.8018 164.506 77.6839 177.142 76.8332 189.454C76.8517 190.056 76.6774 190.648 76.3357 191.144C76.049 191.395 75.7156 191.586 75.3547 191.708C74.9937 191.829 74.6124 191.877 74.2325 191.851L37.3655 193.918C36.1948 189.119 36.9729 184.095 37.4896 179.184C38.3824 170.692 38.4719 162.134 37.757 153.625C37.4048 149.429 36.8568 145.208 37.3231 141.023C37.7893 136.838 39.408 132.595 41.4375 130.78Z" fill="#F49727"/>
<path d="M108.813 162.066L97.8875 165.771C96.8073 166.237 95.6289 166.43 94.4563 166.333C93.3418 166.049 92.312 165.5 91.4541 164.734L80.0393 156.055C77.3395 154.185 74.9001 151.964 72.7854 149.45C71.7339 148.187 70.9422 146.728 70.4556 145.157C69.969 143.587 69.7971 141.936 69.9496 140.299C70.4179 137.052 72.9913 134.016 76.2559 133.697C79.7134 133.358 82.7328 135.894 85.1548 138.383C89.9503 143.312 94.2276 148.72 97.9198 154.522C100.924 153.21 103.998 152.063 107.127 151.084C107.442 150.939 107.784 150.86 108.131 150.852C108.478 150.844 108.823 150.907 109.145 151.037C109.571 151.349 109.887 151.79 110.045 152.294C111.52 155.761 112.271 160.893 108.813 162.066Z" fill="#F49727"/>
<path d="M119.609 152.025C120.219 150.456 120.453 148.766 120.293 147.091C120.007 145.439 119.005 143.621 117.329 143.578C116.753 144.442 116.573 145.294 115.84 145.568C115.106 145.843 114.29 145.84 113.555 146.116C112.994 146.363 112.493 146.728 112.087 147.187C111.68 147.645 111.377 148.185 111.198 148.771C110.848 149.944 110.671 151.162 110.672 152.386C110.584 154.239 110.635 156.409 112.121 157.521C113.003 158.07 114.028 158.346 115.067 158.312C115.524 158.368 115.987 158.305 116.413 158.13C118.176 157.229 118.946 154.191 119.609 152.025Z" fill="#CE8A56"/>
<path d="M359.093 237.04C357.675 232.915 356.548 230.985 354.165 228.527C354.165 228.527 339.623 229.032 327.588 245.827L345.139 249.337L359.093 237.04Z" fill="#F7AF59"/>
<path d="M348.019 254.014C353.538 249.462 360.183 243.316 358.553 235.297C356.923 227.277 350.53 233.917 350.53 233.917L343.133 242.944L348.019 254.014Z" fill="#F7AF59"/>
<path d="M234.647 26.5009C233.823 24.0562 233.929 21.394 234.942 19.0219C235.229 18.3609 235.723 17.6464 236.422 17.6706C237.12 17.6948 237.574 18.4537 237.812 19.14C238.575 21.3615 238.568 23.775 237.793 25.9922C237.66 26.424 237.445 26.826 237.159 27.176C237.018 27.3471 236.84 27.4834 236.637 27.574C236.435 27.6647 236.214 27.7074 235.993 27.6988C235.686 27.627 235.403 27.4799 235.168 27.2707C234.933 27.0615 234.753 26.7969 234.647 26.5009Z" fill="#715782"/>
<path d="M238.717 24.9538C238.57 23.0205 238.846 21.0784 239.524 19.2621C239.805 18.5143 240.307 17.6857 241.082 17.6766C241.857 17.6676 242.378 18.484 242.655 19.2338C243.331 21.0702 243.471 23.061 243.059 24.974C242.94 25.6662 242.658 26.3202 242.237 26.8823C242.029 27.156 241.754 27.371 241.438 27.506C241.122 27.641 240.776 27.6914 240.435 27.6523C240.11 27.5894 239.808 27.4424 239.557 27.2261C239.307 27.0097 239.117 26.7314 239.008 26.4191C238.805 25.958 238.705 25.4577 238.717 24.9538Z" fill="#715782"/>
<path d="M264.655 34.3391L262.775 30.8292C261.055 32.2724 259.159 33.493 257.134 34.4622C254.626 35.4653 250.49 37.4716 249.738 37.5967L251.994 41.6082L259.516 38.5998L264.655 34.3391Z" fill="#EC597C"/>
<path d="M239.188 30.4841C239.188 30.4841 236.213 35.539 237.827 39.3537C240.156 44.8517 251.367 39.166 252.37 35.4048C253.099 32.8026 253.582 30.1373 253.812 27.4445C253.749 27.0055 250.929 28.1337 250.802 25.7521C250.676 23.3704 249.863 21.5519 251.43 20.9252C251.838 20.8219 252.196 20.575 252.437 20.2297C252.677 19.8844 252.786 19.4639 252.742 19.0451L250.579 14.6572C250.579 14.6572 248.166 19.6718 248.479 23.6207C248.83 27.9965 239.188 30.4841 239.188 30.4841Z" fill="#444E70"/>
<path d="M242.163 20.2793L252.338 20.2763" stroke="#715782" stroke-width="0.719" stroke-miterlimit="10"/>
<path d="M250.583 14.6572C249.232 16.1205 235.221 18.5839 233.753 13.9992C235.16 14.2284 236.593 14.2427 238.004 14.0416C238.004 14.0416 235.38 13.753 235.445 11.4178C235.445 11.4178 240.247 11.0232 241.109 10.0655C241.109 10.0655 239.414 10.2249 239.091 8.11374C241.251 8.75836 243.564 8.67467 245.672 7.87558C245.672 7.87558 246.241 7.77466 244.703 7.11567C244.188 6.89668 249.261 5.99549 252.701 6.45971C256.221 6.93503 257.506 7.4487 260.766 10.457C265.033 14.3928 264.119 19.6405 263.744 22.1786C263.369 24.7166 263.721 25.3978 264.872 26.7098C264.872 26.7098 264.402 27.4757 262.148 27.1932C262.978 28.2151 263.913 29.1467 264.939 29.9724C264.939 29.9724 259.309 32.3399 254.457 26.8228C254.457 26.8228 254.703 22.3663 252.687 20.9514C251.726 20.2501 251.008 19.2674 250.631 18.1397C250.254 17.0119 250.238 15.7949 250.583 14.6572Z" fill="#444E70"/>
<path d="M253.341 30.4528C253.906 29.2619 257.009 28.5414 257.416 28.2588L255.094 26.7854C254.41 27.0847 253.684 27.2751 252.941 27.3496L253.341 30.4528Z" fill="#444E70"/>
<path d="M277.212 160.204C272.864 163.141 272.005 163.203 267.346 164.393C267.346 164.393 264.302 167.542 260.719 170.657L265.412 177.083L282.557 170.531C280.96 166.996 279.176 163.549 277.212 160.204Z" fill="#715782"/>
<path d="M259.163 169.211C253.012 168.958 253.592 175.324 253.592 175.324L265.387 177.459L262.662 169.132C261.498 169.226 260.33 169.252 259.163 169.211Z" fill="#715782"/>
<path d="M277.032 172.805C276.495 171.492 276.482 170.024 276.995 168.703C277.508 167.381 278.508 166.306 279.789 165.699" stroke="#19254F" stroke-width="0.354" stroke-miterlimit="10" stroke-linecap="round"/>
<path d="M259.799 169.95C262.105 171.968 261.556 176.532 261.556 176.532" stroke="#19254F" stroke-width="0.389" stroke-miterlimit="10" stroke-linecap="round"/>
<path d="M253.438 175.552L265.022 177.255L282.557 170.531" stroke="#19254F" stroke-width="0.778" stroke-miterlimit="10"/>
<path d="M287.156 196.106C287.401 195.83 287.722 195.633 288.08 195.539C288.437 195.445 288.814 195.459 289.163 195.58C289.513 195.71 289.831 195.912 290.097 196.174C290.363 196.436 290.571 196.752 290.706 197.099C290.943 197.691 291.004 198.339 290.88 198.964C290.756 199.589 290.453 200.165 290.008 200.621C289.546 201.052 288.969 201.339 288.347 201.447C287.724 201.554 287.084 201.478 286.505 201.227" stroke="#A66840" stroke-width="0.572" stroke-miterlimit="10" stroke-linecap="round"/>
<path d="M286.641 199.33C286.803 199.284 286.952 199.2 287.075 199.084C287.198 198.969 287.291 198.826 287.348 198.667C287.403 198.504 287.42 198.33 287.397 198.16C287.373 197.99 287.311 197.827 287.214 197.685C287.424 197.399 287.72 197.187 288.058 197.079C288.227 197.028 288.404 197.013 288.579 197.033C288.754 197.054 288.923 197.11 289.075 197.198C289.324 197.361 289.506 197.608 289.587 197.894C289.669 198.18 289.645 198.486 289.519 198.755" stroke="#A66840" stroke-width="0.572" stroke-miterlimit="10" stroke-linecap="round"/>
<path d="M280.64 196.688C279.948 196.482 279.219 196.439 278.508 196.563" stroke="#A66840" stroke-width="0.572" stroke-miterlimit="10" stroke-linecap="round"/>
<path d="M278.821 205.523C279.88 205.477 280.913 205.176 281.83 204.645" stroke="#A66840" stroke-width="0.572" stroke-miterlimit="10" stroke-linecap="round"/>
<path d="M277.63 203.204C277.568 202.699 276.377 203.015 275.938 202.765" stroke="#A66840" stroke-width="0.572" stroke-miterlimit="10" stroke-linecap="round"/>
<path d="M273.802 277.356L269.392 278.478C268.887 278.607 268.367 278.672 267.845 278.672H264.844C264.257 278.672 263.677 278.554 263.137 278.324C262.597 278.095 262.109 277.759 261.702 277.337L260.545 276.134L272.015 275.757L273.802 277.356Z" fill="#CE8A56"/>
<path d="M99.6395 117.455H106.159L114.558 121.842" stroke="#5AB5C6" stroke-width="0.572" stroke-miterlimit="10"/>
<path d="M90.2612 123.533L101.646 123.849L110.797 128.237" stroke="#5AB5C6" stroke-width="0.572" stroke-miterlimit="10"/>
<path d="M109.418 139.519L103.401 136.385L95.0013 140.146" stroke="#5AB5C6" stroke-width="0.572" stroke-miterlimit="10"/>
<path d="M79.018 109.559C79.018 117.797 73.182 124.63 65.9876 124.474C59.1121 124.326 53.2387 117.662 52.9562 109.559C52.6706 101.327 59.1121 96.1489 66.3075 96.1489C73.5029 96.1489 79.018 101.321 79.018 109.559Z" fill="#270041"/>
<path d="M57.5176 120.589C58.8961 123.472 56.8909 128.11 55.3862 129.74L70.1797 131.37C69.553 128.988 70.6843 123.723 73.0629 121.717L57.5176 120.589Z" fill="#CE8A56"/>
<path d="M56.7184 119.633C58.4107 121.467 59.544 122.689 59.21 124.71C59.21 124.71 61.6673 124.449 61.7138 122.995C61.7138 122.995 62.8995 125.02 62.2416 126.666C62.2416 126.666 66.1521 124.723 66.7526 122.3C67.2226 122.366 67.6683 122.549 68.0483 122.833C68.6078 123.291 69.0037 123.918 69.1766 124.62C70.4727 123.906 71.7283 123.121 72.9378 122.269L73.6896 121.61V119.683L60.9024 116.91L56.7184 119.633Z" fill="#270041"/>
<path d="M67.4842 96.3941C64.601 95.2659 60.088 94.7643 58.8961 95.391C58.8961 95.391 63.1589 96.3315 63.5979 98.5255L67.4842 96.3941Z" fill="#270041"/>
<path d="M67.4842 96.3941C69.1143 95.9335 70.824 95.8265 72.4988 96.0802L70.5551 98.5255L67.4842 96.3941Z" fill="#270041"/>
<path d="M62.9712 96.3315C60.088 97.3337 56.8284 97.7726 56.0755 98.5881C55.3227 99.4035 53.9451 102.412 53.5062 102.787C53.0672 103.163 54.5406 102.552 54.5406 102.552L56.7032 102.35L61.6542 99.1542L62.9712 96.3315Z" fill="#270041"/>
<path d="M71.0597 130.493L70.6207 127.421C67.776 128.267 64.7993 128.58 61.8409 128.342C59.7745 128.133 57.7941 127.407 56.0826 126.23L53.7009 131.057L67.1148 137.263L70.876 131.559L71.0597 130.493Z" fill="#F49727"/>
<path d="M111.017 149.955L109.136 151.648L110.64 158.887L116.413 158.13L115.811 153.058L111.017 149.955Z" fill="#CE8A56"/>
<path d="M40.7149 131.602C42.0561 129.987 41.5333 126.038 41.5333 126.038C41.0623 126.06 40.6072 126.215 40.2209 126.486C39.8345 126.756 39.5327 127.13 39.3505 127.565C39.2322 127.969 38.9885 128.324 38.6548 128.579C38.3211 128.834 37.9147 128.977 37.4946 128.985L39.8803 123.184C39.8803 123.184 35.3108 123.745 34.7648 127.565C34.2189 131.386 34.4378 132.914 35.6388 133.57C36.8009 133.899 38.0423 133.804 39.1406 133.302C39.7602 133.045 40.5524 131.798 40.7149 131.602Z" fill="#CE8A56"/>
<path d="M263.728 38.0761C258.624 36.419 253.387 39.5898 248.43 41.6435C237.705 46.0838 225.647 45.436 214.06 44.7104L213.455 56.3522C213.39 56.8035 213.452 57.264 213.634 57.6823C214.037 58.4169 215.032 58.53 215.872 58.5491C223.081 58.7126 230.392 58.4048 237.404 60.0942C238.7 60.511 240.06 60.6998 241.421 60.6523C242.217 60.5307 242.997 60.3153 243.742 60.0104L255.823 55.6054C258.708 54.7122 261.444 53.3964 263.943 51.7009C265.187 50.8431 266.228 49.7221 266.991 48.4172C267.754 47.1124 268.221 45.6556 268.358 44.1503C268.459 41.1409 266.316 37.9953 263.728 38.0761Z" fill="#EF7591"/>
<path d="M350.028 271.276L334.733 275.037L335.235 267.766L341.876 264.333L350.028 271.276Z" fill="#CE8A56"/>
<path d="M334.771 240.781C333.206 240.484 331.792 241.682 330.651 242.791L310.702 262.176C309.352 263.488 307.999 264.8 306.785 266.241C305.143 268.189 303.701 270.613 304.06 273.135C304.436 275.758 306.731 277.768 309.239 278.609C311.8 279.294 314.466 279.502 317.103 279.222L338.684 278.254C338.823 278.278 338.965 278.269 339.1 278.228C339.234 278.186 339.357 278.114 339.459 278.016C339.56 277.918 339.637 277.798 339.683 277.665C339.729 277.532 339.743 277.39 339.725 277.251C340.151 273.82 340.475 269.459 340.902 266.026C340.963 265.542 340.985 264.962 340.6 264.667C340.341 264.49 340.024 264.422 339.717 264.477C336.982 264.86 335.062 265.101 332.095 265.454C338.029 262.598 343.418 258.726 348.019 254.014C349.901 252.179 351.776 250.162 352.488 247.632C353.515 243.981 351.853 240.031 349.343 237.187C347.996 235.487 346.119 234.287 344.012 233.777C339.872 233.029 336.015 236.512 334.771 240.781Z" fill="#F7AF59"/>
<path d="M348.227 272.402C345.889 268.632 345.23 267.519 341.442 264.505C343.842 261.851 346.381 259.327 349.049 256.943L366.905 277.289C366.905 277.289 364.073 282.461 359.493 279.106C355.898 276.612 352.134 274.372 348.227 272.402Z" fill="#68708B"/>
<path d="M352.948 261.554C351.842 262.473 350.425 262.933 348.99 262.839C347.555 262.745 346.211 262.105 345.234 261.05" stroke="#19254F" stroke-width="0.389" stroke-miterlimit="10" stroke-linecap="round"/>
<path d="M358.851 277.818C358.542 275.008 361.759 272.246 361.759 272.246" stroke="#19254F" stroke-width="0.389" stroke-miterlimit="10" stroke-linecap="round"/>
<path d="M366.905 277.289L349.049 256.943" stroke="#19254F" stroke-width="0.778" stroke-miterlimit="10"/>
<path d="M251.079 21.4711C251.298 21.2051 251.59 21.0082 251.919 20.9044C252.248 20.8005 252.6 20.7941 252.933 20.8858C253.387 20.9661 253.821 21.1355 254.21 21.3844C254.599 21.6333 254.934 21.9568 255.197 22.336C255.461 22.727 255.631 23.1734 255.694 23.6406C255.758 24.1078 255.713 24.5833 255.564 25.0305C255.419 25.7413 255.026 26.377 254.454 26.8228C253.734 27.1673 252.933 27.3053 252.14 27.2214" fill="#EED2AA"/>
<path d="M251.079 21.4711C251.298 21.2051 251.59 21.0082 251.919 20.9044C252.248 20.8005 252.6 20.7941 252.933 20.8858C253.387 20.9661 253.821 21.1355 254.21 21.3844C254.599 21.6333 254.934 21.9568 255.197 22.336C255.461 22.727 255.631 23.1734 255.694 23.6406C255.758 24.1078 255.713 24.5833 255.564 25.0305C255.419 25.7413 255.026 26.377 254.454 26.8228C253.734 27.1673 252.933 27.3053 252.14 27.2214" stroke="#D1AD83" stroke-width="0.719" stroke-miterlimit="10" stroke-linecap="round"/>
<path d="M251.693 25.1395C251.813 25.0591 251.912 24.9517 251.982 24.8259C252.052 24.7002 252.091 24.5598 252.097 24.4159C252.102 24.2697 252.073 24.1244 252.014 23.9907C251.954 23.8571 251.866 23.7385 251.754 23.6439C251.849 23.3593 252.032 23.1121 252.276 22.9375C252.396 22.8534 252.532 22.7957 252.677 22.7684C252.821 22.7411 252.969 22.7447 253.111 22.779C253.351 22.8561 253.556 23.0155 253.689 23.2291C253.822 23.4426 253.876 23.6965 253.84 23.9456" fill="#EED2AA"/>
<path d="M251.693 25.1395C251.813 25.0591 251.912 24.9517 251.982 24.8259C252.052 24.7002 252.091 24.5598 252.097 24.4159C252.102 24.2697 252.073 24.1244 252.014 23.9907C251.954 23.8571 251.866 23.7385 251.754 23.6439C251.849 23.3593 252.032 23.1121 252.276 22.9375C252.396 22.8534 252.532 22.7957 252.677 22.7684C252.821 22.7411 252.969 22.7447 253.111 22.779C253.351 22.8561 253.556 23.0155 253.689 23.2291C253.822 23.4426 253.876 23.6965 253.84 23.9456" stroke="#D1AD83" stroke-width="0.359" stroke-miterlimit="10" stroke-linecap="round"/>
<path d="M62.5049 193.09L55.8515 263.853" stroke="#007B84" stroke-width="0.858" stroke-linecap="round" stroke-linejoin="round"/>
<path d="M45.4873 263.98L67.4963 264.109" stroke="#007B84" stroke-width="0.572" stroke-miterlimit="10"/>
<path d="M61.0971 224.441L50.733 225.849L59.9457 228.663" stroke="#007B84" stroke-width="0.858" stroke-linecap="round" stroke-linejoin="round"/>
<path d="M71.0829 141.628C69.437 148.407 74.2618 151.345 78.0462 153.253" stroke="#DA7800" stroke-width="0.858" stroke-linecap="round" stroke-linejoin="round"/>
<path d="M100.413 158.957C100.222 157.325 98.3951 155.214 98.3951 155.214L97.723 159.049" stroke="#DA7800" stroke-width="0.858" stroke-linecap="round" stroke-linejoin="round"/>
<path d="M55.9615 130.316C57.6105 131.893 64.4244 132.853 69.1271 131.893" stroke="#DA7800" stroke-width="0.858" stroke-linecap="round" stroke-linejoin="round"/>
<path d="M293.986 226.744C297.185 225.721 302.564 224.056 304.223 224.441" stroke="#007B84" stroke-width="0.858" stroke-linecap="round" stroke-linejoin="round"/>
<path d="M335.926 272.587L312.125 272.01L345.139 240.339C346.962 238.613 342.26 232.663 342.26 232.663" stroke="#F49727" stroke-width="0.858" stroke-linecap="round" stroke-linejoin="round"/>
<path d="M319.578 267.244L330.743 265.58L320.411 270.955" stroke="#F49727" stroke-width="0.572" stroke-linecap="round" stroke-linejoin="round"/>
<path d="M271.338 154.062C271.338 154.062 265.963 116.055 276.52 97.4396" stroke="#6C527E" stroke-width="0.858" stroke-linecap="round" stroke-linejoin="round"/>
<path d="M271.338 88.0352C270.954 90.9133 273.065 94.5605 277.863 95.1367" stroke="#6C527E" stroke-width="0.858" stroke-linecap="round" stroke-linejoin="round"/>
<path d="M259.31 54.2531C265.323 50.9228 268.522 49.7744 268.011 42.4811" stroke="#E83C65" stroke-width="1.144" stroke-linecap="round" stroke-linejoin="round"/>
<path d="M276.2 77.7981C275.432 70.5038 270.186 54.6366 266.731 49.5181" stroke="#E83C65" stroke-width="0.858" stroke-linecap="round" stroke-linejoin="round"/>
<path d="M75.2377 104.478C75.6212 106.014 76.9654 113.179 73.8299 117.466" stroke="#5D4070" stroke-width="0.858" stroke-miterlimit="10" stroke-linecap="round"/>
<path d="M55.8515 112.091C55.9161 114.715 57.8991 117.594 59.4986 119.065" stroke="#5D4070" stroke-width="0.858" stroke-miterlimit="10" stroke-linecap="round"/>
<path d="M252.72 11.3219C250.288 12.7933 245.362 14.0729 242.674 13.753" stroke="#29345B" stroke-width="0.572" stroke-linecap="round" stroke-linejoin="round"/>
<path d="M257.134 11.9617C256.622 13.5612 256.942 20.9191 259.31 22.9667" stroke="#29345B" stroke-width="0.572" stroke-linecap="round" stroke-linejoin="round"/>
<path d="M44.0795 131.318C41.7115 134.459 40.1005 138.104 39.3717 141.97" stroke="#DA7800" stroke-width="0.858" stroke-linecap="round" stroke-linejoin="round"/>
<path d="M246.194 29.4285C245.878 30.5658 243.665 32.2027 241.395 32.564" stroke="#29345B" stroke-width="0.572" stroke-linecap="round" stroke-linejoin="round"/>
<path d="M254.159 224.121L254.351 212.317" stroke="#007B84" stroke-width="0.858" stroke-linecap="round" stroke-linejoin="round"/>
<path d="M278.631 197.249C279.091 197.249 279.463 196.877 279.463 196.417C279.463 195.958 279.091 195.586 278.631 195.586C278.172 195.586 277.8 195.958 277.8 196.417C277.8 196.877 278.172 197.249 278.631 197.249Z" fill="#A66840"/>
<path d="M218.652 215.522L216.899 214.646L215.968 216.509L217.721 217.385L218.652 215.522Z" fill="#19254F"/>
<path d="M220.686 219.01L220.066 217.151L218.09 217.81L218.71 219.669L220.686 219.01Z" fill="#19254F"/>
<path d="M219.659 222.915L220.535 221.162L218.672 220.231L217.796 221.984L219.659 222.915Z" fill="#19254F"/>
<path d="M216.171 224.95L218.03 224.33L217.371 222.354L215.512 222.974L216.171 224.95Z" fill="#19254F"/>
<path d="M212.264 223.922L214.017 224.799L214.949 222.935L213.196 222.059L212.264 223.922Z" fill="#19254F"/>
<path d="M210.23 220.436L210.85 222.295L212.826 221.636L212.206 219.777L210.23 220.436Z" fill="#19254F"/>
<path d="M211.258 216.528L210.381 218.282L212.245 219.213L213.121 217.46L211.258 216.528Z" fill="#19254F"/>
<path d="M214.745 214.494L212.886 215.114L213.545 217.09L215.404 216.47L214.745 214.494Z" fill="#19254F"/>
<path d="M215.458 223.693C217.601 223.693 219.337 221.956 219.337 219.814C219.337 217.671 217.601 215.935 215.458 215.935C213.316 215.935 211.579 217.671 211.579 219.814C211.579 221.956 213.316 223.693 215.458 223.693Z" fill="#19254F"/>
<path d="M215.458 221.56C216.422 221.56 217.204 220.778 217.204 219.814C217.204 218.85 216.422 218.068 215.458 218.068C214.494 218.068 213.712 218.85 213.712 219.814C213.712 220.778 214.494 221.56 215.458 221.56Z" fill="#6E547F"/>
<path d="M210.088 203.642L207.95 204.137L208.476 206.409L210.615 205.914L210.088 203.642Z" fill="#6E547F"/>
<path d="M214.335 205.2L212.473 204.039L211.239 206.018L213.101 207.179L214.335 205.2Z" fill="#6E547F"/>
<path d="M216.237 209.306L215.741 207.168L213.469 207.694L213.965 209.833L216.237 209.306Z" fill="#6E547F"/>
<path d="M214.677 213.554L215.839 211.692L213.86 210.458L212.698 212.32L214.677 213.554Z" fill="#6E547F"/>
<path d="M210.572 215.455L212.71 214.959L212.183 212.687L210.045 213.183L210.572 215.455Z" fill="#6E547F"/>
<path d="M206.19 213.829L208.053 214.99L209.286 213.01L207.423 211.849L206.19 213.829Z" fill="#6E547F"/>
<path d="M204.423 209.79L204.919 211.928L207.191 211.401L206.695 209.263L204.423 209.79Z" fill="#6E547F"/>
<path d="M205.982 205.542L204.821 207.405L206.8 208.639L207.961 206.776L205.982 205.542Z" fill="#6E547F"/>
<path d="M210.395 213.972C212.795 213.972 214.74 212.027 214.74 209.627C214.74 207.228 212.795 205.283 210.395 205.283C207.996 205.283 206.051 207.228 206.051 209.627C206.051 212.027 207.996 213.972 210.395 213.972Z" fill="#19254F"/>
<path d="M210.395 211.582C211.475 211.582 212.35 210.707 212.35 209.627C212.35 208.548 211.475 207.673 210.395 207.673C209.316 207.673 208.44 208.548 208.44 209.627C208.44 210.707 209.316 211.582 210.395 211.582Z" fill="#6E547F"/>
<path d="M210.395 210.767C211.024 210.767 211.534 210.257 211.534 209.627C211.534 208.998 211.024 208.488 210.395 208.488C209.766 208.488 209.256 208.998 209.256 209.627C209.256 210.257 209.766 210.767 210.395 210.767Z" fill="#19254F"/>
<path d="M217.909 206.761L217.099 207.36L218.499 209.251L219.309 208.651L217.909 206.761Z" fill="#6E547F"/>
<path d="M221.722 206.243L220.724 206.093L220.376 208.42L221.373 208.569L221.722 206.243Z" fill="#6E547F"/>
<path d="M224.997 208.504L224.397 207.694L222.506 209.093L223.106 209.903L224.997 208.504Z" fill="#6E547F"/>
<path d="M225.592 212.408L225.741 211.411L223.414 211.064L223.265 212.061L225.592 212.408Z" fill="#6E547F"/>
<path d="M223.253 215.59L224.063 214.991L222.664 213.1L221.853 213.7L223.253 215.59Z" fill="#6E547F"/>
<path d="M219.349 216.186L220.346 216.335L220.693 214.008L219.696 213.859L219.349 216.186Z" fill="#6E547F"/>
<path d="M216.167 213.847L216.767 214.657L218.657 213.257L218.058 212.447L216.167 213.847Z" fill="#6E547F"/>
<path d="M215.57 209.942L215.422 210.939L217.748 211.286L217.897 210.289L215.57 209.942Z" fill="#6E547F"/>
<path d="M220.582 214.873C222.624 214.873 224.279 213.218 224.279 211.175C224.279 209.133 222.624 207.478 220.582 207.478C218.54 207.478 216.884 209.133 216.884 211.175C216.884 213.218 218.54 214.873 220.582 214.873Z" fill="#19254F"/>
<path d="M220.582 213.619C221.931 213.619 223.025 212.525 223.025 211.175C223.025 209.826 221.931 208.732 220.582 208.732C219.232 208.732 218.138 209.826 218.138 211.175C218.138 212.525 219.232 213.619 220.582 213.619Z" fill="#6E547F"/>
<path d="M224.539 219.626H207.49V231.41H224.539V219.626Z" fill="#C5C8D3"/>
<path d="M217.142 198.691L202.6 198.44L203.102 183.71H217.142V198.691Z" fill="#2B365C"/>
<path d="M211.272 199.591L211.234 201.284" stroke="#36114E" stroke-width="0.742" stroke-miterlimit="10" stroke-linecap="round"/>
<path d="M213.08 199.631L213.041 201.325" stroke="#36114E" stroke-width="0.742" stroke-miterlimit="10" stroke-linecap="round"/>
<path d="M214.886 199.672L214.849 201.365" stroke="#36114E" stroke-width="0.742" stroke-miterlimit="10" stroke-linecap="round"/>
<path d="M211.491 189.795L211.454 191.488" stroke="#36114E" stroke-width="0.742" stroke-miterlimit="10" stroke-linecap="round"/>
<path d="M213.299 189.835L213.261 191.529" stroke="#36114E" stroke-width="0.742" stroke-miterlimit="10" stroke-linecap="round"/>
<path d="M215.106 189.876L215.068 191.569" stroke="#36114E" stroke-width="0.742" stroke-miterlimit="10" stroke-linecap="round"/>
<path d="M217.181 197.478L218.874 197.516" stroke="#36114E" stroke-width="0.742" stroke-miterlimit="10" stroke-linecap="round"/>
<path d="M217.221 195.67L218.915 195.709" stroke="#36114E" stroke-width="0.742" stroke-miterlimit="10" stroke-linecap="round"/>
<path d="M217.262 193.864L218.955 193.901" stroke="#36114E" stroke-width="0.742" stroke-miterlimit="10" stroke-linecap="round"/>
<path d="M207.385 197.259L209.078 197.296" stroke="#36114E" stroke-width="0.742" stroke-miterlimit="10" stroke-linecap="round"/>
<path d="M207.425 195.451L209.119 195.489" stroke="#36114E" stroke-width="0.742" stroke-miterlimit="10" stroke-linecap="round"/>
<path d="M207.465 193.644L209.159 193.682" stroke="#36114E" stroke-width="0.742" stroke-miterlimit="10" stroke-linecap="round"/>
<path d="M217.908 191.17L208.637 190.962L208.435 199.987L217.705 200.195L217.908 191.17Z" fill="#9C8AA8"/>
<path d="M215.92 192.921L210.574 192.801L210.455 198.114L215.801 198.234L215.92 192.921Z" fill="#6E547F"/>
<path d="M233.189 196.81C234.192 191.42 235.069 183.71 235.069 183.71L224.79 183.897V190.918L230.995 197.124L233.189 196.81Z" fill="#2B365C"/>
<path d="M226.374 185.774C226.711 185.774 226.984 185.502 226.984 185.165C226.984 184.828 226.711 184.555 226.374 184.555C226.038 184.555 225.765 184.828 225.765 185.165C225.765 185.502 226.038 185.774 226.374 185.774Z" fill="#606885"/>
<path d="M226.374 188.251C226.711 188.251 226.984 187.978 226.984 187.641C226.984 187.305 226.711 187.032 226.374 187.032C226.038 187.032 225.765 187.305 225.765 187.641C225.765 187.978 226.038 188.251 226.374 188.251Z" fill="#606885"/>
<path d="M226.374 190.729C226.711 190.729 226.984 190.456 226.984 190.119C226.984 189.782 226.711 189.509 226.374 189.509C226.038 189.509 225.765 189.782 225.765 190.119C225.765 190.456 226.038 190.729 226.374 190.729Z" fill="#606885"/>
<path d="M46.3824 253.616L50.0931 208.446" stroke="#007B84" stroke-width="0.572" stroke-linecap="round" stroke-linejoin="round"/>
</g>
<defs>
<clipPath id="clip0">
<rect width="402.601" height="326" fill="white" transform="translate(0.417633)"/>
</clipPath>
</defs>
</svg>
